<svg viewBox="0 0 36 36" width="24" height="24" xmlns="http://www.w3.org/2000/svg">
  <path d="m30.75 5.23a17.89 17.89 0 0 0 -28.21 21.53l-2.54 9.24 9.5-2.48a18.06 18.06 0 0 0 8.57 2.17 17.91 17.91 0 0 0 17.93-17.84 17.68 17.68 0 0 0 -5.25-12.62m-12.67 27.45a14.94 14.94 0 0 1 -7.58-2.07l-.55-.32-5.65 1.47 1.51-5.47-.36-.56a14.69 14.69 0 0 1 -2.27-7.89 14.9 14.9 0 1 1 14.9 14.84m8.17-11.11c-.45-.22-2.65-1.3-3.06-1.45s-.71-.22-1 .23-1.19 1.45-1.43 1.74-.52.34-1 .12a12.44 12.44 0 0 1 -3.57-2.21 13.53 13.53 0 0 1 -2.49-3.08c-.26-.45 0-.69.19-.91s.45-.52.68-.79a3.08 3.08 0 0 0 .44-.74.82.82 0 0 0 0-.78c-.12-.22-1-2.42-1.38-3.31s-.74-.75-1-.76-.56 0-.86 0a1.66 1.66 0 0 0 -1.2.56 5 5 0 0 0 -1.57 3.69 8.62 8.62 0 0 0 1.83 4.61c.22.29 3.15 4.8 7.65 6.73a25.07 25.07 0 0 0 2.55.94 6.07 6.07 0 0 0 2.82.17c.86-.12 2.65-1.07 3-2.12a3.7 3.7 0 0 0 .27-2.12c-.12-.18-.41-.29-.86-.52" fill-rule="evenodd"/>
</svg>
