<svg xmlns="http://www.w3.org/2000/svg" width="128" height="128" viewBox="0 0 128 128">
  <g>
    <path class="fill-gray" fill-rule="nonzero" d="M23.3021101,49.0546328 L23.3828652,49.0782328 C23.8582218,49.0336945 24.4732072,49.0076615 25.2650397,49.0028977 L71.4483802,49.0011991 C71.4703504,49.0009597 71.4923686,49.0011383 71.5144238,49.0017399 L101.912558,49.0021013 C105.396522,49.0021013 106.154969,49.3814558 106.295538,49.9364161 C106.635969,50.1667833 106.896344,50.5205159 107.004347,50.9525277 L119.992164,98.8592489 C120.009753,98.9228699 120.023815,98.9879643 120.03413,99.0543088 L120.003184,98.9035868 C120.020962,98.9748166 120.034119,99.0465881 120.042738,99.1184972 C120.046554,99.1496004 120.049444,99.1816304 120.051454,99.2139009 C120.053128,99.2391408 120.054178,99.2638548 120.054699,99.2885474 C120.05475,99.3001509 120.054868,99.3119807 120.054868,99.3238384 L120.054868,105.542884 C120.054868,105.666705 120.04197,105.787453 120.017441,105.903861 C120.041896,106.019695 120.054868,106.1407 120.054868,106.264768 C120.054868,107.224737 119.279606,108 118.319636,108 L10.7352323,108 L10.7352323,108 C9.77526254,108 9,107.224737 9,106.264768 L9,99.3238384 L9.00038409,99.2886285 C9.00086953,99.2639503 9.00188393,99.2392552 9.00343118,99.2145604 L9,99.3238384 C9,99.2541278 9.00409543,99.1853839 9.01205953,99.1178345 C9.01473486,99.0968193 9.01768984,99.0754422 9.02105204,99.0540928 C9.03012677,98.9939209 9.04262063,98.9345686 9.05805244,98.8764205 L21.1983103,50.317082 C21.4296183,49.3876144 22.3684059,48.8148521 23.3021101,49.0546328 Z M62.792,101.059 L12.47,101.059 L12.47,104.529 L62.792,104.529 L62.792,101.059 Z M116.584,101.059 L66.262,101.059 L66.262,104.529 L116.584,104.529 L116.584,101.059 Z M101.912558,52.4725659 L72.667691,52.4739997 C63.5025281,76.2870811 50.9245791,79.9949529 36.3943024,84.2761207 C29.209307,86.3949003 21.7853779,88.5830999 13.9854226,93.4754184 L12.9576515,97.5886061 L62.9546157,97.5887262 C65.2658155,84.9280117 91.6868977,68.6584558 106.355144,63.9115427 L106.858,63.627 L103.810789,52.4215152 C103.291165,52.4548663 102.665513,52.4725659 101.912558,52.4725659 Z M107.781,67.022 L108.055638,66.93549 C95.2942284,70.9349628 69.1611548,86.7262482 66.4852047,97.5885841 L116.097217,97.5886061 L107.781,67.022 Z M24.2411791,52.4504684 L15.1658334,88.756183 C22.3097204,84.8117257 29.2145856,82.7758782 35.4123032,80.9496938 C49.34575,76.8420467 60.4524416,73.5674237 68.9389459,52.4737182 L25.5357727,52.4725659 C25.043365,52.4725659 24.6144091,52.4650096 24.2411791,52.4504684 Z"/>
    <g transform="translate(15 28)">
      <polygon class="fill-primary" points="2.872 13.754 18.853 .207 24.905 6.146 24.905 .207 31.304 3.143 32.716 20.996 41.306 21.034 41.306 34.564 23.994 35.406 23.994 23.966 15.711 23.966 13.289 35.945 6.285 35.945"/>
      <path class="fill-gray" fill-rule="nonzero" d="M42.9153624,20.5043014 L34.5636056,17.7203825 L34.5636056,15.7109963 L36.1346659,15.7109963 C36.8165061,15.7109963 37.4182222,15.2726705 37.6287443,14.6253936 C37.8392664,13.9781167 37.6083206,13.2695685 37.0584494,12.8689481 L32.9925452,9.91221254 L32.9925452,1.57145312 C32.9925452,0.704227804 32.2902813,0.000392765089 31.4214849,0.000392765089 L25.1372435,0.000392765089 C24.2684471,0.000392765089 23.5661831,0.704227804 23.5661831,1.57145312 L23.5661831,3.05610515 L19.7767855,0.300465293 C19.2269144,-0.100155098 18.4790897,-0.100155098 17.9292186,0.300465293 L0.64755466,12.8689481 C0.0961124753,13.2679975 -0.133262336,13.9781167 0.077259751,14.6253936 C0.287781839,15.2726705 0.889497954,15.7109963 1.57133815,15.7109963 L3.1423985,15.7109963 L3.1423985,36.1347809 C3.1423985,37.0020062 3.84466248,37.7058413 4.71345886,37.7058413 L32.9925452,37.7058413 L42.4189074,37.7058413 C43.2877037,37.7058413 43.9899677,37.0020062 43.9899677,36.1347809 L43.9899677,21.9952377 C43.9899677,21.3181107 43.5579261,20.7195367 42.9153624,20.5043014 Z M18.853002,3.51328372 L24.21346,7.41108446 C24.6910623,7.75985985 25.3241996,7.80699166 25.8505049,7.54148247 C26.3768101,7.27283114 26.7083038,6.73238638 26.7083038,6.14166769 L26.7083038,3.14251347 L29.8504245,3.14251347 L29.8504245,10.7118823 C29.8504245,11.2146216 30.0907968,11.6875107 30.4977014,11.9828701 L31.3036554,12.5688756 L6.40234874,12.5688756 L18.853002,3.51328372 Z M21.9951228,34.5637206 L15.7108813,34.5637206 L15.7108813,25.1373584 L21.9951228,25.1373584 L21.9951228,34.5637206 Z M25.1372435,34.5637206 L25.1372435,23.5662981 C25.1372435,22.6990728 24.4349795,21.9952377 23.5661831,21.9952377 L14.139821,21.9952377 C13.2710246,21.9952377 12.5687606,22.6990728 12.5687606,23.5662981 L12.5687606,34.5637206 L6.28451921,34.5637206 L6.28451921,15.7109963 L31.4214849,15.7109963 L31.4214849,34.5637206 L25.1372435,34.5637206 Z M40.847847,34.5637206 L34.5636056,34.5637206 L34.5636056,21.0337488 L40.847847,23.1279722 L40.847847,34.5637206 Z"/>
    </g>
    <g transform="translate(63 57)">
      <polygon class="fill-primary" points="2.872 13.754 18.853 .207 24.905 6.146 24.905 .207 31.304 3.143 32.716 20.996 41.306 21.034 41.306 34.564 23.994 35.406 23.994 23.966 15.711 23.966 13.289 35.945 6.285 35.945"/>
      <path class="fill-gray" fill-rule="nonzero" d="M42.9153624,20.5043014 L34.5636056,17.7203825 L34.5636056,15.7109963 L36.1346659,15.7109963 C36.8165061,15.7109963 37.4182222,15.2726705 37.6287443,14.6253936 C37.8392664,13.9781167 37.6083206,13.2695685 37.0584494,12.8689481 L32.9925452,9.91221254 L32.9925452,1.57145312 C32.9925452,0.704227804 32.2902813,0.000392765089 31.4214849,0.000392765089 L25.1372435,0.000392765089 C24.2684471,0.000392765089 23.5661831,0.704227804 23.5661831,1.57145312 L23.5661831,3.05610515 L19.7767855,0.300465293 C19.2269144,-0.100155098 18.4790897,-0.100155098 17.9292186,0.300465293 L0.64755466,12.8689481 C0.0961124753,13.2679975 -0.133262336,13.9781167 0.077259751,14.6253936 C0.287781839,15.2726705 0.889497954,15.7109963 1.57133815,15.7109963 L3.1423985,15.7109963 L3.1423985,36.1347809 C3.1423985,37.0020062 3.84466248,37.7058413 4.71345886,37.7058413 L32.9925452,37.7058413 L42.4189074,37.7058413 C43.2877037,37.7058413 43.9899677,37.0020062 43.9899677,36.1347809 L43.9899677,21.9952377 C43.9899677,21.3181107 43.5579261,20.7195367 42.9153624,20.5043014 Z M18.853002,3.51328372 L24.21346,7.41108446 C24.6910623,7.75985985 25.3241996,7.80699166 25.8505049,7.54148247 C26.3768101,7.27283114 26.7083038,6.73238638 26.7083038,6.14166769 L26.7083038,3.14251347 L29.8504245,3.14251347 L29.8504245,10.7118823 C29.8504245,11.2146216 30.0907968,11.6875107 30.4977014,11.9828701 L31.3036554,12.5688756 L6.40234874,12.5688756 L18.853002,3.51328372 Z M21.9951228,34.5637206 L15.7108813,34.5637206 L15.7108813,25.1373584 L21.9951228,25.1373584 L21.9951228,34.5637206 Z M25.1372435,34.5637206 L25.1372435,23.5662981 C25.1372435,22.6990728 24.4349795,21.9952377 23.5661831,21.9952377 L14.139821,21.9952377 C13.2710246,21.9952377 12.5687606,22.6990728 12.5687606,23.5662981 L12.5687606,34.5637206 L6.28451921,34.5637206 L6.28451921,15.7109963 L31.4214849,15.7109963 L31.4214849,34.5637206 L25.1372435,34.5637206 Z M40.847847,34.5637206 L34.5636056,34.5637206 L34.5636056,21.0337488 L40.847847,23.1279722 L40.847847,34.5637206 Z"/>
    </g>
  </g>
</svg>
