<svg xmlns="http://www.w3.org/2000/svg" width="128" height="128" viewBox="0 0 128 128">
  <g>
    <path class="fill-gray" fill-rule="nonzero" d="M23.3021101,49.0546328 L23.3828652,49.0782328 C23.8582218,49.0336945 24.4732072,49.0076615 25.2650397,49.0028977 L71.4483802,49.0011991 C71.4703504,49.0009597 71.4923686,49.0011383 71.5144238,49.0017399 L101.912558,49.0021013 C105.396522,49.0021013 106.154969,49.3814558 106.295538,49.9364161 C106.635969,50.1667833 106.896344,50.5205159 107.004347,50.9525277 L119.992164,98.8592489 C120.009753,98.9228699 120.023815,98.9879643 120.03413,99.0543088 L120.003184,98.9035868 C120.020962,98.9748166 120.034119,99.0465881 120.042738,99.1184972 C120.046554,99.1496004 120.049444,99.1816304 120.051454,99.2139009 C120.053128,99.2391408 120.054178,99.2638548 120.054699,99.2885474 C120.05475,99.3001509 120.054868,99.3119807 120.054868,99.3238384 L120.054868,105.542884 C120.054868,105.666705 120.04197,105.787453 120.017441,105.903861 C120.041896,106.019695 120.054868,106.1407 120.054868,106.264768 C120.054868,107.224737 119.279606,108 118.319636,108 L10.7352323,108 L10.7352323,108 C9.77526254,108 9,107.224737 9,106.264768 L9,99.3238384 L9.00038409,99.2886285 C9.00086953,99.2639503 9.00188393,99.2392552 9.00343118,99.2145604 L9,99.3238384 C9,99.2541278 9.00409543,99.1853839 9.01205953,99.1178345 C9.01473486,99.0968193 9.01768984,99.0754422 9.02105204,99.0540928 C9.03012677,98.9939209 9.04262063,98.9345686 9.05805244,98.8764205 L21.1983103,50.317082 C21.4296183,49.3876144 22.3684059,48.8148521 23.3021101,49.0546328 Z M62.792,101.059 L12.47,101.059 L12.47,104.529 L62.792,104.529 L62.792,101.059 Z M116.584,101.059 L66.262,101.059 L66.262,104.529 L116.584,104.529 L116.584,101.059 Z M101.912558,52.4725659 L72.667691,52.4739997 C63.5025281,76.2870811 50.9245791,79.9949529 36.3943024,84.2761207 C29.209307,86.3949003 21.7853779,88.5830999 13.9854226,93.4754184 L12.9576515,97.5886061 L62.9546157,97.5887262 C65.2658155,84.9280117 91.6868977,68.6584558 106.355144,63.9115427 L106.858,63.627 L103.810789,52.4215152 C103.291165,52.4548663 102.665513,52.4725659 101.912558,52.4725659 Z M107.781,67.022 L108.055638,66.93549 C95.2942284,70.9349628 69.1611548,86.7262482 66.4852047,97.5885841 L116.097217,97.5886061 L107.781,67.022 Z M24.2411791,52.4504684 L15.1658334,88.756183 C22.3097204,84.8117257 29.2145856,82.7758782 35.4123032,80.9496938 C49.34575,76.8420467 60.4524416,73.5674237 68.9389459,52.4737182 L25.5357727,52.4725659 C25.043365,52.4725659 24.6144091,52.4650096 24.2411791,52.4504684 Z"/>
    <g transform="translate(71 42)">
      <polygon class="fill-primary" points="18 1 26 1 26 24.94 30.083 24.703 31.75 1 38.168 1 38.168 24.94 41.406 24.94 41.406 45 35.665 45 35.083 34.729 27.635 34.729 27.635 45 1.792 45 1.792 24.703 18 24.703"/>
      <path class="fill-gray" fill-rule="nonzero" d="M40.083058,23.1524548 L40.083058,1.65374677 C40.083058,0.740407649 39.3368659,1.88293825e-13 38.4163913,1.88293825e-13 L31.7497247,1.88293825e-13 C30.8292501,1.88293825e-13 30.083058,0.740407649 30.083058,1.65374677 L30.083058,23.1524548 L26.7497247,23.1524548 L26.7497247,1.65374677 C26.7497247,0.740407649 26.0035326,1.88293825e-13 25.083058,1.88293825e-13 L18.4163913,1.88293825e-13 C17.4959168,1.88293825e-13 16.7497247,0.740407649 16.7497247,1.65374677 L16.7497247,23.1524548 L2.16786965,23.1163072 C1.06775088,23.1163072 1.06775088,23.1163072 0.147276297,23.7097611 C-0.0490920991,37.7761779 -0.0490920991,44.9835357 0.147276297,45.3318346 C0.441828892,45.8542831 0.997936675,46.1779909 1.60125672,46.17819 L41.7497247,46.3049096 C42.6701993,46.3049096 43.4163913,45.5645019 43.4163913,44.6511628 L43.4163913,24.8062016 C43.4163913,23.8928624 42.6701993,23.1524548 41.7497247,23.1524548 L40.083058,23.1524548 Z M33.4163913,3.30749354 L36.7497247,3.30749354 L36.7497247,6.61498708 L33.4163913,6.61498708 L33.4163913,3.30749354 Z M33.4163913,9.92248062 L36.7497247,9.92248062 L36.7497247,13.2299742 L33.4163913,13.2299742 L33.4163913,9.92248062 Z M33.4163913,16.5374677 L36.7497247,16.5374677 L36.7497247,23.1524548 L33.4163913,23.1524548 L33.4163913,16.5374677 Z M20.083058,3.30749354 L23.4163913,3.30749354 L23.4163913,6.61498708 L20.083058,6.61498708 L20.083058,3.30749354 Z M20.083058,9.92248062 L23.4163913,9.92248062 L23.4163913,13.2299742 L20.083058,13.2299742 L20.083058,9.92248062 Z M20.083058,16.5374677 L23.4163913,16.5374677 L23.4163913,23.1524548 L20.083058,23.1524548 L20.083058,16.5374677 Z M33.4163913,42.997416 L30.083058,42.997416 L30.083058,36.3824289 L33.4163913,36.3824289 L33.4163913,42.997416 Z M40.083058,42.997416 L36.7497247,42.997416 L36.7497247,34.7286822 C36.7497247,33.815343 36.0035326,33.0749354 35.083058,33.0749354 L28.4163913,33.0749354 C27.4959168,33.0749354 26.7497247,33.815343 26.7497247,34.7286822 L26.7497247,42.997416 L3.41639134,42.997416 L3.41639134,26.4599483 L40.083058,26.4599483 L40.083058,42.997416 Z M6.74972468,29.7674419 L10.083058,29.7674419 L10.083058,33.0749354 L6.74972468,33.0749354 L6.74972468,29.7674419 Z M13.4163913,29.7674419 L16.7497247,29.7674419 L16.7497247,33.0749354 L13.4163913,33.0749354 L13.4163913,29.7674419 Z M13.4163913,36.3824289 L16.7497247,36.3824289 L16.7497247,39.6899225 L13.4163913,39.6899225 L13.4163913,36.3824289 Z M20.083058,29.7674419 L23.4163913,29.7674419 L23.4163913,33.0749354 L20.083058,33.0749354 L20.083058,29.7674419 Z M20.083058,36.3824289 L23.4163913,36.3824289 L23.4163913,39.6899225 L20.083058,39.6899225 L20.083058,36.3824289 Z M6.74972468,36.3824289 L10.083058,36.3824289 L10.083058,39.6899225 L6.74972468,39.6899225 L6.74972468,36.3824289 Z"/>
    </g>
    <g transform="translate(17 22)">
      <polygon class="fill-primary" points="18 1 26 1 26 24.94 30.083 24.703 31.75 1 38.168 1 38.168 24.94 41.406 24.94 41.406 45 35.665 45 35.083 34.729 27.635 34.729 27.635 45 1.792 45 1.792 24.703 18 24.703"/>
      <path class="fill-gray" fill-rule="nonzero" d="M40.083058,23.1524548 L40.083058,1.65374677 C40.083058,0.740407649 39.3368659,1.88293825e-13 38.4163913,1.88293825e-13 L31.7497247,1.88293825e-13 C30.8292501,1.88293825e-13 30.083058,0.740407649 30.083058,1.65374677 L30.083058,23.1524548 L26.7497247,23.1524548 L26.7497247,1.65374677 C26.7497247,0.740407649 26.0035326,1.88293825e-13 25.083058,1.88293825e-13 L18.4163913,1.88293825e-13 C17.4959168,1.88293825e-13 16.7497247,0.740407649 16.7497247,1.65374677 L16.7497247,23.1524548 L2.16786965,23.1163072 C1.06775088,23.1163072 1.06775088,23.1163072 0.147276297,23.7097611 C-0.0490920991,37.7761779 -0.0490920991,44.9835357 0.147276297,45.3318346 C0.441828892,45.8542831 0.997936675,46.1779909 1.60125672,46.17819 L41.7497247,46.3049096 C42.6701993,46.3049096 43.4163913,45.5645019 43.4163913,44.6511628 L43.4163913,24.8062016 C43.4163913,23.8928624 42.6701993,23.1524548 41.7497247,23.1524548 L40.083058,23.1524548 Z M33.4163913,3.30749354 L36.7497247,3.30749354 L36.7497247,6.61498708 L33.4163913,6.61498708 L33.4163913,3.30749354 Z M33.4163913,9.92248062 L36.7497247,9.92248062 L36.7497247,13.2299742 L33.4163913,13.2299742 L33.4163913,9.92248062 Z M33.4163913,16.5374677 L36.7497247,16.5374677 L36.7497247,23.1524548 L33.4163913,23.1524548 L33.4163913,16.5374677 Z M20.083058,3.30749354 L23.4163913,3.30749354 L23.4163913,6.61498708 L20.083058,6.61498708 L20.083058,3.30749354 Z M20.083058,9.92248062 L23.4163913,9.92248062 L23.4163913,13.2299742 L20.083058,13.2299742 L20.083058,9.92248062 Z M20.083058,16.5374677 L23.4163913,16.5374677 L23.4163913,23.1524548 L20.083058,23.1524548 L20.083058,16.5374677 Z M33.4163913,42.997416 L30.083058,42.997416 L30.083058,36.3824289 L33.4163913,36.3824289 L33.4163913,42.997416 Z M40.083058,42.997416 L36.7497247,42.997416 L36.7497247,34.7286822 C36.7497247,33.815343 36.0035326,33.0749354 35.083058,33.0749354 L28.4163913,33.0749354 C27.4959168,33.0749354 26.7497247,33.815343 26.7497247,34.7286822 L26.7497247,42.997416 L3.41639134,42.997416 L3.41639134,26.4599483 L40.083058,26.4599483 L40.083058,42.997416 Z M6.74972468,29.7674419 L10.083058,29.7674419 L10.083058,33.0749354 L6.74972468,33.0749354 L6.74972468,29.7674419 Z M13.4163913,29.7674419 L16.7497247,29.7674419 L16.7497247,33.0749354 L13.4163913,33.0749354 L13.4163913,29.7674419 Z M13.4163913,36.3824289 L16.7497247,36.3824289 L16.7497247,39.6899225 L13.4163913,39.6899225 L13.4163913,36.3824289 Z M20.083058,29.7674419 L23.4163913,29.7674419 L23.4163913,33.0749354 L20.083058,33.0749354 L20.083058,29.7674419 Z M20.083058,36.3824289 L23.4163913,36.3824289 L23.4163913,39.6899225 L20.083058,39.6899225 L20.083058,36.3824289 Z M6.74972468,36.3824289 L10.083058,36.3824289 L10.083058,39.6899225 L6.74972468,39.6899225 L6.74972468,36.3824289 Z"/>
    </g>
  </g>
</svg>
