<svg xmlns="http://www.w3.org/2000/svg" width="128" height="128" viewBox="0 0 128 128">
  <path class="fill-gray" d="M112.332977,15.3332881 C113.253845,15.3332881 114,14.5871334 114,13.6670283 C114,12.7461604 113.253845,12.0000028 112.332977,12.0000028 L69.2574158,12.0000028 C67.6064148,11.9984798 66.0133973,12.6111201 64.7896424,13.7189082 L16.7488709,57.1103268 C15.0002137,58.6919002 14.0022888,60.937994 14,63.2954768 L14,68.6665705 C14,69.5874385 14.7461547,70.3335934 15.6670227,70.3335934 C16.5871277,70.3335934 17.3332824,69.5874385 17.3332824,68.6665705 L17.3332824,63.2954768 C17.3348084,61.8809871 17.9337158,60.5336361 18.9819945,59.5845393 L25.6668701,53.5466365 L25.6668701,92.0003108 L15.6670227,92.0003108 C14.7461547,92.0003108 14,92.7464656 14,93.6665705 C14,94.5874385 14.7461547,95.3335934 15.6670227,95.3335934 L17.3332824,95.3335934 L17.3332824,108.666723 C17.3355713,110.506933 18.827118,111.997717 20.6665648,112.000003 L110.666718,112.000003 C112.506928,111.997717 113.997711,110.506933 114,108.666723 L114,45.3335934 C113.997711,43.4933834 112.506928,42.0025996 110.666718,42.0003108 L100.66687,42.0003108 L100.66687,15.3332881 L112.332977,15.3332881 Z M69.2574158,15.3332824 L80.6664123,15.3332824 L80.6664123,42.0003108 L70.6665648,42.0003108 C69.74646,42.0003108 69.0003051,42.7464656 69.0003051,43.6665705 C69.0003051,44.5874385 69.74646,45.3335934 70.6665648,45.3335934 L72.3335877,45.3335934 L72.3335877,56.9997006 C72.3328246,57.9205684 71.5866699,58.6659604 70.6665648,58.6667233 L65.6670227,58.6667233 L65.6670227,17.4184018 L67.024292,16.192358 C67.6354064,15.6384639 68.4319152,15.3317623 69.2574158,15.3332824 Z M55.6664123,58.6667233 L52.3331299,58.6667233 C51.413025,58.6667233 50.6668701,59.4128779 50.6668701,60.332983 C50.6668701,61.253851 51.413025,62.0000057 52.3331299,62.0000057 L54.0001525,62.0000057 L54.0001525,73.6668758 C53.9993896,74.5869807 53.2532348,75.3331356 52.3331299,75.3331356 L47.3335877,75.3331356 L47.3335877,33.9772397 L62.3329773,20.4297236 L62.3329773,58.6667233 L55.6664123,58.6667233 Z M29.0001525,50.5360776 L44.0003051,36.9885615 L44.0003051,75.3331356 L33.9996949,75.3331356 C33.0795898,75.3331356 32.3334352,76.0792904 32.3334352,77.0001582 C32.3334352,77.9202633 33.0795898,78.666418 33.9996949,78.666418 L35.6667176,78.666418 L35.6667176,90.3332881 C35.6659547,91.2533932 34.9205627,91.9995479 33.9996949,92.0003108 L29.0001525,92.0003108 L29.0001525,50.5360776 Z M80.6664123,108.666723 L80.6664123,67.0003108 C80.6671754,66.079443 81.4133301,65.334051 82.3334352,65.3332881 L102.33313,65.3332881 C103.253235,65.334051 103.99939,66.079443 104.000153,67.0003108 L104.000153,108.666723 L80.6664123,108.666723 Z M110.666718,108.666723 L107.333435,108.666723 L107.333435,67.0003108 C107.330383,64.2399959 105.093445,62.0030574 102.33313,62.0000057 L82.3334352,62.0000057 C79.5731201,62.0030574 77.3361816,64.2399959 77.3331299,67.0003108 L77.3331299,108.666723 L20.6665648,108.666723 L20.6665648,95.3335934 L33.9996949,95.3335934 C36.7600098,95.3305416 38.9969482,93.0936031 39,90.3332881 L39,78.666418 L52.3331299,78.666418 C55.0934449,78.6633662 57.3303832,76.4271908 57.3334352,73.6668758 L57.3334352,62.0000057 L70.6665648,62.0000057 C73.4268799,61.9969539 75.6638184,59.7600154 75.6668701,56.9997006 L75.6668701,45.3335934 L82.3364867,45.3335934 L98.9891662,45.3320674 L98.9998475,45.3335934 L99.0105285,45.3313045 L110.666718,45.3297787 L110.666718,108.666723 Z M98.9998475,81.9997006 C99.9207152,81.9997006 100.66687,82.7458553 100.66687,83.6667233 L100.66687,83.6667233 L100.66687,85.332983 C100.66687,86.253851 99.9207152,87.0000057 98.9998475,87.0000057 C98.0797424,87.0000057 97.3335877,86.253851 97.3335877,85.332983 L97.3335877,85.332983 L97.3335877,83.6667233 C97.3335877,82.7458553 98.0797424,81.9997006 98.9998475,81.9997006 Z M97.3335877,15.3332881 L97.3335877,42.0003108 L83.9996949,42.0003108 L83.9996949,15.3332881 L97.3335877,15.3332881 Z" transform="matrix(-1 0 0 1 128 0)"/>
</svg>
