<svg xmlns="http://www.w3.org/2000/svg" width="128" height="128" viewBox="0 0 128 128">
  <g>
    <path class="fill-gray" fill-rule="nonzero" d="M23.3021101,42.0546328 L23.3828652,42.0782328 C23.6866891,42.0497662 24.0475531,42.0288592 24.4751748,42.0162335 L27.933,45.472 L25.5357727,45.4725659 C25.043365,45.4725659 24.6144091,45.4650096 24.2411791,45.4504684 L15.1658334,81.756183 C22.3097204,77.8117257 29.2145856,75.7758782 35.4123032,73.9496938 C40.9594355,72.3143725 46.0585368,70.8110827 50.7226415,68.262875 L53.2775454,70.818755 C48.0504007,73.8414653 42.388476,75.510011 36.3943024,77.2761207 C29.209307,79.3949003 21.7853779,81.5830999 13.9854226,86.4754184 L12.9576515,90.5886061 L40.872,90.588 L37.401,94.059 L12.47,94.059 L12.47,97.529 L33.931,97.529 L30.462,100.999 L10.7352323,101 L10.7352323,101 C9.77526254,101 9,100.224737 9,99.2647677 L9,92.3238384 L9.00038409,92.2886285 C9.00086953,92.2639503 9.00188393,92.2392552 9.00343118,92.2145604 L9,92.3238384 C9,92.2541278 9.00409543,92.1853839 9.01205953,92.1178345 C9.01473486,92.0968193 9.01768984,92.0754422 9.02105204,92.0540928 C9.03012677,91.9939209 9.04262063,91.9345686 9.05805244,91.8764205 L21.1983103,43.317082 C21.4296183,42.3876144 22.3684059,41.8148521 23.3021101,42.0546328 Z M66.1745516,83.7141925 L68.6215477,86.1618974 C67.570053,87.69581 66.8313644,89.1834373 66.4852047,90.5885841 L73.049,90.588 L76.52,94.059 L66.262,94.059 L66.262,97.529 L79.99,97.529 L83.46,100.999 L43.54,100.999 L47.01,97.529 L62.792,97.529 L62.792,94.059 L50.48,94.059 L53.951,90.588 L62.9546157,90.5887262 C63.3577702,88.3802526 64.494531,86.0619705 66.1745516,83.7141925 Z M106.287665,42.9077332 L106.295202,42.9351246 C106.635969,43.1667833 106.896344,43.5205159 107.004347,43.9525277 L119.992164,91.8592489 C120.009753,91.9228699 120.023815,91.9879643 120.03413,92.0543088 L120.003184,91.9035868 C120.020962,91.9748166 120.034119,92.0465881 120.042738,92.1184972 C120.046554,92.1496004 120.049444,92.1816304 120.051454,92.2139009 C120.053128,92.2391408 120.054178,92.2638548 120.054699,92.2885474 C120.05475,92.3001509 120.054868,92.3119807 120.054868,92.3238384 L120.054868,98.5428839 C120.054868,98.6667051 120.04197,98.7874533 120.017441,98.9038612 C120.041896,99.0196952 120.054868,99.1407003 120.054868,99.2647677 C120.054868,100.224737 119.279606,101 118.319636,101 L96.539,100.999 L93.068,97.529 L116.584,97.529 L116.584,94.059 L89.598,94.059 L86.127,90.588 L116.097217,90.5886061 L107.781,60.022 L107.647439,60.0659517 C98.8652109,62.9259351 84.1934767,71.0549698 74.8842807,79.3444773 L72.4165857,76.8781826 C82.0298141,68.1107071 96.7252631,60.0279485 106.355144,56.9115427 L106.858,56.627 L103.810789,45.4215152 C103.291165,45.4548663 102.665513,45.4725659 101.912558,45.4725659 L99.068,45.472 L102.535157,42.0065087 C105.434444,42.0494623 106.138049,42.4027722 106.287665,42.9077332 Z M71.5144238,42.0017399 L89.458,42.002 L85.988,45.472 L72.667691,45.4739997 C69.1537158,54.6040696 65.1380614,60.7786759 60.7030401,65.1632713 L58.2424136,62.7028012 C62.1857719,58.8183484 65.747621,53.4059439 68.9389459,45.4737182 L41.012,45.472 L37.541,42.002 L71.4483802,42.0011991 C71.4703504,42.0009597 71.4923686,42.0011383 71.5144238,42.0017399 Z"/>
    <polygon class="fill-gray" fill-rule="nonzero" points="114 24.951 108.049 19 63.5 63.549 18.951 19 13 24.951 57.549 69.5 13 114.049 18.951 120 63.5 75.451 108.049 120 114 114.049 69.451 69.5"/>
  </g>
</svg>
