<svg xmlns="http://www.w3.org/2000/svg" width="128" height="128" viewBox="0 0 128 128">
  <g>
    <path class="fill-gray" fill-rule="nonzero" d="M23.3021101,42.0546328 L23.4177363,42.0893926 C23.9073801,42.0380413 24.5566202,42.0080465 25.4124477,42.0028977 L34.0599659,42.0021013 C38.9508351,42.0021013 38.4704753,42.7497026 38.4497573,43.681226 L38.4491124,43.7373336 C38.4491124,44.6956089 39.0486525,45.4725659 34.0599659,45.4725659 L25.6831807,45.4725659 C25.1260456,45.4725659 24.6501404,45.4628925 24.2442742,45.4443732 L15.1628685,81.7660301 C22.3365162,77.8332603 29.3274644,75.8448308 35.4123032,73.9496938 C44.4553309,71.133222 47.0600313,69.9314562 47.1566395,69.8873451 C51.7147636,67.8061159 51.4423182,71.5947217 50.1653876,72.3112156 C46.1704569,74.5527969 49.324162,73.0416443 36.3943024,77.2761207 C29.4585534,79.5475503 21.7970949,81.5904639 13.9855164,86.47589 L12.9576515,90.5886061 L62.9546157,90.5887262 C65.2658155,77.9280117 91.6868977,61.6584558 106.355144,56.9115427 L106.858,56.627 L103.810789,45.4215152 C103.291165,45.4548663 102.665513,45.4725659 101.912558,45.4725659 L95.5357727,45.4725659 C90.5426783,45.4725659 92.073891,44.6956089 92.073891,43.7373336 C92.073891,42.7976359 90.5988648,42.0309704 95.2650397,42.0028977 L101.912558,42.0021013 C105.396522,42.0021013 106.154969,42.3814558 106.295538,42.9364161 C106.635969,43.1667833 106.896344,43.5205159 107.004347,43.9525277 L119.992164,91.8592489 C120.009753,91.9228699 120.023815,91.9879643 120.03413,92.0543088 L120.003184,91.9035868 C120.020962,91.9748166 120.034119,92.0465881 120.042738,92.1184972 C120.046554,92.1496004 120.049444,92.1816304 120.051454,92.2139009 C120.053128,92.2391408 120.054178,92.2638548 120.054699,92.2885474 C120.05475,92.3001509 120.054868,92.3119807 120.054868,92.3238384 L120.054868,98.5428839 C120.054868,98.6667051 120.04197,98.7874533 120.017441,98.9038612 C120.041896,99.0196952 120.054868,99.1407003 120.054868,99.2647677 C120.054868,100.224737 119.279606,101 118.319636,101 L10.7352323,101 L10.7352323,101 C9.77526254,101 9,100.224737 9,99.2647677 L9,92.3238384 L9.00038409,92.2886285 C9.00086953,92.2639503 9.00188393,92.2392552 9.00343118,92.2145604 L9,92.3238384 C9,92.2541278 9.00409543,92.1853839 9.01205953,92.1178345 C9.01473486,92.0968193 9.01768984,92.0754422 9.02105204,92.0540928 C9.03012677,91.9939209 9.04262063,91.9345686 9.05805244,91.8764205 L21.1983103,43.317082 C21.4296183,42.3876144 22.3684059,41.8148521 23.3021101,42.0546328 Z M62.792,94.059 L12.47,94.059 L12.47,97.529 L62.792,97.529 L62.792,94.059 Z M116.584,94.059 L66.262,94.059 L66.262,97.529 L116.584,97.529 L116.584,94.059 Z M107.781,60.022 L108.055638,59.93549 C95.2942284,63.9349628 69.1611548,79.7262482 66.4852047,90.5885841 L116.097217,90.5886061 L107.781,60.022 Z"/>
    <path class="fill-gray" fill-rule="nonzero" d="M65.6465108,56.867656 L65.6465108,55.444129 C65.6465108,53.7358967 65.9786671,52.3756376 66.6429797,51.3633517 C67.3072923,50.3510659 68.6201005,49.0751639 70.5814043,47.5356459 C72.8801367,45.7430564 74.4987396,44.2878955 75.437213,43.1701632 C76.3756863,42.0524309 77.0769051,40.8767031 77.5408695,39.6429797 C78.0048338,38.4092563 78.236816,37.0015463 78.236816,35.4198497 C78.236816,31.8557599 77.0241819,29.0614292 74.5989137,27.0368575 C72.1736456,25.0122858 68.8942612,24 64.7607607,24 C59.8680458,24 55.2811256,25.1915448 51,27.5746344 L51,27.5746344 L53.6572503,33.1422065 C55.2811256,32.3408136 56.9471793,31.6554117 58.6554117,31.0860009 C60.3636441,30.5165901 62.2195014,30.2318847 64.2229838,30.2318847 C66.4373591,30.2318847 68.1350468,30.7063937 69.316047,31.6554117 C70.4970471,32.6044297 71.0875472,33.9646888 71.0875472,35.736189 C71.0875472,37.2546178 70.723757,38.5621537 69.9961765,39.6587967 C69.2685961,40.7554397 67.6499932,42.2949577 65.1403679,44.2773508 C63.031439,45.9223153 61.5551889,47.5145566 60.7116173,49.0540746 C59.8680458,50.5935927 59.44626,52.5232626 59.44626,54.8430843 L59.44626,54.8430843 L59.44626,56.867656 L65.6465108,56.867656 Z M62.7994569,71.8305061 C64.2967964,71.8305061 65.4514349,71.3929034 66.2633725,70.5176979 C67.0753101,69.6424925 67.4812789,68.45622 67.4812789,66.9588805 C67.4812789,65.4404518 67.0805824,64.2647239 66.2791895,63.431697 C65.4777965,62.5986701 64.3178856,62.1821567 62.7994569,62.1821567 C59.6993315,62.1821567 58.1492688,63.774398 58.1492688,66.9588805 C58.1492688,68.4983986 58.5499653,69.6952157 59.3513582,70.5493319 C60.1527512,71.4034481 61.3021174,71.8305061 62.7994569,71.8305061 Z"/>
  </g>
</svg>
