<svg xmlns="http://www.w3.org/2000/svg" width="128" height="128" viewBox="0 0 128 128">
  <g>
    <polygon class="fill-primary" points="23 58.737 50.023 58.737 50.914 70.568 55.228 66.149 64 66.149 69.593 69.049 78.077 58.737 104 58.737 117.32 105.589 117.32 114.265 9.735 112.53"/>
    <path class="fill-gray" fill-rule="nonzero" d="M22.3021101,57.0546328 L22.3828652,57.0782328 C22.8582218,57.0336945 23.4732072,57.0076615 24.2650397,57.0028977 L46.3947135,57.0021013 C51.3834001,57.0021013 50.78386,57.7799057 50.78386,58.7373336 C50.78386,59.6956089 51.3834001,60.4725659 46.3947135,60.4725659 L24.5357727,60.4725659 C24.043365,60.4725659 23.6144091,60.4650096 23.2411791,60.4504684 L14.1658334,96.756183 C21.3097204,92.8117257 28.2145856,90.7758782 34.4123032,88.9496938 C48.8457419,84.6946467 57.124546,83.1715681 59.7561229,80.3441956 C60.541877,79.4999796 61.0821185,78.9876982 61.9861676,79.3206797 C62.8851333,79.6536612 63.5341298,80.6692345 63.0096835,81.5507244 C60.071843,86.4886498 50.15225,87.9278725 35.3943024,92.2761207 C28.209307,94.3949003 20.7853779,96.5830999 12.9854226,101.475418 L11.9576515,105.588606 L61.8735938,105.588147 C62.9955933,93.7792451 75.5671013,86.7465701 90.2112986,82.0074398 L91.7728383,81.1271144 C92.6040213,80.6568733 93.6656651,80.9466435 94.1359061,81.7829103 C94.607842,82.6166352 94.3146825,83.676584 93.4801104,84.1468253 L91.9117925,85.0313871 C79.1844197,89.0201926 66.6980884,95.7103453 65.3776191,105.587895 L115.097217,105.588606 L102.810789,60.4215152 C102.291165,60.4548663 101.665513,60.4725659 100.912558,60.4725659 L79.0536171,60.4725659 C74.0605227,60.4725659 75.5917354,59.6956089 75.5917354,58.7373336 C75.5917354,57.7976359 74.1167092,57.0309704 78.7828841,57.0028977 L100.912558,57.0021013 C104.396522,57.0021013 105.154969,57.3814558 105.295538,57.9364161 C105.635969,58.1667833 105.896344,58.5205159 106.004347,58.9525277 L118.992164,106.859249 C119.009753,106.92287 119.023815,106.987964 119.03413,107.054309 L119.003184,106.903587 C119.020962,106.974817 119.034119,107.046588 119.042738,107.118497 C119.046554,107.1496 119.049444,107.18163 119.051454,107.213901 C119.053128,107.239141 119.054178,107.263855 119.054699,107.288547 C119.05475,107.300151 119.054868,107.311981 119.054868,107.323838 L119.054868,113.542884 C119.054868,113.666705 119.04197,113.787453 119.017441,113.903861 C119.041896,114.019695 119.054868,114.1407 119.054868,114.264768 C119.054868,115.224737 118.279606,116 117.319636,116 L9.73523232,116 L9.73523232,116 C8.77526254,116 8,115.224737 8,114.264768 L8,107.323838 L8.00038409,107.288628 C8.00086953,107.26395 8.00188393,107.239255 8.00343118,107.21456 L8,107.323838 C8,107.254128 8.00409543,107.185384 8.01205953,107.117835 C8.01473486,107.096819 8.01768984,107.075442 8.02105204,107.054093 C8.03012677,106.993921 8.04262063,106.934569 8.05805244,106.87642 L20.1983103,58.317082 C20.4296183,57.3876144 21.3684059,56.8148521 22.3021101,57.0546328 Z M61.792,109.059 L11.47,109.059 L11.47,112.529 L61.792,112.529 L61.792,109.059 Z M115.584,109.059 L65.262,109.059 L65.262,112.529 L115.584,112.529 L115.584,109.059 Z"/>
    <path class="fill-gray" fill-rule="nonzero" d="M1.35,81 L79.65,81 C80.0385968,81 80.4083606,80.832606 80.6647061,80.5405538 C80.9210515,80.2485016 81.0391142,79.8601494 80.9886938,79.4748375 C80.6530699,76.9319968 79.1809147,74.6791318 76.9868319,73.3507181 C74.7927491,72.0223044 72.1141441,71.7620797 69.7053938,72.6433312 C68.2538626,70.2341787 65.843296,68.5588831 63.0792509,68.0382942 C60.3152057,67.5177054 57.460359,68.2012967 55.231875,69.9173437 C53.8038409,68.9990771 52.1565333,68.4787337 50.4601313,68.4100687 C50.8577509,67.746954 51.2148057,67.0603446 51.5293313,66.3540187 L57.294,53.3838937 C57.5967297,52.7025688 57.2898443,51.904833 56.6085375,51.6020625 L50.4410625,48.861225 L52.0857,45.1603687 C52.3884717,44.4791357 52.0817515,43.6814365 51.400575,43.3785375 L60.9307313,21.9353063 L66.1282313,21.6990562 C66.6390458,21.6758119 67.0928855,21.365957 67.3005375,20.898675 L72.7835625,8.56305 C73.0862922,7.88172503 72.7794068,7.08398929 72.0981,6.78121875 L57.2945063,0.2008125 C56.6131813,-0.101917185 55.8154455,0.204968182 55.512675,0.886275 L50.0298188,13.2227438 C49.8221479,13.689946 49.8962283,14.2343776 50.2211813,14.6291063 L53.5286813,18.6453562 L43.9983563,40.0884187 C43.3170313,39.7856891 42.5192955,40.0925744 42.216525,40.7738813 L40.57155,44.475075 L34.4028938,41.7335625 C33.7215688,41.4308328 32.923833,41.7377182 32.6210625,42.419025 L26.8580813,55.3889812 C24.7985915,60.0406927 24.6714218,65.3200286 26.50455,70.0655062 C25.6960154,70.1116881 24.899302,70.2812743 24.14205,70.5683812 C21.9602768,68.4466217 18.7775637,67.7183075 15.890175,68.6800688 C13.1365968,66.1183494 9.12628874,65.4328415 5.67813804,66.934459 C2.22998734,68.4360766 0,71.8390695 0,75.6 L0,79.65 C0,80.0080423 0.142231734,80.35142 0.395405845,80.6045942 C0.648579956,80.8577683 0.991957739,81 1.35,81 Z M14.8529503,81 C15.5034858,77.026288 18.7853522,75.6577153 20.7533812,76.2208312 C21.3670229,76.3954432 22.0191788,76.1170333 22.317525,75.5530875 C23.2242358,73.8279788 25.0131542,72.7483101 26.9620312,72.7499812 C27.0970312,72.7499812 27.2426625,72.7567312 27.4065187,72.7704 C28.0194763,72.821424 28.5895297,72.4519784 28.7933062,71.8716375 C29.7191115,69.233162 31.8759779,67.213696 34.5695995,66.4633156 C37.2632211,65.7129351 40.1535524,66.3263691 42.3101812,68.10615 C42.3510103,68.145317 42.3904489,68.1786144 42.4316812,68.2095937 C43.4322823,69.0683868 44.2207942,70.1468802 44.735625,71.3608312 C44.8863633,71.7156977 45.1816389,71.9891801 45.5469997,72.1123213 C45.9123604,72.2354625 46.3129389,72.1965107 46.6477313,72.0052875 C48.7831804,70.7879149 51.4050966,70.7988554 53.5303119,72.0340067 C55.6555273,73.269158 56.9678063,75.5530875 56.9622552,81 L14.8529503,81 Z M68.6638447,75.6897166 C69.0293273,75.8128018 69.430002,75.7737022 69.7647938,75.5822812 C71.1858182,74.7731027 72.8841117,74.607089 74.4349378,75.1257594 C75.9857638,75.6444298 77.8585602,78.3173539 77.8585602,81 L59.6244477,81 C59.6279915,80.9058375 59.6622375,78.1066125 59.6622375,77.9999625 C59.6634326,75.6987787 58.834206,73.4744452 57.3269062,71.735625 C59.1049185,70.5745183 61.3060032,70.2608658 63.3375713,70.8791111 C65.3691395,71.4973564 67.022374,72.9839524 67.8521813,74.9386687 C68.0029688,75.2931141 68.2983621,75.5666315 68.6638447,75.6897166 Z M49.0620375,65.2578188 C48.4666248,66.5985387 47.6933215,67.8529429 46.7629875,68.9871938 C46.7062875,69.00795 46.6490812,69.02685 46.5928875,69.0486188 C46.1698846,68.319368 45.6660835,67.6400857 45.0910125,67.0236187 C45.4880894,66.475019 45.8268598,65.8864971 46.101825,65.2676063 L50.165325,56.1247312 C50.4680967,55.4434982 50.1613765,54.645799 49.4802,54.3429 L47.69145,53.5475812 C48.3287013,52.8781117 48.8742031,52.1269615 49.3136437,51.3138375 L54.2777625,53.5197375 L49.0620375,65.2578188 Z M60.1730437,10.344375 L61.406775,10.8926437 L62.64,11.44125 L61.543125,13.9085437 L59.0758312,12.8116687 L60.1730437,10.344375 Z M57.4317,3.21654375 L69.767325,8.6994 L68.67045,11.1666938 L64.9699313,9.52205625 L64.9699313,9.52205625 L60.0353437,7.32830625 L60.0343312,7.32830625 L56.3343187,5.6838375 L57.4317,3.21654375 Z M55.23795,8.15113125 L57.7052437,9.24800625 L56.0604375,12.9488625 C55.9149975,13.2760451 55.9054909,13.6476037 56.0340092,13.9817957 C56.1625276,14.3159876 56.4185426,14.5854361 56.7457312,14.7308625 L61.6804875,16.9246125 C62.3618125,17.2273422 63.1595482,16.9204568 63.4623188,16.23915 L65.1076313,12.538125 L67.574925,13.635 L65.1722625,19.0407375 L60.293025,19.262475 L58.11615,18.2953687 L55.939275,17.3282625 L52.835625,13.5568687 L55.23795,8.15113125 Z M55.7862188,20.2133812 L58.2535125,21.3102562 L48.9332813,42.282 L46.4659875,41.185125 L55.7862188,20.2133812 Z M44.1352125,43.1043188 L49.0696313,45.2980688 L47.4249938,48.9985875 L47.4249938,48.9985875 L47.2089938,49.4847563 C46.2934492,51.5504878 44.5197753,53.1121174 42.3547313,53.7586875 C41.3836211,51.7184678 41.35427,49.3553916 42.2744063,47.2916813 L42.4834875,46.8210375 C42.48585,46.8158063 42.4888875,46.8110813 42.49125,46.80585 C42.4936125,46.8006188 42.4951313,46.79505 42.497325,46.788975 L44.1352125,43.1043188 Z M29.3248688,56.4861938 L34.5392438,44.7498 L39.504375,46.9568813 C38.4328177,49.9765981 38.8099444,53.3213881 40.527,56.0266875 C40.8182328,56.4875178 41.3583363,56.7276008 41.8955625,56.6350312 C43.0837587,56.4318031 44.2278291,56.0245074 45.2771438,55.4311687 L47.1502688,56.2637813 L43.6347,64.1737687 C43.4628915,64.560732 43.2565173,64.9314036 43.0180875,65.281275 C38.340236,62.2268366 32.1296642,63.0675109 28.4321813,67.25565 C27.5102611,63.6673146 27.8249362,59.8729619 29.325375,56.4855188 L29.3248688,56.4861938 Z M2.7,75.6 C2.70026654,72.785937 4.44584863,70.2671227 7.08066693,69.2788499 C9.71548523,68.2905771 12.6869642,69.0401068 14.5378125,71.15985 C14.9371743,71.6179121 15.5933706,71.7526741 16.1409375,71.4890812 C16.2642938,71.4296812 16.373475,71.3810812 16.474725,71.34075 C18.221284,70.650552 20.2005817,70.9127817 21.7071563,72.033975 C21.2425569,72.4433569 20.8274251,72.9056653 20.4702188,73.4114812 C17.2763774,72.9893517 12.2035781,75.6 11.974424,81 L2.7,81 L2.7,75.6 Z" transform="translate(23)"/>
  </g>
</svg>
