<svg xmlns="http://www.w3.org/2000/svg" width="128" height="128" viewBox="0 0 128 128">
  <path class="fill-gray" d="M109,103 C108.711719,103 108.425,103.025 108.143359,103.075 C106.993359,101.00332 104.805078,99.6666016 102.333398,99.6666016 C99.8617187,99.6666016 97.6734375,101.00332 96.5234375,103.075 C96.2417969,103.025 95.9550781,103 95.6667969,103 C92.9101562,103 90.6667969,105.243359 90.6667969,108 C90.6667969,108.586719 90.7867187,109.141602 90.9751953,109.666602 L84,109.666602 L84,99.6666016 L92.3333984,99.6666016 C93.2533203,99.6666016 94,98.9199219 94,98 L94,31.3333984 C94,30.4134766 93.2533203,29.6667969 92.3333984,29.6667969 L42.3333984,29.6667969 C41.4134766,29.6667969 40.6667969,30.4134766 40.6667969,31.3333984 L40.6667969,111.333398 C40.6667969,112.25332 41.4134766,113 42.3333984,113 L109,113 C111.756641,113 114,110.756641 114,108 C114,105.243359 111.756641,103 109,103 Z M84,33 L90.6666016,33 L90.6666016,43 L84,43 L84,33 Z M84,46.3333984 L90.6666016,46.3333984 L90.6666016,56.3333984 L84,56.3333984 L84,46.3333984 Z M84,59.6666016 L90.6666016,59.6666016 L90.6666016,69.6666016 L84,69.6666016 L84,59.6666016 Z M84,73 L90.6666016,73 L90.6666016,83 L84,83 L84,73 Z M84,86.3333984 L90.6666016,86.3333984 L90.6666016,96.3333984 L84,96.3333984 L84,86.3333984 Z M50.6666016,109.666602 L44,109.666602 L44,99.6666016 L50.6666016,99.6666016 L50.6666016,109.666602 Z M50.6666016,96.3333984 L44,96.3333984 L44,86.3333984 L50.6666016,86.3333984 L50.6666016,96.3333984 Z M50.6666016,83 L44,83 L44,73 L50.6666016,73 L50.6666016,83 Z M50.6666016,69.6666016 L44,69.6666016 L44,59.6666016 L50.6666016,59.6666016 L50.6666016,69.6666016 Z M50.6666016,56.3333984 L44,56.3333984 L44,46.3333984 L50.6666016,46.3333984 L50.6666016,56.3333984 Z M50.6666016,43 L44,43 L44,33 L50.6666016,33 L50.6666016,43 Z M60.6666016,109.666602 L54,109.666602 L54,99.6666016 L60.6666016,99.6666016 L60.6666016,109.666602 L60.6666016,109.666602 Z M60.6666016,96.3333984 L54,96.3333984 L54,86.3333984 L60.6666016,86.3333984 L60.6666016,96.3333984 L60.6666016,96.3333984 Z M60.6666016,83 L54,83 L54,73 L60.6666016,73 L60.6666016,83 L60.6666016,83 Z M60.6666016,69.6666016 L54,69.6666016 L54,59.6666016 L60.6666016,59.6666016 L60.6666016,69.6666016 L60.6666016,69.6666016 Z M60.6666016,56.3333984 L54,56.3333984 L54,46.3333984 L60.6666016,46.3333984 L60.6666016,56.3333984 L60.6666016,56.3333984 Z M60.6666016,43 L54,43 L54,33 L60.6666016,33 L60.6666016,43 L60.6666016,43 Z M70.6666016,109.666602 L64,109.666602 L64,99.6666016 L70.6666016,99.6666016 L70.6666016,109.666602 Z M70.6666016,96.3333984 L64,96.3333984 L64,86.3333984 L70.6666016,86.3333984 L70.6666016,96.3333984 Z M70.6666016,83 L64,83 L64,73 L70.6666016,73 L70.6666016,83 Z M70.6666016,69.6666016 L64,69.6666016 L64,59.6666016 L70.6666016,59.6666016 L70.6666016,69.6666016 Z M70.6666016,56.3333984 L64,56.3333984 L64,46.3333984 L70.6666016,46.3333984 L70.6666016,56.3333984 Z M70.6666016,43 L64,43 L64,33 L70.6666016,33 L70.6666016,43 Z M80.6666016,109.666602 L74,109.666602 L74,99.6666016 L80.6666016,99.6666016 L80.6666016,109.666602 L80.6666016,109.666602 Z M80.6666016,96.3333984 L74,96.3333984 L74,86.3333984 L80.6666016,86.3333984 L80.6666016,96.3333984 L80.6666016,96.3333984 Z M80.6666016,83 L74,83 L74,73 L80.6666016,73 L80.6666016,83 L80.6666016,83 Z M80.6666016,69.6666016 L74,69.6666016 L74,59.6666016 L80.6666016,59.6666016 L80.6666016,69.6666016 L80.6666016,69.6666016 Z M80.6666016,56.3333984 L74,56.3333984 L74,46.3333984 L80.6666016,46.3333984 L80.6666016,56.3333984 L80.6666016,56.3333984 Z M80.6666016,43 L74,43 L74,33 L80.6666016,33 L80.6666016,43 L80.6666016,43 Z M72.3333984,13 C73.2533203,13 74,13.7466797 74,14.6666016 L74,14.6666016 L74,16.3333984 L85.6666016,16.3333984 C86.5865234,16.3333984 87.3332031,17.0800781 87.3332031,18 L87.3332031,18 L87.3332031,23 L98.9998047,23 C99.9197266,23 100.666406,23.7466797 100.666406,24.6666016 L100.666406,24.6666016 L100.666406,95.4648438 C100.666406,96.3847656 99.9197266,97.1314453 98.9998047,97.1314453 C98.0798828,97.1314453 97.3332031,96.3847656 97.3332031,95.4648438 L97.3332031,95.4648438 L97.3332031,26.3332031 L55.6666016,26.3332031 C54.7466797,26.3332031 54,25.5865234 54,24.6666016 C54,23.7466797 54.7466797,23 55.6666016,23 L55.6666016,23 L84,23 L84,19.6666016 L72.3330078,19.6666016 C71.4130859,19.6666016 70.6664063,18.9199219 70.6664063,18 L70.6664063,18 L70.6664063,16.3333984 L63.9998047,16.3333984 L63.9998047,18 C63.9998047,18.9199219 63.253125,19.6666016 62.3332031,19.6666016 L62.3332031,19.6666016 L50.6666016,19.6666016 L50.6666016,24.6666016 C50.6666016,25.5867188 49.9199219,26.3333984 49,26.3333984 L49,26.3333984 L37.3332031,26.3333984 L37.3332031,111.333398 C37.3332031,112.25332 36.5865234,113 35.6666016,113 L35.6666016,113 L15.6666016,113 C14.7466797,113 14,112.253125 14,111.333203 C14,110.413281 14.7466797,109.666602 15.6666016,109.666602 L15.6666016,109.666602 L20.6666016,109.666602 L20.6666016,102.831641 C16.8683594,102.056641 14,98.6916016 14,94.6666016 C14,94.45 14.0949219,73 22.3332031,72.9998047 C30.3059224,72.9998047 30.6520035,93.0882542 30.6660351,94.5805922 L30.6666016,94.6664062 C30.6666016,98.6914062 27.7982422,102.056445 24,102.831445 L24,102.831445 L24,109.666406 L34.0001953,109.666406 L34.0001953,24.6664063 C34.0001953,23.7464844 34.746875,22.9998047 35.6667969,22.9998047 L35.6667969,22.9998047 L47.3333984,22.9998047 L47.3333984,17.9998047 C47.3333984,17.0798828 48.0800781,16.3332031 49,16.3332031 L49,16.3332031 L60.6667969,16.3332031 L60.6667969,14.6666016 C60.6667969,13.7466797 61.4134766,13 62.3333984,13 L62.3333984,13 Z M102.333398,103 C103.886719,103 105.218359,104.061719 105.570117,105.580078 C105.691797,106.108398 106.063477,106.545117 106.566797,106.748437 C107.070117,106.951758 107.640039,106.898437 108.096875,106.605078 C109.180273,105.905078 110.668555,106.761719 110.666798,108 C110.666602,108.918359 109.918359,109.666602 109,109.666602 L95.6666016,109.666602 C94.7482422,109.666602 94,108.918359 94,108 C94,107.081641 94.7482422,106.333398 95.6666016,106.333398 C95.9865234,106.333398 96.2898437,106.425 96.5699219,106.605078 C97.0265625,106.898437 97.5966797,106.951758 98.1,106.748437 C98.6033203,106.545117 98.975,106.108398 99.0966797,105.580078 C99.4484375,104.061719 100.780078,103 102.333398,103 Z M22.3333984,76.3332031 C19.5634766,76.3332031 17.3333984,86.3632812 17.3333984,94.6666016 C17.3333984,97.4232422 19.5767578,99.6666016 22.3333984,99.6666016 C25.0900391,99.6666016 27.3333984,97.4232422 27.3333984,94.6666016 C27.3333984,86.3632812 25.1033203,76.3332031 22.3333984,76.3332031 Z"/>
</svg>
