<svg xmlns="http://www.w3.org/2000/svg" width="128" height="128" viewBox="0 0 128 128">
  <g>
    <polygon class="fill-primary" points="20.167 24.517 64.5 20.48 109.618 24.517 109.618 32 18 32"/>
    <path class="fill-gray" fill-rule="nonzero" d="M110.416667,33.8333333 C111.291118,33.8333333 112,33.1244509 112,32.25 L112,24.3333333 C111.993225,23.5213393 111.381797,22.8419743 110.575,22.75 L64.6583333,18 L64.3416667,18 L18.425,22.75 C17.6182033,22.8419743 17.0067748,23.5213393 17,24.3333333 L17,32.25 C17,33.1244509 17.7088825,33.8333333 18.5833333,33.8333333 L20.1666667,33.8333333 L20.1666667,105.083333 L18.5833333,105.083333 C17.7088825,105.083333 17,105.792216 17,106.666667 L17,111.416667 C17,112.291118 17.7088825,113 18.5833333,113 L110.416667,113 C111.291118,113 112,112.291118 112,111.416667 L112,106.666667 C112,105.792216 111.291118,105.083333 110.416667,105.083333 L108.833333,105.083333 L108.833333,33.8333333 L110.416667,33.8333333 Z M23.6666667,109.833333 L20,109.833333 L20,108.183799 L23.6666667,108.183799 L23.6666667,73.7117608 L20,73.7117608 L20,66.8290355 L23.6666667,65.3217831 L23.6666667,33.8333333 L105.666667,33.8333333 L105.666667,65.3534563 L108.728846,71.0450366 L105.666667,73.7271694 L105.666667,108.297489 L108.728846,108.297489 L108.728846,109.833333 L105.666667,109.833333 L23.6666667,109.833333 Z M20.1666667,30.6666667 L20.1666667,25.7583333 L64.5,21.1666667 L108.833333,25.7583333 L108.833333,30.6666667 L20.1666667,30.6666667 Z"/>
    <path class="fill-gray" fill-rule="nonzero" d="M19.3734267,73.7594993 L19.3751925,73.7594993 L24.1374216,73.767936 C22.0614021,75.3487402 20.7256549,77.9949243 20.7256549,81.0431276 C20.7256044,81.1021547 20.7292083,81.1611283 20.736446,81.2197099 L22.9409782,98.698613 C23.003722,101.167182 24.7914771,103.252309 27.2215299,103.691184 L27.2215299,109.288451 C27.2268082,111.104967 28.6872642,112.581924 30.5036067,112.60761 L36.2523423,112.60761 C38.0779584,112.585407 39.5541641,111.113985 39.5822924,109.288451 L39.5822924,103.778494 L89.4177477,103.778494 L89.4177477,109.288451 C89.4456779,111.114298 90.9223542,112.585929 92.7482865,112.60761 L98.4970221,112.60761 C100.31309,112.581502 101.773132,111.104698 101.77851,109.288451 L101.77851,103.673722 C104.171407,103.213002 105.915441,101.140534 105.960568,98.7041066 L108.266341,81.2305011 C108.273531,81.1707409 108.276808,81.1105747 108.276151,81.0503871 C108.276151,78.0384813 106.873303,75.3762085 104.741758,73.7908917 L109.627202,73.7891258 C110.002797,73.7889175 110.36192,73.6348956 110.620958,73.3629199 C110.879997,73.0909443 111.016348,72.7247472 110.998266,72.3495875 C110.914646,71.1938262 110.688003,70.0528978 110.323525,68.9529285 C109.520075,66.5423836 106.988081,64.9849275 103.871796,64.9849275 C101.998453,64.9849275 98.6019905,64.9729591 97.0521863,64.9668768 L93.9892678,59.2930906 C91.8426154,55.4441846 88.7114184,51 83.5024361,51 L45.8158446,51 C41.5713942,51 37.8043047,53.9648172 35.2050129,59.3015274 L32.0069108,64.9808072 C30.4608345,64.977668 27.0247387,64.9778642 25.1272636,64.9778642 C22.0113704,64.9778642 19.4789837,66.5386557 18.6755341,68.9488082 C18.311222,70.0492559 18.0848411,71.1906505 18.0015783,72.3468407 C17.9835591,72.7183568 18.1204682,73.0807003 18.3796607,73.3474738 C18.6402393,73.6155157 18.999632,73.7645236 19.3734267,73.7594993 Z M36.8354563,109.288451 C36.8093639,109.597552 36.5609296,109.840979 36.2513612,109.860774 L30.5036067,109.860774 C30.2041078,109.836968 29.9720858,109.588871 29.968366,109.288451 L29.968366,103.778494 L36.8354563,103.778494 L36.8354563,109.288451 Z M98.4962373,109.860774 L92.7475017,109.860774 C92.4383183,109.840584 92.1904415,109.597212 92.1645838,109.288451 L92.1645838,103.778494 L99.0316741,103.778494 L99.0316741,109.288451 C99.0277615,109.588867 98.7957275,109.836886 98.4962373,109.860774 Z M103.218441,98.4268724 C103.210438,98.4886145 103.20644,98.55081 103.206473,98.6130686 C103.205508,99.9459694 102.127056,101.027228 100.794162,101.031658 L28.1071884,101.031658 C26.7742946,101.027228 25.6958427,99.9459694 25.6948776,98.6130686 C25.6948527,98.5544291 25.6911832,98.4958478 25.6838903,98.4376635 L23.4728834,80.9693555 C23.5078075,78.087532 25.3678079,75.1060376 28.4760492,74.9459363 C28.5550415,74.9495612 28.6341989,74.9464763 28.7126695,74.9367147 L100.138257,74.9367147 C100.15101,74.9367147 100.163371,74.9702654 100.176124,74.9702654 C103.101112,74.9702654 105.485562,77.6529432 105.526764,80.9481656 L103.218441,98.4268724 Z M39.8765963,72.1898786 C40.4063433,69.2468399 43.0631224,66.8290355 46.2531802,66.8290355 C49.4432379,66.8290355 52.100017,69.2468399 52.629764,72.1898786 L39.8765963,72.1898786 Z M103.872384,67.731175 C105.755929,67.731175 107.301613,68.570922 107.717955,69.8209287 C107.850593,70.22145 107.960188,70.6292378 108.046202,71.0422897 L100.350352,71.0450366 L98.5452879,67.718618 C100.23989,67.7245041 102.476991,67.731175 103.872188,67.731175 L103.872384,67.731175 Z M37.6181084,60.6090213 C37.6320388,60.5841036 37.6453806,60.5483947 37.6573489,60.5226922 C38.8828302,57.9961916 41.572179,53.7468361 45.8158446,53.7468361 L83.5024361,53.7468361 C86.4904052,53.7468361 88.9093868,55.7924442 91.582647,60.5852808 L97.8807498,72.1898786 L55.4050495,72.1898786 C54.8428284,67.5623328 50.9147542,64.0826131 46.2531802,64.0826131 C41.5916061,64.0826131 37.6635319,67.5623328 37.1013108,72.1898786 L31.0649423,72.1898786 L37.6181084,60.6090213 Z M87.4680827,92.7911495 C88.2266005,92.7911495 88.8415007,93.4060497 88.8415007,94.1645676 C88.8415007,94.8784667 88.296814,95.4651475 87.600352,95.5316985 L87.4680827,95.5379856 L42.6444261,95.5379856 C41.8859083,95.5379856 41.271008,94.9230854 41.271008,94.1645676 C41.271008,93.4506684 41.8156947,92.8639876 42.5121568,92.7974366 L42.6444261,92.7911495 L87.4680827,92.7911495 Z M33.7768543,82.5503558 C36.7013108,82.5533839 39.0712959,84.923369 39.074324,87.8478255 C39.074324,90.7735372 36.702566,93.1452951 33.7768543,93.1452951 C30.8511426,93.1452951 28.4793847,90.7735372 28.4793847,87.8478255 C28.4793847,84.9221138 30.8511426,82.5503558 33.7768543,82.5503558 Z M95.2229896,82.5503558 C98.1474462,82.5533839 100.517431,84.923369 100.520459,87.8478255 C100.520459,90.7735372 98.1487013,93.1452951 95.2229896,93.1452951 C92.2972779,93.1452951 89.92552,90.7735372 89.92552,87.8478255 C89.92552,84.9221138 92.2972779,82.5503558 95.2229896,82.5503558 Z M76.4138331,80.8231845 C79.0892515,80.8231845 81.8578661,82.7728496 82.7189992,85.3038628 L82.7189992,85.3038628 L83.9719489,88.9532308 C84.1119342,89.3792215 84.0440761,89.8462027 83.788637,90.2147333 C83.533198,90.5832639 83.1197372,90.8106981 82.6717144,90.8291237 L82.6717144,90.8291237 L46.3283257,90.8291237 C45.8843533,90.8179567 45.471941,90.5970475 45.2166419,90.2336489 C44.9578618,89.8667486 44.8861026,89.3997326 45.0227938,88.9720663 L45.0227938,88.9720663 L46.2210029,85.3242679 C47.0527057,82.7750078 49.8060165,80.8231845 52.4875171,80.8231845 L52.4875171,80.8231845 Z M33.7768543,85.297192 C32.3681783,85.297192 31.2262208,86.4391495 31.2262208,87.8478255 C31.2262208,89.2565015 32.3681783,90.398459 33.7768543,90.398459 L33.7768543,90.398459 C35.184565,90.3960731 36.3255414,89.2555356 36.3274878,87.8478255 C36.3274878,86.4391495 35.1855303,85.297192 33.7768543,85.297192 Z M95.2229896,85.297192 C93.8143136,85.297192 92.6723561,86.4391495 92.6723561,87.8478255 C92.6723561,89.2565015 93.8143136,90.398459 95.2229896,90.398459 L95.2229896,90.398459 C96.6307451,90.396181 97.7717846,89.2555804 97.7736232,87.8478255 C97.7736232,86.4391495 96.6316656,85.297192 95.2229896,85.297192 Z M76.4138331,83.5696282 L52.4875171,83.5696282 C51.0012826,83.5696282 49.2943201,84.8041349 48.8320669,86.2165972 L48.8320669,86.2165972 L48.2214844,88.0822876 L80.7540304,88.0822876 L80.118334,86.2183631 C79.6376377,84.8057045 77.9065423,83.5696282 76.4138331,83.5696282 L76.4138331,83.5696282 Z M30.4590687,67.7374535 L28.6012265,71.0295366 L20.9544271,71.0393467 C21.0404193,70.62725 21.149816,70.2203862 21.2820854,69.8207325 C21.6988197,68.5705296 23.2443074,67.7307826 25.1278522,67.7307826 C26.5263842,67.7307826 28.7619164,67.7343142 30.4590687,67.7374535 Z"/>
  </g>
</svg>
