<svg xmlns="http://www.w3.org/2000/svg" width="128" height="128" viewBox="0 0 128 128">
  <g>
    <polygon class="fill-primary" points="84.326 29.409 91.818 23.503 98.528 29.409 91.818 35.545"/>
    <ellipse cx="101" cy="84.5" class="fill-primary" rx="5" ry="5.5"/>
    <path class="fill-gray" fill-rule="nonzero" d="M81.1342702,46.860162 C80.8492478,44.5051981 79.5270803,42.3722808 77.5513573,41.0767153 C76.4504848,40.3549758 75.2527957,39.9751316 74.0377742,39.8778759 C74.6386321,37.8810459 75.7633148,36.0462498 77.4074455,34.7762779 C78.1595684,34.1953915 78.55944,33.2512525 78.0378911,32.352476 C77.6049303,31.6062021 76.3918346,31.1313967 75.6337592,31.7168723 C72.8287053,33.8836791 70.9552261,36.9914478 70.283988,40.4269909 C67.9903285,41.2680495 65.950528,42.9665817 64.7750735,45.0763766 C61.6156674,50.746682 63.6120493,57.3754235 66.7908887,62.5301503 C67.9826252,64.4625551 71.0242057,62.6856535 69.8254662,60.7419522 C67.7520513,57.3796597 66.0042761,53.3487565 66.9095897,49.3129111 C67.3490283,47.3543832 68.4635567,45.5187046 70.0553399,44.4315945 C70.2087057,46.3756488 70.7503882,48.2951685 71.6928177,49.9995255 C73.0009792,52.3650798 75.4842451,54.328903 78.2280227,53.0061553 C80.4430735,51.9384611 81.4163162,49.1918269 81.1342702,46.860162 Z M43.6413325,57.6591244 C44.1969471,57.5686436 44.7616272,57.7511743 45.1594661,58.1488368 L45.1594661,58.1488368 L68.3966028,81.3858537 C68.7944416,81.7838649 68.976799,82.3485421 68.8863176,82.9039795 C68.796185,83.4594169 68.4443713,83.9374486 67.9408837,84.1886681 L67.9408837,84.1886681 L21.5312898,107.361006 C21.2830327,107.485134 21.0155985,107.545455 20.7502564,107.545455 C20.2961064,107.545455 19.848407,107.368851 19.5126324,107.032904 C18.9802047,106.500479 18.8480567,105.687372 19.1843543,105.013908 L19.1843543,105.013908 L40.2673731,62.7882904 L42.3566373,58.6045534 C42.6078581,58.1010685 43.0860666,57.7494309 43.6413325,57.6591244 Z M32.2180225,86.7440984 L24.6559461,101.889268 L34.7711996,96.8389024 L32.2180225,86.7440984 Z M44.4024914,62.3411162 L43.7543034,63.6390545 L46.8590853,71.2061477 C47.225892,72.1001473 46.7984158,73.1222846 45.9044115,73.4890894 C45.6870123,73.5783499 45.4621165,73.6205395 45.2408819,73.6205395 C44.5522475,73.6205395 43.8991781,73.2110221 43.621458,72.5344206 L43.621458,72.5344206 L41.6777659,67.7973383 L34.6139469,81.9449522 L37.9762257,95.2383153 L50.3934355,89.0385464 L47.3158503,81.5380499 C46.9490436,80.6440502 47.3765199,79.621913 48.2705241,79.2551081 C49.1647027,78.8883033 50.1864966,79.3157774 50.5534776,80.209777 L50.5534776,80.209777 L53.5329106,87.4710833 L64.204476,82.1429989 L44.4024914,62.3411162 Z M102.044598,78.0909091 C105.879924,78.0909091 109,81.2103003 109,85.0445984 C109,88.8797526 105.879924,92 102.044598,92 C98.2103003,92 95.0909091,88.8797526 95.0909091,85.0445984 C95.0909091,81.2103003 98.2103003,78.0909091 102.044598,78.0909091 Z M102.044598,81.528284 C100.105874,81.528284 98.528284,83.1057025 98.528284,85.0445984 C98.528284,86.9843504 100.105702,88.5626251 102.044598,88.5626251 C103.984522,88.5626251 105.562625,86.9843504 105.562625,85.0445984 C105.562625,83.1057025 103.98435,81.528284 102.044598,81.528284 Z M46.8181818,74 C49.0017719,74 48.9982274,78.0909091 46.8181818,78.0909091 C44.6345917,78.0909091 44.6381363,74 46.8181818,74 Z M105.58216,63.0289528 C105.913592,62.1314914 106.737521,61.5196661 107.708905,61.7929598 C108.549715,62.029403 109.246687,63.0756772 108.916116,63.9696122 C107.956446,66.5683712 105.638146,68.2389893 103.06507,68.9312159 C100.469256,69.6294373 97.7826605,69.1486167 95.3334414,68.1310824 C92.9507155,67.1412301 90.625525,65.6583912 88.0295388,65.3313203 C82.531285,64.6385647 78.3151761,69.6719301 75.1162735,73.4874633 C74.5056052,74.2158352 73.2933986,74.1243259 72.6711887,73.4874633 C71.9754231,72.7753127 72.0634489,71.7096435 72.6711887,70.984798 C74.6633971,68.6089056 76.6995322,66.2744482 79.2341931,64.4855202 C81.4858278,62.8961849 84.1848265,61.7656304 86.9496293,61.7418274 C89.6972059,61.7182008 92.2161909,62.8254812 94.6602421,63.9856572 C96.7204939,64.9638724 98.9928,66.0090888 101.324709,65.6977102 C102.872998,65.4910649 105.01318,64.5696242 105.58216,63.0289528 Z M47.8756128,20.8950192 C48.3151604,20.1352652 49.5142281,19.686472 50.2727008,20.2596848 C52.8176431,22.1833362 55.3959267,24.1366365 57.1722716,26.8509262 C58.7124339,29.2044871 59.4276152,32.0195479 58.9386665,34.8148428 C58.4345309,37.6964372 56.6690088,40.1737119 55.0125881,42.4930354 C53.6043949,44.4648663 51.8554563,46.7137735 51.5808699,49.1993429 C51.3919936,50.9112161 52.0900679,52.863281 53.8575101,53.3353698 C56.0390139,53.9182891 55.1082482,57.3344468 52.9258717,56.7515275 C50.0972658,55.9958325 48.4370048,53.4382586 48.109177,50.6096087 C47.4289081,44.7391189 52.8703609,40.8021635 54.9617905,35.9076179 C57.3166346,30.3962686 52.4199904,26.2782428 48.5042112,23.318467 C47.7439929,22.7438423 47.3522753,21.7996648 47.8756128,20.8950192 Z M88.5454862,51.0909091 C90.729034,51.0909091 90.7254896,55.1816144 88.5454862,55.1818182 C86.3617696,55.1818182 86.3654828,51.0909091 88.5454862,51.0909091 Z M93.4545455,51.0909091 C95.6381355,51.0909091 95.634591,55.1818182 93.4545455,55.1818182 C91.2709554,55.1818182 91.2744999,51.0909091 93.4545455,51.0909091 Z M73,43.7272727 C73.0840043,43.7308641 73.1680085,43.7348145 73.2528613,43.7423563 C75.7490611,43.9641205 78.1722874,47.3078219 76.5821459,49.7086214 C75.6550442,51.1083396 74.680934,49.5820272 74.1631622,48.597466 C73.4582051,47.2570046 73.0768766,45.7287171 73.0088247,44.2036617 C73.0018668,44.0456435 73.0010182,43.8865479 73,43.7272727 Z M90.1817865,46.1818182 C92.3655031,46.1818182 92.3617899,50.2727273 90.1817865,50.2727273 C87.9982387,50.2727273 88.0017831,46.1818182 90.1817865,46.1818182 Z M34.5454229,36.3636364 C36.7290551,36.3636364 36.7255108,40.4545455 34.5454229,40.4545455 C32.3617908,40.4545455 32.3655038,36.3636364 34.5454229,36.3636364 Z M40.2727273,35.5454545 C42.4563174,35.5454545 42.4527728,39.6363636 40.2727273,39.6363636 C38.0891372,39.6363636 38.0926817,35.5454545 40.2727273,35.5454545 Z M91.4079829,20.8181818 C91.8617374,20.8181818 92.2969122,20.9985209 92.6178813,21.3193132 L92.6178813,21.3193132 L99.4988587,28.200154 C99.8194868,28.5211168 100,28.9562829 100,29.4100284 C100,29.8639444 99.8198278,30.2991105 99.4986882,30.6199028 L99.4986882,30.6199028 L92.6177109,37.4990391 C92.2837871,37.8329562 91.845885,38 91.4081534,38 C90.9704218,38 90.5325197,37.8329562 90.1984255,37.4988686 L90.1984255,37.4988686 L83.3191527,30.6197323 C82.6513052,29.9515571 82.6511347,28.8683292 83.3189822,28.2003245 L83.3189822,28.2003245 L90.198255,21.3194837 C90.5192241,20.9985209 90.9542284,20.8181818 91.4079829,20.8181818 Z M36.999905,31.4545455 C39.183706,31.4545455 39.1799929,35.5452508 36.999905,35.5454545 C34.8164417,35.5454545 34.819986,31.4545455 36.999905,31.4545455 Z M91.4084943,24.9487658 L86.9485069,29.4098579 L91.4084943,33.8699273 L95.8696749,29.4098579 L91.4084943,24.9487658 Z"/>
  </g>
</svg>
