<svg viewBox="0 0 128 128" xmlns="http://www.w3.org/2000/svg"><g fill="#092f5c"><path d="m101.84 102.16h-5.32v-39h8.87a1.78 1.78 0 0 0 1.74-2.16l-7.13-37.23a1.78 1.78 0 0 0 -1.74-1.45h-3.52v-3.55a1.77 1.77 0 0 0 -1.74-1.77h-14.23a1.77 1.77 0 0 0 -1.77 1.77v3.55h-46.13a1.78 1.78 0 0 0 -1.74 1.45l-7.13 37.23a1.78 1.78 0 0 0 1.74 2.11h8.87v39h-8.13a1.78 1.78 0 0 0 0 3.55h77.36a1.78 1.78 0 0 0 0-3.55zm-21.29-81.61h10.64v1.77h-10.64zm12.53 81.53h-56.89v-42.5h-10.27l6.42-33.71h64.48l6.42 33.71h-10.16z"/><path d="m108.93 102.16h-1.77a1.78 1.78 0 0 0 0 3.55h1.77a1.78 1.78 0 1 0 0-3.55z"/><path d="m70.27 55.87-4-.57-1.79-3.53a.53.53 0 0 0 -.9 0l-1.82 3.53-4 .57a.5.5 0 0 0 -.4.35.49.49 0 0 0 .13.51l2.9 2.75-.68 3.87a.5.5 0 0 0 .19.49.51.51 0 0 0 .53 0l3.57-1.84 3.6 1.84a.46.46 0 0 0 .23 0 .53.53 0 0 0 .3-.09.5.5 0 0 0 .19-.49l-.68-3.87 2.9-2.75a.49.49 0 0 0 .13-.51.5.5 0 0 0 -.4-.26z"/></g></svg>