<svg xmlns="http://www.w3.org/2000/svg" viewBox="0 0 128 128"><g id="bc7184cd-88c8-48f9-94bf-88b2cc78e9a1" data-name="Layer 6"><g id="a883a226-4da5-4c71-af4a-59304842bd5d" data-name="Icons-Slider"><g id="b2c10816-ab16-4a0f-9b09-616819e33fa0" data-name="equipment class na"><path id="e8401414-2819-47e8-8875-c231bb3709fe" data-name="Shape" d="M101.84,102.16H96.52v-39h8.87A1.78,1.78,0,0,0,107.13,61L100,23.76a1.78,1.78,0,0,0-1.74-1.44H94.74V18.77A1.77,1.77,0,0,0,93,17H78.77A1.77,1.77,0,0,0,77,18.77v3.55H30.87a1.78,1.78,0,0,0-1.74,1.44L22,61a1.78,1.78,0,0,0,1.74,2.11h8.87v39H24.48a1.78,1.78,0,0,0,0,3.55h77.36a1.78,1.78,0,0,0,0-3.55ZM80.55,20.55H91.19v1.77H80.55ZM32.34,25.87H96.82l6.42,33.71H93.08v42.5H36.19V59.58H25.92Zm76.59,76.29h-1.77a1.78,1.78,0,0,0,0,3.55h1.77a1.78,1.78,0,1,0,0-3.55Z" fill="#092f5c"/><path id="edb44bb3-74a2-4837-ac4c-f7d474d4a967" data-name="?" d="M65.3,67.11v-.9a4.65,4.65,0,0,1,.63-2.58,11.69,11.69,0,0,1,2.49-2.42,21.06,21.06,0,0,0,3.07-2.77,7.07,7.07,0,0,0,1.78-4.9A6.53,6.53,0,0,0,71,48.23a9.4,9.4,0,0,0-6.22-1.92A17.71,17.71,0,0,0,56,48.57h0l1.68,3.53a24.7,24.7,0,0,1,3.16-1.3,11.16,11.16,0,0,1,3.53-.55,5,5,0,0,1,3.22.91,3.11,3.11,0,0,1,1.12,2.58,4.37,4.37,0,0,1-.69,2.48A15.39,15.39,0,0,1,65,59.14a10.23,10.23,0,0,0-2.8,3,7.45,7.45,0,0,0-.81,3.66h0v1.28Zm-1.8,9.47a2.87,2.87,0,0,0,2.19-.83,3.18,3.18,0,0,0,.77-2.25,3.06,3.06,0,0,0-.76-2.23,2.91,2.91,0,0,0-2.2-.8c-2,0-3,1-3,3a3.22,3.22,0,0,0,.76,2.27A2.87,2.87,0,0,0,63.5,76.58Z" fill="#092f5c"/></g></g></g></svg>