<svg xmlns="http://www.w3.org/2000/svg" viewBox="0 0 128 128"><g id="b3c975dc-a5fb-40ce-9144-b5318df7088e" data-name="Layer 6"><g id="bfd0584e-6dcd-4b9c-8352-d3354dd229f2" data-name="Icons-Slider"><g id="b02b080a-c36c-4661-baa5-35a4fe192583" data-name="equipment class na"><path id="bef1a727-74d8-4831-8a68-12dfb45b534e" data-name="Shape" d="M101.84,102.16H96.52v-39h8.87A1.78,1.78,0,0,0,107.13,61L100,23.76a1.78,1.78,0,0,0-1.74-1.44H94.74V18.77A1.77,1.77,0,0,0,93,17H78.77A1.77,1.77,0,0,0,77,18.77v3.55H30.87a1.78,1.78,0,0,0-1.74,1.44L22,61a1.78,1.78,0,0,0,1.74,2.11h8.87v39H24.48a1.78,1.78,0,0,0,0,3.55h77.36a1.78,1.78,0,0,0,0-3.55ZM80.55,20.55H91.19v1.77H80.55ZM32.34,25.87H96.82l6.42,33.71H93.08v42.5H36.19V59.58H25.92Zm76.59,76.29h-1.77a1.78,1.78,0,0,0,0,3.55h1.77a1.78,1.78,0,1,0,0-3.55Z" fill="#092f5c"/></g></g><path d="M78.07,65.44l-4-.57-1.79-3.53a.52.52,0,0,0-.89,0l-1.8,3.53-4,.57a.5.5,0,0,0-.41.34.51.51,0,0,0,.13.52L68.17,69l-.69,3.87a.49.49,0,0,0,.2.49.51.51,0,0,0,.52,0l3.6-1.84,3.61,1.84a.59.59,0,0,0,.22,0,.47.47,0,0,0,.3-.1.49.49,0,0,0,.19-.49L75.44,69l2.9-2.74a.51.51,0,0,0,.14-.52A.5.5,0,0,0,78.07,65.44Z" fill="#092f5c"/><path d="M62.69,65.44l-4-.57-1.8-3.53a.48.48,0,0,0-.44-.27.5.5,0,0,0-.45.27l-1.8,3.53-4,.57a.5.5,0,0,0-.41.34.51.51,0,0,0,.14.52L52.79,69l-.69,3.87a.51.51,0,0,0,.2.49.47.47,0,0,0,.3.1.59.59,0,0,0,.22,0l3.61-1.84L60,73.45a.51.51,0,0,0,.52,0,.49.49,0,0,0,.2-.49L60.06,69,63,66.3a.51.51,0,0,0,.13-.52A.5.5,0,0,0,62.69,65.44Z" fill="#092f5c"/><path d="M67.83,60a.53.53,0,0,0,.3-.09.5.5,0,0,0,.19-.49l-.68-3.88,2.9-2.74a.5.5,0,0,0-.27-.86l-4-.57-1.79-3.53a.53.53,0,0,0-.9,0l-1.79,3.53-4,.57a.5.5,0,0,0-.27.86l2.9,2.74-.68,3.88a.5.5,0,0,0,.19.49.51.51,0,0,0,.53,0L64,58.08l3.6,1.84A.46.46,0,0,0,67.83,60Z" fill="#092f5c"/><path d="M86.05,52.25a.51.51,0,0,0-.41-.34l-4-.57-1.8-3.53a.52.52,0,0,0-.89,0l-1.8,3.53-4,.57a.51.51,0,0,0-.41.34.5.5,0,0,0,.14.52l2.9,2.75-.69,3.87a.53.53,0,0,0,.2.49.49.49,0,0,0,.52,0l3.61-1.84L83,59.92a.46.46,0,0,0,.23,0,.5.5,0,0,0,.29-.09.51.51,0,0,0,.2-.49L83,55.52l2.91-2.75A.5.5,0,0,0,86.05,52.25Z" fill="#092f5c"/><path d="M52.75,59.88a.53.53,0,0,0,.2-.49l-.69-3.87,2.9-2.75a.5.5,0,0,0,.14-.52.51.51,0,0,0-.41-.34l-4-.57-1.8-3.53a.52.52,0,0,0-.89,0l-1.8,3.53-4,.57a.51.51,0,0,0-.41.34.5.5,0,0,0,.13.52L45,55.52l-.69,3.87a.51.51,0,0,0,.2.49.5.5,0,0,0,.29.09.46.46,0,0,0,.23,0l3.6-1.84,3.61,1.84A.49.49,0,0,0,52.75,59.88Z" fill="#092f5c"/></g></svg>