<svg xmlns="http://www.w3.org/2000/svg" width="128" height="128" viewBox="0 0 128 128">
  <path class="fill-gray" d="M105.935484,99.8000373 L104.322581,99.8000373 L104.322581,74.2003356 L109.16129,74.2003356 C109.669437,74.2001267 110.147772,73.9623816 110.452152,73.5587434 C110.756533,73.1551052 110.851362,72.6327771 110.708065,72.1491595 L102.643548,44.9494764 C102.441819,44.2686541 101.812128,43.8009838 101.096774,43.8006898 L91.4193548,43.8006898 L91.4193548,37.4007643 C91.4193548,36.517119 90.6972335,35.800783 89.8064516,35.800783 L80.1290323,35.800783 C79.2382504,35.800783 78.516129,36.517119 78.516129,37.4007643 L78.516129,43.8006898 L26.9032258,43.8006898 C26.1878721,43.8009838 25.5581813,44.2686541 25.3564516,44.9494764 L17.2919355,72.1491595 C17.148638,72.6327771 17.2434674,73.1551052 17.5478475,73.5587434 C17.8522276,73.9623816 18.3305628,74.2001267 18.8387097,74.2003356 L23.6774194,74.2003356 L23.6774194,99.8000373 L15.6129032,99.8000373 C14.7221214,99.8000373 14,100.516373 14,101.400019 C14,102.283664 14.7221214,103 15.6129032,103 L105.935484,103 C106.826266,103 107.548387,102.283664 107.548387,101.400019 C107.548387,100.516373 106.826266,99.8000373 105.935484,99.8000373 Z M81.7419355,39.0007457 L88.1935484,39.0007457 L88.1935484,43.8006898 L81.7419355,43.8006898 L81.7419355,39.0007457 Z M28.1096774,47.0006525 L99.883871,47.0006525 L106.998387,71.0003728 L79.1290323,71.0003728 L65.0709677,58.6037173 C64.4600448,58.065553 63.5399552,58.065553 62.9290323,58.6037173 L48.8709677,71.0003728 L20.9951613,71.0003728 L28.1096774,47.0006525 Z M26.9032258,74.2003356 L47.8709677,74.2003356 L47.8709677,99.8000373 L26.9032258,99.8000373 L26.9032258,74.2003356 Z M51.0967742,73.3187458 L64,61.9412784 L76.9032258,73.3187458 L76.9032258,99.8000373 L70.4516129,99.8000373 L70.4516129,85.4002051 C70.4516129,84.5165598 69.7294915,83.8002237 68.8387097,83.8002237 L59.1612903,83.8002237 C58.2705085,83.8002237 57.5483871,84.5165598 57.5483871,85.4002051 L57.5483871,99.8000373 L51.0967742,99.8000373 L51.0967742,73.3187458 Z M60.7741935,99.8000373 L60.7741935,87.0001864 L67.2258065,87.0001864 L67.2258065,99.8000373 L60.7741935,99.8000373 Z M80.1290323,99.8000373 L80.1290323,74.2003356 L101.096774,74.2003356 L101.096774,99.8000373 L80.1290323,99.8000373 Z M112.387097,99.8000373 L110.774194,99.8000373 C109.883412,99.8000373 109.16129,100.516373 109.16129,101.400019 C109.16129,102.283664 109.883412,103 110.774194,103 L112.387097,103 C113.277879,103 114,102.283664 114,101.400019 C114,100.516373 113.277879,99.8000373 112.387097,99.8000373 Z M64,80.600261 C67.5631274,80.600261 70.4516129,77.7349168 70.4516129,74.2003356 C70.4516129,70.6657543 67.5631274,67.8004101 64,67.8004101 C60.4368726,67.8004101 57.5483871,70.6657543 57.5483871,74.2003356 C57.5483871,77.7349168 60.4368726,80.600261 64,80.600261 Z M64,71.0003728 C65.7815637,71.0003728 67.2258065,72.4330449 67.2258065,74.2003356 C67.2258065,75.9676262 65.7815637,77.4002983 64,77.4002983 C62.2184363,77.4002983 60.7741935,75.9676262 60.7741935,74.2003356 C60.7741935,72.4330449 62.2184363,71.0003728 64,71.0003728 Z M44.6451613,83.8002237 L30.1290323,83.8002237 C29.2382504,83.8002237 28.516129,84.5165598 28.516129,85.4002051 L28.516129,91.8001305 C28.516129,92.6837758 29.2382504,93.4001119 30.1290323,93.4001119 L44.6451613,93.4001119 C45.5359431,93.4001119 46.2580645,92.6837758 46.2580645,91.8001305 L46.2580645,85.4002051 C46.2580645,84.5165598 45.5359431,83.8002237 44.6451613,83.8002237 Z M43.0322581,90.2001491 L31.7419355,90.2001491 L31.7419355,87.0001864 L43.0322581,87.0001864 L43.0322581,90.2001491 Z M97.8709677,83.8002237 L83.3548387,83.8002237 C82.4640569,83.8002237 81.7419355,84.5165598 81.7419355,85.4002051 L81.7419355,91.8001305 C81.7419355,92.6837758 82.4640569,93.4001119 83.3548387,93.4001119 L97.8709677,93.4001119 C98.7617496,93.4001119 99.483871,92.6837758 99.483871,91.8001305 L99.483871,85.4002051 C99.483871,84.5165598 98.7617496,83.8002237 97.8709677,83.8002237 Z M96.2580645,90.2001491 L84.9677419,90.2001491 L84.9677419,87.0001864 L96.2580645,87.0001864 L96.2580645,90.2001491 Z" transform="matrix(-1 0 0 1 128 0)"/>
</svg>
