<svg xmlns="http://www.w3.org/2000/svg" width="128" height="128" viewBox="0 0 128 128">
  <g>
    <g class="fill-gray" fill-rule="nonzero" transform="matrix(-1 0 0 1 120 22)">
      <path d="M94.9499926,77.528132 L69.5499931,77.528132 L69.5499931,53.2490623 L77.6499924,53.2490623 C78.1613346,53.2490623 78.6287897,52.9604079 78.8574689,52.5034434 C79.0861481,52.0464789 79.0367976,51.4996442 78.7299922,51.0909227 L62.5299938,29.5095274 C62.2750404,29.1698823 61.8749162,28.9699925 61.4499939,28.9699925 L57.3999943,28.9699925 L57.3999943,23.5746437 C57.3999943,22.8297014 56.7955788,22.2258065 56.0499944,22.2258065 L47.9499952,22.2258065 C47.2044109,22.2258065 46.5999953,22.8297014 46.5999953,23.5746437 L46.5999953,28.9699925 L18.2499981,28.9699925 C17.8250757,28.9699925 17.4249516,29.1698823 17.1699982,29.5095274 L0.969999715,51.0909227 C0.663194377,51.4996442 0.613843822,52.0464789 0.842523019,52.5034434 C1.07120222,52.9604079 1.53865738,53.2490623 2.04999961,53.2490623 L10.1499988,53.2490623 L10.1499988,77.528132 L5.34999987,77.528132 C4.60441553,77.528132 4,78.132027 4,78.8769692 C4,79.6219115 4.60441553,80.2258065 5.34999987,80.2258065 L94.9499926,80.2258065 C95.695577,80.2258065 96.2999925,79.6219115 96.2999925,78.8769692 C96.2999925,78.132027 95.695577,77.528132 94.9499926,77.528132 Z M49.2999951,24.9234809 L54.6999946,24.9234809 L54.6999946,28.9699925 L49.2999951,28.9699925 L49.2999951,24.9234809 Z M18.924998,31.6676669 L60.774994,31.6676669 L74.9499926,50.5513878 L4.74999935,50.5513878 L18.924998,31.6676669 Z M20.9499978,77.528132 L20.9499978,64.0397599 L29.049997,64.0397599 L29.049997,77.528132 L20.9499978,77.528132 Z M66.8499986,53.2490623 L66.8499986,77.528132 L31.7499968,77.528132 L31.7499968,62.6909227 C31.7499968,61.9459805 31.1455812,61.3420855 30.3999969,61.3420855 L19.5999979,61.3420855 C18.8544136,61.3420855 18.2499981,61.9459805 18.2499981,62.6909227 L18.2499981,77.528132 L12.8499986,77.528132 L12.8499986,53.2490623 L66.8499986,53.2490623 Z M59.65,61.2258065 L35.35,61.2258065 C34.6044156,61.2258065 34,61.8414149 34,62.6008065 L34,70.8508065 C34,71.610198 34.6044156,72.2258065 35.35,72.2258065 L59.65,72.2258065 C60.3955844,72.2258065 61,71.610198 61,70.8508065 L61,62.6008065 C61,61.8414149 60.3955844,61.2258065 59.65,61.2258065 Z M39.4,63.9758065 L39.4,69.4758065 L36.7,69.4758065 L36.7,63.9758065 L39.4,63.9758065 Z M46.15,63.9758065 L46.15,69.4758065 L42.1,69.4758065 L42.1,63.9758065 L46.15,63.9758065 Z M52.9,63.9758065 L52.9,69.4758065 L48.85,69.4758065 L48.85,63.9758065 L52.9,63.9758065 Z M58.3,63.9758065 L58.3,69.4758065 L55.6,69.4758065 L55.6,63.9758065 L58.3,63.9758065 Z"/>
      <path d="M116.554779,12.7844188 C116.248249,12.542232 108.949971,6.87740514 100.468248,9.00411756 C99.4236581,9.26614803 98.4346413,9.65739686 97.5090006,10.1644266 C97.3911657,9.79833394 97.24849,9.41771008 97.0653682,9.03224247 C93.3577097,1.22570321 84.7613369,0.0557066923 84.3971634,0.00976932905 C83.9275755,-0.0500742428 83.4681787,0.168675106 83.2234325,0.565548925 C82.978527,0.962422744 82.9955653,1.46398375 83.2664263,1.84413887 C83.2805983,1.86398256 84.1828313,3.1431975 85.3372947,5.38772207 C77.3896506,0.335862108 67.6208208,4.03178861 67.2072841,4.19225688 C66.756486,4.36710011 66.4585549,4.7919426 66.4525039,5.26756618 C66.4464529,5.74303351 66.734193,6.17506348 67.1802139,6.36100043 C67.2770296,6.40131281 74.0382038,9.26458553 81.3140298,15.1020682 C79.4028754,14.8511314 77.3469753,14.9222249 75.226266,15.328005 C65.7083926,17.1495621 61.28847,26.593909 61.1048705,26.9950015 C60.9007296,27.4412502 61.0001084,27.9649986 61.35519,28.3085914 C61.5836942,28.5299969 61.8868801,28.6468716 62.1946839,28.6467153 C62.3645891,28.6467153 62.5360866,28.6110905 62.696756,28.5379657 C62.8005781,28.4906221 71.2678103,24.7087583 82.8129213,24.4206342 C83.1272538,26.2840661 84.0885634,27.9234362 85.4594289,29.1179639 C82.3426964,36.7488787 80.4982621,47.3532222 79.9766039,60.6561513 C79.6705517,68.4611281 79.9344063,75.0115773 80.0751712,77.656257 L78.7883825,77.656257 C78.1288256,77.656257 77.5941101,78.1809429 77.5941101,78.8281285 C77.5941101,79.4753141 78.1288256,80 78.7883825,80 L91.5529252,80 C92.2124821,80 92.7471976,79.4753141 92.7471976,78.8281285 C92.7471976,78.1809429 92.2124821,77.656257 91.5529252,77.656257 L90.0463904,77.656257 C89.369636,72.3925226 86.6051343,47.5905652 92.1242651,31.0618644 C94.2575541,30.7465528 96.2023073,29.6099937 97.5002426,27.9081238 C105.971615,33.040296 110.407939,40.0738688 110.461124,40.1596498 C110.680392,40.5144925 111.070362,40.7241794 111.482306,40.7241794 C111.560014,40.7241794 111.638517,40.7166794 111.716702,40.701367 C112.209698,40.6046485 112.588202,40.2152747 112.663362,39.7274636 C112.679923,39.6209014 113.061453,37.0799715 112.698394,33.8434186 C112.208424,29.4749941 110.575455,25.917661 107.976559,23.5562617 C105.206325,21.039238 102.379721,20.1418969 99.9227047,20.0050223 C108.669874,15.907222 115.878343,14.8706626 115.970382,14.8578501 C116.442199,14.7933191 116.82978,14.4600388 116.956851,14.0095714 C117.083603,13.559104 116.925641,13.0775429 116.554779,12.7844188 Z M71.003478,5.57381527 C74.2464849,4.91366098 79.6197553,4.49850597 84.1229585,7.40740356 C86.0368198,8.64380613 87.8766363,10.5017694 89.0447939,12.3773888 C89.3887444,12.9295746 90.1237792,13.1039491 90.6865204,12.7662939 C91.2494208,12.4287949 91.4268101,11.707547 91.0828596,11.1553612 C90.6664566,10.4867694 90.1760088,9.82052138 89.6322167,9.17692954 C88.6459069,6.60115596 87.6068899,4.52053715 86.7849121,3.0435103 C89.2981389,3.94366387 92.9454469,5.90615803 94.9003912,10.0223958 C95.1480037,10.5436442 95.3050107,11.0769239 95.4363806,11.5886411 C94.4944978,12.3855137 93.6497491,13.3298859 92.9217206,14.4142577 C91.7201234,16.2039399 90.8871582,18.3223711 90.481424,20.5614269 C83.566746,12.6644192 75.2971261,7.77646496 71.003478,5.57381527 Z M70.5227435,23.6218866 C68.2834031,24.134385 66.4004336,24.6934459 64.9556825,25.1759444 C66.8633336,22.4745462 70.4165329,18.6362764 75.6832742,17.6284669 C79.5893412,16.8808129 83.1899929,17.4158113 85.8213731,19.1345562 C85.8584751,19.1587748 85.8966919,19.1803373 85.9353863,19.2000247 C86.9124604,20.1612719 87.8752032,21.1776751 88.808328,22.2493906 C81.4320239,21.6425174 74.9012646,22.619702 70.5227435,23.6218866 Z M86.4177131,61.598336 C86.627905,68.9597204 87.3100734,75.0620459 87.6384187,77.6561007 L82.4680154,77.6561007 C82.1700842,72.0772111 81.2027236,46.3727563 87.5019532,30.4249913 C88.1661279,30.7228029 88.8775958,30.9353023 89.6212294,31.0506144 C87.1401683,38.8826224 86.0622976,49.1483731 86.4177131,61.598336 Z M90.9148653,28.8081211 C88.1710642,28.8081211 85.8551312,26.9456267 85.2462115,24.4139154 C87.1943086,24.4512591 89.2140621,24.5943837 91.2836566,24.8754766 C92.7382804,25.4231312 94.1128083,26.0485981 95.4067627,26.7267211 C94.308669,28.0265609 92.658503,28.8081211 90.9148653,28.8081211 Z M106.353782,25.2759441 C109.654751,28.2753102 110.378799,32.9859212 110.453162,36.1270056 C107.731813,32.7504531 102.313001,27.1153137 94.1965666,23.5273556 C94.9054867,23.1917316 95.784312,22.8506388 96.7836791,22.6170458 C100.289904,21.7973607 103.509821,22.6920456 106.353782,25.2759441 Z M92.7846182,21.1470502 C93.6736346,15.5576918 97.4011976,12.1920768 101.059334,11.2748921 C102.167778,10.9969241 103.260457,10.8789557 104.31699,10.8789557 C107.67831,10.8789557 110.673863,12.0730147 112.641547,13.1101991 C108.560638,14.0325401 100.857103,16.2598772 92.7846182,21.1470502 Z"/>
    </g>
    <g transform="translate(79 1)">
      <path class="fill-primary" d="M22,24.1722002 C32.4747794,24.1722002 40.9657216,33.0490942 40.9657216,44 C40.9657216,54.9509058 32.4747794,63.8277998 22,63.8277998 C11.5252206,63.8277998 3.03427839,54.9509058 3.03427839,44 C3.04613104,33.0545155 11.5304062,24.1845916 22,24.1722002 Z"/>
      <path class="fill-gray" fill-rule="nonzero" d="M35 17.4615385L35 10.5384615C35 9.68885212 34.3283692 9 33.5 9 32.6716308 9 32 9.68885212 32 10.5384615L32 17.4615385C32 18.3111479 32.6716308 19 33.5 19 34.3283692 19 35 18.3111479 35 17.4615385zM11 17.4615385L11 10.5384615C11 9.68885212 10.3283692 9 9.5 9 8.67163081 9 8 9.68885212 8 10.5384615L8 17.4615385C8 18.3111479 8.67163081 19 9.5 19 10.3283692 19 11 18.3111479 11 17.4615385zM23 17.3478261L23 1.65217391C23 .739767272 22.3283692 0 21.5 0 20.6716308 0 20 .739767272 20 1.65217391L20 17.3478261C20 18.2602327 20.6716308 19 21.5 19 22.3283692 19 23 18.2602327 23 17.3478261zM0 44C0 56.7027409 9.84955212 67 22 67 34.1504479 67 44 56.7027409 44 44 44 31.2972591 34.1504479 21 22 21 9.85547844 21.0139402.0140750692 31.3034548 0 44zM22 24.1722002C32.4747794 24.1722002 40.9657216 33.0490942 40.9657216 44 40.9657216 54.9509058 32.4747794 63.8277998 22 63.8277998 11.5252206 63.8277998 3.03427839 54.9509058 3.03427839 44 3.04613104 33.0545155 11.5304062 24.1845916 22 24.1722002z"/>
      <path class="fill-gray" fill-rule="nonzero" d="M23.6721014,55 C24.1237923,55 24.5960145,54.9748168 25.0887681,54.9244505 C25.5815217,54.8740842 26.0640097,54.7985348 26.5362319,54.6978022 C27.0084541,54.5970696 27.4601449,54.4610806 27.8913043,54.2898352 C28.3224638,54.1185897 28.692029,53.9221612 29,53.7005495 L29,53.7005495 L28.1684783,50.6483516 C27.6757246,50.9304029 27.116244,51.1620879 26.4900362,51.3434066 C25.8638285,51.5247253 25.1195652,51.6153846 24.2572464,51.6153846 C22.7789855,51.6153846 21.5881643,51.2728938 20.6847826,50.5879121 C19.781401,49.9029304 19.1243961,48.9056777 18.7137681,47.5961538 L18.7137681,47.5961538 L24.5344203,47.5961538 L25.3351449,44.7857143 L18.2518116,44.7857143 L18.2518116,43.5164835 C18.2518116,43.3553114 18.2620773,43.1941392 18.2826087,43.032967 L18.2826087,43.032967 L25.951087,43.032967 L26.7518116,40.2225275 L18.7753623,40.2225275 C19.2065217,38.8928571 19.8686594,37.9207875 20.7617754,37.3063187 C21.6548913,36.6918498 22.7173913,36.3846154 23.9492754,36.3846154 C24.75,36.3846154 25.4480676,36.4299451 26.0434783,36.5206044 C26.6388889,36.6112637 27.1624396,36.7472527 27.6141304,36.9285714 L27.6141304,36.9285714 L28.692029,33.8159341 C28.1376812,33.5943223 27.4447464,33.4029304 26.6132246,33.2417582 C25.7817029,33.0805861 24.8321256,33 23.7644928,33 C22.7584541,33 21.7883454,33.135989 20.8541667,33.407967 C19.9199879,33.6799451 19.0576691,34.103022 18.2672101,34.6771978 C17.4767512,35.2513736 16.7889493,35.9967949 16.2038043,36.9134615 C15.6186594,37.8301282 15.1721014,38.9331502 14.8641304,40.2225275 L14.8641304,40.2225275 L12.9855072,40.2225275 L12,43.032967 L14.5253623,43.032967 C14.5048309,43.1941392 14.4945652,43.3553114 14.4945652,43.5164835 L14.4945652,43.5164835 L14.4945652,44.7857143 L12.9855072,44.7857143 L12,47.5961538 L14.8333333,47.5961538 C15.3466184,50.1547619 16.3834541,52.0283883 17.9438406,53.217033 C19.5042271,54.4056777 21.4136473,55 23.6721014,55 Z"/>
    </g>
  </g>
</svg>
