<svg xmlns="http://www.w3.org/2000/svg" width="128" height="128" viewBox="0 0 128 128">
  <g>
    <path class="fill-primary" d="M70.4799194,34.0526316 C73.1295097,36.0176628 75.5397179,38.1506969 76.2684117,39.0722451 C77.0724423,40.0886721 77.4794486,41.2975986 77.4142824,42.4759957 C77.3517529,43.6083246 76.8564144,44.5752099 76.0194241,45.1989597 C75.4144707,45.6497706 74.667696,45.8903494 73.859522,45.8947368 L73.836356,45.8947368 L73.836356,45.8947368 C72.357309,45.8947368 70.8714817,45.1313198 69.8576385,43.8490862 C69.1345949,42.9350332 67.6849292,40.2455236 66.3684211,37.1240325 C66.6786198,37.0216586 66.9810965,36.9008208 67.2745327,36.7629816 L69.166048,39.2629166 C69.4429102,39.6289034 69.8713875,39.8226827 70.30608,39.8226827 C70.5965028,39.8226827 70.8895625,39.7360304 71.1413752,39.5565104 C71.7704364,39.1082588 71.905854,38.2497802 71.4438519,37.6391928 L69.5636372,35.1540655 C69.9011455,34.8155002 70.2090841,34.4478681 70.4799194,34.0526316 Z M57.7600718,34.0526316 C58.0183716,34.4453814 58.3113106,34.8098823 58.6316797,35.1450409 L56.9063991,37.6384097 C56.4817606,38.252047 56.6175043,39.1064373 57.2095364,39.5463899 C57.4425161,39.7195279 57.7111901,39.8026341 57.9774023,39.8026341 C58.3881499,39.8026341 58.7927434,39.6043456 59.0505156,39.2321901 L60.7874012,36.7220543 C61.0609985,36.8550971 61.34286,36.9713729 61.6315789,37.0694237 C60.4364371,40.1961129 59.1122332,42.8930554 58.4472301,43.8119623 C57.5093329,45.1079454 56.1209498,45.8865194 54.73327,45.8945385 C53.9789433,45.9025575 53.279125,45.6672721 52.7092479,45.224039 C51.9211611,44.6114951 51.4483442,43.6528576 51.3776591,42.5249094 C51.3041606,41.3508519 51.6711256,40.1412555 52.4108581,39.1190125 C53.0813121,38.1924511 55.3080705,36.040073 57.7600718,34.0526316 Z M78.7613959,21.4210526 C80.6467645,21.4210526 82.2555927,22.4131509 82.7701211,23.8960463 C83.1033784,24.8569944 82.9636253,25.918094 82.3768108,26.883932 C81.765901,27.8894321 80.751672,28.6674632 79.5211409,29.0749515 C78.2409362,29.4989205 75.067393,29.9208973 71.9585365,30.1052632 C71.9587218,30.0826249 71.9587218,30.0598056 71.9585365,30.0371673 C71.956683,29.7164287 71.9346265,29.3985878 71.8931083,29.0850934 L74.7704641,28.1523979 C75.4994412,27.9160547 75.8944196,27.1470789 75.652354,26.4349703 C75.4106591,25.7228618 74.6240385,25.3371062 73.8946907,25.5730872 L71.0516245,26.4947353 C70.8403268,26.1031843 70.5949249,25.7286572 70.3157895,25.3765873 C73.1442132,23.5209759 75.8512333,22.0842626 76.9681456,21.7144442 C77.5462487,21.5230153 78.1397358,21.4243125 78.7319254,21.4210526 L78.7613959,21.4210526 L78.7613959,21.4210526 Z M49.2564775,21.4210526 C49.8382883,21.4210526 50.4221373,21.5140345 50.9924601,21.6976233 C52.1132796,22.0584074 54.8355612,23.4774307 57.6842105,25.3173383 C57.4096107,25.675017 57.1689189,26.0547993 56.9625057,26.4513878 L54.1166357,25.5555472 C53.3849253,25.3250107 52.6030013,25.7232433 52.3695358,26.4442635 C52.1360703,27.1652837 52.5394468,27.9365396 53.2709719,28.1667108 L56.1503794,29.0731466 C56.1249329,29.2848066 56.1082156,29.498334 56.1004472,29.7132415 L56.0955336,30.0365772 C56.0955336,30.0365772 56.0955336,30.0367598 56.0955336,30.0369425 C56.0957189,30.059777 56.0959041,30.0824287 56.0962747,30.1052632 C52.9865517,29.9538252 49.809383,29.563265 48.5249524,29.1498703 C47.2899941,28.7521857 46.267193,27.978555 45.6453596,26.9712823 C45.0474285,26.0038329 44.8958613,24.9351812 45.2180807,23.9620688 C45.717808,22.4528038 47.3287197,21.4316478 49.2262752,21.4210526 L49.2564775,21.4210526 L49.2564775,21.4210526 Z M63.9920098,11.1578947 C65.0005648,11.1578947 65.9636779,11.6076108 66.7051002,12.425601 C67.4989555,13.3014578 67.9401294,14.4786136 67.9473684,15.7406046 C67.9539276,16.8657877 67.4461545,19.7884061 66.5720857,22.9714239 C66.2043182,22.8510472 65.8277198,22.7592465 65.4452342,22.6935216 L65.4069673,19.8453796 C65.3970326,19.1113316 64.7810818,18.522843 64.0271491,18.522843 L64.0087516,18.522843 L64.0087516,18.522843 C63.24654,18.5324874 62.6364764,19.1402649 62.6465951,19.8802067 L62.6844941,22.6967364 C62.2804834,22.7676408 61.8832797,22.86855 61.4965627,23 C60.5952655,19.8393072 60.0593441,16.919725 60.052721,15.7834687 C60.0381869,13.2448414 61.7969951,11.1696824 63.9734282,11.1578947 L63.9920098,11.1578947 L63.9920098,11.1578947 Z M77.4210526,79.8421053 L76.0949498,84.3713499 L65.1649807,84.3713499 C64.4071031,84.3713499 63.7927907,84.7949065 63.7927907,85.3174486 C63.7927907,85.8398646 64.4071031,86.2635474 65.1649807,86.2635474 L75.5409897,86.2635474 L73.6561717,92.7017603 C73.6323966,92.7830923 73.527786,92.8421053 73.4072645,92.8421053 L57.7253382,91.4275943 C57.6049996,91.4275943 55.3529905,90.0793826 55.3292154,89.9980506 C53.7616469,89.8039748 52.9615317,89.6511534 52.92887,89.5395865 C52.5426833,88.2204394 52.3860024,87.1284264 52.4588275,86.2635474 L55.3292154,86.2635474 C56.0870929,86.2635474 56.7014053,85.8399907 56.7014053,85.3174486 C56.7014053,84.7949065 56.0870929,84.3713499 55.3292154,84.3713499 L51.9048673,84.3713499 L50.5789474,79.8421053 L77.4210526,79.8421053 Z M81.3684211,73.5263158 L81.3684211,76.6842105 L45.8421053,76.6842105 L45.8421053,73.5263158 L81.3684211,73.5263158 Z"/>
    <path class="fill-gray" fill-rule="nonzero" d="M93.7968263,47.9863107 C93.5518185,47.5896626 93.1209114,47.3447597 92.6537,47.3371179 C92.4938885,47.3347525 88.7166096,47.2916307 83.6347509,48.8944164 C78.960448,50.3683825 72.2449002,53.5792305 66.7810265,60.5063798 C66.777013,60.5112924 66.7733643,60.5165689 66.7693508,60.5214815 C66.7666143,60.5247566 66.7647899,60.5271219 66.7629656,60.5294872 C66.2882745,61.1322832 65.8579146,61.7272553 65.470609,62.2982101 L65.3372503,41.7687611 C66.1811862,43.5211087 67.0015882,44.9865232 67.5961379,45.7588952 C69.093367,47.7042903 71.3434979,48.8625754 73.6219059,48.8625754 C73.6343113,48.8625754 73.6470816,48.8625754 73.6594871,48.8625754 C75.0447022,48.8547516 76.3392481,48.4200763 77.4031984,47.6053102 C78.8579205,46.4912386 79.7166335,44.8116705 79.8208029,42.8759187 C79.9187695,41.0527932 79.3249495,39.2072879 78.1488028,37.6792831 C77.3066912,36.5852258 75.1298985,34.6068981 72.7953011,32.7688527 C75.5500421,32.5599757 78.4850271,32.1669666 79.9798846,31.6616952 C81.8091421,31.0434336 83.3311821,29.8385696 84.2657873,28.2687166 C85.2580413,26.601521 85.4804274,24.7290874 84.8913507,22.9965723 C84.0076443,20.3961621 81.3837079,18.656369 78.3533104,18.656369 C78.3387157,18.656369 78.3235738,18.656369 78.3089791,18.656369 C77.4320228,18.6612816 76.5574381,18.8090239 75.7096712,19.095593 C74.3571116,19.55283 71.8039592,20.9520152 69.2542731,22.6073841 C69.9982356,19.6559949 70.4951836,16.795762 70.4871565,15.3834765 C70.4762105,13.4391732 69.7964645,11.6047668 68.5727027,10.2181361 C67.3095354,8.786746 65.6258596,8 63.8279806,8 C63.8164873,8 63.8048116,8 63.7933183,8 C60.1254992,8.0205602 57.1604128,11.3660502 57.1833993,15.4578935 C57.1916088,16.8810959 57.7150096,19.7344148 58.4837831,22.6663355 C55.9160361,21.0402603 53.348289,19.6701869 51.9911686,19.2284156 C51.1547125,18.9562204 50.2943576,18.8183033 49.4327257,18.8183033 C49.4175838,18.8183033 49.4024418,18.8183033 49.3874823,18.8183033 C46.3381117,18.8354065 43.7125334,20.6092239 42.8540028,23.2320138 C42.2848113,24.971443 42.5279947,26.8411474 43.5390394,28.4965163 C44.4907933,30.0556343 46.0263334,31.2435771 47.8628882,31.8416424 C49.3630362,32.3299926 52.3023996,32.6902509 55.0593298,32.8681967 C52.7458947,34.7322607 50.5915413,36.7347876 49.7616527,37.8381243 C48.6024723,39.3792294 48.0296321,41.2312848 48.1478488,43.0531367 C48.2739102,44.9877968 49.1512313,46.6575396 50.6185414,47.7550539 C51.6819444,48.5507154 52.967551,48.970471 54.3392661,48.970471 C54.3516715,48.970471 54.3644419,48.970471 54.3766649,48.970471 C56.6674783,48.9575526 58.920893,47.7721571 60.404622,45.7992878 C60.9860365,45.026188 61.7821749,43.5678695 62.5998404,41.8233457 L62.733564,62.3900942 C62.3261907,61.8003986 61.8715672,61.1841385 61.3685989,60.5598727 C61.3676868,60.558599 61.3576529,60.5464085 61.3567408,60.5451348 C61.3561935,60.544407 61.3556462,60.5438612 61.3550989,60.5433153 C61.3532745,60.54095 61.3516326,60.5384027 61.3496259,60.5362193 C55.8084005,53.6714784 49.0572782,50.5361392 44.3669212,49.1145743 C39.2684611,47.5692844 35.4886281,47.6535266 35.3310058,47.6584392 C34.8639769,47.6713575 34.4358062,47.9208092 34.1953593,48.3201865 C33.9547299,48.7197457 33.9352096,49.2137363 34.1433658,49.6309446 C34.2331229,49.8110738 36.3938615,54.0863214 40.7042102,57.8550239 C44.965302,61.5804227 49.8194841,63.4792389 54.9735862,63.478875 C56.5443359,63.478875 58.1437276,63.301475 59.7619099,62.9464932 C61.4813426,65.2243085 62.4940292,67.29543 62.7693209,67.8894924 L62.7886588,70.8628974 L45.6158587,70.8628974 C44.393374,70.8628974 43.3987483,71.8548815 43.3987483,73.0739375 L43.3987483,77.4583543 C43.3987483,78.6775922 44.393374,79.6693944 45.6158587,79.6693944 L47.8003136,79.6693944 L49.4535231,87.8379793 C49.4544353,87.8425281 49.4553474,87.8468948 49.4562596,87.8514435 L50.6185414,89.5250248 C50.8991236,90.9112916 54.1803754,90.6153342 55.5984285,90.6153342 C57.6862117,92.9770412 59.4190073,94.1578947 60.7968153,94.1578947 C63.5897136,94.1578947 67.779061,94.1578947 73.3648575,94.1578947 C74.7829106,94.1578947 76.015794,93.1517187 76.2963763,91.7652699 L80.1612232,79.6695763 L82.3454956,79.6695763 C83.5679804,79.6695763 84.5626061,78.6775922 84.5626061,77.4585362 L84.5626061,73.0739375 C84.5626061,71.8546995 83.5679804,70.8628974 82.3454956,70.8628974 L65.5260686,70.8628974 L65.5058186,67.7410223 C65.8444145,67.0072234 66.8127699,65.0459988 68.3966547,62.8979129 C69.9376678,63.2179606 71.4593429,63.3782574 72.9547477,63.3782574 C78.196053,63.3780754 83.112992,61.423401 87.3954285,57.5935637 C91.6630878,53.7768267 93.7754816,49.4775619 93.863232,49.296341 C94.0668274,48.8769494 94.0418341,48.3829588 93.7968263,47.9863107 Z M42.6032147,55.9718518 C40.4965322,54.1237035 38.9387804,52.1053817 37.9473684,50.6315789 C39.40665,50.7993764 41.4128675,51.1442934 43.6940036,51.8509437 C49.174606,53.5488419 53.8714362,56.5145431 57.6842105,60.6796854 C52.1813027,61.5106301 47.1172493,59.9319083 42.6032147,55.9718518 Z M76.9681456,21.7144442 C77.5462487,21.5230153 78.1397358,21.4243125 78.7319254,21.4210526 C78.7419342,21.4210526 78.751387,21.4210526 78.7613959,21.4210526 C80.6467645,21.4210526 82.2555927,22.4131509 82.7701211,23.8960463 C83.1033784,24.8569944 82.9636253,25.918094 82.3768108,26.883932 C81.765901,27.8894321 80.751672,28.6674632 79.5211409,29.0749515 C78.2409362,29.4989205 75.067393,29.9208973 71.9585365,30.1052632 C71.9587218,30.0826249 71.9587218,30.0598056 71.9585365,30.0371673 C71.956683,29.7164287 71.9346265,29.3985878 71.8931083,29.0850934 L74.7704641,28.1523979 C75.4994412,27.9160547 75.8944196,27.1470789 75.652354,26.4349703 C75.4106591,25.7228618 74.6240385,25.3371062 73.8946907,25.5730872 L71.0516245,26.4947353 C70.8403268,26.1031843 70.5949249,25.7286572 70.3157895,25.3765873 C73.1442132,23.5209759 75.8512333,22.0842626 76.9681456,21.7144442 Z M70.30608,39.8226827 C70.5965028,39.8226827 70.8895625,39.7360304 71.1413752,39.5565104 C71.7704364,39.1082588 71.905854,38.2497802 71.4438519,37.6391928 L69.5636372,35.1540655 C69.9011455,34.8155002 70.2090841,34.4478681 70.4799194,34.0526316 C73.1295097,36.0176628 75.5397179,38.1506969 76.2684117,39.0722451 C77.0724423,40.0886721 77.4794486,41.2975986 77.4142824,42.4759957 C77.3517529,43.6083246 76.8564144,44.5752099 76.0194241,45.1989597 C75.4144707,45.6497706 74.667696,45.8903494 73.859522,45.8947368 C73.8518,45.8947368 73.844078,45.8947368 73.836356,45.8947368 C72.357309,45.8947368 70.8714817,45.1313198 69.8576385,43.8490862 C69.1345949,42.9350332 67.6849292,40.2455236 66.3684211,37.1240325 C66.6786198,37.0216586 66.9810965,36.9008208 67.2745327,36.7629816 L69.166048,39.2629166 C69.4429102,39.6289034 69.8713875,39.8226827 70.30608,39.8226827 Z M63.9734282,11.1578947 C63.9796834,11.1578947 63.9857546,11.1578947 63.9920098,11.1578947 C65.0005648,11.1578947 65.9636779,11.6076108 66.7051002,12.425601 C67.4989555,13.3014578 67.9401294,14.4786136 67.9473684,15.7406046 C67.9539276,16.8657877 67.4461545,19.7884061 66.5720857,22.9714239 C66.2043182,22.8510472 65.8277198,22.7592465 65.4452342,22.6935216 L65.4069673,19.8453796 C65.3970326,19.1113316 64.7810818,18.522843 64.0271491,18.522843 C64.0210779,18.522843 64.0150067,18.522843 64.0087516,18.522843 C63.24654,18.5324874 62.6364764,19.1402649 62.6465951,19.8802067 L62.6844941,22.6967364 C62.2804834,22.7676408 61.8832797,22.86855 61.4965627,23 C60.5952655,19.8393072 60.0593441,16.919725 60.052721,15.7834687 C60.0381869,13.2448414 61.7969951,11.1696824 63.9734282,11.1578947 Z M48.5249524,29.1498703 C47.2899941,28.7521857 46.267193,27.978555 45.6453596,26.9712823 C45.0474285,26.0038329 44.8958613,24.9351812 45.2180807,23.9620688 C45.717808,22.4528038 47.3287197,21.4316478 49.2262752,21.4210526 C49.2364662,21.4210526 49.2462865,21.4210526 49.2564775,21.4210526 C49.8382883,21.4210526 50.4221373,21.5140345 50.9924601,21.6976233 C52.1132796,22.0584074 54.8355612,23.4774307 57.6842105,25.3173383 C57.4096107,25.675017 57.1689189,26.0547993 56.9625057,26.4513878 L54.1166357,25.5555472 C53.3849253,25.3250107 52.6030013,25.7232433 52.3695358,26.4442635 C52.1360703,27.1652837 52.5394468,27.9365396 53.2709719,28.1667108 L56.1503794,29.0731466 C56.1122097,29.3906366 56.0936807,29.7123282 56.0955336,30.0365772 C56.0955336,30.0365772 56.0955336,30.0367598 56.0955336,30.0369425 C56.0957189,30.059777 56.0959041,30.0824287 56.0962747,30.1052632 C52.9865517,29.9538252 49.809383,29.563265 48.5249524,29.1498703 Z M58.4472301,43.8119623 C57.5093329,45.1079454 56.1209498,45.8865194 54.73327,45.8945385 C53.9789433,45.9025575 53.279125,45.6672721 52.7092479,45.224039 C51.9211611,44.6114951 51.4483442,43.6528576 51.3776591,42.5249094 C51.3041606,41.3508519 51.6711256,40.1412555 52.4108581,39.1190125 C53.0813121,38.1924511 55.3080705,36.040073 57.7600718,34.0526316 C58.0183716,34.4453814 58.3113106,34.8098823 58.6316797,35.1450409 L56.9063991,37.6384097 C56.4817606,38.252047 56.6175043,39.1064373 57.2095364,39.5463899 C57.4425161,39.7195279 57.7111901,39.8026341 57.9774023,39.8026341 C58.3881499,39.8026341 58.7927434,39.6043456 59.0505156,39.2321901 L60.7874012,36.7220543 C61.0609985,36.8550971 61.34286,36.9713729 61.6315789,37.0694237 C60.4364371,40.1961129 59.1122332,42.8930554 58.4472301,43.8119623 Z M58.8124816,32.2657354 C58.7741611,32.1667291 58.7246248,32.0736447 58.6661159,31.9874075 C58.6646204,31.8826644 58.6513484,31.7775512 58.6253652,31.6739184 C58.5270404,31.2808542 58.4761956,30.8779819 58.4736842,30.4767752 C58.4651667,28.9537439 59.1392342,27.5200959 60.3228713,26.5435424 C60.4099804,26.4715546 60.4866215,26.3899438 60.5526075,26.3013008 C60.6569142,26.2659547 60.7587907,26.2211705 60.8537508,26.1613966 C61.6676415,25.6480444 62.609205,25.3737877 63.5765647,25.3684211 C63.5862851,25.3684211 63.5958185,25.3684211 63.6053519,25.3684211 C64.561122,25.3684211 65.4938998,25.631019 66.3044257,26.1286413 C66.401629,26.1882301 66.505001,26.2344947 66.6115508,26.2687305 C66.6784715,26.3560781 66.7556733,26.4365786 66.8433432,26.5072709 C68.0381961,27.4706853 68.7281526,28.896931 68.7368421,30.4203323 C68.7391814,30.8207989 68.6928229,31.2238562 68.5987974,31.6182158 C68.5741227,31.7222187 68.5619723,31.827517 68.5615984,31.932075 C68.5038373,32.0190525 68.4554225,32.1126921 68.4182236,32.2120685 C67.739109,34.027307 66.0447808,35.3193853 64.1018364,35.5037035 C63.9377124,35.5192485 63.7799439,35.5632924 63.6346998,35.6315789 C63.488521,35.5649579 63.3303787,35.5227646 63.1660677,35.5090702 C61.2210671,35.3465889 59.5121584,34.0733866 58.8124816,32.2657354 Z M76.0949498,84.3713499 L65.1649807,84.3713499 C64.4071031,84.3713499 63.7927907,84.7949065 63.7927907,85.3174486 C63.7927907,85.8398646 64.4071031,86.2635474 65.1649807,86.2635474 L75.5409897,86.2635474 L73.6561717,92.7017603 C73.6323966,92.7830923 73.527786,92.8421053 73.4072645,92.8421053 L57.7253382,91.4275943 C57.6049996,91.4275943 55.3529905,90.0793826 55.3292154,89.9980506 C53.7616469,89.8039748 52.9615317,89.6511534 52.92887,89.5395865 C52.5426833,88.2204394 52.3860024,87.1284264 52.4588275,86.2635474 L55.3292154,86.2635474 C56.0870929,86.2635474 56.7014053,85.8399907 56.7014053,85.3174486 C56.7014053,84.7949065 56.0870929,84.3713499 55.3292154,84.3713499 L51.9048673,84.3713499 L50.5789474,79.8421053 L77.4210526,79.8421053 L76.0949498,84.3713499 Z M81.3684211,73.5263158 L81.3684211,76.6842105 L45.8421053,76.6842105 L45.8421053,73.5263158 L81.3684211,73.5263158 Z M85.4302661,55.9252139 C80.9344808,59.8626061 75.8605123,61.4684234 70.3157895,60.7135996 C74.103893,56.582971 78.7942908,53.6200139 84.2870318,51.8923698 C86.5735004,51.1732507 88.5871103,50.8126147 90.0526316,50.6315789 C89.0720911,52.089374 87.5279588,54.0879437 85.4302661,55.9252139 Z"/>
    <path class="fill-gray" fill-rule="nonzero" d="M95.3648684,91.5185367 L83.1140401,97.5739055 C81.4226118,94.2825969 78.1779712,92.1879824 74.6072629,92.0825327 L63.2979836,91.7573963 C61.5072842,91.7038725 59.7501842,91.2293488 58.1580269,90.3689752 L57.0072449,89.7450646 C51.1151181,86.5320442 44.0920633,86.5400329 38.2060453,89.7658349 L38.2778261,87.0385224 C38.3014985,86.1350102 37.621109,85.3824827 36.7574496,85.3577182 L24.3561874,85.0006271 C23.4925282,84.9758624 22.7739573,85.6876478 22.7502849,86.5911601 L22.0005699,115.06098 C21.9774971,115.964492 22.6578864,116.717019 23.5215458,116.741784 L35.9228081,117.098875 L35.9655711,117.098875 C36.8131942,117.098875 37.5065654,116.393481 37.5294741,115.507543 L37.5653645,114.145485 L40.7870964,112.340857 C42.0516586,111.629072 43.5300357,111.459713 44.9114324,111.86873 L64.1501886,117.517478 C64.1837881,117.527864 64.2173876,117.535852 64.2517508,117.543841 C65.642311,117.848207 67.0595981,118.00079 68.4799397,118 C71.4886204,118.001588 74.4621742,117.323355 77.1967137,116.010027 C77.2639127,115.978073 77.3288207,115.940526 77.3906743,115.898187 L105.285114,97.0226911 C105.980013,96.5521619 106.204518,95.5975225 105.797507,94.8433974 C103.726557,90.9992767 99.1333553,89.534964 95.3648684,91.5185367 L95.3648684,91.5185367 Z M25.1709748,113.515982 L25.8338009,88.3167005 L35.1080207,88.5835201 L34.4451946,113.783601 L25.1709748,113.515982 Z M75.7878264,113.087792 C72.3904609,114.691906 68.5960107,115.134475 64.9443581,114.353988 L45.7575284,108.719619 C43.5979982,108.081329 41.2865067,108.345752 39.3110101,109.456968 L37.6646356,110.379652 L38.1052471,93.625134 C43.3223298,89.9951081 50.0132078,89.6220398 55.5693399,92.6505232 L56.7201221,93.2744338 C58.731509,94.3608852 60.9498382,94.9600313 63.2124577,95.0287333 L74.5225006,95.3538699 C77.6991786,95.4497332 80.397064,97.8159606 81.0415631,101.072119 L64.1952425,100.585613 C63.3315831,100.560848 62.6130125,101.273432 62.5885765,102.176146 C62.5649041,103.079658 63.2460572,103.832185 64.108953,103.85695 L82.7001556,104.392187 L82.7436823,104.392187 C83.5905418,104.391388 84.2831493,103.685993 84.306058,102.800855 C84.3251485,102.089869 84.2747494,101.378083 84.1548604,100.678281 L96.7203018,94.4671339 C96.7325198,94.4615418 96.7447378,94.4551509 96.7569558,94.44876 C98.5392555,93.5053047 100.694204,93.8208549 102.160363,95.2404317 L75.7878264,113.087792 Z"/>
  </g>
</svg>
