<svg xmlns="http://www.w3.org/2000/svg" width="128" height="128" viewBox="0 0 128 128">
  <g>
    <path class="fill-gray" fill-rule="nonzero" d="M23.3021101,9.05463282 L23.3828652,9.07823285 C23.8582218,9.03369449 24.4732072,9.00766152 25.2650397,9.00289768 L71.4483802,9.00119907 C71.4703504,9.00095965 71.4923686,9.00113827 71.5144238,9.00173993 L101.912558,9.00210127 C105.396522,9.00210127 106.154969,9.38145578 106.295538,9.9364161 C106.635969,10.1667833 106.896344,10.5205159 107.004347,10.9525277 L119.992164,58.8592489 C120.009753,58.9228699 120.023815,58.9879643 120.03413,59.0543088 L120.003184,58.9035868 C120.020962,58.9748166 120.034119,59.0465881 120.042738,59.1184972 C120.046554,59.1496004 120.049444,59.1816304 120.051454,59.2139009 C120.053128,59.2391408 120.054178,59.2638548 120.054699,59.2885474 C120.05475,59.3001509 120.054868,59.3119807 120.054868,59.3238384 L120.054868,65.5428839 C120.054868,65.6667051 120.04197,65.7874533 120.017441,65.9038612 C120.041896,66.0196952 120.054868,66.1407003 120.054868,66.2647677 C120.054868,67.2247375 119.279606,68 118.319636,68 L10.7352323,68 L10.7352323,68 C9.77526254,68 9,67.2247375 9,66.2647677 L9,59.3238384 L9.00038409,59.2886285 C9.00086953,59.2639503 9.00188393,59.2392552 9.00343118,59.2145604 L9,59.3238384 C9,59.2541278 9.00409543,59.1853839 9.01205953,59.1178345 C9.01473486,59.0968193 9.01768984,59.0754422 9.02105204,59.0540928 C9.03012677,58.9939209 9.04262063,58.9345686 9.05805244,58.8764205 L21.1983103,10.317082 C21.4296183,9.38761436 22.3684059,8.81485213 23.3021101,9.05463282 Z M62.792,61.059 L12.47,61.059 L12.47,64.529 L62.792,64.529 L62.792,61.059 Z M116.584,61.059 L66.262,61.059 L66.262,64.529 L116.584,64.529 L116.584,61.059 Z M101.912558,12.4725659 L72.667691,12.4739997 C63.5025281,36.2870811 50.9245791,39.9949529 36.3943024,44.2761207 C29.209307,46.3949003 21.7853779,48.5830999 13.9854226,53.4754184 L12.9576515,57.5886061 L62.9546157,57.5887262 C65.2658155,44.9280117 91.6868977,28.6584558 106.355144,23.9115427 L106.858,23.627 L103.810789,12.4215152 C103.291165,12.4548663 102.665513,12.4725659 101.912558,12.4725659 Z M107.781,27.022 L108.055638,26.93549 C95.2942284,30.9349628 69.1611548,46.7262482 66.4852047,57.5885841 L116.097217,57.5886061 L107.781,27.022 Z M24.2411791,12.4504684 L15.1658334,48.756183 C22.3097204,44.8117257 29.2145856,42.7758782 35.4123032,40.9496938 C49.34575,36.8420467 60.4524416,33.5674237 68.9389459,12.4737182 L25.5357727,12.4725659 C25.043365,12.4725659 24.6144091,12.4650096 24.2411791,12.4504684 Z"/>
    <path class="fill-gray" fill-rule="nonzero" d="M69,65 L69,74 C69,77.1899082 67.3333333,78.7848624 64,78.7848624 C60.6666667,78.7848624 59,77.1899082 59,74 L59,65 L69,65 Z M66,67.5867634 L62,67.5867634 L62,73.0863046 C62,74.7532771 62.6666667,75.5867634 64,75.5867634 C65.3333333,75.5867634 66,74.7532771 66,73.0863046 L66,73.0863046 L66,67.5867634 Z"/>
    <path class="fill-primary" d="M19,65 L29,65 L29,83 C29,86.1899082 27.3333333,87.7848624 24,87.7848624 C20.6666667,87.7848624 19,86.1899082 19,83 L19,65 Z"/>
    <path class="fill-gray" fill-rule="nonzero" d="M29 65L29 83C29 86.1899082 27.3333333 87.7848624 24 87.7848624 20.6666667 87.7848624 19 86.1899082 19 83L19 65 29 65zM26 67.5867634L22 67.5867634 22 82.0863046C22 83.7532771 22.6666667 84.5867634 24 84.5867634 25.3333333 84.5867634 26 83.7532771 26 82.0863046L26 82.0863046 26 67.5867634zM109 65L109 70C109 73.1899082 107.333333 74.7848624 104 74.7848624 100.666667 74.7848624 99 73.1899082 99 70L99 65 109 65zM106 67.5867634L102 67.5867634 102 69.0863046C102 70.7532771 102.666667 71.5867634 104 71.5867634 105.333333 71.5867634 106 70.7532771 106 69.0863046L106 69.0863046 106 67.5867634z"/>
    <g transform="translate(14 93)">
      <path class="fill-primary" d="M15.6285585,23.2255274 C14.1748248,24.670854 12.199238,25.5232261 9.99999986,25.5232261 C7.8007617,25.5232261 5.82517488,24.6337943 4.37144118,23.2255274 C2.91770749,21.7802008 2.06037736,19.816039 2.06037736,17.6295193 C2.06037736,14.5165082 6.27247756,8.32754567 9.06811928,4.21392385 C9.40359629,3.73214832 9.70179807,3.25037279 9.99999986,2.84271658 C10.2982016,3.25037279 10.5964034,3.73214832 10.9318804,4.21392385 C13.7275222,8.36460532 17.9396224,14.5165082 17.9396224,17.6295193 C17.9396224,19.816039 17.045017,21.7802008 15.6285585,23.2255274 Z"/>
      <path class="fill-gray" fill-rule="nonzero" d="M12.5660377,3.04500768 C11.9245283,2.10706723 11.3584906,1.24416201 10.8301887,0.456292027 C10.754717,0.343739173 10.6415094,0.231186318 10.5283019,0.156151082 C10.0754717,-0.143989864 9.47169811,0.00608060868 9.16981132,0.456292027 C8.67924528,1.24416201 8.11320755,2.06954961 7.43396226,3.04500768 C4.45283019,7.3970514 0,13.9626346 0,17.7143964 C0,20.4531825 1.13207547,22.9293453 2.94339623,24.730191 C4.75471698,26.4935191 7.24528302,27.6190476 10,27.6190476 C12.754717,27.6190476 15.245283,26.4935191 17.0566038,24.6926734 C18.8679245,22.8918277 20,20.4156649 20,17.6768788 C20,13.925117 15.5471698,7.3970514 12.5660377,3.04500768 Z M14.9891933,22.7748128 C13.7005937,24.0559603 11.94942,24.8115087 10.0000002,24.8115087 C8.05058032,24.8115087 6.29940657,24.0231103 5.01080702,22.7748128 C3.72220747,21.4936654 2.96226415,19.7526189 2.96226415,17.8144728 C2.96226415,15.0550783 6.69589874,9.56913936 9.1739748,5.92279668 C9.47134393,5.49574754 9.73567204,5.06869839 10.0000002,4.70734912 C10.2643283,5.06869839 10.5286564,5.49574754 10.8260255,5.92279668 C13.3041016,9.60198929 17.0377362,15.0550783 17.0377362,17.8144728 C17.0377362,19.7526189 16.2447518,21.4936654 14.9891933,22.7748128 Z"/>
    </g>
    <polygon class="fill-gray" fill-rule="nonzero" points="70.641 107 73.912 103.659 67.304 97 74 90.297 70.641 87 63.945 93.571 57.337 87 54 90.385 60.564 97 54.044 103.615 57.337 106.956 63.945 100.385"/>
    <polygon class="fill-gray" fill-rule="nonzero" points="110.641 107 113.912 103.659 107.304 97 114 90.297 110.641 87 103.945 93.571 97.337 87 94 90.385 100.564 97 94.044 103.615 97.337 106.956 103.945 100.385"/>
  </g>
</svg>
