<svg xmlns="http://www.w3.org/2000/svg" width="128" height="128" viewBox="0 0 128 128">
  <g>
    <path class="fill-gray" fill-rule="nonzero" d="M23.3021101,9.05463282 L23.3828652,9.07823285 C23.8582218,9.03369449 24.4732072,9.00766152 25.2650397,9.00289768 L71.4483802,9.00119907 C71.4703504,9.00095965 71.4923686,9.00113827 71.5144238,9.00173993 L101.912558,9.00210127 C105.396522,9.00210127 106.154969,9.38145578 106.295538,9.9364161 C106.635969,10.1667833 106.896344,10.5205159 107.004347,10.9525277 L119.992164,58.8592489 C120.009753,58.9228699 120.023815,58.9879643 120.03413,59.0543088 L120.003184,58.9035868 C120.020962,58.9748166 120.034119,59.0465881 120.042738,59.1184972 C120.046554,59.1496004 120.049444,59.1816304 120.051454,59.2139009 C120.053128,59.2391408 120.054178,59.2638548 120.054699,59.2885474 C120.05475,59.3001509 120.054868,59.3119807 120.054868,59.3238384 L120.054868,65.5428839 C120.054868,65.6667051 120.04197,65.7874533 120.017441,65.9038612 C120.041896,66.0196952 120.054868,66.1407003 120.054868,66.2647677 C120.054868,67.2247375 119.279606,68 118.319636,68 L10.7352323,68 L10.7352323,68 C9.77526254,68 9,67.2247375 9,66.2647677 L9,59.3238384 L9.00038409,59.2886285 C9.00086953,59.2639503 9.00188393,59.2392552 9.00343118,59.2145604 L9,59.3238384 C9,59.2541278 9.00409543,59.1853839 9.01205953,59.1178345 C9.01473486,59.0968193 9.01768984,59.0754422 9.02105204,59.0540928 C9.03012677,58.9939209 9.04262063,58.9345686 9.05805244,58.8764205 L21.1983103,10.317082 C21.4296183,9.38761436 22.3684059,8.81485213 23.3021101,9.05463282 Z M62.792,61.059 L12.47,61.059 L12.47,64.529 L62.792,64.529 L62.792,61.059 Z M116.584,61.059 L66.262,61.059 L66.262,64.529 L116.584,64.529 L116.584,61.059 Z M101.912558,12.4725659 L72.667691,12.4739997 C63.5025281,36.2870811 50.9245791,39.9949529 36.3943024,44.2761207 C29.209307,46.3949003 21.7853779,48.5830999 13.9854226,53.4754184 L12.9576515,57.5886061 L62.9546157,57.5887262 C65.2658155,44.9280117 91.6868977,28.6584558 106.355144,23.9115427 L106.858,23.627 L103.810789,12.4215152 C103.291165,12.4548663 102.665513,12.4725659 101.912558,12.4725659 Z M107.781,27.022 L108.055638,26.93549 C95.2942284,30.9349628 69.1611548,46.7262482 66.4852047,57.5885841 L116.097217,57.5886061 L107.781,27.022 Z M24.2411791,12.4504684 L15.1658334,48.756183 C22.3097204,44.8117257 29.2145856,42.7758782 35.4123032,40.9496938 C49.34575,36.8420467 60.4524416,33.5674237 68.9389459,12.4737182 L25.5357727,12.4725659 C25.043365,12.4725659 24.6144091,12.4650096 24.2411791,12.4504684 Z"/>
    <g transform="translate(92 91)">
      <path class="fill-primary" d="M17.0350857,26.1980571 C14,28.4161021 10,28.4161021 6.89948571,26.1985714 C3.80588571,24.4317714 1.71594286,21.1005714 1.71594286,17.2901143 C1.71594286,16.9650857 1.73125714,16.6408 1.76165714,16.3184571 C2.34022857,16.8666286 3.12457143,17.5050857 4.12314286,18.0975429 L5.61382857,18.9813714 L5.41285714,17.2597143 C5.40897143,17.2262857 5.0332,13.878 5.91851429,10.3157143 C6.9308,6.24205714 9.1076,3.58051429 12.3987429,2.38457143 C11.9397714,4.65097143 11.9155429,6.69062857 12.3348,8.34697143 C12.8041714,10.2013714 13.8388571,11.5313143 15.1735429,11.9956571 C16.1013714,12.3184571 17.1012571,12.1984571 17.9894286,11.6578286 C18.5006857,11.3466286 18.9632,10.9037143 19.3608,10.3492 C20.2197143,11.8829714 20.5465143,13.4783429 20.3330857,15.1066857 C20.1312,16.6469714 19.4972571,17.6532571 19.4929714,17.66 L18.7590857,18.7858857 L20.0893143,18.9775429 C20.7590286,19.074 21.4584,18.9267429 22.1414857,18.5497143 C21.7380571,21.8262857 19.7822286,24.6289143 17.0350857,26.1980571 Z"/>
      <path class="fill-gray" fill-rule="nonzero" d="M23.9146286,16.6131429 L23.7853714,14.3077714 L22.378,16.1382286 C22.2659429,16.2839429 22.0273714,16.5417143 21.7228,16.7766286 C21.8431429,16.3778857 21.9505714,15.9231429 22.0216,15.4215429 C22.2674286,13.6845143 22.1143429,11.0185143 19.9898286,8.18194286 L19.0984,6.99177143 L18.5142857,8.35925714 C17.8405143,9.93662857 16.7503429,10.728 15.7371429,10.3752571 C14.9571429,10.1038286 14.3231429,9.21114286 13.9978857,7.92594286 C13.6945143,6.7272 13.5181714,4.61777143 14.4016,1.37571429 L14.7764571,1.59872116e-14 L13.3854286,0.313371429 C8.69314286,1.3704 5.53125714,4.70262857 4.24142857,9.94971429 C3.69925714,12.1553714 3.59714286,14.2450286 3.61234286,15.6584 C2.50365714,14.7620571 1.95,13.9756 1.93548571,13.9548 L0.879428571,12.4032571 L0.3984,14.2199429 C0.134,15.2184571 -1.59872116e-14,16.2514286 -1.59872116e-14,17.2901714 C-1.59872116e-14,23.8394857 5.28857143,29.1758286 11.8193714,29.2553143 C11.8684571,29.2565714 11.9176571,29.2572 11.9670286,29.2572 C12.0164,29.2572 12.0656,29.2565714 12.1146857,29.2553143 C18.6455429,29.1758286 23.9340571,23.8394857 23.9340571,17.2901714 C23.9340571,17.0710286 23.9275429,16.8432 23.9146286,16.6131429 Z M11.9670786,25.9582417 C10.3050068,25.9582417 8.95285714,24.6060921 8.95285714,22.9440632 C8.95285714,20.04359 10.3244869,18.7442597 11.3936604,18.172 C11.2574285,18.9083816 11.3782136,19.6061462 11.6051523,20.1256724 C11.9433936,20.8999414 12.546933,21.4071102 13.2196824,21.4822844 C13.4839508,21.5117191 13.9262861,21.4889351 14.3899464,21.1515521 C14.7704088,21.6664871 14.9812571,22.2946555 14.9812571,22.9440632 C14.9812571,24.606135 13.6290646,25.9582417 11.9670786,25.9582417 Z M16.5350872,25.8663214 C16.9159726,25.1464589 17.1321633,24.3265424 17.1321633,23.4570371 C17.1321633,21.9916928 16.5064267,20.5894429 15.4154729,19.6099349 L14.7808185,19.0401791 L14.2752395,19.7270511 C14.146525,19.9019522 13.8926015,20.1915468 13.6401727,20.1628347 C13.4399618,20.1404631 13.1479445,19.9118494 12.9469088,19.4515806 C12.6689124,18.8153283 12.6125193,17.809428 13.287587,16.8946639 L14.3588497,15.4429282 L12.5687039,15.6672635 C12.5083416,15.674841 11.074029,15.864794 9.65177855,16.933737 C7.29033042,18.7085217 6.79459694,21.4607008 6.79459694,23.4570371 C6.79459694,24.3267486 7.01083921,25.1468197 7.39193078,25.8667853 C4.6012456,24.2729844 2.71594286,21.2679642 2.71594286,17.8306141 C2.71594286,17.5374112 2.72975762,17.2448785 2.75718096,16.9540983 C3.27910063,17.4485947 3.9866433,18.0245363 4.887438,18.558982 L6.23216083,19.3562691 L6.05086784,17.8031908 C6.0473626,17.7730354 5.70838544,14.7526025 6.50701275,11.5391237 C7.42017888,7.86434523 9.38383401,5.46341162 12.3527193,4.38457143 C11.9386888,6.42905323 11.9168326,8.26899407 12.2950375,9.76315345 C12.7184497,11.4359769 13.6518225,12.6356963 14.8558203,13.0545722 C15.6927991,13.3457648 16.5947794,13.2375148 17.3959841,12.7498227 C17.8571806,12.4690943 18.2744071,12.0695487 18.6330755,11.5693306 C19.4078878,12.9529203 19.7026886,14.3920784 19.5101582,15.8609794 C19.3280405,17.2504456 18.7561712,18.1581992 18.7523051,18.1642819 L18.090279,19.1799247 L19.2902561,19.3528154 C19.8943942,19.4398278 20.5252856,19.3069896 21.1414859,18.9668783 C20.7775596,21.922619 19.0132392,24.4508237 16.5350872,25.8663214 Z"/>
    </g>
    <path class="fill-primary" d="M59,65 L69,65 L69,83 C69,86.1899082 67.3333333,87.7848624 64,87.7848624 C60.6666667,87.7848624 59,86.1899082 59,83 L59,65 Z"/>
    <path class="fill-gray" fill-rule="nonzero" d="M69,65 L69,83 C69,86.1899082 67.3333333,87.7848624 64,87.7848624 C60.6666667,87.7848624 59,86.1899082 59,83 L59,65 L69,65 Z M66,67.5867634 L62,67.5867634 L62,82.0863046 C62,83.7532771 62.6666667,84.5867634 64,84.5867634 C65.3333333,84.5867634 66,83.7532771 66,82.0863046 L66,82.0863046 L66,67.5867634 Z"/>
    <path class="fill-primary" d="M19,65 L29,65 L29,83 C29,86.1899082 27.3333333,87.7848624 24,87.7848624 C20.6666667,87.7848624 19,86.1899082 19,83 L19,65 Z"/>
    <path class="fill-gray" fill-rule="nonzero" d="M29,65 L29,83 C29,86.1899082 27.3333333,87.7848624 24,87.7848624 C20.6666667,87.7848624 19,86.1899082 19,83 L19,65 L29,65 Z M26,67.5867634 L22,67.5867634 L22,82.0863046 C22,83.7532771 22.6666667,84.5867634 24,84.5867634 C25.3333333,84.5867634 26,83.7532771 26,82.0863046 L26,82.0863046 L26,67.5867634 Z"/>
    <path class="fill-primary" d="M99,65 L109,65 L109,83 C109,86.1899082 107.333333,87.7848624 104,87.7848624 C100.666667,87.7848624 99,86.1899082 99,83 L99,65 Z"/>
    <path class="fill-gray" fill-rule="nonzero" d="M109,65 L109,83 C109,86.1899082 107.333333,87.7848624 104,87.7848624 C100.666667,87.7848624 99,86.1899082 99,83 L99,65 L109,65 Z M106,67.5867634 L102,67.5867634 L102,82.0863046 C102,83.7532771 102.666667,84.5867634 104,84.5867634 C105.333333,84.5867634 106,83.7532771 106,82.0863046 L106,82.0863046 L106,67.5867634 Z"/>
    <g transform="translate(14 93)">
      <path class="fill-primary" d="M15.6285585,23.2255274 C14.1748248,24.670854 12.199238,25.5232261 9.99999986,25.5232261 C7.8007617,25.5232261 5.82517488,24.6337943 4.37144118,23.2255274 C2.91770749,21.7802008 2.06037736,19.816039 2.06037736,17.6295193 C2.06037736,14.5165082 6.27247756,8.32754567 9.06811928,4.21392385 C9.40359629,3.73214832 9.70179807,3.25037279 9.99999986,2.84271658 C10.2982016,3.25037279 10.5964034,3.73214832 10.9318804,4.21392385 C13.7275222,8.36460532 17.9396224,14.5165082 17.9396224,17.6295193 C17.9396224,19.816039 17.045017,21.7802008 15.6285585,23.2255274 Z"/>
      <path class="fill-gray" fill-rule="nonzero" d="M12.5660377,3.04500768 C11.9245283,2.10706723 11.3584906,1.24416201 10.8301887,0.456292027 C10.754717,0.343739173 10.6415094,0.231186318 10.5283019,0.156151082 C10.0754717,-0.143989864 9.47169811,0.00608060868 9.16981132,0.456292027 C8.67924528,1.24416201 8.11320755,2.06954961 7.43396226,3.04500768 C4.45283019,7.3970514 0,13.9626346 0,17.7143964 C0,20.4531825 1.13207547,22.9293453 2.94339623,24.730191 C4.75471698,26.4935191 7.24528302,27.6190476 10,27.6190476 C12.754717,27.6190476 15.245283,26.4935191 17.0566038,24.6926734 C18.8679245,22.8918277 20,20.4156649 20,17.6768788 C20,13.925117 15.5471698,7.3970514 12.5660377,3.04500768 Z M14.9891933,22.7748128 C13.7005937,24.0559603 11.94942,24.8115087 10.0000002,24.8115087 C8.05058032,24.8115087 6.29940657,24.0231103 5.01080702,22.7748128 C3.72220747,21.4936654 2.96226415,19.7526189 2.96226415,17.8144728 C2.96226415,15.0550783 6.69589874,9.56913936 9.1739748,5.92279668 C9.47134393,5.49574754 9.73567204,5.06869839 10.0000002,4.70734912 C10.2643283,5.06869839 10.5286564,5.49574754 10.8260255,5.92279668 C13.3041016,9.60198929 17.0377362,15.0550783 17.0377362,17.8144728 C17.0377362,19.7526189 16.2447518,21.4936654 14.9891933,22.7748128 Z"/>
    </g>
    <path class="fill-primary" d="M63.4972094,116.855096 L63.4972094,108.172972 C63.5176344,107.90905 63.4267312,107.64875 63.2471812,107.454356 C63.0672156,107.260497 62.8143969,107.15 62.55,107.15 L57.5641719,107.172972 L65.1382812,94.6486469 L65.5032656,103.271328 C65.481475,103.5362 65.5710125,103.797687 65.7509781,103.993447 C65.9309437,104.188791 66.1841781,104.3 66.45,104.3 L72.3559125,104.3 L63.4972094,116.855096 Z"/>
    <path class="fill-gray" fill-rule="nonzero" d="M73.8783406,102.885331 C73.7104281,102.585666 73.3936031,102.4 73.0498812,102.4 L66.4825312,102.4 L67.3467344,92.0290875 C67.3828937,91.5949375 67.1189719,91.1919 66.7066125,91.0513594 C66.2960937,90.9098688 65.8392031,91.0681031 65.6025937,91.4340906 L55.1527125,107.583913 C54.963425,107.876156 54.9490562,108.248556 55.1156031,108.554219 C55.28215,108.859881 55.6021812,109.05 55.9500594,109.05 L62.5239406,109.05 L61.6527906,120.377147 C61.6189469,120.815038 61.8898156,121.219084 62.3077562,121.354103 C62.4042406,121.385156 62.5025656,121.400059 62.6,121.400059 C62.9237719,121.400059 63.2345406,121.233572 63.410825,120.945484 L73.8607062,103.845603 C74.0397812,103.552469 74.0467281,103.184997 73.8783406,102.885331 Z M63.6512469,115.987759 L64.4597665,107.682713 C64.4772008,107.457434 64.3996077,107.235247 64.2463473,107.069316 C64.0927321,106.903842 63.8769309,106.809524 63.6512469,106.809524 L58.3588716,106.809524 L65.0486628,96.6486469 L64.3976148,103.749676 C64.3790147,103.975765 64.4554422,104.198966 64.6090574,104.366062 C64.7626725,104.532804 64.9788285,104.62773 65.2057289,104.62773 L70.6567456,104.366062 L63.6512469,115.987759 Z"/>
  </g>
</svg>
