<svg xmlns="http://www.w3.org/2000/svg" width="128" height="128" viewBox="0 0 128 128">
  <g>
    <rect width="11" height="35" x="95" y="25" class="fill-primary"/>
    <path class="fill-gray" fill-rule="nonzero" d="M45.3043478,64.71875 L82.6956522,64.71875 L82.6956522,44.953125 L66.173913,44.953125 L66.173913,64.71875 L61.826087,64.71875 L61.826087,44.953125 L45.3043478,44.953125 L45.3043478,64.71875 Z M68.7826087,47.53125 L80.0869565,47.53125 L80.0869565,62.03125 L68.7826087,62.03125 L68.7826087,47.53125 Z M89.6521739,8 L89.6521739,31.203125 L94,31.203125 L94,24.328125 L107.043478,24.328125 L107.043478,61.28125 L94,61.28125 L94,54.40625 L89.6521739,54.40625 L89.6521739,68.0520508 L96.6086957,74.9270508 L96.6086957,81.90625 L89.6521739,81.90625 L89.6521739,115.383049 L94.6521739,115.383049 L94.6521739,118 L33.3478261,118 L33.3478261,115.487334 L38.3478261,115.487334 L38.3478261,81.90625 L31.3913043,81.90625 L31.3913043,74.9270508 L38.3478261,68.0520508 L38.3478261,8 L89.6521739,8 Z M87.0434783,105.96875 L60.0869565,105.96875 L60.0869565,115.361957 L87.0434783,115.361957 L87.0434783,105.96875 Z M57.4782609,102.8125 L46.173913,102.8125 L46.173913,115.3125 L57.4782609,115.3125 L57.4782609,102.8125 Z M87.0434783,81.90625 L40.9565217,81.90625 L40.9565217,115.265625 L43.5652174,115.265625 L43.5652174,86.203125 L60.0869565,86.203125 L60.0869565,103.390625 L62.6956522,103.390625 L62.6956522,86.203125 L84.4347826,86.203125 L84.4347826,103.390625 L87.0434783,103.390625 L87.0434783,81.90625 Z M81.826087,88.78125 L65.3043478,88.78125 L65.3043478,103.390625 L81.826087,103.390625 L81.826087,88.78125 Z M57.4782609,88.78125 L46.173913,88.78125 L46.173913,99.78125 L57.4782609,99.78125 L57.4782609,88.78125 Z M94,76.75 L34,76.75 L34,79.328125 L94,79.328125 L94,76.75 Z M87.8073913,69.875 L40.1923913,69.875 L35.8445652,74.171875 L92.1552174,74.171875 L87.8073913,69.875 Z M87.0434783,18.3125 L40.9565217,18.3125 L40.9565217,67.296875 L87.0434783,67.296875 L87.0434783,18.3125 Z M59.2173913,47.53125 L59.2173913,62.03125 L47.9130435,62.03125 L47.9130435,47.53125 L59.2173913,47.53125 Z M104.434783,26.90625 L96.6086957,26.90625 L96.6086957,58.703125 L104.434783,58.703125 L104.434783,26.90625 Z M94,33.78125 L89.6521739,33.78125 L89.6521739,51.828125 L94,51.828125 L94,33.78125 Z M82.6956522,20.890625 L82.6956522,40.65625 L66.173913,40.65625 L66.173913,20.890625 L82.6956522,20.890625 Z M61.826087,20.890625 L61.826087,40.65625 L45.3043478,40.65625 L45.3043478,20.890625 L61.826087,20.890625 Z M80.0869565,23.46875 L68.7826087,23.46875 L68.7826087,37.96875 L80.0869565,37.96875 L80.0869565,23.46875 Z M59.2173913,23.46875 L47.9130435,23.46875 L47.9130435,37.96875 L59.2173913,37.96875 L59.2173913,23.46875 Z M73.5652174,10.578125 L64.4347826,10.578125 L64.4347826,15.734375 L73.5652174,15.734375 L73.5652174,10.578125 Z M61.826087,10.578125 L52.6956522,10.578125 L52.6956522,15.734375 L61.826087,15.734375 L61.826087,10.578125 Z M87.0434783,10.578125 L76.173913,10.578125 L76.173913,15.734375 L87.0434783,15.734375 L87.0434783,10.578125 Z M50.0869565,10.578125 L40.9565217,10.578125 L40.9565217,15.734375 L50.0869565,15.734375 L50.0869565,10.578125 Z"/>
  </g>
</svg>
