<svg xmlns="http://www.w3.org/2000/svg" viewBox="0 0 128 128"><g id="ee1280ec-00c3-43b0-8e35-739350b6655c"><path d="M43,48A21,21,0,0,0,64,69a1.5,1.5,0,0,0,0-3A18,18,0,1,1,82,48.15c0,.05.21,5.2-3,8a4.54,4.54,0,0,1-4.57.27A2.88,2.88,0,0,1,72.5,53.9V39a1.5,1.5,0,0,0-3,0v1.09A8.19,8.19,0,0,0,63,37c-5.3,0-9,4.52-9,11s3.7,11,9,11a8.22,8.22,0,0,0,6.77-3.45,6,6,0,0,0,3.35,3.56,7.51,7.51,0,0,0,7.79-.71C85.27,54.65,85,48.27,85,48.07A21,21,0,1,0,43,48Zm20,8c-4.14,0-6-4-6-8s1.86-8,6-8,6,4,6,8S67.14,56,63,56Z" fill="#092f5c"/><path d="M112,49.38c0-.06,0-.12,0-.17a1.05,1.05,0,0,0,0-.19s0-.06,0-.09a1.11,1.11,0,0,0-.09-.19.25.25,0,0,1,0-.07,2.11,2.11,0,0,0-.19-.23L102,38.88V17.5a1.5,1.5,0,0,0-1.5-1.5h-29a1.5,1.5,0,0,0,0,3H99V58.5s0,.09,0,.14L64,92.9,31,60.6s0-.07,0-.1V19H56.5a1.5,1.5,0,0,0,0-3h-27A1.5,1.5,0,0,0,28,17.5V36.88L16.44,48.44a1.45,1.45,0,0,0-.19.23.25.25,0,0,1,0,.07,1.11,1.11,0,0,0-.09.19,1,1,0,0,0,0,.1,1,1,0,0,0,0,.18s0,.11,0,.17,0,.08,0,.12v54a8.51,8.51,0,0,0,8.5,8.5h79a8.51,8.51,0,0,0,8.5-8.5v-54S112,49.42,112,49.38Zm-10-6.26,6.37,6.37L102,55.72Zm-74-2V57.68l-8.37-8.19ZM19,103.5V53.07L46.2,79.68l-26.5,26.5A5.54,5.54,0,0,1,19,103.5Zm84.5,5.5h-79a5.54,5.54,0,0,1-2.68-.7L48.34,81.78,63,96.07a1.5,1.5,0,0,0,2.1,0L79.66,81.78l26.52,26.52A5.54,5.54,0,0,1,103.5,109Zm5.5-5.5a5.54,5.54,0,0,1-.7,2.68L81.8,79.68,109,53.07Z" fill="#092f5c"/><circle cx="65.5" cy="17.5" r="1.5" fill="#092f5c"/></g></svg>
