<svg xmlns="http://www.w3.org/2000/svg" width="128" height="128" viewBox="0 0 128 128">
  <path class="fill-gray" d="M110.129036,98.7415576 L109.451294,98.7415576 L92.2096877,64.2388289 C91.907674,63.6344157 91.2885722,63.254012 90.6129141,63.2577002 L42.7097066,63.2577002 C42.0372414,63.2573869 41.4223958,63.6372859 41.121804,64.2388289 L23.8713267,98.7415576 L21.4193921,98.7415576 L21.4193921,79.0657587 C25.0826542,78.4616436 28.1629033,75.9850837 29.5395901,72.537015 C30.9162769,69.0889463 30.3887461,65.1719329 28.1489057,62.2109264 C29.0442751,59.2109045 28.2765895,55.9610804 26.1334226,53.6788329 C26.5345158,52.785581 26.7419141,51.8175206 26.7419707,50.8383501 C26.7419707,46.9189115 23.5646379,43.7415786 19.6451993,43.7415786 C15.7257606,43.7415786 12.5484278,46.9189115 12.5484278,50.8383501 C12.5476609,51.8204652 12.755068,52.7915897 13.1569759,53.6877039 C11.0137618,55.968488 10.2459846,59.2173479 11.1414928,62.216249 C8.90541138,65.1774301 8.38007692,69.0921194 9.75634981,72.5380629 C11.1326227,75.9840064 14.2102174,78.4597245 17.8710064,79.0657587 L17.8710064,83.8134988 L15.576975,81.5194674 C14.8808192,80.8470976 13.7742446,80.8567135 13.0898785,81.5410796 C12.4055123,82.2254458 12.3958965,83.3320203 13.0682663,84.0281761 L17.5037485,88.4636583 C17.615151,88.5606968 17.7385852,88.6429864 17.8710064,88.7084969 L17.8710064,98.7415576 L10.7742349,98.7415576 C9.79437524,98.7415576 9,99.5358908 9,100.51575 C9,101.49561 9.79437524,102.289943 10.7742349,102.289943 L110.129036,102.289943 C111.108895,102.289943 111.903229,101.49561 111.903229,100.51575 C111.903229,99.5358908 111.108895,98.7415576 110.129036,98.7415576 Z M12.5484278,68.5802788 C12.5542254,66.7941089 13.2370558,65.0765717 14.4592335,63.7739903 C14.9411326,63.2548514 15.0680677,62.4988204 14.7821366,61.8507653 C13.7688668,59.5879078 14.4768488,56.9246527 16.4800392,55.4636709 C16.8590516,55.181189 17.109667,54.7591382 17.1762838,54.2911546 C17.2429007,53.823171 17.1200106,53.3479521 16.8348777,52.97093 C16.3604185,52.3609096 16.1009343,51.6111499 16.0968135,50.8383501 C16.0968135,48.8786308 17.6854799,47.2899644 19.6451993,47.2899644 C21.6049186,47.2899644 23.193585,48.8786308 23.193585,50.8383501 C23.1896993,51.609519 22.9315191,52.3578673 22.4590691,52.9673816 C22.1739363,53.3444038 22.0510462,53.8196226 22.1176631,54.2876062 C22.1842799,54.7555898 22.4348953,55.1776406 22.8139077,55.4601225 C24.8147259,56.9227271 25.5222151,59.5841288 24.5118103,61.8472169 C24.2254133,62.494927 24.3516441,63.2509166 24.8329392,63.770442 C26.5440104,65.5892767 27.1638203,68.1782803 26.4619057,70.5747862 C25.759991,72.9712921 23.8413513,74.8168069 21.4193921,75.4251149 L21.4193921,63.2577002 C21.4193921,62.2778405 20.6250589,61.4835073 19.6451993,61.4835073 C18.6653396,61.4835073 17.8710064,62.2778405 17.8710064,63.2577002 L17.8710064,75.4251149 C14.7472114,74.6185787 12.5605186,71.8064918 12.5484278,68.5802788 Z M44.4838994,98.7415576 L44.4838994,89.8705933 C44.4838994,88.8907336 43.6895662,88.0964004 42.7097066,88.0964004 C41.7298469,88.0964004 40.9355137,88.8907336 40.9355137,89.8705933 L40.9355137,98.7415576 L27.8384219,98.7415576 L42.7097066,68.9989883 L57.5809912,98.7415576 L44.4838994,98.7415576 Z M117.225807,98.7415576 C118.205667,98.7415576 119,99.5358908 119,100.51575 C119,101.49561 118.205667,102.289943 117.225807,102.289943 L117.225807,102.289943 L115.451614,102.289943 C114.471755,102.289943 113.677421,101.49561 113.677421,100.51575 C113.677421,99.5358908 114.471755,98.7415576 115.451614,98.7415576 L115.451614,98.7415576 Z M89.5164629,66.806086 L105.484199,98.7415576 L61.5480865,98.7415576 L45.5803506,66.806086 L89.5164629,66.806086 Z M42.7097066,79.225436 C43.6895662,79.225436 44.4838994,80.0197693 44.4838994,80.9996289 L44.4838994,80.9996289 L44.4838994,84.5480147 C44.4838994,85.5278743 43.6895662,86.3222075 42.7097066,86.3222075 C41.7298469,86.3222075 40.9355137,85.5278743 40.9355137,84.5480147 L40.9355137,84.5480147 L40.9355137,80.9996289 C40.9355137,80.0197693 41.7298469,79.225436 42.7097066,79.225436 Z M64.9527626,42.015289 C66.3778467,39.4940199 69.1949845,38.0950987 72.064962,38.4835461 C74.9349396,38.8719935 77.278847,40.9694548 77.982435,43.7788367 C80.9215203,44.0992261 83.2271664,46.4473414 83.4938638,49.3917844 C83.7605612,52.3362273 81.9143458,55.0604039 79.0806604,55.9036708 C78.8155234,56.0722172 78.5077379,56.161475 78.193564,56.1609312 L78.193564,56.1609312 L65.7742139,56.1609312 C62.0152532,56.1600153 58.9090223,53.2282196 58.6911028,49.4755809 C58.4731834,45.7229421 61.2191746,42.4513022 64.9527626,42.015289 Z M71.6590849,42.006813 C69.9629319,41.7408184 68.3209742,42.7322948 67.7666325,44.3572236 C67.5093651,45.1148139 66.7726258,45.6028125 65.9746977,45.5441586 L65.9746977,45.5441586 L65.7121171,45.5157715 C63.7523978,45.5329191 62.1776323,47.1354863 62.1946411,49.0952056 C62.2119274,51.0549249 63.8144946,52.6296905 65.7742139,52.612543 L65.7742139,52.612543 L77.6400158,52.612543 C77.7052592,52.5912817 77.7715899,52.5735146 77.8387254,52.5593172 C79.077998,52.3063518 79.968015,51.216081 79.9677569,49.9512537 C79.9478619,49.1576207 79.5819881,48.4123532 78.966252,47.9112362 C78.350516,47.4101192 77.5464694,47.2032465 76.7653387,47.3449644 C76.2346368,47.4535192 75.6834186,47.3136818 75.2686434,46.9652706 C74.8538683,46.6168595 74.6209851,46.0980518 74.6363073,45.5565779 C74.6451782,45.5228683 74.6451782,45.4785135 74.6451782,45.4359328 C74.6148652,43.7193171 73.355238,42.2728076 71.6590849,42.006813 Z M91.5656556,29.5959389 C92.9907397,27.0746698 95.8078775,25.6757486 98.6778551,26.064196 C101.547833,26.4526434 103.89174,28.5501047 104.595328,31.3594866 C107.534413,31.679876 109.840059,34.0279913 110.106757,36.9724343 C110.373454,39.9168772 108.527239,42.6410538 105.693553,43.4843207 C105.428416,43.6528671 105.120631,43.7421249 104.806457,43.7415811 L104.806457,43.7415811 L92.3871069,43.7415811 C88.6281462,43.7406652 85.5219153,40.8088695 85.3039959,37.0562308 C85.0860764,33.303592 87.8320677,30.0319521 91.5656556,29.5959389 Z M98.271978,29.5874629 C96.5758249,29.3214683 94.9338673,30.3129447 94.3795255,31.9378735 C94.1171109,32.6914813 93.3838599,33.1771694 92.5875907,33.1248085 L92.5875907,33.1248085 L92.3250102,33.0964214 C91.0572941,33.1075139 89.8917938,33.7940823 89.2675422,34.897503 C88.6432905,36.0009236 88.6551261,37.3535606 89.2985906,38.4458887 C89.942055,39.5382168 91.1193908,40.2042854 92.3871069,40.1931929 L92.3871069,40.1931929 L104.252909,40.1931929 C104.318152,40.1719317 104.384483,40.1541645 104.451618,40.1399671 C105.690891,39.8870017 106.580908,38.7967309 106.58065,37.5319036 C106.561356,36.7380499 106.195643,35.9923927 105.579748,35.4911457 C104.963852,34.9898988 104.159457,34.7832635 103.378232,34.9256143 C102.84753,35.0341691 102.296312,34.8943317 101.881536,34.5459205 C101.466761,34.1975094 101.233878,33.6787017 101.2492,33.1372279 C101.258071,33.1035182 101.258071,33.0591634 101.258071,33.0165827 C101.227758,31.299967 99.9681311,29.8534575 98.271978,29.5874629 Z"/>
</svg>
