<svg xmlns="http://www.w3.org/2000/svg" width="128" height="128" viewBox="0 0 128 128">
  <path class="fill-gray" d="M110.129032,99.1612903 L104.806452,99.1612903 L104.806452,60.1290323 L113.677419,60.1290323 C114.205959,60.128842 114.706895,59.893014 115.043804,59.4857716 C115.380714,59.0785292 115.518514,58.5422811 115.419677,58.0230645 L108.322903,20.765 C108.163638,19.9283395 107.432329,19.3228872 106.580645,19.3225806 L103.032258,19.3225806 L103.032258,15.7741935 C103.032258,14.7943335 102.237925,14 101.258065,14 L87.0645161,14 C86.0846561,14 85.2903226,14.7943335 85.2903226,15.7741935 L85.2903226,19.3225806 L39.1612903,19.3225806 C38.3096062,19.3228872 37.5782972,19.9283395 37.4190323,20.765 L30.3222581,58.0230645 C30.223421,58.5422811 30.3612211,59.0785292 30.698131,59.4857716 C31.0350409,59.893014 31.5359761,60.128842 32.0645161,60.1290323 L40.9354839,60.1290323 L40.9354839,99.1612903 L24.9677419,99.1612903 L24.9677419,95.4532258 C28.6304185,94.8481651 31.7098745,92.3715404 33.0864042,88.9238653 C34.4629339,85.4761901 33.9360226,81.5596759 31.6972581,78.5983871 C32.5940637,75.5978475 31.8262448,72.3467834 29.6817742,70.0645161 C30.0826227,69.1718094 30.2900155,68.2043792 30.2903226,67.2258065 C30.2903226,63.3063663 27.1129885,60.1290323 23.1935484,60.1290323 C19.2741082,60.1290323 16.0967742,63.3063663 16.0967742,67.2258065 C16.0970812,68.2043792 16.3044741,69.1718094 16.7053226,70.0645161 C14.5621549,72.3467645 13.7944689,75.5965899 14.6898387,78.5966129 C12.4491022,81.5576554 11.9210449,85.4752787 13.2978178,88.923926 C14.6745907,92.3725734 17.755462,94.8494361 21.4193548,95.4532258 L21.4193548,99.1612903 L10.7741935,99.1612903 C9.79433351,99.1612903 9,99.9556238 9,100.935484 C9,101.915344 9.79433351,102.709677 10.7741935,102.709677 L110.129032,102.709677 C111.108892,102.709677 111.903226,101.915344 111.903226,100.935484 C111.903226,99.9556238 111.108892,99.1612903 110.129032,99.1612903 Z M16.0967742,84.9677419 C16.1025718,83.1815713 16.7854025,81.4640335 18.0075806,80.1614516 C18.488876,79.6419261 18.6151068,78.8859361 18.3287097,78.2382258 C17.3183044,75.9751369 18.025794,73.3137342 20.0266129,71.851129 C20.8105009,71.263213 20.9693676,70.1511461 20.3814516,69.3672581 C19.9057751,68.7546056 19.6468162,68.0014407 19.6451613,67.2258065 C19.6451613,65.2660864 21.2338283,63.6774194 23.1935484,63.6774194 C25.1532685,63.6774194 26.7419355,65.2660864 26.7419355,67.2258065 C26.7380498,67.9969756 26.4798695,68.7453243 26.0074194,69.3548387 C25.4195033,70.1387267 25.57837,71.2507937 26.3622581,71.8387097 C28.3642169,73.3006001 29.0713109,75.9632972 28.0583871,78.2258065 C27.7724559,78.8738618 27.899391,79.6298931 28.3812903,80.1490323 C30.0969682,81.967655 30.719691,84.5596355 30.0174241,86.9591689 C29.3151573,89.3587023 27.3932167,91.2059411 24.9677419,91.8125806 L24.9677419,86.7419355 C24.9677419,85.7620754 24.1734084,84.9677419 23.1935484,84.9677419 C22.2136883,84.9677419 21.4193548,85.7620754 21.4193548,86.7419355 L21.4193548,91.8125806 C18.2955586,91.0060441 16.108865,88.1939561 16.0967742,84.9677419 Z M88.8387097,17.5483871 L99.483871,17.5483871 L99.483871,19.3225806 L88.8387097,19.3225806 L88.8387097,17.5483871 Z M40.6303226,22.8709677 L105.111613,22.8709677 L111.534194,56.5806452 L34.2077419,56.5806452 L40.6303226,22.8709677 Z M53.3548387,99.1612903 L53.3548387,79.6451613 L62.2258065,79.6451613 L62.2258065,99.1612903 L53.3548387,99.1612903 Z M65.7741935,99.1612903 L65.7741935,77.8709677 C65.7741935,76.8911077 64.97986,76.0967742 64,76.0967742 L51.5806452,76.0967742 C50.6007851,76.0967742 49.8064516,76.8911077 49.8064516,77.8709677 L49.8064516,99.1612903 L44.483871,99.1612903 L44.483871,60.1290323 L101.258065,60.1290323 L101.258065,99.1612903 L65.7741935,99.1612903 Z M117.225806,99.1612903 L115.451613,99.1612903 C114.471753,99.1612903 113.677419,99.9556238 113.677419,100.935484 C113.677419,101.915344 114.471753,102.709677 115.451613,102.709677 L117.225806,102.709677 C118.205666,102.709677 119,101.915344 119,100.935484 C119,99.9556238 118.205666,99.1612903 117.225806,99.1612903 Z M94.1612903,76.0967742 L72.8709677,76.0967742 C71.8911077,76.0967742 71.0967742,76.8911077 71.0967742,77.8709677 L71.0967742,88.516129 C71.0967742,89.4959891 71.8911077,90.2903226 72.8709677,90.2903226 L94.1612903,90.2903226 C95.1411504,90.2903226 95.9354839,89.4959891 95.9354839,88.516129 L95.9354839,77.8709677 C95.9354839,76.8911077 95.1411504,76.0967742 94.1612903,76.0967742 Z M74.6451613,86.7419355 L74.6451613,79.6451613 L81.7419355,79.6451613 L81.7419355,86.7419355 L74.6451613,86.7419355 Z M92.3870968,86.7419355 L85.2903226,86.7419355 L85.2903226,79.6451613 L92.3870968,79.6451613 L92.3870968,86.7419355 Z M23.1935484,83.1935484 C24.1734084,83.1935484 24.9677419,82.3992149 24.9677419,81.4193548 L24.9677419,79.6451613 C24.9677419,78.6653013 24.1734084,77.8709677 23.1935484,77.8709677 C22.2136883,77.8709677 21.4193548,78.6653013 21.4193548,79.6451613 L21.4193548,81.4193548 C21.4193548,82.3992149 22.2136883,83.1935484 23.1935484,83.1935484 Z"/>
</svg>
