<svg xmlns="http://www.w3.org/2000/svg" width="128" height="128" viewBox="0 0 128 128">
  <g>
    <path class="fill-gray" fill-rule="nonzero" d="M103.129032,99.1612903 L97.8064516,99.1612903 L97.8064516,60.1290323 L106.677419,60.1290323 C107.205959,60.128842 107.706895,59.893014 108.043804,59.4857716 C108.380714,59.0785292 108.518514,58.5422811 108.419677,58.0230645 L101.322903,20.765 C101.163638,19.9283395 100.432329,19.3228872 99.5806452,19.3225806 L96.0322581,19.3225806 L96.0322581,15.7741935 C96.0322581,14.7943335 95.2379246,14 94.2580645,14 L80.0645161,14 C79.0846561,14 78.2903226,14.7943335 78.2903226,15.7741935 L78.2903226,19.3225806 L32.1612903,19.3225806 C31.3096062,19.3228872 30.5782972,19.9283395 30.4190323,20.765 L23.3222581,58.0230645 C23.223421,58.5422811 23.3612211,59.0785292 23.698131,59.4857716 C24.0350409,59.893014 24.5359761,60.128842 25.0645161,60.1290323 L33.9354839,60.1290323 L33.9354839,99.1612903 L25.7741935,99.1612903 C24.7943335,99.1612903 24,99.9556238 24,100.935484 C24,101.915344 24.7943335,102.709677 25.7741935,102.709677 L103.129032,102.709677 C104.108892,102.709677 104.903226,101.915344 104.903226,100.935484 C104.903226,99.9556238 104.108892,99.1612903 103.129032,99.1612903 Z M81.8387097,17.5483871 L92.483871,17.5483871 L92.483871,19.3225806 L81.8387097,19.3225806 L81.8387097,17.5483871 Z M33.6303226,22.8709677 L98.1116129,22.8709677 L104.534194,56.5806452 L94.3757969,56.5806452 L94.3757969,99.0775965 L37.4788764,99.0775965 L37.4788764,56.5806452 L27.2077419,56.5806452 L33.6303226,22.8709677 Z M110.225806,99.1612903 L108.451613,99.1612903 C107.471753,99.1612903 106.677419,99.9556238 106.677419,100.935484 C106.677419,101.915344 107.471753,102.709677 108.451613,102.709677 L110.225806,102.709677 C111.205666,102.709677 112,101.915344 112,100.935484 C112,99.9556238 111.205666,99.1612903 110.225806,99.1612903 Z"/>
    <path class="fill-gray" fill-rule="nonzero" d="M66.5893555,64.1113281 L66.5893555,63.2104492 C66.5893555,62.1293945 66.7995605,61.2685547 67.2199707,60.6279297 C67.6403809,59.9873047 68.4711914,59.1798503 69.7124023,58.2055664 C71.1671549,57.0711263 72.1914876,56.1502279 72.7854004,55.4428711 C73.3793132,54.7355143 73.8230794,53.9914551 74.1166992,53.2106934 C74.410319,52.4299316 74.5571289,51.5390625 74.5571289,50.5380859 C74.5571289,48.2825521 73.7897135,46.5141602 72.2548828,45.2329102 C70.7200521,43.9516602 68.644694,43.3110352 66.0288086,43.3110352 C62.9324544,43.3110352 60.0296224,44.0651042 57.3203125,45.5732422 L57.3203125,45.5732422 L59.0019531,49.0966797 C60.0296224,48.5895182 61.0839844,48.1557617 62.1650391,47.7954102 C63.2460938,47.4350586 64.4205729,47.2548828 65.6884766,47.2548828 C67.0898438,47.2548828 68.1642253,47.5551758 68.9116211,48.1557617 C69.6590169,48.7563477 70.0327148,49.6171875 70.0327148,50.7382812 C70.0327148,51.6992188 69.8024902,52.5266927 69.342041,53.2207031 C68.8815918,53.9147135 67.8572591,54.8889974 66.269043,56.1435547 C64.9344076,57.1845703 64.0001628,58.1922201 63.4663086,59.1665039 C62.9324544,60.1407878 62.6655273,61.3619792 62.6655273,62.8300781 L62.6655273,62.8300781 L62.6655273,64.1113281 L66.5893555,64.1113281 Z M64.7875977,73.5805664 C65.7351888,73.5805664 66.4659017,73.3036296 66.9797363,72.7497559 C67.493571,72.1958822 67.7504883,71.4451497 67.7504883,70.4975586 C67.7504883,69.5366211 67.4969076,68.7925618 66.9897461,68.2653809 C66.4825846,67.7381999 65.7485352,67.4746094 64.7875977,67.4746094 C62.8256836,67.4746094 61.8447266,68.4822591 61.8447266,70.4975586 C61.8447266,71.4718424 62.0983073,72.229248 62.6054688,72.7697754 C63.1126302,73.3103027 63.8400065,73.5805664 64.7875977,73.5805664 Z"/>
  </g>
</svg>
