<svg xmlns="http://www.w3.org/2000/svg" xmlns:xlink="http://www.w3.org/1999/xlink" width="128" height="128" viewBox="0 0 128 128">
  <defs>
    <path id="evm-a" d="M103.380392,18.3125 L115.666055,43 L114.810229,42.9993333 C116.193357,44.4295636 117,46.1495659 117,48 C117,52.9705627 111.179702,57 104,57 C96.8202983,57 91,52.9705627 91,48 C91,46.1495659 91.806643,44.4295636 93.189771,42.9993333 L87.810229,42.9993333 C89.193357,44.4295636 90,46.1495659 90,48 C90,52.9705627 84.1797017,57 77,57 C69.8202983,57 64,52.9705627 64,48 C64,46.1495659 64.806643,44.4295636 66.189771,42.9993333 L61.810229,42.9993333 C63.193357,44.4295636 64,46.1495659 64,48 C64,52.9705627 58.1797017,57 51,57 C43.8202983,57 38,52.9705627 38,48 C38,46.1495659 38.806643,44.4295636 40.189771,42.9993333 L34.810229,42.9993333 C36.193357,44.4295636 37,46.1495659 37,48 C37,52.9705627 31.1797017,57 24,57 C16.8202983,57 11,52.9705627 11,48 C11,46.1495659 11.806643,44.4295636 13.189771,42.9993333 L12.3337305,43 L24.4999023,18.3125 L103.380392,18.3125 Z"/>
  </defs>
  <g>
    <use fill="#DCF1FF" xlink:href="#evm-a"/>
    <use class="fill-primary" xlink:href="#evm-a"/>
    <path class="fill-gray" fill-rule="nonzero" d="M113.944297,104.364622 L112.11125,104.364622 L112.11125,56.4203807 C116.25043,53.7491144 119,49.0911518 119,43.7981789 C119,43.5169817 118.926738,43.2405249 118.787734,42.9963896 L106.001738,20.5549088 C105.103691,18.9791267 103.42168,18 101.612051,18 L26.3879492,18 C24.5783203,18 22.8963086,18.9789112 21.9982617,20.5549088 L9.21226563,42.9963896 C9.07326172,43.2405249 9,43.5171971 9,43.7981789 C9,49.0911518 11.7495703,53.7491144 15.88875,56.4203807 L15.88875,104.364622 L14.0557031,104.364622 C13.1658203,104.364622 12.444375,105.088193 12.444375,105.980698 C12.444375,106.873203 13.1658203,107.596774 14.0557031,107.596774 L113.944297,107.596774 C114.834395,107.596774 115.555625,106.873203 115.555625,105.980698 C115.555625,105.088193 114.83418,104.364622 113.944297,104.364622 Z M12.3337305,45.4142552 L17.4994336,45.4142552 C18.3893164,45.4142552 19.1107617,44.690684 19.1107617,43.7981789 C19.1107617,42.9056739 18.3893164,42.1821027 17.4994336,42.1821027 L13.3879687,42.1821027 L24.7963867,22.1584873 C25.1220898,21.5870428 25.7318164,21.2321524 26.3879492,21.2321524 L101.612051,21.2321524 C102.268184,21.2321524 102.878125,21.5870428 103.203613,22.1584873 L114.611816,42.1821027 L110.499492,42.1821027 C109.609395,42.1821027 108.888164,42.9056739 108.888164,43.7981789 C108.888164,44.690684 109.609395,45.4142552 110.499492,45.4142552 L115.666055,45.4142552 C114.878223,51.1424912 109.96582,55.5686008 104.041289,55.5686008 C98.1169727,55.5686008 93.2069336,51.1420602 92.4188867,45.4142552 L103.611387,45.4142552 C104.501484,45.4142552 105.222715,44.690684 105.222715,43.7981789 C105.222715,42.9056739 104.501484,42.1821027 103.611387,42.1821027 L24.3894727,42.1821027 C23.4995898,42.1821027 22.7781445,42.9056739 22.7781445,43.7981789 C22.7781445,44.690684 23.4995898,45.4142552 24.3894727,45.4142552 L35.5808984,45.4142552 C34.7928516,51.1420602 29.8825977,55.5686008 23.9584961,55.5686008 C18.0339648,55.5686008 13.1215625,51.1424912 12.3337305,45.4142552 Z M88.9695703,45.4142552 C88.1815234,51.1420602 83.2712695,55.5686008 77.347168,55.5686008 C71.4228516,55.5686008 66.5128125,51.1420602 65.7247656,45.4142552 L88.9695703,45.4142552 Z M62.2752344,45.4142552 C61.4871875,51.1420602 56.5769336,55.5686008 50.652832,55.5686008 C44.7287305,55.5686008 39.8184766,51.1420602 39.0304297,45.4142552 L62.2752344,45.4142552 Z M100.277227,104.364837 L82.833418,104.364837 L82.833418,98.9604629 L100.277227,98.9604629 L100.277227,104.364837 Z M100.277227,95.7283104 L82.833418,95.7283104 L82.833418,66.1418333 L100.277227,66.1418333 L100.277227,95.7283104 Z M108.888594,104.364837 L103.500098,104.364837 L103.500098,64.5257571 C103.500098,63.6332521 102.778867,62.9096809 101.88877,62.9096809 L81.2223047,62.9096809 C80.332207,62.9096809 79.6109766,63.6332521 79.6109766,64.5257571 L79.6109766,104.364837 L19.1114063,104.364837 L19.1114063,57.9877591 C20.6327148,58.5120143 22.2620898,58.8007532 23.9584961,58.8007532 C29.7796875,58.8007532 34.8347461,55.4487956 37.3056641,50.56803 C39.776582,55.4485802 44.8316406,58.8007532 50.652832,58.8007532 C56.4740234,58.8007532 61.529082,55.4487956 64,50.56803 C66.470918,55.4485802 71.5259766,58.8007532 77.347168,58.8007532 C83.1683594,58.8007532 88.223418,55.4487956 90.6943359,50.56803 C93.1652539,55.4485802 98.2203125,58.8007532 104.041504,58.8007532 C105.73791,58.8007532 107.367285,58.5120143 108.888594,57.9879746 L108.888594,104.364837 Z M72.6111523,62.9096809 L26.1112305,62.9096809 C25.2213477,62.9096809 24.4999023,63.6332521 24.4999023,64.5257571 L24.4999023,97.3443866 C24.4999023,98.2368917 25.2213477,98.9604629 26.1112305,98.9604629 L72.6111523,98.9604629 C73.50125,98.9604629 74.2224805,98.2368917 74.2224805,97.3443866 L74.2224805,64.5257571 C74.2224805,63.6330366 73.50125,62.9096809 72.6111523,62.9096809 Z M70.9998242,95.7283104 L27.7225586,95.7283104 L27.7225586,66.1418333 L70.9998242,66.1418333 L70.9998242,95.7283104 Z"/>
  </g>
</svg>
