<svg xmlns="http://www.w3.org/2000/svg" width="128" height="128" viewBox="0 0 128 128">
  <g>
    <path class="fill-primary" d="M104,50 L104,87 L24,87 L24,50 L104,50 Z M71,53 L57,53 L57,86 L71,86 L71,53 Z M47,53 L33,53 L33,86 L47,86 L47,53 Z M96,53 L82,53 L82,86 L96,86 L96,53 Z"/>
    <path class="fill-gray" fill-rule="nonzero" d="M107.422587,23.7921084 L104.661853,23.7921084 L104.661853,17.2557615 C104.661853,17.2557615 107.416279,17.2557615 107.422587,17.2557615 C109.454445,17.2557615 109.459071,14.1013569 107.422587,14.1013569 L65.5773074,14.1013569 L65.5773074,11.5772023 C65.5773074,10.706166 64.8711414,10 64.0001051,10 L24.9151395,10 C24.0441032,10 23.3379372,10.706166 23.3379372,11.5772023 L23.3379372,23.7921084 L20.5772023,23.7921084 C19.706166,23.7921084 19,24.4982744 19,25.3693107 L19,33.1701533 C19,34.0411895 19.706166,34.7473556 20.5772023,34.7473556 L23.3377269,34.7473556 L23.3377269,116.093141 C23.3377269,116.964178 24.043893,117.670344 24.9149292,117.670344 L103.08486,117.670344 C103.956107,117.670344 104.662063,116.964178 104.662063,116.093141 L104.662063,34.7475659 L107.422798,34.7475659 C108.294044,34.7475659 109,34.0413998 109,33.1703636 L109,25.3693107 C109,24.4982744 108.293834,23.7921084 107.422587,23.7921084 Z M96.8452379,17.2557615 L101.507868,17.2557615 L101.507868,23.7921084 L96.8452379,23.7921084 L96.8452379,17.2557615 Z M89.0282027,17.2557615 L93.6908333,17.2557615 L93.6908333,23.7921084 L89.0282027,23.7921084 L89.0282027,17.2557615 Z M81.2111675,17.2557615 L85.8737981,17.2557615 L85.8737981,23.7921084 L81.2111675,23.7921084 L81.2111675,17.2557615 Z M73.3941323,17.2557615 L78.0567629,17.2557615 L78.0567629,23.7921084 L73.3941323,23.7921084 L73.3941323,17.2557615 Z M65.5773074,17.2557615 L70.2397277,17.2557615 L70.2397277,23.7921084 L65.5773074,23.7921084 L65.5773074,17.2557615 Z M26.4923418,13.1544046 L62.4229028,13.1544046 L62.4229028,23.7921084 L48.6064004,23.7921084 L48.6064004,17.2044498 C48.6064004,16.3334136 47.9004447,15.6272475 47.0291981,15.6272475 L32.1505025,15.6272475 C31.2794662,15.6272475 30.5733002,16.3334136 30.5733002,17.2044498 L30.5733002,23.7923187 L26.4923418,23.7923187 L26.4923418,13.1544046 Z M45.4517855,18.7816521 L45.4517855,23.7921084 L33.7274945,23.7921084 L33.7274945,18.7816521 L45.4517855,18.7816521 Z M72.8515747,114.515939 L55.1486355,114.515939 L55.1486355,96.7448647 L72.851785,96.7448647 L72.851785,114.515939 L72.8515747,114.515939 Z M105.845806,31.5931613 C105.845806,31.5931613 50.0647868,31.5931613 50.0021193,31.5931613 C47.9723651,31.5931613 47.9654254,34.7475659 50.0021193,34.7475659 L101.507868,34.7475659 L101.507868,114.515939 L76.0059793,114.515939 L76.0059793,95.1676624 C76.0059793,94.2966262 75.3000236,93.5904601 74.428777,93.5904601 L53.571223,93.5904601 C52.6999764,93.5904601 51.9940207,94.2966262 51.9940207,95.1676624 L51.9940207,114.515939 L26.4923418,114.515939 L26.4923418,34.7475659 C26.4923418,34.7475659 43.6699675,34.7475659 43.6933101,34.7475659 C45.7205408,34.7475659 45.7306349,31.5931613 43.6933101,31.5931613 L22.1544046,31.5931613 L22.1544046,26.946513 L105.845806,26.946513 L105.845806,31.5931613 Z M95.8497078,39.8507616 L80.9710122,39.8507616 C80.0997656,39.8507616 79.3938099,40.5569277 79.3938099,41.4279639 L79.3938099,105.504226 C79.3938099,106.375262 80.0997656,107.081428 80.9710122,107.081428 L95.8497078,107.081428 C96.7209544,107.081428 97.4269101,106.375262 97.4269101,105.504226 L97.4269101,41.4279639 C97.4269101,40.5569277 96.7211647,39.8507616 95.8497078,39.8507616 Z M82.5484248,61.3126996 L94.2727158,61.3126996 L94.2727158,67.3119566 L82.5484248,67.3119566 L82.5484248,61.3126996 Z M94.2725055,103.927023 L82.5482145,103.927023 L82.5482145,97.9275562 L94.2725055,97.9275562 L94.2725055,103.927023 Z M94.2727158,94.7731516 L82.5484248,94.7731516 L82.5484248,88.7738946 L94.2727158,88.7738946 L94.2727158,94.7731516 Z M94.2727158,85.61949 L82.5484248,85.61949 L82.5484248,79.6202331 L94.2727158,79.6202331 L94.2727158,85.61949 Z M94.2727158,76.4658285 L82.5484248,76.4658285 L82.5484248,70.4663612 L94.2727158,70.4663612 L94.2727158,76.4658285 Z M94.2727158,58.158295 L82.5484248,58.158295 L82.5484248,52.1588278 L94.2727158,52.1588278 L94.2727158,58.158295 Z M94.2727158,49.0044232 L82.5484248,49.0044232 L82.5484248,43.0051662 L94.2727158,43.0051662 L94.2727158,49.0044232 Z M47.0289878,39.8507616 L32.1502922,39.8507616 C31.2792559,39.8507616 30.5730899,40.5569277 30.5730899,41.4279639 L30.5730899,105.504226 C30.5730899,106.375262 31.2792559,107.081428 32.1502922,107.081428 L47.0289878,107.081428 C47.9002344,107.081428 48.6061901,106.375262 48.6061901,105.504226 L48.6061901,41.4279639 C48.6061901,40.5569277 47.9000241,39.8507616 47.0289878,39.8507616 Z M45.4517855,103.927023 L33.7274945,103.927023 L33.7274945,97.9275562 L45.4517855,97.9275562 L45.4517855,103.927023 Z M45.4517855,94.7731516 L33.7274945,94.7731516 L33.7274945,88.7738946 L45.4517855,88.7738946 L45.4517855,94.7731516 Z M45.4517855,85.61949 L33.7274945,85.61949 L33.7274945,79.6202331 L45.4517855,79.6202331 L45.4517855,85.61949 Z M45.4517855,76.4658285 L33.7274945,76.4658285 L33.7274945,70.4663612 L45.4517855,70.4663612 L45.4517855,76.4658285 Z M45.4517855,67.3119566 L33.7274945,67.3119566 L33.7274945,61.3126996 L45.4517855,61.3126996 L45.4517855,67.3119566 Z M45.4517855,58.158295 L33.7274945,58.158295 L33.7274945,52.1588278 L45.4517855,52.1588278 L45.4517855,58.158295 Z M45.4517855,49.0044232 L33.7274945,49.0044232 L33.7274945,43.0051662 L45.4517855,43.0051662 L45.4517855,49.0044232 Z M71.439453,39.8507616 L56.5609676,39.8507616 C55.6897211,39.8507616 54.9837653,40.5569277 54.9837653,41.4279639 L54.9837653,87.1966923 C54.9837653,88.0677286 55.6897211,88.7738946 56.5609676,88.7738946 L71.439453,88.7738946 C72.3106995,88.7738946 73.0166553,88.0677286 73.0166553,87.1966923 L73.0166553,41.4279639 C73.0166553,40.5569277 72.3106995,39.8507616 71.439453,39.8507616 Z M58.1379596,43.0051662 L69.8620404,43.0051662 L69.8620404,49.0044232 L58.1379596,49.0044232 L58.1379596,43.0051662 L58.1379596,43.0051662 Z M58.1379596,52.1588278 L69.8620404,52.1588278 L69.8620404,58.158295 L58.1379596,58.158295 L58.1379596,52.1588278 L58.1379596,52.1588278 Z M58.1379596,70.4663612 L69.8620404,70.4663612 L69.8620404,76.4658285 L58.1379596,76.4658285 L58.1379596,70.4663612 L58.1379596,70.4663612 Z M69.8622507,85.61949 L58.1381699,85.61949 L58.1381699,85.61949 L58.1381699,79.6202331 L69.8622507,79.6202331 L69.8622507,85.61949 Z M69.8622507,67.3119566 L58.1381699,67.3119566 L58.1381699,61.3126996 L69.8622507,61.3126996 L69.8622507,67.3119566 Z"/>
  </g>
</svg>
