<svg xmlns="http://www.w3.org/2000/svg" width="128" height="128" viewBox="0 0 128 128">
  <path class="fill-gray" d="M102.666382,79.6668702 L101.333374,79.6668702 L101.333374,78.3332519 C101.333374,77.597168 100.73645,77.0002441 99.9997559,77.0002441 C99.2636719,77.0002441 98.6667481,77.597168 98.6667481,78.3332519 L98.6667481,79.6668702 L96.000122,79.6668702 L96.000122,78.3332519 C95.9976806,76.125 94.2081298,74.3360595 91.999878,74.3336181 L78.6667481,74.3336181 C76.4584961,74.3360595 74.6689453,76.125 74.6665039,78.3332519 L74.6665039,79.6668702 L71.999878,79.6668702 L71.999878,78.3332519 C71.999878,77.597168 71.4029541,77.0002441 70.6668702,77.0002441 C69.9301758,77.0002441 69.3332519,77.597168 69.3332519,78.3332519 L69.3332519,79.6668702 L68.0002441,79.6668702 C67.2635498,79.6668702 66.6666259,80.2637939 66.6666259,80.999878 C66.6666259,81.7365722 67.2635498,82.3334961 68.0002441,82.3334961 L69.3332519,82.3334961 L69.3332519,83.6665039 C69.3332519,84.4031983 69.9301758,85.000122 70.6668702,85.000122 C71.4029541,85.000122 71.999878,84.4031983 71.999878,83.6665039 L71.999878,82.3334961 L74.6665039,82.3334961 L74.6665039,100.999878 C74.668335,102.472046 75.8615722,103.664673 77.3331298,103.666504 L88.0002441,103.666504 C89.4718017,103.664673 90.6650391,102.472046 90.6668702,100.999878 L90.6668702,99.6668702 L93.3334961,99.6668702 C94.8056641,99.6650391 95.9982909,98.4718017 96.000122,97.0002441 L96.000122,82.3334961 L98.6667481,82.3334961 L98.6667481,83.6665039 C98.6667481,84.4031983 99.2636719,85.000122 99.9997559,85.000122 C100.73645,85.000122 101.333374,84.4031983 101.333374,83.6665039 L101.333374,82.3334961 L102.666382,82.3334961 C103.403076,82.3334961 104,81.7365722 104,80.999878 C104,80.2637939 103.403076,79.6668702 102.666382,79.6668702 L102.666382,79.6668702 Z M90.6668702,78.3332519 C90.6668702,77.597168 91.2637939,77.0002441 91.999878,77.0002441 C92.7365722,77.0002441 93.3334961,77.597168 93.3334961,78.3332519 L93.3334961,79.6668702 L90.6668702,79.6668702 L90.6668702,78.3332519 Z M88.0002441,100.999878 L77.3331298,100.999878 L77.3331298,78.3332519 C77.3337403,77.597168 77.9306641,77.0008545 78.6667481,77.0002441 L88.2456055,77.0002441 C88.0875244,77.4268798 88.0045166,77.8779297 88.0002441,78.3332519 L88.0002441,100.999878 Z M44,33 C54.2935791,33 62.6663819,42.5703125 62.6663819,54.3336181 C62.8269044,61.7902831 59.1934814,68.8190919 53.0167236,73 L53.0167236,73 L62.6663819,73 C63.4030763,73 64,73.5969238 64,74.3336181 L64,74.3336181 L64,75.6666259 C63.9902344,82.9645997 58.1198731,88.9008789 50.8225097,88.9924316 L50.8225097,88.9924316 L53.3255616,111.519898 C53.3670655,111.897095 53.2462158,112.273682 52.9935303,112.556274 C52.7402344,112.838867 52.3789063,113 51.999878,113 L51.999878,113 L36.000122,113 C35.6210938,113 35.2597656,112.838867 35.0064697,112.556274 C34.7537842,112.273682 34.6329345,111.897095 34.6744384,111.519898 L34.6744384,111.519898 L37.1774903,88.9924316 C31.6318359,88.9191894 26.7099609,85.4230956 24.8148194,80.2113038 C24.803833,80.1868897 24.7971191,80.1630859 24.7879639,80.1380616 C24.2697753,78.7043456 24.0030518,77.1912842 24,75.6666259 L24,75.6666259 L24,74.3336181 C24,73.5969238 24.5969238,73 25.3336181,73 L25.3336181,73 L34.9832764,73 C28.8065186,68.8190919 25.1730956,61.7902831 25.3336181,54.3336181 C25.3336181,42.5703125 33.7064209,33 44,33 Z M48.1394044,88.9997559 L39.8605956,88.9997559 L37.4893798,110.333374 L50.5106202,110.333374 L48.1394044,88.9997559 Z M93.3334961,82.3334961 L93.3334961,97.0002441 L90.6668702,97.0002441 L90.6668702,82.3334961 L93.3334961,82.3334961 Z M61.3333741,75.6666259 L26.6666259,75.6666259 C26.6702881,76.5668945 26.7880859,77.4628906 27.0175781,78.3332519 L27.0175781,78.3332519 L33.3334961,78.3332519 C34.06958,78.3332519 34.6665039,78.9301758 34.6665039,79.6668702 C34.6665039,80.4029541 34.06958,80.999878 33.3334961,80.999878 L33.3334961,80.999878 L28.1101075,80.999878 C30.0125733,84.2963867 33.5275878,86.3288575 37.3331298,86.3331298 L37.3331298,86.3331298 L50.6668702,86.3331298 C56.5549316,86.3264159 61.3266602,81.5546875 61.3333741,75.6666259 L61.3333741,75.6666259 Z M44,35.6666259 C35.1773681,35.6666259 28.0002441,44.0400391 28.0002441,54.3336181 C28.0002441,62.4421387 32.4625244,69.340332 38.6667481,71.9111328 L38.6667481,71.9111328 L38.6667481,66.3331298 C38.6691894,64.1254883 40.4587403,62.3359375 42.6663819,62.3334961 L42.6663819,62.3334961 L44,62.3334961 C46.2082519,62.3359375 47.9978028,64.1254883 48.0002441,66.3331298 C48.0002441,67.0698242 47.4033203,67.6667481 46.6666259,67.6667481 C45.930542,67.6667481 45.3336181,67.0698242 45.3336181,66.3331298 C45.3323975,65.5970459 44.7360841,65.0007325 44,65.000122 L44,65.000122 L42.6663819,65.000122 C41.9302978,65.0007325 41.3339844,65.5970459 41.3333741,66.3331298 L41.3333741,66.3331298 L41.3333741,72.7192383 C42.2110595,72.899292 43.1040039,72.9932861 44,73 C52.8226319,73 59.9997559,64.6265869 59.9997559,54.3336181 C59.9997559,44.0400391 52.8226319,35.6666259 44,35.6666259 Z M101.333374,33 C102.805542,33.0018311 103.998169,34.194458 104,35.6666259 L104,35.6666259 L104,67.6667481 C103.998169,69.1389159 102.805542,70.331543 101.333374,70.3333741 L101.333374,70.3333741 L71.999878,70.3333741 C70.52771,70.331543 69.335083,69.1389159 69.3332519,67.6667481 L69.3332519,67.6667481 L69.3332519,35.6666259 C69.335083,34.194458 70.52771,33.0018311 71.999878,33 L71.999878,33 Z M101.334595,62.3334961 L71.999878,62.3334961 L71.999878,67.6667481 L101.334595,67.6667481 L101.334595,62.3334961 Z M101.333374,35.6666259 L88.0002441,35.6666259 L88.0002441,59.6668702 L101.333984,59.6668702 L101.333374,35.6666259 Z M85.3336181,35.6666259 L71.999878,35.6666259 L71.999878,59.6668702 L85.3336181,59.6668702 L85.3336181,35.6666259 Z M48.3542481,39.6937256 C48.8199463,39.8157959 49.1843263,40.1795655 49.3063966,40.6458741 C49.4162598,41.0655518 49.3145263,41.50896 49.0403515,41.8377203 L48.9426269,41.9428711 L34.2758789,56.6096191 C33.9414063,56.9556884 33.4458008,57.0948486 32.9794922,56.9727783 C32.5131836,56.850708 32.1488038,56.4869384 32.0273438,56.0206298 C31.9174805,55.6009521 32.0187195,55.1575439 32.2927954,54.8292285 L32.390503,54.7242431 L47.0572509,40.0574952 C47.3923341,39.7108155 47.8879394,39.5716553 48.3542481,39.6937256 Z M82.6663819,46.3331298 C83.4030762,46.3331298 84,46.9300538 84,47.6667481 C84,48.359533 83.4712371,48.9290481 82.7948428,48.9936527 L82.6663819,48.9997559 L81.3333741,48.9997559 C80.5966797,48.9997559 79.9997559,48.402832 79.9997559,47.6667481 C79.9997559,46.9733887 80.5285188,46.4038398 81.2049131,46.3392332 L81.3333741,46.3331298 L82.6663819,46.3331298 Z M91.999878,46.3331298 C92.7365722,46.3331298 93.3334961,46.9300538 93.3334961,47.6667481 C93.3334961,48.359533 92.804733,48.9290481 92.1283389,48.9936527 L91.999878,48.9997559 L90.6668702,48.9997559 C89.9301758,48.9997559 89.3332519,48.402832 89.3332519,47.6667481 C89.3332519,46.9733887 89.8620149,46.4038398 90.5384092,46.3392332 L90.6668702,46.3331298 L91.999878,46.3331298 Z M40.3537597,39.6937256 C40.8200684,39.8157959 41.1844483,40.1795655 41.3065186,40.6458741 C41.4158325,41.0655518 41.3145386,41.50896 41.0404572,41.8377203 L40.9427491,41.9428711 L35.609497,47.2761231 C35.3598633,47.5263672 35.0205078,47.6673584 34.6665039,47.6667501 C34.1275634,47.6667501 33.6417236,47.3414306 33.4348144,46.8433838 C33.2472701,46.3906139 33.3245477,45.8758001 33.6267519,45.4993355 L33.7241211,45.390747 L39.0573731,40.0574952 C39.3918456,39.7108155 39.8880616,39.5716553 40.3537597,39.6937256 Z"/>
</svg>
