<svg xmlns="http://www.w3.org/2000/svg" width="128" height="128" viewBox="0 0 128 128">
  <g>
    <path class="fill-primary" d="M64.2468964,106.5 C72.0911512,106.5 76.679907,99.7611728 76.679907,90.2934342 C76.679907,85.3127923 71.4495704,76.3742083 67.2620931,81.8826026 C66.3222014,83.1189781 64.7897768,79.3247772 62.6648194,70.5 C55.7504822,79.6701759 51.5434146,85.9558902 50.0436166,89.3571429 C47.7939197,94.4590218 56.4026416,106.5 64.2468964,106.5 Z"/>
    <path class="fill-gray" fill-rule="nonzero" d="M101.457031,57.9311472 C102.309213,57.9311472 103,57.2359817 103,56.3787454 L103,45.1092402 C103,44.2520039 102.309213,43.5568384 101.457031,43.5568384 L87.2788457,43.5568384 L83.9619258,35.9300439 C83.7162852,35.3649697 83.1612793,35 82.5484121,35 L44.4515879,35 C43.8385664,35 43.2837148,35.3651249 43.0380742,35.9300439 L39.7211543,43.5568384 L25.5429688,43.5568384 C24.6907871,43.5568384 24,44.2520039 24,45.1092402 L24,56.3787454 C24,57.2359817 24.6907871,57.9311472 25.5429688,57.9311472 L28.1655527,57.9311472 L28.1655527,94.2095341 L25.5429688,94.2095341 C24.6907871,94.2095341 24,94.9045443 24,95.7619358 L24,104.547598 C24,105.404834 24.6907871,106.1 25.5429688,106.1 L101.457031,106.1 C102.309213,106.1 103,105.404834 103,104.547598 L103,95.7619358 C103,94.9045443 102.309213,94.2095341 101.457031,94.2095341 L98.8344473,94.2095341 L98.8344473,57.9311472 L101.457031,57.9311472 Z M45.4606895,38.1048035 L81.5391562,38.1048035 L83.9102363,43.5568384 L43.0896094,43.5568384 L45.4606895,38.1048035 Z M45.7910391,102.995197 L27.0859375,102.995197 L27.0859375,97.3143376 L45.7910391,97.3143376 L45.7910391,102.995197 Z M89.0529512,81.7903201 L89.0529512,72.4759096 L95.7483555,72.4759096 L95.7483555,81.7903201 L89.0529512,81.7903201 Z M95.7483555,84.8951236 L95.7483555,94.2095341 L89.0529512,94.2095341 L89.0529512,84.8951236 L95.7483555,84.8951236 Z M89.0531055,69.3711061 L89.0531055,64.0986841 C89.0531055,63.2412926 88.3623184,62.5462823 87.5101367,62.5462823 L39.4900176,62.5462823 C38.6378359,62.5462823 37.9470488,63.2412926 37.9470488,64.0986841 L37.9470488,69.3711061 L31.2514902,69.3711061 L31.2514902,57.9313024 L95.7485098,57.9313024 L95.7485098,69.3711061 L89.0531055,69.3711061 Z M37.9470488,72.4759096 L37.9470488,81.7903201 L31.2514902,81.7903201 L31.2514902,72.4759096 L37.9470488,72.4759096 Z M37.9470488,84.8951236 L37.9470488,94.2095341 L31.2514902,94.2095341 L31.2514902,84.8951236 L37.9470488,84.8951236 Z M78.1230234,95.7619358 L78.1230234,102.995197 L72.2330488,102.995197 C74.5081562,101.132625 76.1896836,98.5370092 76.9113301,95.4913522 C77.020418,95.0310651 77.1131504,94.6052413 77.190916,94.2095341 L74.0377051,94.2095341 C73.9988223,94.3861974 73.9565449,94.5723303 73.9093301,94.771193 C73.3722227,97.0384758 72.1491113,98.9853428 70.4896484,100.41495 C70.5931816,99.9284269 70.6488828,99.424362 70.6488828,98.907257 C70.6488828,97.4821522 69.8473105,95.7920524 68.8196934,94.2095341 L64.9976055,94.2095341 C66.3865859,95.9854817 67.5629453,97.864664 67.5629453,98.907257 C67.5629453,101.159637 65.743168,102.992092 63.5052461,102.995197 C63.4833359,102.995197 63.4617344,102.993799 63.4399785,102.993644 C61.2270527,102.961199 59.4365918,101.141163 59.4365918,98.907257 C59.4365918,97.8669926 60.6140312,95.9870341 62.0037832,94.2095341 L58.1798437,94.2095341 C57.1522266,95.7920524 56.3506543,97.4821522 56.3506543,98.907257 C56.3506543,99.412719 56.4032695,99.9057618 56.5023281,100.382039 C54.8558262,98.949948 53.6419727,97.0060306 53.1071797,94.744026 C53.0625879,94.5554092 53.0224707,94.3787459 52.9851309,94.2095341 L49.8308398,94.2095341 C49.9081426,94.5976345 49.9991777,95.0141439 50.1051797,95.4623223 C50.8282148,98.5210194 52.5145254,101.127036 54.795959,102.995197 L48.8768223,102.995197 L48.8768223,95.7619358 C48.8768223,94.9045443 48.1860352,94.2096893 47.3340078,94.2095341 L41.0329863,94.2095341 L41.0329863,94.2095341 L47.3338535,94.2095341 C47.3338535,94.2095341 47.3338535,94.2095341 47.3338535,94.2095341 L41.0329863,94.2095341 L41.0329863,65.6510858 L85.967168,65.6510858 L85.967168,94.2095341 L85.967168,94.2095341 L77.190916,94.2095341 L77.190916,94.2095341 L79.6659922,94.2095341 C78.8138105,94.2095341 78.1230234,94.9045443 78.1230234,95.7619358 Z M99.9140625,97.3143376 L99.9140625,102.995197 L81.2089609,102.995197 L81.2089609,97.3143376 L99.9140625,97.3143376 Z M62.3682324,70.3067386 C62.965207,70.3067386 63.5084863,70.6530795 63.7633848,71.1961096 L63.7633848,71.1961096 L67.6863828,79.5502044 L69.5464316,76.5700587 C69.8338867,76.1097716 70.3436836,75.834686 70.8795566,75.8432242 C71.41975,75.8526939 71.9158145,76.1454769 72.1872227,76.6153889 L72.1872227,76.6153889 L73.8212266,79.4438648 C75.5940977,82.5128079 77.488709,87.2935843 77.488709,91.5071131 L77.488709,91.5071131 L77.488709,91.7621727 C77.488709,92.3877906 77.3904219,93.1958157 77.1910703,94.2095341 L77.1910703,94.2095341 L74.0378594,94.2095341 C74.3351895,92.8580131 74.4026172,92.1364568 74.4026172,91.7620175 L74.4026172,91.7620175 L74.4026172,91.5069579 C74.4026172,87.9103535 72.7240215,83.7233707 71.153125,81.0040286 L71.153125,81.0040286 L70.8020996,80.3964186 L68.8014863,83.6018177 C68.5016875,84.082286 67.9653516,84.3601659 67.4027852,84.3260131 C66.8400645,84.2921707 66.3406055,83.95235 66.099748,83.4394365 L66.099748,83.4394365 L62.020293,74.7521963 L55.8306738,82.5550332 C55.8263535,82.5603114 55.8218789,82.5657448 55.8175586,82.5710229 C53.740877,85.118359 52.5970742,88.3354011 52.5970742,91.6297528 C52.5970742,92.0195609 52.668668,92.7779092 52.9852852,94.2095341 L52.9852852,94.2095341 L49.8308398,94.2095341 C49.6165215,93.1334092 49.5111367,92.2823825 49.5111367,91.6297528 C49.5111367,87.6230039 50.9008887,83.7101753 53.4247227,80.61065 L53.4247227,80.61065 L61.1352461,70.8907522 C61.4281016,70.5217463 61.8718594,70.3067386 62.3412305,70.3067386 L62.3412305,70.3067386 Z M62.4098926,89.0633223 C63.0121133,88.4585066 63.9877324,88.4585066 64.5899531,89.0633223 C65.1988086,89.6746581 67.2676211,91.8191459 68.8198477,94.2095341 L68.8198477,94.2095341 L64.9977598,94.2095341 C64.5109531,93.587021 63.9982246,92.9772376 63.5004629,92.4205463 C63.0030098,92.9772376 62.4905898,93.5871762 62.0039375,94.2095341 L62.0039375,94.2095341 L58.179998,94.2095341 C59.7322246,91.8191459 61.8010371,89.6746581 62.4098926,89.0633223 Z M99.9140625,46.6616419 L99.9140625,54.8263437 L27.0859375,54.8263437 L27.0859375,52.2963945 L87.1446074,52.2965498 C87.9967891,52.2965498 88.6875762,51.6013843 88.6875762,50.744148 C88.6875762,49.8869118 87.9967891,49.1917463 87.1446074,49.1917463 L27.0859375,49.191591 L27.0859375,46.6616419 L99.9140625,46.6616419 Z"/>
  </g>
</svg>
