<svg xmlns="http://www.w3.org/2000/svg" width="128" height="128" viewBox="0 0 128 128">
  <g>
    <polygon class="fill-primary" points="14 24 64 18 114 24 114 33 14 33"/>
    <path class="fill-gray" fill-rule="nonzero" d="M112.333333,34.6666667 C113.253808,34.6666667 114,33.9204746 114,33 L114,24.6666667 C113.992869,23.8119361 113.34926,23.096815 112.5,23 L64.1666667,18 L63.8333333,18 L15.5,23 C14.6507403,23.096815 14.0071313,23.8119361 14,24.6666667 L14,33 C14,33.9204746 14.7461921,34.6666667 15.6666667,34.6666667 L17.3333333,34.6666667 L17.3333333,109.666667 L15.6666667,109.666667 C14.7461921,109.666667 14,110.412859 14,111.333333 L14,116.333333 C14,117.253808 14.7461921,118 15.6666667,118 L112.333333,118 C113.253808,118 114,117.253808 114,116.333333 L114,111.333333 C114,110.412859 113.253808,109.666667 112.333333,109.666667 L110.666667,109.666667 L110.666667,34.6666667 L112.333333,34.6666667 Z M110.666667,114.666667 L17.3333333,114.666667 L17.3333333,113 L110.666667,113 L110.666667,114.666667 Z M104,39.6666667 L24,39.6666667 C23.0795254,39.6666667 22.3333333,40.4128588 22.3333333,41.3333333 L22.3333333,109.666667 L20.6666667,109.666667 L20.6666667,34.6666667 L107.333333,34.6666667 L107.333333,109.666667 L105.666667,109.666667 L105.666667,41.3333333 C105.666667,40.4128588 104.920475,39.6666667 104,39.6666667 Z M97.3333333,59.6666667 L80.6666667,59.6666667 C79.7461921,59.6666667 79,60.4128588 79,61.3333333 L79,76.3333333 L64,76.3333333 C63.0795254,76.3333333 62.3333333,77.0795254 62.3333333,78 L62.3333333,109.666667 L49,109.666667 L49,78 C49,77.0795254 48.2538079,76.3333333 47.3333333,76.3333333 L30.6666667,76.3333333 C29.7461921,76.3333333 29,77.0795254 29,78 L29,109.666667 L25.6666667,109.666667 L25.6666667,56.3333333 L102.333333,56.3333333 L102.333333,109.666667 L99,109.666667 L99,61.3333333 C99,60.4128588 98.2538079,59.6666667 97.3333333,59.6666667 Z M90.6666667,98 L90.6666667,96.3333333 L95.6666667,96.3333333 L95.6666667,109.666667 L82.3333333,109.666667 L82.3333333,96.3333333 L87.3333333,96.3333333 L87.3333333,98 L90.6666667,98 Z M82.3333333,93 L82.3333333,79.6666667 L87.3333333,79.6666667 L87.3333333,81.3333333 L90.6666667,81.3333333 L90.6666667,79.6666667 L95.6666667,79.6666667 L95.6666667,93 L82.3333333,93 Z M82.3333333,76.3333333 L82.3333333,63 L87.3333333,63 L87.3333333,64.6666667 L90.6666667,64.6666667 L90.6666667,63 L95.6666667,63 L95.6666667,76.3333333 L82.3333333,76.3333333 Z M74,98 L74,96.3333333 L79,96.3333333 L79,109.666667 L65.6666667,109.666667 L65.6666667,96.3333333 L70.6666667,96.3333333 L70.6666667,98 L74,98 Z M65.6666667,93 L65.6666667,79.6666667 L70.6666667,79.6666667 L70.6666667,81.3333333 L74,81.3333333 L74,79.6666667 L79,79.6666667 L79,93 L65.6666667,93 Z M34.6833333,93 L39.1333333,88.55 L43.7166667,93 L34.6833333,93 Z M43.3166667,96.3333333 L39.1,100.533333 L34.7833333,96.3333333 L43.3166667,96.3333333 Z M39.1,83.8666667 L34.7833333,79.6666667 L43.3166667,79.6666667 L39.1,83.8666667 Z M36.75,86.2333333 L32.3333333,90.65 L32.3333333,81.9333333 L36.75,86.2333333 Z M36.75,102.9 L32.3333333,107.316667 L32.3333333,98.6 L36.75,102.9 Z M39.1333333,105.216667 L43.7166667,109.666667 L34.6833333,109.666667 L39.1333333,105.216667 Z M41.5,102.866667 L45.6666667,98.6833333 L45.6666667,106.9 L41.5,102.866667 Z M41.5,86.2 L45.6666667,82.0166667 L45.6666667,90.2333333 L41.5,86.2 Z M25.6666667,53 L25.6666667,49.6666667 L102.333333,49.6666667 L102.333333,53 L25.6666667,53 Z M25.6666667,46.3333333 L25.6666667,43 L102.333333,43 L102.333333,46.3333333 L25.6666667,46.3333333 Z M17.3333333,31.3333333 L17.3333333,26.1666667 L64,21.3333333 L110.666667,26.1666667 L110.666667,31.3333333 L17.3333333,31.3333333 Z M69,88 L72.3333333,88 L72.3333333,91.3333333 L69,91.3333333 L69,88 Z M69,104.666667 L72.3333333,104.666667 L72.3333333,108 L69,108 L69,104.666667 Z M84,88 L87.3333333,88 L87.3333333,91.3333333 L84,91.3333333 L84,88 Z M85.6666667,104.666667 L89,104.666667 L89,108 L85.6666667,108 L85.6666667,104.666667 Z M84,71.3333333 L87.3333333,71.3333333 L87.3333333,74.6666667 L84,74.6666667 L84,71.3333333 Z"/>
  </g>
</svg>
