<svg xmlns="http://www.w3.org/2000/svg" width="300" height="240" viewBox="0 0 300 240">
  <path fill="#E4E4E7" fill-rule="evenodd" d="M154.651447 41.6584892C154.482788 41.668657 154.297862 41.7613471 154.116361 41.9407196 153.937 42.1183757 153.46698 42.2320927 152.939171 42.2359548 152.121131 42.2419625 152.02824 42.3033268 151.628423 42.9598817 151.151126 43.7425982 150.891716 43.8258476 150.477773 43.3353625 150.219648 43.0298284 150.143451 43.0242498 149.461109 43.3890026 149.026191 43.6215861 148.646494 43.9837641 148.538192 44.2742789 148.335715 44.8154003 147.710306 45.2985904 146.65212 45.7092591 146.078935 45.9315437 145.956507 46.0701497 145.942809 46.4868261 145.93382 46.7640382 145.914985 47.0858788 145.902999 47.2111821 145.881167 47.4399035 144.280617 49.1018886 144.083705 49.1018886 144.025916 49.1018886 143.898351 48.9474051 143.789193 48.7530134 143.718562 48.627281 143.671474 48.5431733 143.615397 48.5118474 143.611973 48.5097018 143.605552 48.5135639 143.602127 48.5118474L143.575159 48.4582073 143.52165 48.4985447C143.438177 48.5131348 143.331588 48.6011046 143.13382 48.7530134 142.881259 48.9474051 142.362439 49.1018886 141.98317 49.1018886 141.604329 49.1018886 141.046127 49.2422112 140.739201 49.4099974 140.131343 49.7425661 140.079975 49.6987958 140.364641 49.1018886 140.671566 48.4590656 140.306423 48.1423744 139.669028 48.4848128 139.394636 48.6324304 138.986686 48.7929216 138.759381 48.8469908 138.532077 48.9010601 138.217446 49.1259194 138.063769 49.3430546 136.913119 50.9655606 137.076214 50.8668628 134.625946 51.3144358 134.075021 51.4152792 133.406377 51.5633259 133.140974 51.6362765 132.475755 51.8195111 132.412829 51.5307127 132.860161 50.4291595 133.313058 49.3138743 133.296363 49.4172925 132.993718 49.0212139 132.65854 48.5822233 131.77629 48.6247062 130.773324 49.1284941 129.516085 49.7605892 128.674929 49.6228414 129.355131 48.900631 129.502387 48.7448601 129.609832 48.5650584 129.662913 48.3912645 129.664197 48.3869733 129.661628 48.3822529 129.662913 48.3775326 129.683032 48.3389117 129.689453 48.2947123 129.689453 48.2702524 129.689453 48.2646738 129.689881 48.2625282 129.689453 48.2569497 129.722414 48.0539755 129.669762 47.8947716 129.515657 47.8947716 129.413776 47.8947716 129.091012 48.1917233 128.806774 48.5517557L128.284958 49.2091689 128.017415 48.7264079C127.769991 48.2968579 127.692082 48.2796931 127.161277 48.4715101 126.839797 48.5878018 126.470373 48.8195271 126.332107 48.9808766 126.193841 49.1426551 125.672024 49.4258749 125.181457 49.6112551 123.75299 50.1515183 121.718806 51.4603369 121.435852 52.02506 121.295446 52.305705 121.106239 52.5348556 121.007783 52.5348556 120.909755 52.5348556 120.48982 52.9897237 120.071596 53.5540176L119.389254 54.4925049C119.337458 54.5289802 119.280524 54.5598769 119.228728 54.5864824L117.462943 54.5058077C115.724126 54.4277077 115.6124 54.3976692 115.295629 53.9157665 115.111987 53.6359797 114.616711 53.2317478 114.198916 53.0309193 113.781121 52.8300907 113.356476 52.5494457 113.262301 52.4005407 112.940821 51.8924616 112.294436 52.0881407 111.67074 52.8833017 111.344551 53.2995489 110.886089 53.8097736 110.667346 54.009744 110.448602 54.2101434 110.17421 54.6873258 110.051782 55.0692434 109.929783 55.4515901 109.672085 55.8472395 109.476886 55.9545197 108.753449 56.3527439 107.726939 56.6526994 107.242793 56.598201 106.841264 56.5527142 106.699145 56.6290977 106.560451 57.0273219 106.4209 57.4281208 106.250957 57.5448417 105.610565 57.6439686 105.165802 57.713057 104.746294 57.688168 104.661108 57.5770257 104.189376 56.9599499 101.772498 58.3301328 100.714739 59.8166075 100.409954 60.2448701 100.046951 60.6074773 99.9121093 60.6074773 99.7772675 60.6074773 99.3509107 60.9589273 98.962224 61.3987761 98.1955522 62.2673168 97.63735 62.5299387 95.95247 62.8067217 94.6982275 63.0131288 94.4007195 63.2487162 94.4007195 64.0404442 94.4007195 64.426653 94.2466146 64.7648002 93.9058716 65.140281 93.0767017 66.0534502 92.787327 66.1637342 92.3271527 65.6899848L91.9260519 65.2741667 91.096454 65.7706595C90.6367078 66.0461551 89.9997409 66.3246546 89.6786891 66.3873062 89.3580653 66.4499579 89.0160381 66.5975754 88.9295681 66.7224496 88.3799274 67.5188979 87.1351024 67.4888595 86.9364784 66.6688095 86.8131945 66.1624469 86.4951391 66.0216952 85.7725584 66.1727458 84.9271219 66.3499727 84.7147997 66.7357523 85.0499778 67.5004457 85.4202576 68.3440973 85.3838717 68.4659677 84.7824346 68.4659677 84.3196919 68.4659677 84.2499166 68.5307649 84.2075378 69.0156715 84.165587 69.4924248 84.0452996 69.6254523 83.3244312 69.9275533 82.8629727 70.1210869 82.4062229 70.3656857 82.3210372 70.4772572 82.0273818 70.8621786 81.7743929 70.6888138 81.4516288 69.8606105 81.0586614 68.8530347 81.2161908 68.5002973 81.8664278 68.9354259 82.109143 69.0976336 82.5277946 69.2868759 82.8026149 69.3645468 83.2503752 69.4907083 83.3274277 69.4452215 83.471687 68.9487286 83.781609 67.8815051 83.2978909 67.2455479 82.7092959 67.9428693 82.4623 68.2351007 82.3796826 68.2376754 81.719172 67.9428693 81.081349 67.6583622 80.9525002 67.6562166 80.6489992 67.9162638 80.2046635 68.2973232 79.6991139 70.1060676 79.8198294 70.8930753 79.8694854 71.2174907 79.9007344 71.3942885 79.8463696 71.4427791 79.8330995 71.4474994 79.8219697 71.4552236 79.8061311 71.456511 79.8027066 71.456511 79.7971417 71.456511 79.792861 71.456511 79.7076752 71.4552236 79.5501458 71.3518055 79.2445045 71.1612758 78.5750044 70.7433121 78.2278403 71.0252445 78.2278403 71.9929121 78.2278403 72.7571763 77.9911181 73.0567027 76.8366157 73.7630356 75.4586612 74.605829 75.3447948 74.6195609 75.1110691 73.9775961 74.7776033 73.0631395 73.5040977 73.0601357 73.1847581 73.9775961 73.066183 74.3174598 72.793931 74.5307329 72.2751112 74.701523 71.8714421 74.8345504 71.3342153 75.1641153 71.084223 75.4391817 70.4977683 76.0854378 69.7336649 76.5381603 68.6763342 76.8338245 67.9028133 77.0505306 67.8244767 77.1127531 67.7803855 77.6517289 67.7178875 78.4177097 67.361734 78.767014 66.7902617 78.6172509 66.4032872 78.5159783 66.235056 78.6211129 65.6533101 79.3682124 65.2778935 79.8505442 64.970968 80.3981025 64.970968 80.5886321 64.970968 80.7787327 64.7950316 81.2108574 64.5831373 81.5408513 64.488106 81.688898 64.4097693 81.8566843 64.3421344 82.0098804 64.3301485 82.0377733 64.3130257 82.0635205 64.302324 82.0905551 64.2693627 82.1562106 64.2449627 82.2227244 64.2488154 82.278081 64.2265558 82.3540354 64.1953067 82.4184035 64.1953067 82.4660359 64.1953067 82.8754172 63.9585845 82.8814249 63.7004588 82.4793386 63.187204 81.6803156 63.0622078 81.5807596 62.5767774 81.5807596 62.2908272 81.5807596 62.0142946 81.6700167 61.961214 81.7820172 61.9081335 81.8944469 61.4877696 82.3064029 61.0250269 82.6938991 60.2069868 83.3783469 59.9154717 83.9271924 59.7943282 85.0004237 59.7626511 85.2776358 59.6855986 85.87111 59.6338023 86.3148209 59.5379148 87.1335835 58.9193549 88.232133 58.5499313 88.232133 58.4403456 88.232133 57.9801713 88.5938819 57.5332671 89.0367346 57.086791 89.4800164 56.6523009 89.8409071 56.5568415 89.8413362 56.4613821 89.8413362 56.287586 89.9833752 56.182281 90.1498741 55.9374255 90.5356538 55.3548234 90.5322208 55.1121082 90.1498741 54.7670845 89.6053197 54.330454 89.5834346 53.9349182 90.0696285 53.7303011 90.3210933 53.5740559 90.6133246 53.5740559 90.7266126 53.5740559 90.8399005 53.3839932 91.2806076 53.1592569 91.7054372L52.7966824 92.3761532C52.7658614 92.404046 52.7406053 92.4297933 52.7166335 92.443096L52.3955816 92.0543125C52.1588594 91.7633686 51.9448248 91.6685329 51.7265096 91.7590774 51.3498088 91.9157065 51.3198439 92.3165054 51.6464607 92.6709592 52.0505579 93.1099498 51.8908881 93.6137377 51.1379146 94.3471053 50.7355296 94.7393218 49.8562756 95.6198778 49.1850633 96.2918811 48.5134228 96.9638843 47.9094173 97.5118717 47.8473473 97.5118717 47.7852773 97.5118717 47.5673901 97.8989387 47.3520713 98.3701134 46.910304 99.3403557 45.0486314 101.74944 44.7438462 101.74944 44.3928296 101.74944 42.5662586 102.9896 42.0414459 103.586507 41.763201 103.903627 41.4057633 104.163245 41.2520865 104.163245 41.0988377 104.163245 40.858691 104.334464 40.7170001 104.538726 40.5757373 104.743416 40.1665032 105.027924 39.8073532 105.169104 39.4486313 105.310285 38.9713342 105.506823 38.7508786 105.611528 38.2757219 105.837246 35.6268303 105.655727 35.2193085 105.370362 34.6996326 105.006468 34.4226718 105.170392 33.426555 106.389524 32.7857355 107.174386 32.3157157 107.596212 32.0755689 107.596212 31.871808 107.596212 31.6599138 107.686757 31.6072613 107.79747 31.5550368 107.908612 31.3478514 107.998727 31.1526519 107.998727 30.9574524 107.998727 30.5559235 108.215433 30.2562752 108.481488 29.9566268 108.747543 29.5572383 109.022181 29.3731686 109.098135 28.8230998 109.326856 27.981944 110.425835 27.981944 110.908596 27.981944 111.598622 27.2208371 112.437124 26.5907193 112.437124 26.3535691 112.437124 26.1951835 112.48304 25.975584 112.705325 25.888686 112.736222 25.8283283 112.770551 25.8283283 112.812605 25.8283283 112.828054 25.8189107 112.847364 25.8150581 112.866245 25.6172902 113.106124 25.3707224 113.465727 24.9991584 114.033025 24.420837 114.915727 23.8052736 115.702734 23.6212039 115.776543 23.4371342 115.850352 23.0030721 116.215105 22.6580484 116.581145 22.3074598 116.952763 21.7655243 117.298206 21.4273497 117.372014 20.8263407 117.503755 20.6752323 117.575418 19.0460012 118.538794 18.579834 118.814719 17.9715478 119.105663 17.6950151 119.182475 17.1188341 119.343825 16.3243378 119.838172 16.1967732 120.10766 16.1492575 120.208932 15.8316303 120.380581 15.5011609 120.496873 14.9035764 120.707571 14.696391 121.097642 14.671991 121.998796 14.6638577 122.292314 14.4399776 122.481557 13.8021546 122.736025 13.3359873 122.922693 12.6074137 123.308472 12.1836253 123.607999 11.7598369 123.907525 11.2452978 124.276569 11.0334036 124.425903 10.8215094 124.575237 10.4692085 124.802242 10.2573143 124.921967 10.0454201 125.042121 9.76931547 125.216773 9.64217895 125.31075 8.73595664 125.983183 7.93375512 126.357376 7.38111789 126.356947 7.02667667 126.356947 6.54424278 126.442342 6.31094511 126.558205 6.00830025 126.708826 5.77457451 126.710543 5.4685051 126.544473 5.09779724 126.344073 4.97280106 126.37497 4.54516002 126.786068 3.58542907 127.709536 2.40481445 129.436748 2.40481445 129.9238 2.40481445 130.184705 2.32348132 130.423726 2.21774825 130.460201 1.32436801 130.771313 1.08464931 130.966134.81325349 131.600375.389465068 132.589069.397170312 133.670883.826523633 134.268648 1.21050163 134.804191 1.26315413 135.221726.98704955 135.583046.779007961 135.855108.892446276 136.105286 1.10733697 136.159784 1.12617201 136.173945 1.14543512 136.191539 1.17411575 136.18639 1.27428392 136.189823 1.39499941 136.145194 1.5088658 136.052504 1.82392467 135.794602 1.82435274 135.81048 1.7361705 136.521533 1.68608641 136.927481 1.43780633 137.590473 1.17411575 137.983548.734488773 138.638815.716081801 138.725498.920270768 139.123293 1.0833651 139.442559 1.2982558 139.565716 1.7361705 139.565716 2.18778341 139.565716 2.31449187 139.631372 2.27125689 139.860952 2.18863955 140.300371 2.17750975 140.542825 2.28452703 140.692159 2.28795158 140.697308 2.29437262 140.70117 2.29779717 140.705461 2.32904622 140.810167 2.40053376 140.841064 2.52552994 140.853079 2.55463864 140.866382 2.58503155 140.881401 2.61884901 140.893416 2.86113613 140.980957 3.19888266 141.215686 3.36796996 141.416515 3.53748533 141.616914 3.8773722 141.778264 4.13078912 141.778264 4.52974953 141.778264 4.61664756 141.883398 4.79943307 142.582865 4.9154398 143.027005 5.16586023 143.555682 5.34778961 143.749645 5.75573947 144.184344 6.77069134 144.204513 7.03352577 143.789982 7.13883077 143.623483 7.42135639 143.494747 7.67562944 143.494747 8.32244187 143.494747 8.01551632 143.94704 7.06006606 144.393326 6.6589653 144.580852 6.2154857 144.813865 6.07037027 144.916425 6.03912122 144.938739 6.000595 144.955045 5.96335299 144.970065 5.94537409 144.976501 5.92739518 144.991092 5.90984435 144.99667 5.78912886 145.032287 5.65086254 145.027996 5.56182416 144.983367 4.96423968 144.683412 3.94885974 145.858774 4.25107654 146.498593 4.64361591 147.330229 5.84563398 147.487288 6.03013177 146.726885 6.14699464 146.24627 6.51170952 146.204645 6.87299986 146.632908 7.0789011 146.877078 7.27324448 146.899392 7.76937658 146.753491 8.00738301 146.683544 8.22484211 146.643207 8.35797161 146.646211 8.37552244 146.649215 8.39564169 146.656081 8.41148025 146.659513 8.44272929 146.667238 8.46712923 146.67582 8.49152917 146.686548 8.63236391 146.901109 8.55916409 147.627181 8.35797161 147.973911 8.15378264 148.325361 8.20172638 149.469826 8.42475039 149.650057 8.49195724 149.704555 8.88492469 149.525612 9.3074289 149.247971 9.72993312 148.970329 10.249609 148.738175 10.4580787 148.738175 11.1780909 148.738175 11.7243071 148.333514 12.0633379 147.558093 12.2889303 147.042289 12.3582775 146.707146 12.2641023 146.512325 12.2491198 146.481428 12.237562 146.450102 12.2238638 146.418348 12.2110217 146.194346 12.213162 146.053166 12.2641023 145.948889 12.2649584 145.947173 12.2765163 145.950606 12.2773724 145.948889 12.5705998 145.807709 13.2221209 145.667386 13.8826316 145.640351 14.6296122 145.609884 14.6612893 145.634344 14.7118015 146.21709 14.7404821 146.547942 14.6788401 147.172742 14.5782439 147.611733 14.4172899 148.314633 14.4292758 148.439078 14.671991 148.671232 14.8796045 148.870344 15.1094777 148.948015 15.3273648 148.912398 15.35947 148.909823 15.3898629 148.902957 15.421112 148.885793 15.5782133 148.836014 15.7216165 148.738175 15.8354829 148.563952 16.028542 148.268717 16.2417205 148.194908 16.7986384 148.255414 17.6218153 148.3451 18.2356664 147.948593 18.3105785 147.263287 18.3461082 146.937155 18.5301779 146.7492 19.0460012 146.552233 19.4274108 146.40719 19.8644694 146.196492 20.0228549 146.083204 20.2219071 145.940307 20.3623137 145.945456 20.4774643 146.096507 20.5519484 146.193917 20.6987761 146.269872 20.8254845 146.297765 20.8545932 146.304201 20.8785651 146.311067 20.9055335 146.311067 20.9243685 146.313642 20.9402071 146.32437 20.9590421 146.32437 21.1217084 146.393029 21.423069 146.788679 21.6816228 147.249555 21.9667168 147.758921 22.3601123 148.358832 22.5510311 148.590557 22.7415219 148.822712 22.8986232 149.211495 22.8986232 149.462531 22.8986232 150.072312 23.0381738 150.161569 24.2500374 150.280435 26.0350856 150.455517 25.7345811 150.872622 23.634474 151.125374 22.1246743 151.306892 21.7526822 151.507292 21.4941285 152.265119 21.1842064 153.173568 20.7805373 153.894062 20.4641942 154.102186 19.9205464 154.459643 19.5143088 155.031662 19.5143088 155.429886 19.5143088 156.087299 20.0271356 155.828968 20.865295 154.75917 21.5463529 153.8902 21.6619316 153.797939 21.6281141 154.18286 21.6144159 154.336057 21.6379597 154.464793 21.6948929 154.584947 21.6991736 154.593958 21.7034543 154.60297 21.708163 154.611981 21.7175806 154.717116 21.751398 154.761315 21.8284505 154.772902 21.8896643 154.841132 21.962008 154.918374 22.0561832 154.987462 22.3100282 155.173701 22.6409256 155.660753 22.791606 156.073567 23.0244756 156.711241 23.2338014 156.972575 23.5407269 156.945111 23.689695 156.931809 23.8523612 156.851563 24.0625432 156.703946 24.8103799 156.176556 25.0796354 156.381676 24.8784429 157.333895 24.637868 158.474069 24.8116641 159.647715 25.2932419 160.150215L25.6545322 160.525696C25.6476831 160.597359 25.6207147 160.690049 25.5877534 160.793897L25.2131929 161.504521C24.9482182 162.018178 24.6644083 162.499223 24.5843594 162.56402 24.5038824 162.628817 24.4371036 162.816343 24.4371036 162.979838 24.4371036 163.300391 25.1340002 162.857539 26.3501445 161.772721 27.0277779 161.168519 27.2293985 161.201561 28.2897257 162.040922 28.8278085 162.46661 29.0148747 162.750688 29.1193236 163.328284 29.2477443 164.040196 29.2759969 164.065943 29.908255 164.065943 30.4060993 164.065943 30.6167094 164.164212 30.7780914 164.481761 30.9484629 164.818192 31.1963149 164.924185 31.9950919 164.991128 32.5451607 165.037473 33.1217698 165.097979 33.2792992 165.125443 33.7651577 165.20955 33.9355292 164.606635 33.7210666 163.556148 33.5849406 162.889723 33.5759511 162.517675 33.6940982 162.228877 33.7844208 162.008309 33.8208067 161.669732 33.7745752 161.477915 33.7180701 161.244903 33.8109611 161.074112 34.0421184 160.941514 34.108041 160.903751 34.1589813 160.82651 34.2159145 160.753559 34.3237879 160.61667 34.4123982 160.447596 34.429949 160.284101 34.4569174 160.034782 34.5780609 159.828375 34.6974922 159.828375 34.8169235 159.828375 35.0348107 159.583776 35.17907 159.278671 35.3233293 158.973566 35.6336794 158.43931 35.8746823 158.098588 36.4654176 157.26309 36.640926 154.580656 36.1422255 154.02194 35.8126122 153.652467 35.7642404 153.264113 35.9149208 152.989046 35.9423172 152.939268 35.9816995 152.896785 36.021938 152.855161 36.0369205 152.834563 36.0476222 152.820402 36.0617485 152.80152 36.2462463 152.646608 36.535621 152.588676 36.8913464 152.667206 37.3570856 152.770624 37.5604184 152.701535 37.8545019 152.385702 38.3553428 151.848443 38.1169083 151.291873 37.3194155 151.15198 36.5660139 151.02024 36.2179937 150.313478 36.5702946 149.609719 36.6978592 149.354822 36.8652342 149.14069 36.9448551 149.14069 37.0244759 149.14069 37.4140188 148.955739 37.8009933 148.724872 38.2260659 148.471691 38.6481421 148.356686 38.8711661 148.429637 39.1566882 148.523615 39.3604491 148.390158 39.7808129 147.839596 40.3792535 147.05645 40.8758137 146.931147 41.466121 147.43751 41.7970184 147.721158 41.8937621 147.731457 42.3492276 147.464115 42.6300409 147.299762 43.4429442 147.104941 44.1552512 147.034994 45.3234518 146.920848 45.4210516 146.935867 45.2386941 147.222949 44.990414 147.614737 45.2267082 148.000516 45.5999844 147.81299 45.7177035 147.753772 45.7921875 147.600146 45.8272891 147.43751 45.8285734 147.43236 45.8397032 147.429356 45.8405593 147.424207 45.8525452 147.394168 45.8675276 147.360268 45.8675276 147.330229 45.8675276 147.323363 45.8542575 147.323363 45.8538294 147.316927 45.8546856 147.307486 45.8534014 147.299333 45.8538294 147.290321 45.8615347 147.096788 45.8037453 146.928572 45.6667632 146.928143 45.5606021 146.928143 45.6676194 146.721307 45.8940679 146.471988 46.6714414 145.618466 47.5528357 144.095516 47.4590886 143.776679 47.3298117 143.335114 47.9492277 142.541241 48.5429596 142.395339 49.0703407 142.266174 50.1653415 142.776399 50.9906588 143.535514 51.3421035 143.858212 51.5604188 143.904987 52.261596 143.789982 53.1558324 143.643652 53.3039443 143.447973 52.7966824 143.092661 52.3151046 142.755372 52.4199816 142.315952 53.0239871 142.167476 53.6506803 142.013422 53.8544412 141.706171 53.5458033 141.389909 53.401544 141.241863 53.3403302 140.777125 53.3450389 139.968232 53.3527442 138.792012 53.3613055 138.758969 53.7868062 138.694172 54.1587983 138.637528 54.2080262 138.675291 54.1078581 138.989407 54.0235285 139.252887 53.9781531 139.467877 53.9473322 139.659694 53.8929674 139.791434 53.8767008 139.90558 53.9070937 139.995266 53.9113743 140.196095 53.9738724 140.329981 54.0808897 140.38405 54.3099067 140.499054 55.4489986 139.688016 55.6459104 139.27091 55.8667941 138.803169 58.8804006 139.275202 59.8332825 139.927894 60.1042502 140.114133 60.4920808 140.263467 60.6894207 140.263467 60.8863325 140.263467 61.1906896 140.394349 61.3580646 140.54497 61.5254397 140.695163 61.8285126 140.868957 62.0404068 140.933754 63.0271061 141.234567 64.1426542 141.885544 64.2877697 142.248151 64.5844215 142.989672 64.8476841 143.293919 65.2106867 143.293919 65.4140195 143.293919 65.6528821 143.468571 65.7457731 143.696434 65.8365237 143.918289 66.2466139 144.323809 66.6554199 144.594584 67.0642259 144.865788 67.5946035 145.418067 67.8458801 145.828306 68.2893597 146.551804 68.3330228 146.583559 69.2773432 146.565965 70.2704636 146.547513 71.3770222 147.05173 71.6449935 147.65207 71.7113442 147.800546 72.1432659 148.254127 72.608149 148.657929 73.8996335 149.779651 75.2052443 151.769485 75.5245839 153.123361 75.6153345 153.50957 75.5489838 153.625432 75.1500234 153.80738 74.7964383 153.968729 74.6821439 154.140378 74.6821439 154.504701 74.6821439 154.845852 74.5494424 155.07629 74.2540747 155.24236 73.4086382 155.716538 73.0430672 156.178272 72.8358818 157.039089 72.5901701 158.059538 72.2969428 158.562468 71.8457579 158.74227 71.2443208 158.982148 70.7276414 159.468342 70.4412632 159.935655 70.4305614 159.953249 70.4245685 159.97213 70.4142948 159.989295 70.3624984 160.057954 70.3098459 160.110307 70.2940074 160.163947 70.291439 160.17253 70.2948635 160.192698 70.2940074 160.203855 70.1685831 160.510248 70.167727 160.784885 70.3607862 160.941514 70.4442596 161.008886 70.818392 161.677456 71.1903841 162.429705 71.5623762 163.182383 72.2237429 164.186097 72.6616576 164.669287 73.2327018 165.299236 73.6111149 165.978964 74.0130718 167.042755 74.3212816 167.859372 74.6389089 168.569137 74.7086841 168.625352 74.7356525 168.647237 74.757484 168.677705 74.7754629 168.71933 74.9013152 169.009845 74.8015751 169.755228 74.5216179 170.610036 73.7690724 172.90712 73.2703719 175.160005 73.3709682 175.759487 73.4266171 176.093343 73.7904759 176.971753 74.1735977 177.703833 75.3182546 179.891921 76.3695923 181.122639 77.9324726 182.089019 79.043312 182.776042 79.6049387 183.357072 79.6049387 183.818806 79.6049387 184.165535 80.3339404 185.118184 81.2101978 185.911199 81.4306534 186.111169 81.719172 186.583202 81.8386033 186.956967 82.2037462 188.100145 82.6275347 188.324575 83.7918827 188.003163 84.3338181 187.852971 84.9921884 187.584341 85.2631562 187.39939 85.9553439 186.928215 86.1068804 186.969411 86.7078895 187.788603 87.3388633 188.647703 88.0832755 189.172088 88.928712 189.357469 89.2677427 189.431707 89.7309135 189.539845 89.9586463 189.598635 90.1397195 189.645838 90.2844069 189.623953 90.4269539 189.518389L90.440224 189.518389C90.4470732 189.51281 90.4466451 189.497362 90.4534942 189.491354 90.5587992 189.404672 90.6641042 189.277223 90.8015144 189.075965 91.2903693 188.357188 92.9405757 187.265504 93.530455 187.265504 93.7487702 187.265504 94.199527 187.428141 94.5201508 187.640985 95.3651592 188.201846 98.5495653 188.192835 99.309388 187.627682 99.9377935 187.159941 100.629981 187.288677 101.355986 187.989431 101.631663 188.255915 102.051171 188.472192 102.278903 188.472192 102.506636 188.472192 102.769471 188.599212 102.867498 188.754125 102.965526 188.908179 103.370908 189.092701 103.763875 189.169514 104.27713 189.270357 104.577207 189.471186 104.861016 189.89387 105.077191 190.216998 105.346875 190.483911 105.449611 190.483911 105.76039 190.483911 106.118255 189.882713 106.118255 189.357469 106.118255 189.061375 106.224845 188.81978 106.385799 188.754125 106.53391 188.69319 106.842548 188.509097 107.068141 188.351609 107.292877 188.193693 107.655452 188.070106 107.87077 188.070106 108.085661 188.070106 108.299696 187.979562 108.352348 187.868848 108.516298 187.52126 110.438329 187.646135 111.629645 188.083409 112.703671 188.477771 112.80127 188.48807 113.301683 188.177386 113.622735 187.977845 113.964762 187.890304 114.17152 187.976129 114.724585 188.205708 115.669761 189.105146 115.669761 189.397806 115.669761 189.714497 116.478384 190.298531 117.020748 190.376631 117.175709 190.398945 117.418424 190.555574 117.622613 190.752111 117.690248 190.817338 117.753602 190.89458 117.810107 190.966672 118.034415 191.255041 118.449642 191.783289 118.733024 192.146754 120.084866 193.882119 120.144796 194.062779 119.896944 195.687001 119.821176 196.181778 119.703885 196.323817 119.294651 196.42466 118.706912 196.568845 118.480035 197.231837 118.840041 197.751931 118.963753 197.930874 119.067346 198.257435 119.067346 198.476287 119.067346 198.960335 119.340454 199.361134 119.682909 199.361134 119.822032 199.361134 120.064319 199.541365 120.217996 199.76365 120.600261 200.317216 120.86224 200.2713 121.368217 199.562392 121.925992 198.780963 122.412278 198.756932 122.478629 199.508752 122.518867 199.96362 122.622888 200.088923 123.067224 200.192771 123.927215 200.393599 124.416498 200.711578 124.525227 201.158292 124.580448 201.386156 124.676336 201.574111 124.739262 201.574111 124.802188 201.574111 124.980693 201.688257 125.127092 201.828579 125.148924 201.858189 125.189162 201.89638 125.207569 201.922557 125.20971 201.925131 125.205001 201.933714 125.207569 201.935859 125.255085 202.006664 125.292327 202.053439 125.314587 202.110512 125.332994 202.235815 125.272636 202.407034 125.140791 202.754193 124.800904 203.645477 124.932321 204.19089 125.742656 205.167998 126.252914 205.783357 126.517033 205.965734 126.77259 205.878622 127.064533 205.778637 127.088933 205.818974 126.999895 206.18716 126.839797 206.846719 127.472055 207.54876 128.391119 207.728991 128.799497 207.809237 129.090584 207.87575 129.287496 207.983889 129.352563 208.019935 129.400934 208.060702 129.448022 208.104472 129.636372 208.280841 129.689025 208.534451 129.689025 208.936108 129.689025 209.484525 129.842274 209.820955 130.451416 210.639289 131.20653 211.654589 131.223225 211.658489 132.190233 211.658489 133.123851 211.656305 134.049765 211.445607 134.705139 211.06841 134.874654 210.97057 135.086976 210.862432 135.186717 210.826815 135.365221 210.762876 139.316299 205.921534 140.87233 203.853601 141.310245 203.271284 141.713486 202.794101 141.781977 202.794101 141.805949 202.794101 141.889851 202.700124 141.996012 202.579541 142.097892 202.558085 142.183078 202.485134 142.183078 202.405318 142.183078 202.38944 142.199773 202.350819 142.210046 202.325072 142.378278 202.115232 142.574761 201.865055 142.784943 201.574111 143.263953 200.908115 143.761797 200.366994 143.895355 200.366994 144.028912 200.366994 144.321283 200.173889 144.550728 199.937873 144.900461 199.57784 145.033162 199.546085 145.353358 199.736615 145.947946 200.091498 146.139293 200.031421 147.279669 199.066328 148.205582 198.281895 148.336572 198.084929 148.336572 197.564405 148.336572 196.686853 148.849826 196.577427 151.693918 196.853781 153.176749 196.997537 153.321436 196.977797 153.740944 196.571849 153.987512 196.333257 154.273462 196.132858 154.383048 196.129425 154.694682 196.119555 155.081657 195.654817 155.145439 195.217543 155.181825 194.969082 155.347488 194.797005 155.587206 194.761817 156.616712 194.609908 156.821329 194.378183 156.897954 193.259894 156.910796 193.067219 157.037076 192.740228 157.178767 192.535538 157.476703 192.104271 157.502816 191.674721 157.258816 191.355455 156.903091 190.889001 157.307188 190.683881 158.489515 190.725077 159.951371 190.776142 161.528806 190.232446 161.78051 189.598635 161.928194 189.225729 161.967148 189.100854 162.074594 189.115874 162.096425 189.118877 162.127674 189.115444 162.155071 189.129605 162.209863 189.157927 162.27493 189.210709 162.369105 189.276794 163.180296 189.84495 164.862608 188.585051 165.365589 187.023909 165.461476 186.7261 165.723883 186.282389 165.954184 186.045085 166.184057 185.80821 166.368983 185.486369 166.368983 185.334031 166.368983 185.182123 166.525656 184.928941 166.717003 184.757722 167.064595 184.445751 167.347121 183.892185 168.201547 181.807516 168.454108 181.190869 168.774731 180.560062 168.910857 180.412873 169.090218 180.217194 169.129173 179.961009 169.057685 179.460654 168.967363 178.831134 169.019159 178.689524 169.779838 177.703833 170.234875 177.114221 170.783232 176.325926 170.997266 175.960744 171.350423 175.35783 171.422339 175.329078 171.719419 175.571532 172.132077 175.90925 172.8431 175.380144 172.8431 174.740325 172.8431 174.515465 172.952686 174.05416 173.084103 173.721163 173.340088 173.073619 173.281443 172.534643 172.896609 172.031285 172.680862 171.749352 172.674013 171.683697 172.896609 171.360998 173.060131 171.12541 173.196685 170.309652 173.298138 168.98753 173.553267 165.660556 174.176107 162.807332 174.970176 161.28996 175.421789 160.426998 175.655942 159.761003 175.665788 159.305276 175.676062 158.835389 175.769381 158.580062 175.9603 158.500675 176.281351 158.367647 176.462425 157.610678 176.33486 156.945111 176.265513 156.585508 176.419618 156.258947 177.017202 155.443188 177.437566 154.869025 177.779593 154.263535 177.779593 154.088883 177.779593 153.785924 179.632704 151.300027 180.20118 150.843442 180.350148 150.723717 180.54492 150.427195 180.629249 150.186458 180.712723 149.94615 180.865544 149.744034 180.976841 149.744034 181.087711 149.744034 181.524342 149.295603 181.939997 148.751478 182.660009 147.809128 183.476337 147.128972 183.866308 147.128972 184.111164 147.128972 184.702755 146.254423 184.709176 145.895249 184.718166 145.332243 185.132536 144.909988 186.260927 144.286046 186.888476 143.939316 187.511316 143.554824 187.638881 143.427804 188.195371 142.872522 188.690647 142.591877 189.337459 142.489317 189.35501 142.48803 189.374273 142.477731 189.390968 142.475585 189.411087 142.472581 189.425642 142.479447 189.444477 142.475585 189.459031 142.473869 189.470161 142.465286 189.484715 142.462711 189.955591 142.372167 190.061324 142.254588 190.180327 141.725053 190.27065 141.322537 190.422615 141.068069 190.581856 141.068069 190.58999 141.066352 190.600263 141.069785 190.607968 141.068069 191.063434 141.029019 191.38577 140.085811 191.290311 139.029744 191.241939 138.494631 191.263342 138.008437 191.343819 137.94321 191.424296 137.878413 191.489791 137.623086 191.491075 137.380204 191.496212 136.427556 191.652029 136.360184 193.751708 136.347739 195.563296 136.337011 195.767485 136.293241 196.226376 135.864978 197.093644 135.055656 196.732781 133.812922 195.62451 133.812922 194.904926 133.812922 193.426804 132.973133 193.2834 132.485651 193.033408 131.63213 193.197787 130.276966 193.657961 129.387828 194.137826 128.460927 194.646372 126.524304 194.527369 126.088747 194.452457 125.811534 194.940028 124.434915 195.183171 124.238377 195.269213 124.16886 195.343697 123.940138 195.343697 123.742314 195.343697 123.54406 195.486672 123.215782 195.664749 123.004655 195.843254 122.793527 196.09453 122.379426 196.213105 122.07947 196.233653 122.027118 196.254628 121.978627 196.279884 121.931853 196.383477 121.797538 196.481077 121.67438 196.574396 121.569675 196.946816 121.283451 197.484043 121.288171 197.978891 121.623315 198.663373 122.086336 200.300309 122.521894 201.363205 122.521894 202.27542 122.521894 202.741159 122.149417 202.741159 121.422057 202.741159 121.225949 202.852457 120.814422 202.995432 120.496873 203.221025 119.996947 203.229586 119.839459 203.048941 119.397465 202.867868 118.954183 202.888843 118.738335 203.14226 117.761227 203.427354 116.663536 203.438912 116.642938 203.891381 116.782402 204.708993 117.033009 206.033867 116.878955 206.245761 116.514202 206.50774 116.064483 206.487192 115.35815 206.205951 115.052616 206.078814 114.91401 205.978218 114.503341 205.978218 114.140734 205.978218 113.740365 206.065544 113.446846 206.205951 113.376041 206.510736 113.222845 206.49661 112.655547 206.179411 112.195959 206.089516 112.066364 206.039432 111.98054 206.018885 111.901153 206.023165 111.857382 206.023165 111.818332 206.031727 111.766838 206.038148 111.737657 206.050134 111.6926 206.058695 111.659557L206.058695 111.646255C206.0908 111.585749 206.144737 111.520093 206.205951 111.431694 206.359628 111.20941 206.433255 110.891002 206.379747 110.707767 206.327094 110.527966 206.386168 110.211704 206.500034 109.996714 206.771858 109.489064 206.638729 108.66601 206.232491 108.293963 205.949109 108.033915 205.933699 107.922773 206.085235 107.341743 206.179839 106.979994 206.298842 106.261217 206.352778 105.745843 206.435396 104.957119 206.547122 104.726252 207.035121 104.284257 207.353604 103.995459 207.732873 103.761159 207.877989 103.761159 208.023104 103.761159 208.271384 103.644009 208.439615 103.506261 208.683615 103.307149 208.811179 103.307149 209.055179 103.506261 209.22555 103.646154 209.362532 103.726829 209.483248 103.734553 209.515781 103.736699 209.546174 103.729833 209.576995 103.720821 209.767914 103.667181 209.925443 103.415717 210.138622 102.889614L210.499912 102.004338 210.151892 101.374389C209.749079 100.633297 209.424602 100.535457 207.262425 100.475809 205.511623 100.427748 205.329265 100.344928 205.911439 99.8454309 206.286428 99.5240194 206.29028 99.4699502 206.058695 99.1348068 205.82711 98.8000925 205.845517 98.7464524 206.205951 98.4374854 206.419129 98.2546799 206.63402 97.8847777 206.687529 97.6058491 206.741037 97.3273497 206.915689 97.0072255 207.075359 96.895225 207.245303 96.7759294 207.34119 96.5896909 207.356172 96.3991613 207.360881 96.3815673 207.369443 96.3588239 207.369443 96.3455212 207.369443 96.34123 207.356601 96.3365096 207.356172 96.3322184 207.355744 96.3189157 207.356172 96.3047547 207.356172 96.2918811 207.342046 96.0897651 207.244018 95.8910822 207.062089 95.7421772 206.695662 95.4426509 206.662701 95.0294075 206.981612 94.6826778 207.276124 94.3629828 207.272699 93.8780762 206.981612 93.8780762 206.859184 93.8780762 206.515445 94.0651729 206.219221 94.2938943 205.741496 94.6629382 205.486367 94.7058503 203.918349 94.6423404L202.152564 94.5620948 201.429984 93.7038531C200.844385 92.9975202 200.632919 92.8503317 200.293032 92.9391597 199.504957 93.1455669 198.692482 92.7537795 198.112448 91.8800894 197.813656 91.4290834 197.45579 91.0617559 197.309818 91.0617559 197.164275 91.0617559 197.042275 90.9330197 197.042275 90.7802527 197.042275 90.319806 196.629189 90.0155593 195.932292 89.9623483 195.569718 89.9348846 194.590723 89.8503477 193.764978 89.7881252 192.032582 89.6568142 191.310002 89.2345593 190.955989 88.1252819 190.736389 87.4378302 189.919633 86.6988841 189.631543 86.9314676 189.424785 87.0988248 188.512142 86.3019473 187.317401 84.9068754 186.254506 83.6658578 186.115811 83.6229458 185.257105 84.1958221 184.928347 84.415532 184.429219 84.6910276 184.146693 84.8128979 183.781978 84.9703853 183.610323 85.1943864 183.544828 85.5771622 183.493888 85.8736847 183.381306 86.446561 183.304253 86.851222 183.24518 87.1597599 183.237046 87.3846193 183.264015 87.6021835 183.287559 87.7922841 183.338927 87.9798099 183.437811 88.2055275 183.538835 88.4363945 183.598337 88.5762879 183.611607 88.7015912L183.611607 88.7286258C183.597481 88.8316148 183.55981 88.9367494 183.518288 89.0504665 183.451509 89.1637544 183.354765 89.2984983 183.210506 89.4928901 182.935686 89.8640796 182.70196 90.2657367 182.70196 90.3781664 182.70196 90.8248812 181.801303 91.4282252 180.922905 91.5715515 179.748711 91.7629394 178.468785 92.3315246 177.846372 92.9528916 177.575832 93.2228086 176.859673 93.6995619 176.241113 94.0119619 175.396104 94.4389372 175.026681 94.7423256 174.782681 95.2323816 174.519419 95.7619168 174.36403 95.8872201 173.926543 95.8893657 173.581091 95.8915113 173.048145 96.1554206 172.45527 96.6270244 171.627812 97.2852959 171.430472 97.3655415 170.555499 97.3376486 169.644568 97.3093266 169.543972 97.3535261 169.124464 97.9414217 168.679272 98.5649343 168.666858 98.5687964 167.465696 98.4778227 166.4028 98.397148 166.047931 98.2632623 164.723057 97.4183233 162.761217 96.167436 162.728255 96.1502712 161.847289 95.9966459 161.275817 95.897519 160.943207 95.6816712 160.456064 95.0984959 160.10462 94.6783866 159.550698 94.2303844 159.211667 94.0926366 158.872637 93.9548888 158.031053 93.4910092 157.352563 93.0734746 156.674074 92.65594 155.824785 92.2542828 155.466063 92.1748955 155.107341 92.0955081 154.576963 91.8127175 154.275602 91.5445169 153.973814 91.2767455 153.598825 91.0617559 153.446433 91.0617559 153.293612 91.0617559 153.037627 90.8682224 152.884378 90.646367 152.731129 90.4245115 152.520091 90.2438516 152.41607 90.2438516 152.312478 90.2438516 152.153236 90.1172609 152.055208 89.9623483 151.956752 89.8074357 151.620718 89.6229137 151.306087 89.5465302 150.09722 89.2542989 148.547182 87.7545214 146.222766 84.6116402 145.691961 83.8950084 145.259611 83.1972579 145.259611 83.0693798 145.259611 82.9419309 145.10679 82.5947722 144.924861 82.2918128 144.000231 80.7538436 143.341433 77.1221938 143.694162 75.5597647 143.787053 75.1495251 143.890218 74.5865186 143.935165 74.2994367 144.108961 73.1832933 145.874746 71.2672687 145.874746 72.1941698 145.874746 72.6031219 146.372162 72.9206714 146.650835 72.6902335 147.06007 72.351228 147.349872 72.4967 147.533514 73.1326571 147.681626 73.6454565 147.781366 73.742867 148.0686 73.6557554 148.989805 73.3763977 150.64472 72.8494373 151.19907 72.6631989 151.950331 72.4113049 152.402372 72.3941401 153.165191 72.596256 153.634355 72.7207011 153.814572 72.6807928 154.088536 72.3683928 154.275602 72.1542615 154.693826 71.8319917 155.011453 71.6440368 155.329081 71.456511 155.586778 71.232939 155.586778 71.1479731 155.586778 71.0630072 156.174089 70.1751561 156.897526 69.1765918 158.091839 67.5296259 158.20913 67.2961842 158.168463 66.6555067 158.163326 66.5756903 158.160758 66.5310617 158.155193 66.4679809 158.155193 66.4083331 158.139354 66.3568386 158.128653 66.3070606 158.074716 65.9680551 157.950148 65.9277178 157.379532 65.8509051 156.67707 65.7569277 156.611148 65.6972799 156.389836 64.9660579 156.172805 64.2511425 156.16938 64.1713261 156.402678 64.000536 156.543085 63.8975469 156.656951 63.6417909 156.656951 63.4371003 156.656951 63.2328387 156.774242 63.0096959 156.911224 62.9410365 157.079455 62.8564997 157.134676 62.6505217 157.085448 62.310658 157.03408 61.9622118 157.075603 61.8145943 157.232276 61.8145943 157.35556 61.8145943 157.649215 61.6429459 157.87438 61.4391135 158.099544 61.2352811 158.388919 61.0044141 158.516483 60.929747 159.457807 60.3766102 159.826375 59.8251899 159.533147 59.4814641 159.515168 59.4548586 159.489912 59.4291114 159.466369 59.4140921 159.453098 59.4037932 159.454811 59.3844828 159.439828 59.3741839 158.227537 58.5498427 157.808029 58.3721867 157.44631 58.4889076 156.945041 58.6511152 156.202342 59.5531273 156.202342 60.0041333 156.202342 60.4658674 155.894988 60.7739762 155.266154 60.929747 154.977636 61.0009811 154.615061 61.1996641 154.463525 61.3721707 154.150178 61.7279119 153.180174 62.2123893 152.764519 62.2171096 152.611698 62.2192552 152.331313 62.4368195 152.135685 62.7131734 151.662241 63.3821728 150.771857 63.8447651 150.236342 63.7053008 149.890462 63.6156145 149.714526 63.7207491 149.353236 64.2150964 149.062149 64.6133205 148.743237 64.8317431 148.470557 64.8317431 148.23726 64.8317431 148.014236 64.9222876 147.962011 65.0330008 147.779226 65.4200678 147.147824 65.2492777 146.891838 64.7381947 146.542962 64.0413024 146.103763 64.11082 145.380326 64.9660579 144.805858 65.6453562 144.715535 65.6865518 144.04261 65.5694018 143.343573 65.4483898 143.290921 65.4715623 142.570909 66.3740035 141.850896 67.2773029 141.79696 67.3000463 141.046127 67.2056397 140.433132 67.1283979 140.210964 66.9975161 139.975954 66.5752611 139.812431 66.2813134 139.353541 65.7504908 138.95929 65.3951788 137.758128 64.3137942 137.169961 63.2427085 137.00601 61.8682344 136.950361 61.4004926 136.818516 60.9250267 136.711927 60.808735 136.503029 60.5821591 136.48291 57.3075378 136.684958 56.7994587 136.687527 56.793451 136.696088 56.7780027 136.698657 56.7724241 136.703365 56.7616961 136.718348 56.7556884 136.725197 56.7458186 136.812523 56.6175115 137.020137 56.5797488 137.313792 56.6518411 138.029095 56.8273516 138.346723 56.3214181 137.848878 55.7935994L137.501286 55.4181187 137.929355 55.0426379C138.303488 54.7216555 138.446463 54.7143604 139.039339 54.9220549 139.413471 55.0529368 139.888628 55.1499181 140.096241 55.1499181 140.316269 55.1499181 140.535012 55.3172752 140.631328 55.5520044 140.722078 55.774289 140.944674 55.9678225 141.112905 55.9678225 141.310673 55.9678225 141.505873 56.2154252 141.67496 56.6784466 141.865451 57.201545 142.019556 57.3787719 142.249857 57.3358598 142.663372 57.2581889 142.75241 56.3154104 142.410383 55.6326791 142.045668 54.9036027 142.20705 54.5465742 142.838452 54.6804599 143.244689 54.7667132 143.451019 54.6796016 143.815306 54.2783736 144.070435 53.9968703 144.475816 53.711505 144.724952 53.6346923 145.448817 53.4102621 146.063953 52.5524495 145.955651 51.904477 145.837932 51.2058682 146.331924 50.7243946 147.159382 50.7243946 148.001822 50.7243946 148.370389 51.027354 148.256523 51.6229737 148.13067 52.2799578 148.78262 52.8691407 149.259489 52.5348556 149.363081 52.4623341 149.455116 52.3584869 149.513762 52.2400495 149.535165 52.2100111 149.551432 52.1786852 149.554 52.1460721L149.554 52.1327693C149.567698 52.0877116 149.580969 52.0383627 149.580969 51.9984545 149.580969 51.7718787 149.66701 51.7169512 149.90202 51.7971968 150.124188 51.8735803 150.628882 51.6088127 151.426803 51.006327 152.080036 50.5132672 152.67762 50.1077479 152.764519 50.1077479 152.851845 50.1077479 153.017079 49.9712875 153.126237 49.79921 153.234538 49.6275617 153.619801 49.3044337 153.982375 49.0885859 154.344094 48.8727381 154.678416 48.609687 154.731496 48.4985447 154.783721 48.3874024 155.034997 48.297287 155.279425 48.297287 155.523852 48.297287 155.962623 48.1084738 156.256278 47.8814689 156.620993 47.5999656 156.915077 47.5222947 157.192893 47.6132684 157.460009 47.7012381 157.688169 47.6407321 157.861537 47.4390453 158.006225 47.2708299 158.389347 47.0326678 158.717676 46.915947 159.391028 46.6764975 159.894866 46.1572613 159.894866 45.7092591 159.894866 45.5431893 160.2797 44.9252553 160.751004 44.327919 161.525809 43.3460905 161.609711 43.1688636 161.566904 42.4908526 161.503121 41.4832768 161.04894 41.4090389 160.095202 42.2359548 159.702235 42.5771059 159.23778 42.8530306 159.051998 42.8530306 158.866216 42.8530306 158.531466 43.0332614 158.316575 43.2551169 157.923607 43.6597778 157.482696 43.7764987 157.460437 43.5233174 157.455728 43.4872712 157.471566 43.4404971 157.486549 43.3894317 157.77678 42.399879 156.7858 42.4981476 156.015275 43.5366201 155.505445 44.2236426 154.668142 44.572947 154.556844 44.1403932 154.524739 44.015519 154.662577 43.6439004 154.877896 43.308757 155.309389 42.6376119 155.372316 42.2539779 155.09193 41.8875087 154.96779 41.7248718 154.81925 41.6502048 154.650591 41.6584892L154.651447 41.6584892zM294.313277 53.1448383L294.273191 53.1044321C294.231827 53.069184 294.184065 53.0214703 294.140142 52.9703176 294.128628 52.957422 294.124364 52.9436667 294.113276 52.9299114 294.034385 52.7962268 293.939289 52.6092403 293.860397 52.4059194 293.691527 51.9734864 293.351654 51.5341756 293.047176 51.3450399L291.14184 50.5523892C290.926488 50.4230032 290.609217 50.3103815 290.435229 50.3103815 290.350794 50.3103815 290.289386 50.2983456 290.248875 50.2704051 290.226273 50.2192524 290.210921 50.1560639 290.19557 50.082129 290.111134 49.8482885 289.98832 49.6441079 289.791304 49.4863515 289.363585 49.2009285 289.411772 49.0272675 289.538425 49.0354347 289.731603 48.9657983 290.571263 49.3075322 290.670624 49.3449295 290.86039 49.4162853 291.187043 49.5714625 291.421585 49.6389496L292.091097 50.1345712 292.739286 50.1981896C293.000694 50.1891627 293.267219 50.3701312 293.526921 50.7402354 293.738009 51.0411332 294.010931 51.3145203 294.126922 51.3583654L295.859549 54.4477256C296.280446 54.7352979 297.175544 54.6170881 297.751665 54.2061477 297.920535 54.0853588 298.385355 53.8300255 298.791326 53.6417495 300.080455 53.0442525 299.508599 51.9554325 297.89836 51.9356592 296.853581 51.9231934 296.529913 51.5681341 296.632259 50.5657147 296.697504 49.9269518 296.655287 49.7004187 296.352514 49.3165592 296.072343 48.9614998 295.987055 48.6756469 296.019464 48.1207055L296.05955 47.3822164 295.606244 47.3822164 295.246328 47.3822164C294.541849 47.3822164 294.381507 47.3065621 294.060398 46.8178182 293.855706 46.5061741 293.687689 46.0926546 293.687262 45.9043786 293.687262 45.2840994 293.109009 44.3195071 292.661247 44.1716374 292.496215 44.1174758 292.369136 44.0538574 292.274892 43.9700359 292.264658 43.9571403 292.257835 43.9429551 292.248027 43.9300595 292.206662 43.8720292 292.161886 43.8187273 292.128197 43.7551089 292.123932 43.7503805 292.117962 43.7469417 292.115404 43.7417834 292.108581 43.7263087 292.107301 43.704816 292.101758 43.6880517 292.022013 43.4550708 291.996853 43.0978622 291.995147 42.5330342 291.995147 42.342179 291.980222 42.1930197 291.968708 42.0494485 291.969135 42.0279558 291.968708 42.0034541 291.968708 41.9819614 291.964444 41.9492925 291.959326 41.9192027 291.955915 41.8882532 291.900478 41.4669964 291.775104 41.1759853 291.436084 40.6524232 291.124783 40.1722763 290.674462 39.6452754 290.436508 39.4836503 289.731603 39.0039333 289.83011 38.166148 290.689814 37.3881124 291.442907 36.706364 291.554208 36.3010117 291.076169 35.9640063 290.837362 35.7959334 290.801541 35.6682667 290.916254 35.3862826 291.143973 34.825753 290.816893 34.5536555 289.903458 34.5536555 289.274885 34.5536555 289.106441 34.4908968 289.170407 34.2716713 289.332454 33.7158702 288.943541 32.415562 288.544393 32.1761333 288.332878 32.0493264 288.157612 31.859331 288.157612 31.7596049 288.157612 31.4513996 287.260381 31.0739878 286.851851 31.208962 286.356754 31.3723065 286.31539 30.7365525 286.771681 29.9731319 286.940551 29.6907179 287.090658 29.2544161 287.091511 29.019286 287.095775 28.4578968 287.220296 28.2399608 287.731171 27.9446512 287.9913 27.7942023 288.157612 27.5380093 288.157612 27.2865448 288.157612 26.870876 288.037355 26.8046785 287.424987 26.8700163 287.137566 26.900536 287.089379 26.8218727 287.118377 26.3593498 287.137566 26.0550133 287.076585 25.7683007 286.984901 25.7283243 285.697904 25.1634962 286.364004 24.1228198 288.037782 24.0759657 288.888957 24.0523238 289.115396 23.7256348 288.637357 23.2162578 288.161876 22.7098899 287.318377 22.5422469 286.771681 22.8401356 286.361445 23.0640895 286.277863 23.0305609 285.839056 22.5443961 285.438202 22.1012167 285.274022 22.0406073 284.879565 22.1682739 284.616452 22.2538149 284.124339 22.3260303 283.786599 22.3294692 283.448858 22.332908 283.08809 22.4046936 282.987023 22.4906644 282.807492 22.6441222 282.068897 22.7752277 280.601943 22.9205183 279.978914 22.9828472 279.868892 22.9390021 279.868892 22.6252087 279.868892 21.9176691 279.418145 21.5798039 278.682962 21.7250945 278.035199 21.853191 278.016862 21.8484626 278.203216 21.4564358 278.363558 21.1185706 278.345647 20.9148199 278.123046 20.3014183 277.879548 19.6291267 277.88168 19.5229528 278.09618 19.0922392 278.195967 18.8919272 278.263344 18.7208453 278.295754 18.5682472L278.389144 18.3937265 278.32262 18.3133438C278.32262 18.3086154 278.323046 18.3043169 278.32262 18.2995885 278.3094 18.0906795 278.207054 17.906702 278.029229 17.6952139 277.577628 17.1570367 277.270165 17.4317134 277.296604 18.3399948 277.318779 19.1029855 276.917073 20.2072803 276.616859 20.2072803 276.52688 20.2072803 276.478692 19.6261177 276.510249 18.7565232 276.537541 18.0107266 276.548628 17.6363239 276.497455 17.4398806L276.510249 17.1712219 276.310248 17.2249536C276.305984 17.2240939 276.301719 17.2262432 276.297455 17.2249536 276.058648 17.1626248 275.818989 16.9554352 275.644575 16.6876362 275.429649 16.3583681 275.298732 15.9431292 275.351184 15.5996759 275.465043 14.8508703 274.821119 14.0994857 274.125168 14.1893251 273.740519 14.2391882 273.578472 14.4326225 273.245848 15.26396 272.889771 16.1520382 272.78444 16.2693883 272.326017 16.2981885 272.040302 16.3166723 271.630919 16.4000639 271.419831 16.4727092 271.159702 16.5629786 270.919617 16.4877541 270.753731 16.3385948 270.739232 16.3256992 270.726439 16.3123737 270.71322 16.2981885L270.606609 16.1640741C270.526439 16.0076073 270.521321 15.8137432 270.619829 15.6267567 271.305545 14.3285978 271.185289 13.751304 270.220255 13.7461457 269.530274 13.742277 269.348611 13.5888192 269.220679 12.8997633 269.140508 12.4686198 269.189122 12.3302068 269.433899 12.2283315 269.603196 12.1574056 269.743494 12.0228613 269.753729 11.9192665 269.828356 11.1863655 269.873559 10.3176307 269.873559 9.75667131 269.873559 9.25288249 269.960979 9.05987807 270.233474 8.92361437 270.658209 8.71083667 270.892751 8.30677397 270.91322 7.98352381 270.938806 7.92334426 270.966525 7.86703339 270.966525 7.82232858 270.966525 7.79051939 270.93241 7.76515801 270.886354 7.74151604 270.825373 7.59020745 270.687207 7.4861828 270.459914 7.4861828 270.263325 7.4861828 270.031768 7.39161493 269.94051 7.27125583 269.849252 7.15132658 269.46972 6.96348041 269.100849 6.85515722 268.731978 6.74640417 268.24541 6.42487343 268.021529 6.14288924 267.626218 5.64597809 267.588692 5.64253926 266.755427 5.88798586 265.99807 6.11108005 265.87099 6.10291283 265.622802 5.80717332 265.506384 5.6691902 265.336661 5.54926095 265.209581 5.49810833L265.156276 5.43105112 265.116191 5.47145739 265.102971 5.47145739C264.789111 5.47145739 264.05009 6.38317759 264.05009 6.77434468L264.354995 8.14471904C264.644122 8.74866382 264.974613 11.5392756 264.808301 11.9596727 264.736659 12.1397815 264.716617 12.7467353 264.767789 13.3162918 264.855636 14.2924901 264.693162 14.6991319 264.434739 14.1489189 264.159259 13.5630279 262.981858 14.4777571 262.981858 15.2772854 262.981858 16.0162044 262.622368 16.0699361 262.075672 15.3980744 261.555841 14.7588816 261.454775 14.1467696 261.809147 13.7594712 261.930256 13.6270762 262.077378 13.2642794 262.128977 12.9534951 262.181003 12.6427107 262.427912 11.8994932 262.675673 11.3011365 262.923862 10.7032097 263.177594 10.0708945 263.235163 9.90411121 263.293159 9.73775773 263.467147 9.3900059 263.621518 9.12521587 263.776316 8.86042584 263.901689 8.43401074 263.901689 8.17136998 263.944333 7.87090208 264.002329 7.65597511 263.932393 7.50337696L263.636017 6.85515722C263.545185 6.68407535 263.290174 6.71588454 262.796782 6.97594618 262.038572 7.37485063 261.907228 7.57215359 261.903817 8.34589068 261.899552 8.90126197 261.903817 8.89696343 260.784411 8.89696343 260.198482 8.89696343 259.699973 8.97777597 259.49187 9.09813507L259.451785 9.09813507 259.424919 9.15186681C259.080782 9.52025164 258.53238 10.8016462 258.53238 11.2340793 258.53238 11.523371 258.421932 11.4545944 258.065854 10.9116888 257.804446 10.5127844 257.643252 10.0601482 257.679499 9.85037946 257.801035 9.14713842 257.464147 8.31880988 257.026193 8.25218252 256.506362 8.17265954 256.391223 7.5515206 256.826619 7.15046687 257.205724 6.80099562 257.260308 5.84328105 256.919583 5.47145739 256.618516 5.14218927 256.615531 4.26829621 256.919583 4.11483836 257.053485 4.04735129 257.142611 3.81737943 257.119583 3.57752093 257.097408 3.34153112 257.209988 2.87986799 257.372889 2.55661783 257.660309 1.98534194 257.662442 1.9642791 257.386108 1.75064169 257.229605 1.62942288 256.91745 1.33239381 256.693143 1.09210546 256.352844.728019173 256.106361.657093273 255.174163.676006846 254.911049.681165093 254.670537.701368228 254.467551.729738588 254.452199.724580341 254.427466.721571364 254.414246.715983262 254.35028.689332318 254.298681.669988891 254.254331.66225152 254.143457.643337947 254.095695.696209981 254.081196.810121275 254.0232.830754264 253.985247.854826085 253.974586.87717849 253.865844 1.10801005 254.490579 1.98749121 255.027467 2.35501633 255.114461 2.41433618 255.195058 2.48053368 255.253907 2.55661783 255.66798 3.08705759 255.414249 3.9613805 254.654332 4.31601 254.506357 4.38521649 254.374587 4.60874053 254.374587 4.81335101 254.374587 5.01753163 254.282903 5.3631342 254.161367 5.57892087 253.94303 5.96664913 253.932369 5.96492971 253.694841 5.5655954 253.457741 5.16755065 253.45177 5.16969992 253.068401 5.76676705 252.711044 6.3234279 252.685031 6.59423588 252.8684 7.45953186 252.941748 7.80470457 251.310187 8.36910279 251.082895 8.07723197 250.807414 7.72432188 250.086304 7.86316471 249.537049 8.19845078 249.513168 8.21005683 249.492273 8.22510172 249.470524 8.23842719 249.420631 8.27109609 249.383104 8.3102128 249.337048 8.34589068 249.322549 8.35921615 249.310609 8.37254162 249.296963 8.38629695 249.041099 8.59821494 248.857303 8.84065256 248.857303 9.09813507 248.857303 9.61610907 248.543017 9.61438965 248.044508 9.09813507 247.829582 8.87590059 247.503355 8.69536193 247.324677 8.69536193 247.126808 8.69536193 246.953674 8.52256065 246.871797 8.23842719 246.735336 7.76558786 245.779684 6.68020667 245.499086 6.68020667 245.414651 6.68020667 245.325951 6.42186445 245.299085 6.1162383 245.250898 5.56387599 244.991622 5.44351688 244.779681 5.75344157 244.730641 5.82436747 244.672645 5.90389045 244.632986 6.02210028 244.54983 6.27227528 244.355373 6.47903502 244.206545 6.47903502 244.057291 6.47903502 243.94002 6.60326281 243.94002 6.76101921 243.94002 7.13241301 243.010381 7.8893858 242.554089 7.8893858 242.359633 7.8893858 242.079888 8.04370336 241.927649 8.22510172 241.79929 8.37769987 241.71187 8.44174811 241.621038 8.44002869 241.598437 8.43959884 241.579673 8.43701971 241.554513 8.42670322 241.478181 8.39575374 241.386496 8.33127564 241.247903 8.21177625 240.494809 7.56226695 237.157488 8.18082677 236.610791 9.07148413 236.258125 9.64490928 235.35194 9.92173522 234.958335 9.58172075 234.760467 9.41149859 234.458547 9.33928313 234.251724 9.40720005 233.974538 9.49875894 233.745539 9.35045933 233.265794 8.76241915 232.203531 7.46168113 231.939138 7.34733998 230.920373 7.76859684 230.633378 7.88680667 230.372823 8.02049125 230.147236 8.13096371 230.108857 8.14987728 230.087535 8.15417582 230.054272 8.17136998 230.039773 8.1786775 230.029112 8.1898537 230.013761 8.19845078 229.934869 8.23971676 229.824847 8.2934485 229.787321 8.31923973 229.259388 8.67945734 228.70928 8.51009488 228.107999 7.79524778 227.669618 7.27383495 227.367699 7.08340966 226.975374 7.08340966 226.572388 7.08340966 226.316523 7.25921992 225.909273 7.79524778 225.541255 8.27926332 225.229101 8.49376043 224.923343 8.49376043 224.150207 8.49376043 224.026539 9.01173443 224.483683 10.2669079 224.7404 10.9722982 224.506711 11.0264598 223.897328 10.4147777 223.410759 9.92689347 223.296473 9.88519763 222.951057 10.0923872 222.795406 10.1856655 222.682826 10.2308002 222.604361 10.2265017 222.571951 10.216615 222.540821 10.2067284 222.51097 10.1865252 222.506706 10.1830864 222.501589 10.1770685 222.498177 10.1727699 222.473444 10.1469787 222.452122 10.1104411 222.431653 10.0653064 222.363422 9.92087551 222.145085 9.47167814 221.951907 9.05815866 221.501586 8.09442612 220.864911 7.78235216 219.873011 8.05058102 219.472584 8.15890422 218.7519 8.2010299 218.27386 8.14471904 217.424817 8.04413321 217.40776 8.05659898 217.167674 8.66828113 216.794965 9.61739863 216.279825 9.69563205 215.448693 8.9102889 214.772359 8.27109609 214.745067 8.26120945 214.435898 8.62830472 214.171078 8.94166824 213.857218 8.99625969 212.490051 9.00442691 210.601773 9.01474341 209.581728 9.21376578 209.238444 9.62212702 208.961257 9.95225485 208.61115 9.99910893 208.398783 9.72959051 208.260616 9.55463996 207.631617 9.44072866 207.066157 9.48801259 206.690463 9.51896208 205.867007 10.4985992 205.867007 10.9116888 205.867007 11.1068425 205.729267 11.4223553 205.560396 11.623527 205.391526 11.8246986 205.253786 12.1058231 205.253786 12.2416569 205.253786 12.3774908 205.113487 12.6220777 204.933956 12.7789744 204.753998 12.935871 204.597921 13.2849124 204.58726 13.5578697 204.573187 13.9374307 204.433741 14.1106619 204.02777 14.2834631 203.316468 14.5856505 203.113056 15.0223821 203.455061 15.5192932 203.808153 16.0329687 203.790243 16.1073334 203.26828 16.2444568 203.021371 16.3097946 202.69088 16.5346082 202.535229 16.7551233 202.379152 16.9756384 201.951432 17.2485956 201.575738 17.3594979 201.199618 17.4708301 200.804308 17.7296022 200.695992 17.9234663 200.466141 18.3378455 200.425629 19.4013041 200.642687 19.4013041 200.700683 19.4013041 200.759958 19.4614837 200.815822 19.5354186 200.829468 19.5534724 200.843114 19.5680875 200.856334 19.5891503 200.865289 19.6033355 200.874244 19.6162311 200.882773 19.6295566 201.072965 19.969571 201.206015 20.6160714 201.082774 20.9057929 200.878935 21.3846502 201.19578 22.8023085 201.615824 23.2966405 201.952285 23.692536 202.577447 23.7501364 203.188536 23.4445103 203.296851 23.3903487 203.382992 23.3568201 203.46828 23.3503723 203.503248 23.3546708 203.541202 23.3581096 203.57489 23.3641276 203.583846 23.365847 203.592801 23.3619783 203.601756 23.3641276 203.62052 23.3675664 203.636724 23.38648 203.655061 23.3907785 203.767641 23.4346236 203.881927 23.5236034 204.041416 23.6727627 204.42308 24.0308311 204.687473 24.0888613 205.680652 24.0488849 206.3314 24.0230937 206.935666 24.0071891 207.026498 24.022234 207.11733 24.0372789 207.282789 24.65197 207.386414 25.3921785 207.490039 26.1328168 207.671702 27.0462564 207.786415 27.4073337 207.962108 27.9609856 207.961681 28.177632 207.786415 28.83101 207.503685 29.8746954 207.508375 30.0595326 207.866159 30.6578892 208.376608 31.5124389 208.270424 32.130139 207.399633 33.2507682 206.637584 34.231265 206.617542 34.2733907 206.706668 35.1851109 206.775325 35.8870624 206.738224 36.1862407 206.560399 36.3805347 206.4201 36.5335627 206.358693 36.7970632 206.413703 37.0253156 206.46445 37.2372336 206.441848 37.509761 206.360398 37.6430157 206.278522 37.7767003 206.155707 38.298543 206.093873 38.7984631 206.032039 39.2983833 205.930973 39.8683696 205.853787 40.061374 205.756132 40.3059609 205.803041 40.6661785 206.027348 41.2434723 206.343341 42.0584754 206.351869 42.0662128 206.986839 41.9282297 207.340358 41.8517157 207.829911 41.638938 208.066159 41.4583993 208.465307 41.1523433 208.525435 41.1579314 208.959125 41.4850502 209.530982 41.9170535 209.69772 41.9222117 209.918616 41.5254565 210.071281 41.25035 210.165951 41.2610963 210.704545 41.6058392 211.038022 41.8190468 211.394099 41.9437044 211.504121 41.8882532 211.614569 41.8323722 211.799644 41.8813756 211.904122 41.9957167 212.0828 42.1904406 214.151462 42.174536 217.27471 41.9553105 218.423967 41.8744979 219.220131 41.4850502 219.220131 41.01479 219.220131 40.9877092 219.231218 40.9713748 219.24657 40.9477328 219.293479 40.8768069 219.412882 40.8269439 219.539535 40.8269439 219.733139 40.8269439 219.846145 40.9606284 219.846145 41.1897406 219.846145 42.039132 220.589431 42.3129489 220.965551 41.6058392 221.156596 41.247341 221.238046 41.2288573 221.525467 41.4313185 222.038475 41.7928257 222.865342 41.5018146 223.244448 40.8269439 223.429523 40.4976757 223.657668 40.2960743 223.777498 40.3566837 223.893916 40.4155736 224.156177 40.3205759 224.363853 40.1417567 224.603086 39.9354268 225.0807 39.8060408 225.656394 39.8060408 226.276012 39.8060408 226.61887 39.717061 226.74936 39.5103013 226.854691 39.3439478 227.029958 39.2012363 227.135715 39.2012363 227.241899 39.2012363 227.40821 39.0787279 227.50885 38.9192521 227.666633 38.6695069 227.790727 38.6763846 228.388597 39.0133901 229.26749 39.5094415 229.331883 39.5047132 230.360883 38.9059266L231.080288 38.4893981C231.139563 38.4760727 231.190736 38.4571591 231.226983 38.4627472L231.346813 38.8926011C231.519095 39.4888086 231.827411 39.6151856 233.239355 39.6985773 233.854282 39.734685 234.619315 39.9087759 234.945116 40.0880249 235.270916 40.267274 235.814627 40.4104154 236.157912 40.4104154 236.50077 40.4104154 237.080302 40.5995511 237.437233 40.8269439 237.794163 41.0543366 238.423589 41.3186968 238.836383 41.4046676 239.248751 41.4902085 239.786066 41.7498403 240.035533 41.9819614 240.61208 42.5179893 241.538735 42.727758 241.967734 42.4255707 242.50974 42.0438604 243.911449 42.380436 244.339595 42.989539 244.572005 43.319237 244.787784 43.4490529 244.952816 43.3656612 245.093968 43.2943055 245.360066 43.3583537 245.539171 43.513531 245.718703 43.6682784 246.085015 43.8660112 246.351966 43.9433849 246.552393 44.0014152 246.790347 44.1750762 246.951541 44.3732389 246.956232 44.3779673 246.96135 44.3814061 246.965188 44.3865643 247.013802 44.4480334 247.053887 44.5120817 247.085017 44.5748404 247.219772 44.8452185 247.43683 45.058426 247.564763 45.058426 247.693121 45.058426 248.051331 45.2316572 248.364338 45.4345482 248.677345 45.6370094 249.046216 45.7595178 249.190353 45.7165324 249.407411 45.6516245 251.105496 46.5973031 252.828741 47.7445833 253.029595 47.8786977 253.267548 48.3068323 253.361792 48.6851037 253.456035 49.0633752 253.664138 49.4635692 253.814671 49.5852179 253.966057 49.7068665 254.447082 50.2459034 254.880772 50.7806417 255.315314 51.31538 255.865849 51.8049836 256.106788 51.868602 256.348579 51.9322204 256.630883 52.1355413 256.733228 52.3255367 256.985254 52.7923581 257.504232 53.1448383 257.959244 53.1448383 258.165641 53.1448383 258.427475 53.28712 258.53238 53.4539033 258.637711 53.6202568 258.824065 53.749213 258.945174 53.749213 259.067136 53.749213 259.520015 53.9619907 259.95797 54.2194732 261.230041 54.9665593 261.782281 55.2145851 262.436867 55.320759 262.79593 55.3792191 263.132391 55.5700743 263.249662 55.7910192 263.360536 55.9990685 263.636443 56.1804669 263.849237 56.1804669 264.268428 56.1804669 266.359264 57.4171566 266.954575 58.0211014 267.155855 58.225282 267.434747 58.3972236 267.580589 58.3972236 267.727285 58.3972236 268.196369 58.7587308 268.620251 59.2031998 269.044559 59.6476687 269.540935 60.0091759 269.726437 60.0091759 269.911938 60.0091759 270.35373 60.3319962 270.699147 60.721014 271.044564 61.1100318 271.402347 61.4328521 271.498723 61.4328521 271.595098 61.4328521 271.908105 61.70409 272.191688 62.0376566 272.475697 62.3707934 272.806615 62.6420313 272.924739 62.6420313 273.042863 62.6420313 273.654378 63.0035384 274.283804 63.4480074 274.914083 63.8924764 275.529009 64.2539835 275.656515 64.2539835 276.050972 64.2539835 276.78914 64.8622269 276.78914 65.1807486 276.78914 65.3471021 276.981039 65.5852412 277.202361 65.7180661 277.566541 65.936002 277.636477 65.9115003 277.948632 65.3956756 278.167822 65.0341684 278.334986 64.9043525 278.401511 65.0466342 278.459507 65.1695724 278.669742 65.2615612 278.881256 65.2615612 279.520064 65.2615612 279.896184 65.6286564 279.774222 66.1345945 279.680832 66.5240422 279.699169 66.551123 279.920918 66.3091152 280.134564 66.0761344 280.18659 66.0718358 280.267187 66.3495215 280.32433 66.5442453 280.53755 66.6852374 280.800664 66.6852374 281.220281 66.6852374 282.626255 67.7908217 282.626255 68.122669 282.626255 68.5224332 283.268047 68.7334914 283.53244 68.4179786 283.773806 68.1308362 283.898326 68.125678 284.865066 68.4179786 285.450995 68.5950785 286.206647 68.7923814 286.544388 68.8478326 286.881702 68.9037136 287.25697 69.0679178 287.384049 69.2106293 288.065074 69.9774887 290.445037 69.7079703 291.048877 68.7941008 291.227129 68.5241526 291.514123 68.2971897 291.674891 68.2971897 291.835659 68.2971897 292.39259 67.816613 292.914553 67.2358803 293.732039 66.3258795 293.850589 66.1122421 293.780653 65.6510088 293.684277 65.0182638 294.305174 64.1147109 294.766583 64.2135773 295.275326 64.3227602 295.439505 63.5292498 295.073193 62.7494948 294.958054 62.5040482 294.878737 62.3561784 294.846754 62.2121773 294.841636 62.1902548 294.851018 62.166183 294.846754 62.1451201 294.842063 62.1137408 294.83524 62.0823614 294.833534 62.0509821 294.829269 61.8523896 294.900485 61.6262864 295.046754 61.1779488 295.225859 60.6281656 295.464239 60.2241029 295.659549 60.1570456 296.074901 60.0139043 296.223729 59.4916318 296.006245 58.934541 295.911148 58.6916736 295.832257 58.3103931 295.832683 58.0881586 295.837801 56.7113365 295.705178 55.202979 295.539719 54.7971969L294.313277 53.1448383z" transform="translate(0 2)"/>
</svg>
