<svg width="172" height="240" viewBox="0 0 172 240"  xmlns="http://www.w3.org/2000/svg"><path d="M53.506 0c-.136.019-.231.306-.485.27-.124-.018-.527 1.357-.589 1.517-.18.467-.51.928-.702 1.28-.312.573-.57.65-.929 1.052-.238.269-.542.469-.815.702-.02.017-.004-.002-.237.465-.247.494-.514 1.11-.702 1.517-.246.533-.288 1.023-.465 1.641-.138.483-.173 1.181-.237 1.631-.067.468-.225.973-.351 1.518-.225.975.683.29.826.35.112.049.69-1.512.691-1.517.155-.335.177-1.123.238-1.517.057-.37.177-1.043.237-1.404.092-.554.578-.906.815-1.28.654-1.027.308.096.702.227.137.046.939.384 1.167.475.617.247.173-.811.227-1.053.141-.636-.314-1.114-.465-1.641-.003-.01-.007-.011-.01-.02.004-.197.01-.374.01-.672.365-.304.543-.787.816-1.176.221-.316.925-.64 1.177-.816.356-.25-.394-.777-.589-1.166-.154-.308-.248-.393-.33-.382zm1.672 8.227c-.895-.017-.123 1.677-.124 1.683-.142.712 1.112 1.668 1.321 1.982.447.67.21 1.465.33 2.312.127.882 0 1.66 0 2.312 0 .78.865.768 1.487 1.321.576.513 1.258.8 1.817 1.157.59.375.24 1.684.33 2.312.164 1.144-.592 1.183-.99 1.982-.28.558-1.525.508-1.983.66-.714.238-1.483.685-2.147.991-.771.356-.909 1.023-1.32 1.486-.464.52.44 1.322.66 1.982.163.49 1.753-.584 1.982-.66.671-.224 1.34-.854 1.816-1.156.283-.18.66.11.991.165.663.11-.77 1.1-1.156 1.651-.544.778-.731 1.15-1.156 1.817-.458.72.785 1.047.991 1.321.215.287 1.496.136 1.817.165.504.046 1.075 1.076 1.32 1.322.798.797.106 1.26.166 1.981.05.606-1.211-.11-1.817-.165-1.85-.168.25-.124-.99.496-.686.343.55 1.431.825 2.147.476 1.238.714.635 1.487 1.321.187.167 2.037.627 2.147.66.862.266 1.284.495 2.147.826.859.33 1.394.93 1.981 1.322.62.413.982 1.227 1.322 1.651.442.554.536 1.18.825 1.817l.826 1.817c.305.67.733 1.15 1.156 1.816.128.2.283.386.444.568-.207-.103-.421-.198-.588-.29-.397-.215-.591-.6-.826-.835-.188-.188-.359-.465-.63-.826-.366-.489-.6-.835-.825-1.146-.253-.347-.759-.683-1.043-.939-.314-.283-.696-.48-1.042-.723-.232-.162-.532-.846-.723-1.145l-.733-1.146c-.244-.383-.417-.357-.722-.62-.352-.301-.824-.335-1.043-.423-.63-.252-.673-.055-1.249-.103-.51-.042-.732.13-1.249.217-.427.071-.88.268-1.352.413-.611.188-.898-.06-1.559-.103-.599-.04-.736-.234-1.352-.424-.363-.111-.67-.754-.826-.929-.462-.52-.22-.255-.63-.732-.442-.517-.636-.21-1.248-.413-.316-.105-.938.463-1.25.619-.725.363-.308.577-.619 1.146-.134.246-.365 1.38-.413 1.558-.022.086-.697.87-.836 1.043-.326.408-.133.94-.206 1.455-.05.352-.16.987 0 1.559.542 1.947-.298 2.191-.32 2.601-.614-.217-1.538-.887-1.662-1.042-.225-.281-.478-.683-.722-1.033-.325-.463-1.172.447-1.353.517-.39.15-.158 1.118-.206 1.455-.054.374.508 1.026.62 1.249.199.4.068 1.105.102 1.662.04.632-.344.974-.516 1.455-.18.507-.735.518-1.042.733-.436.305-.446-.204-.94-.423-.09-.04-.562-.938-.619-1.032l-.62-1.043c-.148-.249-.654-.735-.835-.94-.372-.418.484-1.075.516-1.145.195-.43.764-.548 1.146-.826.32-.232-.48-.627-.723-.939-.358-.46-.482-.752-.733-1.146-.205-.323-.068-.764-.103-1.146-.053-.585-.725-.714-.94-.929-.21-.21-.933-.07-1.352-.103-.359-.027-.874 0-1.352 0-.54 0-.742.113-1.352.207-.286.044-1.1-.478-1.455-.63-.403.042-.99.5-1.456.733-.325.162-.79.431-1.135.62-.64.348-.666-.066-1.043-.104-.33-.033-.743-.513-1.042-.723-.453-.317-.706 0-1.043 0-.444 0-1.087.27-1.249.31-.628.157-.84.382-1.135.516-.396.18-.422.765-.63 1.146-.034.063-1.125.186-1.249.206-.458.077-.229.377-.516.837-.071.114.588.892.62.939.474.712-.055.542-.104 1.032-.037.37-.752.236-1.032.32-.423.127-.646.254-1.043.413-.451.18-.196.794-.31 1.249-.083.334-.088.955-.113 1.249-.043.513.758.204 1.146.31.575.156.682.051 1.352.103.464.035 1.195.182 1.352.206.626.096.754.229 1.353.413.666.205.693.41 1.249.733.492.287.392.556.732 1.042.248.354.266.886.31 1.033.171.571-.611.235-.836.32-.48.18-1.013-.473-1.352-.63-.404-.186-.35-.7-.516-1.032-.406-.812-.404 0-.516 0-.195 0-.102 1.282-.114 1.455-.032.453-.128.844-.206 1.352-.068.439-.202.875-.31 1.342-.125.54-.187.757-.31 1.25-.118.472-.13.916-.206 1.455-.058.404.226.914.31 1.249.159.638.205.695.31 1.042.158.532-.047.476-.104 1.043-.034.335-.787.68-.836.722-.368.322-.697.707-.93.94-.31.31-.594 1.082-.629 1.145-.281.516-.283 1.048-.31 1.146-.12.445-.204.898-.31 1.352-.098.427-.16 1.136-.206 1.456-.073.515-.37.79-.526 1.135-.332.73-.049.23-.206.94-.148.662 0 .428 0 1.042 0 .51-.257.147-.723.413-.194.11-.748-.134-1.146-.207-.254-.046-.845-.278-1.249-.412-.528-.177-.763-.063-1.249-.104-.679-.056-.825 0-1.249 0-.925 0 .065.522.104.826.042.34.49.49.732.733.405.404-.288.802-.413 1.146-.164.451-.446.757-.732 1.249-.233.399 0 .605 0 1.135 0 .401.68.531.939.733.483.376 1.035-.079 1.352-.103.277-.021.902-.502 1.136-.63.542-.296.802.803.836.836.1.101-.069.274-.104.413-.016.065.01-.02-.103.207-.147.295.155.526.31 1.042.135.452.403.796.526 1.043.188.376.805.439 1.136.619l.02.01v.382c-.028.23-.125.942-.165 1.239-.05.384-.117.823-.165 1.156-.064.448-.247.642-.413 1.073-.131.342-.67.427-.908.578-.264.168-.561.051-.909.083-.366.033-.68.398-.99.578-.345.201-.488.541-.744.826-.273.303-.413.65-.578.908-.247.389-.493.604-.743.909-.191.233-.832.256-1.073.33-.453.14-.331.184-.744.413-.183.101.689.765.744.826.236.262.4.514.578.743.227.291-.058.695-.083.99-.027.326-.241.725-.33.992-.134.4-.426.638-.66.99-.179.267-.371.593-.414.661-.198.317-.891.137-1.073.165-.065.01-.677-.541-.826-.66-.449-.36-.74.17-1.073.247-.216.05-.646.717-.744.826-.389.432-.63.158-.99.248-.305.076-.606-.165-.909-.248-.48-.13-.387.852-.413.908-.237.523-.413.59-.578.826-.182.261-.941-.362-1.073-.413-.33-.126-.517-.71-.661-.908-.256-.352-.462-.323-.826-.578-.3-.21-.857-.33-1.073-.413-.535-.206-.417.535-.578.743-.109.14-.336.384-.578.66-.303.346-.876.06-1.239.083-.248.017-.447 0-.908 0-.45 0-.569.19-.991.33-.314.105.076.99.082 1.074.018.232.547.683.661.826.247.309.415.593.578.826.191.273.418.418.66.66.283.283.236.765.33 1.074.188.608-.15.657-.247 1.073-.099.43-.16.853-.248 1.322-.065.347.245.672.33.908.184.503.464.514.744.826.258.286.654.218.99.33.583.194.307.345.661.743.264.296-.304.915-.33.991-.114.342-.31.724-.495 1.156-.174.405 0 .336 0 .826v.991c0 .52-.306.458-.496.743-.168.253-.32.366-.578.66-.252.289-.518.52-.743.744-.186.186-.405.52-.578.743l-.578.743c-.451.58.274.684.33.826.105.26.55.11.826.165.384.077.337.618.495.909.194.355.043.469.083.908.025.278-.414.827-.495.99-.185.37-.415.519-.661.827-.257.321-.685.052-1.074.082-.22.017-.689 0-1.073 0-.557 0-.375.589-.578.909-.24.376.336.874.413 1.073.136.354.513.74.743 1.074.247.357.18.84.248 1.156l.247 1.156c.137.637-.211.423-.412.826-.08.157-.386.33-.578.495-.204.175.062.878.082 1.156.036.5.217.705.33 1.074.105.34.466.29.661.412.261.164.307.676.413.909.095.21.132.861.165 1.073.076.494.15.701.248 1.156.112.522.485.27.743.413.334.186.615.37.826.496.162.097-.075 1.12-.083 1.238-.012.185-.56.49-.66.578-.402.351-.155.62-.248.991-.043.174.195.782.248.991.182.728.401.345.578.496.282.242.96-.222 1.073-.248.491-.113.649.295.908.413.29.132.118.763.166 1.073.042.275-.226.902-.248.991-.05.2.07.775.082.909.03.333.29.58.413.825.165.33.41.586.578.826.085.121.18.283.33.382-.049-.018-.088-.034-.164-.052-.588-.13-.138.052-.661.248-.336.126-.385.606-.578.909-.165.26-.606-.11-.908-.166-.353-.064-.058.023-.413.166-.349.139-.218.326-.496.743-.11.164-.291.524-.413.743-.176.317-.507.394-.743.578-.407.317-.278.603-.495 1.073-.204.44-.362.453-.66.826-.06.075-.676.45-.744.496-.225.15.312.936.33.99.112.336-.262.722-.33.909-.138.378-.207.725-.33 1.156-.14.49.063.76.082.991.039.462.238.713.33.99.083.247.44.276.661.414.44.275.267.233.66.578.209.182.056.55.083.826.026.262.684.615.826.743.33.297.293.488.495.826.178.296.33.495.496.743.217.326.696.348.99.495.289.144.922.123 1.24.165.14.019.434.796.495.909.169.31.058.868.083 1.238.028.422 0 .874 0 1.156 0 .216-.397.662-.496.826-.188.314-.52.577-.743.826-.291.324-.379.631-.496.826-.16.266.115.687.166.99.081.49.115.346.247.744.054.16.749.312.991.413l.29.124c-.429-.106-.886-.155-1.405-.258-.614-.123-.606.215-1.29.464-.767.28-.323.697-.702 1.517-.194.422.9.803 1.053.94.258.229 1.581.102 1.755.113.787.053.826.527 1.28.816.36.229 0 1.47 0 1.63 0 .702.091 1.094.124 1.518.034.44.628.715.929 1.053.4.45.696.929 1.053 1.404.347.463.51 1.186.701 1.63.196.456.41.922.579 1.29.37.815 1.007-.087 1.29-.113.416-.038.778-1.177.929-1.404.512-.768.583-.054 1.176-.113.113-.011.604 1.326.692 1.517.192.417.396 1.261.475 1.518.236.767.721-.098.929-.124.418-.052.468-.692.702-1.043.275-.412.702.692 1.053 1.043.45.45.74.343 1.28.588.626.285 1.437.223 1.827.093.548-.183.54-.742.743-1.032.206-.294-.5-1.394-.578-1.745-.026-.118.01-.043.113-.35l.031.061c-.012-.034-.015-.061-.02-.093h.113l-.01.042a.88.88 0 00-.02.144l-.063-.093a.785.785 0 00.062.135c.005.329.186.688.434 1.032.052.071.09.114.134.165.122.191.26.336.392.35l-.02-.04c.073.047.148.106.237.185.222.197.798.266.99.33.39.13.299.497.496.826.13.215.223.613.33.909.138.379.412.647.579.908.178.28.514.36.825.578.4.28.736.307.991.413.252.105.755.226.826.248.31.093 1.013 0 1.156 0 .367 0 .843.112 1.239.165.122.016.782-.57.908-.66.433-.315.836-.24 1.156-.331.505-.144.608.22.909.33.27.098.61.428.825.578.239.167.638.348.909.496.36.197.53.318.825.495.429.257.462.084.909.165.438.08.644.352.908.496.333.182.407.509.66.826.228.283.558.415.858.516v.268h.381c-.143.196-.309.431-.423.588-.393.541-.462.725-.815 1.28-.272.428-.23.99-.351 1.518-.063.27-.159.93-.238 1.404-.13.78-.515.888-.815 1.403-.2.344-1.008.234-1.517.351-.605.14-.76.53-1.167.816-.433.303-.826 1.003-1.053 1.28-.242.296-.946.78-1.28 1.053-.376.307-.446.74-.701 1.166-.267.444-.423.845-.702 1.404-.27.54-.216.997-.351 1.63-.139.648-.399.798-.702 1.405l-.702 1.403c-.292.583-.337.826-.578 1.404-.02.05-.11 1.43-.124 1.631-.029.399-.702 1.306-.815 1.517-.293.543-.305.766-.465 1.167-.095.238-.454.812-.588 1.053-.313.563-.353.794-.578 1.29-.263.577-.267 1.238-.351 1.63-.133.62-.081.957-.124 1.518-.046.6 0 .902 0 1.404 0 .76-.244 1.017-.34 1.404-.14.56-.322.697-.476 1.042-.119.268-.906.343-.929.351-.492.185-.22.26-.588.702-.332.398 0 1.495 0 1.868 0 .636.235 1.174.351 1.755.106.531.289 1.34.35 1.631.155.72.68.57.703.588.21.175 1.215-.333 1.28-.35.15-.041.319 0 .475 0h.113c.607 0 .504.927.702 1.29.246.45.252 1.088.351 1.517.236 1.025.399.172.815.351.347.149 1.131-1.04 1.28-1.177.492-.446 1.27.234 1.29.238.436.079 1.089.16 1.632.237.326.047.984 0 1.517 0 .652 0 .792-.792 1.166-1.166.509-.508.77-.687 1.177-1.053.064-.058 1.101.545 1.166.578.502.25.597.679.93 1.053.413.465.653.505 1.052.815.301.234 1.536 0 1.631 0h1.641c.444 0-.234-.851-.35-1.28-.134-.49-1.012-.074-1.518-.113-.259-.02-.598-.898-.702-1.053-.162-.244.326-.82.465-1.166.127-.32.85-.76 1.053-.94.39-.346.561-.803.815-1.166.303-.433.619-.693.94-1.053.5-.562.586.177 1.166.35.224.068.99.554 1.053.59.51.283 1.245.08 1.744.113.508.034.827.717.94.815.19.168-.62 1.14-.703 1.29-.345.633-.462.526-.815.93-.474.541.3.598.35.701.211.421.853-.393 1.28-.588.703-.319.32-.558.59-1.042.547-.987.465-.122.928-.238.55-.137 1.096.309 1.641.465.267.076 1.275-.59 1.518-.702.648-.3.854 0 1.404 0 .455 0 .868.973 1.042 1.166.357.397.759.76 1.053 1.053.748.748.344-.344.464-.465.142-.14-.66-.853-.815-1.052-.379-.488-.737-.515-1.166-.816-.47-.329-.834-.531-1.28-.815-.493-.314-.61-.517-.826-.702-.902-.773.46-.735.588-.94.164-.262 1.324.82 1.518.94.533.328.79.866 1.166 1.28.302.333.844.6 1.166.826.407.284.874.625 1.29.928.26.19.618-.16.93-.237.59-.147 1.055.574 1.29.702.315.172.543.468.815.702.02.016 1.245-.185 1.518-.227.332-.051.979.58 1.166.691.368.22.678.93.94 1.29.414.57.998.61 1.517.93.294.18 1.227-.085 1.63-.114.66-.047.85-.593 1.167-.815.245-.172.378-.37.506-.589 0-.001.01.002.01 0h.32c-.152.462-.306.96-.35 1.022-.422.588-.034-.134.33 1.321.165.661 1.32.33 1.981.496.827.207.831.83 1.322 1.321.42.42.961.722 1.32.991.337.252 0 1.038 0 1.817.321 0 1.796.038 2.478.33.914.166-.139 1.39-.165 1.652-.072.715 0 1.26 0 1.816 0 .44.88 0 1.321 0 .051 0 .968-1.382 1.156-1.651.504-.72 1.134-1.134 1.652-1.652l.33-.33c.088-.088-.051-.052-.66-.66-.933-.934-.302-.98-.661-2.148-.141-.46.63-1.512.826-1.982.299-.718.782-1.34 1.156-1.981.277-.476.66.88.99 1.32.356.475.441 1.102.661 1.652.24.599 1.211-.44 1.817-.66.264-.096.55.11.826.165.176.035 1.782-.149 1.982-.165.64-.054 1.1.66 1.651.99.123.074 1.073.477 1.486.661.613.272.22 1.321.33 1.982.091.541 1.104 1.104 1.487 1.486.572.572 1.103-.4 1.817-.66 1.508-.548.533.053 1.651.165.755.076 1.014-.405 1.652-.66.847-.34 1.083-.69 1.817-1.157.88-.56 1.076-.414 2.147-.825.815-.314 2.05-.175 2.611-.124.558-.406 1.612-1.025 2.178-1.528.065-.058.936-1.203 1.487-1.321.738-.158 1.73-.438 2.312-.496.63-.063.448-.315 1.651-.165.71.089 2.007.428 2.643.33.683-.105 1.798.252 2.147-.33.198-.331.494-1.308.99-1.651.158-.11 1.493-2.328 2.148-1.487.49.63.166 1.127 1.156 1.487.919.334 1.106.273 1.816.66.222.121.909 1.734 1.817.991.606-.495 1.074-1.734 1.817-1.486.495.165.982.633 1.486.495.606-.165 1.665-1.104 1.817-.495.14.557.581.065.33 1.321-.11.55-.851 1.443-.33 1.652.06.024 1.372.194 1.651.66.259.431.445 1.288.991 1.652.336.223.708 1.77 1.487.99.571-.57 1.1-.43 1.156-1.155.066-.856.129-1.64.165-2.147.033-.469.403-2.17.165-2.313-.062-.037-1.51-.788-1.651-.99-.117-.167-1.822-.701-1.157-1.652.19-.27 1.088-1.379 1.157-1.652.137-.548 1.275-1.89.66-2.642-.581-.71-.186-1.6-1.486-1.817-.327-.054-1.93-.184-1.982-.33-.22-.606-.291-1.289-.66-1.817-.386-.55-1.415-1.031-1.157-1.651.444-1.066.18-1.151.826-1.982.085-.11 1.046-1.431 1.156-1.487.665-.332.56-.755 1.321-.66.748.093 1.169.5 1.322.165.317-.698.215-1.329.825-1.817.523-.417.977-1.217 1.652-1.32.763-.118 1.569.036 2.147-.331.918-.584 1.257-.356 1.817-1.156.513-.734.744-.965 1.156-1.652.394-.657.808-.467.99-1.651.12-.78.082-1.733.33-2.147.215-.357.416-1.652.992-1.652.103 0 1.457.045 1.651 0 .5-.115 1.988-.016 2.147-.495.212-.634.817-.967.66-1.982-.135-.883-.164-1.432-.33-2.147-.128-.555-.287-1.384-.495-2.147-.335-1.23.723-1.348-.495-1.817-.827-.318-1.513-.508-2.147-.826-.532-.265-1.428-.667-1.982-.99-.478-.28-1.79-.482-1.982-1.157-.228-.799-.101-1.613-.66-2.312-.578-.722-.331-1.368-1.322-1.651-.712-.204-1.77-.119-2.312-.661-.512-.512-1.16-.77-1.486-1.486-.245-.539-.362-1.25-.826-1.817-.498-.608-.827-1.09-1.487-1.817-.307-.338-.973-1.873-1.651-1.816-.127.01-1.749.32-1.982.165-.492-.328-1.605-.63-1.982-1.322-.318-.583-.445-.88-.99-1.816-.364-.623-.73-1.311-1.157-1.982-.337-.53-.94-1.167-1.156-1.817-.185-.556-.262-1.335-.66-1.982-.399-.646-.979-1.347-1.322-2.147-.178-.415-1.14-1.899-.99-2.312.191-.528.34-1.122.66-1.816.083-.18 1.128-1.901.99-2.147-.177-.32-.476-.939-.825-1.487-.484-.76-.465-1.126-1.156-1.817-.713-.712-1.05-.989-1.651-1.651-.428-.47-1.218-1.26-1.652-1.817-.302-.388-1.156-.964-1.156-1.486 0-.117.254-1.418 0-1.817-.33-.517-.473-1.224-1.156-1.817-.041-.035-.082-.083-.124-.123v-.506c.679.555 1.08.89 1.28 1.29.484.969 1.14.207 1.817.33l1.816.33c.617.113 1.347-1.224 1.817-1.65.486-.443.906-.907 1.321-1.322.622-.622 1.185-.97 1.817-1.486.734-.601 1.116-.71 1.817-1.157.978-.622 1.324-.189 2.312-.33.688-.098 1.604.268 1.982.33 1.172.196 1.233-.672 1.816-.99.294-.16 1.075-.837 1.487-1.157.735-.572.978-.88 1.651-1.486.753-.677.924-.924 1.321-1.321.636-.636 1.063-.531 1.652-.826.638-.319 1.126-.512 1.817-.826.074-.033 1.523-.457 1.651-.495.59-.177.55-1.101.826-1.652.198-.395 1.87-.4 2.312-.495.865-.185 1.465-.564 2.147-.826.436-.167 1.546-.386 1.982-.495 1.025-.257.695-.541 1.486-1.156.725-.564.906-.604 1.487-.991.264-.177 2.286 0 2.477 0 .481 0 1.464-1.318 1.652-1.487.278-.25 1.479-.941 1.816-1.156.77-.49 0-1.116 0-1.651 0-.69-.66-1.211-.99-1.817-.36-.657 1.43-.44 2.146-.66.522-.161 1.473.368 1.982.495 1.132.283.691.384 1.487.826.627.348.11 1.43.165 2.147.024.317 1.42.355 1.982.495.285.071-.512 1.407-.661 1.817-.265.73 1.426 1.167 1.817 1.486.85.696 1.307-.392 1.651-.495.558-.168.796-1.591.991-1.982.402-.803.442-1.547.66-2.312.174-.607.36-1.435.496-1.982.194-.774 0-1.118 0-2.147v-2.478c0-.592.446-1.336.66-1.981.272-.815-.352-1.762-.495-2.478-.086-.43-.762-1.398-.99-1.816-.353-.646.545-1.092.825-1.652.019-.984-.847-1.595-1.486-2.642-.225-.275-1.96-.302-2.147-.33a15.1 15.1 0 01-1.538-.341v-.774c.629.047.316-.24.712-.372.104-.035.304-1.825.33-1.982.114-.682-1.135-1.01-1.486-1.321-.672-.597-.213-.568-.495-1.321-.394-1.05-.809-1.01-1.322-1.652-.681-.852-.127-1.016-.165-1.321-.025-.198.874-1.456.991-1.652.406-.677.231-1.62.33-2.312.066-.457.489-1.465.661-1.982.127-.38-.247-1.727-.33-2.312-.043-.296.113-1.585.165-2.312.085-1.189-.091-1.094-.165-1.982-.018-.208-1.759-.959-1.817-.99-.369-.202-.649-1.428-.826-1.817-.412-.907-.316-1.475-.495-2.313-.109-.505.825-1.237.99-1.486.438-.656.223-1.557.331-2.312.077-.541-1.063-1.461-1.321-1.817-.512-.704-1.117-1.004-1.652-1.486-.7-.631-.846-1.164-1.321-1.817-.426-.585-1.483-.799-2.147-1.156-.746-.402-1.32-1.1-1.982-1.652-.678-.565-.952-.528-1.486-.825-1.069-.594 0-.992 0-1.982 0-.52 1.4-1.4 1.651-1.652.764-.764.721-1.442 1.156-2.312.332-.663.784-1.231 1.156-1.817.452-.71.544-1.414.826-2.147.499-1.296 1.06-1.818 1.156-1.981.034-.2-.63-1.764-.825-2.313-.435-1.216-.554-.62-1.043-.712.018-.037.032-.077.052-.113.106-.195.25-.754.495-1.487.132-.394-.677-1.626-.826-1.982-.318-.764-.11-1.652-.165-2.477-.03-.444-.57-1.566-.66-1.817-.257-.704-.263-1.573-.33-1.981-.011-.064-.013-.078-.021-.135a5.835 5.835 0 01-.31-.691c.547-1.422-.98-1.09-1.486-1.652-.232-.257-1.711.57-1.982.66-.395.132-1.055-1.355-1.156-1.485-.525-.674-1.287-.297-2.147-.496-.809-.186-.608-1.114-.991-1.817-.42-.767-.578-1.156-.826-1.651-.248-.495-.11-1.101-.165-1.652-.007-.064-1.182-1.772-1.321-1.982-.167-.25.652-1.973.794-2.28.374-.81-.766-.95-1.125-1.353-.331-.373-1.712-.132-2.147-.165-.56-.043-1.1-.22-1.651-.33-.616-.123-.771.99-1.156 1.486-.433.557-.881-1.101-1.322-1.652-.425-.531-1.32-.33-1.981-.495-.224-.056-1.406-.766-1.817-.99-.601-.329-1.284-.584-1.817-.827-.925-.42-.138-.968-.165-1.156-.057-.399.064-.578.165-1.486.051-.46-.58-1.74-.66-1.982-.19-.568-.772.551-1.157.826-.326.233-.77-.22-1.156-.33-.603-.173-.99.77-1.486 1.156-.19.147-1.769-.737-1.982-.826-.522-.218-1.1.2-1.817.33-.66.12-.558.745-.99 1.321-.45.6-.512 1.406-.661 1.817-.254.699-.79 1.265-.826 1.321-.3.48-.55-.99-.826-1.486-.143-.258.87-1.74.991-1.982.27-.54 1.224-1.101 1.652-1.486.55-.495 1.43-.44 2.147-.661.803-.247 1.605-.344 2.312-.495.827-.178 1.54-.593 2.147-.826.31-.12-1.656 0-1.982 0-.664 0-1.53.218-2.312.33-.963.138-1.331-.555-1.982-.826-1.143-.476-.749.075-1.651.165-.751.076-1.093.972-1.487 1.322-.49.436-.352 1.642-.495 2.312-.047.218-1.393 1.393-1.487 1.486l-1.32 1.321c-.761.761-.963 1.177-1.487 1.817-.453.554 0 1.432 0 2.147 0 .55-1.101 0-1.652 0-.041 0-.785-1.727-.826-1.817-.291-.641-.88 1.102-1.32 1.652-.674.841-1.09.218-1.652.33-.65.13-1.322-.11-1.982-.165-.506-.042-.991.22-1.487.33-.993.221-1.068.68-1.816 1.157-.363.23.55.66.825.99.782.938-.13.787-.33 1.982-.065.393-.436 1.2-.66 1.817-.41 1.128-.68.873-1.157 1.486-.263.34-.66-.55-.99-.825-.426-.355-1.032-1.032-1.157-1.156-.174-.175-1.526.693-1.816.825-.714.325-.225 0-.496 0-1.003 0-.377-.162-1.156-.495-.607-.26 0-1.321 0-1.982 0-1.39-1.516.138-1.816.165-.052.005-1.207 1.66-1.322 1.817-.34.467-1.426 1.167-1.816 1.486-.7.573-1.072 1.072-1.652 1.652-1.054 1.054-.272.705-.485 1.435-.26-.433-.523-.851-.671-1.105-.27-.462-.268-.357-.495-.66-.252-.336.33-.771.495-1.157.441-1.03.542-.697 1.156-1.486.443-.57.751-.858 1.156-1.321.22-.251-.474-1.187-.66-1.652-.146-.363-.92-.526-1.157-.66-.628-.36.22-1.432.33-2.147.248-1.606.757.252.992.33 1.534.511.368-.04 1.486-.165.69-.077.872-1.37 1.156-1.817.428-.673.884-1.105 1.321-1.651.376-.47.473-.946.826-1.652.154-.308-.288-1.728-.33-1.982-.187-1.12-.497-.993-.826-1.651-.256-.512-1.816 0-1.982 0-.842 0-.835 1.193-1.156 1.651-.515.737-1.576.657-1.982.826-.523.218-.72-.27-1.32-.496-.505-.188-1.22-.664-1.818-.99-.961-.525-.692-.692-1.486-1.487-.553-.553-1.318-.55-1.982-.826-1.176-.49-.607.912-.99 1.487-.426.638-1.076 1.075-1.322 1.321-.198.199-.55.11-.826.165-.71.142.22-1.431.33-2.147.097-.628-1.06-1.06-1.32-1.321-.553-.552-1.35 0-1.983 0-.771 0-1.67.223-2.477.33-.657.088.991-.88 1.487-1.321.8-.711 0-.925 0-1.486v-1.982c0-1.008-.735-.44-.826-.496-.528-.316-.55 1.101-.826 1.652-.257.514-1.101.33-1.652.495-.425.128-.88-.11-1.32-.165-.055-.007-.11 0-.166 0-.606 0 .118-.047.826-.33.823-.33 1.169-1.169 1.651-1.652.597-.596.92-.715 1.487-1.156.374-.29.77-.55 1.156-.826.428-.642.11-1.541.165-2.312.073-1.018-.282-.94-.495-1.651-.204-.679-1.49-.62-1.982-.826-.663-.276-2.098 0-2.312 0-.873 0-1.032-.825-1.652-1.321-.932-.746-.725 0-1.652 0-.627 0-.892 1.274-1.156 1.651-.805 1.15-.463.265-1.156.66-.164.095-1.733-1.01-1.982-1.155-.615-.36-1.769-.758-2.312-.991-.701-.3-1.23-.615-1.982-.991-1.085-.543-1.236 0-1.651 0-.474 0-.55.77-.826 1.156-.052.073-1.731-1.102-1.817-1.156-.472-.3-1.735-.4-2.147-.495a.978.978 0 00-.206-.032zm-2.519 4.935a.214.214 0 00-.082.01c-.384.099-1.321.95-1.817 1.197-.617.309 1.211.66 1.817.991.582.318.11-1.321.165-1.982.025-.136-.01-.206-.083-.216zm-3.478.753c-.196-.049-.375 1.41-.568 1.94-.289.795.198.991.33 1.652.098.486.991 0 1.487 0 .444 0 .77-.44 1.156-.66.687.374-1.211-.991-1.817-1.487-.364-.298-.33-.88-.495-1.321-.028-.075-.065-.117-.093-.124zm89.998.61c-.51.039-1.062.198-1.218.175-1.156-.178-1.041.81-1.486 1.156-.34.264-.55.66-.826.99-1.03 1.236.25.625.33.826.214.534 1.102.33 1.652.496.382.114.672.402.97.681-.323.013-.898.867-1.3 1.135-.392.261-.881-.33-1.321-.495-.57-.214-1.055.923-1.322 1.156-.423.37.741 1.482.826 1.652l.826 1.651c.35.7-.929.929-1.156 1.156-.482.482.33 1.321.495 1.982.348 1.39.413.471 1.156 1.321.092.105 1.912.589 2.147.66 1.619.499.748-.58 1.487-1.155.508-.396.44-1.211.66-1.817 1.628-1.093 1.848-.98 2.808-.165.566.242-.22 1.211-.33 1.817-.11.605 1.642.369 1.92-.186.146-.244 1-1.073 1.052-1.136.142-.17-.571-1.572-.66-1.816-.139-.381-1.269-1.128-1.487-1.321-.687-.611-.73-1.043-1.156-1.652-.675-.965.78-1.558.991-1.982.564-1.127-.855-1.22-1.156-1.651-.066-.096-1.443-.263-1.816-.33-1.207-.22-.743-.558-1.322-.992-.442-.332.11-1.1.165-1.651.047-.465-.419-.546-.929-.506zm-84.517 4.004a.275.275 0 00-.083.01c-.452.124-.906 1.34-1.011 1.445-.59.59.307.539.66 1.157.357.623 1.212-.771 1.817-1.157.585 0-.77-.88-1.156-1.32-.075-.086-.149-.13-.227-.135zm84.136.496c.05.044.101.094.154.134.754.565.497.568 1.156 1.32.433.496.259 1.423.33 1.818.116.631-.66-1.101-.99-1.652-.42-.7-.62-1.514-.65-1.62zm-80.864 1.29c-.372.08.547 1.135.754 1.651.2.5.573-.707.887-1.31-.176.007-.503-.082-.836-.176h.94c.187-.28-.548-.078-.991-.02a4.324 4.324 0 00-.661-.145.316.316 0 00-.093 0zm1.744.165c-.031.048-.07.11-.103.175.119-.005.178-.045.103-.175zm38.73-.083c-.402.035-.963.62-1.24.744-.628.279-.33 1.324-.495 1.981-.037.15 1.41.784 1.486.826.33.183.9 1.651.991 1.817.295.54.22-1.211.33-1.817.029-.156 1.07-.127 1.683-.165 1.14-.855-.71-1.36-1.022-1.982-.355-.71-.967-.86-1.486-1.321a.322.322 0 00-.248-.083zm50.061 11.386c-.394.036-.672.658-.877.733-.696.38-.655 3.23.155 2.332.356.475.44 1.101.66 1.652.26.65.62-.991 1.115-1.487.728-.727.566.486 1.156.991.66.567-.45 1.649-.495 1.817-.165.606-1.211-.33-1.817-.495-.26-.071.312 1.87.33 1.981.125.748 1.225.857 1.652 1.157.355.248 1.895-.271 2.312-.33 1.538-.22.557-.418 1.321-.992.024-.018.47-2.032.496-2.147.673-.122-1.652-1.802-1.817-1.982-.318-.346-.88-.33-1.321-.495-.374-.12-.632-.722-1.156-1.321-.528-.603-.836-.774-1.28-1.218-.16-.16-.302-.209-.434-.196zM93.7 46.833c.269.794.312 1.43-.33 2.053-.017.023-.034.042-.052.062.075-.268.127-.568.382-.887.209-.26.13-.772 0-1.229zM7.748 144.644h.041v.01c-.012-.003-.027-.008-.041-.01zm.02 23.627l.052.02c.207.087.331.12.423.125v.154c-.176-.06-.317-.183-.474-.299z" fill="#E4E4E7" fillRule="nonzero"/></svg>