<svg xmlns="http://www.w3.org/2000/svg" width="128" height="128" viewBox="0 0 128 128">
  <path class="fill-gray" d="M110.160436,74.2749673 C107.458605,70.6725254 104.756773,70.6725254 98.1522379,74.1249242 L96.5010601,75.1425085 L96.5010601,48.9078312 L102.505071,48.9078312 C103.10542,48.9078312 103.705944,48.607569 103.855987,48.0072207 C104.00603,47.4068724 103.855987,46.8063481 103.405682,46.3560429 L76.3875436,22.0395603 C71.7344482,17.9868132 64.9798697,17.9868132 60.4768174,22.0395603 L33.6085465,46.506086 C33.1582413,46.9563912 33.0081982,47.5567396 33.1582413,48.1572638 C33.3082844,48.607569 33.9088086,49.0578743 34.509157,49.0578743 L40.6633871,49.0578743 L40.6633871,69.0422798 C37.1244453,69.9092933 33.7019497,71.8144714 31.5072394,73.2165741 L31.5072394,70.0721771 L21,70.0721771 L21,109.098689 L31.5070635,109.098689 L31.5070635,104.595637 L51.0202316,104.595637 C54.0223251,104.595637 57.1744617,104.295375 60.1763793,103.995289 L79.6895475,100.993195 C80.4401148,100.993195 81.1905063,100.843152 81.7910305,100.692933 C83.5922514,100.392671 85.2434293,99.4920603 86.7443881,98.1411446 L109.409693,80.2789784 C111.211266,78.7780196 111.511352,76.0761882 110.160436,74.2749673 Z M38.411861,46.0557808 L62.4280814,24.2910865 C65.8804802,21.288993 70.9838808,21.288993 74.2860606,24.2910865 L98.302281,46.0557808 L94.6998391,46.0557808 C93.7992287,46.0557808 93.1988803,46.6561291 93.1988803,47.5567396 L93.1988803,77.1773253 L85.2434293,82.0800235 C83.4782679,83.1097449 79.550762,83.4184502 75.8623048,83.4304115 C76.5110258,82.1076398 76.1877207,80.5020203 74.8864089,78.4775816 C72.4848396,75.0251829 68.4320925,72.9238757 64.0790833,72.9238757 L63.9290402,72.9238757 L58.2251153,72.9238757 C55.0729787,72.9238757 52.0708852,72.0232652 49.6693159,70.2220443 C48.0181381,69.0211717 46.066874,68.4208234 43.6653047,68.5708665 L43.6653047,47.5569155 C43.6653047,46.656305 43.0649564,46.0559567 42.1643459,46.0559567 L38.411861,46.0559567 L38.411861,46.0557808 Z M28.5051458,106.096596 L24.0020935,106.096596 L24.0020935,73.0740947 L28.5051458,73.0740947 L28.5051458,75.3256209 L28.5051458,104.595461 L28.5051458,106.096596 Z M46.066874,71.9268718 C46.6659911,72.1078734 47.2218366,72.3835094 47.7184036,72.7738326 C50.5702781,74.8753156 54.17272,76.0760123 58.075424,76.0760123 L63.929392,76.0760123 C67.3817908,76.0760123 70.3837084,77.5769711 72.4851914,80.5790647 C72.8885312,81.1839864 73.0878265,81.7882046 73.1302185,82.2110693 C73.1219512,82.2786151 73.1073514,82.3364864 73.0855398,82.3802856 C72.7852777,82.9806339 71.2843188,83.5811582 68.7325306,83.5811582 C68.3805537,83.5811582 68.0751905,83.6969007 67.8327996,83.8814203 L54.3225872,83.8814203 C49.6694918,83.8814203 46.8174414,86.1329465 46.8174414,89.8854314 C46.8174414,90.7860419 47.4177897,91.3863902 48.3184002,91.3863902 C49.2190106,91.3863902 49.819359,90.7860419 49.819359,89.8854314 L49.819706,89.7817498 C49.827513,88.9473218 50.0109782,86.8833379 54.3224113,86.8833379 L69.7828323,86.8833379 L69.7828323,86.8833379 C76.8376729,87.033381 83.4420324,86.8833379 86.8944312,85.082117 L99.8032398,77.1266659 C106.107513,73.9745293 106.707861,74.7250966 107.908734,76.5263176 C108.209172,76.9767987 108.209172,77.8774092 107.608824,78.3277144 L84.7932999,96.0396616 L84.6432568,96.1897047 C83.5926032,97.0903152 82.5417738,97.6906635 81.3410771,97.8408825 L81.191034,97.8408825 C80.5906856,97.9909256 80.1403804,97.9909256 79.5398561,97.9909256 L59.7264259,100.993019 C56.8745514,101.443324 53.8724579,101.593367 51.0205834,101.593367 L31.5072394,101.593367 L31.5072394,76.8265797 C33.7895481,75.2098784 37.999902,72.6902799 41.8480769,71.899959 C42.0435023,71.945869 42.2538793,71.9435823 42.464784,71.8732221 C43.8318825,71.6909892 45.0318756,71.6763895 46.066874,71.9268718 Z M78.0387214,56.5630201 C81.3409012,56.5630201 84.0427326,59.2648515 84.0427326,62.5670313 C84.0427326,65.869211 81.3409012,68.5710424 78.0387214,68.5710424 C74.7365417,68.5710424 72.0347103,65.869211 72.0347103,62.5670313 C72.0347103,59.2648515 74.7365417,56.5630201 78.0387214,56.5630201 Z M83.5924273,39.0009401 C84.1552539,39.5639316 84.1904306,40.3906708 83.6979573,40.9864858 L83.5924273,41.1024232 L56.5741134,68.1207372 C56.2740272,68.4209993 55.973765,68.5710424 55.5234598,68.5710424 C55.0731546,68.5710424 54.7728924,68.4209993 54.4726303,68.1207372 C53.9098038,67.5577457 53.8746271,66.7310065 54.3671003,66.1351915 L54.4726303,66.0192541 L81.4909443,39.0009401 C82.0914685,38.4005918 82.992079,38.4004159 83.5924273,39.0009401 Z M78.0387214,59.5649377 C76.3875436,59.5649377 75.0366279,60.9158534 75.0366279,62.5670313 C75.0366279,64.2182091 76.3875436,65.5691248 78.0387214,65.5691248 C79.6898993,65.5691248 81.040815,64.2182091 81.040815,62.5670313 C81.040815,60.9158534 79.6898993,59.5649377 78.0387214,59.5649377 Z M60.0265121,38.5508108 C63.3286919,38.5508108 66.0305233,41.2526422 66.0305233,44.554822 C66.0305233,47.8570017 63.3286919,50.5588331 60.0265121,50.5588331 C56.7243324,50.5588331 54.022501,47.8570017 54.022501,44.554822 C54.022501,41.2526422 56.7243324,38.5508108 60.0265121,38.5508108 Z M60.0265121,41.5527284 C58.3753343,41.5527284 57.0244186,42.9036441 57.0244186,44.554822 C57.0244186,46.2059998 58.3753343,47.5569155 60.0265121,47.5569155 C61.6776899,47.5569155 63.0286056,46.2059998 63.0286056,44.554822 C63.0286056,42.9036441 61.6776899,41.5527284 60.0265121,41.5527284 Z"/>
</svg>
