<svg xmlns="http://www.w3.org/2000/svg" width="128" height="128" viewBox="0 0 128 128">
  <g>
    <polygon class="fill-primary" points="82 22 116 22 116 56 103.538 56 103.538 78.429 97.741 78.429 95.873 56 82 56"/>
    <path class="fill-gray" fill-rule="nonzero" d="M117.648418,86.6587109 L117.153418,85.8371484 C115.28793,82.7414648 112.184941,80.5616602 108.640234,79.856543 L104.594512,79.0519531 L104.594512,58.5457617 L115.064277,58.5457617 C117.22002,58.5457617 118.973574,56.7919922 118.973574,54.6364648 L118.973574,24.1176953 C118.973574,21.9619531 117.219805,20.2083984 115.064277,20.2083984 L84.5455078,20.2083984 C82.3897656,20.2083984 80.6362109,21.962168 80.6362109,24.1176953 L80.6362109,35.6945508 C80.6362109,36.5599414 81.3376758,37.2616211 82.2032812,37.2616211 C83.0688867,37.2616211 83.7703516,36.5599414 83.7703516,35.6945508 L83.7703516,24.1176953 C83.7703516,23.6901562 84.1181836,23.3423242 84.5457227,23.3423242 L115.064707,23.3423242 C115.492246,23.3423242 115.840078,23.6901562 115.840078,24.1176953 L115.840078,54.6366797 C115.840078,55.0642187 115.492246,55.4120508 115.064707,55.4120508 L84.5455078,55.4120508 C84.1179687,55.4120508 83.7701367,55.0642187 83.7701367,54.6366797 L83.7701367,35.8820117 C83.7701367,35.0166211 83.0686719,34.3149414 82.2030664,34.3149414 C81.3374609,34.3149414 80.6359961,35.0166211 80.6359961,35.8820117 L80.6359961,54.6366797 C80.6359961,56.7924219 82.3897656,58.5459766 84.545293,58.5459766 L96.4177734,58.5459766 L96.4177734,77.4262305 L94.3380859,77.0126562 C91.4677734,76.4418164 88.6694336,74.7095312 86.814043,73.455918 L76.4491211,66.4539453 C72.5056641,63.7900977 67.9060742,62.3820117 63.1472852,62.3820117 L44.1228711,62.3820117 C37.7925,62.3820117 31.8363867,64.8426172 27.3519531,69.310293 C24.5142969,72.1374219 20.9423047,74.0656445 17.0220508,74.8867773 L14.772207,75.3579297 C11.4275195,76.0583203 9,79.0472266 9,82.4645312 L9,97.6410937 C9,99.4513672 10.0688477,101.096426 11.7233594,101.831621 L17.965,104.605684 C18.3424805,106.579453 19.2933789,108.464277 20.8183398,109.989238 C22.8449609,112.015859 25.5070898,113.029277 28.1694336,113.029277 C30.8317773,113.029277 33.4936914,112.015859 35.5205273,109.989238 C36.8239844,108.685781 37.7057031,107.118926 38.1708398,105.458828 L90.2137305,105.458828 C90.6788672,107.118926 91.5608008,108.685781 92.8642578,109.989238 C94.8279297,111.952695 97.4382813,113.034219 100.215352,113.034219 C102.992207,113.034219 105.602988,111.95291 107.56666,109.989238 C108.870117,108.685781 109.751836,107.118926 110.216973,105.458828 L113.189766,105.458828 C116.39373,105.458828 119.00043,102.852129 119.00043,99.6481641 L119.00043,91.5201953 C119.00043,89.8070312 118.5325,88.1260937 117.648418,86.6587109 Z M99.5519141,58.5457617 L101.460586,58.5457617 L101.460586,78.4286914 L99.5519141,78.0490625 L99.5519141,58.5457617 Z M33.3041992,107.77334 C31.9326367,109.144902 30.109043,109.900293 28.1692188,109.900293 C26.2293945,109.900293 24.4058008,109.144902 23.0342383,107.77334 C20.8340234,105.573125 20.3446094,102.30127 21.5636328,99.6230273 C21.5735156,99.601543 21.5829688,99.5798437 21.5928516,99.5583594 C21.6300195,99.4788672 21.6693359,99.4002344 21.7095117,99.3220312 C21.728418,99.2850781 21.7473242,99.2483398 21.7670898,99.2118164 C21.8033984,99.1439258 21.8412109,99.0764648 21.8798828,99.0094336 C21.9065234,98.9632422 21.9338086,98.9174805 21.9615234,98.8719336 C21.9974023,98.8128516 22.0337109,98.7539844 22.0715234,98.6957617 C22.1056836,98.643125 22.140918,98.5911328 22.176582,98.5393555 C22.2118164,98.4880078 22.2468359,98.4364453 22.2833594,98.385957 C22.3252539,98.3281641 22.3688672,98.2714453 22.4126953,98.2147266 C22.4468555,98.1704687 22.4801563,98.1257812 22.5153906,98.082168 C22.5669531,98.0183594 22.6208789,97.9560547 22.6745898,97.89375 C22.7053125,97.8583008 22.7347461,97.8219922 22.7661133,97.7869727 C22.8460352,97.6982422 22.9283203,97.6112305 23.0129687,97.5259375 C23.0202734,97.5186328 23.0269336,97.5108984 23.0342383,97.5035937 C23.0503516,97.4874805 23.0673242,97.4724414 23.0836523,97.456543 C23.1554102,97.3860742 23.2275977,97.3164648 23.3012891,97.2496484 C23.3204102,97.2322461 23.3406055,97.2161328 23.3599414,97.1989453 C23.433418,97.1338477 23.5073242,97.0691797 23.5829492,97.0075195 C23.5900391,97.0017187 23.5975586,96.9963477 23.6046484,96.9905469 C26.2607617,94.8410352 30.0916406,94.8436133 32.7445313,96.9991406 C32.7475391,97.0017187 32.7507617,97.0038672 32.7539844,97.0064453 C32.8349805,97.0724023 32.9142578,97.141582 32.9931055,97.2116211 C33.0072852,97.224082 33.0218945,97.2358984 33.0358594,97.2485742 C33.1269531,97.3308594 33.2163281,97.4157227 33.3039844,97.5033789 C33.3985156,97.5979102 33.4896094,97.6952344 33.578125,97.7938477 C33.6170117,97.8372461 33.65375,97.8817187 33.6913477,97.9257617 C33.7373242,97.9794727 33.7835156,98.0333984 33.8277734,98.0881836 C33.8774023,98.1498437 33.9253125,98.2125781 33.9725781,98.2753125 C33.9992188,98.310332 34.0256445,98.3455664 34.0514258,98.3810156 C34.1087891,98.4600781 34.1646484,98.54 34.2185742,98.6209961 C34.2278125,98.6347461 34.2368359,98.6487109 34.2458594,98.6624609 C36.0892188,101.477988 35.7755469,105.301777 33.3041992,107.77334 Z M105.350117,107.77334 C103.97834,109.144902 102.154746,109.900293 100.214922,109.900293 C98.2750977,109.900293 96.4517187,109.144902 95.0801563,107.77334 C92.6083789,105.301777 92.294707,101.477344 94.1382813,98.6620312 C94.1470898,98.6484961 94.1558984,98.6349609 94.1649219,98.6216406 C94.2188477,98.5404297 94.2749219,98.460293 94.3325,98.3808008 C94.3580664,98.3455664 94.3842773,98.3107617 94.4107031,98.2761719 C94.4581836,98.2130078 94.5063086,98.1500586 94.5563672,98.0879687 C94.6004102,98.0336133 94.645957,97.980332 94.6917187,97.9270508 C94.7297461,97.8825781 94.7669141,97.8374609 94.8062305,97.7938477 C94.8947461,97.6952344 94.9858398,97.598125 95.0803711,97.5035937 C96.4519336,96.1320312 98.2753125,95.3766406 100.215137,95.3766406 C102.154961,95.3766406 103.978555,96.1320312 105.350117,97.5035937 C105.444648,97.598125 105.535742,97.6954492 105.624258,97.7940625 C105.663359,97.8374609 105.700098,97.8821484 105.73791,97.9264062 C105.783887,97.9799023 105.829863,98.0336133 105.873906,98.0881836 C105.92375,98.1500586 105.97166,98.212793 106.019141,98.2757422 C106.045566,98.3107617 106.071992,98.3457812 106.097773,98.3812305 C106.155137,98.4605078 106.211211,98.5402148 106.264922,98.6212109 C106.27416,98.6349609 106.283184,98.6487109 106.292207,98.6624609 C108.135137,101.477773 107.821465,105.301992 105.350117,107.77334 Z M100.214922,97.8808594 C101.485938,97.8808594 102.680684,98.3758594 103.57916,99.2745508 C104.477637,100.173027 104.972422,101.367773 104.972422,102.638574 C104.972422,103.909375 104.477637,105.104121 103.578945,106.002598 C102.680469,106.901074 101.485938,107.395859 100.214922,107.395859 C98.9441211,107.395859 97.749375,106.901074 96.8506836,106.002383 C94.9959375,104.147422 94.9959375,101.129297 96.8506836,99.2743359 C97.7495898,98.3756445 98.9441211,97.8808594 100.214922,97.8808594 Z M28.1692187,97.8808594 C29.4400195,97.8808594 30.6345508,98.3756445 31.533457,99.2743359 C33.388418,101.129297 33.388418,104.147422 31.533457,106.002383 C30.6349805,106.901074 29.4402344,107.395859 28.1694336,107.395859 C26.898418,107.395859 25.7036719,106.900859 24.8051953,106.002383 C23.9067187,105.103906 23.4117187,103.90916 23.4117187,102.638359 C23.4117187,101.367559 23.9067187,100.172812 24.8051953,99.2743359 C25.7036719,98.3758594 26.898418,97.8808594 28.1692187,97.8808594 Z M100.214922,101.015 C99.7813672,101.015 99.3735938,101.184082 99.0670117,101.490664 C98.434082,102.123594 98.434082,103.153555 99.0670117,103.786484 C99.3735938,104.093066 99.7813672,104.261934 100.214922,104.261934 C100.648691,104.261934 101.05625,104.093066 101.362832,103.786484 C101.669844,103.479687 101.838496,103.071914 101.838496,102.638574 C101.838496,102.204805 101.669629,101.797246 101.363047,101.490664 C101.05625,101.183867 100.648691,101.015 100.214922,101.015 Z M28.1692187,101.01457 C27.7354492,101.01457 27.3278906,101.183652 27.0213086,101.490234 C26.7145117,101.796816 26.5456445,102.204375 26.5456445,102.638145 C26.5456445,103.071914 26.7147266,103.479473 27.0213086,103.786055 C27.3278906,104.092852 27.7354492,104.261719 28.1692187,104.261719 C28.6027734,104.261719 29.0105469,104.092852 29.3171289,103.78627 C29.9500586,103.15334 29.9500586,102.123379 29.3171289,101.490234 C29.0105469,101.183437 28.6027734,101.01457 28.1692187,101.01457 Z M63.1479297,65.5157227 C67.2791602,65.5157227 71.2720312,66.7381836 74.6953516,69.0505469 L85.0602734,76.0525195 C87.1401758,77.4578125 90.3016016,79.4047266 93.7272852,80.0862109 L108.029434,82.9303125 C110.711113,83.4637695 113.058281,85.1126953 114.46959,87.4544922 L114.96459,88.2760547 C115.554766,89.2550977 115.866504,90.3770117 115.866504,91.5201953 L115.866504,99.6481641 C115.866504,101.124141 114.665312,102.325117 113.189336,102.325117 L110.609492,102.325117 C110.548047,100.05207 109.74582,97.8836523 108.30207,96.1058203 C108.292402,96.0937891 108.283164,96.0813281 108.273281,96.0692969 C108.183906,95.9603711 108.091309,95.8535937 107.997207,95.7474609 C107.973145,95.7203906 107.950371,95.6924609 107.926094,95.6653906 C107.826406,95.5556055 107.723281,95.4479687 107.618437,95.3418359 C107.600605,95.3237891 107.584277,95.3048828 107.56623,95.2870508 C106.216152,93.9371875 104.560352,93.0041211 102.75502,92.5529492 C101.934316,92.3477734 101.082891,92.2422852 100.214922,92.2422852 C99.5207617,92.2422852 98.8369141,92.3099609 98.1708984,92.441875 C96.1730664,92.8380469 94.336582,93.8145117 92.8638281,95.2870508 C92.8462109,95.304668 92.8300977,95.3231445 92.8126953,95.3409766 C92.7074219,95.4477539 92.6038672,95.5556055 92.5039648,95.6658203 C92.480332,95.6918164 92.458418,95.7188867 92.4352148,95.7450977 C92.3402539,95.8520898 92.246582,95.9599414 92.1565625,96.0699414 L92.1301367,96.103457 L92.1301367,96.103457 C90.6853125,97.8815039 89.8822266,100.051211 89.8205664,102.325117 L38.5635742,102.325117 C38.5019141,100.048418 37.6971094,97.8761328 36.2486328,96.096582 C36.2419727,96.0882031 36.2355273,96.0798242 36.2288672,96.0714453 C36.1343359,95.9558594 36.0361523,95.8426367 35.93625,95.7304883 C35.9177734,95.7098633 35.9005859,95.6885937 35.8818945,95.6679687 C35.7648047,95.5388477 35.6444922,95.4116602 35.5200977,95.2872656 C35.0134961,94.7806641 34.4669336,94.3372266 33.8909375,93.957168 C32.1623047,92.817207 30.1657617,92.2472266 28.1692187,92.2472266 C25.5070898,92.2472266 22.8447461,93.2606445 20.818125,95.2872656 C20.7023242,95.4030664 20.5903906,95.521875 20.4808203,95.6421875 C20.4483789,95.6778516 20.4172266,95.7141602 20.3852148,95.7500391 C20.3078711,95.8374805 20.2318164,95.9257812 20.1576953,96.0151562 L20.0597266,96.1352539 L20.0597266,96.1352539 C19.9830273,96.2308594 19.9082617,96.3275391 19.8352148,96.425293 C19.8124414,96.4558008 19.7890234,96.4856641 19.7668945,96.5163867 C19.5705273,96.7851562 19.3883398,97.0623047 19.2199023,97.346543 L19.2059375,97.3706055 L19.2059375,97.3706055 C19.1236523,97.5104687 19.0448047,97.6522656 18.9693945,97.7955664 C18.9672461,97.7996484 18.9650977,97.8039453 18.9627344,97.8080273 C18.4163867,98.8476562 18.0490039,99.9721484 17.8805664,101.138535 L12.9965234,98.9677539 C12.4727344,98.7348633 12.1343555,98.214082 12.1343555,97.6410937 L12.1343555,82.4645312 C12.1343555,80.5221289 13.5142969,78.8233594 15.4154492,78.4250391 L17.665293,77.9538867 C22.1813086,77.0079297 26.2959961,74.7866602 29.5646289,71.5302734 C33.4575977,67.6516992 38.6280273,65.5157227 44.1235156,65.5157227 L63.1479297,65.5157227 Z M100.946895,29.1441797 L95.5777344,29.1441797 C94.7761523,29.1441797 94.2686914,29.6518555 94.2686914,30.2128125 L94.2684766,30.2128125 L94.2684766,47.5762695 C94.2684766,48.2975 95.1233398,48.671543 96.0048438,48.671543 C96.859707,48.671543 97.7412109,48.2977148 97.7412109,47.5762695 L97.7412109,41.3788867 L100.73334,41.3788867 C104.259355,41.3788867 107.010859,39.6958008 107.010859,35.3149219 L107.010859,35.1548633 C107.010859,30.7737695 104.339492,29.1441797 100.946895,29.1441797 Z M103.53791,35.5821875 C103.53791,37.6657422 102.469492,38.6542383 100.733125,38.6542383 L97.7412109,38.6542383 L97.7412109,32.1895898 L100.733125,32.1895898 C102.469492,32.1895898 103.53791,33.1780859 103.53791,35.2616406 L103.53791,35.5821875 Z M86.1121484,79.2794727 C85.4341016,78.9062891 84.7650781,78.4976562 84.1239844,78.0645312 L73.7588477,71.0623437 C70.6131055,68.9371094 66.9435742,67.8139062 63.1472852,67.8139062 L44.1226563,67.8139062 C39.0727539,67.8139062 34.3212695,69.7769336 30.7432617,73.3411914 C28.9041992,75.1735937 26.809043,76.7062891 24.5160156,77.8969531 C23.1599219,78.6012109 22.3175195,79.987168 22.3175195,81.5140625 C22.3175195,83.7626172 24.1466992,85.5917969 26.3952539,85.5917969 L32.8813867,85.5917969 C33.7467773,85.5917969 34.448457,84.8901172 34.448457,84.0247266 C34.448457,83.1593359 33.7467773,82.4576562 32.8813867,82.4576562 L26.3952539,82.4576562 C25.8749023,82.4576562 25.4514453,82.0341992 25.4514453,81.5138477 C25.4514453,81.1612891 25.6463086,80.8411719 25.9601953,80.6783203 C28.5363867,79.3407031 30.89,77.6189453 32.9550781,75.5613867 C35.9414063,72.5862305 39.9074219,70.947832 44.1224414,70.947832 L48.3817188,70.947832 L48.3817188,82.4576562 L43.175625,82.4576562 C42.3102344,82.4576562 41.6085547,83.1593359 41.6085547,84.0247266 C41.6085547,84.8901172 42.3102344,85.5917969 43.175625,85.5917969 L86.1439453,85.5917969 C87.4321484,85.5917969 88.4801563,84.5437891 88.4801563,83.2555859 C88.4801563,81.6060156 87.5726563,80.0823437 86.1121484,79.2794727 Z M51.5162891,82.4578711 L51.5162891,70.9480469 L63.1475,70.9480469 C66.3162305,70.9480469 69.379043,71.885625 72.0046484,73.659375 L82.3697852,80.6615625 C83.0895117,81.1477539 83.8403906,81.6066602 84.6022266,82.0256055 C84.7994531,82.1341016 84.964668,82.2832031 85.0888477,82.4578711 L51.5162891,82.4578711 L51.5162891,82.4578711 Z"/>
  </g>
</svg>
