<svg xmlns="http://www.w3.org/2000/svg" width="128" height="128" viewBox="0 0 128 128">
  <g>
    <rect width="78" height="19" x="26" y="11" class="fill-primary"/>
    <path class="fill-gray" fill-rule="nonzero" d="M103.598044,60.2987778 L65.727,60.2987778 C64.7142667,60.2987778 63.8936667,61.1196222 63.8936667,62.1321111 L63.8936667,103.899844 C63.8936667,104.912333 64.7142667,105.733178 65.727,105.733178 L103.598044,105.733178 C104.610778,105.733178 105.431378,104.912333 105.431378,103.899844 L105.431378,62.1321111 C105.431378,61.1196222 104.610778,60.2987778 103.598044,60.2987778 Z M92.0514667,95.4970667 L92.0514667,95.4970667 C92.0514667,94.4845778 91.2306222,93.6637333 90.2181333,93.6637333 L79.1071556,93.6637333 C78.0946667,93.6637333 77.2738222,94.4845778 77.2738222,95.4970667 L77.2738222,95.4970667 C77.2738222,96.5095556 78.0946667,97.3304 79.1071556,97.3304 L82.8295556,97.3304 L82.8295556,102.066511 L73.9435111,102.066511 C73.1835333,97.6648 71.7503556,94.2887778 69.8972222,92.3192889 C74.8166667,87.9911556 77.6077333,76.1035778 78.0091111,63.9654444 L91.3161778,63.9654444 C91.7175556,76.1035778 94.5088667,87.9911556 99.4283111,92.3192889 C97.5751778,94.2887778 96.142,97.6648 95.3822667,102.066511 L86.4962222,102.066511 L86.4962222,97.3304 L90.2183778,97.3304 C91.2306222,97.3304 92.0514667,96.5095556 92.0514667,95.4970667 Z M101.764711,89.4827556 C100.5948,88.4248 99.2669778,86.3440889 98.0469556,82.8360667 C96.2991778,77.8107778 95.2270444,71.1662889 94.9852889,63.9654444 L101.764711,63.9654444 L101.764711,89.4827556 L101.764711,89.4827556 Z M74.3397556,63.9654444 C74.098,71.1660444 73.0261111,77.8105333 71.2783333,82.8360667 C70.0583111,86.3440889 68.7304889,88.4248 67.5605778,89.4827556 L67.5605778,63.9654444 L74.3397556,63.9654444 Z M67.5603333,95.1993333 C68.5376222,96.4374444 69.5640444,98.6856 70.2169556,102.066756 L67.5603333,102.066756 L67.5603333,95.1993333 Z M102,11 C103.104569,11 104,11.8954305 104,13 L104,29 C104,30.1045695 103.104569,31 102,31 L98,31 L98,35 L110.197556,35 C110.957701,35 111.632984,35.4679297 111.905367,36.1663196 L111.954378,36.309 L117.643578,55.3746889 C117.809311,55.9295778 117.702978,56.5301778 117.356844,56.9943778 C117.045544,57.4123778 116.572874,57.6757398 116.059298,57.7242322 L115.886756,57.7323556 L112.030889,57.7323556 L112.030889,114.196089 L117.166667,114.196089 C118.1794,114.196089 119,115.016933 119,116.029422 C119,116.991287 118.259409,117.780192 117.317057,117.856678 L117.166667,117.862756 L10.8333333,117.862756 C9.8206,117.862756 9,117.041911 9,116.029422 C9,115.067558 9.7405915,114.278652 10.6829429,114.202167 L10.8333333,114.196089 L15.9691111,114.196089 L15.9691111,57.7323556 L12.113,57.7323556 C11.5339111,57.7323556 10.9888,57.4585778 10.6429111,56.9943778 C10.3313911,56.5765978 10.2141091,56.0483338 10.3145875,55.5423448 L10.3561778,55.3746889 L16.0456222,36.309 C16.2631014,35.5809375 16.9044673,35.0675039 17.651684,35.0061687 L17.8024444,35 L31,35 L31,31 L27,31 C25.8954305,31 25,30.1045695 25,29 L25,13 C25,11.8954305 25.8954305,11 27,11 L102,11 Z M53.9601778,74.2316222 L28.4352889,74.2316222 L28.4352889,114.196089 L53.9601778,114.196089 L53.9601778,74.2316222 Z M108.364222,57.7323556 L19.6357778,57.7323556 L19.6357778,114.196089 L24.7686222,114.196089 L24.7686222,74.2316222 L23.4151333,74.2316222 C22.4530367,74.2316222 21.6643403,73.4908101 21.5878759,72.5486462 L21.5818,72.3982889 L21.5818,62.1321111 C21.5818,61.1702467 22.3223915,60.3813413 23.2647429,60.3048555 L23.4151333,60.2987778 L58.9800889,60.2987778 C59.9421856,60.2987778 60.7308819,61.0395899 60.8073463,61.9817538 L60.8134222,62.1321111 L60.8134222,72.3982889 C60.8134222,73.3601533 60.0728307,74.1490587 59.1304793,74.2255445 L58.9800889,74.2316222 L57.6268444,74.2316222 L57.6268444,114.196089 L108.364222,114.196089 L108.364222,57.7323556 Z M49.4472444,76.9738 C50.4597333,76.9738 51.2805778,77.7946444 51.2805778,78.8071333 L51.2805778,78.8071333 L51.2805778,103.899844 C51.2805778,104.912333 50.4599778,105.733178 49.4472444,105.733178 L49.4472444,105.733178 L32.9479778,105.733178 C31.9352444,105.733178 31.1146444,104.912333 31.1146444,103.899844 L31.1146444,103.899844 L31.1146444,78.8071333 C31.1146444,77.7946444 31.9352444,76.9738 32.9479778,76.9738 L32.9479778,76.9738 Z M101.764711,95.1995778 L101.764711,102.066511 L99.1083333,102.066511 C99.761,98.6858444 100.787422,96.4376889 101.764711,95.1995778 Z M47.6139111,80.6404667 L34.7813111,80.6404667 L34.7813111,102.066511 L47.6139111,102.066511 L47.6139111,80.6404667 Z M57.1467556,63.9654444 L25.2484667,63.9654444 L25.2484667,70.5649556 L57.1467556,70.5649556 L57.1467556,63.9654444 Z M108.831356,38.6666667 L104.132889,38.6666667 L107.892689,54.0656889 L113.426667,54.0656889 L108.831356,38.6666667 Z M32.3872222,38.6666667 L27.6413333,38.6666667 L23.8817778,54.0656889 L29.4629333,54.0656889 L32.3872222,38.6666667 Z M40.9022,38.6666667 L36.1194,38.6666667 L33.1951111,54.0656889 L38.8136667,54.0656889 L40.9022,38.6666667 Z M49.4120444,38.6666667 L44.6023556,38.6666667 L42.5138222,54.0656889 L48.1587778,54.0656889 L49.4120444,38.6666667 Z M57.9165111,38.6666667 L53.0909333,38.6666667 L51.8376667,54.0656889 L57.4987556,54.0656889 L57.9165111,38.6666667 Z M66.4153556,38.6666667 L61.5844,38.6666667 L61.1664,54.0656889 L66.8331111,54.0656889 L66.4153556,38.6666667 Z M74.9090667,38.6666667 L70.0834889,38.6666667 L70.5012444,54.0656889 L76.1623333,54.0656889 L74.9090667,38.6666667 Z M83.3974,38.6666667 L78.5879556,38.6666667 L79.8412222,54.0656889 L85.4861778,54.0656889 L83.3974,38.6666667 Z M91.8806,38.6666667 L87.0975556,38.6666667 L89.1863333,54.0656889 L94.8048889,54.0656889 L91.8806,38.6666667 Z M100.358667,38.6666667 L95.6127778,38.6666667 L98.5370667,54.0656889 L104.118467,54.0656889 L100.358667,38.6666667 Z M23.8671111,38.6666667 L19.1686444,38.6666667 L14.5730889,54.0656889 L20.1073111,54.0656889 L23.8671111,38.6666667 Z M95,31 L34,31 L34,35 L95,35 L95,31 Z M101,14 L28,14 L28,28 L101,28 L101,14 Z"/>
  </g>
</svg>
