<svg xmlns="http://www.w3.org/2000/svg" width="128" height="128" viewBox="0 0 128 128">
  <g class="fill-gray" transform="translate(14 28)">
    <path d="M55.2711719,78 C54.5185223,78 53.908499,77.3990777 53.908499,76.6576568 L53.908499,70.0296137 L46.4891996,70.0296137 C45.7365499,70.0296137 45.1265267,69.4286914 45.1265267,68.6872706 C45.1265267,68.6810063 45.1265267,68.674742 45.1265267,68.6684778 C45.1265267,68.6622135 45.1265267,68.6559492 45.1265267,68.649685 L45.1265267,62.0140352 L37.714949,62.0220893 C37.6068436,62.0279061 37.4960129,62.0100082 37.392904,61.9862935 C36.8587362,61.8592183 36.4508428,61.4310109 36.3627233,60.8963108 C36.3618149,60.886467 36.3613607,60.8851246 36.3613607,60.8837823 C36.3604522,60.873491 36.359998,60.8721487 36.359998,60.8712538 C36.3590895,60.860515 36.3590895,60.8596201 36.3590895,60.8582778 C36.3586353,60.8515661 36.3586353,60.8511186 36.3586353,60.8497763 C36.3581811,60.8430646 36.3581811,60.8421697 36.3581811,60.8412748 C36.3581811,60.8345631 36.3581811,60.8336682 36.3577269,60.8327733 C36.3577269,60.8211396 36.3577269,60.8206922 36.3577269,60.8197973 C36.3577269,60.8148754 36.3577269,60.8139805 36.3577269,60.8130856 C36.3577269,60.7974249 36.3577269,60.79653 36.3577269,60.7956351 C36.3577269,60.7844489 36.3577269,60.783554 36.3577269,60.7826591 C36.3577269,60.7755 36.3577269,60.7746051 36.3577269,60.7737102 C36.3577269,60.762524 36.3577269,60.7616291 36.3577269,60.7607342 C36.3577269,60.7540225 36.3577269,60.7526801 36.3577269,60.7517852 C36.3577269,60.7450735 36.3577269,60.7441786 36.3577269,60.7432837 C36.3577269,60.7320975 36.3577269,60.7312026 36.3577269,60.7303077 C36.3577269,60.7231486 36.3577269,60.7222537 36.3577269,60.7213588 C36.3577269,60.7074879 36.3577269,60.7070405 36.3577269,60.7061456 C36.3577269,60.6945119 36.3577269,60.693617 36.3577269,60.6927221 C36.3577269,60.685563 36.3577269,60.6846681 36.3577269,60.6837732 L36.3577269,54.0521505 L28.9261633,54.0521505 C28.1735137,54.0521505 27.5634905,53.4512282 27.5634905,52.7098073 C27.5634905,52.7075701 27.5634905,52.7048854 27.5634905,52.7026482 C27.5634905,52.7004109 27.5634905,52.6977262 27.5634905,52.695489 L27.5634905,46.0598393 L20.1455536,46.0678933 C19.3919956,46.0678933 18.7824266,45.4678659 18.7815181,44.7268925 C18.7806097,43.9859191 19.3901787,43.3841019 20.1428283,43.383207 L28.9243464,43.3738106 C29.2868174,43.3738106 29.6333905,43.5147566 29.8886646,43.7666697 C30.1443929,44.0185828 30.288382,44.3599854 30.288382,44.7161538 L30.288382,51.3670167 L37.7076814,51.3670167 C38.4603311,51.3670167 39.0703543,51.967939 39.0703543,52.7093599 L39.0703543,59.3360606 L46.4882911,59.3280066 C46.8507621,59.3280066 47.1973352,59.4689526 47.4526093,59.7208657 C47.7083375,59.9727787 47.8523266,60.3141814 47.8523266,60.6703497 L47.8523266,67.3449274 L55.2711719,67.3449274 C56.0238215,67.3449274 56.6338448,67.9458497 56.6338448,68.6872706 L56.6338448,75.3153137 L62.7531543,75.3153137 L62.7531543,31.6846863 L11.3626729,31.6846863 L11.3626729,30.3423432 L100,30.3423432 L100,75 C100,76.6568542 98.6568542,78 97,78 L55.2711719,78 L55.2711719,78 Z M93.2620369,75.3153137 L97.2742001,75.3153137 L97.2742001,31.6846863 L65.4785001,31.6846863 L65.4785001,75.3157611 L69.4906632,75.3157611 L69.4906632,43.3930509 C69.4906632,42.65163 70.1006864,42.0507077 70.853336,42.0507077 L91.8989099,42.0507077 C92.6515595,42.0507077 93.2615827,42.65163 93.2615827,43.3930509 L93.2615827,75.3153137 L93.2620369,75.3153137 Z M72.2160089,75.3153137 L91.0136772,75.3153137 L91.0136772,44.7349466 L72.2160089,44.7349466 L72.2160089,75.3153137 Z M84.5223785,49.6867014 C85.3384463,49.6867014 86,50.3482551 86,51.1643229 C86,51.9803907 85.3384463,52.6419444 84.5223785,52.6419444 L78.4776215,52.6419444 C77.6615537,52.6419444 77,51.9803907 77,51.1643229 C77,50.3482551 77.6615537,49.6867014 78.4776215,49.6867014 L84.5223785,49.6867014 Z M20.144191,35.4132682 C20.8968406,35.4132682 21.5068638,36.0141905 21.5068638,36.7556114 L21.5068638,44.7259976 C21.5068638,45.4669711 20.8968406,46.0678933 20.144191,46.0678933 C19.3915413,46.0678933 18.7815181,45.4669711 18.7815181,44.7255502 L18.7815181,38.0979545 L11.3626729,38.0979545 C10.6100232,38.0979545 10,37.4970322 10,36.7556114 C10,36.0141905 10.6100232,35.4132682 11.3626729,35.4132682 L20.144191,35.4132682 Z M87.2939841,29.8286732 L87.2939841,31.6184641 L77.2251943,31.6184641 L77.2251943,29.8286732 L87.2939841,29.8286732 Z"/>
    <path d="M91.591087,24.0625 L92.8084783,18.046875 L95.2173913,18.046875 L95.2173913,15.46875 L87.826087,15.46875 L87.826087,12.7608594 C90.7993478,12.1620898 93.0434783,9.55796875 93.0434783,6.4453125 C93.0434783,2.89136719 90.1178261,0 86.5217391,0 C82.9256522,0 80,2.89136719 80,6.4453125 C80,9.55796875 82.2441304,12.1620898 85.2173913,12.7608594 L85.2173913,15.46875 L77.826087,15.46875 L77.826087,18.046875 L80.235,18.046875 L81.4523913,24.0625 L75.6521739,24.0625 L24.3478261,24.0625 L18.5476087,24.0625 L19.765,18.046875 L22.173913,18.046875 L22.173913,15.46875 L14.7826087,15.46875 L14.7826087,12.7608594 C17.7558696,12.1620898 20,9.55796875 20,6.4453125 C20,2.89136719 17.0743478,0 13.4782609,0 C9.88217391,0 6.95652174,2.89136719 6.95652174,6.4453125 C6.95652174,9.55796875 9.20065217,12.1620898 12.173913,12.7608594 L12.173913,15.46875 L4.7826087,15.46875 L4.7826087,18.046875 L7.19152174,18.046875 L8.40891304,24.0625 L0,24.0625 L0,31.796875 L100,31.796875 L100,24.0625 L91.591087,24.0625 Z M82.6086957,6.4453125 C82.6086957,4.31298828 84.3641304,2.578125 86.5217391,2.578125 C88.6793478,2.578125 90.4347826,4.31298828 90.4347826,6.4453125 C90.4347826,8.57763672 88.6793478,10.3125 86.5217391,10.3125 C84.3641304,10.3125 82.6086957,8.57763672 82.6086957,6.4453125 Z M9.56521739,6.4453125 C9.56521739,4.31298828 11.3206522,2.578125 13.4782609,2.578125 C15.6358696,2.578125 17.3913043,4.31298828 17.3913043,6.4453125 C17.3913043,8.57763672 15.6358696,10.3125 13.4782609,10.3125 C11.3206522,10.3125 9.56521739,8.57763672 9.56521739,6.4453125 Z M82.8954348,18.046875 L90.1482609,18.046875 L88.9308696,24.0625 L84.1128261,24.0625 L82.8954348,18.046875 Z M24.3478261,26.640625 L24.3478261,29.21875 L14.7826087,29.21875 L14.7826087,26.640625 L24.3478261,26.640625 Z M26.9565217,26.640625 L36.5217391,26.640625 L36.5217391,29.21875 L26.9565217,29.21875 L26.9565217,26.640625 Z M39.1304348,26.640625 L48.6956522,26.640625 L48.6956522,29.21875 L39.1304348,29.21875 L39.1304348,26.640625 Z M51.3043478,26.640625 L60.8695652,26.640625 L60.8695652,29.21875 L51.3043478,29.21875 L51.3043478,26.640625 Z M63.4782609,26.640625 L73.0434783,26.640625 L73.0434783,29.21875 L63.4782609,29.21875 L63.4782609,26.640625 Z M75.6521739,26.640625 L85.2173913,26.640625 L85.2173913,29.21875 L75.6521739,29.21875 L75.6521739,26.640625 Z M9.85195652,18.046875 L17.1047826,18.046875 L15.8873913,24.0625 L11.0693478,24.0625 L9.85195652,18.046875 Z M2.60869565,26.640625 L12.173913,26.640625 L12.173913,29.21875 L2.60869565,29.21875 L2.60869565,26.640625 Z M97.3913043,29.21875 L87.826087,29.21875 L87.826087,26.640625 L97.3913043,26.640625 L97.3913043,29.21875 Z"/>
  </g>
</svg>
