<svg xmlns="http://www.w3.org/2000/svg" xmlns:xlink="http://www.w3.org/1999/xlink" width="300" height="240" viewBox="0 0 300 240">
  <defs>
    <rect id="spain-a" width="300" height="240" x="0" y="0"/>
  </defs>
  <g fill="none" fill-rule="evenodd">
    <mask id="spain-b" fill="#fff">
      <use xlink:href="#spain-a"/>
    </mask>
    <polygon fill="#E4E4E7" fill-opacity=".234" points="45.601 45.899 45.52 45.972 45.502 45.986 45.456 46.036 45.361 46.151 45.298 46.173 45.126 46.237 45.058 46.26 45.027 46.265 44.9 46.269 44.719 46.283 44.701 46.301 44.498 46.525 44.254 46.603 43.959 46.799 43.738 46.945 43.367 47.1 43.182 47.32 43.005 47.425 42.888 47.447 42.377 47.411 42.259 47.447 41.979 47.653 41.825 47.68 41.599 47.635 41.232 47.753 41.011 47.763 40.884 47.699 40.341 47.671 39.966 47.772 39.84 47.776 39.722 47.785 39.369 47.74 39.188 47.795 39.093 47.849 38.958 48.237 38.799 48.388 38.234 48.511 37.592 48.448 37.416 48.42 37.076 48.511 36.809 48.617 36.574 48.909 36.443 49.069 36.276 49.69 36.208 49.822 35.846 50.215 35.312 50.512 34.838 50.694 34.553 50.95 34.354 51.621 34.227 51.877 34.069 52.065 33.807 52.224 33.404 52.403 33.273 52.489 33.314 52.599 32.911 52.946 32.784 53.22 32.775 53.329 32.712 53.421 32.531 53.448 32.382 53.649 32.264 53.677 32.106 53.608 32.047 53.672 31.902 54.252 31.776 54.526 31.812 54.919 31.966 55.142 31.966 55.284 31.862 55.476 31.857 55.617 31.925 55.882 31.83 56.143 31.821 56.513 31.758 56.841 31.939 57.664 32.133 58.189 32.423 58.558 32.477 58.627 32.554 58.673 32.685 58.673 32.893 58.586 32.974 58.554 33.088 58.508 33.155 58.422 33.409 58.339 33.825 58.298 34.309 58.253 34.684 58.157 34.987 57.965 35.159 57.937 34.652 58.298 34.028 58.481 33.915 58.449 33.838 58.426 33.807 58.417 33.567 58.549 33.173 58.558 33.06 58.618 32.947 58.677 32.875 58.714 32.694 58.737 32.644 58.796 32.739 58.96 32.78 59.463 32.807 59.828 33.101 60.737 33.16 60.906 33.228 61.198 33.259 61.7 33.454 62.504 33.689 62.92 33.811 63.326 33.888 63.39 33.96 63.404 34.345 63.468 34.182 63.568 34.006 63.504 33.834 63.44 33.684 63.235 33.594 62.956 33.513 62.879 33.467 63.093 33.576 63.586 33.531 63.961 33.657 64.103 33.775 64.317 33.843 64.737 33.843 64.747 33.811 65.021 33.693 65.961 33.63 66.162 33.68 66.327 33.684 66.592 33.865 66.998 33.978 67.089 34.119 67.418 34.123 67.628 34.313 68.149 34.408 68.281 34.521 68.469 34.548 68.788 34.517 69.076 34.657 69.683 34.765 69.884 34.779 70.172 34.811 71.017 35 71.707 34.964 71.994 35.145 72.401 35.358 72.592 35.57 73.108 35.584 73.149 35.598 73.181 35.693 73.41 35.846 73.593 35.941 73.643 36.303 73.551 36.439 73.551 36.457 73.588 36.493 73.656 36.443 73.771 36.425 73.812 36.389 73.857 36.33 73.935 36.253 73.976 36.145 73.967 35.941 73.825 35.937 73.871 35.964 74.154 36.063 74.483 36.054 74.652 36.194 75.159 36.176 75.488 36.267 75.985 36.253 76.2 36.326 76.584 36.425 77.136 36.452 77.282 36.375 77.506 36.371 77.794 36.303 78.136 36.298 78.666 36.19 78.922 36.118 79.264 36.122 79.397 36.122 79.598 36.072 79.977 35.67 81.224 35.552 81.735 35.308 83.324 35.272 83.571 35.023 84.498 34.842 84.927 34.806 85.357 34.698 85.599 34.507 86.649 34.498 86.708 34.318 87.106 34.268 87.339 34.449 87.302 34.661 87.101 34.86 86.763 34.937 86.475 34.937 85.836 35.34 85.329 35.358 85.096 35.403 84.544 35.34 84.124 35.489 84 35.57 83.717 35.869 83.356 35.873 83.302 35.964 82.612 36.045 82.402 36.149 81.886 36.221 81.534 36.303 81.662 36.19 82.032 36.185 82.384 36 83.023 36.059 83.114 36.14 83.091 36.357 82.872 36.407 82.731 36.312 82.47 36.321 82.352 36.47 81.996 36.497 81.964 36.507 82.009 36.448 82.438 36.479 82.589 36.592 82.525 36.606 82.42 36.687 82.411 36.705 82.539 36.71 82.589 36.85 82.708 36.705 82.767 36.475 82.932 36.135 83.343 35.991 83.42 35.919 83.452 35.882 83.493 35.72 83.662 35.661 83.831 35.806 84.023 35.828 84.27 35.787 84.612 35.842 84.818 36.009 85.105 36.221 84.977 36.511 85.083 36.696 85.069 37.09 84.882 37.194 84.932 37.09 85.055 37.189 85.101 37.207 85.156 36.909 85.252 36.561 85.142 36.43 85.274 36.244 85.265 36.108 85.325 35.864 85.338 35.774 85.43 35.946 85.567 36.009 85.85 36.163 85.822 36.208 85.973 36.068 85.996 36.005 85.996 35.909 86.087 35.774 86.494 35.466 86.909 35.407 86.987 35.498 87.215 35.575 87.43 35.964 87.375 36.072 87.243 36.199 86.772 36.212 86.763 36.339 86.654 36.199 87.024 36.145 87.334 35.995 87.471 35.765 87.521 35.724 87.882 35.715 87.987 35.457 87.457 35.312 87.165 35.186 86.982 35.037 86.882 34.892 86.96 34.67 87.288 34.779 87.498 34.584 87.795 34.643 87.859 34.593 88.106 34.598 88.357 34.494 88.412 34.458 88.512 34.458 88.814 34.354 89.156 34.286 89.17 34.394 88.11 34.458 87.763 34.575 87.453 34.53 87.416 34.426 87.425 34.331 87.544 34.299 87.64 34.263 87.754 34.137 88.467 33.608 90.796 33.562 90.988 33.16 92.75 32.984 93.778 32.839 94.33 32.463 95.783 32.301 96.194 31.885 97.609 31.844 97.751 31.55 98.505 31.455 98.678 31.378 98.824 31.247 99.345 31.034 99.829 31.156 100.057 31.17 100.071 31.346 100.267 31.355 100.281 31.581 100.4 31.735 100.532 31.749 100.546 31.844 100.628 31.848 100.633 31.984 100.856 31.988 100.856 31.998 100.87 32.147 100.916 32.332 100.907 32.355 100.907 32.798 100.879 33.341 101.391 33.571 101.77 33.576 101.77 33.585 101.783 33.707 101.797 33.766 101.747 33.87 101.519 33.884 101.5 34.096 101.208 34.186 101.149 34.196 101.167 33.997 101.537 33.915 101.687 33.861 101.815 33.766 101.907 33.653 101.916 33.495 101.829 33.282 101.637 33.268 101.623 33.196 101.555 33.219 101.436 33.21 101.423 33.187 101.4 33.119 101.308 33.078 101.263 33.074 101.263 33.065 101.249 32.563 101.057 32.323 101.025 32.31 101.162 32.323 101.176 32.554 101.5 32.563 101.514 32.703 101.642 32.54 101.674 32.468 101.637 32.368 101.464 32.31 101.354 32.215 101.176 32.206 101.162 32.151 101.053 32.147 101.053 32.138 101.039 32.029 101.021 31.979 101.048 31.966 101.793 31.663 102.532 31.333 103.692 31.351 103.697 31.346 103.706 31.342 103.72 31.224 104.135 30.966 104.925 30.709 105.807 30.695 105.852 30.654 105.957 30.632 106.026 30.057 107.542 29.84 108.245 29.696 108.72 29.451 109.2 29.415 109.278 29.383 109.378 29.261 109.803 28.606 111.47 28.606 111.474 28.488 111.689 28.429 111.967 28.402 112.109 28.303 112.374 28.208 112.639 28.194 113.109 28.022 113.689 28.013 113.721 27.76 114.785 27.579 115.548 27.593 115.662 27.597 115.721 27.751 115.785 27.801 115.854 27.81 115.991 27.751 116.173 27.728 116.201 27.267 116.904 26.675 117.575 26.566 117.836 26.494 117.9 26.34 117.918 26.331 118.146 26.476 118.274 26.394 118.407 26.245 118.484 26.146 118.27 26.014 118.274 25.72 118.516 25.164 119.229 24.988 119.329 24.929 119.603 24.49 120.343 24.499 120.379 24.513 120.425 24.775 120.526 24.897 120.649 25.074 121.037 25.132 121.069 25.214 120.978 25.322 121.014 25.39 121.128 25.363 121.206 25.178 121.197 25.155 121.265 25.246 121.535 25.209 121.612 25.096 121.635 25.033 121.416 24.762 121.448 24.603 121.622 24.549 121.612 24.517 121.544 24.617 121.361 24.576 121.279 24.59 121.188 24.735 121.137 24.567 120.864 24.526 120.608 24.395 120.553 24.345 120.42 24.169 120.676 23.088 121.558 22.636 121.841 22.505 121.928 22.432 121.937 22.215 121.873 22.116 122.151 22.007 122.256 21.786 122.275 21.768 122.275 21.745 122.261 21.6 122.174 21.596 122.17 21.514 121.991 21.451 121.959 21.284 122.028 21.058 122.037 20.886 122.138 20.822 122.288 20.976 122.425 21.13 122.462 21.528 122.425 21.628 122.476 21.677 122.549 21.691 122.567 21.768 122.973 21.722 123.165 21.985 123.453 22.066 123.613 22.035 123.809 22.093 123.978 22.139 124.115 22.274 124.284 22.328 124.567 22.297 124.878 22.166 125.376 22.206 125.618 22.188 125.672 22.075 126.038 22.057 126.321 21.781 127.243 21.6 127.709 21.13 128.677 21.094 128.828 21.049 128.983 20.841 129.257 20.574 129.769 20.542 129.91 20.66 130.262 20.678 130.449 20.646 130.924 20.646 130.938 20.565 131.376 20.596 131.545 20.524 131.828 20.569 131.988 20.637 132.23 20.61 132.5 20.777 133.144 20.723 133.404 20.072 135.185 19.945 135.537 19.407 136.665 19.226 136.971 19 137.66 19.072 137.847 19.113 138.131 19.185 138.231 19.208 138.245 19.452 138.377 19.52 138.528 19.452 138.907 19.244 139.569 19.321 139.715 19.412 139.798 19.787 139.953 20.185 139.926 20.271 139.962 20.388 140.094 20.47 140.117 20.687 139.894 20.705 139.88 20.718 139.866 20.791 139.788 20.804 139.775 20.822 139.775 21.031 139.761 21.338 139.866 21.374 139.88 21.808 140.104 22.125 140.368 22.342 140.368 22.518 140.469 22.636 140.478 22.695 140.382 22.704 140.373 22.758 140.286 22.858 140.254 22.885 140.245 22.889 140.24 23.274 140.008 23.527 139.998 23.599 139.957 23.685 139.907 23.884 139.848 24.047 139.866 24.382 139.898 24.585 139.98 25.209 140.008 25.481 139.916 25.558 139.889 25.567 139.889 25.879 139.93 26.109 139.752 26.503 139.656 26.72 139.533 27.005 139.158 27.249 138.669 27.362 138.313 27.403 137.943 27.389 137.587 27.502 136.856 27.669 136.391 27.733 136.208 27.751 136.158 27.986 135.665 28.009 135.637 28.099 135.514 28.104 135.514 28.199 135.391 28.208 135.377 28.343 135.327 28.524 135.108 28.719 134.865 28.818 134.637 28.823 134.582 28.827 134.537 28.855 134.221 28.963 133.925 28.977 133.902 29.221 133.541 29.433 133.226 29.619 132.998 29.646 132.961 29.7 132.897 29.732 132.87 30.089 132.577 30.189 132.308 30.537 131.372 30.704 131.184 30.786 131.098 31.125 130.933 31.333 130.837 31.609 130.815 31.803 130.856 32.269 130.952 32.35 130.97 32.653 130.997 32.848 130.97 33.006 130.842 33.201 130.477 33.359 130.285 33.662 130.148 34.015 130.057 34.042 130.047 34.123 129.965 34.268 129.522 34.548 129.011 34.634 128.933 34.729 128.851 34.946 128.764 34.964 128.828 34.924 128.874 34.743 129.075 34.412 129.44 34.259 130.02 34.128 130.143 34.105 130.166 33.526 130.431 33.363 130.563 33.101 130.942 32.956 131.066 32.708 131.112 32.319 131.029 32.21 131.052 32.16 131.148 32.133 131.198 31.871 131.107 31.636 131.125 31.432 131.052 31.297 131.089 31.093 131.144 30.926 131.235 30.84 131.312 30.7 131.632 30.519 131.838 30.501 132.335 30.428 132.564 30.32 132.724 30.293 132.737 29.935 132.915 29.849 132.984 29.786 133.03 29.641 133.249 29.474 133.596 29.415 133.724 29.383 133.852 29.411 134.135 29.379 134.4 29.275 134.692 29.307 134.843 29.614 135.112 29.646 135.231 29.51 135.674 29.56 135.834 29.791 135.952 29.822 136.007 29.772 136.112 29.836 136.185 29.845 136.194 29.94 136.167 30.139 136.03 30.297 135.916 30.207 136.213 30.229 136.331 30.51 136.697 30.587 136.875 30.677 137.405 30.817 137.934 30.808 138.03 30.804 138.117 30.758 138.222 30.736 138.217 30.505 138.144 30.324 138.153 30.148 138.213 30.112 138.227 29.981 138.3 29.926 138.368 29.772 138.56 29.04 138.77 28.909 138.98 28.683 139.076 28.37 139.304 28.253 139.391 28.181 139.524 28.158 139.989 28.239 140.081 28.325 140.058 28.447 139.875 28.488 139.816 28.579 139.752 29.026 139.715 29.275 139.77 29.592 139.788 29.65 139.788 29.881 139.866 29.89 139.871 30.089 140.008 30.094 140.017 30.134 140.104 30.071 140.168 29.845 140.008 29.768 139.957 29.696 139.966 29.65 140.231 29.266 140.058 29.153 140.062 29.062 140.131 29.017 140.168 28.922 140.405 28.999 140.551 29.126 140.647 29.198 140.802 29.307 140.93 29.316 140.99 29.27 141.017 29.044 140.807 28.877 140.793 28.723 140.652 28.651 140.656 28.474 140.761 28.411 140.734 28.303 140.341 28.212 140.314 27.986 140.597 27.982 140.601 27.774 140.597 27.651 140.752 27.534 140.788 27.516 140.848 27.66 141.104 27.701 141.122 27.841 141.177 27.896 141.25 27.896 141.46 28.126 141.638 28.176 141.921 28.33 142.204 28.334 142.264 28.275 142.35 28.09 142.186 27.977 141.985 27.878 141.894 27.841 141.757 27.633 141.624 27.507 141.35 27.461 141.327 27.367 141.268 27.199 141.268 27.086 141.378 27.064 141.775 26.982 141.766 26.815 141.455 26.657 141.359 26.39 141.35 26.34 141.3 26.43 141.149 26.462 141.09 26.566 141.067 26.869 141.245 27.014 141.254 27.109 141.177 27.064 141.126 26.439 140.862 26.299 140.652 26.173 140.583 26.087 140.496 26.299 140.181 26.25 140.081 26.177 140.067 25.829 140.3 25.824 140.3 25.625 140.346 25.571 140.359 25.539 140.368 25.422 140.391 25.01 140.391 24.793 140.46 24.355 140.505 24.137 140.697 23.929 140.693 23.758 140.542 23.717 140.606 23.853 140.843 24.006 141.049 24.459 141.643 24.757 142.127 25.019 142.684 25.291 143.451 25.372 143.679 25.399 143.857 25.454 144.214 25.454 144.762 25.454 145.218 25.454 145.456 25.368 145.771 25.359 145.785 25.318 145.885 25.123 146.333 24.947 146.598 24.757 146.977 24.698 147.168 24.73 147.264 25.083 147.333 25.282 147.31 25.359 147.274 26.078 146.967 26.231 146.954 26.381 146.999 26.584 146.899 26.76 146.954 26.887 146.721 26.982 146.675 27.186 146.712 27.556 146.862 27.746 146.831 27.896 146.867 28.027 146.748 28.19 146.707 28.289 146.634 28.402 146.552 28.723 146.561 28.958 146.387 29.216 146.278 29.361 146.132 29.619 145.739 29.709 145.657 29.971 145.616 30.094 145.547 30.419 145.579 30.528 145.529 30.641 145.406 30.831 144.99 30.858 144.922 30.993 144.83 31.17 144.702 31.256 144.638 31.279 144.629 31.31 144.625 31.509 144.606 31.866 144.67 31.957 144.716 32.201 144.826 33.002 145.515 33.173 145.602 33.476 145.762 33.626 145.807 33.666 145.821 33.933 145.798 34.114 145.693 34.232 145.529 34.277 145.127 34.196 144.853 34.051 144.67 33.978 144.652 33.798 144.789 33.712 144.78 33.68 144.775 33.766 144.492 33.788 144.488 34.037 144.428 34.34 144.068 34.376 143.867 34.444 143.501 34.517 143.561 34.526 143.771 34.412 144.31 34.471 144.483 34.747 144.922 34.779 145.086 34.756 145.232 34.734 145.378 34.607 145.634 34.449 145.83 34.453 145.894 34.639 145.972 34.657 146.027 34.589 146.063 34.517 146.1 34.232 146.159 34.177 146.228 34.218 146.246 34.462 146.351 34.806 146.611 35.195 146.762 35.245 146.826 35.145 146.899 35.281 146.981 35.507 147.018 35.665 147.145 35.9 147.237 36.108 147.451 36.181 147.525 36.33 147.534 36.407 147.543 36.547 147.556 36.769 147.474 36.886 147.484 36.932 147.561 36.606 147.726 36.443 147.744 35.873 147.465 35.471 147.141 35.34 147.1 35.159 147.209 35.028 147.223 34.788 147.063 34.598 147.054 34.575 147.013 34.562 146.99 34.48 146.853 34.363 146.853 34.309 146.922 34.254 147.073 34.223 147.159 34.218 147.168 34.196 147.232 33.992 147.123 33.924 147.05 33.969 146.963 34.15 146.803 34.119 146.748 33.942 146.657 33.829 146.68 33.788 146.871 33.698 146.885 33.666 146.693 33.549 146.57 33.422 146.529 33.273 146.547 33.119 146.666 33.074 146.785 33.097 146.99 33.155 147.086 33.386 147.493 33.354 147.611 33.277 147.616 33.169 147.52 33.092 147.369 32.947 146.812 32.879 146.671 32.676 146.479 32.274 146.205 32.083 145.99 31.839 145.785 31.758 145.584 31.667 145.465 31.545 145.52 31.432 145.497 31.392 145.447 31.432 145.314 31.41 145.264 31.233 145.246 31.129 145.287 31.102 145.346 31.509 145.899 32.206 146.607 32.292 146.707 32.622 147.082 32.793 147.278 33.029 147.643 33.422 148.593 33.526 149.032 33.531 149.054 33.734 150.155 33.739 150.169 33.856 150.808 33.87 151.082 33.915 151.964 33.87 153.014 33.793 153.461 33.761 153.639 33.436 155.028 32.943 156.585 32.916 156.654 32.233 158.457 31.898 159.047 31.776 159.161 31.536 159.293 31.455 159.403 31.478 159.485 31.505 159.503 31.595 159.563 31.88 159.554 31.993 159.599 32.206 159.796 32.943 160.111 33.083 160.248 33.241 160.558 33.277 160.901 33.363 161.239 33.39 161.682 33.422 162.207 33.476 162.504 33.427 162.983 33.386 163.376 33.196 164.289 33.187 164.618 33.115 164.947 33.133 165.052 33.332 165.194 33.404 165.308 33.454 165.385 33.508 165.669 33.54 165.696 33.911 165.49 33.974 165.454 34.15 165.422 34.331 165.481 34.417 165.737 34.44 166.038 34.648 166.08 34.684 166.125 34.544 166.504 34.589 166.564 34.765 166.605 34.815 166.705 34.752 166.746 34.485 166.582 34.453 166.468 34.557 166.258 34.53 166.203 34.349 166.189 34.313 166.139 34.241 165.819 34.236 165.554 34.196 165.509 33.974 165.55 33.617 165.742 33.413 165.97 33.39 166.075 33.454 166.408 33.445 166.495 33.413 166.71 33.268 167.112 33.097 168.135 33.097 168.4 32.979 168.925 33.069 169.171 33.223 169.395 33.35 169.642 33.49 169.916 33.436 170.089 33.562 170.555 33.508 171.19 33.413 171.592 33.427 171.834 33.314 172.505 33.304 172.816 33.304 172.848 33.304 172.907 32.965 174.218 32.355 175.323 32.061 175.853 31.948 176.054 31.794 176.218 31.826 176.464 31.799 176.784 31.844 176.857 31.916 176.839 31.975 176.898 31.975 177.145 32.065 177.446 32.056 177.629 31.749 178.456 31.581 178.793 31.541 178.871 31.337 179.154 31.202 179.246 31.156 179.255 30.998 179.273 30.953 179.346 31.079 179.643 31.152 179.944 31.116 180.264 31.048 180.483 30.654 181.337 30.528 181.556 30.419 181.739 30.121 182.022 30.039 182.2 29.949 182.744 29.646 183.041 29.605 183.164 29.646 183.31 29.61 183.397 29.483 183.516 29.433 183.689 29.316 183.831 29.347 183.886 29.469 183.899 29.555 183.959 29.592 183.79 29.673 183.753 29.967 183.844 30.216 184.105 30.229 184.484 30.283 184.58 30.351 184.562 30.397 184.342 30.641 184.319 30.7 184.224 30.704 184.004 30.858 183.89 31.111 183.803 31.233 183.703 31.423 183.397 31.649 183.31 31.88 183.274 32.016 183.301 32.097 183.255 32.169 183.105 32.323 182.963 32.5 182.867 33.296 182.703 33.503 182.789 33.603 182.771 33.802 182.607 34.205 182.534 34.553 182.356 34.643 182.305 35.715 182.246 36.036 182.356 36.099 182.342 36.063 182.041 36.122 181.826 36.321 181.575 36.669 181.374 36.954 181.319 36.941 181.282 36.859 181.264 36.791 181.25 36.909 181.123 36.959 180.89 36.999 180.853 37.058 180.808 37.194 180.999 37.298 181.05 37.429 181.036 37.538 180.899 37.551 180.62 37.615 180.511 37.746 180.479 37.777 180.575 37.637 180.748 37.605 180.872 37.61 181.109 37.465 181.177 37.33 181.191 37.311 181.246 37.357 181.287 37.709 181.292 37.791 181.292 37.994 181.461 38.107 181.474 38.207 181.401 38.89 181.438 38.921 181.346 38.89 181.177 38.858 181.008 38.917 180.885 38.944 180.83 38.958 180.803 38.998 180.712 39.107 180.561 39.188 180.57 39.369 180.451 39.437 180.552 39.414 180.616 39.238 180.766 39.175 180.821 39.157 180.853 39.075 180.972 39.148 181.666 39.211 181.739 39.894 181.849 40.048 181.954 40.617 182.155 40.902 182.168 40.993 182.173 41.332 182.146 41.536 182.091 41.915 181.849 42.164 181.799 42.517 181.867 42.757 181.972 43.001 182.132 43.376 182.452 43.589 182.543 43.783 182.516 43.837 182.493 44.091 182.374 44.308 182.347 44.62 182.246 44.869 182.287 45.135 182.246 45.456 182.132 45.769 182.095 46.284 182.191 46.935 182.452 47.048 182.497 47.139 182.488 47.799 182.785 49.667 184.137 49.726 184.178 50.192 184.621 50.562 184.895 50.612 184.849 50.494 184.662 50.06 184.201 50.187 184.191 50.282 184.146 50.504 184.228 50.648 184.21 50.838 184.032 50.901 184.045 50.96 184.214 50.969 184.242 50.987 184.297 51.064 184.374 51.191 184.379 51.313 184.324 51.426 184.333 52.091 184.899 52.267 184.895 52.507 184.721 52.647 184.543 52.652 184.443 52.412 184.237 52.371 184.187 52.398 184.141 52.516 184.146 52.702 183.977 52.905 183.867 52.946 183.849 53.267 183.739 53.642 183.675 53.936 183.534 54.108 183.625 54.063 183.639 53.773 183.721 53.719 183.817 53.755 183.927 53.877 183.981 54.022 183.954 54.14 183.977 54.533 183.753 55.175 183.278 55.18 183.054 55.257 182.922 55.365 182.885 55.537 182.949 55.609 182.94 57.048 182.013 57.409 181.707 57.522 181.506 57.328 181.538 57.269 181.479 57.518 181.31 57.595 181.168 57.635 181.095 57.862 180.981 58.178 180.716 58.373 180.607 58.495 180.543 58.689 180.365 58.775 180.369 58.816 180.424 58.291 180.835 58.043 180.949 57.898 181.095 57.93 181.164 59.105 180.46 59.196 180.41 59.815 180.086 60.168 179.949 60.656 179.862 61.181 179.839 61.602 179.981 61.832 180.018 61.923 179.958 61.977 179.867 61.986 179.785 61.914 179.629 61.801 179.383 61.774 179.287 61.706 179.036 61.688 178.488 61.615 178.323 61.362 178.118 61.299 177.981 61.344 177.807 61.538 177.378 61.534 177.282 61.38 177.044 61.294 176.647 61.276 176.565 61.158 176.314 61.222 176.067 61.145 175.569 61.208 175.373 61.299 175.241 61.335 174.989 61.308 174.651 61.244 174.441 61.109 174.199 60.81 173.935 60.738 173.816 60.765 173.734 60.842 173.72 60.901 173.67 61.086 173.642 61.131 173.532 60.928 173.158 60.86 172.619 60.693 172.258 60.697 172.245 60.774 171.879 60.697 171.669 60.231 171.345 60.177 171.217 60.2 171.012 60.204 170.975 60.163 170.888 59.811 170.77 59.72 170.738 59.698 170.637 59.58 170.071 59.576 170.053 59.544 169.92 59.54 169.884 59.589 169.879 59.919 169.861 59.978 169.779 59.951 169.742 59.779 169.683 59.824 169.532 59.996 169.295 60.105 169.226 60.064 169.126 60.136 168.824 60.123 168.737 60.109 168.664 60.154 168.504 60.209 168.555 60.308 168.564 60.448 168.262 60.593 168.139 60.67 167.838 60.932 167.532 61.005 167.358 61.104 166.874 61.131 166.376 61.272 165.956 61.371 165.655 61.47 165.175 61.642 164.924 61.692 164.646 61.855 164.468 62.058 164.44 62.375 164.221 62.723 163.856 63.049 163.518 63.117 163.467 63.551 163.134 64.08 162.444 64.166 162.148 64.324 161.974 64.596 161.453 64.568 161.348 64.46 161.211 64.654 160.796 64.786 160.526 64.903 160.001 65.102 159.595 65.034 159.357 64.948 159.065 64.944 159.019 64.944 158.855 65.08 158.636 65.387 158.503 65.934 158.357 65.988 158.293 66.151 158.106 66.278 158.056 66.409 158.088 66.653 158.325 66.744 158.339 67.644 158.252 67.852 158.083 67.847 157.923 67.757 157.727 67.766 157.677 68.028 157.302 68.132 157.22 68.281 157.215 68.417 157.211 68.584 157.266 69.041 157.631 69.371 157.759 69.751 157.722 70.357 157.53 70.425 157.403 70.253 157.042 70.375 156.786 70.398 156.654 70.398 156.599 70.402 156.485 70.375 156.352 70.344 156.206 70.362 156.106 71.045 154.982 71.112 154.749 71.221 154.393 71.37 153.589 71.384 153.525 71.574 152.754 71.587 152.708 71.565 152.639 71.547 152.585 71.524 152.525 71.379 152.493 71.244 152.539 70.923 152.767 70.828 152.763 70.728 152.758 70.434 152.863 70.208 152.831 70.113 152.868 70.109 153.018 70.104 153.151 70.023 153.247 69.968 153.311 69.946 153.32 69.833 153.366 69.738 153.407 69.679 153.434 69.498 153.452 69.141 153.585 68.991 153.489 68.906 153.434 68.851 153.452 68.77 153.612 68.747 153.649 68.706 153.649 68.553 153.635 68.535 153.63 68.367 153.489 68.191 153.338 68.164 153.283 67.883 152.699 67.494 152.151 67.481 152.092 67.467 152.032 67.3 151.196 67.246 151.073 67.232 151.055 67.119 150.899 67.029 150.813 66.712 150.511 66.54 150.278 66.056 149.433 66.038 149.411 65.907 149.265 65.491 148.803 65.111 148.31 64.709 147.785 64.397 147.136 63.827 146.785 63.696 146.789 63.465 146.799 63.447 146.753 63.442 146.735 63.497 146.625 63.777 146.401 63.863 146.031 64.008 145.835 64.157 145.634 64.139 145.538 64.13 145.497 64.026 145.547 63.84 145.639 63.745 145.602 63.723 145.492 63.804 145.104 63.854 144.862 63.949 144.652 64.039 144.447 64.125 144.004 64.179 143.871 64.374 143.679 64.424 143.574 64.555 143.278 64.632 143.104 64.871 142.693 64.889 142.665 64.989 142.264 65.283 141.793 65.256 141.679 64.962 141.592 64.871 141.565 64.795 141.492 64.786 141.405 64.799 140.652 64.998 139.272 65.08 139.104 65.202 138.994 65.423 138.871 65.469 138.848 66.025 138.546 66.047 138.533 66.228 138.341 66.432 137.962 66.852 137.774 66.906 137.747 67.006 137.651 67.106 137.446 67.237 137.181 67.644 136.788 67.77 136.729 67.797 136.729 68.245 136.724 68.385 136.688 68.489 136.546 68.657 136.039 68.697 135.975 68.915 135.66 69.041 135.578 69.132 135.546 69.462 135.432 69.539 135.313 69.593 135.103 69.566 134.961 69.557 134.925 69.344 134.546 69.281 134.432 69.231 134.253 69.281 134.125 69.674 133.897 69.697 133.87 69.765 133.774 69.882 133.349 69.896 133.299 70.24 132.769 70.43 132.55 70.846 131.792 71.18 131.184 71.185 131.098 71.185 131.011 71.144 130.924 70.932 130.696 70.909 130.586 71.004 130.207 70.981 130.093 70.705 129.691 70.212 129.216 69.995 129.047 69.493 128.668 69.471 128.664 69.344 128.632 69.15 128.668 68.214 129.107 67.856 129.139 67.607 129.088 67.472 128.997 67.35 128.855 67.255 128.682 67.246 128.554 67.318 128.18 67.526 127.622 67.49 127.326 67.268 127.125 66.685 127.015 66.228 126.928 65.988 126.837 65.753 126.705 65.622 126.549 65.514 126.421 65.346 126.079 65.265 125.398 65.292 124.987 65.419 124.627 65.505 124.394 65.455 124.27 64.998 123.814 64.767 123.617 64.229 123.161 63.854 122.553 63.809 122.494 63.782 122.421 63.696 122.174 63.46 121.485 63.506 121.357 63.89 121.055 64.008 120.923 64.039 120.882 64.08 120.731 64.075 120.119 64.211 119.694 64.188 119.585 64.112 119.507 64.057 119.448 63.763 119.279 63.406 119.156 63.307 119.119 63.279 119.096 63.072 118.918 62.85 118.927 62.597 118.795 62.497 118.69 62.465 118.658 62.379 118.452 62.203 117.694 62.04 117.452 61.918 117.479 61.859 117.493 61.701 117.461 61.556 117.425 61.403 117.301 61.303 117.201 61.131 116.753 60.991 116.557 60.941 116.484 60.774 116.342 60.575 116.242 60.354 116.137 60.118 115.904 59.87 115.456 59.806 115.283 59.44 114.306 59.454 114.196 59.512 114.127 59.517 114.123 59.644 114.059 59.928 113.968 60.209 113.991 60.666 113.94 61.543 114.141 61.57 114.15 61.941 114.287 62.158 114.319 62.199 114.31 62.294 114.287 62.606 114.319 63.524 114.406 63.795 114.433 64.799 114.036 65.039 113.94 65.057 113.931 65.084 113.936 66.459 114.032 66.622 114.041 66.73 114.082 66.875 114.132 66.97 114.15 67.137 114.178 67.205 114.187 67.427 114.132 67.978 114 68.073 114.009 68.236 114.027 68.336 114.064 68.358 114.073 68.679 114.196 68.829 114.21 69.01 114.201 69.317 114.036 69.901 113.821 69.982 113.776 70.104 113.561 70.208 113.251 70.208 113.232 70.262 112.639 70.33 112.515 70.407 112.374 70.411 112.342 70.425 112.269 70.393 112.008 70.416 111.871 70.669 111.296 70.696 111.127 70.696 110.899 70.692 110.89 70.525 110.396 70.57 110.205 70.742 110.026 70.95 109.812 71.221 109.775 71.339 109.716 71.384 109.693 71.461 109.533 71.682 109.415 71.709 109.109 71.931 108.958 72.23 108.51 72.288 107.802 72.284 107.789 72.189 107.25 72.23 107.049 72.438 106.807 72.514 106.716 72.578 106.446 72.573 106.432 72.487 106.058 72.56 105.752 72.578 105.693 72.786 105.117 72.799 104.925 72.89 104.756 72.93 104.638 73.021 104.574 73.012 104.565 73.016 104.56 72.858 104.382 72.835 104.359 72.831 104.35 72.795 104.295 72.786 104.24 72.786 104.227 72.768 104.135 72.763 104.122 72.759 104.103 72.754 104.09 72.722 104.062 72.718 104.053 72.718 104.048 72.686 104.021 72.691 104.012 72.704 103.934 72.7 103.925 72.569 103.656 72.564 103.647 72.447 103.551 72.429 103.537 72.388 103.487 72.379 103.368 72.397 103.3 72.415 103.227 72.406 103.227 72.41 103.213 72.343 103.208 72.198 103.154 72.198 103.149 72.193 103.144 72.189 103.131 72.157 103.076 72.153 103.062 72.022 102.966 71.985 102.934 71.981 102.925 71.931 102.843 71.881 102.596 71.877 102.592 71.877 102.583 71.773 102.446 71.773 102.441 71.678 102.163 71.673 102.149 71.61 102.112 71.488 102.035 71.434 101.866 71.429 101.852 71.352 101.82 71.266 101.843 71.076 101.802 71.058 101.797 71.054 101.797 70.927 101.733 70.579 101.651 70.421 101.752 70.222 101.541 70.217 101.532 70.041 101.213 70.041 101.203 70.036 101.199 70 100.98 70.059 100.756 70.041 100.619 70.036 100.614 70.036 100.605 69.941 100.464 69.892 100.03 69.887 100.016 69.851 99.838 69.91 99.537 70.018 99.185 70.118 98.911 70.299 98.651 70.606 98.482 71.022 98.445 71.18 98.294 71.298 98.039 71.37 98.007 71.366 97.993 71.37 97.993 72.356 97.934 72.777 97.847 73.139 97.673 73.143 97.651 73.175 97.427 73.125 97.08 73.175 96.851 73.428 96.609 73.713 96.395 73.772 96.349 73.939 96.203 74.251 96.052 74.432 96.011 74.541 95.924 74.608 95.248 74.645 95.157 74.812 94.993 74.821 94.869 74.699 94.783 74.491 94.728 74.301 94.55 74.211 94.513 74.138 94.39 73.953 94.07 73.749 93.664 73.695 93.554 73.713 93.339 73.641 93.125 73.501 92.773 73.51 92.563 73.704 92.097 73.989 91.768 74.201 91.234 74.333 91.042 74.432 90.997 74.523 90.695 74.545 90.444 74.45 90.243 74.4 90.088 74.201 89.805 73.935 89.599 73.79 89.631 73.555 89.462 73.871 88.809 73.894 88.768 74.034 88.512 74.242 88.143 74.396 87.727 74.468 87.476 74.477 87.252 74.337 86.759 74.278 86.384 74.179 85.622 74.152 85.402 74.043 85.055 73.944 84.982 73.935 84.859 73.835 84.64 73.812 84.599 73.772 84.416 73.849 84.009 73.867 83.512 74.002 82.945 73.908 82.498 73.984 82.192 73.935 82 73.971 81.936 74.269 81.886 74.364 81.813 74.364 81.795 74.351 81.575 74.233 80.995 74.156 80.89 74.106 80.872 73.781 80.767 73.727 80.662 73.577 80.534 73.455 80.356 73.433 79.666 73.166 78.904 73.075 78.794 72.84 78.644 72.723 78.415 72.524 78.137 72.189 77.716 71.963 77.356 71.737 77.132 71.701 77.045 71.696 76.972 71.696 76.967 71.692 76.895 71.673 76.821 71.655 76.716 71.859 76.616 71.967 76.579 72.239 76.616 72.257 76.625 72.352 76.657 72.361 76.657 72.79 76.799 73.405 76.735 73.858 76.625 74.084 76.502 74.192 76.438 74.319 76.237 74.373 76.155 74.69 75.844 74.767 75.652 74.939 75.214 75.273 74.734 75.242 74.552 75.097 74.337 74.988 74.25 74.975 74.127 75.043 73.99 75.377 73.743 75.563 73.606 75.992 73.195 76.359 72.721 76.53 72.277 76.63 72.127 76.77 71.88 77.019 71.542 77.494 71.049 77.734 70.944 77.955 70.898 78.05 70.907 78.055 70.912 78.186 70.971 78.29 71.017 78.502 71.072 78.665 71.113 78.946 71.104 79.04 71.108 79.208 70.971 79.289 70.866 79.601 70.583 79.746 70.528 79.886 70.496 79.945 70.483 80.352 70.332 81.044 69.592 81.311 69.396 81.37 69.35 81.709 69.19 81.958 68.962 82.089 68.546 82.197 68.441 82.324 68.195 82.622 68.003 82.867 67.765 82.921 67.674 82.889 67.533 82.885 67.523 82.699 67.181 82.745 66.925 82.876 66.752 82.885 66.742 83.074 66.715 83.246 66.77 83.251 66.779 83.423 67.012 83.504 67.021 83.513 67.021 83.744 66.998 83.762 66.984 83.794 66.966 83.816 66.952 83.834 66.939 83.884 66.907 83.898 66.893 83.988 66.756 83.993 66.747 84.042 66.546 84.074 66.409 84.151 66.258 84.287 66.153 84.427 65.962 84.499 65.71 84.504 65.701 84.495 65.614 84.477 65.404 84.54 65.258 84.54 65.254 84.87 64.5 84.893 64.377 85.073 64.19 85.187 63.979 85.449 63.774 85.503 63.692 85.535 63.368 86.01 62.952 86.168 62.705 86.317 62.326 86.394 62.299 86.421 62.24 86.485 62.075 86.593 61.934 86.729 61.824 87 61.692 86.973 61.541 86.692 61.157 86.267 60.988 86.172 60.892 85.924 60.509 85.598 60.006 85.254 59.691 85.141 59.559 84.906 59.436 84.879 59.431 84.431 59.308 84.282 59.257 84.047 59.13 83.88 58.983 83.744 58.933 83.739 58.933 83.604 58.901 83.197 58.97 83.011 58.951 82.717 58.842 82.351 58.842 82.279 58.828 82.129 58.792 81.881 58.668 81.768 58.673 81.46 59.162 81.347 59.23 80.556 59.486 80.429 59.262 80.126 58.965 79.936 58.874 79.561 58.572 79.371 58.55 79.466 58.321 79.47 58.317 79.57 58.093 79.561 57.992 79.42 57.435 79.312 57.316 79.271 57.143 79.235 57.116 79.072 56.997 79.072 56.873 79.33 56.627 79.452 56.389 79.529 55.905 79.583 55.65 79.678 55.481 79.732 55.157 79.85 54.987 79.909 54.581 79.891 54.421 80.031 53.887 80.013 53.832 80.072 53.722 80.13 53.613 80.035 53.48 79.769 53.339 79.235 53.211 79.203 53.024 79.335 52.864 79.425 52.64 79.425 52.384 79.574 52.097 79.628 51.882 79.439 51.526 79.221 51.174 79.126 50.955 79.022 50.877 78.846 50.85 78.805 51.261 78.656 51.435 78.172 51.544 78.113 51.549 77.53 51.622 77.213 51.695 76.906 51.741 76.589 51.718 76.232 51.667 75.938 51.613 75.712 51.617 75.472 51.371 75.264 50.718 74.988 50.38 74.803 50.297 74.622 50.284 74.324 50.32 74.251 50.471 74.215 50.85 74.147 51.27 74.048 51.384 73.803 51.498 73.428 51.521 73.415 51.521 73.261 51.466 73.197 51.526 72.827 51.64 72.632 51.681 72.388 51.599 72.099 51.603 71.954 51.608 71.75 51.54 71.542 51.439 71.479 51.375 71.443 51.339 71.343 51.065 71.293 51.042 71.063 50.758 70.918 50.754 70.706 50.845 70.696 50.859 70.457 51.138 70.195 51.375 69.946 51.398 69.751 51.307 69.362 51.339 69.172 51.393 69.005 51.375 68.892 51.288 68.607 50.781 68.227 50.512 67.87 50.38 67.698 50.421 67.25 50.252 66.929 50.32 66.925 50.325 66.807 50.389 66.803 50.389 66.712 50.439 66.626 50.526 66.613 50.539 66.473 50.809 66.468 50.809 66.459 50.822 66.445 50.891 66.423 51.023 66.409 51.087 66.513 51.266 66.513 51.27 66.509 51.288 66.473 51.393 66.454 51.526 66.45 51.562 66.445 51.562 66.5 51.85 66.572 52.019 66.645 52.243 66.645 52.325 66.649 52.371 66.636 52.403 66.622 52.425 66.287 53.138 66.079 53.27 65.998 53.33 65.722 53.544 65.161 53.741 64.858 53.882 64.546 54.156 64.266 54.179 63.976 54.257 63.569 54.389 63.271 54.371 62.877 54.248 62.669 54.248 62.321 54.503 62.149 54.841 62.09 54.996 61.914 55.143 61.652 55.197 61.53 55.225 61.521 54.891 61.575 54.704 61.466 54.595 61.421 54.554 61.19 54.312 61.1 54.124 60.996 53.974 60.937 53.8 60.752 53.8 60.526 53.814 60.082 53.535 59.816 53.722 59.92 53.978 59.825 54.133 59.748 54.188 59.499 54.33 59.119 54.458 58.92 54.608 58.594 54.681 58.355 54.663 58.083 54.586 57.78 54.43 57.731 54.407 57.731 54.33 57.862 53.91 58.111 53.59 58.427 53.298 58.305 53.284 58.092 53.352 57.681 53.252 57.283 53.384 57.075 53.371 56.88 53.243 56.609 52.996 56.175 52.658 56.071 52.608 55.913 52.645 55.741 52.759 55.483 52.928 55.139 52.923 54.927 52.882 54.863 52.868 54.651 52.91 54.637 52.919 54.203 53.202 53.869 53.316 53.389 53.38 53.154 53.403 53.1 53.677 53.068 53.814 52.828 53.969 52.665 53.978 52.281 54.088 52.132 53.946 52.055 53.754 52.263 52.508 52.268 52.284 52.2 52.092 52.1 52.11 51.897 52.042 51.811 52.065 51.625 52.11 51.576 52.229 51.594 52.631 51.576 52.992 51.508 53.179 51.322 53.394 51.187 53.476 50.739 53.608 50.323 53.608 50.228 53.695 50.024 54.083 49.866 54.207 49.635 54.668 49.477 54.764 49.242 54.736 49.174 54.818 48.844 55.051 48.731 55.083 48.469 55.161 48.36 55.321 48.36 55.421 48.36 55.444 48.342 55.449 48.062 55.499 47.827 55.499 47.736 55.499 47.582 55.417 47.469 55.357 47.465 55.353 47.352 55.293 47.117 55.257 47.067 55.248 47.035 55.243 46.632 55.083 46.605 55.01 46.574 54.718 46.515 54.065 46.357 53.49 46.302 53.403 46.275 53.357 46.257 53.33 46.248 53.316 46.167 53.275 45.705 53.257 45.701 53.257 45.547 52.983 45.434 52.768 45.38 52.617 45.344 52.531 45.366 52.485 45.421 52.375 45.439 52.334 45.398 52.197 45.543 52.051 45.945 51.325 46.063 51.238 46.162 51.083 46.171 51.06 46.244 50.873 46.375 50.699 46.443 50.603 46.524 50.489 47.053 50.192 47.424 49.836 47.7 49.685 48.021 49.512 48.107 49.032 48.066 48.694 48.034 48.416 48.025 48.407 47.75 47.996 47.41 47.818 47.153 47.777 46.755 47.859 46.262 48.133 46.09 48.114 46.085 48.005 46.031 47.594 45.941 47.119 45.873 46.548 45.859 46.201 45.85 46.073 45.85 45.986 45.841 45.977 45.769 45.913 45.76 45.913 45.601 45.9" mask="url(#spain-b)"/>
    <polygon fill="#F8F8F9" points="185.578 -13 185.41 -12.187 185.237 -10.521 184.967 -9.375 184.948 -9.287 184.511 -6.916 184.212 -5.77 184.174 -5.485 184.131 -5.162 183.722 -3.095 183.448 -2.115 183.049 .03 182.948 .628 182.958 .843 182.732 1.51 182.693 2.166 182.578 2.803 182.496 3.763 182.505 3.822 182.635 3.812 182.645 3.802 182.654 3.802 182.76 3.704 182.823 3.332 182.866 3.459 182.837 3.851 182.914 3.881 182.943 3.9 182.895 3.988 182.847 4.057 182.804 4.135 182.664 4.028 182.544 3.998 182.539 4.008 182.53 4.008 182.525 4.008 182.453 4.106 182.357 4.439 182.294 4.655 181.938 5.497 180.89 7.652 180.885 7.77 181.01 7.848 181.049 7.878 181.034 7.907 180.789 7.878 180.784 7.878 180.77 7.878 180.659 8.005 180.351 8.652 180.26 8.848 180.135 8.916 180.121 8.916 179.971 9.191 179.846 9.24 179.832 9.249 179.745 9.387 179.712 9.651 179.678 9.71 179.077 10.749 178.967 10.846 178.327 11.454 177.837 11.836 177.707 12.012 177.774 12.179 177.769 12.179 177.678 12.169 177.534 12.169 177.375 12.022 177.115 12.003 177.106 12.003 176.375 12.296 176.361 12.306 176.168 12.433 176.019 12.433 175.885 12.375 175.803 12.385 175.798 12.394 175.788 12.394 175.654 12.541 175.182 12.629 175.178 12.639 175.173 12.639 175.13 12.659 175.351 12.855 175.351 12.953 175.01 13.266 175 13.276 175.048 13.325 175.053 13.325 175.087 13.364 175.188 13.472 175.394 13.59 175.409 13.599 175.413 13.599 175.428 13.599 175.534 13.609 175.543 13.609 175.563 13.599 175.572 13.599 175.731 13.551 175.827 13.648 175.827 13.658 175.832 13.658 175.832 13.668 175.856 13.776 175.861 13.785 175.865 13.785 176.082 13.815 176.082 13.825 176.111 13.884 176.164 14.011 176.135 14.344 176.139 14.383 176.159 14.56 176.168 14.599 176.212 14.746 176.216 14.765 176.274 14.844 176.341 14.932 176.341 14.942 176.356 14.932 176.37 14.922 176.592 14.814 176.928 14.638 177.087 14.618 177.548 14.56 178.284 14.569 178.438 14.667 178.472 14.785 178.505 14.971 178.472 15.118 178.486 15.667 178.582 16.127 178.727 16.225 178.919 16.294 179.044 16.333 179.434 16.313 179.477 16.313 179.491 16.313 179.847 16.108 180.025 15.794 180.164 15.343 180.289 15.285 181.049 15.226 181.068 15.226 181.265 15.255 181.28 15.275 181.876 15.853 182.035 15.951 182.222 15.98 182.227 15.98 182.237 15.98 182.612 15.863 183.088 15.833 183.092 15.833 183.27 15.872 183.511 16.078 183.617 16.225 183.636 16.245 183.742 16.558 183.775 16.872 183.717 17.107 183.761 17.714 183.679 18.037 183.655 18.145 183.309 18.606 183.265 18.674 183.213 19.047 183.246 19.36 183.078 20.007 182.871 20.369 182.722 20.506 182.251 20.908 181.852 21.124 181.934 21.525 182.179 22.015 182.684 22.446 183.078 22.701 183.607 22.838 183.785 22.887 183.799 22.887 184.424 23.005 184.429 23.005 184.444 23.005 184.549 22.907 184.621 22.779 184.775 22.515 184.92 21.231 185.04 20.791 185.213 20.644 185.881 20.33 185.992 20.379 185.977 20.497 185.809 20.653 185.795 20.81 185.79 20.869 185.838 20.938 185.65 21.329 185.53 21.751 185.718 21.917 186.3 22.182 186.66 22.436 186.679 22.436 187.006 22.485 187.021 22.485 187.406 22.329 187.492 22.339 187.622 22.427 187.757 22.711 187.838 22.809 187.949 22.848 188.161 22.936 188.435 23.044 188.454 23.044 188.781 23.083 188.959 23.23 189.156 23.7 189.3 23.798 189.31 23.788 189.319 23.798 189.516 23.583 189.632 23.338 189.848 23.348 190.286 23.759 190.56 24.014 190.752 24.112 191.069 24.268 191.079 24.268 191.088 24.268 191.915 24.288 191.988 24.288 192.661 24.788 192.877 25.052 193.69 25.405 193.709 25.405 193.714 25.405 194.036 25.366 194.06 25.366 194.122 25.346 194.406 25.268 194.445 25.258 194.945 25.336 194.964 25.336 195.32 25.346 195.377 25.346 196.238 25.307 196.262 25.307 196.555 25.229 196.993 24.984 197.137 24.945 197.286 24.964 197.507 25.111 197.618 25.268 197.743 25.454 197.964 26.061 198.041 26.571 198.046 26.62 198.411 27.315 198.685 27.443 198.695 27.443 198.705 27.452 199.046 27.452 199.363 27.639 199.705 28.05 200.479 29.01 200.599 29.069 200.748 29.324 200.849 29.628 200.95 29.696 200.969 29.696 200.974 29.706 201.359 29.735 201.359 29.745 201.416 29.921 201.498 30.206 201.609 30.362 201.777 30.45 201.787 30.45 201.801 30.45 202.157 30.372 202.181 30.362 202.35 30.313 202.426 30.225 202.47 30.186 202.499 30.108 202.662 29.677 202.898 29.334 203.071 29.275 203.186 29.285 203.191 29.295 203.465 29.52 203.484 29.52 203.489 29.52 203.859 29.52 204.076 29.941 204.181 30.02 204.201 30.02 204.205 30.02 204.523 30.029 204.84 29.951 204.975 29.912 205.23 29.902 205.379 29.843 205.6 29.755 206.273 29.187 206.408 29.138 206.557 29.128 207.345 28.854 207.388 28.834 207.72 28.775 208.316 29.216 208.658 29.314 208.682 29.314 208.942 29.285 209.302 29.872 209.322 29.902 209.466 30.059 209.923 30.333 210.057 30.362 210.346 30.313 210.596 30.147 210.802 29.912 210.865 29.912 210.956 30.098 211 30.274 211.105 30.725 211.149 30.793 211.576 31.489 211.716 32.136 211.793 32.244 211.913 32.292 211.976 32.302 212.365 32.351 212.591 32.439 212.673 32.616 212.793 33.086 212.884 33.194 213.389 33.311 213.755 33.399 213.995 33.351 214.058 33.341 214.231 33.311 214.625 33.037 214.736 33.037 214.885 33.076 215.005 33.106 215.01 33.106 215.034 33.115 215.64 32.841 215.894 32.87 215.899 32.87 216.385 33.027 216.39 33.027 216.418 33.037 216.784 33.017 216.923 32.988 216.976 32.969 217.712 32.273 218.029 32.097 218.212 32.087 218.419 32.185 218.981 32.596 219.01 32.606 219.015 32.606 219.27 32.655 219.327 32.665 219.361 32.665 219.467 32.684 219.693 32.851 219.924 33.184 219.981 33.439 220.183 33.831 220.328 33.919 220.347 33.909 220.361 33.919 220.698 33.831 220.9 33.694 221.27 33.311 221.78 32.567 221.934 32.479 222.092 32.508 222.381 32.674 222.857 33.194 223.078 33.292 223.107 33.292 223.112 33.302 223.15 33.302 223.189 33.302 223.66 33.321 224.511 33.243 225.006 33.292 225.232 33.262 225.496 33.164 226.727 33.233 226.886 33.223 227.309 33.174 228.122 33.37 228.16 33.38 228.694 33.595 228.718 33.595 228.732 33.595 228.814 33.595 228.867 33.595 228.882 33.37 228.732 33.047 228.742 32.469 228.588 32.136 228.564 31.949 228.535 31.763 228.353 31.401 228.372 31.225 228.434 31.136 228.516 30.823 228.18 30.597 228.189 30.45 228.593 29.921 228.637 29.647 228.612 28.883 228.834 28.717 228.858 28.677 229.093 28.236 229.387 28.148 230.098 28.501 230.199 28.55 230.868 28.883 230.906 28.893 230.949 28.893 231.334 28.942 232.074 29.177 232.502 29.314 233.325 29.755 233.858 30.147 234.44 30.372 234.455 30.372 234.479 30.382 234.604 30.333 234.95 30.02 235.036 30.01 235.2 30.088 235.253 30.245 235.306 30.402 235.33 30.411 235.734 30.568 235.767 30.568 235.772 30.578 236.075 30.597 236.113 30.597 236.71 30.549 236.907 30.627 236.94 30.627 236.95 30.637 237.729 30.676 237.96 30.862 238.479 31.489 238.494 31.499 238.623 31.646 238.739 32.077 238.922 32.449 239.345 32.821 239.6 32.88 239.614 32.88 239.638 32.89 239.777 32.87 240.162 32.694 240.379 32.596 240.83 32.469 240.975 32.479 240.98 32.479 241.393 32.635 241.417 32.635 241.436 32.645 242.133 32.567 243.206 32.576 243.446 32.586 243.615 32.684 243.696 32.812 243.691 33.017 243.812 33.155 244.278 33.498 244.908 34.624 245.447 36.035 245.49 36.045 245.677 36.055 245.721 36.055 245.908 35.966 245.98 35.829 246.148 34.732 246.254 34.653 246.403 34.624 246.663 34.712 246.682 34.712 246.706 34.722 247.048 34.634 247.163 34.614 247.226 34.634 247.245 34.624 247.274 34.634 247.98 34.467 248.129 34.506 248.153 34.536 248.307 34.732 248.831 35.036 249.24 35.163 249.264 35.163 249.283 35.163 249.582 35.153 250.159 35.437 250.187 35.437 250.207 35.447 250.37 35.437 250.461 35.398 250.957 35.183 250.986 35.192 251.019 35.192 251.154 35.388 251.51 35.555 251.558 35.565 251.832 35.633 251.909 35.692 251.918 35.819 251.779 36.015 251.741 36.153 251.789 36.28 252.515 36.623 252.669 36.75 252.851 37.054 252.875 37.083 252.832 37.083 252.649 37.083 252.053 37.26 251.971 37.309 251.923 37.387 251.991 37.367 251.976 37.397 251.885 37.534 251.851 37.691 251.875 37.828 251.88 37.857 251.683 38.445 251.635 38.857 251.683 39.141 251.861 39.327 252.505 39.542 252.572 39.562 253.871 39.552 254.25 39.817 254.568 40.16 255.4 40.698 255.587 40.718 255.702 40.649 255.799 40.591 256.058 40.62 256.313 40.826 256.448 41.002 256.53 41.11 256.544 41.169 256.563 41.277 256.568 41.296 256.611 41.384 256.688 41.531 256.789 41.874 256.866 42.139 256.847 42.501 256.967 42.785 257.111 42.932 257.712 43.255 257.861 43.412 258.083 43.481 258.438 43.52 258.751 43.491 259.006 43.422 259.246 43.363 259.746 43.079 260.141 42.707 260.612 41.923 261.006 41.482 261.569 41.531 261.852 41.649 262.011 41.717 262.199 41.707 262.501 41.59 262.703 41.404 262.949 41.296 263.386 41.218 264.487 41.355 265.007 41.727 265.271 41.874 265.329 41.903 266.829 42.442 267.334 43.069 267.468 43.177 267.473 43.177 267.521 43.285 267.666 43.373 268.358 43.784 268.579 43.912 268.872 43.922 269.113 43.99 269.416 43.951 269.998 43.559 270.281 43.559 270.907 43.667 271.657 43.931 271.849 43.961 272.109 44 272.378 43.951 272.522 43.863 272.56 43.775 272.541 43.657 272.445 43.491 272.113 43.128 271.998 42.726 272.089 42.589 272.267 42.462 272.686 42.021 273.075 41.766 273.335 41.698 273.758 41.59 273.964 41.58 274.676 41.757 275.123 41.757 275.272 41.649 275.474 41.218 276.268 40.434 276.378 40.356 276.465 40.297 276.633 40.287 276.84 40.316 277.407 40.405 277.643 40.375 277.787 40.326 278.297 40.013 278.6 40.023 278.783 40.111 279.552 39.875 279.629 39.944 279.696 39.954 279.783 39.964 280.004 39.827 280.148 39.738 280.244 39.738 280.297 39.768 280.36 39.964 280.432 40.16 280.538 40.414 280.586 40.463 280.74 40.591 280.816 40.64 280.966 40.914 281.038 40.943 281.249 41.12 281.369 41.159 281.475 41.188 281.576 41.208 281.672 41.159 281.692 41.11 281.797 41.012 281.918 40.924 282.043 40.924 282.153 40.914 282.384 40.953 282.687 40.953 282.711 40.953 282.927 40.963 282.932 40.973 283.014 40.992 283.148 41.041 283.249 40.943 283.245 40.826 283.086 40.679 283.11 40.591 283.014 40.493 283.072 40.375 282.971 40.267 282.961 40.091 282.946 40.062 282.74 39.67 282.576 39.591 282.278 39.67 282.273 39.248 282.331 39.082 282.283 39.003 282.211 38.974 282.182 38.866 282.259 38.661 282.442 38.523 282.023 38.259 281.658 38.239 281.542 38.19 281.336 38.23 281.283 38.18 281.345 38.083 281.278 38.014 280.884 37.857 280.624 37.808 280.417 37.544 280.36 36.701 280.374 36.182 280.331 36.074 280.235 35.692 280.201 34.761 280.196 34.761 280.119 34.84 280.081 34.859 280.033 34.869 280.009 34.84 279.985 34.781 279.97 34.732 279.96 34.722 279.941 34.712 279.912 34.673 279.903 34.644 279.903 34.605 279.893 34.565 279.888 34.526 279.884 34.506 279.86 34.477 279.85 34.458 279.85 34.428 279.855 34.409 279.869 34.399 279.884 34.399 279.888 34.369 279.903 34.35 279.908 34.33 279.898 34.311 279.874 34.242 279.86 34.203 279.86 34.174 279.874 34.154 279.893 34.134 279.922 34.105 279.941 34.085 279.941 34.046 279.922 34.027 279.922 33.987 279.922 33.977 279.917 33.958 279.898 33.948 279.869 33.968 279.86 33.968 279.845 33.958 279.826 33.968 279.778 33.968 279.773 33.987 279.754 34.007 279.749 34.046 279.749 34.066 279.74 34.066 279.72 34.056 279.706 34.066 279.696 34.085 279.615 34.085 279.6 34.076 279.562 34.036 279.533 33.997 279.548 33.938 279.552 33.889 279.557 33.86 279.562 33.821 279.595 33.782 279.61 33.791 279.61 33.772 279.6 33.752 279.605 33.733 279.62 33.723 279.639 33.703 279.648 33.684 279.668 33.674 279.696 33.674 279.706 33.674 279.749 33.664 279.778 33.644 279.797 33.654 279.821 33.664 279.865 33.674 279.889 33.684 279.913 33.713 279.922 33.713 279.932 33.694 279.941 33.684 279.956 33.694 279.961 33.684 279.946 33.664 279.956 33.654 279.98 33.644 280.042 33.644 280.081 33.664 280.1 33.664 280.115 33.674 280.119 33.703 280.124 33.742 280.124 33.762 280.139 33.782 280.153 33.801 280.158 33.831 280.158 33.85 280.163 33.86 280.148 33.88 280.157 33.889 280.167 33.899 280.172 33.919 280.167 33.938 280.162 33.958 280.167 33.977 280.235 34.076 280.244 33.928 280.205 33.537 280.268 32.635 280.33 32.4 280.321 32.312 280.273 32.292 280.076 32.332 280.052 32.214 280.076 32.145 280.206 32.087 280.259 31.949 280.186 30.558 280.23 29.628 280.307 29.51 280.278 29.147 280.408 28.785 280.499 27.688 280.456 27.776 280.408 27.854 280.321 27.972 280.215 28.129 280.191 28.197 280.177 28.276 280.172 28.364 280.182 28.442 280.201 28.54 280.215 28.599 280.196 28.648 280.191 28.707 280.167 28.795 280.143 28.834 280.1 28.893 280.057 28.942 279.994 28.981 279.965 29.03 279.946 29.089 279.932 29.138 279.879 29.226 279.86 29.285 279.855 29.334 279.874 29.363 279.937 29.412 279.965 29.461 279.965 29.51 279.946 29.53 279.965 29.569 279.97 29.608 279.994 29.637 279.927 29.716 279.936 29.745 279.956 29.765 280.018 29.804 280.061 29.833 280.109 29.843 280.138 29.843 280.162 29.863 280.129 29.912 280.057 29.98 279.999 30.02 279.941 30.039 279.893 30.039 279.816 30.029 279.792 30.01 279.763 30.068 279.72 30.078 279.667 30.098 279.643 30.098 279.624 30.088 279.566 30.108 279.475 30.137 279.451 30.157 279.446 30.117 279.431 30.127 279.441 30.157 279.403 30.167 279.33 30.186 279.273 30.167 279.268 30.176 279.225 30.186 279.162 30.147 279.081 30.098 279.003 30.049 278.955 29.931 278.888 29.784 278.869 29.755 278.869 29.716 278.859 29.686 278.859 29.657 278.83 29.618 278.811 29.569 278.807 29.53 278.787 29.432 278.792 29.383 278.807 29.343 278.773 29.324 278.744 29.285 278.744 29.216 278.753 29.187 278.758 29.157 278.744 29.138 278.705 29.108 278.677 29.108 278.624 29.118 278.6 29.147 278.576 29.167 278.566 29.187 278.542 29.197 278.479 29.197 278.455 29.187 278.426 29.167 278.422 29.138 278.432 29.118 278.484 29.089 278.508 29.05 278.523 29.02 278.552 28.961 278.571 28.922 278.59 28.854 278.609 28.775 278.638 28.726 278.682 28.658 278.783 28.57 278.787 28.55 278.749 28.501 278.758 28.491 278.874 28.511 278.898 28.501 278.908 28.452 278.965 28.393 279.047 28.325 279.157 28.276 279.215 28.266 279.278 28.236 279.302 28.236 279.311 28.217 279.33 28.197 279.34 28.158 279.355 28.109 279.408 28.031 279.456 27.962 279.48 27.933 279.508 27.962 279.528 27.962 279.552 27.952 279.561 27.933 279.556 27.884 279.552 27.825 279.542 27.786 279.542 27.766 279.562 27.668 279.484 27.766 279.494 27.786 279.48 27.786 279.441 27.678 279.456 27.639 279.484 27.541 279.499 27.492 279.504 27.443 279.518 27.413 279.542 27.335 279.576 27.286 279.624 27.286 279.643 27.286 279.682 27.247 279.706 27.218 279.696 27.198 279.686 27.198 279.667 27.218 279.634 27.227 279.576 27.227 279.571 27.218 279.571 27.198 279.595 27.169 279.658 27.11 279.662 27.09 279.662 27.07 279.696 27.031 279.691 27.022 279.629 27.022 279.629 27.012 279.638 27.002 279.648 26.963 279.657 26.933 279.672 26.923 279.672 26.904 279.653 26.904 279.653 26.884 279.662 26.845 279.653 26.816 279.667 26.806 279.658 26.786 279.629 26.757 279.653 26.708 279.629 26.659 279.643 26.64 279.71 26.541 279.691 26.473 279.71 26.434 279.768 26.316 279.811 26.306 279.836 26.326 279.826 26.345 279.821 26.355 279.836 26.375 279.836 26.394 279.84 26.444 279.85 26.473 279.908 26.571 279.922 26.62 279.922 26.669 279.917 26.688 279.908 26.718 279.908 26.767 279.903 26.777 279.932 26.816 279.961 26.826 279.961 26.875 279.946 26.943 279.903 26.992 279.893 27.012 279.893 27.051 279.898 27.07 279.913 27.08 279.937 27.08 279.946 27.09 279.941 27.12 279.932 27.159 279.864 27.208 279.85 27.227 279.855 27.237 279.879 27.247 279.893 27.276 279.908 27.306 279.951 27.286 280.004 27.276 280.038 27.266 280.086 27.257 280.143 27.257 280.153 27.237 280.177 27.247 280.187 27.266 280.177 27.286 280.177 27.315 280.192 27.315 280.215 27.276 280.23 27.276 280.254 27.276 280.316 27.257 280.35 27.227 280.403 27.169 280.427 27.159 280.432 27.129 280.417 27.129 280.408 27.11 280.403 27.1 280.408 27.07 280.408 27.061 280.393 27.031 280.393 27.012 280.408 27.002 280.427 26.982 280.451 26.992 280.518 27.012 280.557 27.031 280.591 27.061 280.61 27.08 280.615 27.12 280.605 27.208 280.6 27.286 280.6 27.296 280.644 27.227 280.725 26.688 280.817 26.463 280.73 26.336 280.48 26.12 280.374 26.071 280.389 26.111 280.384 26.14 280.35 26.15 280.336 26.14 280.283 26.101 280.249 26.061 280.225 26.042 280.211 26.032 280.201 26.012 280.187 26.012 280.172 26.012 280.163 26.012 280.134 25.973 280.125 25.954 280.11 25.963 280.105 25.983 280.095 26.003 280.071 26.012 280.062 26.003 280.057 26.012 280.043 26.012 280.033 26.022 280.028 26.012 280.019 26.003 279.995 25.993 279.99 26.012 279.98 26.003 279.966 25.983 279.947 25.973 279.937 25.963 279.98 25.865 280.182 25.973 280.167 25.954 280.153 25.924 280.143 25.885 280.124 25.856 280.091 25.846 280.062 25.826 280.043 25.807 280.043 25.797 280.047 25.777 280.067 25.719 280.052 25.699 279.98 25.865 279.966 25.865 279.927 25.944 279.913 25.954 279.889 25.924 279.865 25.885 279.836 25.836 279.836 25.816 279.831 25.797 279.966 25.865 280.048 25.679 280.043 25.67 280.033 25.65 280.187 25.787 280.274 25.728 280.317 25.591 280.326 25.072 280.524 24.553 280.577 24.102 280.841 23.25 280.975 22.818 281.129 22.584 281.197 22.329 281.24 22.339 281.302 22.417 281.37 22.339 281.37 22.26 281.355 22.162 281.355 22.064 281.345 22.025 281.269 22.084 281.187 22.211 281.211 22.27 281.197 22.328 281.182 22.319 281.139 22.397 281.062 22.505 280.995 22.554 280.884 22.593 280.836 22.515 280.74 22.485 280.533 22.388 280.379 22.299 280.216 22.045 280.091 21.917 280.096 21.79 280.201 21.555 280.273 21.476 280.423 21.359 280.552 21.349 280.61 21.359 280.562 21.457 280.577 21.574 280.61 21.633 280.726 21.623 280.846 21.594 280.98 21.614 281.115 21.721 281.187 21.79 281.288 21.809 281.331 21.819 281.341 21.878 281.317 21.927 281.346 22.025 281.822 21.055 281.764 21.065 281.726 21.035 281.807 20.82 281.913 20.722 281.976 20.683 281.956 20.516 282.004 20.33 282.307 20.075 282.471 19.742 282.649 19.527 282.923 19.39 283.134 19.213 283.25 19.047 283.711 18.429 283.865 18.351 284.476 17.655 284.678 17.479 285.245 16.94 285.971 16.372 286.649 15.902 286.789 15.755 286.827 15.647 286.808 15.51 287.135 15.588 287.293 15.569 287.399 15.49 287.447 15.334 287.63 15.441 288.275 15.059 288.457 15.049 289.044 15.245 289.871 15.52 290.352 15.588 290.549 15.559 290.683 15.471 290.895 14.991 291.174 14.648 291.318 14.55 291.453 14.324 291.631 14.148 291.977 13.903 292.03 13.874 292.376 13.403 293.025 12.718 293.838 12.012 294.53 11.904 294.569 11.895 294.665 11.826 294.684 11.64 294.689 11.552 294.756 11.542 294.775 11.591 294.833 11.787 294.963 11.591 295.006 11.532 295.41 11.219 295.987 10.876 296.247 10.807 296.67 10.592 296.939 10.357 297.511 9.681 298.045 9.054 298.406 8.779 298.665 8.671 299.526 7.937 300.526 7.496 300.55 7.486 300.993 7.212 302.223 6.849 302.93 6.771 303.305 6.849 303.762 6.986 304.031 7.163 304.094 7.231 304.209 7.359 304.397 7.995 304.363 8.093 304.291 8.074 304.084 8.152 303.998 8.309 303.988 8.466 304.094 8.838 304.363 9.171 304.642 9.377 305.06 9.494 305.296 9.631 305.82 9.739 305.96 9.769 306.335 9.818 307.671 9.974 307.854 9.935 307.854 9.925 307.878 9.876 308.1 9.896 308.186 9.955 309.225 10.033 309.744 10.2 310.008 10.21 310.196 10.17 310.657 10.161 311.052 10.053 312.316 10.014 312.518 10.053 313.052 10.131 313.278 10.249 313.283 10.249 313.547 10.288 313.768 10.435 314.004 10.709 314.259 11.17 314.345 11.238 314.398 11.199 314.388 11.14 314.34 10.778 314.336 10.778 314.292 10.719 314.105 10.484 313.85 10.317 313.561 10.2 313.254 10.053 312.196 9.886 311.946 9.935 311.585 9.886 311.003 9.916 311.21 9.788 311.624 9.759 311.835 9.837 312.114 9.818 312.436 9.788 312.787 9.71 312.888 9.602 313.037 9.612 313.037 9.7 313.042 9.71 313.124 9.798 313.148 9.916 313.148 9.925 313.605 10.092 313.725 10.033 313.97 10.141 314.119 10.082 314.234 10.21 314.234 10.219 314.403 10.249 314.533 10.337 314.816 10.915 314.816 10.925 314.768 11.16 314.735 11.17 314.537 11.219 314.537 11.229 314.432 11.395 314.436 11.395 314.518 11.444 314.614 11.591 314.672 11.532 314.667 11.317 314.744 11.297 314.85 11.385 314.855 11.395 315.158 11.258 315.591 11.464 315.595 11.513 315.509 11.542 315.235 11.532 315.23 11.601 315.297 11.62 315.321 11.689 315.042 11.699 315.009 11.904 314.932 12.061 314.989 12.081 315.047 12.042 315.114 11.836 315.182 11.787 315.191 11.846 315.191 11.856 315.191 11.914 315.384 12.189 315.518 12.385 315.494 12.512 315.326 12.669 315.081 12.678 314.961 12.473 314.989 12.306 314.989 12.296 314.951 12.238 314.855 12.228 314.768 12.277 314.768 12.287 314.73 12.375 314.768 12.522 314.768 12.532 314.749 12.659 314.749 12.669 314.662 12.835 314.662 12.845 314.787 12.865 314.835 12.953 314.835 12.963 315.196 12.776 315.533 12.747 315.615 12.571 315.672 12.541 315.711 12.581 315.759 12.776 315.72 13.129 315.667 13.168 315.547 13.158 315.461 13.041 315.456 13.031 315.388 13.139 315.278 13.178 315.115 13.119 315.052 13.031 314.941 13.021 314.941 13.031 314.893 13.11 314.749 13.031 314.518 13.021 314.413 12.972 314.312 12.835 314.23 12.796 314.187 12.629 314.624 12.179 314.624 12.169 314.595 11.816 314.48 11.66 314.384 11.885 314.384 11.895 314.331 12.022 314.182 12.149 314.182 12.159 314.177 12.267 314.235 12.326 314.076 12.522 313.989 12.492 313.989 12.502 313.893 12.737 313.759 12.424 313.759 12.414 313.773 12.296 313.773 12.287 313.735 12.228 313.773 12.159 313.691 12.081 313.648 12.091 313.576 12.228 313.557 12.463 313.557 12.473 313.605 12.659 313.783 12.845 314.172 13.031 314.177 13.031 314.763 13.158 315.081 13.227 315.831 13.276 316.1 13.364 316.293 13.355 316.446 13.296 316.797 13.247 317.932 13.217 318.163 13.168 318.202 13.247 318.899 13.443 319.481 13.825 319.553 13.776 319.5 13.599 319.433 13.423 319.428 13.296 319.394 13.168 319.399 12.923 319.399 12.914 319.221 12.6 318.716 12.208 318.495 12.051 318.327 11.963 317.615 11.317 317.254 10.641 317.591 9.896 317.629 9.622 317.528 9.23 317.346 8.662 317.336 8.632 317.298 8.211 317.298 8.201 317.23 8.123 317.125 8.074 317.125 7.976 316.976 7.368 316.976 7.359 316.865 7.212 316.615 6.957 316.456 6.683 316.456 6.673 316.326 6.585 316.322 6.585 316.274 6.497 316.206 6.379 316.25 6.35 316.322 6.379 316.557 6.673 316.557 6.683 316.923 7.055 317.038 7.27 317.125 7.437 317.168 7.564 317.168 7.574 317.24 7.79 317.423 8.172 317.423 8.182 317.461 8.622 317.471 8.671 317.716 9.367 317.759 9.651 317.759 9.661 317.73 9.857 317.519 10.347 317.394 10.68 317.394 10.69 317.552 11.023 317.653 11.111 317.807 11.336 317.807 11.346 317.947 11.464 318.225 11.581 318.379 11.856 318.384 11.856 318.452 11.895 318.639 12.022 318.697 12.061 318.875 12.149 319.057 12.336 319.317 12.424 319.49 12.541 319.596 12.708 319.562 13.041 319.562 13.276 319.625 13.374 319.702 13.541 319.817 13.619 319.798 13.648 319.793 13.658 319.788 13.658 319.817 13.697 319.817 13.707 320.053 13.599 320.293 13.296 320.803 13.051 320.995 12.894 321 12.894 320.764 12.874 320.5 13.041 320.385 12.992 320.312 12.972 320.231 12.6 320.178 12.561 320.048 12.6 319.86 12.296 319.735 12.345 319.817 12.473 319.726 12.473 319.49 12.306 319.663 12.11 319.726 12.11 319.73 12.189 319.73 12.198 319.827 12.169 319.827 12.159 319.894 12.061 319.976 11.758 320.154 11.581 320.255 11.248 320.538 10.837 320.356 11.366 320.437 11.375 320.442 11.375 320.654 11.121 320.846 10.905 320.846 -12.581 185.554 -12.581 185.58 -13" mask="url(#spain-b)"/>
    <path fill="#E4E4E7" fill-rule="nonzero" d="M55.9622351,1 L56.4878288,1.45065312 L55.7369806,2.57728592 L56.1124047,2.72750363 L56.3376592,2.27685051 L57.0885074,2.05152395 L57.238677,2.95283019 L57.6891859,3.02793904 L57.5390163,4.15457184 L57.7642707,4.75544267 L57.9144404,4.00435414 L58.2898645,3.77902758 L58.1396948,3.2532656 L58.6652885,3.2532656 L58.7403734,2.72750363 L59.4161367,2.50217707 L59.5663064,2.87772134 L60.542409,2.87772134 L60.3171545,3.32837446 L62.7949535,4.3798984 L63.1703776,5.5065312 L64.0713954,6.40783745 L63.7710562,6.63316401 L64.1464803,6.55805515 L65.0474981,7.08381713 L64.8222436,7.45936139 L64.5219044,7.45936139 L64.8973284,7.6095791 L65.1976677,7.23403483 L66.6993641,7.68468795 L67.7505515,7.45936139 L69.1771631,7.6095791 L69.3273327,8.21044993 L68.9519086,8.66110305 L68.8768238,10.0130624 L69.4024175,9.26197388 L69.1771631,8.96153846 L69.4024175,8.36066763 L69.9280112,8.43577649 L69.4024175,7.98512337 L69.4775023,7.6095791 L70.5286898,7.68468795 L70.9791987,7.30914369 L71.1293683,7.45936139 L71.1293683,7.08381713 L72.2556406,7.23403483 L72.5559799,7.53447025 L73.0815736,7.23403483 L73.9075066,7.68468795 L75.2590333,7.30914369 L75.7095422,7.83490566 L76.0098815,7.45936139 L76.6856449,7.53447025 L77.6617475,7.15892598 L77.8119171,7.45936139 L78.1873412,7.38425254 L78.262426,7.68468795 L79.3886983,7.68468795 L79.5388679,7.91001451 L80.8153099,7.83490566 L80.8903947,7.23403483 L81.7163277,7.75979681 L82.392091,7.53447025 L83.218024,7.75979681 L85.2453141,7.00870827 L85.4705686,6.55805515 L85.9961623,7.00870827 L86.2214168,6.78338171 L86.3715864,7.15892598 L86.6719257,7.00870827 L86.5968408,7.38425254 L87.1975194,7.30914369 L88.0985372,7.68468795 L90.1258273,6.70827286 L90.5763362,7.15892598 L91.3271844,7.00870827 L91.7026085,6.55805515 L91.5524388,6.4829463 L92.2282022,6.18251089 L92.2282022,5.73185776 L92.9039656,5.73185776 L93.3544745,5.3563135 L93.3544745,4.83055152 L93.7298986,4.75544267 L93.955153,5.28120464 L94.9312556,5.58164006 L94.781086,5.95718433 L95.2315949,6.25761974 L95.4568494,6.93359942 L97.0336305,7.23403483 L96.7332913,7.53447025 L96.5831216,7.30914369 L96.6582065,7.83490566 L96.9585457,7.6095791 L96.6582065,7.98512337 L97.1838002,8.06023222 L97.3339698,7.83490566 L97.7093939,8.06023222 L98.3100724,7.6095791 L98.7605814,7.91001451 L100.337363,7.75979681 L100.787871,7.98512337 L102.589907,7.68468795 L102.965331,8.36066763 L103.26567,8.13534107 L104.917536,8.21044993 L106.494318,9.93795356 L108.371438,9.712627 L110.623983,10.3886067 L112.426018,10.3134978 L113.477206,10.8392598 L114.228054,10.7641509 L114.303139,11.1396952 L114.753648,10.9143687 L117.081277,11.8156749 L118.658058,12.1912192 L120.835518,12.1912192 L120.910603,12.5667634 L120.910603,12.1912192 L121.736536,12.3414369 L122.787723,12.0410015 L123.538571,12.266328 L124.439589,11.8907837 L124.815013,12.3414369 L125.640946,12.3414369 L127.818406,11.9658926 L129.094848,11.5152395 L129.695526,10.9143687 L130.22112,11.0645864 L130.446375,10.7641509 L130.671629,11.0645864 L130.971968,10.6139332 L131.801,10.835 L132.473665,10.0130624 L134.651124,9.78773585 L135.251803,9.33708273 L135.777397,9.41219158 L135.702312,9.78773585 L136.227906,10.0881713 L135.401973,10.238389 L134.726209,10.8392598 L134.726209,11.1396952 L135.176718,11.2899129 L135.101633,11.8907837 L135.326888,11.5152395 L135.401973,11.740566 L135.852481,11.4401306 L135.627227,11.1396952 L135.927566,11.0645864 L136.002651,10.6139332 L136.528245,10.6139332 L136.077736,10.3134978 L136.828584,10.3134978 L137.053839,9.93795356 L137.729602,9.8628447 L138.63062,9.26197388 L139.231298,9.26197388 L139.831977,8.81132075 L139.831977,9.11175617 L140.582825,8.96153846 L140.808079,9.41219158 L141.258588,9.33708273 L141.558928,9.93795356 L142.985539,10.1632801 L143.135709,10.7641509 L142.53503,10.9143687 L143.060624,11.6654572 L143.436048,11.4401306 L144.337066,11.6654572 L145.238084,11.4401306 L145.162999,11.9658926 L145.613508,11.740566 L147.190289,12.1161103 L147.866052,13.0174165 L148.691985,13.317852 L148.691985,13.2427431 L149.217579,13.1676343 L149.442834,13.5431785 L149.593003,12.9423077 L149.818258,12.9423077 L150.869445,13.6182874 L151.169784,13.4680697 L150.94453,13.6182874 L151.395039,13.9938316 L151.545208,13.3929608 L151.094699,12.6418723 L151.770463,12.4165457 L152.446226,11.5903483 L152.896735,11.5903483 L152.896735,10.9143687 L155.749958,11.0645864 L156.200467,10.6890421 L156.87623,10.3886067 L157.101485,11.1396952 L158.077588,11.8156749 L158.978605,11.5152395 L159.579284,12.1912192 L159.954708,12.1161103 L160.255047,12.4916546 L160.705556,12.266328 L161.005895,12.7169811 L161.831828,12.6418723 L162.807931,13.7685051 L164.910306,14.820029 L166.412002,14.8951379 L167.538275,14.4444848 L167.988784,14.6698113 L168.063868,14.4444848 L168.289123,14.9702467 L168.964886,15.1955733 L171.592855,14.2191582 L172.343703,14.3693759 L172.343703,14.0689405 L173.019466,13.7685051 L173.920484,13.7685051 L175.272011,12.5667634 L176.473368,12.1161103 L176.623538,13.0174165 L176.173029,13.3929608 L177.149131,13.5431785 L177.59964,13.9187228 L177.674725,14.820029 L178.425573,14.4444848 L179.251506,14.5195936 L179.852185,14.5947025 L179.7771,15.2706821 L180.227609,16.1719884 L180.828287,16.2470972 L181.278796,15.4208999 L181.128627,15.1204644 L182.104729,14.9702467 L183.155917,15.6462264 L184.207104,15.5711176 L184.807783,16.1719884 L184.807783,17.899492 L184.432359,18.2750363 L184.132019,19.6269956 L182.930662,20.7536284 L183.606426,21.8802612 L185.408461,22.4060232 L185.558631,20.5283019 L186.084225,20.0025399 L187.060327,19.9274311 L186.309479,21.2793904 L187.210497,21.9553701 L188.261684,21.7300435 L189.688296,22.4811321 L189.688296,22.9317852 L190.288974,22.5562409 L190.964738,23.1571118 L192.391349,23.3824383 L192.691689,23.9082003 L193.742876,24.5090711 L194.568809,24.2086357 L194.718979,24.4339623 L196.521014,24.58418 L197.647287,24.058418 L198.17288,24.7343977 L198.022711,25.0348331 L198.247965,25.4103774 L198.097796,26.086357 L198.848644,26.5370102 L199.224068,26.3867925 L199.599492,27.0627721 L200.725764,27.8889695 L200.725764,28.5649492 L201.401528,28.5649492 L201.476612,29.2409289 L201.776952,29.3911466 L201.927121,28.9404935 L202.302545,28.9404935 L202.302545,28.4147315 L202.753054,27.9640784 L204.029496,28.8653846 L204.70526,28.5649492 L205.230853,28.7151669 L205.981701,27.7387518 L206.43221,27.8138607 L206.657465,27.3632075 L207.783737,28.1894049 L208.084076,28.1142961 L208.159161,28.4898403 L209.210349,29.0907112 L209.735942,28.7902758 L210.862215,30.9684325 L211.613063,31.0435414 L211.763232,31.6444122 L212.739335,31.9448476 L213.189844,31.7946299 L213.340014,31.4941945 L214.090862,31.6444122 L214.616456,31.1186502 L215.367304,31.2688679 L216.343406,30.8933237 L216.643746,30.5177794 L218.370696,31.1186502 L218.445781,31.719521 L219.04646,32.245283 L219.572054,32.0199565 L219.722223,31.4190856 L220.397987,30.8933237 L221.674428,31.7946299 L222.800701,31.4941945 L223.626634,31.7946299 L223.851888,31.4190856 L225.053245,31.6444122 L225.2785,31.3439768 L226.554942,31.7946299 L226.855281,31.7946299 L227.00545,31.3439768 L226.630026,30.217344 L226.179517,30.0671263 L226.705111,29.4662554 L226.254602,29.2409289 L226.780196,28.6400581 L226.554942,27.7387518 L227.531044,27.0627721 L228.957656,27.7387518 L229.483249,27.663643 L230.534437,28.0391872 L231.961048,29.0907112 L232.711897,28.6400581 L233.162406,29.16582 L234.438847,29.3160377 L235.114611,29.0907112 L236.090713,29.9920174 L236.240883,30.743106 L236.916646,31.2688679 L238.193088,30.743106 L238.643597,31.1186502 L240.745972,30.9684325 L240.670887,31.4190856 L241.421736,31.7946299 L241.421736,32.3955007 L241.947329,32.771045 L242.022414,33.5972424 L242.548008,34.1981132 L242.247669,34.798984 L242.548008,35.2496372 L241.947329,36.0758345 L242.698177,35.9256168 L243.073602,36.7518142 L242.097499,37.5029028 L242.548008,37.7282293 L242.698177,38.7797533 L244.725468,38.929971 L245.025807,38.2539913 L245.326146,38.4793179 L245.776655,37.9535559 L246.978012,37.9535559 L247.203267,36.9771408 L247.87903,37.3526851 L248.329539,37.0522496 L249.155472,37.4277939 L249.90632,37.2775762 L250.657168,37.5780116 L251.483101,38.4793179 L252.609373,38.3291001 L252.684458,39.0050798 L253.059882,39.2304064 L253.210052,40.2819303 L254.261239,41.2583454 L255.687851,40.8828012 L255.838021,40.432148 L256.363614,40.2819303 L256.513784,39.5308418 L257.114463,39.1552975 L258.090565,39.3806241 L259.216837,38.7797533 L259.967686,39.2304064 L260.418194,39.0801887 L261.169043,39.6810595 L262.820909,39.9814949 L262.820909,40.5072569 L263.797011,41.483672 L264.998368,41.6338897 L265.298708,41.1081277 L265.749217,40.95791 L267.701422,41.483672 L267.701422,40.95791 L267.250913,40.1317126 L267.626337,40.2068215 L267.701422,39.7561684 L268.60244,39.2304064 L269.428373,39.1552975 L269.878882,39.5308418 L270.854984,38.7797533 L271.080239,38.1788824 L271.530748,38.3291001 L271.756002,37.9535559 L272.732105,38.2539913 L273.332783,37.5780116 L273.708207,38.0286647 L275.209904,37.8033382 L276.110921,39.1552975 L276.86177,38.7797533 L277.988042,38.8548621 L277.612618,39.0801887 L277.837872,39.3806241 L277.462448,40.0566038 L277.762787,40.1317126 L277.537533,40.3570392 L277.687703,40.8828012 L278.138212,41.1832366 L278.288381,41.5587808 L278.964145,41.1832366 L279.489738,41.7089985 L279.790078,41.483672 L280.240586,41.8592163 L280.91635,42.009434 L280.240586,42.4600871 L280.465841,42.9858491 L280.015332,42.9107402 L280.240586,43.511611 L280.090417,43.8120464 L279.564823,43.8120464 L279.714993,44.2626996 L279.039229,43.8871553 L278.813975,44.4129173 L278.063127,44.037373 L277.837872,43.511611 L277.162109,43.9622642 L276.7116,45.1640058 L276.86177,47.0417271 L277.237194,47.642598 L277.988042,47.7177068 L277.837872,47.9430334 L278.663805,48.9194485 L278.363466,49.5954282 L278.363466,50.6469521 L278.213296,50.5718433 L278.663805,51.5482583 L279.114314,51.6233672 L279.114314,52.1491292 L278.813975,52.3744557 L278.663805,53.5010885 L278.138212,53.8766328 L278.063127,54.4023948 L277.537533,54.5526125 L277.087024,55.1534833 L276.486346,55.0783745 L275.284988,56.8809869 L273.933462,57.4818578 L273.032444,58.6084906 L270.62973,59.3595791 L270.104136,59.7351234 L269.803797,60.4862119 L264.848199,62.5892598 L261.844806,64.6171988 L259.592261,65.5185051 L258.090565,67.5464441 L257.489887,68.9735123 L257.790226,67.7717707 L257.339717,68.6730769 L257.039378,68.6730769 L257.039378,68.8984035 L257.339717,68.8232946 L256.814123,69.7997097 L256.213445,70.2503628 L254.261239,70.8512337 L252.534289,70.9263425 L251.257847,71.6023222 L250.131574,71.6774311 L248.704963,72.1280842 L248.404624,72.5036284 L248.554793,72.203193 L243.974619,73.1796081 L241.571905,74.4564586 L239.6197,74.6066763 L238.493428,75.282656 L238.343258,75.3577649 L238.493428,75.0573295 L237.742579,75.3577649 L236.991731,76.5595065 L236.090713,76.0337446 L234.513932,76.33418 L233.23749,76.9350508 L230.684607,79.4887518 L229.257995,81.6669086 L228.432062,82.1926705 L228.206808,82.7935414 L227.380875,83.3193033 L227.981553,84.2957184 L229.032741,84.2957184 L228.281892,83.6948476 L228.807486,83.6948476 L230.083928,85.2721335 L231.435455,85.5725689 L230.384267,86.6992017 L228.582232,87.6756168 L227.981553,88.4267054 L228.281892,87.8258345 L227.230705,87.6756168 L226.630026,88.0511611 L225.353584,88.2013788 L225.428669,88.5018142 L225.203415,88.3515965 L224.077143,89.628447 L223.551549,90.8301887 L222.800701,92.5576923 L222.725616,92.3323657 L221.599344,94.1349782 L221.449174,95.261611 L219.722223,97.4397678 L218.89629,98.0406386 L218.520866,99.2423803 L217.01917,100.143687 L216.043067,102.622279 L214.015777,103.974238 L212.889505,107.053701 L211.688148,108.555878 L211.312724,108.555878 L209.360518,111.860668 L208.75984,113.963716 L207.708652,115.165457 L206.507295,117.719158 L206.58238,119.296444 L206.282041,119.146226 L206.507295,119.521771 L206.206956,119.671988 L206.807634,122.451016 L208.60967,126.281567 L208.159161,126.582003 L208.234246,127.4082 L209.811027,131.313861 L212.589165,134.393324 L215.592558,135.069303 L215.292219,135.219521 L215.442389,135.444848 L215.517473,135.219521 L215.517473,135.519956 L217.094255,136.271045 L216.793915,136.57148 L216.944085,137.097242 L217.319509,137.472787 L217.619848,137.322569 L217.845103,138.073657 L216.793915,138.449202 L216.118152,139.500726 L215.667643,139.350508 L215.066964,139.726052 L214.541371,140.402032 L214.69154,140.777576 L214.015777,140.55225 L213.640353,140.927794 L212.96459,140.852685 L212.438996,141.15312 L211.688148,142.204644 L211.988487,142.580189 L211.012384,143.631713 L209.961197,143.331277 L209.510688,143.78193 L207.183059,144.533019 L205.381023,145.734761 L204.780344,146.711176 L204.780344,148.063135 L203.879327,147.837808 L202.978309,148.739115 L203.203563,148.36357 L202.753054,148.513788 L202.452715,149.865747 L202.677969,151.893687 L202.37763,152.269231 L200.951019,152.34434 L200.50051,152.794993 L199.899831,154.597605 L199.824746,157.151306 L199.374237,157.827286 L198.773559,158.052612 L198.32305,159.479681 L197.647287,159.855225 L197.422032,161.132075 L197.497117,161.132075 L197.722371,162.559144 L197.046608,161.883164 L196.596099,162.934688 L195.770166,163.610668 L195.469827,164.361756 L196.671184,166.014151 L197.947626,166.690131 L198.398135,166.08926 L198.698474,166.615022 L198.998813,166.615022 L198.32305,167.441219 L197.121693,167.741655 L196.370845,168.267417 L195.845251,167.966981 L195.169488,168.192308 L194.343555,168.793179 L193.442537,168.642961 L193.367452,168.417634 L193.742876,168.342525 L193.142198,168.192308 L192.992028,167.891872 L193.142198,167.666546 L192.766773,167.591437 L192.916943,168.117199 L192.466434,167.966981 L192.166095,168.342525 L191.114907,168.04209 L190.364059,168.417634 L190.06372,168.868287 L190.364059,169.31894 L189.237787,169.168723 L189.162702,168.642961 L188.486939,168.192308 L187.585921,168.117199 L187.360667,168.567852 L185.934055,168.492743 L184.432359,169.919811 L183.231002,170.445573 L182.705408,172.097968 L182.029645,171.872642 L181.128627,172.548621 L180.452863,172.62373 L179.852185,173.29971 L178.800997,173.825472 L178.200319,175.027213 L176.323198,177.055152 L175.272011,181.11103 L174.220823,183.13897 L174.370993,184.190493 L174.145739,184.490929 L173.469975,184.490929 L172.869297,185.392235 L172.418788,185.542453 L172.193533,185.842888 L172.268618,186.894412 L171.442685,187.269956 L170.992176,188.021045 L170.992176,188.471698 L170.016074,188.847242 L169.715734,189.598331 L168.439292,189.973875 L166.787426,187.945936 L165.661154,187.04463 L164.685052,186.894412 L163.483694,187.645501 L162.432507,186.969521 L162.732846,187.269956 L162.357422,187.04463 L160.705556,187.495283 L159.429114,189.898766 L158.903521,190.499637 L157.852333,190.875181 L156.425722,190.95029 L155.524704,190.349419 L154.773856,190.574746 L153.272159,189.147678 L152.220972,189.523222 L146.58961,189.072569 L144.86266,189.523222 L144.337066,190.124093 L143.210794,190.649855 L141.934352,190.574746 L141.033334,189.823657 L141.108419,189.973875 L140.432655,190.124093 L139.456553,189.373004 L138.33028,189.297896 L137.954856,189.748549 L137.128923,189.598331 L136.903669,189.973875 L136.45316,189.523222 L136.077736,189.748549 L134.726209,189.072569 L132.24841,189.823657 L129.920781,189.222787 L129.169933,189.823657 L127.593151,190.048984 L124.664844,190.199202 L123.238232,189.898766 L122.862808,190.274311 L122.862808,189.973875 L120.835518,192.978229 L120.385009,193.428882 L118.958397,193.954644 L118.282634,195.306604 L116.180259,195.907475 L113.927715,195.381713 L112.726358,195.381713 L110.774152,196.583454 L109.272456,196.808781 L107.77076,197.710087 L107.320251,197.634978 L106.419233,198.686502 L105.818554,200.338897 L104.467028,202.291727 L104.016519,204.244557 L103.490925,204.169448 L103.040416,203.643687 L102.214483,203.718795 L101.763974,204.620102 L102.139398,206.347605 L101.38855,206.873367 L101.013126,206.798258 L98.5353269,208 L97.7844787,206.948476 L96.8834609,206.497823 L96.1326127,206.648041 L95.0063405,205.896952 L94.6309164,206.197388 L93.3544745,204.469884 L92.1531174,203.493469 L89.7504032,203.568578 L88.3237917,200.939768 L87.5729435,200.639332 L86.8220953,198.911829 L86.0712471,198.235849 L84.5695508,194.93106 L83.9688722,194.855951 L84.7948052,194.480406 L84.4944659,194.705733 L84.7948052,194.780842 L84.7197204,194.855951 L85.0951445,195.607039 L85.2453141,195.306604 L85.3203989,195.456821 L85.8459927,194.480406 L85.9961623,193.804427 L85.8459927,193.503991 L85.0951445,193.503991 L84.4193811,192.527576 L83.8937874,192.677794 L84.1190418,192.527576 L83.7436178,192.377358 L83.8187026,192.752903 L83.4432785,192.377358 L83.1429392,192.602685 L82.4671759,192.152032 L81.4159884,189.523222 L83.1429392,188.096154 L82.3170062,187.645501 L81.3409036,185.242017 L79.6890376,183.289187 L74.8836092,180.059507 L72.8563191,179.1582 L71.4297076,178.031567 L71.7300469,178.557329 L71.279538,178.106676 L70.7539442,178.106676 L71.0542835,178.407112 L70.8290291,178.407112 L68.801739,177.430697 L63.2454624,177.88135 L62.4946143,178.482221 L61.7437661,178.181785 L61.5185116,176.904935 L61.1430875,176.454282 L61.4434268,175.853411 L60.9929179,174.876996 L60.9929179,172.849057 L60.542409,172.398403 L60.9178331,172.097968 L60.3922394,170.821118 L60.542409,170.370464 L60.0919001,170.070029 L59.9417305,169.469158 L59.5663064,169.394049 L59.3410519,168.642961 L59.6413912,168.492743 L59.716476,167.291001 L60.6925786,166.164369 L61.4434268,163.385341 L61.9690205,163.235123 L63.9212258,161.282293 L64.2966499,159.855225 L64.8222436,159.104136 L64.7471588,157.677068 L65.9485159,157.151306 L67.3751274,157.151306 L67.4502123,156.475327 L67.975806,156.099782 L68.801739,156.700653 L69.9280112,156.625544 L70.3034353,154.522496 L71.0542835,153.245646 L70.7539442,153.095428 L70.7539442,152.719884 L71.4297076,151.818578 L71.3546228,151.518142 L70.9041139,151.518142 L70.6037746,151.893687 L70.453605,151.66836 L69.7778416,151.893687 L69.4024175,152.419448 L68.6515693,152.34434 L68.3512301,152.719884 L67.2249578,151.217707 L66.9246185,149.940856 L66.5491944,149.865747 L64.5219044,146.936502 L64.3717347,146.260522 L63.6208865,145.734761 L63.2454624,145.809869 L63.9963106,144.833454 L63.4707169,144.758345 L63.846141,143.105951 L65.0474981,141.002903 L64.5219044,140.627358 L64.7471588,138.374093 L65.7983463,137.848331 L67.3751274,136.045718 L68.1259756,135.97061 L68.7266542,134.994194 L69.3273327,134.768868 L69.4775023,134.318215 L69.1020782,133.567126 L71.0542835,130.562772 L70.8290291,129.736575 L70.3034353,128.76016 L69.4024175,128.159289 L67.9007212,128.609942 L67.2249578,128.384615 L67.0747882,128.009071 L67.3000426,126.732221 L65.6481766,126.13135 L65.1225829,125.605588 L64.9724133,124.554064 L65.2727525,123.878084 L63.7710562,122.375907 L63.4707169,121.174165 L63.9212258,120.272859 L63.9963106,119.071118 L62.9451232,118.320029 L62.5696991,118.470247 L62.2693598,118.24492 L62.0441054,117.193396 L61.2932572,117.118287 L60.542409,115.991655 L59.8666456,115.691219 L59.3410519,113.888607 L59.0407126,113.66328 L60.7676635,113.738389 L63.1703776,114.33926 L64.8973284,113.588171 L66.9997033,113.963716 L67.5252971,113.738389 L68.7266542,113.813498 L69.7778416,113.513062 L70.5286898,110.809144 L70.3785202,109.75762 L71.0542835,109.457184 L71.9553013,108.40566 L71.9553013,106.828374 L72.3307254,106.527939 L72.4058102,105.326197 L72.8563191,104.5 L71.279538,101.87119 L70.0781809,101.645864 L69.4775023,99.8432511 L69.8529264,98.7917271 L70.7539442,98.4912917 L71.0542835,97.9655298 L71.8802165,98.0406386 L72.7812343,97.6650943 L72.8563191,96.838897 L74.2829307,95.9375907 L74.5081851,95.0362845 L73.3819129,93.8345428 L73.1566584,92.7830189 L74.2078459,91.1306241 L74.1327611,90.0791001 L73.2317432,89.5533382 L74.2078459,87.1498549 L73.5320825,84.6712627 L73.8324218,83.2441945 L73.6071673,82.1926705 L74.1327611,82.1175617 L74.1327611,81.7420174 L73.9825914,81.1411466 L73.1566584,80.6153846 L72.931404,79.3385341 L71.6549621,77.9114659 L71.4297076,77.2354862 L71.8051317,76.9350508 L72.931404,77.3105951 L73.9825914,77.0101597 L75.0337789,75.282656 L74.7334396,74.4564586 L76.1600511,73.1044993 L76.3102208,72.3534107 L77.2112386,71.3018868 L78.1873412,71.3769956 L78.4125957,71.1516691 L78.712935,71.5272134 L79.8392072,70.5507983 L79.9893769,70.8512337 L80.3648009,70.7761248 L80.6651402,70.5507983 L80.5149706,70.175254 L81.3409036,69.8748186 L82.0166669,68.5979681 L82.7675151,68.2975327 L82.4671759,67.9970972 L82.4671759,67.621553 L82.9176848,67.3962264 L83.2931088,67.7717707 L83.9688722,67.5464441 L83.6685329,66.8704644 L84.4193811,66.2695936 L84.1941267,65.8189405 L86.521756,62.4390421 L86.2965016,61.8381713 L85.695823,61.6128447 L84.4193811,60.1106676 L81.4159884,59.434688 L81.1156491,59.8853411 L80.2897161,60.1857765 L79.2385287,59.3595791 L79.3136135,58.3080552 L78.8631046,57.7822932 L79.9893769,54.4023948 L78.8631046,53.9517417 L79.3136135,52.6748911 L78.4876805,51.7735849 L77.8119171,52.4495646 L76.235136,52.6748911 L75.1839485,52.3744557 L74.6583548,51.2478229 L74.1327611,51.0976052 L73.5320825,52.3744557 L71.2044532,52.3744557 L70.9041139,51.6984761 L70.3785202,51.5482583 L69.8529264,52.1491292 L68.6515693,52.224238 L68.2010604,51.5482583 L67.6003819,51.1727141 L66.3990248,51.3229318 L66.1737703,52.3744557 L66.3990248,53.0504354 L66.0236007,54.1019594 L63.6208865,55.0783745 L62.7949535,55.1534833 L62.5696991,54.8530479 L61.368342,56.0547896 L60.8427483,54.6277213 L60.0168153,54.3272859 L59.2659671,55.1534833 L57.5390163,55.4539187 L57.7642707,54.4023948 L58.1396948,54.1019594 L56.5629136,54.0268505 L55.7369806,53.3508708 L54.9861325,53.7264151 L54.5356236,53.5761974 L53.934945,54.0268505 L52.9588424,54.1019594 L52.1329094,54.9281567 L51.8325701,54.6277213 L51.9827397,52.9753266 L51.6073157,52.8251089 L51.2318916,54.1770682 L50.0305345,54.2521771 L49.3547711,55.4539187 L48.4537533,55.829463 L47.0271418,56.0547896 L46.2762936,55.7543541 L46.1261239,54.2521771 L45.5254454,54.3272859 L45.1500213,53.275762 L46.2762936,51.3229318 L46.9520569,50.722061 L47.7779899,50.4216255 L47.8530748,49.5203193 L47.2523962,48.6190131 L45.9008695,48.9945573 L45.5254454,46.591074 L44.9998517,47.1919448 L44.5493428,46.9666183 L44.3240883,47.4923803 L43.1227312,48.0181422 L42.822392,48.5439042 L42.1466286,48.3185776 L41.7712045,48.6941219 L40.9452715,48.8443396 L40.5698474,48.5439042 L38.9930662,48.6190131 L38.8428966,49.0696662 L38.4674725,49.2949927 L36.6654369,49.4452104 L36.214928,49.9709724 L35.9896735,50.7971698 L34.3378075,51.7735849 L34.1125531,52.5997823 L32.8361112,53.2006531 L31.7849237,54.4775036 L31.6347541,54.1019594 L31.4094996,51.4731495 L31.7098389,50.722061 L31.1842452,47.7177068 L31.6347541,47.7177068 L32.2354326,47.2670537 L32.5357719,47.642598 L32.7610263,47.5674891 L32.8361112,46.8915094 L32.2354326,46.4408563 L32.7610263,46.4408563 L32.911196,45.6146589 L33.737129,45.088897 L34.0374682,44.4129173 L34.4879772,44.3378084 L34.1876379,44.4129173 L34.4879772,44.563135 L36.0647583,42.9107402 L37.1159458,42.9107402 L36.8156065,42.3098694 L37.1159458,41.3334543 L36.6654369,41.0330189 L36.5903521,41.7841074 L36.1398431,42.1596517 L36.1398431,42.7605225 L35.0886557,43.2111756 L34.9384861,42.8356313 L34.6381468,42.9107402 L34.563062,43.2862845 L33.9623834,43.6618287 L33.5869593,43.511611 L33.4367897,43.9622642 L32.9862808,43.6618287 L32.6108567,43.8871553 L32.1603478,43.5867199 L31.9350933,43.9622642 L31.7849237,43.8871553 L32.1603478,42.3098694 L32.6108567,43.1360668 L32.911196,43.1360668 L32.8361112,42.1596517 L32.4606871,41.483672 L33.2115352,41.483672 L33.5118745,41.7841074 L34.1876379,41.483672 L34.7883164,40.2068215 L36.2900128,39.0801887 L35.6893342,39.2304064 L35.4640798,38.7046444 L33.8122138,40.2068215 L32.9862808,39.8312772 L32.4606871,40.2819303 L31.6347541,39.4557329 L31.7849237,38.8548621 L31.4845844,38.2539913 L30.9589907,38.1037736 L30.6586514,38.404209 L30.3583122,38.1037736 L30.433397,37.6531205 L31.4094996,37.5780116 L31.4094996,37.2775762 L31.7849237,37.0522496 L32.1603478,37.8033382 L31.7849237,38.1037736 L31.8600085,38.4793179 L32.3856022,38.1037736 L32.911196,38.4793179 L32.6108567,37.5780116 L33.0613656,37.2775762 L32.8361112,36.9020319 L32.9862808,36.3011611 L32.6859415,36.5264877 L32.4606871,35.7002903 L32.911196,35.4749637 L32.6108567,35.3998549 L32.6859415,35.0243106 L33.3617049,34.8740929 L33.9623834,34.2732221 L33.737129,33.8976778 L34.1876379,32.9963716 L33.8872986,32.8461538 L33.2115352,33.296807 L32.8361112,33.0714804 L32.9862808,32.4706096 L32.4606871,31.9448476 L32.4606871,32.6208273 L32.2354326,32.5457184 L32.0101782,33.0714804 L32.4606871,33.4470247 L32.085263,33.5972424 L32.085263,34.1230044 L31.4845844,34.0478955 L31.7098389,33.4470247 L31.1842452,33.2216981 L30.433397,34.1230044 L30.8088211,34.7238752 L30.1330577,34.7238752 L29.9078033,35.1745283 L29.3822095,35.2496372 L29.3822095,36.1509434 L28.2559373,36.6015965 L28.4811917,35.4749637 L28.0306828,35.0243106 L27.6552587,35.2496372 L27.3549194,34.9492017 L28.3310221,33.3719158 L28.7064462,31.2688679 L29.0067854,31.2688679 L29.4572943,30.4426705 L30.1330577,30.2924528 L30.8088211,29.16582 L31.1091603,29.0156023 L31.6347541,29.6164731 L31.3344148,29.0156023 L31.4094996,28.4147315 L31.5596693,28.3396226 L31.1842452,27.8138607 L31.1091603,28.7151669 L30.8088211,28.8653846 L30.6586514,28.6400581 L30.0579729,29.3911466 L29.6825488,29.0156023 L29.6825488,29.3911466 L28.9317006,29.3160377 L28.8566158,28.7151669 L28.4061069,29.16582 L27.955598,29.16582 L28.2559373,29.691582 L27.4300043,30.5177794 L27.2047498,30.0671263 L26.8293257,30.0671263 L26.5289864,29.0156023 L26.1535624,28.8653846 L27.0545802,28.1894049 L26.9794954,27.663643 L26.5289864,27.5885341 L26.1535624,26.7623367 L26.6040713,25.7859216 L25.9283079,25.7108128 L25.1774597,24.4339623 L25.4027142,25.5605951 L24.8771204,25.4854862 L24.651866,24.8095065 L24.3515267,24.8846154 L24.3515267,25.2601597 L23.6757634,25.5605951 L23.6006785,26.5370102 L23.3754241,26.2365747 L23.4505089,25.7108128 L23,25.4103774 L23.0750848,24.8846154 L23.6757634,23.9833091 L23.6757634,23.1571118 L23.9761026,23.3073295 L24.1262723,23.006894 L23.5255937,22.8566763 L23.0750848,21.5798258 L23.5255937,21.8802612 L23.9010178,21.7300435 L23.9010178,20.6034107 L24.651866,20.6785196 L24.651866,19.9274311 L25.4027142,20.6785196 L25.8532231,19.7021045 L26.6791561,19.4016691 L25.8532231,19.6269956 L25.8532231,18.951016 L25.4027142,19.7021045 L25.0272901,19.5518868 L24.8020356,18.6505806 L25.1023749,18.8759071 L25.477799,18.5003628 L25.6279686,17.8243832 L26.0033927,18.0497097 L26.1535624,17.6741655 L26.4539016,17.8243832 L26.5289864,17.5990566 L27.5801739,18.1248186 L28.3310221,17.7492743 L28.9317006,16.6226415 L29.2320399,17.0732946 L29.607464,16.7728592 L30.3583122,16.7728592 L30.2832273,17.1484035 L30.6586514,16.9981858 L30.8839059,16.3973149 L31.25933,16.3973149 L30.8839059,16.3222061 L30.3583122,16.9981858 L30.5084818,16.6226415 L30.2081425,15.7964441 L29.6825488,15.871553 L29.3822095,15.4960087 L30.0579729,14.8951379 L30.6586514,15.2706821 L30.7337363,14.9702467 L31.1091603,14.9702467 L31.0340755,14.1440493 L31.7849237,14.4444848 L31.8600085,14.1440493 L32.3856022,14.2191582 L32.4606871,13.4680697 L33.5869593,14.6698113 L35.1637405,15.0453556 L37.1910306,14.1440493 L38.2422181,14.4444848 L38.692727,14.2942671 L39.2183207,13.9938316 L39.51866,13.0925254 L39.894084,13.2427431 L40.344593,13.0925254 L40.720017,12.4165457 L41.3206956,12.79209 L41.4708652,12.266328 L41.7712045,12.8671988 L41.3957804,13.0174165 L41.7712045,13.2427431 L41.8462893,13.5431785 L42.5220527,13.4680697 L42.7473071,12.5667634 L42.371883,12.4916546 L42.5220527,12.0410015 L43.3479857,11.8156749 L43.6483249,12.3414369 L44.2490035,12.4165457 L44.6244276,12.9423077 L44.4742579,13.317852 L45.3752758,13.9938316 L45.3001909,13.6182874 L45.5254454,13.6933962 L45.1500213,13.2427431 L45.3752758,12.9423077 L45.1500213,12.1161103 L45.4503606,11.6654572 L46.1261239,11.6654572 L46.1261239,11.3650218 L45.6005302,11.2148041 L45.2251061,11.5152395 L44.9247669,11.2148041 L44.3240883,11.5152395 L43.8735794,10.9894775 L43.1227312,10.7641509 L43.4230705,10.6890421 L43.2729009,10.4637155 L44.0988339,10.238389 L44.1739187,10.4637155 L44.3991731,10.1632801 L44.9247669,10.3886067 L45.5254454,10.3134978 L45.9008695,9.93795356 L45.8257847,9.63751814 L46.1261239,9.78773585 L46.2762936,9.26197388 L44.849682,10.0130624 L44.9247669,9.712627 L44.5493428,9.78773585 L44.5493428,9.33708273 L44.1739187,10.0881713 L43.5732401,10.3134978 L43.1227312,10.0130624 L42.6722223,10.3134978 L42.5220527,10.1632801 L43.1227312,9.26197388 L42.8974768,8.66110305 L43.5732401,8.21044993 L42.9725616,7.45936139 L43.2729009,7.23403483 L43.6483249,7.6095791 L44.3240883,7.53447025 L45.7506999,6.33272859 L45.8257847,5.73185776 L46.501548,5.88207547 L46.501548,6.40783745 L46.8018873,5.3563135 L47.4025658,5.20609579 L47.7779899,4.45500726 L47.9281596,5.28120464 L48.2284988,5.13098694 L48.6039229,5.43142235 L48.153414,4.98076923 L48.5288381,4.98076923 L48.5288381,4.68033382 L48.0783292,4.68033382 L48.3786685,3.40348331 L48.979347,3.1030479 L49.6551104,3.40348331 L50.631213,2.72750363 L50.631213,2.35195936 L51.1568067,2.42706821 L51.6073157,1.60087083 L51.8325701,1.75108853 L52.3581638,1.45065312 L52.5083335,1.75108853 L52.283079,2.57728592 L52.6585031,3.2532656 L52.2079942,2.95283019 L52.1329094,3.85413643 L51.9076549,4.00435414 L52.283079,4.30478955 L51.6073157,4.3798984 L52.1329094,4.68033382 L52.7335879,4.2296807 L52.3581638,3.55370102 L53.0339272,3.40348331 L53.2591817,3.85413643 L53.5595209,3.70391872 L53.109012,3.2532656 L53.4844361,3.1030479 L53.4844361,2.80261248 L55.2864717,2.1266328 L56.0373199,1.37554427 L55.9622351,1 Z M241.881586,137.239796 L241.957089,137.859694 L242.334601,138.341837 L242.636611,138.272959 L242.787615,138.892857 L243.54264,139.512755 L243.84465,139.65051 L244.675177,139.168367 L244.977186,139.719388 L244.750679,140.132653 L243.769147,140.132653 L242.93862,139.512755 L242.183596,139.306122 L240.900054,140.408163 L240.749049,138.548469 L241.126562,138.135204 L241.277567,138.272959 L241.730581,138.066327 L241.881586,137.239796 Z M244.28202,128.790816 L244.739116,129.382245 L245.653307,129.456173 L245.577125,129.677959 L245.805673,129.751888 L245.424759,129.825816 L245.348577,130.195459 L246.034221,131.082602 L245.272394,131.378316 L245.196211,132.043673 L244.205837,132.265459 L244.129654,132.930816 L243.901106,133.004745 L244.129654,133.226531 L243.748741,133.152602 L243.063097,134.039745 L242.606001,133.891888 L242.606001,134.261531 L242.225088,133.965816 L242.225088,134.261531 L241.844175,134.261531 L241.539444,135.000816 L241.615627,136.109745 L241.158531,135.887959 L240.853801,136.183673 L240.320522,135.148673 L239.787244,135.518316 L239.787244,135.222602 L239.330148,135.370459 L239.330148,135.000816 L238.796869,134.926888 L238.263591,135.518316 L237.806495,135.148673 L237.577947,134.335459 L238.035043,133.374388 L237.577947,132.856888 L237.882677,132.413316 L238.263591,132.635102 L239.482513,132.487245 L239.025417,131.969745 L239.330148,131.526173 L239.253965,131.008673 L240.244339,130.417245 L240.625253,129.899745 L240.929983,130.195459 L241.234714,129.751888 L241.767992,129.751888 L241.920358,129.382245 L242.301271,129.677959 L243.215463,128.938673 L243.444011,129.234388 L243.672558,128.864745 L244.28202,128.790816 Z M277.916288,106.612245 L277.765772,106.832992 L278.593611,106.612245 L278.367837,107.053739 L277.389482,107.568815 L276.937933,107.495233 L276.486384,108.157473 L276.110094,107.863144 L275.88432,108.157473 L275.959578,108.746132 L276.335868,109.261208 L278.367837,108.451802 L278.066804,108.672549 L278.217321,109.187625 L277.84103,109.702702 L276.712159,109.849866 L276.712159,110.659271 L277.088449,111.321512 L277.690514,111.836588 L279.42145,112.572411 L280.926612,111.763006 L281.378161,111.027183 L283.109097,112.2045 L283.635904,112.130918 L283.560646,112.793158 L284.087452,112.940323 L283.560646,113.234652 L283.560646,114.485551 L283.259613,114.485551 L283.184355,115.000627 L282.58229,115.000627 L282.281258,115.368539 L282.130742,116.177944 L282.507032,116.472273 L281.980226,116.545856 L281.754451,117.208096 L281.00187,117.502426 L281.227645,117.64959 L280.098773,118.900489 L279.872999,120.740047 L279.571966,120.445718 L279.722483,120.740047 L279.120418,121.917364 L278.819385,121.917364 L278.969902,122.064528 L278.066804,122.358857 L277.765772,123.021098 L277.238965,122.947516 L275.733803,124.492744 L275.206997,124.566327 L274.454416,123.462592 L273.927609,123.315427 L274.002867,122.726769 L273.325544,122.064528 L272.798737,122.064528 L272.422447,122.358857 L271.820382,121.990946 L270.842027,121.990946 L270.691511,122.211693 L270.239962,121.990946 L269.863672,122.064528 L268.885316,120.960794 L269.035833,120.004224 L268.509026,119.121236 L269.035833,118.238249 L267.455412,116.913767 L266.702831,116.987349 L266.928606,116.766603 L266.702831,116.766603 L266.477057,117.281679 L266.853348,117.134514 L266.702831,117.355261 L266.176025,117.208096 L265.799734,117.723172 L264.746121,117.943919 L264.896637,118.238249 L264.670863,118.385413 L264.445088,119.636312 L263.767766,119.268401 L263.466733,119.415565 L263.541991,118.753325 L263.090443,118.385413 L263.541991,118.091084 L263.015185,117.576008 L262.337862,117.943919 L262.41312,117.576008 L262.036829,117.576008 L261.660539,118.017502 L261.660539,117.64959 L261.133732,117.723172 L261.735797,117.355261 L261.359506,117.428843 L260.8327,116.840185 L261.058474,115.810033 L263.165701,114.559133 L264.595605,113.308234 L265.122411,113.308234 L265.724476,112.940323 L266.401799,111.910171 L267.304896,111.468677 L267.455412,110.953601 L267.681187,110.806436 L267.906961,111.027183 L268.057477,110.512107 L269.637897,109.702702 L269.713155,109.33479 L271.067801,109.187625 L271.218317,108.819714 L272.873996,108.083891 L273.175028,107.642397 L273.852351,107.936726 L275.131739,107.200903 L275.05648,107.42165 L275.508029,107.348068 L275.432771,107.642397 L276.110094,107.274486 L276.712159,107.348068 L277.615256,106.612245 L277.916288,106.612245 Z M296.115773,102.387755 L296.480267,102.537106 L296.33447,103.209184 L296.553166,103.58256 L297.136358,103.134508 L297.063459,104.105288 L297.282156,103.881262 L297.209257,102.985158 L297.938246,103.209184 L297.719549,103.881262 L298.156942,104.179963 L298.375639,103.955937 L298.594336,104.926716 L298.667235,104.403989 L298.885932,104.852041 L299.906516,104.852041 L299.614921,104.926716 L299.833617,105.225417 L299.614921,105.748145 L299.906516,105.82282 L299.760719,106.196197 L300.052314,106.046846 L300.198112,107.092301 L300.635505,107.465677 L300.708404,107.913729 L301,108.06308 L300.708404,108.21243 L300.416809,107.615028 L299.614921,107.540353 L300.416809,107.913729 L300.635505,108.361781 L300.562607,109.18321 L299.906516,109.780612 L298.667235,109.407236 L297.865347,108.735158 L295.240986,106.94295 L293.710109,106.345547 L292.543726,106.793599 L291.012849,106.793599 L291.231546,104.70269 L290.575456,104.777365 L290.429658,104.254638 L291.012849,103.43321 L291.887636,103.209184 L292.543726,103.209184 L292.98112,103.58256 L293.199816,103.134508 L294.147502,103.43321 L295.168087,103.059833 L295.605481,103.43321 L296.261571,102.985158 L296.115773,102.387755 Z" mask="url(#spain-b)"/>
  </g>
</svg>
