<svg xmlns="http://www.w3.org/2000/svg" width="128" height="128" viewBox="0 0 128 128">
  <path class="fill-gray" d="M117.657948,55.8641425 C116.49951,54.1149771 114.743525,52.9096554 112.70198,52.4527585 C114.018968,49.933858 113.965266,46.7909864 112.287704,44.2584472 C111.094316,42.4555794 109.294005,41.2911741 107.334292,40.8504729 C107.683784,40.1838807 107.942068,39.4644384 108.096356,38.705785 C108.52427,36.596046 108.106585,34.4462432 106.917459,32.6518996 C105.759021,30.9018819 104.003036,29.6965602 101.961491,29.2405158 C103.278479,26.7216153 103.224777,23.5787436 101.547214,21.045352 C99.0948028,17.3415882 94.0842795,16.3229465 90.3796631,18.7762105 L82.3583932,24.0884905 C78.0826556,21.9199346 73.5349961,20.381317 68.8151478,19.5050294 C67.3234131,17.2401502 65.5887388,15.1346732 63.6469267,13.2525304 L60.3284566,10.0363506 C57.8982078,7.68026238 54.0870389,7.32650812 51.2655296,9.19586484 C47.9274538,11.4061893 47.0102501,15.9206044 49.2205745,19.2586802 C49.3075214,19.3908053 49.3927632,19.5237828 49.4771528,19.6567603 C38.5994241,21.857708 28.6857823,27.6302947 21.3481529,36.0888562 C13.3856997,45.2685646 9,57.0251381 9,69.192578 C9,71.5247985 9.15940255,73.8612811 9.47479776,76.135537 C11.9050466,93.8155754 23.6820781,109.051727 40.2087927,115.899215 C46.3376907,118.439425 52.8408013,119.728284 59.5348537,119.728284 C70.1363984,119.728284 80.2844557,116.481417 88.882814,110.339733 C97.2944923,104.330173 103.587908,96.0369815 107.083681,86.3569025 C107.410158,85.4550423 106.942179,84.4585637 106.040319,84.1329392 C105.137607,83.807315 104.14198,84.274441 103.816356,85.1771536 C100.560965,94.1914925 94.6988741,101.914416 86.8625792,107.512256 C78.8575051,113.231141 69.4075794,116.253821 59.5348537,116.253821 C54.4305641,116.253821 49.4464657,115.448285 44.6763246,113.859374 L58.8111494,104.498953 C58.8120018,104.4981 58.8128541,104.4981 58.8137067,104.497248 C58.8145591,104.497248 58.8145591,104.496395 58.8154114,104.495543 L70.5626083,96.71636 L70.5634608,96.71636 C71.617904,96.0173758 72.3381987,94.9501462 72.5905149,93.7098754 C72.8428312,92.4696048 72.5973343,91.2046136 71.8983501,90.1501704 L71.7432098,89.9149026 L74.0251375,88.4035624 C75.6532591,87.3252514 77.6112673,86.9024512 79.5394409,87.2118796 C82.3311157,87.6602523 85.1662638,87.0465101 87.522352,85.4857294 L106.449481,72.9517491 C106.319913,74.5935097 106.106808,76.2258936 105.809313,77.8309999 C105.633715,78.7746286 106.256834,79.6816033 107.200462,79.8563493 C107.307015,79.8768073 107.41442,79.886184 107.519268,79.886184 C108.340148,79.886184 109.069819,79.3014242 109.224959,78.4652002 C109.706577,75.8746965 109.983613,73.2211138 110.055216,70.5641214 L115.388807,67.0316939 C117.18315,65.8434206 118.408078,64.0269142 118.835992,61.9180276 C119.26476,59.8082886 118.846221,57.6584861 117.657948,55.8641425 L117.657948,55.8641425 Z M78.9853682,26.3218305 L73.6773502,29.8372094 L72.6322835,27.0216671 C72.1958445,25.8470325 71.6954743,24.6954134 71.1414013,23.5685146 C73.8341954,24.2513027 76.4562387,25.1719161 78.9853682,26.3218305 Z M23.9727532,38.3656694 C31.0248222,30.2361421 40.6307405,24.7712789 51.1393715,22.8763497 C52.8254577,26.9611452 53.2295047,31.5250008 52.2219445,35.8748987 L47.9862707,54.173794 C47.3205309,53.462876 46.4561771,52.9727346 45.4827139,52.7749732 C44.2415907,52.5218046 42.9774521,52.7681539 41.9230089,53.4671381 L29.9252005,61.4116904 C29.9243482,61.4116904 29.9243482,61.4116904 29.9234956,61.4125427 C29.9234956,61.4125427 29.9226432,61.4125427 29.9226432,61.4133951 L12.6185219,72.8724741 C12.5239034,71.651809 12.474463,70.4217672 12.474463,69.192578 C12.474463,57.8622144 16.5584062,46.9137349 23.9727532,38.3656694 Z M69.1859505,93.0168582 C69.1186093,93.347597 68.9259623,93.6331577 68.6438113,93.8198377 L68.6446639,93.8198377 L58.326975,100.651982 L39.1773646,72.0933626 C38.6428976,71.29635 37.5637341,71.0840976 36.7667217,71.6185646 C35.9705616,72.1530318 35.7574567,73.2313428 36.2919238,74.0283553 L55.4296001,102.570779 L40.7006388,112.325018 C26.0645915,105.923346 15.5909097,92.4039683 13.0728616,76.6725614 L30.3974412,65.2373503 L32.3912509,68.2122952 C32.7271044,68.7118133 33.2760627,68.9820303 33.8361025,68.9820303 C34.1685463,68.9820303 34.5052519,68.8874116 34.801894,68.6879455 C35.5989065,68.1534783 35.8120116,67.074315 35.2775443,66.2773024 L33.2973732,63.323668 L43.8418056,56.3636604 C44.1222519,56.1769806 44.4589578,56.1121965 44.7896964,56.1795377 C45.1204355,56.2468789 45.405996,56.4395257 45.5926759,56.7208243 L69.0018278,92.0689674 C69.1876552,92.3494134 69.2532915,92.6861193 69.1859505,93.0168582 L69.1859505,93.0168582 Z M115.431428,61.2258627 C115.187636,62.4260698 114.491209,63.4592025 113.47001,64.1351716 L107.372651,68.173084 C107.370946,68.1739364 107.369242,68.1756411 107.366684,68.1764937 L85.6035551,82.5892072 C83.9754334,83.6675181 82.0174253,84.0911707 80.0892516,83.7808899 C77.2984294,83.3333696 74.4632811,83.9462594 72.1063405,85.5070401 L69.8244128,87.0183803 L50.6517873,58.0676475 L55.6077558,36.6591249 C56.8838283,31.1439691 56.211269,25.3347283 53.7801678,20.2739122 C53.758005,20.2210621 53.7341372,20.1699169 53.7068598,20.119624 C53.2397338,19.1632092 52.7095286,18.2349241 52.117097,17.3398832 C50.9646255,15.5992422 51.4428329,13.245711 53.1843263,12.0923871 C54.655603,11.1180713 56.6434459,11.3021939 57.9101415,12.530531 L61.2286119,15.7475631 C64.8181514,19.2279931 67.6353989,23.5446468 69.3743352,28.2312508 L71.1814651,33.09942 C71.1848748,33.1087966 71.1882845,33.1164684 71.1916942,33.1249927 C71.1959562,33.1360741 71.2010706,33.1480081 71.2053329,33.1590895 C71.2181192,33.1889242 71.230053,33.2162016 71.2428393,33.2392168 C71.2777885,33.312525 71.3161473,33.3849806 71.3621781,33.4540266 C71.8923831,34.2544488 72.9698417,34.4735206 73.7694115,33.9433156 L92.2984601,21.6735853 C94.4056417,20.2781742 97.2552811,20.8569673 98.6506922,22.964149 C100.046103,25.0713307 99.4673102,27.9209698 97.3601286,29.3163811 L95.7516126,30.3819057 C95.7516126,30.3819057 95.75076,30.3819057 95.7499077,30.3827581 L92.1620729,32.7593046 C92.1569583,32.7627141 92.1535488,32.766124 92.1484342,32.7686811 C92.1279761,32.7831722 92.1083704,32.7968109 92.0921746,32.8104496 C91.3505693,33.3551459 91.1587749,34.390836 91.6727838,35.1665381 C92.2021367,35.9669601 93.2804476,36.1860319 94.0808699,35.6558269 L97.6712619,33.2775759 C98.6916083,32.6033118 99.9131258,32.3654866 101.11248,32.6092788 C102.311835,32.8530707 103.34582,33.5494976 104.020937,34.5706966 C104.696906,35.591043 104.935583,36.8142654 104.691791,38.0136199 C104.447999,39.2138269 103.751572,40.2469599 102.730373,40.9229287 L97.5323175,44.3658522 C96.7318952,44.8952049 96.5128234,45.9726635 97.0430286,46.7730857 C97.3771772,47.2777182 97.9295452,47.5513449 98.4929946,47.5513449 C98.8220285,47.5513449 99.1553247,47.4575786 99.4502621,47.2623745 L100.254946,46.7296122 L103.038949,44.8858282 C105.146983,43.4904171 107.99577,44.0692099 109.391181,46.1763916 C110.786592,48.2844259 110.207799,51.1332126 108.100618,52.5294763 L105.504147,54.248807 C105.490508,54.2573311 105.47687,54.2667077 105.463231,54.2760844 L102.902562,55.9715473 C102.10214,56.5008999 101.883068,57.5792111 102.413273,58.3796333 C102.747422,58.8842658 103.29979,59.1578925 103.863239,59.1578925 C104.192273,59.1578925 104.525569,59.0641262 104.820506,58.8689221 L105.625191,58.3361598 C105.625191,58.3361598 105.625191,58.3353072 105.626043,58.3353072 L108.410046,56.4923758 C109.430393,55.816407 110.652763,55.5777294 111.85297,55.822374 C113.053177,56.0653136 114.086309,56.7625928 114.762278,57.7829392 C115.437395,58.8032859 115.67522,60.0265081 115.431428,61.2258627 Z" transform="rotate(34 64 63.864)"/>
</svg>
