<svg xmlns="http://www.w3.org/2000/svg" width="128" height="128" viewBox="0 0 128 128">
  <g>
    <path class="fill-gray" fill-rule="nonzero" d="M116.145161,94.0218182 L112.032258,94.0218182 L112.032258,63.7618182 L118.887097,63.7618182 C119.295514,63.7616707 119.6826,63.5788436 119.94294,63.2631264 C120.203279,62.9474092 120.309761,62.5316795 120.233387,62.1291536 L114.749516,33.2446082 C114.626448,32.595982 114.061345,32.1266013 113.403226,32.1263636 L110.66129,32.1263636 L110.66129,29.3754545 C110.66129,28.615812 110.047487,28 109.290323,28 L98.3225806,28 C97.5654161,28 96.9516129,28.615812 96.9516129,29.3754545 L96.9516129,32.1263636 L61.3064516,32.1263636 C60.648332,32.1266013 60.0832296,32.595982 59.9601613,33.2446082 L54.4762903,62.1291536 C54.3999163,62.5316795 54.5063981,62.9474092 54.7667376,63.2631264 C55.027077,63.5788436 55.4141633,63.7616707 55.8225806,63.7618182 L62.6774194,63.7618182 L62.6774194,94.0218182 L50.3387097,94.0218182 L50.3387097,91.1471182 C53.1689597,90.6780411 55.5485394,88.7580225 56.6122214,86.0851909 C57.6759035,83.4123594 57.2687448,80.3760575 55.5387903,78.0803 C56.2317765,75.7541131 55.6384619,73.2337055 53.981371,71.4643636 C54.2911175,70.7722872 54.4513756,70.022281 54.4516129,69.2636364 C54.4516129,66.2250661 51.9964002,63.7618182 48.9677419,63.7618182 C45.9390836,63.7618182 43.483871,66.2250661 43.483871,69.2636364 C43.4841082,70.022281 43.6443663,70.7722872 43.9541129,71.4643636 C42.2980288,73.2336908 41.7048169,75.7531381 42.3966935,78.0789245 C40.6652154,80.3744911 40.2571711,83.4116528 41.321041,86.0852381 C42.384911,88.7588233 44.7655843,90.6790265 47.5967742,91.1471182 L47.5967742,94.0218182 L39.3709677,94.0218182 C38.6138032,94.0218182 38,94.6376302 38,95.3972727 C38,96.1569153 38.6138032,96.7727273 39.3709677,96.7727273 L116.145161,96.7727273 C116.902326,96.7727273 117.516129,96.1569153 117.516129,95.3972727 C117.516129,94.6376302 116.902326,94.0218182 116.145161,94.0218182 Z M43.483871,83.0181818 C43.488351,81.633442 44.0159928,80.3019102 44.9604032,79.2920755 C45.3323133,78.8893101 45.4298552,78.3032242 45.2085484,77.8010827 C44.4277807,76.046609 44.9744772,73.9833401 46.5205645,72.8494464 C47.1262962,72.3936608 47.2490568,71.5315241 46.7947581,70.92381 C46.4271899,70.4488474 46.2270852,69.8649516 46.2258065,69.2636364 C46.2258065,67.7443512 47.4534128,66.5127273 48.9677419,66.5127273 C50.4820711,66.5127273 51.7096774,67.7443512 51.7096774,69.2636364 C51.7066748,69.8614901 51.5071719,70.441652 51.1420968,70.9141818 C50.687798,71.5218959 50.8105587,72.3840326 51.4162903,72.8398182 C52.9632585,73.9731578 53.5096494,76.0374302 52.7269355,77.7914545 C52.5059886,78.2938635 52.6040749,78.8799814 52.9764516,79.2824473 C54.3022027,80.6923458 54.7833976,82.7017948 54.2407368,84.5620479 C53.6980761,86.4223011 52.2129402,87.8543844 50.3387097,88.3246855 L50.3387097,84.3936364 C50.3387097,83.6339938 49.7249065,83.0181818 48.9677419,83.0181818 C48.2105774,83.0181818 47.5967742,83.6339938 47.5967742,84.3936364 L47.5967742,88.3246855 C45.1829317,87.699413 43.4932139,85.5193243 43.483871,83.0181818 Z M99.6935484,30.7509091 L107.919355,30.7509091 L107.919355,32.1263636 L99.6935484,32.1263636 L99.6935484,30.7509091 Z M62.4416129,34.8772727 L112.268065,34.8772727 L117.230968,61.0109091 L57.4787097,61.0109091 L62.4416129,34.8772727 Z M72.2741935,94.0218182 L72.2741935,78.8918182 L79.1290323,78.8918182 L79.1290323,94.0218182 L72.2741935,94.0218182 Z M81.8709677,94.0218182 L81.8709677,77.5163636 C81.8709677,76.7567211 81.2571646,76.1409091 80.5,76.1409091 L70.9032258,76.1409091 C70.1460612,76.1409091 69.5322581,76.7567211 69.5322581,77.5163636 L69.5322581,94.0218182 L65.4193548,94.0218182 L65.4193548,63.7618182 L109.290323,63.7618182 L109.290323,94.0218182 L81.8709677,94.0218182 Z M121.629032,94.0218182 L120.258065,94.0218182 C119.5009,94.0218182 118.887097,94.6376302 118.887097,95.3972727 C118.887097,96.1569153 119.5009,96.7727273 120.258065,96.7727273 L121.629032,96.7727273 C122.386197,96.7727273 123,96.1569153 123,95.3972727 C123,94.6376302 122.386197,94.0218182 121.629032,94.0218182 Z M103.806452,76.1409091 L87.3548387,76.1409091 C86.5976741,76.1409091 85.983871,76.7567211 85.983871,77.5163636 L85.983871,85.7690909 C85.983871,86.5287335 86.5976741,87.1445455 87.3548387,87.1445455 L103.806452,87.1445455 C104.563616,87.1445455 105.177419,86.5287335 105.177419,85.7690909 L105.177419,77.5163636 C105.177419,76.7567211 104.563616,76.1409091 103.806452,76.1409091 Z M88.7258065,84.3936364 L88.7258065,78.8918182 L94.2096774,78.8918182 L94.2096774,84.3936364 L88.7258065,84.3936364 Z M102.435484,84.3936364 L96.9516129,84.3936364 L96.9516129,78.8918182 L102.435484,78.8918182 L102.435484,84.3936364 Z M48.9677419,81.6427273 C49.7249065,81.6427273 50.3387097,81.0269153 50.3387097,80.2672727 L50.3387097,78.8918182 C50.3387097,78.1321756 49.7249065,77.5163636 48.9677419,77.5163636 C48.2105774,77.5163636 47.5967742,78.1321756 47.5967742,78.8918182 L47.5967742,80.2672727 C47.5967742,81.0269153 48.2105774,81.6427273 48.9677419,81.6427273 Z"/>
    <path class="fill-gray" fill-rule="nonzero" d="M99.6521739,94.265625 L28.3478261,94.265625 L22.5476087,94.265625 L23.765,88.25 L26.173913,88.25 L26.173913,85.671875 L18.7826087,85.671875 L18.7826087,82.9639844 C21.7558696,82.3652148 24,79.7610938 24,76.6484375 C24,73.0944922 21.0743478,70.203125 17.4782609,70.203125 C13.8821739,70.203125 10.9565217,73.0944922 10.9565217,76.6484375 C10.9565217,79.7610938 13.2006522,82.3652148 16.173913,82.9639844 L16.173913,85.671875 L8.7826087,85.671875 L8.7826087,88.25 L11.1915217,88.25 L12.408913,94.265625 L4,94.265625 L4,102 L124,102 L124,94.265625 L99.6521739,94.265625 Z M13.5652174,76.6484375 C13.5652174,74.5161133 15.3206522,72.78125 17.4782609,72.78125 C19.6358696,72.78125 21.3913043,74.5161133 21.3913043,76.6484375 C21.3913043,78.7807617 19.6358696,80.515625 17.4782609,80.515625 C15.3206522,80.515625 13.5652174,78.7807617 13.5652174,76.6484375 Z M28.3478261,96.84375 L28.3478261,99.421875 L18.7826087,99.421875 L18.7826087,96.84375 L28.3478261,96.84375 Z M30.9565217,96.84375 L40.5217391,96.84375 L40.5217391,99.421875 L30.9565217,99.421875 L30.9565217,96.84375 Z M43.1304348,96.84375 L52.6956522,96.84375 L52.6956522,99.421875 L43.1304348,99.421875 L43.1304348,96.84375 Z M56.1304348,96.84375 L72.1304348,96.84375 L72.1304348,99.421875 L56.1304348,99.421875 L56.1304348,96.84375 Z M75.3043478,96.84375 L84.8695652,96.84375 L84.8695652,99.421875 L75.3043478,99.421875 L75.3043478,96.84375 Z M87.4782609,96.84375 L97.0434783,96.84375 L97.0434783,99.421875 L87.4782609,99.421875 L87.4782609,96.84375 Z M99.6521739,96.84375 L109.217391,96.84375 L109.217391,99.421875 L99.6521739,99.421875 L99.6521739,96.84375 Z M13.8519565,88.25 L21.1047826,88.25 L19.8873913,94.265625 L15.0693478,94.265625 L13.8519565,88.25 Z M6.60869565,96.84375 L16.173913,96.84375 L16.173913,99.421875 L6.60869565,99.421875 L6.60869565,96.84375 Z M121.391304,99.421875 L111.826087,99.421875 L111.826087,96.84375 L121.391304,96.84375 L121.391304,99.421875 Z"/>
  </g>
</svg>
