<svg xmlns="http://www.w3.org/2000/svg" width="128" height="128" viewBox="0 0 128 128">
  <path class="fill-gray" d="M98.7143348,106.679775 C99.3633182,106.319541 100.156676,106.339229 100.78691,106.731572 L100.78691,106.731572 L111.619473,113.476171 C112.218769,113.849296 112.583221,114.505076 112.583221,115.211247 C112.583221,115.917184 112.218769,116.573198 111.619473,116.946323 L111.619473,116.946323 L100.78691,123.690923 C100.45691,123.896235 100.081911,123.999594 99.7066771,123.999594 C99.3651932,123.999594 99.023475,123.914516 98.7141004,123.742719 C98.0655857,123.382251 97.6626957,122.698111 97.6626957,121.955847 L97.6626957,121.955847 L97.6626957,117.254994 L30.9205255,117.254994 L30.9205255,121.955847 C30.9205255,122.698111 30.5181042,123.382251 29.8688864,123.742719 C29.5597462,123.914282 29.218028,123.999594 28.8765441,123.999594 C28.5013102,123.999594 28.1263108,123.896469 27.7963112,123.690923 L27.7963112,123.690923 L16.9637486,116.946323 C16.3644526,116.573198 16,115.917184 16,115.211247 C16,114.505311 16.3644526,113.849296 16.9637486,113.476171 L16.9637486,113.476171 L27.7963112,106.731572 C28.4270135,106.339229 29.2201373,106.319541 29.8691208,106.679775 C30.5181042,107.040243 30.9205255,107.724383 30.9205255,108.466647 L30.9205255,108.466647 L30.9205255,113.1675 L97.66293,113.1675 L97.66293,108.466647 C97.66293,107.724383 98.0653513,107.040243 98.7143348,106.679775 Z M26.8325626,112.147033 L21.9111634,115.211247 L26.8325626,118.275462 L26.8325626,112.147033 Z M101.750659,112.147033 L101.750659,118.275462 L106.672527,115.211247 L101.750659,112.147033 Z M110.53924,4 C111.668457,4 112.583221,4.91523307 112.583221,6.04398145 L112.583221,6.04398145 L112.583221,12.4787379 C112.583221,13.6074863 111.668222,14.5227193 110.53924,14.5227193 C109.410023,14.5227193 108.495258,13.6074863 108.495258,12.4787379 L108.495258,12.4787379 L108.495258,8.0879629 L50.0970606,8.0879629 L50.0970606,54.3110999 L86.4790398,54.3110999 C87.6082569,54.3110999 88.5230212,55.226333 88.5230212,56.3550813 C88.5230212,57.4838297 87.6080225,58.3990628 86.4790398,58.3990628 L86.4790398,58.3990628 L57,58.399 L80.999,74.587 L104.999,58.399 L100.377457,58.3990628 C99.2995683,58.3990628 98.4170794,57.5651418 98.3390802,56.5076122 L98.333476,56.3550813 C98.333476,55.226333 99.2484746,54.3110999 100.377457,54.3110999 L100.377457,54.3110999 L108.49479,54.3110999 L108.49479,19.291775 C108.49479,18.1630266 109.409788,17.2477935 110.538771,17.2477935 C111.667988,17.2477935 112.583221,18.1630266 112.583221,19.291775 L112.583221,19.291775 L112.583,57.657 L112.792776,57.9679377 L112.583,58.108 L112.583,95.891 L112.792776,96.0320623 L112.583,96.342 L112.583221,98.538771 C112.583221,99.6162126 111.749087,100.499108 110.691334,100.577145 L110.538771,100.582752 L18.0439815,100.582752 C16.9152331,100.582752 16,99.6675194 16,98.538771 L16,98.538771 L16,6.04398145 C16,4.91523307 16.9152331,4 18.0439815,4 L18.0439815,4 Z M46.0093321,8.0879629 L20.0879629,8.0879629 L20.0879629,96.4950239 L46.0090977,96.4950239 L46.0090977,86.6051162 C46.0090977,85.4763678 46.9243308,84.5611347 48.0530791,84.5611347 C49.1818275,84.5611347 50.0970606,85.4763678 50.0970606,86.6051162 L50.0970606,86.6051162 L50.097,95.432 L77.423,77 L50.097,58.567 L50.097295,71.8889654 C50.097295,72.966407 49.2633739,73.8493027 48.2058444,73.9273398 L48.0533135,73.9329468 C46.9245651,73.9329468 46.0093321,73.0177138 46.0093321,71.8889654 L46.0093321,71.8889654 L46.0093321,8.0879629 Z M81,79.412 L55.673,96.495 L106.326,96.495 L81,79.412 Z M108.494,60.866 L84.576,77 L108.494,93.133 L108.494,60.866 Z"/>
</svg>
