<svg xmlns="http://www.w3.org/2000/svg" width="128" height="128" viewBox="0 0 128 128">
  <g>
    <g transform="translate(5 10)">
      <path class="fill-primary" d="M66.1930668,5.75667324 L68.1000646,12.0039637 L77.4889426,11.0545331 L85.0650028,32.10792 L80.5911009,32.6434576 L83.75,58.9359239 L63.1646685,61.5997602 L46.9016229,62.1866732 L55.1892563,60.9688678 L53.6138727,47.9493894 L44.8404018,48.891849 L46.7896229,62.1906732 L38.6406241,62.4848802 L17.9493793,64.6976804 L14.6149034,39.9520524 L8.01162289,40.3229742 L13.75,17.5 L60.446043,12.7779606 L60.1362702,5.75667324 L66.1930668,5.75667324 Z M31.6474198,49.7812071 L20,51.25 L20.447397,57.2220981 L32.3260064,55.6904837 L31.6474198,49.7812071 Z M77.5,46.5059306 L66.25,47.5 L66.8489426,51.9940073 L78.21471,50.3599256 L77.5,46.5059306 Z M48.0116229,43.2566732 C50.0826907,43.2566732 51.7616229,41.5777411 51.7616229,39.5066732 C51.7616229,37.4356054 50.0826907,35.7566732 48.0116229,35.7566732 C45.9405551,35.7566732 44.2616229,37.4356054 44.2616229,39.5066732 C44.2616229,41.5777411 45.9405551,43.2566732 48.0116229,43.2566732 Z"/>
      <path class="fill-gray" fill-rule="nonzero" d="M84.1935484,61.4516129 L82.7822581,61.4516129 L82.7822581,38.8709677 L87.016129,38.8709677 C87.4607576,38.8707835 87.8793008,38.6610765 88.1456334,38.3050407 C88.411966,37.9490048 88.4949417,37.4882766 88.3695565,37.0616935 L81.3131048,13.0697581 C81.1365913,12.4692274 80.5856119,12.056711 79.9596774,12.0564516 L71.4919355,12.0564516 L71.4919355,6.41129032 C71.4919355,5.6318562 70.8600793,5 70.0806452,5 L61.6129032,5 C60.8334691,5 60.2016129,5.6318562 60.2016129,6.41129032 L60.2016129,12.0564516 L15.0403226,12.0564516 C14.4143881,12.056711 13.8634087,12.4692274 13.6868952,13.0697581 L6.63044355,37.0616935 C6.50505825,37.4882766 6.58803401,37.9490048 6.85436659,38.3050407 C7.12069918,38.6610765 7.53924243,38.8707835 7.98387097,38.8709677 L12.2177419,38.8709677 L12.2177419,61.4516129 L5.16129032,61.4516129 C4.3818562,61.4516129 3.75,62.0834691 3.75,62.8629032 C3.75,63.6423373 4.3818562,64.2741935 5.16129032,64.2741935 L84.1935484,64.2741935 C84.9729825,64.2741935 85.6048387,63.6423373 85.6048387,62.8629032 C85.6048387,62.0834691 84.9729825,61.4516129 84.1935484,61.4516129 Z M63.0241935,7.82258065 L68.6693548,7.82258065 L68.6693548,12.0564516 L63.0241935,12.0564516 L63.0241935,7.82258065 Z M16.0959677,14.8790323 L78.8983871,14.8790323 L85.1235887,36.0483871 L60.7379032,36.0483871 L48.4370968,25.1137097 C47.9025392,24.6390129 47.0974608,24.6390129 46.5629032,25.1137097 L34.2620968,36.0483871 L9.87076613,36.0483871 L16.0959677,14.8790323 Z M15.0403226,38.8709677 L33.3870968,38.8709677 L33.3870968,61.4516129 L15.0403226,61.4516129 L15.0403226,38.8709677 Z M36.2096774,38.0933468 L47.5,28.0576613 L58.7903226,38.0933468 L58.7903226,61.4516129 L53.1451613,61.4516129 L53.1451613,48.75 C53.1451613,47.9705659 52.5133051,47.3387097 51.733871,47.3387097 L43.266129,47.3387097 C42.4866949,47.3387097 41.8548387,47.9705659 41.8548387,48.75 L41.8548387,61.4516129 L36.2096774,61.4516129 L36.2096774,38.0933468 Z M44.6774194,61.4516129 L44.6774194,50.1612903 L50.3225806,50.1612903 L50.3225806,61.4516129 L44.6774194,61.4516129 Z M61.6129032,61.4516129 L61.6129032,38.8709677 L79.9596774,38.8709677 L79.9596774,61.4516129 L61.6129032,61.4516129 Z M89.8387097,61.4516129 L88.4274194,61.4516129 C87.6479852,61.4516129 87.016129,62.0834691 87.016129,62.8629032 C87.016129,63.6423373 87.6479852,64.2741935 88.4274194,64.2741935 L89.8387097,64.2741935 C90.6181438,64.2741935 91.25,63.6423373 91.25,62.8629032 C91.25,62.0834691 90.6181438,61.4516129 89.8387097,61.4516129 Z M47.5,44.516129 C50.6177365,44.516129 53.1451613,41.9887042 53.1451613,38.8709677 C53.1451613,35.7532313 50.6177365,33.2258065 47.5,33.2258065 C44.3822635,33.2258065 41.8548387,35.7532313 41.8548387,38.8709677 C41.8548387,41.9887042 44.3822635,44.516129 47.5,44.516129 Z M47.5,36.0483871 C49.0588682,36.0483871 50.3225806,37.3120995 50.3225806,38.8709677 C50.3225806,40.429836 49.0588682,41.6935484 47.5,41.6935484 C45.9411318,41.6935484 44.6774194,40.429836 44.6774194,38.8709677 C44.6774194,37.3120995 45.9411318,36.0483871 47.5,36.0483871 Z M30.5645161,47.3387097 L17.8629032,47.3387097 C17.0834691,47.3387097 16.4516129,47.9705659 16.4516129,48.75 L16.4516129,54.3951613 C16.4516129,55.1745954 17.0834691,55.8064516 17.8629032,55.8064516 L30.5645161,55.8064516 C31.3439503,55.8064516 31.9758065,55.1745954 31.9758065,54.3951613 L31.9758065,48.75 C31.9758065,47.9705659 31.3439503,47.3387097 30.5645161,47.3387097 Z M29.1532258,52.983871 L19.2741935,52.983871 L19.2741935,50.1612903 L29.1532258,50.1612903 L29.1532258,52.983871 Z M77.1370968,47.3387097 L64.4354839,47.3387097 C63.6560497,47.3387097 63.0241935,47.9705659 63.0241935,48.75 L63.0241935,54.3951613 C63.0241935,55.1745954 63.6560497,55.8064516 64.4354839,55.8064516 L77.1370968,55.8064516 C77.9165309,55.8064516 78.5483871,55.1745954 78.5483871,54.3951613 L78.5483871,48.75 C78.5483871,47.9705659 77.9165309,47.3387097 77.1370968,47.3387097 Z M75.7258065,52.983871 L65.8467742,52.983871 L65.8467742,50.1612903 L75.7258065,50.1612903 L75.7258065,52.983871 Z" transform="rotate(-6 47.5 34.637)"/>
    </g>
    <path class="fill-gray" fill-rule="nonzero" d="M112.348863,90.0829809 L98.4937596,96.9313147 C96.5808347,93.2090014 92.9113007,90.8400921 88.8729997,90.7208335 L76.0827433,90.3531197 C74.0575475,90.2925869 72.0703511,89.7559232 70.269697,88.7828816 L68.9682174,88.0772684 C62.3045025,84.4434954 54.3617621,84.4525302 47.704956,88.1007586 L47.7861366,85.0162981 C47.812909,83.9944688 47.0434209,83.143396 46.0666632,83.1153885 L32.0414261,82.7115355 C31.0646687,82.6835278 30.2519993,83.4885233 30.2252269,84.5103526 L29.3773349,116.708363 C29.3512407,117.730192 30.1207286,118.581265 31.0974863,118.609273 L45.1227234,119.013126 L45.1710863,119.013126 C46.1297076,119.013126 46.9138775,118.215358 46.9397861,117.213405 L46.9803764,115.672982 L50.6240018,113.632034 C52.0541615,112.827038 53.7261356,112.635502 55.2884295,113.09808 L77.0465466,119.486546 C77.084546,119.498291 77.1225454,119.507326 77.1614086,119.516361 C78.734066,119.860584 80.3369502,120.033148 81.9432889,120.032248 C85.3459635,120.034051 88.7089112,119.267002 91.8015453,117.78169 C91.8775441,117.745551 91.950952,117.703088 92.0209054,117.655204 L123.568189,96.3079175 C124.354086,95.7757713 124.607991,94.6961196 124.14768,93.8432401 C121.805535,89.4957226 116.610842,87.8396546 112.348863,90.0829809 L112.348863,90.0829809 Z M32.9629119,114.961044 L33.7125366,86.4618566 L44.2012376,86.7636169 L43.4516129,115.263708 L32.9629119,114.961044 Z M90.2081607,114.476782 C86.3659021,116.290958 82.0745596,116.791483 77.9447145,115.908789 L56.2453237,109.536586 C53.8029979,108.81471 51.1888111,109.11376 48.9546185,110.370492 L47.0926473,111.414005 L47.5909579,92.4654421 C53.4912301,88.3600557 61.0582945,87.9381332 67.3420153,91.3632037 L68.6434951,92.0688169 C70.9182779,93.2975417 73.4271026,93.9751474 75.9860176,94.0528461 L88.7771375,94.4205601 C92.3698091,94.528977 95.420989,97.2050674 96.1498868,100.887628 L77.0975004,100.337412 C76.1207427,100.309404 75.3080736,101.115303 75.2804376,102.136229 C75.2536653,103.158058 76.024017,104.009131 76.999911,104.037139 L98.0256759,104.642466 L98.0749025,104.642466 C99.0326604,104.641563 99.8159665,103.843795 99.841875,102.842746 C99.8634656,102.038654 99.8064666,101.233658 99.6708778,100.442215 L113.881794,93.4177039 C113.895612,93.4113796 113.90943,93.4041518 113.923248,93.396924 C115.938944,92.3299209 118.376088,92.6867932 120.034244,94.2922669 L90.2081607,114.476782 Z" transform="scale(-1 1) rotate(11 0 -697.023)"/>
  </g>
</svg>
