<svg xmlns="http://www.w3.org/2000/svg" width="128" height="128" viewBox="0 0 128 128">
  <g>
    <polygon class="fill-primary" points="13 16 85.52 16 85.52 10.595 102.499 10.595 102.499 16 119 16 119 23 102.499 23.82 102.499 28.008 97.5 28.758 97.5 115.332 89.666 115.332 89.666 28.758 85.52 28.008 86.243 23 13 23"/>
    <polygon class="fill-primary" points="9 73 25 73 25.5 82.333 21.833 87.272 14.5 87.527 9 82.333"/>
    <path class="fill-gray" fill-rule="nonzero" d="M117.165778,14.4999548 L104.33255,14.4999548 L104.33255,10.8333183 C104.33255,9.82087536 103.511675,9 102.499232,9 L84.166049,9 C83.1536061,9 82.3327307,9.82087536 82.3327307,10.8333183 L82.3327307,14.4999548 L10.8333183,14.4999548 C9.82087536,14.4999548 9,15.3208302 9,16.3332731 L9,23.6665461 C9,24.6798842 9.82087536,25.4998644 10.8333183,25.4998644 L16.3332731,25.4998644 L16.3332731,60.3329115 C16.3332731,61.3462495 17.1541484,62.1662298 18.1665913,62.1662298 C19.1790342,62.1662298 19.9999096,62.9871051 19.9999096,63.999548 C19.9999096,65.0128861 19.1790342,65.8328663 18.1665913,65.8328663 C17.1541484,65.8328663 16.3332731,65.0128861 16.3332731,63.999548 L12.6666365,63.999548 C12.6720077,65.3414153 13.1706201,66.634943 14.0693757,67.6321678 L9.36702161,73.9001828 L9.39029627,73.9180863 C9.14501822,74.2260265 9.00805656,74.6064758 9,74.9994576 L9,82.3327307 C9,82.8197059 9.19335779,83.2851968 9.53710496,83.628944 L13.2037415,87.2955805 C13.5474887,87.6393277 14.0138748,87.8326855 14.4999548,87.8326855 L21.8332279,87.8326855 C22.3193079,87.8326855 22.785694,87.6393277 23.1294412,87.2955805 L26.7960777,83.628944 C27.1398249,83.2851968 27.3331827,82.8197059 27.3331827,82.3327307 L27.3331827,74.9994576 C27.3251262,74.6064758 27.1881645,74.2260265 26.9428864,73.9180863 L26.9661611,73.9001828 L22.263807,67.6321678 C23.4884063,66.2715019 23.9503165,64.3880538 23.4946726,62.6156077 C23.0399237,60.8431611 21.7275971,59.4162524 19.9999096,58.8137997 L19.9999096,25.4998644 L82.3327307,25.4998644 L82.3327307,27.3331827 C82.3327307,28.3465207 83.1536061,29.1665009 84.166049,29.1665009 L87.8326855,29.1665009 L87.8326855,115.33246 L80.4994124,115.33246 L80.4994124,41.9997288 L76.8327759,41.9997288 L76.8327759,49.3330019 L65.8328663,49.3330019 L65.8328663,45.6663654 L62.1662298,45.6663654 L62.1662298,49.3330019 L51.1663202,49.3330019 L51.1663202,47.4996836 L47.4996836,47.4996836 L47.4996836,49.3330019 L36.499774,49.3330019 L36.499774,43.8330471 L60.3329115,43.8330471 L60.3329115,40.1664105 L36.499774,40.1664105 L36.499774,32.8331375 L32.8331375,32.8331375 L32.8331375,115.33246 L29.9256093,115.33246 L21.2961229,106.703868 C20.579983,105.987728 19.4198362,105.987728 18.7036963,106.703868 L10.0742099,115.33246 L9,115.33246 L9,118.999096 L119,118.999096 L119,115.33246 L117.569502,115.33246 C118.859449,113.924349 119.317778,111.942432 118.777093,110.110009 C118.237302,108.278481 116.777272,106.862314 114.928736,106.37892 C115.860613,104.081006 115.140892,101.444716 113.169717,99.9399264 C111.199437,98.4351374 108.465573,98.4351374 106.495293,99.9399264 C104.524117,101.444716 103.804397,104.081006 104.736274,106.37892 C102.887737,106.862314 101.427707,108.278481 100.887917,110.110009 C100.347231,111.942432 100.805561,113.924349 102.095508,115.33246 L98.8325951,115.33246 L98.8325951,29.1665009 L102.499232,29.1665009 C103.511675,29.1665009 104.33255,28.3465207 104.33255,27.3331827 L104.33255,25.4998644 L117.165778,25.4998644 C118.178221,25.4998644 119,24.6798842 119,23.6665461 L119,16.3332731 C119,15.3208302 118.178221,14.4999548 117.165778,14.4999548 L117.165778,14.4999548 Z M19.0832505,69.4995028 L21.8332279,73.1661394 L14.4999548,73.1661394 L17.2499322,69.4995028 L19.0832505,69.4995028 Z M23.6665461,81.5745175 L21.0741195,84.166049 L15.2590631,84.166049 L12.6666365,81.5745175 L12.6666365,76.8327759 L23.6665461,76.8327759 L23.6665461,81.5745175 Z M109.282867,18.1665913 L104.33255,21.4671014 L104.33255,18.1665913 L109.282867,18.1665913 Z M85.9993672,12.6666365 L93.3326403,12.6666365 L93.3326403,19.9999096 L85.9993672,19.9999096 L85.9993672,12.6666365 Z M36.499774,18.5336129 L41.4500913,21.8332279 L31.5494567,21.8332279 L36.499774,18.5336129 Z M25.4998644,21.4671014 L20.5495471,18.1665913 L30.4501817,18.1665913 L25.4998644,21.4671014 Z M42.5493663,18.1665913 L52.4500009,18.1665913 L47.4996836,21.4671014 L42.5493663,18.1665913 Z M58.4995932,18.5336129 L63.4499105,21.8332279 L53.5492759,21.8332279 L58.4995932,18.5336129 Z M64.5491856,18.1665913 L74.4498201,18.1665913 L69.4995028,21.4671014 L64.5491856,18.1665913 Z M12.6666365,18.1665913 L13.9503173,18.1665913 L19.4502721,21.8332279 L12.6666365,21.8332279 L12.6666365,18.1665913 Z M75.5490952,21.8332279 L81.04905,18.1665913 L82.3327307,18.1665913 L82.3327307,21.8332279 L75.5490952,21.8332279 Z M95.1659586,109.282867 L91.8663436,104.33255 L95.1659586,99.3831278 L95.1659586,109.282867 Z M95.1659586,65.2832288 L91.8663436,60.3329115 L95.1659586,55.3834893 L95.1659586,65.2832288 Z M91.499322,66.3833989 L94.798937,71.3328211 L91.499322,76.2831384 L91.499322,66.3833989 Z M91.499322,54.2833192 L91.499322,44.3835797 L94.798937,49.3330019 L91.499322,54.2833192 Z M91.499322,88.3832181 L94.798937,93.3326403 L91.499322,98.2829576 L91.499322,88.3832181 Z M95.1659586,87.2723061 L91.8663436,82.3327307 L95.1659586,77.3833085 L95.1659586,87.2723061 Z M91.8663436,38.3330923 L95.1659586,33.3836701 L95.1659586,43.2834096 L91.8663436,38.3330923 Z M91.499322,32.2835 L91.499322,29.1665009 L93.5743377,29.1665009 L91.499322,32.2835 Z M76.8327759,52.9996384 L76.8327759,71.3328211 L65.8328663,71.3328211 L65.8328663,52.9996384 L76.8327759,52.9996384 Z M62.1662298,52.9996384 L62.1662298,68.7663545 L57.9499557,64.5993153 C57.607999,64.2618342 57.1469838,64.071162 56.666275,64.0693718 L51.1663202,64.0693718 L51.1663202,52.9996384 L62.1662298,52.9996384 Z M47.4996836,52.9996384 L47.4996836,56.0557658 L36.499774,56.0557658 L36.499774,52.9996384 L47.4996836,52.9996384 Z M19.9999096,110.591613 L24.7407561,115.33246 L15.2590631,115.33246 L19.9999096,110.591613 Z M36.499774,115.33246 L36.499774,59.7224023 L47.4996836,59.7224023 L47.4996836,65.9098515 C47.4996836,66.9231893 48.320559,67.7431697 49.3330019,67.7431697 L55.9125378,67.7431697 L62.7158673,74.4704092 C63.057824,74.8078901 63.5188391,74.9985625 63.999548,74.9994576 L76.8327759,74.9994576 L76.8327759,115.33246 L36.499774,115.33246 Z M91.499322,110.383037 L94.798937,115.33246 L91.499322,115.33246 L91.499322,110.383037 Z M113.499141,113.499141 C112.486698,113.499141 111.665823,112.679161 111.665823,111.665823 C111.665823,110.65338 112.486698,109.832505 113.499141,109.832505 C114.511584,109.832505 115.33246,110.65338 115.33246,111.665823 C115.33246,112.679161 114.511584,113.499141 113.499141,113.499141 Z M109.832505,102.499232 C110.844948,102.499232 111.665823,103.320107 111.665823,104.33255 C111.665823,105.345888 110.844948,106.165868 109.832505,106.165868 C108.820062,106.165868 107.999186,105.345888 107.999186,104.33255 C107.999186,103.320107 108.820062,102.499232 109.832505,102.499232 Z M106.165868,109.832505 C107.178311,109.832505 107.999186,110.65338 107.999186,111.665823 C107.999186,112.679161 107.178311,113.499141 106.165868,113.499141 C105.153425,113.499141 104.33255,112.679161 104.33255,111.665823 C104.33255,110.65338 105.153425,109.832505 106.165868,109.832505 Z M100.665913,25.4998644 L85.9993672,25.4998644 L85.9993672,23.6665461 L95.1659586,23.6665461 C96.1784015,23.6665461 96.9992768,22.8465659 96.9992768,21.8332279 L96.9992768,12.6666365 L100.665913,12.6666365 L100.665913,25.4998644 Z M43.8330471,107.999186 L43.8330471,111.665823 L40.1664105,111.665823 L40.1664105,107.999186 L43.8330471,107.999186 Z M51.1663202,107.999186 L51.1663202,111.665823 L47.4996836,111.665823 L47.4996836,107.999186 L51.1663202,107.999186 Z M58.4995932,107.999186 L58.4995932,111.665823 L54.8329567,111.665823 L54.8329567,107.999186 L58.4995932,107.999186 Z M65.8328663,107.999186 L65.8328663,111.665823 L62.1662298,111.665823 L62.1662298,107.999186 L65.8328663,107.999186 Z M73.1661394,107.999186 L73.1661394,111.665823 L69.4995028,111.665823 L69.4995028,107.999186 L73.1661394,107.999186 Z M43.8330471,100.665913 L43.8330471,104.33255 L40.1664105,104.33255 L40.1664105,100.665913 L43.8330471,100.665913 Z M51.1663202,100.665913 L51.1663202,104.33255 L47.4996836,104.33255 L47.4996836,100.665913 L51.1663202,100.665913 Z M58.4995932,100.665913 L58.4995932,104.33255 L54.8329567,104.33255 L54.8329567,100.665913 L58.4995932,100.665913 Z M65.8328663,100.665913 L65.8328663,104.33255 L62.1662298,104.33255 L62.1662298,100.665913 L65.8328663,100.665913 Z M73.1661394,100.665913 L73.1661394,104.33255 L69.4995028,104.33255 L69.4995028,100.665913 L73.1661394,100.665913 Z M43.8330471,93.3326403 L43.8330471,96.9992768 L40.1664105,96.9992768 L40.1664105,93.3326403 L43.8330471,93.3326403 Z M51.1663202,93.3326403 L51.1663202,96.9992768 L47.4996836,96.9992768 L47.4996836,93.3326403 L51.1663202,93.3326403 Z M58.4995932,93.3326403 L58.4995932,96.9992768 L54.8329567,96.9992768 L54.8329567,93.3326403 L58.4995932,93.3326403 Z M65.8328663,93.3326403 L65.8328663,96.9992768 L62.1662298,96.9992768 L62.1662298,93.3326403 L65.8328663,93.3326403 Z M73.1661394,93.3326403 L73.1661394,96.9992768 L69.4995028,96.9992768 L69.4995028,93.3326403 L73.1661394,93.3326403 Z M43.8330471,85.9993672 L43.8330471,89.6660038 L40.1664105,89.6660038 L40.1664105,85.9993672 L43.8330471,85.9993672 Z M51.1663202,85.9993672 L51.1663202,89.6660038 L47.4996836,89.6660038 L47.4996836,85.9993672 L51.1663202,85.9993672 Z M58.4995932,85.9993672 L58.4995932,89.6660038 L54.8329567,89.6660038 L54.8329567,85.9993672 L58.4995932,85.9993672 Z M65.8328663,85.9993672 L65.8328663,89.6660038 L62.1662298,89.6660038 L62.1662298,85.9993672 L65.8328663,85.9993672 Z M73.1661394,85.9993672 L73.1661394,89.6660038 L69.4995028,89.6660038 L69.4995028,85.9993672 L73.1661394,85.9993672 Z M43.8330471,78.6660942 L43.8330471,82.3327307 L40.1664105,82.3327307 L40.1664105,78.6660942 L43.8330471,78.6660942 Z M51.1663202,78.6660942 L51.1663202,82.3327307 L47.4996836,82.3327307 L47.4996836,78.6660942 L51.1663202,78.6660942 Z M58.4995932,78.6660942 L58.4995932,82.3327307 L54.8329567,82.3327307 L54.8329567,78.6660942 L58.4995932,78.6660942 Z M65.8328663,78.6660942 L65.8328663,82.3327307 L62.1662298,82.3327307 L62.1662298,78.6660942 L65.8328663,78.6660942 Z M73.1661394,78.6660942 L73.1661394,82.3327307 L69.4995028,82.3327307 L69.4995028,78.6660942 L73.1661394,78.6660942 Z M43.8330471,71.3328211 L43.8330471,74.9994576 L40.1664105,74.9994576 L40.1664105,71.3328211 L43.8330471,71.3328211 Z M51.1663202,71.3328211 L51.1663202,74.9994576 L47.4996836,74.9994576 L47.4996836,71.3328211 L51.1663202,71.3328211 Z M58.4995932,71.3328211 L58.4995932,74.9994576 L54.8329567,74.9994576 L54.8329567,71.3328211 L58.4995932,71.3328211 Z M115.33246,18.5336129 L115.33246,21.8332279 L110.382142,21.8332279 L115.33246,18.5336129 Z"/>
  </g>
</svg>
