<svg xmlns="http://www.w3.org/2000/svg" viewBox="0 0 608.281 417.75">
   <path fill="#fff" d="M0 0v417.75h608.281V0H0z"/>
   <path fill="#e05f0c" d="M370.406 328.312c-6.002 31.508-11.089 58.264-13.062 68.657h233.468v-68.657H370.406zm-357.812.625v68.657h231.812l-15.469-68.657H12.594z"/>
   <path fill="#0a438a" d="m126.49 171.516-16.872-71.024h143.955l46.62 203.879h1.99l29.37-130.602c14.8-59.299 20.39-73.277 103.797-73.277h59.99s-12.12 54.662-27.2 113.977c-5.74 22.627-55.829 19.947-53.33-1.184.264-2.204 2.632-18.106 4.506-29.42 2.73-16.28-16.263-18.319-19.684-2.203-2.433 11.544-13.435 68.837-23.713 122.709h214.897V11.626H12.579v292.745h209.848L192.53 171.614l-66.041-.098z"/>
</svg>
