<svg id="Digital_Print_Icon" data-name="Digital Print Icon" xmlns="http://www.w3.org/2000/svg" viewBox="0 0 56 56"><defs><style>.cls-1{fill:#0a3478;}</style></defs><path class="cls-1" d="M22,11H20V9h2Zm5-2H25v2h2Zm5,0H30v2h2Zm5,0H35v2h2ZM22,14H20v2h2Zm5,0H25v2h2Zm5,0H30v2h2Zm5,0H35v2h2ZM22,19H20v2h2Zm5,0H25v2h2Zm5,0H30v2h2Zm5,0H35v2h2ZM22,24H20v2h2Zm5,0H25v2h2Zm5,0H30v2h2Zm5,0H35v2h2ZM22,29H20v2h2Zm5,0H25v2h2Zm5,0H30v2h2ZM22,34H20v2h2Zm5,0H25v2h2Zm5,0H30v2h2ZM22,39H20v2h2Zm-2,7h2V44H20ZM37,34H35v2h2Zm0,5H35v2h2Zm-2,7h2V44H35ZM25,41h2V39H25Zm5,0h2V39H30Zm7-12H35v2h2ZM42,4V52H30V46H27v6H15V4ZM40,50V6H17V50h8V44h7v6Z"/></svg>