<svg id="Digital_Print_Icon" data-name="Digital Print Icon" xmlns="http://www.w3.org/2000/svg" viewBox="0 0 56 56"><defs><style>.cls-1{fill:#0a3478;}</style></defs><path class="cls-1" d="M42,33.9989a9.0006,9.0006,0,1,0,9,9.0005A9.0007,9.0007,0,0,0,42,33.9989ZM42,50a7,7,0,1,1,7-7A7.0081,7.0081,0,0,1,42,50Zm-1.5039-8.3853H44.01l-.18.7315H40.3027a4.17,4.17,0,0,0,0,.9356h3.3106l-.168.7315H40.4961A2.4716,2.4716,0,0,0,42.93,45.8238a3.8208,3.8208,0,0,0,1.4277-.2637L44.43,46.904a5.5737,5.5737,0,0,1-1.7266.2393,3.8808,3.8808,0,0,1-4.0429-3.13H37.4727l.18-.7315h.9a6.2434,6.2434,0,0,1,0-.9356h-1.08l.18-.7315h1.02a3.9866,3.9866,0,0,1,4.0058-3.131,5.8948,5.8948,0,0,1,1.9922.3242l-.3125,1.2472a3.5632,3.5632,0,0,0-1.416-.2882A2.4947,2.4947,0,0,0,40.4961,41.6146ZM24,31v7H17V31h7m2-2H15V40H26V29Zm26,0H47v4.6808a10.9652,10.9652,0,0,0-2-1.026V27h2l-8-7.5789V10H34.9971L35,15.6316,28,9,9,27h2V48H31.2618a11.013,11.013,0,0,0,1.3469,1.9971H9V29H4L28,6l4.9973,4.7913L33,8h8V18.46Z"/></svg>