<svg id="Digital_Print_Icon" data-name="Digital Print Icon" xmlns="http://www.w3.org/2000/svg" viewBox="0 0 56 56"><defs><style>.cls-1{fill:#0a3478;}</style></defs><path class="cls-1" d="M32.2425,40.8414l-2.8286,2.8291,2.8286,2.8281-1.4142,1.4141L28,45.0846l-2.8286,2.8281-1.4141-1.4141,2.8286-2.8281-2.8286-2.8291,1.4141-1.4141L28,42.2555l2.828-2.8282Zm16,0-2.8286,2.8291,2.8286,2.8281-1.4142,1.4141L44,45.0846l-2.8286,2.8281-1.4141-1.4141,2.8286-2.8281-2.8286-2.8291,1.4141-1.4141L44,42.2555l2.828-2.8282ZM40,27H38V24h2Zm0-5H38V19h2Zm-2.335-4.4766-1.97-2.0557,1.4434-1.3828,1.97,2.0556Zm-3.2832-3.4258-1.97-2.0557,1.4434-1.3828,1.97,2.0557Zm-3.2832-3.4248-1.97-2.0547,1.4434-1.3848,1.97,2.0547ZM17,27H15V24h2Zm0-5H15V19.0283h2Zm.3291-4.4679-1.4473-1.3808L17.8555,14.09l1.4453,1.3828Zm3.2871-3.4316-1.4453-1.3828,1.9727-2.0586,1.4433,1.3828Zm3.2871-3.43L22.458,9.288l1.9727-2.06L25.874,8.6132ZM5,29v2h6v5h2V31H27v5h2V31H43v5h2V31h6V29ZM29.2342,5.8144,27.501,4,25.7678,5.8144l1.7332,1.652ZM12,52a5.0059,5.0059,0,0,1-5-5c0-2.4277,3.5059-7.0879,4.2085-7.998L12,37.9775l.7915,1.0245C13.4941,39.9121,17,44.5723,17,47A5.0059,5.0059,0,0,1,12,52Zm0-10.7061C10.5659,43.31,9,45.9189,9,47a3,3,0,0,0,6,0C15,45.9189,13.4341,43.31,12,41.2939Z"/></svg>