<svg id="Digital_Print_Icon" data-name="Digital Print Icon" xmlns="http://www.w3.org/2000/svg" viewBox="0 0 56 56"><defs><style>.cls-1{fill:#0a3478;}</style></defs><path class="cls-1" d="M46.2424,41.6714l-2.8285,2.8291,2.8285,2.8281-1.4141,1.4141L42,45.9146l-2.8286,2.8281-1.4141-1.4141,2.8285-2.8281-2.8285-2.8291,1.4141-1.4141L42,43.0855l2.828-2.8282ZM50,39V49a1.0011,1.0011,0,0,1-1,1H35a1.0011,1.0011,0,0,1-1-1V39H50m-3-4H45v2H39V35H37v2H32V49a3,3,0,0,0,3,3H49a3,3,0,0,0,3-3V37H47V35ZM21,26.3115a4.0011,4.0011,0,0,0-2.98-3.8672L7.49,19.6709A2.0011,2.0011,0,0,1,6,17.7363V11H9v5H36V4H9V9H4v8.7363a4.0021,4.0021,0,0,0,2.9805,3.8682L17.51,24.3779A2.0009,2.0009,0,0,1,19,26.3115V31H17V52h6V31H21ZM11,6H34v8H11ZM21,50H19V33h2ZM48,18H45V4H39V18H36a4.0039,4.0039,0,0,0-4,4V33H52V22A4.0039,4.0039,0,0,0,48,18ZM36,20h5V6h2V20h5a2.0027,2.0027,0,0,1,2,2v1H34V22A2.0027,2.0027,0,0,1,36,20ZM34,31V25H50v6Z"/></svg>