<svg id="Digital_Print_Icon" data-name="Digital Print Icon" xmlns="http://www.w3.org/2000/svg" viewBox="0 0 56 56"><defs><style>.cls-1{fill:#0a3478;}</style></defs><path class="cls-1" d="M36.5981,43.4326l-1.1879.8467-.7476-1.1348,2.1338-1.3867h1.4765V48.042H36.5981Zm3.2955-1.6748H43.99v1.1348H41.334v1.0439c.2339-.0176.3872-.0361.4951-.0361,1.2783,0,2.4038.5586,2.4038,1.9453,0,1.7549-1.3594,2.3047-2.7637,2.3047a6.9213,6.9213,0,0,1-1.6836-.2256l.0269-1.3594a3.4532,3.4532,0,0,0,1.53.3418c.6123,0,1.27-.207,1.27-1.0078,0-.7021-.729-.918-1.3955-.918a5.4463,5.4463,0,0,0-1.3682.1524Zm5.0517,3.4395h1.71v-1.711H47.79v1.711h1.7105v1.1338H47.79V48.042H46.6558V46.3311h-1.71ZM50,39V49a1.0011,1.0011,0,0,1-1,1H35a1.0011,1.0011,0,0,1-1-1V39H50m-3-4H45v2H39V35H37v2H32V49a3,3,0,0,0,3,3H49a3,3,0,0,0,3-3V37H47V35ZM21,26.3115a4.0016,4.0016,0,0,0-2.981-3.8672L7.49,19.6709A2.0016,2.0016,0,0,1,6,17.7363V11H9v5H36V4H9V9H4v8.7363a4.0025,4.0025,0,0,0,2.981,3.8682L17.51,24.3779A2.0014,2.0014,0,0,1,19,26.3115V31H17V52h6V31H21ZM11,6H34v8H11ZM21,50H19V33h2ZM48,18H45V4H39V18H36a4.0042,4.0042,0,0,0-4,4V33H52V22A4.0042,4.0042,0,0,0,48,18ZM36,20h5V6h2V20h5a2.0023,2.0023,0,0,1,2,2v1H34V22A2.0023,2.0023,0,0,1,36,20ZM34,31V25H50v6Z"/></svg>