<svg id="Digital_Print_Icon" data-name="Digital Print Icon" xmlns="http://www.w3.org/2000/svg" viewBox="0 0 56 56"><defs><style>.cls-1{fill:#0a3478;}</style></defs><path class="cls-1" d="M41.7671,43.4326l-1.1885.8467-.7475-1.1348,2.1337-1.3867h1.4766V48.042H41.7671ZM50,39V49a1.0011,1.0011,0,0,1-1,1H35a1.0011,1.0011,0,0,1-1-1V39H50m-3-4H45v2H39V35H37v2H32V49a3,3,0,0,0,3,3H49a3,3,0,0,0,3-3V37H47V35ZM21,26.3115a4.0016,4.0016,0,0,0-2.981-3.8672L7.49,19.6709A2.0016,2.0016,0,0,1,6,17.7363V11H9v5H36V4H9V9H4v8.7363a4.0025,4.0025,0,0,0,2.981,3.8682L17.51,24.3779A2.0014,2.0014,0,0,1,19,26.3115V31H17V52h6V31H21ZM11,6H34v8H11ZM21,50H19V33h2ZM48,18H45V4H39V18H36a4.0042,4.0042,0,0,0-4,4V33H52V22A4.0042,4.0042,0,0,0,48,18Zm2,13H34V25H50Zm0-8H34V22a2.0023,2.0023,0,0,1,2-2h5V6h2V20h5a2.0023,2.0023,0,0,1,2,2Z"/></svg>