<svg id="Digital_Print_Icon" data-name="Digital Print Icon" xmlns="http://www.w3.org/2000/svg" viewBox="0 0 56 56"><defs><style>.cls-1{fill:#0a3478;}</style></defs><path class="cls-1" d="M45.5352,41.0623l1.415,1.4141L41.293,48.1336,37.05,43.89l1.415-1.414,2.8282,2.8281ZM50,39H34V49a1.0011,1.0011,0,0,0,1,1H49a1.0011,1.0011,0,0,0,1-1V39m-3-4v2h5V49a3,3,0,0,1-3,3H35a3,3,0,0,1-3-3V37h5V35h2v2h6V35ZM21,31h2V52H17V31h2V26.3115a2.0014,2.0014,0,0,0-1.49-1.9336L6.981,21.6045A4.0025,4.0025,0,0,1,4,17.7363V9H9V4H36V16H9V11H6v6.7363a2.0016,2.0016,0,0,0,1.49,1.9346L18.019,22.4443A4.0016,4.0016,0,0,1,21,26.3115ZM11,14H34V6H11ZM21,33H19V50h2ZM52,22V33H32V22a4.0042,4.0042,0,0,1,4-4h3V4h6V18h3A4.0042,4.0042,0,0,1,52,22ZM34,22v1H50V22a2.0023,2.0023,0,0,0-2-2H43V6H41V20H36A2.0023,2.0023,0,0,0,34,22Zm16,9V25H34v6Z"/></svg>