<svg id="Digital_Print_Icon" data-name="Digital Print Icon" xmlns="http://www.w3.org/2000/svg" viewBox="0 0 56 56"><defs><style>.cls-1{fill:#0a3478;}</style></defs><path class="cls-1" d="M24,31v7H17V31h7m2-2H15V40H26V29ZM41,18.46V8H33l-.0027,2.7913L28,6,4,29H9V49.9971H32.6087A11.013,11.013,0,0,1,31.2618,48H11V27H9L28,9l7,6.6316L34.9971,10H39v9.4211L47,27H45v5.6548a10.9652,10.9652,0,0,1,2,1.026V29h5ZM41,36a7,7,0,1,1-7,7,7.0085,7.0085,0,0,1,7-7m0-2a9,9,0,1,0,9,9,9,9,0,0,0-9-9Zm2.8284,4.7573L41,41.5855l-2.8286-2.8282-1.4141,1.4141,2.8286,2.8291-2.8286,2.8281,1.4141,1.4141L41,44.4146l2.8281,2.8281,1.414-1.4141-2.8285-2.8281,2.8285-2.8291Z"/></svg>