<svg id="Digital_Print_Icon" data-name="Digital Print Icon" xmlns="http://www.w3.org/2000/svg" viewBox="0 0 56 56"><defs><style>.cls-1{fill:#0a3478;}</style></defs><path class="cls-1" d="M34.9072,20.0942A2.9868,2.9868,0,0,0,32.0479,18H9.9521a2.9871,2.9871,0,0,0-2.8593,2.0933L4.0469,29.6978,4,46a3.0033,3.0033,0,0,0,3,3H8a3.0033,3.0033,0,0,0,3-3V44H31v2a3.0033,3.0033,0,0,0,3,3h1a3.0033,3.0033,0,0,0,3-3V30ZM8.999,20.6968A.9955.9955,0,0,1,9.9521,20H32.0479a.9951.9951,0,0,1,.9531.6978L35.6338,29H6.3661ZM35,47H34a1.0009,1.0009,0,0,1-1-1V42H9v4a1.0009,1.0009,0,0,1-1,1H7a1.0009,1.0009,0,0,1-1-1V31H36V46A1.0009,1.0009,0,0,1,35,47ZM12.5,33A3.5,3.5,0,1,0,16,36.5,3.5042,3.5042,0,0,0,12.5,33ZM14,38H11V35h3Zm15.5-5A3.5,3.5,0,1,0,33,36.5,3.5042,3.5042,0,0,0,29.5,33ZM31,38H28V35h3ZM50,9V21H40V9H50m0-2H40a2,2,0,0,0-2,2V21a2,2,0,0,0,2,2H50a2,2,0,0,0,2-2V9a2,2,0,0,0-2-2ZM46,49H44V23h2ZM42,11h2.49c2.3891,0,3.51.8253,3.51,2.6249,0,1.6159-1.1551,2.5789-3.1069,2.5789h-.8076V19H42Zm2.0855,3.6909h.538c.7179,0,1.29-.2642,1.29-1.1008,0-.8129-.572-1.0772-1.29-1.0772h-.538Z"/></svg>