<svg id="Digital_Print_Icon" data-name="Digital Print Icon" xmlns="http://www.w3.org/2000/svg" viewBox="0 0 56 56"><defs><style>.cls-1{fill:#0a3478;}</style></defs><path class="cls-1" d="M27,8a7,7,0,1,1-7,7,7.0085,7.0085,0,0,1,7-7m0-2a9,9,0,1,0,9,9,9,9,0,0,0-9-9Zm0,2a7,7,0,1,1-7,7,7.0085,7.0085,0,0,1,7-7m0-2a9,9,0,1,0,9,9,9,9,0,0,0-9-9Zm5.5459,42H17V29.999a4.099,4.099,0,0,1,3.3135-3.957,13.3033,13.3033,0,0,0,3.9082,1.585l-.9492,12.5468,4.02,4.0518,4.05-4.0518-.9746-12.59a11.9555,11.9555,0,0,0,3.497-1.55A3.9328,3.9328,0,0,1,37,29.9775v3.3741l2-.8272V29.9775a5.9387,5.9387,0,0,0-5.624-6.03,10.7341,10.7341,0,0,1-6.24,2.01,11.0779,11.0779,0,0,1-6.3525-2.0019A6.0868,6.0868,0,0,0,15,29.999V50H33.8867ZM26.334,28h2l.9785,11.1348-2,2.039-2-2.0459ZM42,36a7,7,0,1,1-7,7,7.0085,7.0085,0,0,1,7-7m0-2a9,9,0,1,0,9,9,9,9,0,0,0-9-9Zm2.8284,4.7573L42,41.5855l-2.8286-2.8282-1.4141,1.4141,2.8286,2.8291-2.8286,2.8281,1.4141,1.4141L42,44.4146l2.8281,2.8281,1.414-1.4141-2.8285-2.8281,2.8285-2.8291Z"/></svg>