<svg id="Digital_Print_Icon" data-name="Digital Print Icon" xmlns="http://www.w3.org/2000/svg" viewBox="0 0 56 56"><defs><style>.cls-1{fill:#0a3478;}</style></defs><path class="cls-1" d="M49.3467,29.2578,45.166,10.2627l-.03-.1084a4.969,4.969,0,0,0-5.8735-3.25L21,8.8856V5H7V34H19V51h5a7.0081,7.0081,0,0,0,7-7V34H45.417a3.999,3.999,0,0,0,3.93-4.7422ZM9,32V7H19V32Zm37.95-.7158A1.9944,1.9944,0,0,1,45.417,32H29V44a5.0059,5.0059,0,0,1-5,5H21V10.8975L39.5425,8.8857l.1347-.0244a2.984,2.984,0,0,1,3.5489,1.8907l4.16,18.8964A1.9978,1.9978,0,0,1,46.95,31.2842Z"/></svg>