<svg id="Digital_Print_Icon" data-name="Digital Print Icon" xmlns="http://www.w3.org/2000/svg" viewBox="0 0 56 56"><defs><style>.cls-1{fill:#0a3478;}</style></defs><path class="cls-1" d="M48.4839,23.4326A3.99,3.99,0,0,0,45.417,22H31V12a7.0081,7.0081,0,0,0-7-7H19V22H7V51H21V47.1144l18.2622,1.9813a5.0974,5.0974,0,0,0,1.166.1357,4.9644,4.9644,0,0,0,4.7075-3.3857l4.2188-19.1426A3.9882,3.9882,0,0,0,48.4839,23.4326ZM19,49H9V24H19ZM47.3936,26.3125,43.2256,45.249a2.9833,2.9833,0,0,1-3.5484,1.89L21,45.1025V7h3a5.0059,5.0059,0,0,1,5,5V24H45.417a2.001,2.001,0,0,1,1.9766,2.3125Z"/></svg>