<svg id="Digital_Print_Icon" data-name="Digital Print Icon" xmlns="http://www.w3.org/2000/svg" viewBox="0 0 56 56"><defs><style>.cls-1{fill:#0a3478;}</style></defs><path class="cls-1" d="M14,32h6V26H14Zm2-4h2v2H16Zm9-12h6V10H25Zm2-4h2v2H27ZM37,48h6V42H37Zm2.0165-4h2v2h-2ZM14,48h6V42H14Zm2.0165-4h2v2h-2ZM28,5.8284l6.5858,6.5858L35.1716,13H46.7l2.2222,5H7.0775L9.3,13H20.8284l.5858-.5858L28,5.8284M28,3l-8,8H8L4,20H52l-4-9H36L28,3ZM25,24V34H8V24H25m2-2H6V36H27V22ZM37,32h6V26H37Zm2-4h2v2H39Zm9-4V34H31V24H48m2-2H29V36H50V22ZM25,40v2H23v8H8V40M6,38V52H25V44h2V38Zm42,2V50H33V42H31V40m19-2H29v6h2v8H50V38Z"/></svg>