<svg id="Digital_Print_Icon" data-name="Digital Print Icon" xmlns="http://www.w3.org/2000/svg" viewBox="0 0 56 56"><defs><style>.cls-1{fill:#0a3478;}</style></defs><path class="cls-1" d="M52.2109,33.6641a3.5252,3.5252,0,0,0-4.914-1.417l-7.3662,4.0918A3.891,3.891,0,0,0,36,33H26l-4.5518-1.5684a9.0045,9.0045,0,0,0-5.8974.0684L6,35v2l10.23-3.6191a6.9948,6.9948,0,0,1,4.585-.0518l4.87,1.62A1.0153,1.0153,0,0,0,26,35H36a2,2,0,0,1,0,4H25v2H36a4.0214,4.0214,0,0,0,3.624-2.2031l8.6465-4.8037a1.6911,1.6911,0,0,1,1.8047,2.8359L33.1738,46.5859a6.6207,6.6207,0,0,1-4.5742.2246L15.9551,42.94,6,47v2l10.0449-3.94,11.7891,3.6a8.441,8.441,0,0,0,2.833.5976,7.0025,7.0025,0,0,0,3.5078-.9394L51.0781,38.56A3.5116,3.5116,0,0,0,52.2109,33.6641ZM39,14A7,7,0,1,1,33.18,24.8873L32.5854,24H28.8487l-1.4346-1.4338-1.4209-1.42-1.4139,1.4271L23.166,24H21.8285l-1.4139-1.4141L19,21.1716l-1.4143,1.4141L16.1716,24H14.1324l-1.7255-2.8759L14,19H32.1852l.5519-1.1088A6.9621,6.9621,0,0,1,39,14m0-2a8.9914,8.9914,0,0,0-8.0534,5H13l-3,4,3,5h4l2-2,2,2h3l2-2.0192L28.0206,26h3.497A9,9,0,1,0,39,12Zm2,6a3,3,0,1,0,3,3A3,3,0,0,0,41,18Zm1,4H40V20h2Z"/></svg>