<svg id="Digital_Print_Icon" data-name="Digital Print Icon" xmlns="http://www.w3.org/2000/svg" viewBox="0 0 56 56"><defs><style>.cls-1{fill:#0a3478;}</style></defs><path class="cls-1" d="M20,33H7V30.5859l13-13ZM9.4141,31H18V22.4141ZM33,50H26V42H23v8H7V35H22V21.1987L33,34.6431Zm-5-2h3V35.3569l-7-8.5556V37H9V48H21V40h7ZM12,46h6V40H12Zm2-4h2v2H14ZM52,10.72,47.92,4h-4.917L9,10.1655V15h2v9l2-2V15H40.4086l-3,35h14.18l-3-35H52ZM49.4082,48h-9.82L42.416,15H46.58ZM50,13H11V11.8345L43.0928,6h3.7021L50,11.28Z"/></svg>