<svg id="Digital_Print_Icon" data-name="Digital Print Icon" xmlns="http://www.w3.org/2000/svg" viewBox="0 0 56 56"><defs><style>.cls-1{fill:#0a3478;}</style></defs><path class="cls-1" d="M50,9V47H6V9H50m2-2H4V49H52V7ZM25,14V27H11V18.5324l.971.5826L15,20.9324v-2.4l.971.5826L19,20.9324v-2.4l.971.5826L23,20.9324V14h2m2-2H21v5.4L17,15v2.4L13,15v2.4L9,15V29H27V12ZM15,23H13v2h2Zm4,0H17v2h2Zm4,0H21v2h2Zm22,6V42H31V33.5324l.971.5826L35,35.9324v-2.4l.971.5826L39,35.9324v-2.4l.971.5826L43,35.9324V29h2m2-2H41v5.4L37,30v2.4L33,30v2.4L29,30V44H47V27ZM35,38H33v2h2Zm4,0H37v2h2Zm4,0H41v2h2Z"/></svg>