<svg id="Digital_Print_Icon" data-name="Digital Print Icon" xmlns="http://www.w3.org/2000/svg" viewBox="0 0 56 56"><defs><style>.cls-1{fill:#0a3478;}</style></defs><path class="cls-1" d="M25,14V27H11V18.5324l.971.5826L15,20.9324v-2.4l.971.5826L19,20.9324v-2.4l.971.5826L23,20.9324V14h2m2-2H21v5.4L17,15v2.4L13,15v2.4L9,15V29H27V12ZM15,23H13v2h2Zm4,0H17v2h2Zm4,0H21v2h2Zm15,6-7,6.9882L32,36v7H44V36h1Zm4,7v5H40V38H38v3H34V35.8193l3.9988-3.9921L42,35.8284Zm-7,2h2V36H35ZM50,9V47H6V9H50m2-2H4V49H52V7Z"/></svg>