<svg id="Digital_Print_Icon" data-name="Digital Print Icon" xmlns="http://www.w3.org/2000/svg" viewBox="0 0 56 56"><defs><style>.cls-1{fill:#0a3478;}</style></defs><path class="cls-1" d="M4,7v7H6V49H8V14H48V49h2V14h2V7Zm46,5H6V9H50Zm-8.0928,8.0942A2.9868,2.9868,0,0,0,39.0479,18H16.9521a2.9871,2.9871,0,0,0-2.8593,2.0933l-3.0459,9.6045L11,46a3.0033,3.0033,0,0,0,3,3h1a3.0033,3.0033,0,0,0,3-3V44H38v2a3.0033,3.0033,0,0,0,3,3h1a3.0033,3.0033,0,0,0,3-3V30Zm-25.9082.6026A.9955.9955,0,0,1,16.9521,20H39.0479a.9951.9951,0,0,1,.9531.6978L42.6338,29H13.3661ZM42,47H41a1.0009,1.0009,0,0,1-1-1V42H16v4a1.0009,1.0009,0,0,1-1,1H14a1.0009,1.0009,0,0,1-1-1V31H43V46A1.0009,1.0009,0,0,1,42,47ZM19.5,33A3.5,3.5,0,1,0,23,36.5,3.5042,3.5042,0,0,0,19.5,33ZM21,38H18V35h3Zm15.5-5A3.5,3.5,0,1,0,40,36.5,3.5042,3.5042,0,0,0,36.5,33ZM38,38H35V35h3Z"/></svg>