<svg id="Digital_Print_Icon" data-name="Digital Print Icon" xmlns="http://www.w3.org/2000/svg" viewBox="0 0 56 56"><defs><style>.cls-1{fill:#0a3478;}</style></defs><path class="cls-1" d="M4.1,50.5685a.999.999,0,0,0,1.333,1.333L36.0015,37.04,18.9615,20ZM32.594,36.4676,7.1768,48.8248,19.534,23.4075Zm18.0945-3.8621A7.5058,7.5058,0,0,1,45.8506,34.7H45.832a6.3337,6.3337,0,0,1-4.5371-2.0645c-3.1777-3.1738-6.249-.333-6.5888.003l-1.4112-1.417c1.627-1.6279,5.6934-3.7237,9.4141,0,3.1719,3.1679,6.2207.3135,6.5586-.0235Zm-27.4121-17.97a6.0564,6.0564,0,0,1-1.66-6.5449,8.0748,8.0748,0,0,1,1.7774-2.8681L24.793,6.6514c-.3389.3359-3.2207,3.373-.085,6.5879a6.3342,6.3342,0,0,1,2.0078,4.581,7.5054,7.5054,0,0,1-2.1543,4.8115l-1.3867-1.4394C23.5117,20.8613,26.4082,17.8467,23.2764,14.6357ZM29.7031,27.63l-1.414-1.4141,13-13,1.414,1.4141ZM45,22h2v2H45Zm-4-1h2v2H41Zm1,4h2v2H42ZM31,5a1,1,0,1,1,1,1A1,1,0,0,1,31,5Zm12.002,6.9284a1,1,0,1,1,1,1A1,1,0,0,1,43.0016,11.9282ZM31,8h2v8H31Z"/></svg>