<svg id="Digital_Print_Icon" data-name="Digital Print Icon" xmlns="http://www.w3.org/2000/svg" viewBox="0 0 56 56"><defs><style>.cls-1{fill:#0a3478;}</style></defs><path class="cls-1" d="M28,9,47,27H45V48.0026H11V27H9ZM47,50V29h5L28,6h0L4,29H9V50ZM25.886,36.4988a4.9406,4.9406,0,0,1,1.5547-3.7783c.9023-1.0649,2.1055-2.2819,2.1055-3.9286,0-1.7761-1.4541-2.5624-3.0332-2.5624a6.19,6.19,0,0,0-3.711,1.0155l-.1748-2.41A10.3353,10.3353,0,0,1,26.7883,24c2.7325,0,5.4151,1.5973,5.4151,4.6141,0,2.6622-2.08,4.057-3.4346,6.11a3.0658,3.0658,0,0,0-.5264,1.85V37.03H25.886ZM25.66,39.1621H28.468V42H25.66Z"/></svg>