<?xml version="1.0" encoding="utf-8"?>
<!-- Generator: Adobe Illustrator 24.3.2, SVG Export Plug-In . SVG Version: 6.00 Build 0)  -->
<svg version="1.1" id="Digital_Print_Icons" xmlns="http://www.w3.org/2000/svg" xmlns:xlink="http://www.w3.org/1999/xlink"
	 x="0px" y="0px" viewBox="0 0 56 56" style="enable-background:new 0 0 56 56;" xml:space="preserve">
<style type="text/css">
	.st0{fill:#0A3478;}
	.st1{fill-rule:evenodd;clip-rule:evenodd;fill:#0A3478;}
</style>
<g>
	<path class="st0" d="M25.6602,39.1621h2.8076V42h-2.8076V39.1621L25.6602,39.1621z M25.8857,36.499
		c0-1.623,0.376-2.3838,1.5547-3.7783c0.9024-1.0654,2.1055-2.2822,2.1055-3.9287c0-1.7764-1.4541-2.5625-3.0332-2.5625
		c-1.6543,0-2.8828,0.4072-3.7109,1.0156L22.627,24.835C23.7295,24.3555,25.1084,24,26.7881,24c2.7324,0,5.415,1.5977,5.415,4.6143
		c0,2.6621-2.0801,4.0566-3.4345,6.1093c-0.4004,0.6084-0.5264,1.1407-0.5264,1.8506v0.4561h-2.3565V36.499L25.8857,36.499z M47,50
		V29h5L28,6l0,0L4,29h5v21H47L47,50z M28,9l19,18h-2v21.0029H11V27H9L28,9L28,9z"/>
</g>
</svg>
