<svg id="Digital_Print_Icon" data-name="Digital Print Icon" xmlns="http://www.w3.org/2000/svg" viewBox="0 0 56 56"><defs><style>.cls-1{fill:#0a3478;}</style></defs><path class="cls-1" d="M21,33.0344,22.6134,38h5.2211l-4.224,3.0688,1.6135,4.9656L21,42.9655l-4.224,3.0689L18.39,41.0688,14.1655,38h5.2211ZM34.3866,38H29.1655l4.224,3.0689L31.776,46.0344,36,42.9656l4.224,3.0688-1.6135-4.9655L42.8345,38H37.6134L36,33.0344Zm-15-13H14.1655l4.224,3.0688L16.776,33.0344,21,29.9655l4.224,3.0689-1.6135-4.9656L27.8345,25H22.6134L21,20.0344Zm15,0H29.1655l4.224,3.0689L31.776,33.0344,36,29.9656l4.224,3.0688-1.6135-4.9655L42.8345,25H37.6134L36,20.0344ZM9,27h2V48H45V27h2L28,9ZM9,49.9971V29H4L28,6.0029h0L52,29H47V49.9971Z"/></svg>