<svg id="Digital_Print_Icon" data-name="Digital Print Icon" xmlns="http://www.w3.org/2000/svg" viewBox="0 0 56 56"><defs><style>.cls-1{fill:#0a3478;}</style></defs><path class="cls-1" d="M21.571,21.0912A2.0107,2.0107,0,0,1,23,22.9687V33H11V22.9834a1.9778,1.9778,0,0,1,1.3444-1.8843,9.1893,9.1893,0,0,0,4.5794,1.2241,9.32,9.32,0,0,0,4.6472-1.232M21.1387,19a7.3851,7.3851,0,0,1-4.2149,1.3232,7.1886,7.1886,0,0,1-4.1523-1.3183A3.9578,3.9578,0,0,0,9,22.9834V35H25V22.9687A4.0259,4.0259,0,0,0,21.1387,19ZM17,7a5.5,5.5,0,1,0,5.5,5.5A5.5,5.5,0,0,0,17,7Zm0,9.167A3.667,3.667,0,1,1,20.667,12.5,3.6718,3.6718,0,0,1,17,16.167Zm26.571,4.9242A2.0107,2.0107,0,0,1,45,22.9687V33H33V22.9834a1.9778,1.9778,0,0,1,1.3444-1.8843,9.1893,9.1893,0,0,0,4.5794,1.2241,9.32,9.32,0,0,0,4.6472-1.232M43.1387,19a7.3851,7.3851,0,0,1-4.2149,1.3232,7.1886,7.1886,0,0,1-4.1523-1.3183A3.9578,3.9578,0,0,0,31,22.9834V35H47V22.9687A4.0259,4.0259,0,0,0,43.1387,19ZM39,7a5.5,5.5,0,1,0,5.5,5.5A5.5,5.5,0,0,0,39,7Zm0,9.167A3.667,3.667,0,1,1,42.667,12.5,3.6718,3.6718,0,0,1,39,16.167ZM20,35V46H14V35h6m2-2H12V48H22V33Zm20.36,2,2.2,11H33.44l2.2-11H42.36M44,33H34L31,48H47L44,33Z"/></svg>