<svg id="Digital_Print_Icon" data-name="Digital Print Icon" xmlns="http://www.w3.org/2000/svg" viewBox="0 0 56 56"><defs><style>.cls-1{fill:#0a3478;}</style></defs><path class="cls-1" d="M39.08,43.4326l-1.1885.8467-.7475-1.1348,2.1337-1.3867h1.4766V48.042H39.08ZM42.248,44.9c0-1.63.36-3.25,2.44-3.25s2.4394,1.62,2.4394,3.25-.36,3.25-2.4394,3.25S42.248,46.5293,42.248,44.9Zm3.2593,0c0-1-.063-2.1162-.8193-2.1162S43.8687,43.9,43.8687,44.9s.0629,2.1152.8193,2.1152S45.5073,45.8994,45.5073,44.9ZM50,39V49a1.0011,1.0011,0,0,1-1,1H35a1.0011,1.0011,0,0,1-1-1V39H50m-3-4H45v2H39V35H37v2H32V49a3,3,0,0,0,3,3H49a3,3,0,0,0,3-3V37H47V35ZM21,26.3115a4.0016,4.0016,0,0,0-2.981-3.8672L7.49,19.6709A2.0016,2.0016,0,0,1,6,17.7363V11H9v5H36V4H9V9H4v8.7363a4.0025,4.0025,0,0,0,2.981,3.8682L17.51,24.3779A2.0014,2.0014,0,0,1,19,26.3115V31H17V52h6V31H21ZM11,6H34v8H11ZM21,50H19V33h2ZM48,18H45V4H39V18H36a4.0042,4.0042,0,0,0-4,4V33H52V22A4.0042,4.0042,0,0,0,48,18ZM36,20h5V6h2V20h5a2.0023,2.0023,0,0,1,2,2v1H34V22A2.0023,2.0023,0,0,1,36,20ZM34,31V25H50v6Z"/></svg>