<svg id="Digital_Print_Icon" data-name="Digital Print Icon" xmlns="http://www.w3.org/2000/svg" viewBox="0 0 56 56"><defs><style>.cls-1{fill:#0a3478;}</style></defs><path class="cls-1" d="M24,31v7H17V31h7m2-2H15V40H26V29ZM41,18.46V8H33l-.0027,2.7913L28,6,4,29H9V49.9971H32.6087A11.013,11.013,0,0,1,31.2618,48H11V27H9L28,9l7,6.6316L34.9971,10H39v9.4211L47,27H45v5.6548a10.9652,10.9652,0,0,1,2,1.026V29h5ZM41,36a7,7,0,1,1-7,7,7.0085,7.0085,0,0,1,7-7m0-2a9,9,0,1,0,9,9,9,9,0,0,0-9-9Zm-5.02,7.3223c0,1.3379.4863,2.289,1.9355,2.289s1.9356-.9511,1.9356-2.289c0-1.2725-.4864-2.29-1.9356-2.29S35.9805,40.05,35.9805,41.3223Zm1.3935,0c0-.5537,0-1.295.542-1.295s.543.7413.543,1.295c0,.5634,0,1.2939-.543,1.2939S37.374,41.8857,37.374,41.3223Zm.8174,5.665h1.2168L43.623,39H42.418Zm3.918-2.2578c0,1.3389.4863,2.2891,1.9355,2.2891s1.9356-.95,1.9356-2.2891c0-1.2725-.4864-2.29-1.9356-2.29S42.1094,43.457,42.1094,44.73Zm1.3926,0c0-.5537,0-1.294.5429-1.294s.542.74.542,1.294c0,.5635,0,1.2939-.542,1.2939S43.502,45.293,43.502,44.73Z"/></svg>