<svg id="Digital_Print_Icon" data-name="Digital Print Icon" xmlns="http://www.w3.org/2000/svg" viewBox="0 0 56 56"><defs><style>.cls-1{fill:#0a3478;}</style></defs><path class="cls-1" d="M39,6a8.0092,8.0092,0,0,1,8,8c0,4.7173-4.8643,12.3965-7.999,16.6973C35.8672,26.39,31,18.7017,31,14a8.0092,8.0092,0,0,1,8-8m0-2A9.9676,9.9676,0,0,0,29,14c0,7.5273,10,20,10,20S49,21.5645,49,14A9.9681,9.9681,0,0,0,39,4Zm0,7a3,3,0,1,1-3,3,3.0033,3.0033,0,0,1,3-3m0-2a5,5,0,1,0,5,5,5,5,0,0,0-5-5Zm3.7568,26.7578-1.414,1.4141L43.1709,39H12.8291l1.8281-1.8281-1.414-1.4141L9,40l4.2432,4.2422,1.414-1.4141L12.8291,41H43.1709l-1.8281,1.8281,1.414,1.4141L47,40ZM50,20V50H6V22H28l-1-2H4V52H52V20Z"/></svg>