<svg id="Digital_Print_Icon" data-name="Digital Print Icon" xmlns="http://www.w3.org/2000/svg" viewBox="0 0 56 56"><defs><style>.cls-1{fill:#0a3478;}</style></defs><path class="cls-1" d="M52,20V52H4V20H27l1,2H6V50H50V20ZM39,6a8.0092,8.0092,0,0,1,8,8c0,4.7173-4.8643,12.3965-7.999,16.6973C35.8672,26.39,31,18.7017,31,14a8.0092,8.0092,0,0,1,8-8m0-2A9.9676,9.9676,0,0,0,29,14c0,7.5273,10,20,10,20S49,21.5645,49,14A9.9681,9.9681,0,0,0,39,4Zm0,7a3,3,0,1,1-3,3,3.0033,3.0033,0,0,1,3-3m0-2a5,5,0,1,0,5,5,5,5,0,0,0-5-5Z"/></svg>