<svg id="Digital_Print_Icon" data-name="Digital Print Icon" xmlns="http://www.w3.org/2000/svg" viewBox="0 0 56 56"><defs><style>.cls-1{fill:#0a3478;}</style></defs><path class="cls-1" d="M4,9V47H52V9ZM22,34h2V29H34V27H24V11H50V27H40v2H50V45H24V40H22v5H6V11H22Zm-8.8589-8.1172-1.3193.9395-.83-1.2588,2.3691-1.54H15V31H13.1411ZM34.36,20.6709c1.4189-1.2295,3.0581-2.5684,3.0581-3.5078,0-.62-.43-.88-.9893-.88a4.23,4.23,0,0,0-1.8291.4795l-.07-1.4492a5.9427,5.9427,0,0,1,2.0688-.4092c1.5591,0,2.6783.6592,2.6783,2.0488,0,1.3594-1.4693,2.7285-2.1289,3.2979l-.5.43h2.7584V22H34.36Zm.21,12.4023a6.8308,6.8308,0,0,1,2.0288-.289c1.2993,0,2.7383.39,2.7383,1.9082a1.5494,1.5494,0,0,1-1.2793,1.5293v.02a1.5642,1.5642,0,0,1,1.3892,1.5889C39.4468,39.55,37.7578,40,36.3984,40a6.6311,6.6311,0,0,1-2.0385-.24l.09-1.4688a3.5463,3.5463,0,0,0,1.729.3291c.55,0,1.4092-.17,1.4092-.8887s-.83-.8-1.2691-.8c-.3,0-.56.01-.78.02V35.7119a7.3931,7.3931,0,0,0,.7993.02c.43,0,1.14-.2,1.14-.77,0-.67-.64-.8-1.1992-.8a4.1851,4.1851,0,0,0-1.6191.28Z"/></svg>