<svg id="Digital_Print_Icon" data-name="Digital Print Icon" xmlns="http://www.w3.org/2000/svg" viewBox="0 0 56 56"><defs><style>.cls-1{fill:#0a3478;}</style></defs><path class="cls-1" d="M32.2425,40.8414l-2.8286,2.8291,2.8286,2.8281-1.4142,1.4141L28,45.0846l-2.8286,2.8281-1.4141-1.4141,2.8286-2.8281-2.8286-2.8291,1.4141-1.4141L28,42.2555l2.828-2.8282Zm-16,0-2.8286,2.8291,2.8286,2.8281-1.4142,1.4141L12,45.0846,9.1717,47.9127,7.7576,46.4986l2.8286-2.8281L7.7576,40.8414l1.4141-1.4141L12,42.2555l2.828-2.8282Zm32,0-2.8286,2.8291,2.8286,2.8281-1.4142,1.4141L44,45.0846l-2.8286,2.8281-1.4141-1.4141,2.8286-2.8281-2.8286-2.8291,1.4141-1.4141L44,42.2555l2.828-2.8282ZM40,27H38V24h2Zm0-5H38V19h2Zm-2.3349-4.4766-1.97-2.0557,1.4434-1.3828,1.97,2.0557Zm-3.2833-3.4258-1.97-2.0557,1.4434-1.3828,1.97,2.0557Zm-3.2832-3.4248-1.97-2.0547,1.4434-1.3848,1.97,2.0547ZM17,27H15V24h2Zm0-5H15V19.0283h2Zm.3291-4.4678-1.4473-1.3809L17.8555,14.09l1.4453,1.3828Zm3.2871-3.4317-1.4453-1.3828,1.9726-2.0586,1.4434,1.3828Zm3.2871-3.43L22.458,9.288l1.9727-2.06L25.874,8.6132Zm5.3309-4.8564L27.501,4,25.7678,5.8144l1.7332,1.652ZM5,29v2h6v5h2V31H27v5h2V31H43v5h2V31h6V29Z"/></svg>