<svg id="Digital_Print_Icon" data-name="Digital Print Icon" xmlns="http://www.w3.org/2000/svg" viewBox="0 0 56 56"><defs><style>.cls-1{fill:#0a3478;}</style></defs><path class="cls-1" d="M6.9219,38.56l16.9033,9.7578a7.0025,7.0025,0,0,0,3.5078.9394,8.441,8.441,0,0,0,2.833-.5976l11.7891-3.6L52,49V47l-9.9551-4.06L29.4,46.8105a6.6207,6.6207,0,0,1-4.5742-.2246L7.9248,36.8291a1.5461,1.5461,0,0,1-.3984-2.1738A1.5533,1.5533,0,0,1,9.73,33.9932l8.6465,4.8037A4.0214,4.0214,0,0,0,22,41H33V39H22a2,2,0,0,1,0-4H32a1.0153,1.0153,0,0,0,.3154-.0508l4.87-1.62a6.9948,6.9948,0,0,1,4.585.0518L52,37V35l-9.5508-3.5a9.0045,9.0045,0,0,0-5.8974-.0684L32,33H22a3.891,3.891,0,0,0-3.9307,3.3389l-7.3662-4.0918a3.5252,3.5252,0,0,0-4.914,1.417A3.5116,3.5116,0,0,0,6.9219,38.56ZM24,4l4.7335,5.3315-1.39,1.39L24,7,12.2956,20H14V32l-2-1V22H8ZM46.6776,21.6066,36.071,11H29v7.071l5,4.9944V31l2-1-.0057-4.9346,3.6123,3.6123ZM31,13h4.2426l8.6066,8.6066-4.2426,4.2426L31,17.2426Zm2,2h2v2H33Z"/></svg>