<svg id="Digital_Print_Icon" data-name="Digital Print Icon" xmlns="http://www.w3.org/2000/svg" viewBox="0 0 56 56"><defs><style>.cls-1{fill:#0a3478;}</style></defs><path class="cls-1" d="M4.9219,38.56l16.9033,9.7578a7.0025,7.0025,0,0,0,3.5078.9394,8.441,8.441,0,0,0,2.833-.5976l11.7891-3.6L50,49V47l-9.9551-4.06L27.4,46.8105a6.6207,6.6207,0,0,1-4.5742-.2246L5.9248,36.8291a1.5461,1.5461,0,0,1-.3984-2.1738A1.5533,1.5533,0,0,1,7.73,33.9932l8.6465,4.8037A4.0214,4.0214,0,0,0,20,41H31V39H20a2,2,0,0,1,0-4H30a1.0153,1.0153,0,0,0,.3154-.0508l4.87-1.62a6.9948,6.9948,0,0,1,4.585.0518L50,37V35l-9.5508-3.5a9.0045,9.0045,0,0,0-5.8974-.0684L30,33H20a3.891,3.891,0,0,0-3.9307,3.3389L8.7031,32.2471a3.5252,3.5252,0,0,0-4.914,1.417A3.5116,3.5116,0,0,0,4.9219,38.56ZM17,14a6.9621,6.9621,0,0,1,6.2629,3.8912L23.8148,19H42l1.5931,2.1241L41.8676,24H39.8284l-1.4145-1.4143L37,21.1716l-1.4142,1.4143L34.1715,24H32.834l-1.4133-1.4268-1.4139-1.4271-1.4209,1.42L27.1513,24H23.4146l-.5941.8873A7,7,0,1,1,17,14m0-2a9,9,0,1,0,7.4824,14h3.497L30,23.9808,32,26h3l2-2,2,2h4l3-5-3-4H25.0534A8.9914,8.9914,0,0,0,17,12Zm-5,9a3,3,0,1,0,3-3A3,3,0,0,0,12,21Zm2-1h2v2H14Z"/></svg>