<svg id="Digital_Print_Icon" data-name="Digital Print Icon" xmlns="http://www.w3.org/2000/svg" viewBox="0 0 56 56"><defs><style>.cls-1{fill:#0a3478;}</style></defs><path class="cls-1" d="M51.2109,33.6641a3.5252,3.5252,0,0,0-4.914-1.417l-7.3662,4.0918A3.891,3.891,0,0,0,35,33H25l-4.5518-1.5684a9.0045,9.0045,0,0,0-5.8974.0684L5,35v2l10.23-3.6191a6.9948,6.9948,0,0,1,4.585-.0518l4.87,1.62A1.0153,1.0153,0,0,0,25,35H35a2,2,0,0,1,0,4H24v2H35a4.0214,4.0214,0,0,0,3.624-2.2031l8.6465-4.8037a1.6911,1.6911,0,0,1,1.8047,2.8359L32.1738,46.5859a6.6207,6.6207,0,0,1-4.5742.2246L14.9551,42.94,5,47v2l10.0449-3.94,11.7891,3.6a8.441,8.441,0,0,0,2.833.5976,7.0025,7.0025,0,0,0,3.5078-.9394L50.0781,38.56A3.5116,3.5116,0,0,0,51.2109,33.6641ZM33,4,49,22H45v9l-1.9943,1V20h1.6987L33,7,21.3069,20H23V31l-1.9943-1V22H17Zm4.3194,13.5125a5.6562,5.6562,0,0,0-2.34-.499,4.1638,4.1638,0,0,0-4.0478,3.2h5.8135l-.2979,1.2676h-5.832a7.3622,7.3622,0,0,0,0,1.62H36.09l-.2774,1.2675H30.9317a4.1228,4.1228,0,0,0,4.0273,3.1368,6.0808,6.0808,0,0,0,2.36-.4561l.1191,2.3272a8.82,8.82,0,0,1-2.8564.415,6.4811,6.4811,0,0,1-6.6846-5.4229H25.9336l.2979-1.2675h1.4873a11.2027,11.2027,0,0,1,0-1.62H25.9336l.2979-1.2676H27.917a6.6573,6.6573,0,0,1,6.626-5.4219,9.3237,9.3237,0,0,1,3.293.56Z"/></svg>