<svg xmlns="http://www.w3.org/2000/svg" width="128" height="128" viewBox="0 0 128 128">
  <path class="fill-gray" d="M104.5,65.5 L101.5,65.5 L41.51575,65.5 C41.51275,65.5 41.50975,65.5 41.50675,65.5 L26.5,65.5 L23.5,65.5 C21.018625,65.5 19,67.5188125 19,70 C19,70.828375 19.671625,71.5 20.5,71.5 C21.328375,71.5 22,70.828375 22,70 C22,69.1729375 22.6729375,68.5 23.5,68.5 L24.72925,68.5 L21.2468125,89.3955625 C20.7199375,92.5575625 21.3379375,95.81275 22.9871875,98.5613125 L25,101.9155 L25,107.3125 C25,108.243063 25.757125,109 26.6875,109 L101.3125,109 C102.242875,109 103,108.243063 103,107.3125 L103,101.9155 L105.012812,98.5613125 C106.662062,95.81275 107.280062,92.5575625 106.753187,89.3955625 L103.27075,68.5 L104.5,68.5 C105.327062,68.5 106,69.1729375 106,70 C106,70.828375 106.671625,71.5 107.5,71.5 C108.328375,71.5 109,70.828375 109,70 C109,67.5188125 106.981375,65.5 104.5,65.5 Z M94.9403125,97.0178125 L93.1508125,100 L88.7156875,100 L89.7754375,97.350625 C90.597625,95.29525 90.9030625,93.0458125 90.6585625,90.8455 L88.175875,68.5 L92.7293125,68.5 L96.2940625,89.888875 C96.70375,92.348125 96.223,94.8799375 94.9403125,97.0178125 Z M80.9880625,100 L81.988375,96.495625 C82.432375,94.940875 82.5926875,93.335125 82.4648125,91.722625 L80.6235625,68.5 L85.1573125,68.5 L87.6769375,91.1768125 C87.8670625,92.888125 87.6296875,94.6376875 86.9899375,96.236125 L85.4845,100 L80.9880625,100 Z M73.0868125,100 L73.3954375,94.51525 C73.4134375,94.1944375 73.42,93.8685625 73.4149375,93.54625 L73.023625,68.5 L77.6141875,68.5 L79.4741875,91.9598125 C79.5735625,93.2138125 79.4490625,94.46275 79.1036875,95.6719375 L77.86825,100 L73.0868125,100 Z M65.5,100 L65.5,68.5 L70.02325,68.5 L70.4153125,93.593125 C70.41925,93.8438125 70.4141875,94.0975 70.400125,94.3470625 L70.082125,100 L65.5,100 Z M57.9090625,100 L57.5580625,94.3855 C57.5408125,94.10725 57.5344375,93.825625 57.5393125,93.5479375 L57.9743125,68.5 L62.5,68.5 L62.5,100 L57.9090625,100 Z M34.8491875,100 L33.0596875,97.0178125 C31.777,94.880125 31.29625,92.3483125 31.7059375,89.888875 L35.2706875,68.5 L39.824125,68.5 L37.34125,90.8455 C37.09675,93.0458125 37.4021875,95.29525 38.224375,97.350625 L39.284125,100 L34.8491875,100 Z M42.5155,100 L41.009875,96.2363125 C40.3703125,94.637875 40.13275,92.8883125 40.322875,91.177 L42.8426875,68.5 L47.3755,68.5 L45.52225,91.706875 C45.3926875,93.33025 45.5550625,94.946875 46.0050625,96.5119375 L47.008,100 L42.5155,100 Z M50.1295,100 L48.88825,95.6828125 C48.5381875,94.46575 48.4118125,93.208375 48.5126875,91.9455625 L50.3850625,68.5 L54.97375,68.5 L54.539875,93.4958125 C54.5335,93.8524375 54.54175,94.2146875 54.5640625,94.5724375 L54.9034375,100 L50.1295,100 L50.1295,100 Z M24.2059375,89.888875 L27.7706875,68.5 L32.2294375,68.5 L28.7468125,89.3955625 C28.2199375,92.5575625 28.8379375,95.81275 30.4871875,98.5613125 L31.3504375,100 L27.3491875,100 L25.5596875,97.0178125 C24.277,94.8799375 23.79625,92.348125 24.2059375,89.888875 Z M100,106 L28,106 L28,103 L33.9985,103 C33.9994375,103 34.000375,103.000187 34.0013125,103.000187 C34.00225,103.000187 34.0031875,103 34.004125,103 L41.4955,103 C41.4971875,103 41.4986875,103.000375 41.500375,103.000375 C41.503,103.000375 41.505625,103 41.50825,103 L48.99475,103 C48.99625,103 48.99775,103.000375 48.99925,103.000375 C49.0009375,103.000375 49.0028125,103 49.0045,103 L78.9955,103 C78.9971875,103 78.9990625,103.000375 79.00075,103.000375 C79.00225,103.000375 79.00375,103 79.00525,103 L86.49175,103 C86.494375,103 86.497,103.000375 86.499625,103.000375 C86.5013125,103.000375 86.5028125,103 86.5045,103 L93.995875,103 C93.9968125,103 93.99775,103.000187 93.9986875,103.000187 C93.999625,103.000187 94.0005625,103 94.0015,103 L100,103 L100,106 Z M100.229312,68.5 L103.794062,89.888875 C104.20375,92.348125 103.723,94.8799375 102.440312,97.0178125 L100.650812,100 L96.6495625,100 L97.5128125,98.5613125 C99.1620625,95.81275 99.7800625,92.5575625 99.2531875,89.3955625 L95.77075,68.5 L100.229312,68.5 Z M91,13 C92.5950491,13 93.9034729,14.2514577 93.9948972,15.8239991 L94,16 L94,61 C94,61.828375 93.328375,62.5 92.5,62.5 C91.7203529,62.5 91.0795571,61.9050657 91.0068671,61.1444519 L91,61 L91,16 L37,16 L37,61 C37,61.828375 36.328375,62.5 35.5,62.5 C34.7203529,62.5 34.0795571,61.9050657 34.0068671,61.1444519 L34,61 L34,16 C34,14.4049509 35.2514577,13.0965271 36.8239991,13.0051028 L37,13 L91,13 Z M86.5,19 C87.2796471,19 87.9204429,19.5949343 87.9931329,20.3555481 L88,20.5 L88,61 C88,61.828375 87.328375,62.5 86.5,62.5 C85.7203529,62.5 85.0795571,61.9050657 85.0068671,61.1444519 L85,61 L85,38.5 L65.5,38.5 L65.5,61 C65.5,61.828375 64.828375,62.5 64,62.5 C63.2203529,62.5 62.5795571,61.9050657 62.5068671,61.1444519 L62.5,61 L62.5,22 L43,22 L43,35.5 L57.9998125,35.5 C58.8281875,35.5 59.4998125,36.171625 59.4998125,37 C59.4998125,37.7796471 58.9048782,38.4204429 58.1442644,38.4931329 L57.9998125,38.5 L43,38.5 L43,61 C43,61.828375 42.328375,62.5 41.5,62.5 C40.7203529,62.5 40.0795571,61.9050657 40.0068671,61.1444519 L40,61 L40,20.5 C40,19.7203529 40.5949343,19.0795571 41.3555481,19.0068671 L41.5,19 L86.5,19 Z M85,22 L65.5,22 L65.5,35.5 L85,35.5 L85,22 Z"/>
</svg>
