<svg xmlns="http://www.w3.org/2000/svg" width="128" height="128" viewBox="0 0 128 128">
  <g>
    <path class="fill-gray" fill-rule="nonzero" d="M105.935484,99.8000373 L104.322581,99.8000373 L104.322581,74.2003356 L109.16129,74.2003356 C109.669437,74.2001267 110.147772,73.9623816 110.452152,73.5587434 C110.756533,73.1551052 110.851362,72.6327771 110.708065,72.1491595 L102.643548,44.9494764 C102.441819,44.2686541 101.812128,43.8009838 101.096774,43.8006898 L91.4193548,43.8006898 L91.4193548,37.4007643 C91.4193548,36.517119 90.6972335,35.800783 89.8064516,35.800783 L80.1290323,35.800783 C79.2382504,35.800783 78.516129,36.517119 78.516129,37.4007643 L78.516129,43.8006898 L26.9032258,43.8006898 C26.1878721,43.8009838 25.5581813,44.2686541 25.3564516,44.9494764 L17.2919355,72.1491595 C17.148638,72.6327771 17.2434674,73.1551052 17.5478475,73.5587434 C17.8522276,73.9623816 18.3305628,74.2001267 18.8387097,74.2003356 L23.6774194,74.2003356 L23.6774194,99.8000373 L15.6129032,99.8000373 C14.7221214,99.8000373 14,100.516373 14,101.400019 C14,102.283664 14.7221214,103 15.6129032,103 L105.935484,103 C106.826266,103 107.548387,102.283664 107.548387,101.400019 C107.548387,100.516373 106.826266,99.8000373 105.935484,99.8000373 Z M81.7419355,39.0007457 L88.1935484,39.0007457 L88.1935484,43.8006898 L81.7419355,43.8006898 L81.7419355,39.0007457 Z M28.1096774,47.0006525 L99.883871,47.0006525 L106.998387,71.0003728 L79.1290323,71.0003728 L65.0709677,58.6037173 C64.4600448,58.065553 63.5399552,58.065553 62.9290323,58.6037173 L48.8709677,71.0003728 L20.9951613,71.0003728 L28.1096774,47.0006525 Z M26.9032258,74.2003356 L47.8709677,74.2003356 L47.8709677,99.8000373 L26.9032258,99.8000373 L26.9032258,74.2003356 Z M51.0967742,73.3187458 L64,61.9412784 L76.9032258,73.3187458 L76.9032258,99.8000373 L70.4516129,99.8000373 L70.4516129,85.4002051 C70.4516129,84.5165598 69.7294915,83.8002237 68.8387097,83.8002237 L59.1612903,83.8002237 C58.2705085,83.8002237 57.5483871,84.5165598 57.5483871,85.4002051 L57.5483871,99.8000373 L51.0967742,99.8000373 L51.0967742,73.3187458 Z M60.7741935,99.8000373 L60.7741935,87.0001864 L67.2258065,87.0001864 L67.2258065,99.8000373 L60.7741935,99.8000373 Z M80.1290323,99.8000373 L80.1290323,74.2003356 L101.096774,74.2003356 L101.096774,99.8000373 L80.1290323,99.8000373 Z M112.387097,99.8000373 L110.774194,99.8000373 C109.883412,99.8000373 109.16129,100.516373 109.16129,101.400019 C109.16129,102.283664 109.883412,103 110.774194,103 L112.387097,103 C113.277879,103 114,102.283664 114,101.400019 C114,100.516373 113.277879,99.8000373 112.387097,99.8000373 Z M64,80.600261 C67.5631274,80.600261 70.4516129,77.7349168 70.4516129,74.2003356 C70.4516129,70.6657543 67.5631274,67.8004101 64,67.8004101 C60.4368726,67.8004101 57.5483871,70.6657543 57.5483871,74.2003356 C57.5483871,77.7349168 60.4368726,80.600261 64,80.600261 Z M64,71.0003728 C65.7815637,71.0003728 67.2258065,72.4330449 67.2258065,74.2003356 C67.2258065,75.9676262 65.7815637,77.4002983 64,77.4002983 C62.2184363,77.4002983 60.7741935,75.9676262 60.7741935,74.2003356 C60.7741935,72.4330449 62.2184363,71.0003728 64,71.0003728 Z M44.6451613,83.8002237 L30.1290323,83.8002237 C29.2382504,83.8002237 28.516129,84.5165598 28.516129,85.4002051 L28.516129,91.8001305 C28.516129,92.6837758 29.2382504,93.4001119 30.1290323,93.4001119 L44.6451613,93.4001119 C45.5359431,93.4001119 46.2580645,92.6837758 46.2580645,91.8001305 L46.2580645,85.4002051 C46.2580645,84.5165598 45.5359431,83.8002237 44.6451613,83.8002237 Z M43.0322581,90.2001491 L31.7419355,90.2001491 L31.7419355,87.0001864 L43.0322581,87.0001864 L43.0322581,90.2001491 Z M97.8709677,83.8002237 L83.3548387,83.8002237 C82.4640569,83.8002237 81.7419355,84.5165598 81.7419355,85.4002051 L81.7419355,91.8001305 C81.7419355,92.6837758 82.4640569,93.4001119 83.3548387,93.4001119 L97.8709677,93.4001119 C98.7617496,93.4001119 99.483871,92.6837758 99.483871,91.8001305 L99.483871,85.4002051 C99.483871,84.5165598 98.7617496,83.8002237 97.8709677,83.8002237 Z M96.2580645,90.2001491 L84.9677419,90.2001491 L84.9677419,87.0001864 L96.2580645,87.0001864 L96.2580645,90.2001491 Z" transform="matrix(-1 0 0 1 128 0)"/>
    <g transform="translate(83 19)">
      <path class="fill-primary" d="M18.9999583,3 C27.822852,3 35,10.1575147 35,18.9545228 L35,41.7852787 C34.5764178,41.5524424 34.2291687,41.135215 33.7760032,40.5639268 C33.0312551,39.6239395 32.1041742,38.4545228 30.2690957,38.4545228 C28.4322671,38.4545228 27.5034362,39.6239395 26.7569381,40.5639268 C26.0295234,41.481478 25.5729412,42 24.6423603,42 C23.7100294,42 23.2534473,41.4805639 22.5242825,40.5630127 C21.7795344,39.6239395 20.8524535,38.4545228 19.0157083,38.4545228 C17.1788797,38.4545228 16.2500488,39.6239395 15.5053008,40.5630958 C14.776136,41.480647 14.3195539,42 13.3872229,42 C12.4532254,42 11.9948932,41.480647 11.2639785,40.5630958 C10.5173971,39.6239395 9.58689951,38.4545228 7.74832097,38.4545228 C5.90974242,38.4545228 4.98099484,39.6231085 4.23441345,40.5622648 C3.77783131,41.1370431 3.42708222,41.5551015 3,41.7879378 L3,18.9545228 C3,10.1575147 10.1770646,3 18.9999583,3 Z M13.0392157,12.4354839 C10.6167064,12.4354839 8.64705882,14.3756407 8.64705882,16.7600705 L8.64705882,21.9496069 C8.64705882,24.3340367 10.6167064,26.2741935 13.0392157,26.2741935 C15.4617249,26.2741935 17.4313725,24.3340367 17.4313725,21.9496069 L17.4313725,16.7600705 C17.4313725,14.3756407 15.4618073,12.4354839 13.0392157,12.4354839 Z M24.9607843,12.4354839 C22.5381927,12.4354839 20.5686275,14.3756407 20.5686275,16.7600705 L20.5686275,21.9496069 C20.5686275,24.3340367 22.5382751,26.2741935 24.9607843,26.2741935 C27.3833759,26.2741935 29.3529412,24.3340367 29.3529412,21.9496069 L29.3529412,16.7600705 C29.3529412,14.3756407 27.3832936,12.4354839 24.9607843,12.4354839 Z"/>
      <path class="fill-gray" fill-rule="nonzero" d="M18.9999555,0 C29.4759238,0 38,8.48364431 38,18.9120075 L38,18.9120075 L38,44.4432575 C38,44.9659389 37.5750831,45.3888889 37.0499711,45.3888889 C35.086857,45.3888889 34.0960374,44.1404285 33.2999974,43.1375291 C32.5244418,42.159629 32.0364687,41.6064519 31.0437789,41.6064519 C30.0473484,41.6064519 29.5593753,42.1605155 28.7800791,43.1393907 C27.9841281,44.141315 26.9932195,45.3888889 25.0301945,45.3888889 C23.0671695,45.3888889 22.0744796,44.141315 21.2766584,43.1384156 C20.4992324,42.159629 20.0112594,41.6064519 19.0166992,41.6064519 C18.0202687,41.6064519 17.5322957,42.1605155 16.7529994,43.1393907 C15.9570485,44.141315 14.9643586,45.3888889 13.0012445,45.3888889 C11.0362601,45.3888889 10.041789,44.141315 9.24396778,43.1393907 C8.4628012,42.1605155 7.97295783,41.6064519 6.97474611,41.6064519 C5.97653439,41.6064519 5.48669103,42.1605155 4.70739476,43.1393907 C3.90948445,44.141315 2.9167946,45.3888889 0.950028945,45.3888889 C0.424916856,45.3888889 0,44.9659389 0,44.4432575 L0,44.4432575 L0,18.9120075 C0,8.48364431 8.52398709,0 18.9999555,0 Z M18.9999581,2.89705882 C10.119019,2.89705882 2.89473684,10.0923583 2.89473684,18.9358061 L2.89473684,18.9358061 L2.89473684,41.8897595 C3.32462881,41.655694 3.67768546,41.2354287 4.13727144,40.6576161 C4.88876454,39.713502 5.82362231,38.5387473 7.67429676,38.5387473 C9.52497122,38.5387473 10.4615905,39.7143373 11.2130836,40.6584515 C11.948807,41.5808465 12.4101545,42.1029412 13.3502968,42.1029412 C14.2887614,42.1029412 14.7483474,41.5808465 15.4823093,40.6584515 C16.231957,39.7143373 17.1668987,38.5387473 19.0158116,38.5387473 C20.8646407,38.5387473 21.7978208,39.7143373 22.5474686,40.658368 C23.2814305,41.580763 23.7410164,42.1029412 24.6794811,42.1029412 C25.6161843,42.1029412 26.0757702,41.5816819 26.8079706,40.6592869 C27.5593798,39.7143373 28.4943215,38.5387473 30.3432344,38.5387473 C32.1903859,38.5387473 33.123566,39.7143373 33.8732137,40.6592869 C34.3293606,41.233591 34.6788942,41.6530209 35.1052632,41.8870864 L35.1052632,41.8870864 L35.1052632,18.9358061 C35.1052632,10.0923583 27.8808971,2.89705882 18.9999581,2.89705882 Z M13,12.3823529 C15.3668083,12.3823529 17.3040392,14.2197098 17.4159465,16.519465 L17.4210526,16.7297692 L17.4210526,21.9467014 C17.4210526,24.3437187 15.4384468,26.2941176 13,26.2941176 C10.6332722,26.2941176 8.69596557,24.4567608 8.58405369,22.1570056 L8.57894737,21.9467014 L8.57894737,16.7297692 C8.57894737,14.3327519 10.5615532,12.3823529 13,12.3823529 Z M25,12.3823529 C27.3667278,12.3823529 29.3040344,14.2197098 29.4159463,16.519465 L29.4210526,16.7297692 L29.4210526,21.9467014 C29.4210526,24.3437187 27.4385297,26.2941176 25,26.2941176 C22.6332722,26.2941176 20.6959656,24.4567608 20.5840537,22.1570056 L20.5789474,21.9467014 L20.5789474,16.7297692 C20.5789474,14.3327519 22.5614703,12.3823529 25,12.3823529 Z M13,14.2794118 C11.6626189,14.2794118 10.5647569,15.3250584 10.4790677,16.642751 L10.4736842,16.8088235 L10.4736842,21.8676471 C10.4736842,23.2624596 11.6068947,24.3970588 13,24.3970588 C14.1646316,24.3970588 15.1376579,23.600136 15.4288947,22.525136 C14.5007105,22.150704 13.8421316,21.2432776 13.8421316,20.1813989 C13.8421316,19.1446211 14.47196,18.2600645 15.3658953,17.8707927 L15.5263158,17.8073088 L15.5263158,16.8088235 C15.5263158,15.414011 14.3931053,14.2794118 13,14.2794118 Z M25,14.2794118 C23.6626189,14.2794118 22.5647569,15.3250584 22.4790677,16.642751 L22.4736842,16.8088235 L22.4736842,21.8676471 C22.4736842,23.2624596 23.6068947,24.3970588 25,24.3970588 C26.1645526,24.3970588 27.1375789,23.600136 27.4288947,22.525136 C26.5007105,22.150704 25.8421316,21.2432776 25.8421316,20.1813989 C25.8421316,19.1446211 26.47196,18.2600645 27.3658953,17.8707927 L27.5263158,17.8073088 L27.5263158,16.8088235 C27.5263158,15.414011 26.3931053,14.2794118 25,14.2794118 Z"/>
    </g>
  </g>
</svg>
