<svg xmlns="http://www.w3.org/2000/svg" width="128" height="128" viewBox="0 0 128 128">
  <g>
    <path class="fill-gray" fill-rule="nonzero" d="M95.3648684,91.5185367 L83.1140401,97.5739055 C81.4226118,94.2825969 78.1779712,92.1879824 74.6072629,92.0825327 L63.2979836,91.7573963 C61.5072842,91.7038725 59.7501842,91.2293488 58.1580269,90.3689752 L57.0072449,89.7450646 C51.1151181,86.5320442 44.0920633,86.5400329 38.2060453,89.7658349 L38.2778261,87.0385224 C38.3014985,86.1350102 37.621109,85.3824827 36.7574496,85.3577182 L24.3561874,85.0006271 C23.4925282,84.9758624 22.7739573,85.6876478 22.7502849,86.5911601 L22.0005699,115.06098 C21.9774971,115.964492 22.6578864,116.717019 23.5215458,116.741784 L35.9228081,117.098875 L35.9655711,117.098875 C36.8131942,117.098875 37.5065654,116.393481 37.5294741,115.507543 L37.5653645,114.145485 L40.7870964,112.340857 C42.0516586,111.629072 43.5300357,111.459713 44.9114324,111.86873 L64.1501886,117.517478 C64.1837881,117.527864 64.2173876,117.535852 64.2517508,117.543841 C65.642311,117.848207 67.0595981,118.00079 68.4799397,118 C71.4886204,118.001588 74.4621742,117.323355 77.1967137,116.010027 C77.2639127,115.978073 77.3288207,115.940526 77.3906743,115.898187 L105.285114,97.0226911 C105.980013,96.5521619 106.204518,95.5975225 105.797507,94.8433974 C103.726557,90.9992767 99.1333553,89.534964 95.3648684,91.5185367 L95.3648684,91.5185367 Z M25.1709748,113.515982 L25.8338009,88.3167005 L35.1080207,88.5835201 L34.4451946,113.783601 L25.1709748,113.515982 Z M75.7878264,113.087792 C72.3904609,114.691906 68.5960107,115.134475 64.9443581,114.353988 L45.7575284,108.719619 C43.5979982,108.081329 41.2865067,108.345752 39.3110101,109.456968 L37.6646356,110.379652 L38.1052471,93.625134 C43.3223298,89.9951081 50.0132078,89.6220398 55.5693399,92.6505232 L56.7201221,93.2744338 C58.731509,94.3608852 60.9498382,94.9600313 63.2124577,95.0287333 L74.5225006,95.3538699 C77.6991786,95.4497332 80.397064,97.8159606 81.0415631,101.072119 L64.1952425,100.585613 C63.3315831,100.560848 62.6130125,101.273432 62.5885765,102.176146 C62.5649041,103.079658 63.2460572,103.832185 64.108953,103.85695 L82.7001556,104.392187 L82.7436823,104.392187 C83.5905418,104.391388 84.2831493,103.685993 84.306058,102.800855 C84.3251485,102.089869 84.2747494,101.378083 84.1548604,100.678281 L96.7203018,94.4671339 C96.7325198,94.4615418 96.7447378,94.4551509 96.7569558,94.44876 C98.5392555,93.5053047 100.694204,93.8208549 102.160363,95.2404317 L75.7878264,113.087792 Z"/>
    <path class="fill-primary" d="M63.4999406,21.6842105 C76.0812709,21.6842105 86.3157895,31.8650749 86.3157895,44.3779582 L86.3157895,76.8524747 C85.7117668,76.5212878 85.2165941,75.9278227 84.5703861,75.1152211 C83.5083852,73.7781811 82.18638,72.1148003 79.5695821,72.1148003 C76.9502888,72.1148003 75.6257881,73.7781811 74.5612917,75.1152211 C73.5240078,76.4203479 72.8729277,77.1578947 71.5459316,77.1578947 C70.21644,77.1578947 69.5653598,76.4190478 68.5255805,75.1139209 C67.4635795,73.7781811 66.1415743,72.1148003 63.5223998,72.1148003 C60.9031065,72.1148003 59.5786058,73.7781811 58.5166049,75.1140391 C57.4768255,76.419166 56.8257454,77.1578947 55.4962538,77.1578947 C54.1643855,77.1578947 53.5108099,76.419166 52.4685351,75.1140391 C51.4039199,73.7781811 50.0770426,72.1148003 47.4552537,72.1148003 C44.8334649,72.1148003 43.5090831,73.7769991 42.4444679,75.1128571 C41.7933877,75.930423 41.2932242,76.5250701 40.6842105,76.856257 L40.6842105,44.3779582 C40.6842105,31.8650749 50.9186103,21.6842105 63.4999406,21.6842105 Z M55,35.1052632 C51.5455337,35.1052632 48.7368421,37.8649464 48.7368421,41.2565645 L48.7368421,48.6381723 C48.7368421,52.0297904 51.5455337,54.7894737 55,54.7894737 C58.4544663,54.7894737 61.2631579,52.0297904 61.2631579,48.6381723 L61.2631579,41.2565645 C61.2631579,37.8649464 58.4545838,35.1052632 55,35.1052632 Z M72,35.1052632 C68.5454162,35.1052632 65.7368421,37.8649464 65.7368421,41.2565645 L65.7368421,48.6381723 C65.7368421,52.0297904 68.5455337,54.7894737 72,54.7894737 C75.4545838,54.7894737 78.2631579,52.0297904 78.2631579,48.6381723 L78.2631579,41.2565645 C78.2631579,37.8649464 75.4544663,35.1052632 72,35.1052632 Z"/>
    <path class="fill-gray" fill-rule="nonzero" d="M63.4999402,19 C77.5597925,19 89,30.3720074 89,44.3508376 L89,44.3508376 L89,78.5745218 C89,79.2751567 88.4297169,79.8421053 87.7249612,79.8421053 C85.0902554,79.8421053 83.7604713,78.1685909 82.6921018,76.8242418 C81.6512245,75.5134034 80.9963133,74.7718902 79.664019,74.7718902 C78.3267044,74.7718902 77.6717932,75.5145917 76.6258956,76.8267373 C75.5576457,78.1697792 74.227742,79.8421053 71.5931558,79.8421053 C68.9585696,79.8421053 67.6262753,78.1697792 66.5555152,76.8254301 C65.5121277,75.5134034 64.8572165,74.7718902 63.5224121,74.7718902 C62.1850975,74.7718902 61.5301863,75.5145917 60.4842887,76.8267373 C59.4160387,78.1697792 58.0837445,79.8421053 55.4490387,79.8421053 C52.8118228,79.8421053 51.4771379,78.1697792 50.4063778,76.8267373 C49.35797,75.5145917 48.7005487,74.7718902 47.3608435,74.7718902 C46.0211383,74.7718902 45.3637169,75.5145917 44.3178193,76.8267373 C43.2469397,78.1697792 41.9146454,79.8421053 39.2750388,79.8421053 C38.5702831,79.8421053 38,79.2751567 38,78.5745218 L38,78.5745218 L38,44.3508376 C38,30.3720074 49.4400879,19 63.4999402,19 Z M63.4999406,21.6842105 C50.9186103,21.6842105 40.6842105,31.8650749 40.6842105,44.3779582 L40.6842105,44.3779582 L40.6842105,76.856257 C41.2932242,76.5250701 41.7933877,75.930423 42.4444679,75.1128571 C43.5090831,73.7769991 44.8334649,72.1148003 47.4552537,72.1148003 C50.0770426,72.1148003 51.4039199,73.7781811 52.4685351,75.1140391 C53.5108099,76.419166 54.1643855,77.1578947 55.4962538,77.1578947 C56.8257454,77.1578947 57.4768255,76.419166 58.5166049,75.1140391 C59.5786058,73.7781811 60.9031065,72.1148003 63.5223998,72.1148003 C66.1415743,72.1148003 67.4635795,73.7781811 68.5255805,75.1139209 C69.5653598,76.4190478 70.21644,77.1578947 71.5459316,77.1578947 C72.8729277,77.1578947 73.5240078,76.4203479 74.5612917,75.1152211 C75.6257881,73.7781811 76.9502888,72.1148003 79.5695821,72.1148003 C82.18638,72.1148003 83.5083852,73.7781811 84.5703861,75.1152211 C85.2165941,75.9278227 85.7117668,76.5212878 86.3157895,76.8524747 L86.3157895,76.8524747 L86.3157895,44.3779582 C86.3157895,31.8650749 76.0812709,21.6842105 63.4999406,21.6842105 Z M55,35.1052632 C58.3778152,35.1052632 61.1380134,37.7436566 61.2590208,41.0314162 L61.2631579,41.2565645 L61.2631579,48.6381723 C61.2631579,52.0297904 58.4544663,54.7894737 55,54.7894737 C51.6222996,54.7894737 48.8619917,52.1510802 48.7409794,48.8633206 L48.7368421,48.6381723 L48.7368421,41.2565645 C48.7368421,37.8649464 51.5455337,35.1052632 55,35.1052632 Z M72,35.1052632 C75.3777004,35.1052632 78.1380083,37.7436566 78.2590206,41.0314162 L78.2631579,41.2565645 L78.2631579,48.6381723 C78.2631579,52.0297904 75.4545838,54.7894737 72,54.7894737 C68.6222996,54.7894737 65.8619917,52.1510802 65.7409794,48.8633206 L65.7368421,48.6381723 L65.7368421,41.2565645 C65.7368421,37.8649464 68.5454162,35.1052632 72,35.1052632 Z M55,37.7894737 C53.0900976,37.7894737 51.5250088,39.2929528 51.4260227,41.1786217 L51.4210526,41.3684211 L51.4210526,48.5263158 C51.4210526,50.4998816 53.0264342,52.1052632 55,52.1052632 C56.6498947,52.1052632 58.0283487,50.9776711 58.4409342,49.4566184 C57.1260066,48.9268224 56.1930197,47.642875 56.1930197,46.1403882 C56.1930197,44.6546582 57.1082425,43.3898546 58.400451,42.8502505 L58.5789474,42.7812105 L58.5789474,41.3684211 C58.5789474,39.3948553 56.9735658,37.7894737 55,37.7894737 Z M72,37.7894737 C70.0900976,37.7894737 68.5250088,39.2929528 68.4260227,41.1786217 L68.4210526,41.3684211 L68.4210526,48.5263158 C68.4210526,50.4998816 70.0264342,52.1052632 72,52.1052632 C73.6497829,52.1052632 75.0282368,50.9776711 75.4409342,49.4566184 C74.1260066,48.9268224 73.1930197,47.642875 73.1930197,46.1403882 C73.1930197,44.6546582 74.1082425,43.3898546 75.400451,42.8502505 L75.5789474,42.7812105 L75.5789474,41.3684211 C75.5789474,39.3948553 73.9735658,37.7894737 72,37.7894737 Z"/>
  </g>
</svg>
