<svg xmlns="http://www.w3.org/2000/svg" width="128" height="128" viewBox="0 0 128 128">
  <g>
    <g class="fill-gray" fill-rule="nonzero" transform="matrix(-1 0 0 1 120 22)">
      <path d="M94.9499926,77.528132 L69.5499931,77.528132 L69.5499931,53.2490623 L77.6499924,53.2490623 C78.1613346,53.2490623 78.6287897,52.9604079 78.8574689,52.5034434 C79.0861481,52.0464789 79.0367976,51.4996442 78.7299922,51.0909227 L62.5299938,29.5095274 C62.2750404,29.1698823 61.8749162,28.9699925 61.4499939,28.9699925 L57.3999943,28.9699925 L57.3999943,23.5746437 C57.3999943,22.8297014 56.7955788,22.2258065 56.0499944,22.2258065 L47.9499952,22.2258065 C47.2044109,22.2258065 46.5999953,22.8297014 46.5999953,23.5746437 L46.5999953,28.9699925 L18.2499981,28.9699925 C17.8250757,28.9699925 17.4249516,29.1698823 17.1699982,29.5095274 L0.969999715,51.0909227 C0.663194377,51.4996442 0.613843822,52.0464789 0.842523019,52.5034434 C1.07120222,52.9604079 1.53865738,53.2490623 2.04999961,53.2490623 L10.1499988,53.2490623 L10.1499988,77.528132 L5.34999987,77.528132 C4.60441553,77.528132 4,78.132027 4,78.8769692 C4,79.6219115 4.60441553,80.2258065 5.34999987,80.2258065 L94.9499926,80.2258065 C95.695577,80.2258065 96.2999925,79.6219115 96.2999925,78.8769692 C96.2999925,78.132027 95.695577,77.528132 94.9499926,77.528132 Z M49.2999951,24.9234809 L54.6999946,24.9234809 L54.6999946,28.9699925 L49.2999951,28.9699925 L49.2999951,24.9234809 Z M18.924998,31.6676669 L60.774994,31.6676669 L74.9499926,50.5513878 L4.74999935,50.5513878 L18.924998,31.6676669 Z M20.9499978,77.528132 L20.9499978,64.0397599 L29.049997,64.0397599 L29.049997,77.528132 L20.9499978,77.528132 Z M66.8499986,53.2490623 L66.8499986,77.528132 L31.7499968,77.528132 L31.7499968,62.6909227 C31.7499968,61.9459805 31.1455812,61.3420855 30.3999969,61.3420855 L19.5999979,61.3420855 C18.8544136,61.3420855 18.2499981,61.9459805 18.2499981,62.6909227 L18.2499981,77.528132 L12.8499986,77.528132 L12.8499986,53.2490623 L66.8499986,53.2490623 Z M59.65,61.2258065 L35.35,61.2258065 C34.6044156,61.2258065 34,61.8414149 34,62.6008065 L34,70.8508065 C34,71.610198 34.6044156,72.2258065 35.35,72.2258065 L59.65,72.2258065 C60.3955844,72.2258065 61,71.610198 61,70.8508065 L61,62.6008065 C61,61.8414149 60.3955844,61.2258065 59.65,61.2258065 Z M39.4,63.9758065 L39.4,69.4758065 L36.7,69.4758065 L36.7,63.9758065 L39.4,63.9758065 Z M46.15,63.9758065 L46.15,69.4758065 L42.1,69.4758065 L42.1,63.9758065 L46.15,63.9758065 Z M52.9,63.9758065 L52.9,69.4758065 L48.85,69.4758065 L48.85,63.9758065 L52.9,63.9758065 Z M58.3,63.9758065 L58.3,69.4758065 L55.6,69.4758065 L55.6,63.9758065 L58.3,63.9758065 Z"/>
      <path d="M116.554779,12.7844188 C116.248249,12.542232 108.949971,6.87740514 100.468248,9.00411756 C99.4236581,9.26614803 98.4346413,9.65739686 97.5090006,10.1644266 C97.3911657,9.79833394 97.24849,9.41771008 97.0653682,9.03224247 C93.3577097,1.22570321 84.7613369,0.0557066923 84.3971634,0.00976932905 C83.9275755,-0.0500742428 83.4681787,0.168675106 83.2234325,0.565548925 C82.978527,0.962422744 82.9955653,1.46398375 83.2664263,1.84413887 C83.2805983,1.86398256 84.1828313,3.1431975 85.3372947,5.38772207 C77.3896506,0.335862108 67.6208208,4.03178861 67.2072841,4.19225688 C66.756486,4.36710011 66.4585549,4.7919426 66.4525039,5.26756618 C66.4464529,5.74303351 66.734193,6.17506348 67.1802139,6.36100043 C67.2770296,6.40131281 74.0382038,9.26458553 81.3140298,15.1020682 C79.4028754,14.8511314 77.3469753,14.9222249 75.226266,15.328005 C65.7083926,17.1495621 61.28847,26.593909 61.1048705,26.9950015 C60.9007296,27.4412502 61.0001084,27.9649986 61.35519,28.3085914 C61.5836942,28.5299969 61.8868801,28.6468716 62.1946839,28.6467153 C62.3645891,28.6467153 62.5360866,28.6110905 62.696756,28.5379657 C62.8005781,28.4906221 71.2678103,24.7087583 82.8129213,24.4206342 C83.1272538,26.2840661 84.0885634,27.9234362 85.4594289,29.1179639 C82.3426964,36.7488787 80.4982621,47.3532222 79.9766039,60.6561513 C79.6705517,68.4611281 79.9344063,75.0115773 80.0751712,77.656257 L78.7883825,77.656257 C78.1288256,77.656257 77.5941101,78.1809429 77.5941101,78.8281285 C77.5941101,79.4753141 78.1288256,80 78.7883825,80 L91.5529252,80 C92.2124821,80 92.7471976,79.4753141 92.7471976,78.8281285 C92.7471976,78.1809429 92.2124821,77.656257 91.5529252,77.656257 L90.0463904,77.656257 C89.369636,72.3925226 86.6051343,47.5905652 92.1242651,31.0618644 C94.2575541,30.7465528 96.2023073,29.6099937 97.5002426,27.9081238 C105.971615,33.040296 110.407939,40.0738688 110.461124,40.1596498 C110.680392,40.5144925 111.070362,40.7241794 111.482306,40.7241794 C111.560014,40.7241794 111.638517,40.7166794 111.716702,40.701367 C112.209698,40.6046485 112.588202,40.2152747 112.663362,39.7274636 C112.679923,39.6209014 113.061453,37.0799715 112.698394,33.8434186 C112.208424,29.4749941 110.575455,25.917661 107.976559,23.5562617 C105.206325,21.039238 102.379721,20.1418969 99.9227047,20.0050223 C108.669874,15.907222 115.878343,14.8706626 115.970382,14.8578501 C116.442199,14.7933191 116.82978,14.4600388 116.956851,14.0095714 C117.083603,13.559104 116.925641,13.0775429 116.554779,12.7844188 Z M71.003478,5.57381527 C74.2464849,4.91366098 79.6197553,4.49850597 84.1229585,7.40740356 C86.0368198,8.64380613 87.8766363,10.5017694 89.0447939,12.3773888 C89.3887444,12.9295746 90.1237792,13.1039491 90.6865204,12.7662939 C91.2494208,12.4287949 91.4268101,11.707547 91.0828596,11.1553612 C90.6664566,10.4867694 90.1760088,9.82052138 89.6322167,9.17692954 C88.6459069,6.60115596 87.6068899,4.52053715 86.7849121,3.0435103 C89.2981389,3.94366387 92.9454469,5.90615803 94.9003912,10.0223958 C95.1480037,10.5436442 95.3050107,11.0769239 95.4363806,11.5886411 C94.4944978,12.3855137 93.6497491,13.3298859 92.9217206,14.4142577 C91.7201234,16.2039399 90.8871582,18.3223711 90.481424,20.5614269 C83.566746,12.6644192 75.2971261,7.77646496 71.003478,5.57381527 Z M70.5227435,23.6218866 C68.2834031,24.134385 66.4004336,24.6934459 64.9556825,25.1759444 C66.8633336,22.4745462 70.4165329,18.6362764 75.6832742,17.6284669 C79.5893412,16.8808129 83.1899929,17.4158113 85.8213731,19.1345562 C85.8584751,19.1587748 85.8966919,19.1803373 85.9353863,19.2000247 C86.9124604,20.1612719 87.8752032,21.1776751 88.808328,22.2493906 C81.4320239,21.6425174 74.9012646,22.619702 70.5227435,23.6218866 Z M86.4177131,61.598336 C86.627905,68.9597204 87.3100734,75.0620459 87.6384187,77.6561007 L82.4680154,77.6561007 C82.1700842,72.0772111 81.2027236,46.3727563 87.5019532,30.4249913 C88.1661279,30.7228029 88.8775958,30.9353023 89.6212294,31.0506144 C87.1401683,38.8826224 86.0622976,49.1483731 86.4177131,61.598336 Z M90.9148653,28.8081211 C88.1710642,28.8081211 85.8551312,26.9456267 85.2462115,24.4139154 C87.1943086,24.4512591 89.2140621,24.5943837 91.2836566,24.8754766 C92.7382804,25.4231312 94.1128083,26.0485981 95.4067627,26.7267211 C94.308669,28.0265609 92.658503,28.8081211 90.9148653,28.8081211 Z M106.353782,25.2759441 C109.654751,28.2753102 110.378799,32.9859212 110.453162,36.1270056 C107.731813,32.7504531 102.313001,27.1153137 94.1965666,23.5273556 C94.9054867,23.1917316 95.784312,22.8506388 96.7836791,22.6170458 C100.289904,21.7973607 103.509821,22.6920456 106.353782,25.2759441 Z M92.7846182,21.1470502 C93.6736346,15.5576918 97.4011976,12.1920768 101.059334,11.2748921 C102.167778,10.9969241 103.260457,10.8789557 104.31699,10.8789557 C107.67831,10.8789557 110.673863,12.0730147 112.641547,13.1101991 C108.560638,14.0325401 100.857103,16.2598772 92.7846182,21.1470502 Z"/>
    </g>
    <g transform="translate(83 19)">
      <path class="fill-primary" d="M18.9999583,3 C27.822852,3 35,10.1575147 35,18.9545228 L35,41.7852787 C34.5764178,41.5524424 34.2291687,41.135215 33.7760032,40.5639268 C33.0312551,39.6239395 32.1041742,38.4545228 30.2690957,38.4545228 C28.4322671,38.4545228 27.5034362,39.6239395 26.7569381,40.5639268 C26.0295234,41.481478 25.5729412,42 24.6423603,42 C23.7100294,42 23.2534473,41.4805639 22.5242825,40.5630127 C21.7795344,39.6239395 20.8524535,38.4545228 19.0157083,38.4545228 C17.1788797,38.4545228 16.2500488,39.6239395 15.5053008,40.5630958 C14.776136,41.480647 14.3195539,42 13.3872229,42 C12.4532254,42 11.9948932,41.480647 11.2639785,40.5630958 C10.5173971,39.6239395 9.58689951,38.4545228 7.74832097,38.4545228 C5.90974242,38.4545228 4.98099484,39.6231085 4.23441345,40.5622648 C3.77783131,41.1370431 3.42708222,41.5551015 3,41.7879378 L3,18.9545228 C3,10.1575147 10.1770646,3 18.9999583,3 Z M13.0392157,12.4354839 C10.6167064,12.4354839 8.64705882,14.3756407 8.64705882,16.7600705 L8.64705882,21.9496069 C8.64705882,24.3340367 10.6167064,26.2741935 13.0392157,26.2741935 C15.4617249,26.2741935 17.4313725,24.3340367 17.4313725,21.9496069 L17.4313725,16.7600705 C17.4313725,14.3756407 15.4618073,12.4354839 13.0392157,12.4354839 Z M24.9607843,12.4354839 C22.5381927,12.4354839 20.5686275,14.3756407 20.5686275,16.7600705 L20.5686275,21.9496069 C20.5686275,24.3340367 22.5382751,26.2741935 24.9607843,26.2741935 C27.3833759,26.2741935 29.3529412,24.3340367 29.3529412,21.9496069 L29.3529412,16.7600705 C29.3529412,14.3756407 27.3832936,12.4354839 24.9607843,12.4354839 Z"/>
      <path class="fill-gray" fill-rule="nonzero" d="M18.9999555,0 C29.4759238,0 38,8.48364431 38,18.9120075 L38,18.9120075 L38,44.4432575 C38,44.9659389 37.5750831,45.3888889 37.0499711,45.3888889 C35.086857,45.3888889 34.0960374,44.1404285 33.2999974,43.1375291 C32.5244418,42.159629 32.0364687,41.6064519 31.0437789,41.6064519 C30.0473484,41.6064519 29.5593753,42.1605155 28.7800791,43.1393907 C27.9841281,44.141315 26.9932195,45.3888889 25.0301945,45.3888889 C23.0671695,45.3888889 22.0744796,44.141315 21.2766584,43.1384156 C20.4992324,42.159629 20.0112594,41.6064519 19.0166992,41.6064519 C18.0202687,41.6064519 17.5322957,42.1605155 16.7529994,43.1393907 C15.9570485,44.141315 14.9643586,45.3888889 13.0012445,45.3888889 C11.0362601,45.3888889 10.041789,44.141315 9.24396778,43.1393907 C8.4628012,42.1605155 7.97295783,41.6064519 6.97474611,41.6064519 C5.97653439,41.6064519 5.48669103,42.1605155 4.70739476,43.1393907 C3.90948445,44.141315 2.9167946,45.3888889 0.950028945,45.3888889 C0.424916856,45.3888889 0,44.9659389 0,44.4432575 L0,44.4432575 L0,18.9120075 C0,8.48364431 8.52398709,0 18.9999555,0 Z M18.9999581,2.89705882 C10.119019,2.89705882 2.89473684,10.0923583 2.89473684,18.9358061 L2.89473684,18.9358061 L2.89473684,41.8897595 C3.32462881,41.655694 3.67768546,41.2354287 4.13727144,40.6576161 C4.88876454,39.713502 5.82362231,38.5387473 7.67429676,38.5387473 C9.52497122,38.5387473 10.4615905,39.7143373 11.2130836,40.6584515 C11.948807,41.5808465 12.4101545,42.1029412 13.3502968,42.1029412 C14.2887614,42.1029412 14.7483474,41.5808465 15.4823093,40.6584515 C16.231957,39.7143373 17.1668987,38.5387473 19.0158116,38.5387473 C20.8646407,38.5387473 21.7978208,39.7143373 22.5474686,40.658368 C23.2814305,41.580763 23.7410164,42.1029412 24.6794811,42.1029412 C25.6161843,42.1029412 26.0757702,41.5816819 26.8079706,40.6592869 C27.5593798,39.7143373 28.4943215,38.5387473 30.3432344,38.5387473 C32.1903859,38.5387473 33.123566,39.7143373 33.8732137,40.6592869 C34.3293606,41.233591 34.6788942,41.6530209 35.1052632,41.8870864 L35.1052632,41.8870864 L35.1052632,18.9358061 C35.1052632,10.0923583 27.8808971,2.89705882 18.9999581,2.89705882 Z M13,12.3823529 C15.3668083,12.3823529 17.3040392,14.2197098 17.4159465,16.519465 L17.4210526,16.7297692 L17.4210526,21.9467014 C17.4210526,24.3437187 15.4384468,26.2941176 13,26.2941176 C10.6332722,26.2941176 8.69596557,24.4567608 8.58405369,22.1570056 L8.57894737,21.9467014 L8.57894737,16.7297692 C8.57894737,14.3327519 10.5615532,12.3823529 13,12.3823529 Z M25,12.3823529 C27.3667278,12.3823529 29.3040344,14.2197098 29.4159463,16.519465 L29.4210526,16.7297692 L29.4210526,21.9467014 C29.4210526,24.3437187 27.4385297,26.2941176 25,26.2941176 C22.6332722,26.2941176 20.6959656,24.4567608 20.5840537,22.1570056 L20.5789474,21.9467014 L20.5789474,16.7297692 C20.5789474,14.3327519 22.5614703,12.3823529 25,12.3823529 Z M13,14.2794118 C11.6626189,14.2794118 10.5647569,15.3250584 10.4790677,16.642751 L10.4736842,16.8088235 L10.4736842,21.8676471 C10.4736842,23.2624596 11.6068947,24.3970588 13,24.3970588 C14.1646316,24.3970588 15.1376579,23.600136 15.4288947,22.525136 C14.5007105,22.150704 13.8421316,21.2432776 13.8421316,20.1813989 C13.8421316,19.1446211 14.47196,18.2600645 15.3658953,17.8707927 L15.5263158,17.8073088 L15.5263158,16.8088235 C15.5263158,15.414011 14.3931053,14.2794118 13,14.2794118 Z M25,14.2794118 C23.6626189,14.2794118 22.5647569,15.3250584 22.4790677,16.642751 L22.4736842,16.8088235 L22.4736842,21.8676471 C22.4736842,23.2624596 23.6068947,24.3970588 25,24.3970588 C26.1645526,24.3970588 27.1375789,23.600136 27.4288947,22.525136 C26.5007105,22.150704 25.8421316,21.2432776 25.8421316,20.1813989 C25.8421316,19.1446211 26.47196,18.2600645 27.3658953,17.8707927 L27.5263158,17.8073088 L27.5263158,16.8088235 C27.5263158,15.414011 26.3931053,14.2794118 25,14.2794118 Z"/>
    </g>
  </g>
</svg>
