<svg xmlns="http://www.w3.org/2000/svg" width="128" height="128" viewBox="0 0 128 128">
  <g>
    <path class="fill-gray" fill-rule="nonzero" d="M105.935484,99.8000373 L104.322581,99.8000373 L104.322581,74.2003356 L109.16129,74.2003356 C109.669437,74.2001267 110.147772,73.9623816 110.452152,73.5587434 C110.756533,73.1551052 110.851362,72.6327771 110.708065,72.1491595 L102.643548,44.9494764 C102.441819,44.2686541 101.812128,43.8009838 101.096774,43.8006898 L91.4193548,43.8006898 L91.4193548,37.4007643 C91.4193548,36.517119 90.6972335,35.800783 89.8064516,35.800783 L80.1290323,35.800783 C79.2382504,35.800783 78.516129,36.517119 78.516129,37.4007643 L78.516129,43.8006898 L26.9032258,43.8006898 C26.1878721,43.8009838 25.5581813,44.2686541 25.3564516,44.9494764 L17.2919355,72.1491595 C17.148638,72.6327771 17.2434674,73.1551052 17.5478475,73.5587434 C17.8522276,73.9623816 18.3305628,74.2001267 18.8387097,74.2003356 L23.6774194,74.2003356 L23.6774194,99.8000373 L15.6129032,99.8000373 C14.7221214,99.8000373 14,100.516373 14,101.400019 C14,102.283664 14.7221214,103 15.6129032,103 L105.935484,103 C106.826266,103 107.548387,102.283664 107.548387,101.400019 C107.548387,100.516373 106.826266,99.8000373 105.935484,99.8000373 Z M81.7419355,39.0007457 L88.1935484,39.0007457 L88.1935484,43.8006898 L81.7419355,43.8006898 L81.7419355,39.0007457 Z M28.1096774,47.0006525 L99.883871,47.0006525 L106.998387,71.0003728 L79.1290323,71.0003728 L65.0709677,58.6037173 C64.4600448,58.065553 63.5399552,58.065553 62.9290323,58.6037173 L48.8709677,71.0003728 L20.9951613,71.0003728 L28.1096774,47.0006525 Z M26.9032258,74.2003356 L47.8709677,74.2003356 L47.8709677,99.8000373 L26.9032258,99.8000373 L26.9032258,74.2003356 Z M51.0967742,73.3187458 L64,61.9412784 L76.9032258,73.3187458 L76.9032258,99.8000373 L70.4516129,99.8000373 L70.4516129,85.4002051 C70.4516129,84.5165598 69.7294915,83.8002237 68.8387097,83.8002237 L59.1612903,83.8002237 C58.2705085,83.8002237 57.5483871,84.5165598 57.5483871,85.4002051 L57.5483871,99.8000373 L51.0967742,99.8000373 L51.0967742,73.3187458 Z M60.7741935,99.8000373 L60.7741935,87.0001864 L67.2258065,87.0001864 L67.2258065,99.8000373 L60.7741935,99.8000373 Z M80.1290323,99.8000373 L80.1290323,74.2003356 L101.096774,74.2003356 L101.096774,99.8000373 L80.1290323,99.8000373 Z M112.387097,99.8000373 L110.774194,99.8000373 C109.883412,99.8000373 109.16129,100.516373 109.16129,101.400019 C109.16129,102.283664 109.883412,103 110.774194,103 L112.387097,103 C113.277879,103 114,102.283664 114,101.400019 C114,100.516373 113.277879,99.8000373 112.387097,99.8000373 Z M64,80.600261 C67.5631274,80.600261 70.4516129,77.7349168 70.4516129,74.2003356 C70.4516129,70.6657543 67.5631274,67.8004101 64,67.8004101 C60.4368726,67.8004101 57.5483871,70.6657543 57.5483871,74.2003356 C57.5483871,77.7349168 60.4368726,80.600261 64,80.600261 Z M64,71.0003728 C65.7815637,71.0003728 67.2258065,72.4330449 67.2258065,74.2003356 C67.2258065,75.9676262 65.7815637,77.4002983 64,77.4002983 C62.2184363,77.4002983 60.7741935,75.9676262 60.7741935,74.2003356 C60.7741935,72.4330449 62.2184363,71.0003728 64,71.0003728 Z M44.6451613,83.8002237 L30.1290323,83.8002237 C29.2382504,83.8002237 28.516129,84.5165598 28.516129,85.4002051 L28.516129,91.8001305 C28.516129,92.6837758 29.2382504,93.4001119 30.1290323,93.4001119 L44.6451613,93.4001119 C45.5359431,93.4001119 46.2580645,92.6837758 46.2580645,91.8001305 L46.2580645,85.4002051 C46.2580645,84.5165598 45.5359431,83.8002237 44.6451613,83.8002237 Z M43.0322581,90.2001491 L31.7419355,90.2001491 L31.7419355,87.0001864 L43.0322581,87.0001864 L43.0322581,90.2001491 Z M97.8709677,83.8002237 L83.3548387,83.8002237 C82.4640569,83.8002237 81.7419355,84.5165598 81.7419355,85.4002051 L81.7419355,91.8001305 C81.7419355,92.6837758 82.4640569,93.4001119 83.3548387,93.4001119 L97.8709677,93.4001119 C98.7617496,93.4001119 99.483871,92.6837758 99.483871,91.8001305 L99.483871,85.4002051 C99.483871,84.5165598 98.7617496,83.8002237 97.8709677,83.8002237 Z M96.2580645,90.2001491 L84.9677419,90.2001491 L84.9677419,87.0001864 L96.2580645,87.0001864 L96.2580645,90.2001491 Z" transform="matrix(-1 0 0 1 128 0)"/>
    <g transform="translate(79 1)">
      <path class="fill-primary" d="M22,24.1722002 C32.4747794,24.1722002 40.9657216,33.0490942 40.9657216,44 C40.9657216,54.9509058 32.4747794,63.8277998 22,63.8277998 C11.5252206,63.8277998 3.03427839,54.9509058 3.03427839,44 C3.04613104,33.0545155 11.5304062,24.1845916 22,24.1722002 Z"/>
      <path class="fill-gray" fill-rule="nonzero" d="M35 17.4615385L35 10.5384615C35 9.68885212 34.3283692 9 33.5 9 32.6716308 9 32 9.68885212 32 10.5384615L32 17.4615385C32 18.3111479 32.6716308 19 33.5 19 34.3283692 19 35 18.3111479 35 17.4615385zM11 17.4615385L11 10.5384615C11 9.68885212 10.3283692 9 9.5 9 8.67163081 9 8 9.68885212 8 10.5384615L8 17.4615385C8 18.3111479 8.67163081 19 9.5 19 10.3283692 19 11 18.3111479 11 17.4615385zM23 17.3478261L23 1.65217391C23 .739767272 22.3283692 0 21.5 0 20.6716308 0 20 .739767272 20 1.65217391L20 17.3478261C20 18.2602327 20.6716308 19 21.5 19 22.3283692 19 23 18.2602327 23 17.3478261zM0 44C0 56.7027409 9.84955212 67 22 67 34.1504479 67 44 56.7027409 44 44 44 31.2972591 34.1504479 21 22 21 9.85547844 21.0139402.0140750692 31.3034548 0 44zM22 24.1722002C32.4747794 24.1722002 40.9657216 33.0490942 40.9657216 44 40.9657216 54.9509058 32.4747794 63.8277998 22 63.8277998 11.5252206 63.8277998 3.03427839 54.9509058 3.03427839 44 3.04613104 33.0545155 11.5304062 24.1845916 22 24.1722002z"/>
      <path class="fill-gray" ill-rule="nonzero" d="M23.6721014,55 C24.1237923,55 24.5960145,54.9748168 25.0887681,54.9244505 C25.5815217,54.8740842 26.0640097,54.7985348 26.5362319,54.6978022 C27.0084541,54.5970696 27.4601449,54.4610806 27.8913043,54.2898352 C28.3224638,54.1185897 28.692029,53.9221612 29,53.7005495 L29,53.7005495 L28.1684783,50.6483516 C27.6757246,50.9304029 27.116244,51.1620879 26.4900362,51.3434066 C25.8638285,51.5247253 25.1195652,51.6153846 24.2572464,51.6153846 C22.7789855,51.6153846 21.5881643,51.2728938 20.6847826,50.5879121 C19.781401,49.9029304 19.1243961,48.9056777 18.7137681,47.5961538 L18.7137681,47.5961538 L24.5344203,47.5961538 L25.3351449,44.7857143 L18.2518116,44.7857143 L18.2518116,43.5164835 C18.2518116,43.3553114 18.2620773,43.1941392 18.2826087,43.032967 L18.2826087,43.032967 L25.951087,43.032967 L26.7518116,40.2225275 L18.7753623,40.2225275 C19.2065217,38.8928571 19.8686594,37.9207875 20.7617754,37.3063187 C21.6548913,36.6918498 22.7173913,36.3846154 23.9492754,36.3846154 C24.75,36.3846154 25.4480676,36.4299451 26.0434783,36.5206044 C26.6388889,36.6112637 27.1624396,36.7472527 27.6141304,36.9285714 L27.6141304,36.9285714 L28.692029,33.8159341 C28.1376812,33.5943223 27.4447464,33.4029304 26.6132246,33.2417582 C25.7817029,33.0805861 24.8321256,33 23.7644928,33 C22.7584541,33 21.7883454,33.135989 20.8541667,33.407967 C19.9199879,33.6799451 19.0576691,34.103022 18.2672101,34.6771978 C17.4767512,35.2513736 16.7889493,35.9967949 16.2038043,36.9134615 C15.6186594,37.8301282 15.1721014,38.9331502 14.8641304,40.2225275 L14.8641304,40.2225275 L12.9855072,40.2225275 L12,43.032967 L14.5253623,43.032967 C14.5048309,43.1941392 14.4945652,43.3553114 14.4945652,43.5164835 L14.4945652,43.5164835 L14.4945652,44.7857143 L12.9855072,44.7857143 L12,47.5961538 L14.8333333,47.5961538 C15.3466184,50.1547619 16.3834541,52.0283883 17.9438406,53.217033 C19.5042271,54.4056777 21.4136473,55 23.6721014,55 Z"/>
    </g>
  </g>
</svg>
