<?xml version="1.0" encoding="UTF-8"?>
<svg width="128px" height="128px" viewBox="0 0 128 128" version="1.1" xmlns="http://www.w3.org/2000/svg" xmlns:xlink="http://www.w3.org/1999/xlink">
    <title>data_security</title>
    <g id="data_security" stroke="none" stroke-width="1" fill="none" fill-rule="evenodd">
        <path d="M100.48872,13 L15.9354022,13 C12.1112578,13 9,16.1359141 9,19.9903644 L9,91.0098575 C9,94.8643077 12.1112578,98 15.9354022,98 L71.3134144,98 C72.2250464,98 72.9641242,97.2550651 72.9641242,96.3362085 C72.9641242,95.417352 72.2250464,94.6724171 71.3134144,94.6724171 L65.147243,94.6724171 L65.147243,83.9079082 C65.147243,81.0768006 63.4721027,78.5440663 60.8793879,77.455503 L52.2072189,73.8133526 C51.5073179,73.5194161 51.0550234,72.8357087 51.0550234,72.0714739 L51.0550234,69.4737408 C53.277319,67.1956775 54.5780783,64.0937047 54.5780783,60.8266838 L54.5780783,53.7247345 C54.5780783,47.9123345 49.0961811,43.1833955 42.3582038,43.1833955 C35.6202266,43.1833955 30.1383294,47.9121127 30.1383294,53.7247345 L30.1383294,60.8266838 C30.1383294,64.0932611 31.4390887,67.1954557 33.6613843,69.4737408 L33.6613843,72.0714739 C33.6613843,72.8357087 33.2090898,73.5194161 32.5091888,73.8135745 L23.8372399,77.455503 C21.2445251,78.5442882 19.5691647,81.0770225 19.5691647,83.90813 L19.5691647,94.6726389 L15.9354022,94.6726389 C13.9316606,94.6726389 12.3014196,93.0294785 12.3014196,91.0100793 L12.3014196,34.0824562 L104.122482,34.0824562 L104.122482,61.7142611 C104.122482,62.6331177 104.86156,63.3780526 105.773192,63.3780526 C106.684824,63.3780526 107.423902,62.6331177 107.423902,61.7142611 L107.423902,19.9903644 C107.423902,16.1359141 104.312864,13 100.48872,13 Z M22.8705843,83.9079082 C22.8705843,82.4244717 23.7483217,81.0974316 25.1069659,80.5268621 L33.7791349,76.8849335 C35.7131065,76.0727814 36.9628039,74.1833798 36.9628039,72.0714739 L36.9628039,71.7109857 C37.5687244,71.7500294 38.1733244,71.4514343 38.4984042,70.885967 C38.9551005,70.0906747 38.6859248,69.072878 37.8971056,68.6123405 C35.1479035,67.0080019 33.4399691,64.0247128 33.4399691,60.8269057 L33.4399691,53.7249563 C33.4399691,49.7473856 37.4408494,46.5112003 42.3584239,46.5112003 C47.2759985,46.5112003 51.2768788,49.7471637 51.2768788,53.7249563 L51.2768788,60.8269057 C51.2768788,64.0260439 49.567844,67.0099984 46.8168811,68.6143371 C46.0278418,69.0744309 45.7582258,70.0922275 46.2147021,70.8877417 C46.5206337,71.4208205 47.0750521,71.7187501 47.6450972,71.7187501 C47.6814128,71.7187501 47.7177284,71.7140915 47.754044,71.7116512 L47.754044,72.0719175 C47.754044,74.1838235 49.0037414,76.0732251 50.9379331,76.8853772 L59.6101021,80.5275276 C60.9685262,81.0978753 61.8462636,82.4251372 61.8462636,83.9083518 L61.8462636,94.6728608 L22.8705843,94.6728608 L22.8705843,83.9079082 Z M95.9362158,64.0469524 L96.0886064,64.0920267 L119.890897,72.3859046 C120.567204,72.6213781 121.015066,73.2668891 120.999612,73.9841235 C120.993697,74.2498312 120.826272,80.5840041 117.720103,88.790931 C114.855377,96.3602918 108.834255,107.008243 96.4181688,114.749961 C96.1509501,114.916801 95.8480435,115 95.5451369,115 C95.2422303,115 94.9393237,114.91658 94.672105,114.749961 C82.2560188,107.008243 76.2348965,96.3602918 73.3701712,88.790931 C70.264222,80.5840041 70.0967973,74.2498312 70.0906976,73.9841235 C70.0719039,73.0702565 70.7957956,72.3137397 71.7080401,72.2943192 C72.6304182,72.277547 73.3743568,72.9991951 73.3948443,73.9121794 C73.3963864,73.9726477 73.5708606,80.0411128 76.5063008,87.7384723 C79.1278197,94.6126675 84.5490768,104.213015 95.5455775,111.382932 C106.589662,104.18256 112.014664,94.5301303 114.630896,87.6175356 C116.72054,82.0964104 117.389143,77.4617724 117.600417,75.270648 L117.616564,75.0983747 L95.5455775,67.4078565 L78.9716301,73.1828071 C78.1100536,73.4827215 77.1682894,73.0265604 76.868467,72.1632309 C76.5855094,71.3478641 76.9761481,70.4610416 77.7464215,70.1119963 L77.8862331,70.0561066 L95.0029892,64.0920267 C95.3043537,63.9868533 95.6283772,63.9718286 95.9362158,64.0469524 Z M106.937138,81.504093 C107.547979,82.1364643 107.583911,83.1389894 107.044933,83.8150995 L106.937138,83.9378749 L95.4868061,95.7958496 C95.1624077,96.1320264 94.7369672,96.3 94.3117483,96.3 C93.9396818,96.3 93.5674456,96.1713952 93.2628785,95.9140318 L93.1366905,95.7958496 L85.8501358,88.2498866 C85.2011175,87.577992 85.2011175,86.4882287 85.8501358,85.8161047 C86.460768,85.1835174 87.4288292,85.1463064 88.0816966,85.7044716 L88.2002513,85.8161047 L94.3117483,92.1451768 L104.587022,81.504093 C105.235819,80.831969 106.28812,80.831969 106.937138,81.504093 Z M76.9627739,64 C77.853438,64 78.5755168,64.7611467 78.5755168,65.7 C78.5755168,66.58944 77.9274461,67.319387 77.1019234,67.3937597 L76.9627739,67.4 L64.9155852,67.4 C64.0249211,67.4 63.3028423,66.6388533 63.3028423,65.7 C63.3028423,64.81056 63.950913,64.080613 64.7764357,64.0062403 L64.9155852,64 L76.9627739,64 Z M85.455707,57.2 C86.34189,57.2 87.0603359,57.9611467 87.0603359,58.9 C87.0603359,59.78944 86.4155258,60.519387 85.5941564,60.5937597 L85.455707,60.6 L64.9074712,60.6 C64.0212882,60.6 63.3028423,59.8388533 63.3028423,58.9 C63.3028423,58.01056 63.9476525,57.280613 64.7690218,57.2062403 L64.9074712,57.2 L85.455707,57.2 Z M93.7688495,41.9 C95.6200948,41.9 97.1378431,43.3055239 97.2369693,45.0695298 L97.2421188,45.253249 L97.2421188,50.446751 C97.2421188,52.2342348 95.7860787,53.6995436 93.9589211,53.7950494 L93.7686255,53.8 L65.0791478,53.8 C63.2279025,53.8 61.7101543,52.3944761 61.611028,50.6304702 L61.6058785,50.446751 L61.6058785,45.253249 C61.6058785,43.4659743 63.0617093,42.0006725 64.8888529,41.9049715 L65.0791478,41.9 L93.7688495,41.9 Z M93.7686255,45.1444517 L65.0791478,45.1444517 C65.0326038,45.1444517 64.9924869,45.1718268 64.9753375,45.2108819 L64.9664564,45.253249 L64.9664564,50.446751 C64.9664564,50.4918489 64.9949373,50.5306201 65.0353588,50.5470961 L65.0791478,50.555549 L93.7686255,50.555549 C93.8151695,50.555549 93.8552864,50.5281735 93.8724358,50.4891182 L93.8813169,50.446751 L93.8813169,45.253249 C93.8813169,45.1933348 93.8309082,45.1444517 93.7686255,45.1444517 Z M100.48872,16.3275829 C102.492461,16.3275829 104.122482,17.9707434 104.122482,19.9903644 L104.122482,30.7548733 L12.3014196,30.7548733 L12.3014196,19.9903644 C12.3014196,17.9707434 13.9316606,16.3275829 15.9354022,16.3275829 L100.48872,16.3275829 Z M97.3016054,21.5 L34.3949707,21.5 C33.4906467,21.5 32.7574935,22.2611467 32.7574935,23.2 C32.7574935,24.1388533 33.4906467,24.9 34.3949707,24.9 L97.3016054,24.9 C98.2059295,24.9 98.9390826,24.1388533 98.9390826,23.2 C98.9390826,22.2611467 98.2059295,21.5 97.3016054,21.5 Z M22.5802238,21.5 L22.562171,21.5 C21.6274869,21.5 20.8787468,22.2611467 20.8787468,23.2 C20.8787468,24.1388533 21.6455397,24.9 22.5802238,24.9 C23.5149079,24.9 24.2726744,24.1388533 24.2726744,23.2 C24.2726744,22.2611467 23.5149079,21.5 22.5802238,21.5 Z M27.6711153,21.5 L27.6530625,21.5 C26.7183784,21.5 25.9696382,22.2611467 25.9696382,23.2 C25.9696382,24.1388533 26.7364312,24.9 27.6711153,24.9 C28.6057993,24.9 29.3635659,24.1388533 29.3635659,23.2 C29.3635659,22.2611467 28.6057993,21.5 27.6711153,21.5 Z M17.4893323,21.5 L17.4712795,21.5 C16.5365954,21.5 15.7878553,22.2611467 15.7878553,23.2 C15.7878553,24.1388533 16.5546483,24.9 17.4893323,24.9 C18.4240164,24.9 19.1817829,24.1388533 19.1817829,23.2 C19.1817829,22.2611467 18.4240164,21.5 17.4893323,21.5 Z" id="Shape" fill="#444444" fill-rule="nonzero"></path>
    </g>
</svg>