<svg xmlns="http://www.w3.org/2000/svg" width="128" height="128" viewBox="0 0 128 128">
  <g fill-rule="evenodd">
    <path class="fill-primary" d="M32.8368164,29.180055 L32.8368164,23.1095738 L38.8488281,23.1095738 L38.8488281,28.043541 L48.5783692,28.2398991 L48.5783692,26.5495067 L64,20.1298361 L79.5591349,26.5495067 L79.5591349,29.180055 L89.5145001,29.180055 L89.5145001,22.0855292 L95.1630859,22.0855292 L95.1630859,29.180055 L112.535156,49.9175738 L15.4648438,49.9175738 L32.8368164,29.180055 Z M55.4648437,32.1298361 L71.4648437,32.1298361 L71.4648437,48.1298361 L55.4648437,48.1298361 L55.4648437,32.1298361 Z"/>
    <path class="fill-gray" fill-rule="nonzero" d="M112.535156,110.044459 L110.86875,110.044459 L110.86875,57.9042623 C110.86875,57.0894426 110.212891,56.4288525 109.403906,56.4288525 C108.594922,56.4288525 107.939063,57.0894426 107.939063,57.9042623 L107.939063,110.044459 L77.9900391,110.044459 L77.9900391,105.212197 C77.9900391,104.397377 77.3341797,103.736787 76.5251953,103.736787 L73.2931641,103.736787 L73.2931641,83.1349508 C73.2931641,82.3201311 72.6373047,81.659541 71.8283203,81.659541 L56.171875,81.659541 C55.3628906,81.659541 54.7070312,82.3201311 54.7070312,83.1349508 L54.7070312,103.736787 L51.475,103.736787 C50.6660156,103.736787 50.0101562,104.397377 50.0101562,105.212197 L50.0101562,110.044459 L20.0611328,110.044459 L20.0611328,108.36623 C20.0611328,107.55141 19.4052734,106.89082 18.5962891,106.89082 C17.7873047,106.89082 17.1314453,107.55141 17.1314453,108.36623 L17.1314453,110.044459 L15.4648438,110.044459 C14.6558594,110.044459 14,110.705049 14,111.519869 C14,112.334885 14.6558594,112.995279 15.4648438,112.995279 L112.535156,112.995279 C113.344141,112.995279 114,112.334885 114,111.519869 C114,110.705049 113.344141,110.044459 112.535156,110.044459 Z M57.6367188,84.6103607 L70.3634766,84.6103607 L70.3634766,103.736787 L57.6367188,103.736787 L57.6367188,84.6103607 Z M75.0603516,106.687607 L75.0603516,110.044459 L52.9396484,110.044459 L52.9396484,106.687607 L75.0603516,106.687607 Z M63.3451172,17.1605246 C63.7574219,16.9527869 64.2429688,16.9527869 64.6552734,17.1605246 L64.6552734,17.1605246 L80.3117188,25.0453115 C80.8080078,25.2951475 81.1214844,25.8060328 81.1214844,26.364918 L81.1214844,26.364918 L81.1214844,28.043541 L87.5857422,28.043541 L87.5857422,23.1095738 L87.4847656,23.1095738 C86.6757813,23.1095738 86.0199219,22.4489836 86.0199219,21.6341639 C86.0199219,20.8191475 86.6757813,20.1587541 87.4847656,20.1587541 L87.4847656,20.1587541 L96.8787109,20.1587541 C97.6876953,20.1587541 98.3435547,20.8191475 98.3435547,21.6341639 C98.3435547,22.4489836 97.6876953,23.1095738 96.8787109,23.1095738 L96.8787109,23.1095738 L96.7779297,23.1095738 L96.7779297,28.944918 L113.615039,47.4451803 C114.007422,47.8763934 114.109961,48.5005902 113.875977,49.0362623 C113.641992,49.5719344 113.116016,49.9175738 112.535156,49.9175738 L112.535156,49.9175738 L110.86875,49.9175738 L110.86875,51.5958033 C110.86875,52.410623 110.212891,53.0712131 109.403906,53.0712131 C108.594922,53.0712131 107.939063,52.410623 107.939063,51.5958033 L107.939063,51.5958033 L107.939063,49.9175738 L79.6564453,49.9175738 C78.8474609,49.9175738 78.1916016,49.2569836 78.1916016,48.4421639 L78.1916016,48.4421639 L78.1916016,27.276918 L64,20.1298361 L49.8083984,27.276918 L49.8083984,48.4421639 C49.8083984,49.2569836 49.1525391,49.9175738 48.3435547,49.9175738 L48.3435547,49.9175738 L20.0609375,49.9175738 L20.0609375,102.05777 C20.0609375,102.87259 19.4050781,103.53318 18.5960938,103.53318 C17.7871094,103.53318 17.13125,102.87259 17.13125,102.05777 L17.13125,102.05777 L17.13125,49.9175738 L15.4648438,49.9175738 C14.8839844,49.9175738 14.3582031,49.5719344 14.1242188,49.0362623 C13.8902344,48.5005902 13.9925781,47.8763934 14.3851563,47.4451803 L14.3851563,47.4451803 L31.2220703,28.944918 L31.2220703,23.1095738 L31.1212891,23.1095738 C30.3123047,23.1095738 29.6564453,22.4489836 29.6564453,21.6341639 C29.6564453,20.8191475 30.3123047,20.1587541 31.1212891,20.1587541 L31.1212891,20.1587541 L40.515625,20.1587541 C41.3246094,20.1587541 41.9804688,20.8191475 41.9804688,21.6341639 C41.9804688,22.4489836 41.3246094,23.1095738 40.515625,23.1095738 L40.515625,23.1095738 L40.4146484,23.1095738 L40.4146484,28.043541 L46.8789063,28.043541 L46.8789063,26.364918 C46.8789063,25.8060328 47.1923828,25.2953443 47.6886719,25.0453115 L47.6886719,25.0453115 Z M48.3435547,81.659541 C49.1525391,81.659541 49.8083984,82.3201311 49.8083984,83.1349508 L49.8083984,83.1349508 L49.8083984,97.428918 L49.9091797,97.428918 C50.7181641,97.428918 51.3740234,98.0895082 51.3740234,98.9043279 C51.3740234,99.7191475 50.7181641,100.379738 49.9091797,100.379738 L49.9091797,100.379738 L24.8587891,100.379738 C24.0498047,100.379738 23.3939453,99.7191475 23.3939453,98.9043279 C23.3939453,98.0895082 24.0498047,97.428918 24.8587891,97.428918 L24.8587891,97.428918 L24.9595703,97.428918 L24.9595703,83.1349508 C24.9595703,82.3201311 25.6154297,81.659541 26.4244141,81.659541 L26.4244141,81.659541 Z M101.575586,81.659541 C102.38457,81.659541 103.04043,82.3201311 103.04043,83.1349508 L103.04043,83.1349508 L103.04043,97.428918 L103.141211,97.428918 C103.950195,97.428918 104.606055,98.0895082 104.606055,98.9043279 C104.606055,99.7191475 103.950195,100.379738 103.141211,100.379738 L103.141211,100.379738 L78.0908203,100.379738 C77.2818359,100.379738 76.6259766,99.7191475 76.6259766,98.9043279 C76.6259766,98.0895082 77.2818359,97.428918 78.0908203,97.428918 L78.0908203,97.428918 L78.1916016,97.428918 L78.1916016,83.1349508 C78.1916016,82.3201311 78.8474609,81.659541 79.6564453,81.659541 L79.6564453,81.659541 Z M35.9191406,84.6103607 L27.8892578,84.6103607 L27.8892578,97.428918 L35.9191406,97.428918 L35.9191406,84.6103607 Z M46.8787109,84.6103607 L38.8488281,84.6103607 L38.8488281,97.428918 L46.8787109,97.428918 L46.8787109,84.6103607 Z M89.1513672,84.6103607 L81.1214844,84.6103607 L81.1214844,97.428918 L89.1513672,97.428918 L89.1513672,84.6103607 Z M100.110938,84.6103607 L92.0810547,84.6103607 L92.0810547,97.428918 L100.110938,97.428918 L100.110938,84.6103607 Z M65.565625,87.9672131 C66.3748047,87.9672131 67.0304687,88.6278033 67.0304687,89.442623 C67.0304687,90.2574426 66.3746094,90.9180328 65.565625,90.9180328 L65.565625,90.9180328 L62.434375,90.9180328 C61.6253906,90.9180328 60.9695312,90.2574426 60.9695312,89.442623 C60.9695312,88.6278033 61.6253906,87.9672131 62.434375,87.9672131 L62.434375,87.9672131 Z M71.8283203,56.428459 C72.6373047,56.428459 73.2931641,57.0890492 73.2931641,57.9038689 L73.2931641,57.9038689 L73.2931641,73.6732459 C73.2931641,74.4880656 72.6373047,75.1486557 71.8283203,75.1486557 L71.8283203,75.1486557 L56.171875,75.1486557 C55.3628906,75.1486557 54.7070312,74.4880656 54.7070312,73.6732459 L54.7070312,73.6732459 L54.7070312,57.9038689 C54.7070312,57.0888525 55.3628906,56.428459 56.171875,56.428459 L56.171875,56.428459 Z M101.575586,56.428459 C102.38457,56.428459 103.04043,57.0888525 103.04043,57.9038689 L103.04043,57.9038689 L103.04043,73.6732459 C103.04043,74.4880656 102.38457,75.1486557 101.575586,75.1486557 L101.575586,75.1486557 L79.6564453,75.1486557 C78.8474609,75.1486557 78.1916016,74.4880656 78.1916016,73.6732459 L78.1916016,73.6732459 L78.1916016,57.9038689 C78.1916016,57.0888525 78.8474609,56.428459 79.6564453,56.428459 L79.6564453,56.428459 Z M48.3435547,56.428459 C49.1525391,56.428459 49.8083984,57.0888525 49.8083984,57.9038689 L49.8083984,57.9038689 L49.8083984,73.6732459 C49.8083984,74.4880656 49.1525391,75.1486557 48.3435547,75.1486557 L48.3435547,75.1486557 L26.4244141,75.1486557 C25.6154297,75.1486557 24.9595703,74.4880656 24.9595703,73.6732459 L24.9595703,73.6732459 L24.9595703,57.9038689 C24.9595703,57.0888525 25.6154297,56.428459 26.4244141,56.428459 L26.4244141,56.428459 Z M62.5351562,59.3792787 L57.6367188,59.3792787 L57.6367188,72.1978361 L62.5351562,72.1978361 L62.5351562,59.3792787 Z M70.3634766,59.3792787 L65.4648438,59.3792787 L65.4648438,72.1978361 L70.3634766,72.1978361 L70.3634766,59.3792787 Z M89.1511719,59.3792787 L81.1212891,59.3792787 L81.1212891,72.1978361 L89.1511719,72.1978361 L89.1511719,59.3792787 Z M100.110937,59.3792787 L92.0810547,59.3792787 L92.0810547,72.1978361 L100.110937,72.1978361 L100.110937,59.3792787 Z M35.9191406,59.3792787 L27.8892578,59.3792787 L27.8892578,72.1978361 L35.9191406,72.1978361 L35.9191406,59.3792787 Z M46.8787109,59.3792787 L38.8488281,59.3792787 L38.8488281,72.1978361 L46.8787109,72.1978361 L46.8787109,59.3792787 Z M71.8283203,31.197377 C72.6373047,31.197377 73.2931641,31.8579672 73.2931641,32.6727869 L73.2931641,32.6727869 L73.2931641,48.4421639 C73.2931641,49.2569836 72.6373047,49.9175738 71.8283203,49.9175738 L71.8283203,49.9175738 L56.171875,49.9175738 C55.3628906,49.9175738 54.7070312,49.2569836 54.7070312,48.4421639 L54.7070312,48.4421639 L54.7070312,32.6727869 C54.7070312,31.8579672 55.3628906,31.197377 56.171875,31.197377 L56.171875,31.197377 Z M62.5351562,34.1481967 L57.6367188,34.1481967 L57.6367188,46.9667541 L62.5351562,46.9667541 L62.5351562,34.1481967 Z M70.3634766,34.1481967 L65.4648438,34.1481967 L65.4648438,46.9667541 L70.3634766,46.9667541 L70.3634766,34.1481967 Z M46.8787109,30.9943607 L33.3314453,30.9943607 L18.7949219,46.9667541 L46.8787109,46.9667541 L46.8787109,30.9943607 Z M94.6685547,30.9943607 L81.1210938,30.9943607 L81.1210938,46.9667541 L109.205078,46.9667541 L94.6685547,30.9943607 Z M37.4847656,23.1095738 L34.1519531,23.1095738 L34.1519531,28.043541 L37.4847656,28.043541 L37.4847656,23.1095738 Z M93.8482422,23.1095738 L90.5154297,23.1095738 L90.5154297,28.043541 L93.8482422,28.043541 L93.8482422,23.1095738 Z"/>
  </g>
</svg>
