<svg xmlns="http://www.w3.org/2000/svg" width="128" height="128" viewBox="0 0 128 128">
  <g fill-rule="evenodd">
    <path class="fill-primary" d="M89.228595,18.4432714 L112.962814,35.2628066 C113.491965,35.6377962 113.806434,36.2460887 113.806422,36.8946399 L113.805106,107.473466 C113.805048,108.578021 112.909623,109.473429 111.805068,109.473466 L65.4633613,109.473466 L65.4633613,37.3822352 L66.4825368,36.6052492 L63.9025341,34.6991633 L86.9183051,18.4415073 C87.6109067,17.9522742 88.5367413,17.9529811 89.228595,18.4432714 Z M88.0521442,37.999629 C82.4660478,37.999629 77.9376218,42.528055 77.9376218,48.1141514 L77.9376218,48.1141514 L77.9376218,56.7602879 L98.2105263,56.7602879 L98.1903129,48.1141238 C98.1772445,42.5242217 93.6420617,37.999629 88.0521442,37.999629 Z M80.5692008,79.6667407 L104.735867,79.6667407 L104.735867,95.500074 L80.5692008,95.500074 L80.5692008,79.6667407 Z"/>
    <path class="fill-gray" fill-rule="nonzero" d="M15.5594542,109.473466 C14.697076,109.473466 14,108.780443 14,107.923079 L14,107.923079 L14,36.6052492 C14,36.5951332 14.0000974,36.5850397 14.0002913,36.5749696 C14.0015159,36.5581484 14.0021374,36.5411215 14.0030385,36.5241155 C14.0037888,36.4915977 14.0064539,36.4596349 14.0100784,36.427961 C14.0124024,36.4169837 14.0138391,36.4056309 14.0154009,36.3942961 C14.0255725,36.3120407 14.043228,36.2321446 14.0667969,36.1548007 C14.0715267,36.142936 14.0755558,36.1302373 14.0797498,36.1175879 C14.088935,36.0867626 14.0998371,36.057162 14.1116047,36.0279989 C14.1171547,36.0165153 14.12216,36.0044762 14.1273202,35.9924951 C14.1597813,35.9155834 14.1989013,35.8423393 14.2434372,35.772858 C14.2491095,35.7644625 14.2549786,35.755472 14.2609477,35.7465351 C14.2774285,35.7215801 14.2943463,35.6978361 14.3119061,35.6745986 C14.3251651,35.6571995 14.3390917,35.6395443 14.3534423,35.6221559 C14.3675852,35.6048906 14.3821061,35.5880479 14.3969785,35.5715242 C14.4126462,35.5542838 14.428941,35.5370102 14.4456917,35.5200613 C14.4666633,35.4985475 14.4882126,35.4779077 14.5103442,35.4578923 C14.5560578,35.4171252 14.6048342,35.378117 14.6565302,35.3416833 L14.5428866,35.429271 C14.5844973,35.3936841 14.6280213,35.3602432 14.6732859,35.3291214 L38.8280702,18.2874197 C38.8310253,18.2853417 38.8339851,18.2832752 38.8369497,18.2812204 C38.8674489,18.2588178 38.8991485,18.238405 38.9314551,18.2192206 C38.9450001,18.2125159 38.9577345,18.2052129 38.9705357,18.1981066 C39.0030699,18.178683 39.0371457,18.1613559 39.0717452,18.1453286 C39.0791576,18.1431836 39.0861794,18.1399917 39.0932168,18.1368552 C39.1725735,18.100245 39.2549127,18.0715911 39.3389608,18.0499165 C39.3504994,18.0481263 39.3615331,18.045415 39.3725845,18.0428266 C39.7931343,17.9428739 40.253468,18.0178327 40.6354776,18.2858693 L40.5704538,18.2444417 C40.5767896,18.2484561 40.5831002,18.252519 40.5893849,18.2566303 L40.6354776,18.2858693 L63.904,34.703 L87.1711501,18.2874197 C87.1741052,18.2853417 87.177065,18.2832752 87.1800295,18.2812204 C87.2105288,18.2588178 87.2422284,18.238405 87.274535,18.2192206 C87.2880671,18.2125159 87.3007986,18.2052129 87.3135966,18.1981066 C87.3461498,18.178683 87.3802256,18.1613559 87.4148251,18.1453286 C87.4221833,18.1431836 87.4292023,18.1399917 87.4362368,18.1368552 C87.5156534,18.100245 87.5979926,18.0715911 87.6820407,18.0499165 C87.6933868,18.0481263 87.7044138,18.045415 87.7154585,18.0428266 C88.1362142,17.9428739 88.5965479,18.0178327 88.9785575,18.2858693 L88.9785575,18.2858693 L113.150097,35.3401329 C113.574605,35.6393118 113.802807,36.1120954 113.806398,36.5934073 L113.805068,36.6052492 L113.805068,107.923079 C113.805068,108.780443 113.107992,109.473466 112.245614,109.473466 L112.245614,109.473466 Z M62.343,73.814 L17.118,73.814 L17.118,106.372 L51.426,106.372 L51.4269006,84.6672647 C51.4269006,83.8575317 52.0486752,83.1943869 52.8442468,83.1232033 L52.9863548,83.1168771 L62.343,83.116 L62.343,73.814 Z M110.686,73.814 L65.461,73.814 L65.461,83.116 L74.8187135,83.1168771 C75.6331817,83.1168771 76.3002046,83.7350367 76.3718044,84.525983 L76.3781676,84.6672647 L76.378,106.372 L110.686,106.372 L110.686,73.814 Z M62.343,86.217 L54.545809,86.2176523 L54.545809,106.372691 L62.343,106.372 L62.343,86.217 Z M73.2592593,86.2176523 L65.461,86.217 L65.461,106.372 L73.2592593,106.372691 L73.2592593,86.2176523 Z M46.748538,78.4657143 C47.6109162,78.4657143 48.3079922,79.1587376 48.3079922,80.0161019 L48.3079922,80.0161019 L48.3079922,95.5199779 C48.3079922,96.3773422 47.6109162,97.0703655 46.748538,97.0703655 L46.748538,97.0703655 L23.3567251,97.0703655 C22.494347,97.0703655 21.797271,96.3773422 21.797271,95.5199779 L21.797271,95.5199779 L21.797271,80.0161019 C21.797271,79.1587376 22.494347,78.4657143 23.3567251,78.4657143 L23.3567251,78.4657143 Z M104.448343,78.4657143 C105.310721,78.4657143 106.007797,79.1587376 106.007797,80.0161019 L106.007797,80.0161019 L106.007797,95.5199779 C106.007797,96.3773422 105.310721,97.0703655 104.448343,97.0703655 L104.448343,97.0703655 L81.0565302,97.0703655 C80.194152,97.0703655 79.497076,96.3773422 79.497076,95.5199779 L79.497076,95.5199779 L79.497076,80.0161019 C79.497076,79.1587376 80.194152,78.4657143 81.0565302,78.4657143 L81.0565302,78.4657143 Z M68.6276803,93.9695903 C69.488499,93.9695903 70.1871345,94.6626135 70.1871345,95.5199779 C70.1871345,96.3773422 69.488499,97.0703655 68.6276803,97.0703655 C67.7653021,97.0703655 67.0604288,96.3773422 67.0604288,95.5199779 C67.0604288,94.6626135 67.7497076,93.9695903 68.6105263,93.9695903 L68.6105263,93.9695903 Z M59.2709552,93.9695903 C60.1317739,93.9695903 60.8304094,94.6626135 60.8304094,95.5199779 C60.8304094,96.3773422 60.1317739,97.0703655 59.2709552,97.0703655 C58.408577,97.0703655 57.7037037,96.3773422 57.7037037,95.5199779 C57.7037037,94.6626135 58.3929825,93.9695903 59.2538012,93.9695903 L59.2538012,93.9695903 Z M29.594,89.318 L24.916,89.318 L24.9161793,93.9695903 L29.594,93.969 L29.594,89.318 Z M87.294,89.318 L82.615,89.318 L82.6159844,93.9695903 L87.294,93.969 L87.294,89.318 Z M95.091,89.318 L90.413,89.318 L90.413,93.969 L95.091,93.969 L95.091,89.318 Z M102.888,89.318 L98.21,89.318 L98.21,93.969 L102.888889,93.9695903 L102.888,89.318 Z M37.391,89.318 L32.713,89.318 L32.713,93.969 L37.391,93.969 L37.391,89.318 Z M45.189,89.318 L40.51,89.318 L40.51,93.969 L45.1890838,93.9695903 L45.189,89.318 Z M29.594,81.566 L24.9161793,81.5664895 L24.916,86.217 L29.594,86.217 L29.594,81.566 Z M87.294,81.566 L82.6159844,81.5664895 L82.615,86.217 L87.294,86.217 L87.294,81.566 Z M95.091,81.566 L90.413,81.566 L90.413,86.217 L95.091,86.217 L95.091,81.566 Z M102.888889,81.5664895 L98.21,81.566 L98.21,86.217 L102.888,86.217 L102.888889,81.5664895 Z M37.391,81.566 L32.713,81.566 L32.713,86.217 L37.391,86.217 L37.391,81.566 Z M45.1890838,81.5664895 L40.51,81.566 L40.51,86.217 L45.189,86.217 L45.1890838,81.5664895 Z M39.732,27.654 L17.118,43.609 L17.118,70.713 L20.237,70.713 L20.2378168,58.3106755 C20.2378168,57.5024068 20.8595914,56.8379604 21.655163,56.7666277 L21.797271,56.7602879 L21.797271,56.7602879 L28.035,56.76 L28.0350877,48.2331562 L28.0350877,48.2331562 L28.038798,47.9380636 C28.1967882,41.6615105 33.3803209,36.6052492 39.7309942,36.6052492 C46.1808967,36.6052492 51.4269006,41.8207531 51.4269006,48.2331562 L51.4269006,48.2331562 L51.426,56.76 L57.6647173,56.7602879 L57.6647173,56.7602879 L57.8068253,56.7666277 C58.6023969,56.8379604 59.2241715,57.5024068 59.2241715,58.3106755 L59.2241715,58.3106755 L59.224,70.713 L62.343,70.713 L62.343,43.607 L39.732,27.654 Z M88.075,27.654 L65.461,43.61 L65.461,70.713 L68.58,70.713 L68.5808967,58.3106755 C68.5808967,57.5024068 69.2026713,56.8379604 69.9982429,56.7666277 L70.1403509,56.7602879 L70.1403509,56.7602879 L76.378,56.76 L76.3781676,48.2331562 L76.3781676,48.2331562 L76.3818779,47.9380636 C76.5398681,41.6615105 81.7234008,36.6052492 88.0740741,36.6052492 C94.5239766,36.6052492 99.7699805,41.8207531 99.7699805,48.2331562 L99.7699805,48.2331562 L99.769,56.76 L106.007797,56.7602879 L106.007797,56.7602879 L106.149905,56.7666277 C106.945477,56.8379604 107.567251,57.5024068 107.567251,58.3106755 L107.567251,58.3106755 L107.567,70.713 L110.686,70.713 L110.686,43.607 L88.075,27.654 Z M74.818,59.861 L71.699,59.861 L71.699,70.713 L74.818,70.713 L74.818,59.861 Z M82.615,59.861 L77.937,59.861 L77.937,70.713 L82.615,70.713 L82.615,59.861 Z M90.413,59.861 L85.734,59.861 L85.734,70.713 L90.413,70.713 L90.413,59.861 Z M98.21,59.861 L93.532,59.861 L93.532,70.713 L98.21,70.713 L98.21,59.861 Z M104.448,59.861 L101.329,59.861 L101.329,70.713 L104.448,70.713 L104.448,59.861 Z M56.105,59.861 L52.986,59.861 L52.986,70.713 L56.105,70.713 L56.105,59.861 Z M42.07,59.861 L37.391,59.861 L37.391,70.713 L42.07,70.713 L42.07,59.861 Z M49.867,59.861 L45.189,59.861 L45.189,70.713 L49.867,70.713 L49.867,59.861 Z M34.272,59.861 L29.594,59.861 L29.594,70.713 L34.272,70.713 L34.272,59.861 Z M26.475,59.861 L23.356,59.861 L23.356,70.713 L26.475,70.713 L26.475,59.861 Z M96.651,50.558 L79.497,50.558 L79.497,56.76 L96.651,56.76 L96.651,50.558 Z M48.307,50.558 L31.153,50.558 L31.153,56.76 L48.307,56.76 L48.307,50.558 Z M88.0740741,39.7060244 C83.6085479,39.7060244 79.9275225,43.1175691 79.5322186,47.457898 L96.6159296,47.457898 C96.2206257,43.1175691 92.5396002,39.7060244 88.0740741,39.7060244 Z M39.7309942,39.7060244 C35.265468,39.7060244 31.5844426,43.1175691 31.1891387,47.457898 L48.2728496,47.457898 C47.8775457,43.1175691 44.1965203,39.7060244 39.7309942,39.7060244 Z M88.076,21.452 L65.461,37.409 L65.461,39.806 L87.1711501,24.4889701 C87.1754186,24.4859685 87.1796969,24.4829911 87.183985,24.4800379 C87.2155079,24.4570561 87.2481957,24.4362014 87.2815202,24.4166477 C87.2915518,24.4120909 87.3005919,24.4069194 87.3096657,24.4018471 C87.3434066,24.3816308 87.3788325,24.3635517 87.4148251,24.346879 C87.4225118,24.3445816 87.4298608,24.3412427 87.4372268,24.3379646 C87.4711753,24.3216289 87.5058553,24.3076901 87.5409489,24.2950194 C87.55292,24.2918616 87.5646408,24.287783 87.5763924,24.2838501 C87.7061621,24.2392925 87.8415755,24.2129941 87.9785126,24.2045434 C87.9809021,24.2057986 87.98324,24.2056632 87.9855779,24.205533 C88.0267084,24.2017696 88.0679981,24.2010263 88.1093181,24.2019117 C88.1171115,24.2037016 88.1244449,24.2039242 88.1317751,24.204198 C88.4252222,24.2129294 88.7198509,24.3058985 88.9785575,24.4874197 L88.9785575,24.4874197 L110.686,39.803 L110.686,37.405 L88.076,21.452 Z M39.733,21.452 L17.118,37.408 L17.118,39.806 L38.8280702,24.4889701 C38.8323387,24.4859685 38.8366171,24.4829911 38.8409053,24.4800379 C38.872428,24.4570561 38.9051158,24.4362014 38.9384402,24.4166477 C38.9484857,24.4120909 38.9575278,24.4069194 38.9666038,24.4018471 C39.0003267,24.3816308 39.0357526,24.3635517 39.0717452,24.346879 C39.0794862,24.3445816 39.0868382,24.3412427 39.0942072,24.3379646 C39.1280954,24.3216289 39.1627753,24.3076901 39.197869,24.2950194 C39.209954,24.2918616 39.2216809,24.287783 39.2334387,24.2838501 C39.3630822,24.2392925 39.4984955,24.2129941 39.6354327,24.2045434 C39.6381928,24.2057989 39.6405275,24.2056637 39.6428623,24.2055337 C39.68383,24.201758 39.7253226,24.2010191 39.7668453,24.2019249 C39.7739182,24.2036841 39.7815689,24.2039142 39.7892161,24.2041999 C40.0833214,24.2133019 40.3772887,24.3062618 40.6354776,24.4874197 L40.6354776,24.4874197 L62.343,39.803 L62.343,37.405 L39.733,21.452 Z"/>
  </g>
</svg>
