<svg xmlns="http://www.w3.org/2000/svg" width="128" height="128" viewBox="0 0 128 128">
  <g>
    <path class="fill-primary" d="M25,54 L25,83 L10,83 L10,54 L25,54 Z M22,71 L13.42689,71 L17.5,78.528281 L22,71 Z M17.5,58 L14,65 L22,65 L17.5,58 Z"/>
    <path class="fill-gray" fill-rule="nonzero" d="M95.5,23 L32.5,23 C31.6715729,23 31,23.6715729 31,24.5 L31,111.5 C31,112.328427 31.6715729,113 32.5,113 L95.5,113 C96.3284271,113 97,112.328427 97,111.5 L97,24.5 C97,23.6715729 96.3284271,23 95.5,23 Z M62.5,110 L38.5,110 L38.5,38 L62.5,38 L62.5,110 Z M89.5,110 L65.5,110 L65.5,38 L89.5,38 L89.5,110 Z M94,26 L94,110 L92.5,110 L92.5,36.5 C92.5,35.6715729 91.8284271,35 91,35 L37,35 C36.1715729,35 35.5,35.6715729 35.5,36.5 L35.5,110 L34,110 L34,26 L94,26 Z M26.5,51.5 C27.3284271,51.5 28,52.1715729 28,53 L28,53 L28,83 C28,83.8284271 27.3284271,84.5 26.5,84.5 L26.5,84.5 L8.5,84.5 C7.67157288,84.5 7,83.8284271 7,83 L7,83 L7,53 C7,52.1715729 7.67157288,51.5 8.5,51.5 L8.5,51.5 Z M25,54.5 L10,54.5 L10,81.5 L25,81.5 L25,54.5 Z M22,69.5 C22.5405148,69.5 23.0391742,69.7910003 23.3053021,70.2614598 C23.5714301,70.7319193 23.5638651,71.309176 23.2855,71.7725 L23.2855,71.7725 L18.7855,79.2725 C18.5142465,79.7236097 18.0263824,79.9995254 17.5,79.9995254 C16.9736176,79.9995254 16.4857535,79.7236097 16.2145,79.2725 L16.2145,79.2725 L11.7145,71.7725 C11.4361349,71.309176 11.4285699,70.7319193 11.6946979,70.2614598 C11.9608258,69.7910003 12.4594852,69.5 13,69.5 L13,69.5 Z M19.351,72.5 L15.649,72.5 L17.5,75.584 L19.351,72.5 Z M17.5,56.0486837 C18.0173799,56.0486837 18.500898,56.3059289 18.79,56.735 L18.79,56.735 L23.29,64.235 C23.5648682,64.6985973 23.5698936,65.2740213 23.3031642,65.7423485 C23.0364348,66.2106757 22.5389573,66.5 22,66.5 L22,66.5 L13,66.5 C12.4610427,66.5 11.9635652,66.2106757 11.6968358,65.7423485 C11.4301064,65.2740213 11.4351318,64.6985973 11.71,64.235 L11.71,64.235 L16.21,56.735 C16.499102,56.3059289 16.9826201,56.0486837 17.5,56.0486837 Z M17.5,60.41 L15.655,63.5 L19.345,63.5 L17.5,60.41 Z"/>
  </g>
</svg>
