<svg xmlns="http://www.w3.org/2000/svg" width="128" height="128" viewBox="0 0 128 128">
  <path class="fill-gray" d="M110.129032,98.9365175 L108.354839,98.9365175 L108.354839,67.0010336 L113.677419,67.0010336 C114.657279,67.0010336 115.451613,66.2067001 115.451613,65.22684 L115.451613,59.9042594 C115.451613,58.9243994 114.657279,58.1300659 113.677419,58.1300659 L111.903226,58.1300659 L111.903226,47.4849046 L113.677419,47.4849046 C114.657279,47.4849046 115.451613,46.6905711 115.451613,45.710711 L115.451613,40.3881304 C115.451613,39.4082703 114.657279,38.6139368 113.677419,38.6139368 L58.6774194,38.6139368 L58.6774194,24.4203884 C58.678002,23.8378823 58.3926108,23.2921986 57.9138444,22.9603908 C57.4350779,22.6285829 56.8239356,22.5529265 56.2787097,22.7579691 L13.6980645,38.725711 C13.0057946,38.9860514 12.5476476,39.6485262 12.5483871,40.3881304 L12.5483871,65.22684 C12.5483871,66.2067001 13.3427206,67.0010336 14.3225806,67.0010336 L19.6451613,67.0010336 L19.6451613,98.9365175 L10.7741935,98.9365175 C9.79433351,98.9365175 9,99.730851 9,100.710711 C9,101.690571 9.79433351,102.484905 10.7741935,102.484905 L110.129032,102.484905 C111.108892,102.484905 111.903226,101.690571 111.903226,100.710711 C111.903226,99.730851 111.108892,98.9365175 110.129032,98.9365175 Z M108.354839,58.1300659 L64,58.1300659 L64,47.4849046 L108.354839,47.4849046 L108.354839,58.1300659 Z M111.903226,42.1623239 L111.903226,43.9365175 L62.2258065,43.9365175 C61.2459464,43.9365175 60.4516129,44.730851 60.4516129,45.710711 L60.4516129,59.9042594 C60.4516129,60.8841194 61.2459464,61.6784529 62.2258065,61.6784529 L111.903226,61.6784529 L111.903226,63.4526465 L58.6774194,63.4526465 L58.6774194,42.1623239 L111.903226,42.1623239 Z M16.0967742,41.6176465 L55.1290323,26.9805497 L55.1290323,63.4526465 L16.0967742,63.4526465 L16.0967742,41.6176465 Z M28.516129,98.9365175 L28.516129,74.0978078 L33.8387097,74.0978078 L33.8387097,98.9365175 L28.516129,98.9365175 Z M37.3870968,98.9365175 L37.3870968,74.0978078 L42.7096774,74.0978078 L42.7096774,98.9365175 L37.3870968,98.9365175 Z M46.2580645,98.9365175 L46.2580645,74.0978078 L51.5806452,74.0978078 L51.5806452,98.9365175 L46.2580645,98.9365175 Z M55.1290323,98.9365175 L55.1290323,74.0978078 L60.4516129,74.0978078 L60.4516129,98.9365175 L55.1290323,98.9365175 Z M64,98.9365175 L64,72.3236142 C64,71.3437542 63.2056665,70.5494207 62.2258065,70.5494207 L26.7419355,70.5494207 C25.7620754,70.5494207 24.9677419,71.3437542 24.9677419,72.3236142 L24.9677419,98.9365175 L23.1935484,98.9365175 L23.1935484,67.0010336 L104.806452,67.0010336 L104.806452,98.9365175 L64,98.9365175 Z M69.3225806,29.7429716 L81.7419355,29.7429716 C82.0561095,29.7435154 82.3638952,29.6542575 82.6290323,29.485711 C85.4626404,28.6427138 87.3090511,25.9189094 87.0427946,22.9745781 C86.7765381,20.0302467 84.4714485,17.6818633 81.5325806,17.3608723 C80.8288062,14.5506757 78.484178,12.4526333 75.6133583,12.0641777 C72.7425386,11.6757221 69.9246527,13.0752158 68.4993548,15.5973239 C64.7654262,16.0333779 62.0193375,19.3055501 62.237746,23.0585041 C62.4561544,26.8114581 65.5632767,29.7429716 69.3225806,29.7429716 Z M69.5212903,19.1261949 C70.3188849,19.1835745 71.0549153,18.6960455 71.3132258,17.9392594 C71.8699033,16.315276 73.512631,15.3257775 75.2084563,15.592964 C76.9042815,15.8601505 78.1631785,17.3068157 78.1935484,19.0232917 C78.1935484,19.08184 78.1846774,19.1421626 78.1846774,19.1882917 C78.1845687,19.7211223 78.4239378,20.2257899 78.8366322,20.5628237 C79.2493266,20.8998575 79.7916444,21.0335675 80.3137097,20.9270013 C81.095217,20.7827418 81.9006652,20.9886607 82.5170434,21.4903004 C83.1334216,21.9919401 83.4986462,22.7387737 83.5161291,23.5332917 C83.5163872,24.7981194 82.6263699,25.8883906 81.3870968,26.1413562 C81.3199612,26.1555536 81.2536305,26.1733207 81.1883871,26.194582 L69.3225806,26.194582 C67.3628606,26.2117295 65.7602928,24.6369633 65.7431452,22.6772433 C65.7259977,20.7175232 67.3007638,19.1149554 69.2604839,19.0978078 L69.5212903,19.1261949 Z M117.225806,98.9365175 L115.451613,98.9365175 C114.471753,98.9365175 113.677419,99.730851 113.677419,100.710711 C113.677419,101.690571 114.471753,102.484905 115.451613,102.484905 L117.225806,102.484905 C118.205666,102.484905 119,101.690571 119,100.710711 C119,99.730851 118.205666,98.9365175 117.225806,98.9365175 Z M101.258065,70.5494207 L69.3225806,70.5494207 C68.3427206,70.5494207 67.5483871,71.3437542 67.5483871,72.3236142 L67.5483871,90.0655497 C67.5483871,91.0454098 68.3427206,91.8397433 69.3225806,91.8397433 L101.258065,91.8397433 C102.237925,91.8397433 103.032258,91.0454098 103.032258,90.0655497 L103.032258,72.3236142 C103.032258,71.3437542 102.237925,70.5494207 101.258065,70.5494207 Z M71.0967742,88.2913562 L71.0967742,74.0978078 L78.1935484,74.0978078 L78.1935484,88.2913562 L71.0967742,88.2913562 Z M81.7419355,88.2913562 L81.7419355,74.0978078 L88.8387097,74.0978078 L88.8387097,88.2913562 L81.7419355,88.2913562 Z M99.483871,88.2913562 L92.3870968,88.2913562 L92.3870968,74.0978078 L99.483871,74.0978078 L99.483871,88.2913562 Z M51.5806452,61.6784529 C52.5605052,61.6784529 53.3548387,60.8841194 53.3548387,59.9042594 L53.3548387,45.710711 C53.3548387,44.730851 52.5605052,43.9365175 51.5806452,43.9365175 L21.4193548,43.9365175 C20.4394948,43.9365175 19.6451613,44.730851 19.6451613,45.710711 L19.6451613,59.9042594 C19.6451613,60.8841194 20.4394948,61.6784529 21.4193548,61.6784529 L51.5806452,61.6784529 Z M49.8064516,47.4849046 L49.8064516,58.1300659 L42.7096774,58.1300659 L42.7096774,47.4849046 L49.8064516,47.4849046 Z M39.1612903,47.4849046 L39.1612903,58.1300659 L33.8387097,58.1300659 L33.8387097,47.4849046 L39.1612903,47.4849046 Z M23.1935484,47.4849046 L30.2903226,47.4849046 L30.2903226,58.1300659 L23.1935484,58.1300659 L23.1935484,47.4849046 Z"/>
</svg>
