<svg xmlns="http://www.w3.org/2000/svg" width="128" height="128" viewBox="0 0 128 128">
  <g fill="none" fill-rule="evenodd" transform="translate(18 33)">
    <rect width="24" height="51" class="fill-primary" rx="12"/>
    <rect width="24" height="39" x="21" y="12" class="fill-primary" rx="12"/>
    <path class="fill-gray" fill-rule="nonzero" d="M90.203125,73.3977535 L84.6633594,73.3977535 L84.6633594,68.3967547 L87.8671875,68.3967547 C88.8596016,68.3967547 89.6640625,67.5903918 89.6640625,66.5956315 L89.6640625,57.6359439 C89.6640625,56.6411835 88.8596016,55.8348206 87.8671875,55.8348206 L82.4249922,55.8348206 L82.4249922,51.4892506 L86.0703125,51.4892506 C87.0627266,51.4892506 87.8671875,50.6828877 87.8671875,49.6881273 L87.8671875,40.7284397 C87.8671875,39.7336794 87.0627266,38.9273165 86.0703125,38.9273165 L82.4249922,38.9273165 L82.4249922,37.2104858 C82.4249922,36.2157254 81.6205312,35.4093626 80.6281172,35.4093626 C79.6357031,35.4093626 78.8312422,36.2157254 78.8312422,37.2104858 L78.8312422,38.9273165 L54.0994141,38.9273165 L54.0994141,37.2104858 C54.0994141,36.2157254 53.2949531,35.4093626 52.3025391,35.4093626 C51.310125,35.4093626 50.5056641,36.2157254 50.5056641,37.2104858 L50.5056641,38.9273165 L48.4335078,38.9273165 C48.4340469,38.8761646 48.4354844,38.8251928 48.4354844,38.7740409 C48.4354844,35.0168978 47.1230469,31.4697657 44.7136172,28.649747 C45.4706406,26.9714604 45.8664922,25.1398982 45.8664922,23.2816793 C45.8664922,16.1015015 40.0386875,10.2599185 32.8754453,10.2599185 C30.1569531,10.2599185 27.5809531,11.0880749 25.4299141,12.6017389 C25.3524687,5.63985722 19.679375,0 12.7159453,0 C5.70435937,0 0,5.71784586 0,12.7460089 L0,40.337596 C0,46.7542777 4.75542969,52.0778576 10.9188906,52.955545 L10.9188906,73.3977535 L1.796875,73.3977535 C0.804460938,73.3977535 0,74.2041164 0,75.1988768 C0,76.1936371 0.804460938,77 1.796875,77 L90.203125,77 C91.1955391,77 92,76.1936371 92,75.1988768 C92,74.2041164 91.1955391,73.3977535 90.203125,73.3977535 L90.203125,73.3977535 Z M81.0696094,73.3977535 L51.8608672,73.3977535 L51.8608672,68.3967547 L81.0696094,68.3967547 L81.0696094,73.3977535 Z M86.0703125,64.7945082 L46.8601641,64.7945082 L46.8601641,59.4370671 L86.0703125,59.4370671 L86.0703125,64.7945082 Z M78.8312422,55.8350007 L54.0994141,55.8350007 L54.0994141,51.4894307 L78.8312422,51.4894307 L78.8312422,55.8350007 Z M48.6570391,42.529563 L84.2734375,42.529563 L84.2734375,47.8870041 L48.6570391,47.8870041 L48.6570391,42.529563 Z M46.8601641,51.4892506 L50.5056641,51.4892506 L50.5056641,55.8348206 L45.0632891,55.8348206 C44.070875,55.8348206 43.2664141,56.6411835 43.2664141,57.6359439 L43.2664141,66.5956315 C43.2664141,67.5903918 44.070875,68.3967547 45.0632891,68.3967547 L48.2671172,68.3967547 L48.2671172,73.3977535 L34.6719609,73.3977535 L34.6719609,54.2664025 C38.8685625,53.7804595 42.5618594,51.6147889 45.0632891,48.4585005 L45.0632891,49.6879472 C45.0632891,50.6828877 45.86775,51.4892506 46.8601641,51.4892506 L46.8601641,51.4892506 Z M32.8752656,13.8623451 C38.0569141,13.8623451 42.2725625,18.0879603 42.2725625,23.2818594 C42.2725625,24.9579847 41.828375,26.6027705 40.9881563,28.0389861 C40.572,28.7502497 40.6907734,29.6538732 41.2765547,30.2327542 C43.5754766,32.5050513 44.8417344,35.5385031 44.8417344,38.774221 C44.8417344,44.776104 40.4210625,49.7623336 34.6721406,50.633717 L34.6721406,43.56701 L38.8559844,39.3732746 C39.5576641,38.669936 39.5576641,37.5294647 38.8559844,36.825946 C38.1543047,36.1227875 37.0165234,36.1227875 36.3146641,36.825946 L34.6719609,38.4725329 L34.6719609,34.1755931 C34.6719609,33.1808328 33.8675,32.3744699 32.8750859,32.3744699 C31.8826719,32.3744699 31.0782109,33.1808328 31.0782109,34.1755931 L31.0782109,50.635338 C28.2475937,50.2122542 25.6811172,48.79441 23.7943984,46.5871334 C24.8358672,44.7393611 25.4313516,42.6070113 25.4313516,40.337596 L25.4313516,17.532674 C27.2273281,15.199499 29.9366562,13.8623451 32.8752656,13.8623451 L32.8752656,13.8623451 Z M3.59375,40.337596 L3.59375,12.7460089 C3.59375,7.70412457 7.68577344,3.6024266 12.7157656,3.6024266 C17.7455781,3.6024266 21.8377812,7.70412457 21.8377812,12.7460089 L21.8377812,40.337596 C21.8377812,44.7629558 18.6848047,48.4631834 14.5126406,49.3021466 L14.5126406,26.5417124 C14.5126406,25.546952 13.7081797,24.7405891 12.7157656,24.7405891 C11.7233516,24.7405891 10.9188906,25.546952 10.9188906,26.5417124 L10.9188906,49.3021466 C6.74672656,48.4631834 3.59375,44.7629558 3.59375,40.337596 Z M14.5126406,52.955545 C17.2329297,52.5681234 19.6784766,51.315082 21.5623203,49.4836998 C24.0851328,52.1718763 27.4278594,53.8526845 31.0783906,54.2689241 L31.0783906,73.3977535 L14.5126406,73.3977535 L14.5126406,52.955545 Z"/>
  </g>
</svg>
