<svg xmlns="http://www.w3.org/2000/svg" width="128" height="128" viewBox="0 0 128 128">
  <g>
    <polygon class="fill-primary" points="53 49 60.563 49 62.389 76.724 51.834 76.431"/>
    <polygon class="fill-primary" points="70 49 77.563 49 79.389 76.724 68.834 76.431"/>
    <polygon class="fill-primary" points="88 49 95.563 49 97.389 76.724 86.834 76.431"/>
    <path class="fill-gray" fill-rule="nonzero" d="M117.388672,106.777344 L112.11125,106.777344 L112.11125,84.6295312 C113.165918,83.7022656 113.833438,82.344668 113.833438,80.8332422 C113.833438,78.0454297 111.565332,75.7775391 108.777734,75.7775391 L98.2359961,75.7775391 L96.608125,49.7328906 C96.5550586,48.8836133 95.8508008,48.2221094 95.0000195,48.2221094 L88.1110547,48.2221094 C87.2602734,48.2221094 86.5560156,48.8836133 86.5029492,49.7328906 L84.8750781,75.7775391 L81.0136914,75.7775391 L79.3858203,49.7328906 C79.3327539,48.8836133 78.6284961,48.2221094 77.7777148,48.2221094 L70.8889648,48.2221094 C70.0381836,48.2221094 69.3339258,48.8836133 69.2808594,49.7328906 L67.6529883,75.7775391 L63.7916016,75.7775391 L62.1637305,49.7328906 C62.1106641,48.8836133 61.4064062,48.2221094 60.555625,48.2221094 L53.666875,48.2221094 C52.8160938,48.2221094 52.1118359,48.8836133 52.0587695,49.7328906 L50.4308984,75.7775391 L45.9428125,75.7775391 L44.9446484,30.8532813 C44.9253125,29.9775781 44.209668,29.277832 43.33375,29.277832 L33.0004102,29.277832 C32.1244922,29.277832 31.4088477,29.9775781 31.3895117,30.8532813 L30.2381641,82.6665039 L17.5000781,82.6665039 C14.7122656,82.6665039 12.444375,84.9346094 12.444375,87.722207 C12.444375,89.2336328 13.1118945,90.5912305 14.1665625,91.5184961 L14.1665625,106.777344 L10.6113281,106.777344 C9.72144531,106.777344 9,107.498789 9,108.388672 C9,109.278555 9.72144531,110 10.6113281,110 L117.388672,110 C118.278555,110 119,109.278555 119,108.388672 C119,107.498789 118.278555,106.777344 117.388672,106.777344 Z M30.0845508,89.5554687 L24.3896875,89.5554687 C23.4998047,89.5554687 22.7783594,90.2769141 22.7783594,91.1667969 C22.7783594,92.0566797 23.4998047,92.778125 24.3896875,92.778125 L30.0130078,92.778125 L29.7019141,106.777344 L17.3892187,106.777344 L17.3892187,92.7751172 C17.4261719,92.7759766 17.4629102,92.7779102 17.5000781,92.7779102 C18.3899609,92.7779102 19.1114062,92.0564648 19.1114062,91.166582 C19.1114062,90.2766992 18.3899609,89.5552539 17.5000781,89.5552539 C16.4892383,89.5552539 15.6670312,88.732832 15.6670312,87.722207 C15.6670312,86.7113672 16.4894531,85.8891602 17.5000781,85.8891602 L30.1659766,85.8891602 L30.0845508,89.5554687 Z M89.6246289,51.4447656 L93.4860156,51.4447656 L95.0068945,75.7775391 L88.1039648,75.7775391 L89.6246289,51.4447656 Z M72.4025391,51.4447656 L76.2639258,51.4447656 L77.7848047,75.7775391 L70.881875,75.7775391 L72.4025391,51.4447656 Z M55.1804492,51.4447656 L59.0418359,51.4447656 L60.5625,75.7775391 L53.6595703,75.7775391 L55.1804492,51.4447656 Z M36.5556445,106.777344 L32.9256445,106.777344 L34.5758594,32.5002734 L41.7574414,32.5002734 L42.7192969,75.7775391 L39.8891602,75.7775391 C37.1013477,75.7775391 34.8332422,78.0456445 34.8332422,80.8332422 C34.8332422,82.344668 35.5007617,83.7022656 36.5556445,84.6295313 L36.5556445,106.777344 Z M108.77752,79.0001953 C109.788359,79.0001953 110.610781,79.8224023 110.610781,80.8332422 C110.610781,81.844082 109.788359,82.6662891 108.777734,82.6662891 L105.333359,82.6662891 C104.443477,82.6662891 103.722031,83.3877344 103.722031,84.2776172 C103.722031,85.1675 104.443477,85.8889453 105.333359,85.8889453 L108.777734,85.8889453 C108.814902,85.8889453 108.851641,85.8867969 108.888594,85.8861523 L108.888594,106.777344 L39.7780859,106.777344 L39.7780859,85.8861523 L39.8889453,85.8889453 L39.8889453,85.8889453 L98.4456836,85.8889453 C99.3355664,85.8889453 100.057012,85.1675 100.057012,84.2776172 C100.057012,83.3877344 99.3355664,82.6662891 98.4456836,82.6662891 L39.8889453,82.6662891 C38.8781055,82.6662891 38.0556836,81.8438672 38.0556836,80.8332422 C38.0556836,79.8226172 38.8781055,79.0001953 39.8889453,79.0001953 L108.77752,79.0001953 Z M98.4443945,0 C109.778906,0 119,9.22130859 119,20.5556055 C119,31.8899023 109.778906,41.1112109 98.4443945,41.1112109 C91.4020312,41.1112109 84.8922656,37.5134375 81.1273437,31.6320898 C79.4923828,32.2085156 77.7921094,32.5000586 76.0555273,32.5000586 C72.0098047,32.5000586 68.1471289,30.9026953 65.2761719,28.0785742 C63.7879492,28.7200977 62.178125,29.0554687 60.555625,29.0554687 C57.4320117,29.0554687 54.5054102,27.8605078 52.2944531,25.7275391 C50.9710156,26.7626562 49.3467969,27.3332812 47.6390039,27.3332812 C46.7491211,27.3332812 46.0276758,26.6118359 46.0276758,25.7219531 C46.0276758,24.8320703 46.7491211,24.110625 47.6390039,24.110625 C48.9843555,24.110625 50.2448437,23.4871484 51.0973437,22.3998242 C51.4028516,22.0103125 51.8705664,21.782793 52.3653516,21.782793 L52.3653516,21.782793 C52.8710937,21.7853711 53.339668,22.017832 53.6430273,22.4125 C55.3130078,24.5862891 57.8326953,25.8330273 60.555625,25.8330273 C62.0509375,25.8330273 63.5322852,25.4420117 64.8393945,24.7025195 C65.5077734,24.3243945 66.3503906,24.4704883 66.8522656,25.0516406 C69.1717187,27.7371875 72.5262891,29.2774023 76.0555273,29.2774023 C77.8084375,29.2774023 79.5166602,28.8999219 81.1327148,28.1554883 C81.9022852,27.8009961 82.8151562,28.1030664 83.2212109,28.8468555 C86.2657617,34.4239844 92.0989844,37.8885547 98.4443945,37.8885547 C108.001934,37.8885547 115.777344,30.1129297 115.777344,20.5556055 C115.777344,10.9982812 108.001934,3.22265625 98.4443945,3.22265625 C93.9470703,3.22265625 89.6789844,4.94914062 86.42625,8.08435547 C85.8152344,8.67324219 84.8523047,8.68720703 84.2243164,8.11658203 C81.974043,6.07148437 79.072793,4.94505859 76.0553125,4.94505859 C72.5260742,4.94505859 69.1715039,6.48527344 66.8520508,9.17082031 C66.3501758,9.7521875 65.5073437,9.89806641 64.8391797,9.51994141 C63.5320703,8.78044922 62.0507227,8.38943359 60.5554102,8.38943359 C56.6095898,8.38943359 53.147168,11.0565039 52.1354687,14.8751367 C52.0076367,15.3572461 51.6641016,15.7529883 51.2045508,15.9469922 C50.745,16.1409961 50.2214258,16.1113477 49.7872266,15.8666406 C49.0941406,15.4762695 48.3711914,15.2783984 47.6387891,15.2783984 C45.3225586,15.2783984 43.3973437,17.1015625 43.2561914,19.4289648 C43.2222461,19.9907812 42.8974023,20.4939453 42.3998242,20.7564844 C41.9020312,21.0188086 41.3034766,21.0029102 40.8205078,20.7139453 C40.5223047,20.5354102 40.2088477,20.4449609 39.8891602,20.4449609 C38.8783203,20.4449609 38.0558984,21.267168 38.0558984,22.2780078 C38.0558984,23.1678906 37.3344531,23.8893359 36.4445703,23.8893359 C35.5546875,23.8893359 34.8330273,23.1678906 34.8330273,22.277793 C34.8330273,19.4901953 37.1011328,17.2220898 39.8889453,17.2220898 C40.0683398,17.2220898 40.2475195,17.2321875 40.425625,17.2519531 C41.4480664,14.2198633 44.3104297,12.0553125 47.6390039,12.0553125 C48.3114648,12.0553125 48.9736133,12.1466211 49.620293,12.3277344 C51.4945898,8.03494141 55.7650391,5.1665625 60.555625,5.1665625 C62.178125,5.1665625 63.7879492,5.50193359 65.2761719,6.14367187 C68.1471289,3.31955078 72.0095898,1.7221875 76.0555273,1.7221875 C79.3883984,1.7221875 82.6071875,2.80542969 85.2630859,4.79832031 C88.9624805,1.69404297 93.5902148,0 98.4443945,0 Z"/>
  </g>
</svg>
