<svg xmlns="http://www.w3.org/2000/svg" width="128" height="128" viewBox="0 0 128 128">
  <path class="fill-gray" d="M112.332977,13 L85.6667176,13 C84.7458496,13 83.9996949,13.7461547 83.9996949,14.6670227 L83.9996949,54.6664123 L58.9996949,54.6664123 C58.5526123,54.6671754 58.1238402,54.847992 57.811798,55.1691895 C57.1434631,54.8426514 56.4102783,54.670227 55.6664123,54.6664123 L19.0003051,54.6664123 C16.2399902,54.6694641 14.0030518,56.9064025 14,59.6667176 L14,107.999695 C14.0030518,110.76001 16.2399902,112.996948 19.0003051,113 L55.6664123,113 C56.4102783,112.996185 57.1434631,112.823761 57.811798,112.497223 C58.1238402,112.81842 58.5526123,113 58.9996949,113 L112.332977,113 C113.253845,113 114,112.253845 114,111.332977 L114,14.6670227 C114,13.7461547 113.253845,13 112.332977,13 Z M60.6667176,57.9996949 L83.9996949,57.9996949 L83.9996949,68.0003051 L73.9998475,68.0003051 L73.9998475,66.3332824 C73.9998475,65.4131775 73.2536926,64.6670227 72.3335877,64.6670227 C71.4127197,64.6670227 70.6665648,65.4131775 70.6665648,66.3332824 L70.6665648,68.0003051 L60.6667176,68.0003051 L60.6667176,57.9996949 Z M17.3332824,59.6667176 C17.3348084,58.7466125 18.0802002,58.0012207 19.0003051,57.9996949 L55.6664123,57.9996949 C56.5865174,58.0012207 57.3319092,58.7466125 57.3334352,59.6667176 L57.3334352,64.6670227 L17.3332824,64.6670227 L17.3332824,59.6667176 Z M55.6664123,109.666718 L52.3331299,109.666718 L52.3331299,103.000153 C52.3331299,102.079285 51.586975,101.33313 50.6668701,101.33313 C49.7460021,101.33313 48.9998475,102.079285 48.9998475,103.000153 L48.9998475,109.666718 L45.6665648,109.666718 L45.6665648,103.000153 C45.6665648,102.079285 44.9204102,101.33313 44.0003051,101.33313 C43.0794373,101.33313 42.3332824,102.079285 42.3332824,103.000153 L42.3332824,109.666718 L39,109.666718 L39,103.000153 C39,102.079285 38.2538453,101.33313 37.3329773,101.33313 C36.4128723,101.33313 35.6667176,102.079285 35.6667176,103.000153 L35.6667176,109.666718 L32.3334352,109.666718 L32.3334352,103.000153 C32.3334352,102.079285 31.5872803,101.33313 30.6664123,101.33313 C29.7463074,101.33313 29.0001525,102.079285 29.0001525,103.000153 L29.0001525,109.666718 L25.6668701,109.666718 L25.6668701,103.000153 C25.6668701,102.079285 24.9207152,101.33313 23.9998475,101.33313 C23.0797424,101.33313 22.3335877,102.079285 22.3335877,103.000153 L22.3335877,109.666718 L19.0003051,109.666718 C18.0802002,109.665192 17.3348084,108.9198 17.3332824,107.999695 L17.3332824,68.0003051 L57.3334352,68.0003051 L57.3334352,107.999695 C57.3319092,108.9198 56.5865174,109.665192 55.6664123,109.666718 L55.6664123,109.666718 Z M60.6667176,107.999695 L60.6667176,71.3335877 L83.9996949,71.3335877 L83.9996949,109.666718 L60.6667176,109.666718 L60.6667176,107.999695 Z M110.666718,109.666718 L87.3329773,109.666718 L87.3329773,16.3332824 L110.666718,16.3332824 L110.666718,109.666718 Z M79.0001525,84.6667176 C78.0792848,84.6667176 77.3331299,85.4128723 77.3331299,86.3329773 L77.3331299,89.6670227 C77.3331299,90.5871277 78.0792848,91.3332824 79.0001525,91.3332824 C79.9202576,91.3332824 80.6664123,90.5871277 80.6664123,89.6670227 L80.6664123,86.3329773 C80.6664123,85.4128723 79.9202576,84.6667176 79.0001525,84.6667176 L79.0001525,84.6667176 Z M105.666412,54.6664123 C104.746307,54.6664123 104.000153,55.4125672 104.000153,56.3334352 L104.000153,59.6667176 C104.000153,60.5868225 104.746307,61.3329773 105.666412,61.3329773 C106.58728,61.3329773 107.333435,60.5868225 107.333435,59.6667176 L107.333435,56.3334352 C107.333435,55.4125672 106.58728,54.6664123 105.666412,54.6664123 Z M92.3332824,22.9998475 L105.666412,22.9998475 C106.58728,22.9998475 107.333435,22.2536926 107.333435,21.3335877 C107.333435,20.4127197 106.58728,19.6665648 105.666412,19.6665648 L92.3332824,19.6665648 C91.4131775,19.6665648 90.6670227,20.4127197 90.6670227,21.3335877 C90.6670227,22.2536926 91.4131775,22.9998475 92.3332824,22.9998475 Z M92.3332824,106.333435 L105.666412,106.333435 C106.58728,106.333435 107.333435,105.58728 107.333435,104.666412 C107.333435,103.746307 106.58728,103.000153 105.666412,103.000153 L92.3332824,103.000153 C91.4131775,103.000153 90.6670227,103.746307 90.6670227,104.666412 C90.6670227,105.58728 91.4131775,106.333435 92.3332824,106.333435 Z M79.0001525,103.000153 L65.6670227,103.000153 C64.7461547,103.000153 64,103.746307 64,104.666412 C64,105.58728 64.7461547,106.333435 65.6670227,106.333435 L79.0001525,106.333435 C79.9202576,106.333435 80.6664123,105.58728 80.6664123,104.666412 C80.6664123,103.746307 79.9202576,103.000153 79.0001525,103.000153 Z M79.0001525,74.6668701 L65.6670227,74.6668701 C64.7461547,74.6668701 64,75.413025 64,76.3331299 C64,77.2539979 64.7461547,78.0001525 65.6670227,78.0001525 L79.0001525,78.0001525 C79.9202576,78.0001525 80.6664123,77.2539979 80.6664123,76.3331299 C80.6664123,75.413025 79.9202576,74.6668701 79.0001525,74.6668701 Z M29.0001525,78.0001525 C28.0792848,78.0001525 27.3331299,78.7463074 27.3331299,79.6664123 L27.3331299,81.3334352 C27.3331299,82.25354 28.0792848,82.9996949 29.0001525,82.9996949 C29.9202576,82.9996949 30.6664123,82.25354 30.6664123,81.3334352 L30.6664123,79.6664123 C30.6664123,78.7463074 29.9202576,78.0001525 29.0001525,78.0001525 Z M48.9998475,71.3335877 C51.6875224,71.3365591 53.8790047,73.4566679 53.9953017,76.1163304 L54.0001525,76.3331299 L54.0001525,93.0003051 C53.9971811,95.6872374 51.8763489,97.8787002 49.2166485,97.9949967 L48.9998475,97.9998475 L25.6668701,97.9998475 C22.9791949,97.996876 20.7877128,95.8760438 20.6714157,93.2170475 L20.6665648,93.0003051 L20.6665648,76.3331299 C20.6695365,73.6454547 22.7903685,71.4546959 25.450069,71.3384369 L25.6668701,71.3335877 L48.9998475,71.3335877 Z M48.9998475,74.6668701 L25.6668701,74.6668701 C24.7951918,74.6675929 24.0803195,75.3366254 24.0061871,76.1893852 L23.9998475,76.3331299 L23.9998475,93.0003051 C24.0012929,93.8712608 24.6703635,94.5867796 25.5231253,94.6603334 L25.6668701,94.6665648 L48.9998475,94.6665648 C49.8715258,94.6658421 50.5863979,93.9961251 50.6605304,93.1439417 L50.6668701,93.0003051 L50.6668701,76.3331299 C50.6653441,75.413025 49.9199523,74.667633 48.9998475,74.6668701 Z M29.0001525,86.3329773 C29.9202576,86.3329773 30.6664123,87.0798949 30.6664123,88 L30.6664123,88 L30.6664123,89.6670227 C30.6664123,90.5871277 29.9202576,91.3332824 29.0001525,91.3332824 C28.0792848,91.3332824 27.3331299,90.5871277 27.3331299,89.6670227 L27.3331299,89.6670227 L27.3331299,88 C27.3331299,87.0798949 28.0792848,86.3329773 29.0001525,86.3329773 Z M23.9998475,59.6667176 C24.9207152,59.6667176 25.6668701,60.4128723 25.6668701,61.3329773 C25.6668701,62.2538453 24.9207152,63 23.9998475,63 C23.0797424,63 22.3335877,62.2538453 22.3335877,61.3329773 C22.3335877,60.4128723 23.0797424,59.6667176 23.9998475,59.6667176 Z M30.6664123,59.6667176 C31.5872803,59.6667176 32.3334352,60.4128723 32.3334352,61.3329773 C32.3334352,62.2538453 31.5872803,63 30.6664123,63 C29.7463074,63 29.0001525,62.2538453 29.0001525,61.3329773 C29.0001525,60.4128723 29.7463074,59.6667176 30.6664123,59.6667176 Z M44.0003051,59.6667176 C44.9204102,59.6667176 45.6665648,60.4128723 45.6665648,61.3329773 C45.6665648,62.2538453 44.9204102,63 44.0003051,63 C43.0794373,63 42.3332824,62.2538453 42.3332824,61.3329773 C42.3332824,60.4128723 43.0794373,59.6667176 44.0003051,59.6667176 Z M50.6668701,59.6667176 C51.586975,59.6667176 52.3331299,60.4128723 52.3331299,61.3329773 C52.3331299,62.2538453 51.586975,63 50.6668701,63 C49.7460021,63 48.9998475,62.2538453 48.9998475,61.3329773 C48.9998475,60.4128723 49.7460021,59.6667176 50.6668701,59.6667176 Z M45.6665648,13 C46.5874328,13 47.3335877,13.7461547 47.3335877,14.6670227 L47.3335877,14.6670227 L47.3335877,20.5668336 L58.418335,30.0677186 C58.9478148,30.5216676 59.1385498,31.257141 58.896698,31.9117432 C58.6548461,32.5655822 58.0307617,33.0004578 57.3334352,32.9996959 L57.3334352,32.9996959 L17.3332824,32.9996959 C16.6359559,33.0004578 16.0118713,32.5655822 15.7700195,31.9117432 C15.5281678,31.257141 15.7189025,30.5216676 16.2483826,30.0677186 L16.2483826,30.0677186 L27.3331299,20.5668336 L27.3331299,14.6670227 C27.3331299,13.7461547 28.0792848,13 29.0001525,13 L29.0001525,13 Z M45.0501098,22.9998475 L29.6166076,22.9998475 L21.8384398,29.6664123 L52.8282775,29.6664123 L45.0501098,22.9998475 Z M44.0003051,16.3332824 L30.6664123,16.3332824 L30.6664123,19.6665648 L44.0003051,19.6665648 L44.0003051,16.3332824 Z"/>
</svg>
