<svg xmlns="http://www.w3.org/2000/svg" width="128" height="128" viewBox="0 0 128 128">
  <g fill-rule="evenodd">
    <path class="fill-primary" d="M48.4652344,31.4112968 L50.7227063,38.2597925 L112,38.2597925 L112,47.737866 L103.711755,47.737866 L103.711755,73.9878866 L14,73.9878866 L15,42 L48.4652344,31.4112968 Z M44,56 L22,56 L22,72 L44,72 L44,56 Z"/>
    <path class="fill-gray" fill-rule="nonzero" d="M112.535156,49.2939588 C113.344141,49.2939588 114,48.6362062 114,47.8248866 L114,38.2420309 C114,37.4307113 113.344141,36.7729588 112.535156,36.7729588 C112.535156,36.7729588 69.4642578,36.7729588 69.3859375,36.7729588 C67.4978516,36.7729588 67.4941406,39.7111031 69.3857422,39.7111031 L111.070312,39.7111031 L111.070312,46.3558144 L59.4855469,46.3558144 C58.6765625,46.3558144 58.0207031,47.013567 58.0207031,47.8248866 L58.0207031,72.5188144 C58.0207031,73.330134 58.6765625,73.9878866 59.4855469,73.9878866 L111.070312,73.9878866 L111.070312,101.911031 L104.444727,101.911031 L104.444727,82.1016701 C104.444727,81.2903505 103.788867,80.6325979 102.979883,80.6325979 L59.4855469,80.6325979 C58.6765625,80.6325979 58.0207031,81.2903505 58.0207031,82.1016701 L58.0207031,101.911031 L51.3951172,101.911031 L51.3951172,39.7109072 C51.3951172,39.7109072 63.4992187,39.7109072 63.5263672,39.7109072 C65.4099609,39.7109072 65.4220703,36.7727629 63.5263672,36.7727629 L51.3949219,36.7727629 C51.3949219,36.7727629 51.3949219,30.6291031 51.3949219,30.618134 C51.3949219,29.6209278 50.3828125,28.9016701 49.4443359,29.2321134 L14.9791016,41.3793814 C14.3925781,41.5862268 14,42.1419278 14,42.7655979 L14,103.380103 C14,104.191423 14.6558594,104.849175 15.4648438,104.849175 L112.535156,104.849175 C113.344141,104.849175 114,104.191423 114,103.380103 L114,72.5188144 C114,71.7074948 113.344141,71.0497423 112.535156,71.0497423 L104.444727,71.0497423 L104.444727,49.2939588 L112.535156,49.2939588 Z M36.2263672,101.911031 L29.1689453,101.911031 L29.1689453,86.1762887 L36.2263672,86.1762887 L36.2263672,101.911031 Z M42.2978516,101.911031 L39.1558594,101.911031 L39.1558594,84.7072165 C39.1558594,83.8958969 38.5,83.2381443 37.6910156,83.2381443 L27.7041016,83.2381443 C26.8951172,83.2381443 26.2392578,83.8958969 26.2392578,84.7072165 L26.2392578,101.911031 L23.0970703,101.911031 L23.0970703,80.4194845 L42.2978516,80.4194845 L42.2978516,101.911031 Z M48.4652344,101.911031 L45.2275391,101.911031 L45.2275391,78.9504124 C45.2275391,78.1390928 44.5716797,77.4813402 43.7626953,77.4813402 L21.6322266,77.4813402 C20.8232422,77.4813402 20.1673828,78.1390928 20.1673828,78.9504124 L20.1673828,101.911031 L16.9296875,101.911031 L16.9296875,43.8062887 L48.4652344,32.6914845 L48.4652344,101.911031 Z M101.515039,101.911031 L60.9503906,101.911031 L60.9503906,97.7564948 L101.515039,97.7564948 L101.515039,101.911031 Z M101.515039,94.8183505 L60.9503906,94.8183505 L60.9503906,90.6636186 L101.515039,90.6636186 L101.515039,94.8183505 Z M101.515039,87.7252784 L60.9503906,87.7252784 L60.9503906,83.5707423 L101.515039,83.5707423 L101.515039,87.7252784 Z M72.51875,71.0497423 L60.9503906,71.0497423 L60.9503906,49.2939588 L72.51875,49.2939588 L72.51875,71.0497423 Z M87.0169922,71.0497423 L75.4486328,71.0497423 L75.4486328,49.2939588 L87.0169922,49.2939588 L87.0169922,71.0497423 Z M43.7626953,54.4218041 C44.5716797,54.4218041 45.2275391,55.0795567 45.2275391,55.8908763 L45.2275391,55.8908763 L45.2275391,72.5188144 C45.2275391,73.330134 44.5716797,73.9878866 43.7626953,73.9878866 L43.7626953,73.9878866 L21.6322266,73.9878866 C20.8232422,73.9878866 20.1673828,73.330134 20.1673828,72.5188144 L20.1673828,72.5188144 L20.1673828,55.8908763 C20.1673828,55.0795567 20.8232422,54.4218041 21.6322266,54.4218041 L21.6322266,54.4218041 Z M101.515039,49.2939588 L101.515039,71.0497423 L89.9466797,71.0497423 L89.9466797,49.2939588 L101.515039,49.2939588 Z M31.2326172,57.3599485 L23.0970703,57.3599485 L23.0970703,71.0497423 L31.2326172,71.0497423 L31.2326172,57.3599485 Z M42.2978516,57.3599485 L34.1623047,57.3599485 L34.1623047,71.0497423 L42.2978516,71.0497423 L42.2978516,57.3599485 Z"/>
  </g>
</svg>
