<svg xmlns="http://www.w3.org/2000/svg" width="128" height="128" viewBox="0 0 128 128">
  <g>
    <g class="fill-primary" transform="translate(52 21)">
      <polygon points="25.563 6.301 26.955 .625 53.457 88 50.593 88"/>
      <polygon points="13.059 44.813 14.883 40.375 29.462 88 26.599 88"/>
      <polygon points="3.476 .625 3.753 4.295 .126 8.508 6.36 10.439 10.903 24.87 10.43 28.009 8.22 28.009 .003 9 1.2 4.009"/>
    </g>
    <path class="fill-gray" fill-rule="nonzero" d="M19.0585,110.281 C19.0465,110.356 19.015,110.422 19.015,110.5 C19.015,110.527 19.0285,110.548 19.03,110.575 C19.036,110.6815 19.0645,110.782 19.093,110.8825 C19.117,110.9725 19.132,111.0595 19.171,111.1405 C19.2115,111.2275 19.2715,111.298 19.3285,111.3745 C19.387,111.454 19.438,111.532 19.51,111.598 C19.5745,111.658 19.654,111.697 19.729,111.7465 C19.8205,111.8035 19.906,111.8605 20.008,111.898 C20.0335,111.907 20.05,111.928 20.0755,111.934 C20.221,111.979 20.3695,112 20.515,112 L26.515,112 C26.6995,112 26.8765,111.958 27.046,111.8935 C27.1015,111.871 27.1495,111.841 27.202,111.8125 C27.3085,111.757 27.406,111.694 27.4945,111.6145 C27.544,111.5725 27.589,111.5275 27.631,111.478 C27.706,111.3925 27.7675,111.298 27.823,111.1945 C27.8545,111.136 27.8875,111.0805 27.9115,111.0175 C27.922,110.989 27.9415,110.968 27.949,110.9395 L34.0585,91 L48.913,91 L43.075,110.0605 C43.0525,110.134 43.0645,110.2075 43.0525,110.281 C43.0405,110.3545 43.009,110.422 43.009,110.5 C43.009,110.527 43.0225,110.548 43.024,110.575 C43.03,110.6815 43.0585,110.782 43.087,110.8825 C43.111,110.9725 43.126,111.0595 43.165,111.1405 C43.2055,111.2275 43.2655,111.298 43.3225,111.3745 C43.381,111.454 43.432,111.532 43.504,111.598 C43.5685,111.658 43.648,111.697 43.723,111.7465 C43.8145,111.8035 43.9,111.8605 44.002,111.898 C44.0275,111.907 44.044,111.928 44.0695,111.934 C44.2165,111.979 44.3635,112 44.509,112 L50.509,112 C50.6935,112 50.8705,111.958 51.04,111.8935 C51.0955,111.871 51.1435,111.841 51.196,111.8125 C51.3025,111.757 51.4,111.694 51.4885,111.6145 C51.538,111.5725 51.583,111.5275 51.625,111.478 C51.7,111.3925 51.7615,111.298 51.817,111.1945 C51.8485,111.136 51.8815,111.0805 51.9055,111.0175 C51.916,110.989 51.9355,110.968 51.943,110.9395 L58.051,91 L69.952,91 L76.06,110.9395 C76.069,110.9695 76.0885,110.989 76.0975,111.0175 C76.1215,111.0805 76.1545,111.136 76.186,111.1945 C76.2415,111.298 76.303,111.394 76.378,111.478 C76.42,111.5275 76.465,111.5725 76.5145,111.6145 C76.6045,111.694 76.702,111.757 76.807,111.8125 C76.8595,111.841 76.9075,111.871 76.963,111.8935 C77.1325,111.958 77.3095,112 77.494,112 L83.494,112 C83.6395,112 83.7865,111.979 83.9335,111.934 C83.959,111.9265 83.9755,111.9055 84.001,111.898 C84.1015,111.862 84.1885,111.8035 84.28,111.7465 C84.3565,111.6985 84.436,111.658 84.499,111.598 C84.571,111.532 84.622,111.4525 84.6805,111.3745 C84.7375,111.2965 84.7975,111.226 84.838,111.1405 C84.8755,111.0595 84.892,110.971 84.916,110.8825 C84.9445,110.7805 84.973,110.6815 84.979,110.575 C84.9805,110.548 84.994,110.527 84.994,110.5 C84.994,110.422 84.9625,110.3545 84.9505,110.281 C84.9385,110.2075 84.9505,110.134 84.928,110.062 L83.2255,104.5075 L98.08,104.5075 L100.0495,110.941 C100.0585,110.971 100.078,110.9905 100.087,111.019 C100.111,111.082 100.144,111.1375 100.1755,111.196 C100.231,111.2995 100.2925,111.3955 100.3675,111.4795 C100.4095,111.529 100.4545,111.574 100.504,111.616 C100.594,111.6955 100.6915,111.7585 100.7965,111.814 C100.849,111.8425 100.897,111.8725 100.9525,111.895 C101.1235,111.958 101.3005,112 101.485,112 L107.485,112 C107.6305,112 107.7775,111.979 107.9245,111.934 C107.95,111.9265 107.9665,111.9055 107.992,111.898 C108.0925,111.862 108.1795,111.8035 108.271,111.7465 C108.3475,111.6985 108.427,111.658 108.49,111.598 C108.562,111.532 108.613,111.4525 108.6715,111.3745 C108.7285,111.2965 108.7885,111.226 108.829,111.1405 C108.8665,111.0595 108.883,110.971 108.907,110.8825 C108.9355,110.7805 108.964,110.6815 108.97,110.575 C108.9715,110.548 108.985,110.527 108.985,110.5 C108.985,110.422 108.9535,110.3545 108.9415,110.281 C108.9295,110.2075 108.9415,110.134 108.919,110.062 L80.428,17.062 C80.4205,17.0365 80.3995,17.02 80.392,16.9945 C80.356,16.894 80.299,16.8085 80.242,16.7185 C80.194,16.639 80.152,16.561 80.0905,16.4935 C80.029,16.426 79.954,16.3795 79.8805,16.324 C79.7965,16.261 79.7215,16.198 79.6285,16.1545 C79.555,16.12 79.4755,16.1065 79.3975,16.084 C79.288,16.0525 79.1785,16.021 79.0615,16.015 C79.0375,16.0135 79.0195,16 78.994,16 L72.994,16 C72.9685,16 72.9505,16.0135 72.925,16.0135 C72.8455,16.018 72.772,16.036 72.6955,16.051 C72.649,16.0615 72.601,16.051 72.5545,16.066 C72.529,16.0735 72.5125,16.0945 72.4885,16.102 C72.442,16.1185 72.397,16.1335 72.352,16.156 C72.2875,16.1875 72.235,16.231 72.175,16.27 C72.1105,16.312 72.0445,16.3495 71.989,16.4005 C71.953,16.432 71.9215,16.4665 71.89,16.5025 C71.851,16.546 71.8225,16.5985 71.7895,16.648 C71.74,16.7185 71.6875,16.7815 71.65,16.8595 C71.626,16.9075 71.6125,16.9585 71.593,17.011 C71.587,17.0305 71.572,17.0425 71.566,17.0605 L69.1315,25.009 L58.8715,25.009 L56.437,17.0605 C56.4295,17.035 56.4085,17.0185 56.401,16.993 C56.365,16.8925 56.308,16.807 56.251,16.7155 C56.203,16.6375 56.161,16.5595 56.0995,16.4935 C56.0365,16.4245 55.9615,16.3765 55.8865,16.321 C55.804,16.2595 55.7305,16.1965 55.6375,16.153 C55.564,16.1185 55.483,16.105 55.405,16.0825 C55.2955,16.051 55.1875,16.0195 55.0705,16.0135 C55.0465,16.0135 55.0285,16 55.003,16 L49.003,16 C48.9775,16 48.958,16.0135 48.934,16.015 C48.8515,16.018 48.778,16.036 48.7,16.051 C48.655,16.0615 48.6085,16.051 48.5635,16.066 C48.538,16.0735 48.5215,16.0945 48.4975,16.102 C48.451,16.1185 48.4075,16.1335 48.364,16.1545 C48.295,16.186 48.238,16.2325 48.175,16.276 C48.1135,16.3165 48.0505,16.3525 47.998,16.4005 C47.9635,16.432 47.9335,16.4635 47.9035,16.4965 C47.8585,16.546 47.8255,16.603 47.788,16.6585 C47.743,16.7245 47.6935,16.7845 47.659,16.858 C47.6365,16.9045 47.6215,16.9525 47.605,17.0005 C47.596,17.023 47.5795,17.0365 47.5735,17.059 L19.0825,110.059 C19.0585,110.134 19.0705,110.2075 19.0585,110.281 L19.0585,110.281 Z M53.8945,19 L56.3095,26.884 C56.3335,26.977 56.35,27.0685 56.392,27.1525 L57.685,31.3735 C57.7105,31.4695 57.727,31.564 57.7705,31.6525 L81.466,109 L78.604,109 L51.031,19 L53.8945,19 Z M77.8855,19 L105.457,109 L102.595,109 L75.0235,19 L77.8855,19 Z M75.874,80.506 L90.727,80.506 L95.7835,97.009 L80.929,97.009 L75.874,80.506 Z M76.0225,32.506 L81.079,49.009 L70.915,49.009 L75.9715,32.506 L76.0225,32.506 Z M81.997,52.009 L82.456,53.506 L67.603,53.506 L67.144,52.009 L81.997,52.009 Z M83.3755,56.506 L88.4305,73.009 L73.5775,73.009 L68.5225,56.506 L83.3755,56.506 Z M74.4955,76.009 L89.35,76.009 L89.809,77.506 L74.9545,77.506 L74.4955,76.009 Z M67.78,49.009 L66.226,49.009 L65.5705,46.87 L69.9745,32.506 L72.835,32.506 L67.78,49.009 Z M64.0015,41.752 L61.168,32.506 L66.835,32.506 L64.0015,41.752 Z M62.4325,66.457 L55.834,88 L52.9705,88 L61.0015,61.783 L62.4325,66.457 Z M49.0045,22.6255 L50.437,27.301 L25.4065,109 L22.543,109 L49.0045,22.6255 Z M34.9765,88 L52.006,32.4205 L59.4325,56.6635 L49.8325,88 L34.9765,88 Z M49.4005,109 L46.5385,109 L52.0525,91 L54.9145,91 L49.4005,109 Z M58.969,88 L64,71.578 L69.031,88 L58.969,88 Z M82.3075,101.506 L81.8485,100.009 L96.7015,100.009 L97.1605,101.506 L82.3075,101.506 Z M72.997,22.63 L73.726,25.009 L72.268,25.009 L72.997,22.63 Z M74.6455,28.009 L75.1045,29.506 L60.25,29.506 L59.791,28.009 L74.6455,28.009 Z" transform="matrix(-1 0 0 1 128 0)"/>
  </g>
</svg>
