<svg xmlns="http://www.w3.org/2000/svg" width="128" height="128" viewBox="0 0 128 128">
  <g>
    <g class="fill-primary" transform="translate(39.527 25)">
      <polygon points="24.747 6.008 26.458 .625 52.93 87 50.067 87"/>
      <polygon points="12.675 44.5 14.472 39.783 28.935 87 26.073 87"/>
      <polygon points="2.476 .625 3.226 3.009 0 7.508 4.951 7.508 9.903 24.87 9.225 27.009 7.693 27.009 0 7.508 .673 6.008"/>
    </g>
    <path class="fill-gray" fill-rule="nonzero" d="M6.0585,113.281 C6.0465,113.356 6.015,113.422 6.015,113.5 C6.015,113.527 6.0285,113.548 6.03,113.575 C6.036,113.6815 6.0645,113.782 6.093,113.8825 C6.117,113.9725 6.132,114.0595 6.171,114.1405 C6.2115,114.2275 6.2715,114.298 6.3285,114.3745 C6.387,114.454 6.438,114.532 6.51,114.598 C6.5745,114.658 6.654,114.697 6.729,114.7465 C6.8205,114.8035 6.906,114.8605 7.008,114.898 C7.0335,114.907 7.05,114.928 7.0755,114.934 C7.221,114.979 7.3695,115 7.515,115 L13.515,115 C13.6995,115 13.8765,114.958 14.046,114.8935 C14.1015,114.871 14.1495,114.841 14.202,114.8125 C14.3085,114.757 14.406,114.694 14.4945,114.6145 C14.544,114.5725 14.589,114.5275 14.631,114.478 C14.706,114.3925 14.7675,114.298 14.823,114.1945 C14.8545,114.136 14.8875,114.0805 14.9115,114.0175 C14.922,113.989 14.9415,113.968 14.949,113.9395 L21.0585,94 L35.913,94 L30.075,113.0605 C30.0525,113.134 30.0645,113.2075 30.0525,113.281 C30.0405,113.3545 30.009,113.422 30.009,113.5 C30.009,113.527 30.0225,113.548 30.024,113.575 C30.03,113.6815 30.0585,113.782 30.087,113.8825 C30.111,113.9725 30.126,114.0595 30.165,114.1405 C30.2055,114.2275 30.2655,114.298 30.3225,114.3745 C30.381,114.454 30.432,114.532 30.504,114.598 C30.5685,114.658 30.648,114.697 30.723,114.7465 C30.8145,114.8035 30.9,114.8605 31.002,114.898 C31.0275,114.907 31.044,114.928 31.0695,114.934 C31.2165,114.979 31.3635,115 31.509,115 L37.509,115 C37.6935,115 37.8705,114.958 38.04,114.8935 C38.0955,114.871 38.1435,114.841 38.196,114.8125 C38.3025,114.757 38.4,114.694 38.4885,114.6145 C38.538,114.5725 38.583,114.5275 38.625,114.478 C38.7,114.3925 38.7615,114.298 38.817,114.1945 C38.8485,114.136 38.8815,114.0805 38.9055,114.0175 C38.916,113.989 38.9355,113.968 38.943,113.9395 L45.051,94 L56.952,94 L63.06,113.9395 C63.069,113.9695 63.0885,113.989 63.0975,114.0175 C63.1215,114.0805 63.1545,114.136 63.186,114.1945 C63.2415,114.298 63.303,114.394 63.378,114.478 C63.42,114.5275 63.465,114.5725 63.5145,114.6145 C63.6045,114.694 63.702,114.757 63.807,114.8125 C63.8595,114.841 63.9075,114.871 63.963,114.8935 C64.1325,114.958 64.3095,115 64.494,115 L70.494,115 C70.6395,115 70.7865,114.979 70.9335,114.934 C70.959,114.9265 70.9755,114.9055 71.001,114.898 C71.1015,114.862 71.1885,114.8035 71.28,114.7465 C71.3565,114.6985 71.436,114.658 71.499,114.598 C71.571,114.532 71.622,114.4525 71.6805,114.3745 C71.7375,114.2965 71.7975,114.226 71.838,114.1405 C71.8755,114.0595 71.892,113.971 71.916,113.8825 C71.9445,113.7805 71.973,113.6815 71.979,113.575 C71.9805,113.548 71.994,113.527 71.994,113.5 C71.994,113.422 71.9625,113.3545 71.9505,113.281 C71.9385,113.2075 71.9505,113.134 71.928,113.062 L70.2255,107.5075 L85.08,107.5075 L87.0495,113.941 C87.0585,113.971 87.078,113.9905 87.087,114.019 C87.111,114.082 87.144,114.1375 87.1755,114.196 C87.231,114.2995 87.2925,114.3955 87.3675,114.4795 C87.4095,114.529 87.4545,114.574 87.504,114.616 C87.594,114.6955 87.6915,114.7585 87.7965,114.814 C87.849,114.8425 87.897,114.8725 87.9525,114.895 C88.1235,114.958 88.3005,115 88.485,115 L94.485,115 C94.6305,115 94.7775,114.979 94.9245,114.934 C94.95,114.9265 94.9665,114.9055 94.992,114.898 C95.0925,114.862 95.1795,114.8035 95.271,114.7465 C95.3475,114.6985 95.427,114.658 95.49,114.598 C95.562,114.532 95.613,114.4525 95.6715,114.3745 C95.7285,114.2965 95.7885,114.226 95.829,114.1405 C95.8665,114.0595 95.883,113.971 95.907,113.8825 C95.9355,113.7805 95.964,113.6815 95.97,113.575 C95.9715,113.548 95.985,113.527 95.985,113.5 C95.985,113.422 95.9535,113.3545 95.9415,113.281 C95.9295,113.2075 95.9415,113.134 95.919,113.062 L67.428,20.062 C67.4205,20.0365 67.3995,20.02 67.392,19.9945 C67.356,19.894 67.299,19.8085 67.242,19.7185 C67.194,19.639 67.152,19.561 67.0905,19.4935 C67.029,19.426 66.954,19.3795 66.8805,19.324 C66.7965,19.261 66.7215,19.198 66.6285,19.1545 C66.555,19.12 66.4755,19.1065 66.3975,19.084 C66.288,19.0525 66.1785,19.021 66.0615,19.015 C66.0375,19.0135 66.0195,19 65.994,19 L59.994,19 C59.9685,19 59.9505,19.0135 59.925,19.0135 C59.8455,19.018 59.772,19.036 59.6955,19.051 C59.649,19.0615 59.601,19.051 59.5545,19.066 C59.529,19.0735 59.5125,19.0945 59.4885,19.102 C59.442,19.1185 59.397,19.1335 59.352,19.156 C59.2875,19.1875 59.235,19.231 59.175,19.27 C59.1105,19.312 59.0445,19.3495 58.989,19.4005 C58.953,19.432 58.9215,19.4665 58.89,19.5025 C58.851,19.546 58.8225,19.5985 58.7895,19.648 C58.74,19.7185 58.6875,19.7815 58.65,19.8595 C58.626,19.9075 58.6125,19.9585 58.593,20.011 C58.587,20.0305 58.572,20.0425 58.566,20.0605 L56.1315,28.009 L45.8715,28.009 L43.437,20.0605 C43.4295,20.035 43.4085,20.0185 43.401,19.993 C43.365,19.8925 43.308,19.807 43.251,19.7155 C43.203,19.6375 43.161,19.5595 43.0995,19.4935 C43.0365,19.4245 42.9615,19.3765 42.8865,19.321 C42.804,19.2595 42.7305,19.1965 42.6375,19.153 C42.564,19.1185 42.483,19.105 42.405,19.0825 C42.2955,19.051 42.1875,19.0195 42.0705,19.0135 C42.0465,19.0135 42.0285,19 42.003,19 L36.003,19 C35.9775,19 35.958,19.0135 35.934,19.015 C35.8515,19.018 35.778,19.036 35.7,19.051 C35.655,19.0615 35.6085,19.051 35.5635,19.066 C35.538,19.0735 35.5215,19.0945 35.4975,19.102 C35.451,19.1185 35.4075,19.1335 35.364,19.1545 C35.295,19.186 35.238,19.2325 35.175,19.276 C35.1135,19.3165 35.0505,19.3525 34.998,19.4005 C34.9635,19.432 34.9335,19.4635 34.9035,19.4965 C34.8585,19.546 34.8255,19.603 34.788,19.6585 C34.743,19.7245 34.6935,19.7845 34.659,19.858 C34.6365,19.9045 34.6215,19.9525 34.605,20.0005 C34.596,20.023 34.5795,20.0365 34.5735,20.059 L6.0825,113.059 C6.0585,113.134 6.0705,113.2075 6.0585,113.281 L6.0585,113.281 Z M40.8945,22 L43.3095,29.884 C43.3335,29.977 43.35,30.0685 43.392,30.1525 L44.685,34.3735 C44.7105,34.4695 44.727,34.564 44.7705,34.6525 L68.466,112 L65.604,112 L38.031,22 L40.8945,22 Z M64.8855,22 L92.457,112 L89.595,112 L62.0235,22 L64.8855,22 Z M62.874,83.506 L77.727,83.506 L82.7835,100.009 L67.929,100.009 L62.874,83.506 Z M63.0225,35.506 L68.079,52.009 L57.915,52.009 L62.9715,35.506 L63.0225,35.506 Z M68.997,55.009 L69.456,56.506 L54.603,56.506 L54.144,55.009 L68.997,55.009 Z M70.3755,59.506 L75.4305,76.009 L60.5775,76.009 L55.5225,59.506 L70.3755,59.506 Z M61.4955,79.009 L76.35,79.009 L76.809,80.506 L61.9545,80.506 L61.4955,79.009 Z M54.78,52.009 L53.226,52.009 L52.5705,49.87 L56.9745,35.506 L59.835,35.506 L54.78,52.009 Z M51.0015,44.752 L48.168,35.506 L53.835,35.506 L51.0015,44.752 Z M49.4325,69.457 L42.834,91 L39.9705,91 L48.0015,64.783 L49.4325,69.457 Z M36.0045,25.6255 L37.437,30.301 L12.4065,112 L9.543,112 L36.0045,25.6255 Z M21.9765,91 L39.006,35.4205 L46.4325,59.6635 L36.8325,91 L21.9765,91 Z M36.4005,112 L33.5385,112 L39.0525,94 L41.9145,94 L36.4005,112 Z M45.969,91 L51,74.578 L56.031,91 L45.969,91 Z M69.3075,104.506 L68.8485,103.009 L83.7015,103.009 L84.1605,104.506 L69.3075,104.506 Z M59.997,25.63 L60.726,28.009 L59.268,28.009 L59.997,25.63 Z M61.6455,31.009 L62.1045,32.506 L47.25,32.506 L46.791,31.009 L61.6455,31.009 Z" transform="matrix(-1 0 0 1 102 0)"/>
    <path class="fill-gray" fill-rule="nonzero" d="M80,10 L80,13 L88,13 L88,10 L91,10 L91,13 L99,13 L99,10 L102,10 L102,13 L110,13 L110,10 L113,10 L113,13 L118,13 L118,53 L72,53 L72,13 L77,13 L77,10 L80,10 Z M115,24 L75,24 L75,50 L115,50 L115,24 Z"/>
    <path class="fill-gray" fill-rule="nonzero" d="M85.0878906,44 L85.0878906,28.2949219 L82.359375,28.2949219 L77.2998047,32.3232422 L78.9003906,34.3212891 L80.7050781,32.8710938 C80.9199219,32.6992188 81.3030599,32.3375651 81.8544922,31.7861328 L81.8544922,31.7861328 L81.8007812,33.4189453 L81.7685547,34.9121094 L81.7685547,44 L85.0878906,44 Z M93.8642578,44.2148438 C95.8766276,44.2148438 97.4235026,43.7421875 98.5048828,42.796875 C99.586263,41.8515625 100.126953,40.5016276 100.126953,38.7470703 C100.126953,37.2646484 99.6775716,36.0973307 98.7788086,35.2451172 C97.8800456,34.3929036 96.6715495,33.9667969 95.1533203,33.9667969 C94.5087891,33.9667969 93.968099,34.0169271 93.53125,34.1171875 L93.53125,34.1171875 L93.1552734,34.1923828 L93.4453125,31.109375 L99.0527344,31.109375 L99.0527344,28.2949219 L90.5341797,28.2949219 L89.9433594,36.2978516 L91.2646484,37.0068359 C91.5511068,36.9208984 91.9235026,36.840332 92.3818359,36.7651367 C92.8401693,36.6899414 93.2591146,36.6523438 93.6386719,36.6523438 C95.7369792,36.6523438 96.7861328,37.4436849 96.7861328,39.0263672 C96.7861328,40.6878255 95.7727865,41.5185547 93.7460938,41.5185547 C93.0729167,41.5185547 92.3603516,41.4236654 91.6083984,41.2338867 C90.8564453,41.0441081 90.1975911,40.7988281 89.6318359,40.4980469 L89.6318359,40.4980469 L89.6318359,43.3662109 C90.7060547,43.9319661 92.116862,44.2148438 93.8642578,44.2148438 Z M108.570312,41.5615234 L108.570312,37.4257812 L112.727539,37.4257812 L112.727539,35.0732422 L108.570312,35.0732422 L108.570312,30.8837891 L106.217773,30.8837891 L106.217773,35.0732422 L102.060547,35.0732422 L102.060547,37.4257812 L106.217773,37.4257812 L106.217773,41.5615234 L108.570312,41.5615234 Z"/>
  </g>
</svg>
