<svg xmlns="http://www.w3.org/2000/svg" width="128" height="128" viewBox="0 0 128 128">
  <g>
    <g transform="translate(19 29)">
      <path class="fill-primary" d="M27.1707227,0 L82.9207227,0 C86.7867159,-7.10171439e-16 89.9207227,3.13400675 89.9207227,7 L89.9207227,42.5 C89.9207227,46.3659932 86.7867159,49.5 82.9207227,49.5 L68.528641,49.5 L68.528641,49.5 L68.528641,20.9648706 C68.528641,17.0988774 65.3946342,13.9648706 61.528641,13.9648706 L20.1707227,13.9648706 L20.1707227,13.9648706 L20.1707227,7 C20.1707227,3.13400675 23.3047294,7.10171439e-16 27.1707227,0 Z"/>
      <path class="fill-gray" fill-rule="nonzero" d="M64.7272266,12.7088086 L5.54554687,12.7088086 C2.48765625,12.7088086 -1.59872116e-14,15.1964648 -1.59872116e-14,18.2543555 L-1.59872116e-14,57.7088086 C-1.59872116e-14,60.7666992 2.48765625,63.2543555 5.54554687,63.2543555 L64.7270508,63.2543555 C67.7849414,63.2543555 70.2727734,60.7666992 70.2727734,57.7088086 L70.2727734,18.2543555 C70.2727734,15.1964648 67.7851172,12.7088086 64.7272266,12.7088086 Z M67.6360547,57.7088086 L67.6360547,57.7088086 C67.6360547,59.3126367 66.3310547,60.6176367 64.7270508,60.6176367 L5.54554687,60.6176367 C3.94154297,60.6176367 2.63671875,59.3126367 2.63671875,57.7088086 L2.63671875,18.2543555 C2.63671875,16.6503516 3.94154297,15.3455273 5.54554687,15.3455273 L64.7270508,15.3455273 C66.3310547,15.3455273 67.6360547,16.6503516 67.6360547,18.2543555 L67.6360547,57.7088086 Z M18.2272852,28.2086719 L12.5910352,28.2086719 C10.3100977,28.2086719 8.45455078,30.0643945 8.45455078,32.3451562 L8.45455078,35.1632812 C8.45455078,37.4442187 10.3100977,39.2997656 12.5910352,39.2997656 L18.2272852,39.2997656 C20.5082227,39.2997656 22.3637695,37.444043 22.3637695,35.1632812 L22.3637695,32.3451562 C22.3637695,30.0642188 20.5080469,28.2086719 18.2272852,28.2086719 Z M14.0908008,36.6632227 L12.5910352,36.6632227 C11.7639844,36.6632227 11.0912695,35.9905078 11.0912695,35.163457 L11.0912695,32.3451562 C11.0912695,31.5181055 11.7641602,30.8453906 12.5910352,30.8453906 L14.0908008,30.8453906 L14.0908008,36.6632227 Z M19.7272266,35.1632813 C19.7272266,35.990332 19.0543359,36.6630469 18.2274609,36.6630469 L16.7276953,36.6630469 L16.7276953,30.8452148 L18.2274609,30.8452148 C19.0543359,30.8453906 19.7272266,31.5181055 19.7272266,32.3451563 L19.7272266,35.1632813 Z M54.8636133,21.1633594 C52.5464648,21.1633594 50.4917578,22.3034766 49.2273633,24.050918 C47.962793,22.3033008 45.9080859,21.1633594 43.5911133,21.1633594 C39.7562695,21.1633594 36.6365039,24.283125 36.6365039,28.1179687 C36.6365039,31.9528125 39.7564453,35.0725781 43.5911133,35.0725781 C45.9082617,35.0725781 47.9629687,33.9324609 49.2273633,32.1850195 C50.4919336,33.9326367 52.5466406,35.0725781 54.8636133,35.0725781 C58.698457,35.0725781 61.8182227,31.9528125 61.8182227,28.1179687 C61.8182227,24.283125 58.698457,21.1633594 54.8636133,21.1633594 Z M43.5909375,32.4358594 C41.2099805,32.4358594 39.2730469,30.49875 39.2730469,28.1179687 C39.2730469,25.7371875 41.2101562,23.8000781 43.5909375,23.8000781 C45.9717187,23.8000781 47.9088281,25.7371875 47.9088281,28.1179687 C47.9088281,30.49875 45.9718945,32.4358594 43.5909375,32.4358594 Z M37.9545117,50.7538477 C38.6827734,50.7538477 39.2730469,51.3439453 39.2730469,52.072207 C39.2730469,52.8004687 38.6827734,53.3905664 37.9546875,53.3905664 L37.9546875,53.3905664 L9.77291016,53.3905664 C9.04482422,53.3905664 8.45455078,52.8004687 8.45455078,52.072207 C8.45455078,51.3439453 9.04482422,50.7538477 9.77291016,50.7538477 L9.77291016,50.7538477 Z M18.2274609,43.7085352 C18.9555469,43.7085352 19.5458203,44.2986328 19.5458203,45.0268945 C19.5458203,45.7551562 18.9555469,46.3452539 18.2274609,46.3452539 L18.2274609,46.3452539 L9.77291016,46.3452539 C9.04482422,46.3452539 8.45455078,45.7551562 8.45455078,45.0268945 C8.45455078,44.2986328 9.04482422,43.7085352 9.77291016,43.7085352 L9.77291016,43.7085352 Z M32.3182617,43.7085352 C33.0463477,43.7085352 33.6366211,44.2986328 33.6366211,45.0268945 C33.6366211,45.7551562 33.0463477,46.3452539 32.3182617,46.3452539 L32.3182617,46.3452539 L23.8637109,46.3452539 C23.135625,46.3452539 22.5453516,45.7551562 22.5453516,45.0268945 C22.5453516,44.2986328 23.135625,43.7085352 23.8637109,43.7085352 L23.8637109,43.7085352 Z M46.4090625,43.7085352 C47.1371484,43.7085352 47.7274219,44.2986328 47.7274219,45.0268945 C47.7274219,45.7551562 47.1371484,46.3452539 46.4090625,46.3452539 L46.4090625,46.3452539 L37.9545117,46.3452539 C37.2264258,46.3452539 36.6361523,45.7551562 36.6361523,45.0268945 C36.6361523,44.2986328 37.2264258,43.7085352 37.9545117,43.7085352 L37.9545117,43.7085352 Z M60.4998633,43.7085352 C61.2279492,43.7085352 61.8182227,44.2986328 61.8182227,45.0268945 C61.8182227,45.7551562 61.2279492,46.3452539 60.4998633,46.3452539 L60.4998633,46.3452539 L52.0453125,46.3452539 C51.3172266,46.3452539 50.7269531,45.7551562 50.7269531,45.0268945 C50.7269531,44.2986328 51.3172266,43.7085352 52.0453125,43.7085352 L52.0453125,43.7085352 Z M54.8636133,23.8000781 C57.2443945,23.8000781 59.1815039,25.7371875 59.1815039,28.1179687 C59.1815039,30.49875 57.2445703,32.4358594 54.8636133,32.4358594 C52.4826562,32.4358594 50.5457227,30.49875 50.5457227,28.1179687 C50.5457227,25.7371875 52.482832,23.8000781 54.8636133,23.8000781 Z"/>
      <path class="fill-gray" fill-rule="nonzero" d="M84.3751758,1.125 L25.1934961,1.125 C22.1356055,1.125 19.6477734,3.61265625 19.6477734,6.67054687 L19.6477734,9.48867187 C19.6477734,10.2169336 20.2380469,10.8070312 20.9661328,10.8070312 L87.2840039,10.8070312 L87.2840039,16.6250391 L74.5115625,16.6250391 C73.7834766,16.6250391 73.1932031,17.2151367 73.1932031,17.9433984 C73.1932031,18.6716602 73.7834766,19.2617578 74.5115625,19.2617578 L87.2840039,19.2617578 L87.2840039,46.125 C87.2840039,47.7290039 85.9791797,49.0338281 84.3751758,49.0338281 L74.5112109,49.0338281 C73.783125,49.0338281 73.1928516,49.6239258 73.1928516,50.3521875 C73.1928516,51.0804492 73.783125,51.6705469 74.5112109,51.6705469 L84.3751758,51.6705469 C87.4330664,51.6705469 89.9207227,49.1828906 89.9207227,46.125 L89.9207227,6.67054687 C89.9207227,3.61283203 87.4330664,1.125 84.3751758,1.125 Z M87.2840039,8.1703125 L22.284668,8.1703125 L22.284668,6.67054687 C22.284668,5.06671875 23.589668,3.76171875 25.1936719,3.76171875 L84.3751758,3.76171875 C85.9791797,3.76171875 87.2840039,5.06671875 87.2840039,6.67054687 L87.2840039,8.1703125 Z"/>
    </g>
    <polygon class="fill-gray" fill-rule="nonzero" points="114 19.951 108.049 14 63.5 58.549 18.951 14 13 19.951 57.549 64.5 13 109.049 18.951 115 63.5 70.451 108.049 115 114 109.049 69.451 64.5"/>
  </g>
</svg>
