<svg xmlns="http://www.w3.org/2000/svg" width="128" height="128" viewBox="0 0 128 128">
  <g>
    <path class="fill-gray" fill-rule="nonzero" d="M112.160436,75.2749673 C109.458605,71.6725254 106.756773,71.6725254 100.152238,75.1249242 L98.5010601,76.1425085 L98.5010601,49.9078312 L104.505071,49.9078312 C105.10542,49.9078312 105.705944,49.607569 105.855987,49.0072207 C106.00603,48.4068724 105.855987,47.8063481 105.405682,47.3560429 L78.3875436,23.0395603 C73.7344482,18.9868132 66.9798697,18.9868132 62.4768174,23.0395603 L35.6085465,47.506086 C35.1582413,47.9563912 35.0081982,48.5567396 35.1582413,49.1572638 C35.3082844,49.607569 35.9088086,50.0578743 36.509157,50.0578743 L42.6633871,50.0578743 L42.6633871,70.0422798 C39.1244453,70.9092933 35.7019497,72.8144714 33.5072394,74.2165741 L33.5072394,71.0721771 L23,71.0721771 L23,110.098689 L33.5070635,110.098689 L33.5070635,105.595637 L53.0202316,105.595637 C56.0223251,105.595637 59.1744617,105.295375 62.1763793,104.995289 L81.6895475,101.993195 C82.4401148,101.993195 83.1905063,101.843152 83.7910305,101.692933 C85.5922514,101.392671 87.2434293,100.49206 88.7443881,99.1411446 L111.409693,81.2789784 C113.211266,79.7780196 113.511352,77.0761882 112.160436,75.2749673 Z M40.411861,47.0557808 L64.4280814,25.2910865 C67.8804802,22.288993 72.9838808,22.288993 76.2860606,25.2910865 L100.302281,47.0557808 L96.6998391,47.0557808 C95.7992287,47.0557808 95.1988803,47.6561291 95.1988803,48.5567396 L95.1988803,78.1773253 L87.2434293,83.0800235 C85.4782679,84.1097449 81.550762,84.4184502 77.8623048,84.4304115 C78.5110258,83.1076398 78.1877207,81.5020203 76.8864089,79.4775816 C74.4848396,76.0251829 70.4320925,73.9238757 66.0790833,73.9238757 L65.9290402,73.9238757 L60.2251153,73.9238757 C57.0729787,73.9238757 54.0708852,73.0232652 51.6693159,71.2220443 C50.0181381,70.0211717 48.066874,69.4208234 45.6653047,69.5708665 L45.6653047,48.5569155 C45.6653047,47.656305 45.0649564,47.0559567 44.1643459,47.0559567 L40.411861,47.0559567 L40.411861,47.0557808 Z M30.5051458,107.096596 L26.0020935,107.096596 L26.0020935,74.0740947 L30.5051458,74.0740947 L30.5051458,76.3256209 L30.5051458,105.595461 L30.5051458,107.096596 Z M109.608824,79.3277144 L86.7932999,97.0396616 L86.6432568,97.1897047 C85.5926032,98.0903152 84.5417738,98.6906635 83.3410771,98.8408825 L83.191034,98.8408825 C82.5906856,98.9909256 82.1403804,98.9909256 81.5398561,98.9909256 L61.7264259,101.993019 C58.8745514,102.443324 55.8724579,102.593367 53.0205834,102.593367 L33.5072394,102.593367 L33.5072394,77.8265797 C35.7895481,76.2098784 39.999902,73.6902799 43.8480769,72.899959 C44.0435023,72.945869 44.2538793,72.9435823 44.464784,72.8732221 C45.8318825,72.6909892 47.0318756,72.6763895 48.066874,72.9268718 C48.6659911,73.1078734 49.2218366,73.3835094 49.7184036,73.7738326 C52.5702781,75.8753156 56.17272,77.0760123 60.075424,77.0760123 L60.2254671,77.0760123 L65.929392,77.0760123 C69.3817908,77.0760123 72.3837084,78.5769711 74.4851914,81.5790647 C74.8885312,82.1839864 75.0878265,82.7882046 75.1302185,83.2110693 C75.1219512,83.2786151 75.1073514,83.3364864 75.0855398,83.3802856 C74.7852777,83.9806339 73.2843188,84.5811582 70.7325306,84.5811582 C70.3805537,84.5811582 70.0751905,84.6969007 69.8327996,84.8814203 C69.6150348,84.8814203 69.4109902,84.8814203 69.2313959,84.8814203 L56.3225872,84.8814203 C51.6694918,84.8814203 48.8174414,87.1329465 48.8174414,90.8854314 C48.8174414,91.7860419 49.4177897,92.3863902 50.3184002,92.3863902 C51.2190106,92.3863902 51.819359,91.7860419 51.819359,90.8854314 C51.819359,90.1348641 51.819359,87.8833379 56.3224113,87.8833379 L69.0810009,87.8833379 C69.5052729,87.8833379 70.0660436,87.8833379 70.8822219,87.8833379 C70.9323535,87.8833379 70.9801984,87.8833379 71.032265,87.8833379 C71.1823081,87.8833379 71.4825702,87.8833379 71.7828323,87.8833379 C78.8376729,88.033381 85.4420324,87.8833379 88.8944312,86.082117 L101.80324,78.1266659 C108.107513,74.9745293 108.707861,75.7250966 109.908734,77.5263176 C110.209172,77.9767987 110.209172,78.8774092 109.608824,79.3277144 Z M62.0265121,51.5588331 C65.3286919,51.5588331 68.0305233,48.8570017 68.0305233,45.554822 C68.0305233,42.2526422 65.3286919,39.5508108 62.0265121,39.5508108 C58.7243324,39.5508108 56.022501,42.2526422 56.022501,45.554822 C56.022501,48.8570017 58.7243324,51.5588331 62.0265121,51.5588331 Z M80.0387214,57.5630201 C83.3409012,57.5630201 86.0427326,60.2648515 86.0427326,63.5670313 C86.0427326,66.869211 83.3409012,69.5710424 80.0387214,69.5710424 C76.7365417,69.5710424 74.0347103,66.869211 74.0347103,63.5670313 C74.0347103,60.2648515 76.7365417,57.5630201 80.0387214,57.5630201 Z M85.5924273,40.0009401 C86.1552539,40.5639316 86.1904306,41.3906708 85.6979573,41.9864858 L85.5924273,42.1024232 L58.5741134,69.1207372 C58.2740272,69.4209993 57.973765,69.5710424 57.5234598,69.5710424 C57.0731546,69.5710424 56.7728924,69.4209993 56.4726303,69.1207372 C55.9098038,68.5577457 55.8746271,67.7310065 56.3671003,67.1351915 L56.4726303,67.0192541 L83.4909443,40.0009401 C84.0914685,39.4005918 84.992079,39.4004159 85.5924273,40.0009401 Z M80.0387214,60.5649377 C78.3875436,60.5649377 77.0366279,61.9158534 77.0366279,63.5670313 C77.0366279,65.2182091 78.3875436,66.5691248 80.0387214,66.5691248 C81.6898993,66.5691248 83.040815,65.2182091 83.040815,63.5670313 C83.040815,61.9158534 81.6898993,60.5649377 80.0387214,60.5649377 Z M62.0265121,42.5527284 C63.6776899,42.5527284 65.0286056,43.9036441 65.0286056,45.554822 C65.0286056,47.2059998 63.6776899,48.5569155 62.0265121,48.5569155 C60.3753343,48.5569155 59.0244186,47.2059998 59.0244186,45.554822 C59.0244186,43.9036441 60.3753343,42.5527284 62.0265121,42.5527284 Z"/>
    <polygon class="fill-gray" fill-rule="nonzero" points="115 17.951 109.049 12 64.5 56.549 19.951 12 14 17.951 58.549 62.5 14 107.049 19.951 113 64.5 68.451 109.049 113 115 107.049 70.451 62.5"/>
  </g>
</svg>
