<svg xmlns="http://www.w3.org/2000/svg" width="128" height="128" viewBox="0 0 128 128">
  <g>
    <path class="fill-primary" d="M96.9375,30.8449707 C107.154768,30.8449707 115,39.2827321 115,49.5 C115,56.3115119 108.979167,65.9549299 96.9375,78.4302541 C85.3427734,65.9549299 79.5454102,56.3115119 79.5454102,49.5 C79.5454102,39.2827321 86.7202321,30.8449707 96.9375,30.8449707 Z M97.5,45 C95.5670034,45 94,46.5670034 94,48.5 C94,50.4329966 95.5670034,52 97.5,52 C99.4329966,52 101,50.4329966 101,48.5 C101,46.5670034 99.4329966,45 97.5,45 Z"/>
    <path class="fill-gray" fill-rule="nonzero" d="M111.055495,106.64765 L111.203689,106.731572 L122.036251,113.476171 C122.635547,113.849296 123,114.505076 123,115.211247 C123,115.862881 122.689461,116.471978 122.170323,116.855301 L122.036251,116.946323 L111.203689,123.690923 C110.873689,123.896235 110.49869,123.999594 110.123456,123.999594 C109.781972,123.999594 109.440254,123.914516 109.130879,123.742719 C108.53225,123.409979 108.142911,122.801448 108.086555,122.125986 L108.079474,121.955847 L108.079474,117.254994 L21.3373043,117.254994 L21.3373043,121.955847 C21.3373043,122.698111 20.934883,123.382251 20.2856652,123.742719 C19.976525,123.914282 19.6348068,123.999594 19.2933229,123.999594 C18.980628,123.999594 18.6680959,123.927979 18.3816326,123.785157 L18.2130901,123.690923 L7.38052743,116.946323 C6.78123141,116.573198 6.41677881,115.917184 6.41677881,115.211247 C6.41677881,114.559613 6.72731831,113.950517 7.24645616,113.567193 L7.38052743,113.476171 L18.2130901,106.731572 C18.8437923,106.339229 19.6369161,106.319541 20.2858996,106.679775 C20.8849612,107.012515 21.2739344,107.621046 21.3302317,108.296508 L21.3373043,108.466647 L21.3373043,113.1675 L108.079709,113.1675 L108.079709,108.466647 C108.079709,107.724383 108.48213,107.040243 109.131114,106.679775 C109.730175,106.347251 110.452254,106.338448 111.055495,106.64765 Z M17.2493414,112.147033 L12.3279422,115.211247 L17.2493414,118.275462 L17.2493414,112.147033 Z M112.167437,112.147033 L112.167437,118.275462 L117.089305,115.211247 L112.167437,112.147033 Z M97.75,28 C109.121765,28 118.375,37.2532349 118.375,48.625 C118.375,51.5209575 117.246575,55.3453343 115.494814,59.3769442 L123.944153,93.1708984 C123.971631,93.2807163 123.988297,93.3872115 123.995666,93.49628 C123.997304,93.5191228 123.998486,93.5422397 123.999239,93.5653429 C123.99969,93.5851866 124,93.6050567 124,93.625 L124,100.344971 C124,100.479043 123.986005,100.60978 123.959394,100.735805 C123.986079,100.861084 124,100.991399 124,101.125 C124,102.162292 123.162292,103 122.125,103 L5.875,103 L5.875,103 C4.83770758,103 4,102.162292 4,101.125 L4,93.625 L4.0009367,93.5662634 C4.00165366,93.5429534 4.00280793,93.5196332 4.00440233,93.4963149 L4,93.625 C4,93.4707772 4.01855043,93.3209336 4.05354849,93.1775809 C4.05469131,93.175533 4.05526691,93.1732154 4.05584711,93.1708984 L17.1808471,40.6708984 C17.4307862,39.666565 18.4451903,39.0476685 19.4541016,39.3067628 L19.5400557,39.3323861 C20.0559189,39.2839944 20.7240805,39.2557892 21.585341,39.2508003 L71.414484,39.2508155 C71.4675119,39.2484221 71.5208526,39.2482775 71.574375,39.2504428 L77.1236545,39.25 C78.0225901,39.25 78.7536008,39.2733728 79.3476946,39.3171209 C82.7551601,32.6080845 89.7250691,28 97.75,28 Z M62.124,95.5 L7.749,95.5 L7.749,99.249 L62.124,99.249 L62.124,95.5 Z M120.249,95.5 L65.874,95.5 L65.874,99.249 L120.249,99.249 L120.249,95.5 Z M77.906553,42.9933946 L77.6980906,42.9965778 C77.5146685,42.9988484 77.323303,43 77.1236545,43 L72.7957284,43.0020727 C62.8923567,68.7327563 49.30137,72.739263 33.6008301,77.3652344 C25.8371853,79.6546516 17.8153668,82.0190789 9.38724427,87.3053438 L8.27642828,91.75 L62.1922418,91.7500266 C63.1118469,79.1703858 73.322748,73.4269639 84.1058959,67.3603516 C80.214966,60.7516389 77.125,53.4171745 77.125,48.625 C77.125,46.6733788 77.3975391,44.7841556 77.906553,42.9933946 Z M97.75,82.375 C95.1702518,82.375 90.3910361,77.1625632 86.0823423,70.5500006 L85.9433594,70.6278686 C75.3503107,76.5900811 66.858069,81.3645611 65.954557,91.7499989 L119.723572,91.75 L112.939779,64.6161146 C108.025587,73.7509689 101.068273,82.375 97.75,82.375 Z M20.469258,42.9761401 L10.6631027,82.2058041 C18.382184,77.943861 25.8429912,75.7440983 32.5397338,73.7708739 C47.595389,69.3323944 59.5966382,65.794026 68.7666841,43.0016469 L21.8676789,43 C21.3358064,43 20.8724458,42.9918412 20.469258,42.9761401 Z M97.75,31.75 C88.4445801,31.75 80.875,39.3214113 80.875,48.625 C80.875,58.1016236 94.4293823,77.1592408 97.75,78.5856323 C100.098882,77.5747129 107.568354,67.7436252 111.738893,58.7228286 C111.78749,58.5595356 111.858568,58.4049702 111.948897,58.2624228 C113.557949,54.6961491 114.625,51.2834129 114.625,48.625 C114.625,39.3214113 107.05542,31.75 97.75,31.75 Z M97.75,43 C100.850891,43 103.375,45.5241088 103.375,48.625 C103.375,51.7258912 100.850891,54.25 97.75,54.25 C94.6491088,54.25 92.125,51.7258912 92.125,48.625 C92.125,45.5241088 94.6491088,43 97.75,43 Z M97.75,46.75 C96.7154542,46.75 95.875,47.5922852 95.875,48.625 C95.875,49.6586303 96.7154542,50.5 97.75,50.5 C98.7845458,50.5 99.625,49.6586303 99.625,48.625 C99.625,47.5922852 98.7845458,46.75 97.75,46.75 Z"/>
  </g>
</svg>
