<svg xmlns="http://www.w3.org/2000/svg" width="128" height="128" viewBox="0 0 128 128">
  <g>
    <path class="fill-primary" d="M94.9375,34.8449707 C105.154768,34.8449707 113,43.2827321 113,53.5 C113,60.3115119 106.979167,69.9549299 94.9375,82.4302541 C83.3427734,69.9549299 77.5454102,60.3115119 77.5454102,53.5 C77.5454102,43.2827321 84.7202321,34.8449707 94.9375,34.8449707 Z M95.5,49 C93.5670034,49 92,50.5670034 92,52.5 C92,54.4329966 93.5670034,56 95.5,56 C97.4329966,56 99,54.4329966 99,52.5 C99,50.5670034 97.4329966,49 95.5,49 Z"/>
    <path class="fill-gray" fill-rule="nonzero" d="M94.9375,34 C105.361618,34 113.84375,42.482132 113.84375,52.90625 C113.84375,55.5609774 112.809282,59.0668198 111.203399,62.7626153 L118.943549,93.7170574 C118.959387,93.7773194 118.97204,93.8388804 118.981321,93.9015498 L118.948807,93.7399902 C118.965135,93.8054116 118.977528,93.8712945 118.986051,93.9373194 C118.990887,93.97405 118.994377,94.0110369 118.99668,94.0483478 C118.998297,94.0728035 118.999326,94.0971628 118.999837,94.1215011 C118.999883,94.1327875 119,94.1445049 119,94.15625 L119,100.316223 C119,100.439028 118.987191,100.558781 118.962834,100.674223 C118.987157,100.788564 119,100.908391 119,101.03125 C119,101.982101 118.232101,102.75 117.28125,102.75 L10.71875,102.75 L10.71875,102.75 C9.76789861,102.75 9,101.982101 9,101.03125 L9,94.15625 L9.00037218,94.1217972 C9.00084461,94.097475 9.00183576,94.0731363 9.00334943,94.0487975 L9,94.15625 C9,94.0831456 9.00454708,94.0111146 9.0133747,93.9404247 C9.01523712,93.9271537 9.0171304,93.9134886 9.01919152,93.8998343 C9.02822745,93.8375796 9.04078082,93.7766827 9.05645109,93.7170574 L21.0824432,45.6149902 C21.3115541,44.6943513 22.2414245,44.1270295 23.1662598,44.3645326 L23.2442577,44.3880951 C23.7676803,44.3389551 24.4622389,44.3125 25.3787057,44.3125 L70.8676032,44.3115161 C70.8846286,44.3114538 70.9016818,44.311645 70.9187576,44.3120922 L76.0300166,44.3125 C76.854576,44.3125 77.5250043,44.3339529 78.0697808,44.3741057 C81.1917586,38.2243892 87.5810419,34 94.9375,34 Z M62.281,95.875 L12.437,95.875 L12.437,99.312 L62.281,99.312 L62.281,95.875 Z M115.562,95.875 L65.718,95.875 L65.718,99.312 L115.562,99.312 L115.562,95.875 Z M76.7476231,47.7441226 L76.5861788,47.7464851 C76.4090573,47.7488165 76.2237931,47.75 76.0300166,47.75 L72.0626284,47.7522187 C62.984548,71.338393 50.526191,75.0110101 36.1340942,79.2514648 C29.0174442,81.3500901 21.6641365,83.5174742 13.9383864,88.3631821 L12.9200593,92.4375 L62.3428717,92.4377516 C63.1857367,80.9062561 72.5457874,75.6414201 82.4304046,70.0803223 L82.4069062,70.0400527 C78.8511434,63.9924645 76.03125,57.2893143 76.03125,52.90625 C76.03125,51.1173284 76.2810595,49.3856008 76.7476231,47.7441226 Z M94.9375,83.84375 C92.5727015,83.84375 88.1916745,79.0655644 84.2420003,73.0039418 L84.1147461,73.0755462 C74.4046262,78.5408093 66.6201767,82.9173568 65.791722,92.436985 L115.079941,92.4375 L108.861259,67.5651533 C104.356595,75.9386284 97.9792037,83.84375 94.9375,83.84375 Z M24.0964331,47.7281133 L15.1074492,83.6888718 C22.1834142,79.7819476 29.0226278,77.7654571 35.1614227,75.9566344 C48.9623481,71.8880553 59.9634387,68.644567 68.3692927,47.7519265 L25.3787057,47.75 C24.8909858,47.75 24.4661123,47.7425158 24.0964331,47.7281133 Z M94.9375,37.4375 C86.4075317,37.4375 79.46875,44.3779603 79.46875,52.90625 C79.46875,61.593155 91.8936004,79.0626374 94.9375,80.3701629 C97.09091,79.4433714 103.939364,70.429411 107.76208,62.1595025 C107.804941,62.0146132 107.867877,61.8769172 107.947508,61.7495279 C109.42603,58.4781499 110.40625,55.3457299 110.40625,52.90625 C110.40625,44.3779603 103.467468,37.4375 94.9375,37.4375 Z M94.9375,47.75 C97.7799836,47.75 100.09375,50.0637664 100.09375,52.90625 C100.09375,55.7487336 97.7799836,58.0625 94.9375,58.0625 C92.0950164,58.0625 89.78125,55.7487336 89.78125,52.90625 C89.78125,50.0637664 92.0950164,47.75 94.9375,47.75 Z M94.9375,51.1875 C93.9891664,51.1875 93.21875,51.9595947 93.21875,52.90625 C93.21875,53.8537445 93.9891664,54.625 94.9375,54.625 C95.8858336,54.625 96.65625,53.8537445 96.65625,52.90625 C96.65625,51.9595947 95.8858336,51.1875 94.9375,51.1875 Z"/>
  </g>
</svg>
