<svg xmlns="http://www.w3.org/2000/svg" width="128" height="128" viewBox="0 0 128 128">
  <g>
    <path class="fill-primary" d="M91.8833301,32 L97.2418878,90.349625 L87.6243337,90.7178891 C88.4998211,89.1893651 89,87.4168393 89,85.5 C89,79.4233357 84.0751322,75 78,75 C71.9248678,75 67,79.7010101 67,85.5 C67,87.6750463 67.6785023,89.724187 68.8470868,91.4358841 L65.0719112,91.5812172 C66.2863687,89.873304 67,87.7896019 67,85.5 C67,79.4233357 62.0751322,75 56,75 C49.9248678,75 45,79.7010101 45,85.5 C45,88.0340779 45.9209884,90.3972533 47.4649894,92.2549907 L29.8791554,92.9274063 L37,32 L91.8833301,32 Z M55.898237,81.8296778 C60.5926573,81.8296778 60.0304286,85.9311751 60.0304286,90.3494531 L60.0308182,90.5507274 C60.0467149,94.6559364 60.519307,91.1621301 55.898237,91.1621301 C51.2038166,91.1621301 50.9466969,92.9274062 50.9466969,90.3494531 L50.9469667,90.2081835 C50.9572947,87.5611868 51.2876455,81.8296778 55.898237,81.8296778 Z M77.898237,81.8296778 C82.5926573,81.8296778 82.0304286,85.9311751 82.0304286,90.3494531 L82.0308182,90.5507274 C82.0313415,90.6858799 82.0323599,90.8127961 82.0336752,90.9318717 L72.9835657,91.2783311 C72.9532792,91.0632115 72.9466969,90.7619256 72.9466969,90.3494531 L72.9469667,90.2081835 C72.9572947,87.5611868 73.2876455,81.8296778 77.898237,81.8296778 Z"/>
    <path class="fill-gray" fill-rule="nonzero" d="M30.0115516,98.7812969 L59.1328931,98.7812969 L59.1328931,110.740187 C59.1328931,111.986281 60.1448276,113 61.3888997,113 L65.7111538,113 C66.9550544,113 67.9669889,111.986281 67.9669889,110.740187 L67.9669889,110.488562 L80.6974959,110.488562 L80.6974959,110.740187 C80.6974959,111.986281 81.7094305,113 82.9535026,113 L87.2757567,113 C88.5196572,113 89.5315917,111.986281 89.5315917,110.740187 L89.5315917,98.7812969 L98.9884957,98.7812969 C103.126996,98.7812969 106.38001,95.1915156 105.964118,91.0544844 C105.963432,91.0476094 105.962746,91.0407344 105.961888,91.0338594 L103.725441,71.8582812 C103.642914,71.1511875 103.002262,70.6445 102.298129,70.7275156 C101.59228,70.8101875 101.086827,71.4504219 101.169354,72.1575156 L103.404943,91.3220937 C103.655439,93.8715156 101.67309,96.203 98.9890104,96.203 L89.5321065,96.203 L89.5321065,92.9274062 L97.2420594,92.9274062 C98.8668508,92.9274062 100.138203,91.5195781 99.9760669,89.8996562 C99.9752091,89.8922656 99.9743512,89.884875 99.9734934,89.8774844 L93.32403,33.3178906 C93.1763061,31.912125 92.0037797,30.8537187 90.591395,30.8537187 L67.5027138,30.8537187 C66.7918889,30.8537187 66.2159201,31.430875 66.2159201,32.1427812 C66.2159201,32.8546875 66.7918889,33.4318437 67.5027138,33.4318437 L90.591395,33.4318437 C90.6811274,33.4318437 90.7555899,33.4993906 90.7646832,33.5889375 C90.7653695,33.5961562 90.7662274,33.6032031 90.7670852,33.6104219 L97.4155191,90.1631406 C97.418779,90.2104062 97.4028228,90.2571562 97.3709103,90.2922187 C97.3381399,90.3286562 97.2909575,90.3494531 97.2418878,90.3494531 L89.5319349,90.3494531 L89.5319349,86.4148906 C89.5319349,79.6297812 83.9976927,74.3245156 77.4626682,74.3245156 C72.8683002,74.3245156 68.7215647,76.935125 66.6812247,80.9836406 C64.6209822,76.8978281 60.3802251,74.2375469 55.6652415,74.32675 C49.1969587,74.4486094 43.8287987,79.7567969 43.8287987,86.4150625 L43.8287987,90.349625 L31.7583311,90.349625 C31.7092613,90.349625 31.6622505,90.3286562 31.629137,90.2920469 C31.5973961,90.2569844 31.5816114,90.2102344 31.5846997,90.1629688 L38.2334768,33.6105937 C38.2343346,33.603375 38.2351925,33.5961562 38.2358788,33.5887656 C38.2449721,33.4993906 38.319263,33.4320156 38.409167,33.4320156 L61.4976767,33.4320156 C62.2085015,33.4320156 62.7844703,32.8548594 62.7844703,32.1429531 C62.7844703,31.4310469 62.2085015,30.8538906 61.4976767,30.8538906 L38.409167,30.8538906 C36.9966107,30.8538906 35.8240843,31.9126406 35.676532,33.3184062 L29.0268971,89.8778281 C29.0260392,89.8852188 29.0251814,89.8926094 29.0243235,89.9 C28.8620159,91.5194063 30.133368,92.92775 31.7583311,92.92775 L59.1328931,92.92775 L59.1328931,96.2033438 L30.0115516,96.2033438 C27.463357,96.2033438 25.3312257,94.0064375 25.5954473,91.3222656 L32.5628345,31.598625 C32.5636923,31.59175 32.5643786,31.584875 32.5650649,31.5781719 C32.7942858,29.2977344 34.6923922,27.578125 36.9803113,27.578125 L92.0204223,27.578125 C94.3083414,27.578125 96.2062762,29.2977344 96.4354971,31.578 C96.4361834,31.584875 96.4368697,31.59175 96.4377275,31.598625 L100.467451,66.1418906 C100.549977,66.8491562 101.190972,67.3558437 101.894762,67.2726562 C102.600611,67.1901563 103.106064,66.54975 103.023537,65.8426563 L98.9950155,31.3091875 C98.6281935,27.7115 95.63168,25 92.0204223,25 L36.9803113,25 C33.368882,25 30.3720254,27.7116719 30.0055465,31.3095312 L23.0379878,91.0340312 C23.03713,91.0409063 23.0364437,91.0477812 23.0357574,91.0546562 C22.6214098,95.1794844 25.86087,98.7812969 30.0115516,98.7812969 Z M74.2280121,86.5262656 C74.2280121,84.7516562 75.6215239,83.2109688 77.4021032,83.177625 C79.2348405,83.1425625 80.6978391,84.6370156 80.6978391,86.4150625 L80.6978391,90.349625 L74.2280121,90.349625 L74.2280121,86.5262656 Z M67.9671605,98.7812969 L80.6976675,98.7812969 L80.6976675,102.056891 L67.9671605,102.056891 L67.9671605,98.7812969 Z M81.3867026,92.9275781 C82.3421898,92.9275781 83.1048295,93.7556719 83.0138961,94.7202344 C82.9327423,95.5596719 82.2263784,96.203 81.3867026,96.203 L67.9671605,96.203 L67.9671605,92.9274063 C72.4472613,92.9275781 76.9175824,92.9275781 81.3867026,92.9275781 Z M67.9671605,104.635016 L81.3867026,104.635016 C82.3366995,104.635016 83.1051726,105.459328 83.0138961,106.427672 C82.9329139,107.265391 82.2268931,107.910437 81.3867026,107.910437 L67.9671605,107.910437 L67.9671605,104.635016 Z M86.9585191,110.421875 L83.2714264,110.421875 L83.2714264,110.041516 C86.3621332,108.472812 86.3689961,104.076078 83.2714264,102.503937 L83.2714264,98.33425 C86.3765453,96.7581562 86.3542408,92.36125 83.2714264,90.7966719 L83.2714264,86.4150625 C83.2714264,82.8940312 80.148464,80.1387031 76.6154433,80.6589687 C73.8097184,81.0714687 71.6544248,83.499375 71.6544248,86.4150625 L71.6544248,90.349625 L67.967332,90.349625 L67.967332,86.5963906 C67.967332,81.3452656 72.1639951,76.9552344 77.373279,76.9050469 C82.7294289,76.8600156 86.9585191,81.2118906 86.9585191,86.4150625 L86.9585191,110.421875 Z M46.4027292,90.3494531 L46.4027292,86.5960469 C46.4027292,81.0575469 50.9830283,76.6989688 56.2834172,76.9122656 C61.3418889,77.1192031 65.3937447,81.2955938 65.3937447,86.4147188 L65.3937447,110.421703 L61.706652,110.421703 C61.706652,107.943609 61.706652,89.614 61.706652,86.4147188 C61.706652,83.3295625 59.2934849,80.7765313 56.230916,80.6062031 C52.9236847,80.4178281 50.089822,83.0573125 50.089822,86.4147188 L50.089822,90.3492812 L46.4027292,90.3492812 L46.4027292,90.3494531 Z M59.1328931,86.4148906 L59.1328931,90.3494531 L52.6634093,90.3494531 L52.6634093,86.5260938 C52.6634093,84.9061719 53.8235824,83.4797813 55.3874657,83.2187031 C57.3843979,82.9003906 59.1328931,84.4625625 59.1328931,86.4148906 Z M75.7265901,62.8170529 C76.5677375,61.7287821 78.1155584,61.726578 78.958421,62.8170529 C80.329402,64.5911638 82.4190632,65.477209 84.5519481,65.1890239 C85.2539905,65.0935132 85.9002881,65.627822 85.9896514,66.3827237 C86.0790148,67.1376255 85.5797122,67.8267718 84.8749254,67.9222824 C82.0484026,68.3057946 79.2735082,67.2252381 77.3425056,65.0187577 C73.86008,68.9964103 67.9778802,68.9910837 64.5000858,65.0187577 C61.0173171,68.9960429 55.1356319,68.9912674 51.6576659,65.0187577 C49.7266633,67.2252381 46.9519404,68.3059782 44.1250746,67.9222824 C43.4202878,67.8267718 42.9209852,67.1374418 43.0103486,66.3827237 C43.0997119,65.627822 43.7448088,65.0936969 44.4480519,65.1890239 C46.5800792,65.4773927 48.670598,64.5909801 50.0417505,62.8170529 C50.8846131,61.7262107 52.4322625,61.7291495 53.2734099,62.8168692 C55.7724957,66.0508241 60.3804533,66.0568854 62.8839988,62.8170529 C63.7138257,61.7440271 65.2630188,61.7137208 66.1160012,62.8170529 C68.6150871,66.0510078 73.2230447,66.0563344 75.7265901,62.8170529 Z M75.8438188,51.8170923 C76.693756,50.7288009 78.2577513,50.7265968 79.1094216,51.8170923 C80.2763521,53.3111281 81.9228454,54.1711079 83.7454268,54.2381503 C84.4629512,54.2645999 85.0243188,54.9023295 84.9991881,55.6627559 C84.974404,56.4231823 84.3691878,57.0190333 83.6549563,56.9916653 C81.3035906,56.9049693 79.0820378,55.8293517 77.4767935,54.0184716 C73.9579774,57.9960159 68.0144833,57.9914239 64.5,54.0186553 C60.9806639,57.9963832 55.0371698,57.9912403 51.5230331,54.0184716 C49.9181355,55.8293517 47.6962361,56.9049693 45.3450437,56.9916653 C44.6237063,57.0166455 44.0257693,56.4231823 44.0008119,55.6627559 C43.9756812,54.9023295 44.5370488,54.2645999 45.2545732,54.2381503 C47.0771546,54.1709242 48.7236479,53.3111281 49.8905784,51.8169086 C50.739129,50.730454 52.302951,50.7249437 53.1560079,51.8169086 C55.6822485,55.0522106 60.3380116,55.0558842 62.8670253,51.8170923 C63.7055237,50.7440462 65.2709055,50.7137393 66.1328014,51.8170923 C68.6578288,55.0509249 73.3139386,55.0566189 75.8438188,51.8170923 Z M76.2301531,40.8171017 C77.0715779,39.7287978 78.6199092,39.7265937 79.4630497,40.8171017 C80.3758514,41.9976129 81.5914906,42.7868858 82.9781942,43.0996928 C83.6734334,43.2563718 84.11851,43.9870507 83.9721529,44.7315057 C83.8254526,45.4759606 83.142224,45.9526102 82.4476711,45.7955638 C80.6663351,45.3940393 79.0860901,44.4383524 77.8462583,43.0190572 C74.3625128,46.9964635 68.478888,46.9909531 64.9999468,43.0186899 C61.5168876,46.9951777 55.6334344,46.9920551 52.1534637,43.0188736 C50.913975,44.4381687 49.3339015,45.393672 47.552394,45.7955638 C46.8583558,45.9526102 46.1744409,45.4761443 46.0279122,44.7316894 C45.8813835,43.9872344 46.3262885,43.2565555 47.0218709,43.0996928 C48.4085745,42.7868858 49.6240421,41.9974292 50.5368438,40.816918 C51.3768959,39.7304509 52.9250556,39.7249405 53.7695688,40.816918 C56.2705082,44.0522571 60.8796422,44.0559307 63.3833269,40.8171017 C64.2134274,39.7440433 65.7631313,39.7137361 66.6163951,40.8171017 C69.1161334,44.0509714 73.7256105,44.0566654 76.2301531,40.8171017 Z"/>
  </g>
</svg>
