<svg xmlns="http://www.w3.org/2000/svg" width="128" height="128" viewBox="0 0 128 128">
  <g>
    <path class="fill-primary" d="M65,41.1722002 C75.4747794,41.1722002 83.9657216,50.0490942 83.9657216,61 C83.9657216,71.9509058 75.4747794,80.8277998 65,80.8277998 C54.5252206,80.8277998 46.0342784,71.9509058 46.0342784,61 C46.046131,50.0545155 54.5304062,41.1845916 65,41.1722002 Z"/>
    <path class="fill-gray" fill-rule="nonzero" d="M24.3561874,85.0006271 L36.7574496,85.3577182 C37.621109,85.3824827 38.3014985,86.1350102 38.2778261,87.0385224 L38.2778261,87.0385224 L38.2060453,89.7658349 C44.0920633,86.5400329 51.1151181,86.5320442 57.0072449,89.7450646 L57.0072449,89.7450646 L58.1580269,90.3689752 C59.7501842,91.2293488 61.5072842,91.7038725 63.2979836,91.7573963 L63.2979836,91.7573963 L74.6072629,92.0825327 C78.1779712,92.1879824 81.4226118,94.2825969 83.1140401,97.5739055 L83.1140401,97.5739055 L95.3648684,91.5185367 C99.1333553,89.534964 103.726557,90.9992767 105.797507,94.8433974 C106.204518,95.5975225 105.980013,96.5521619 105.285114,97.0226911 L105.285114,97.0226911 L77.3906743,115.898187 C77.3288207,115.940526 77.2639127,115.978073 77.1967137,116.010027 C74.4621742,117.323355 71.4886204,118.001588 68.4799397,118 C67.0595981,118.00079 65.642311,117.848207 64.2517508,117.543841 C64.2173876,117.535852 64.1837881,117.527864 64.1501886,117.517478 L64.1501886,117.517478 L44.9114324,111.86873 C43.5300357,111.459713 42.0516586,111.629072 40.7870964,112.340857 L40.7870964,112.340857 L37.5653645,114.145485 L37.5294741,115.507543 C37.5065654,116.393481 36.8131942,117.098875 35.9655711,117.098875 L35.9655711,117.098875 L35.9228081,117.098875 L23.5215458,116.741784 C22.6578864,116.717019 21.9774971,115.964492 22.0005699,115.06098 L22.0005699,115.06098 L22.7502849,86.5911601 C22.7739573,85.6876478 23.4925282,84.9758624 24.3561874,85.0006271 L24.3561874,85.0006271 Z M55.5693399,92.6505232 C50.0132078,89.6220398 43.3223298,89.9951081 38.1052471,93.625134 L38.1052471,93.625134 L37.6646356,110.379652 L39.3110101,109.456968 C41.2865067,108.345752 43.5979982,108.081329 45.7575284,108.719619 L45.7575284,108.719619 L64.9443581,114.353988 C68.5960107,115.134475 72.3904609,114.691906 75.7878264,113.087792 L75.7878264,113.087792 L102.160363,95.2404317 C100.694204,93.8208549 98.5392555,93.5053047 96.7569558,94.44876 C96.7447378,94.4551509 96.7325198,94.4615418 96.7203018,94.4671339 L96.7203018,94.4671339 L84.1548604,100.678281 C84.2747494,101.378083 84.3251485,102.089869 84.306058,102.800855 C84.2831493,103.685993 83.5905418,104.391388 82.7436823,104.392187 L82.7436823,104.392187 L82.7001556,104.392187 L64.108953,103.85695 C63.2460572,103.832185 62.5649041,103.079658 62.5885765,102.176146 C62.6130125,101.273432 63.3315831,100.560848 64.1952425,100.585613 L64.1952425,100.585613 L81.0415631,101.072119 C80.397064,97.8159606 77.6991786,95.4497332 74.5225006,95.3538699 L74.5225006,95.3538699 L63.2124577,95.0287333 C60.9498382,94.9600313 58.731509,94.3608852 56.7201221,93.2744338 L56.7201221,93.2744338 Z M25.8338009,88.3167005 L25.1709748,113.515982 L34.4451946,113.783601 L35.1080207,88.5835201 L25.8338009,88.3167005 Z M65,38 C77.1504479,38 87,48.2972591 87,61 C87,73.7027409 77.1504479,84 65,84 C52.8495521,84 43,73.7027409 43,61 C43.0140751,48.3034548 52.8554784,38.0139402 65,38 Z M65,41.1722002 C54.5304062,41.1845916 46.046131,50.0545155 46.0342784,61 C46.0342784,71.9509058 54.5252206,80.8277998 65,80.8277998 C75.4747794,80.8277998 83.9657216,71.9509058 83.9657216,61 C83.9657216,50.0490942 75.4747794,41.1722002 65,41.1722002 Z M66.7644928,50 C67.8321256,50 68.7817029,50.0805861 69.6132246,50.2417582 C70.4447464,50.4029304 71.1376812,50.5943223 71.692029,50.8159341 L71.692029,50.8159341 L70.6141304,53.9285714 L70.3344928,53.8252198 C69.9501449,53.6946703 69.5198068,53.5931319 69.0434783,53.5206044 C68.4480676,53.4299451 67.75,53.3846154 66.9492754,53.3846154 C65.7173913,53.3846154 64.6548913,53.6918498 63.7617754,54.3063187 C62.8686594,54.9207875 62.2065217,55.8928571 61.7753623,57.2225275 L61.7753623,57.2225275 L69.7518116,57.2225275 L68.951087,60.032967 L61.2826087,60.032967 L61.2595109,60.2747253 L61.2595109,60.2747253 L61.2518116,60.5164835 L61.2518116,61.7857143 L68.3351449,61.7857143 L67.5344203,64.5961538 L61.7137681,64.5961538 L61.812902,64.8928084 C62.2269317,66.0572534 62.8508919,66.9556213 63.6847826,67.5879121 C64.5881643,68.2728938 65.7789855,68.6153846 67.2572464,68.6153846 C68.1195652,68.6153846 68.8638285,68.5247253 69.4900362,68.3434066 C70.116244,68.1620879 70.6757246,67.9304029 71.1684783,67.6483516 L71.1684783,67.6483516 L72,70.7005495 L71.8078261,70.8304945 C71.5417391,70.9997253 71.2362319,71.1528388 70.8913043,71.2898352 C70.4601449,71.4610806 70.0084541,71.5970696 69.5362319,71.6978022 C69.0640097,71.7985348 68.5815217,71.8740842 68.0887681,71.9244505 C67.5960145,71.9748168 67.1237923,72 66.6721014,72 C64.4136473,72 62.5042271,71.4056777 60.9438406,70.217033 C59.3834541,69.0283883 58.3466184,67.1547619 57.8333333,64.5961538 L57.8333333,64.5961538 L55,64.5961538 L55.9855072,61.7857143 L57.4945652,61.7857143 L57.4945652,60.5164835 L57.5022645,60.2747253 L57.5022645,60.2747253 L57.5253623,60.032967 L55,60.032967 L55.9855072,57.2225275 L57.8641304,57.2225275 L57.9719203,56.7996371 C58.2730475,55.6903349 58.6836755,54.7282764 59.2038043,53.9134615 C59.7889493,52.9967949 60.4767512,52.2513736 61.2672101,51.6771978 C62.0576691,51.103022 62.9199879,50.6799451 63.8541667,50.407967 C64.7883454,50.135989 65.7584541,50 66.7644928,50 Z M76.5,26 C77.3283692,26 78,26.6888521 78,27.5384615 L78,27.5384615 L78,34.4615385 C78,35.3111479 77.3283692,36 76.5,36 C75.6716308,36 75,35.3111479 75,34.4615385 L75,34.4615385 L75,27.5384615 C75,26.6888521 75.6716308,26 76.5,26 Z M52.5,26 C53.3283692,26 54,26.6888521 54,27.5384615 L54,27.5384615 L54,34.4615385 C54,35.3111479 53.3283692,36 52.5,36 C51.6716308,36 51,35.3111479 51,34.4615385 L51,34.4615385 L51,27.5384615 C51,26.6888521 51.6716308,26 52.5,26 Z M64.5,17 C65.3283692,17 66,17.7397673 66,18.6521739 L66,18.6521739 L66,34.3478261 C66,35.2602327 65.3283692,36 64.5,36 C63.6716308,36 63,35.2602327 63,34.3478261 L63,34.3478261 L63,18.6521739 C63,17.7397673 63.6716308,17 64.5,17 Z"/>
  </g>
</svg>
