<svg xmlns="http://www.w3.org/2000/svg" width="128" height="128" viewBox="0 0 128 128">
  <g fill-rule="evenodd">
    <path class="fill-primary" d="M87,34.5401821 L87,50 L83.5886866,51.3088772 L83.5886866,91.692961 L46.4215433,86.8900983 L46.4215433,45.7711957 L50,45.7711957 L50,34.5401821 L87,34.5401821 Z M76,56 L67,56 L67,68 L76,68 L76,56 Z M51.4215433,55.5401821 L59.4215433,55.5401821 L59.4215433,68.5401821 L51.4215433,68.5401821 L51.4215433,55.5401821 Z M51.4215433,72.5401821 L59.4215433,72.5401821 L59.4215433,83.5401821 L51.4215433,83.5401821 L51.4215433,72.5401821 Z"/>
    <path class="fill-gray" fill-rule="nonzero" d="M22.4524517,50 L14.5478061,50 C13.6931592,50 13,50.6963588 13,51.5549509 L13,62.4450491 C13,63.3036412 13.6931592,64 14.5478061,64 L22.4521938,64 C23.3068407,64 24,63.3036412 24,62.4450491 L24,51.5549509 C24.0002578,50.6963588 23.3070987,50 22.4524517,50 Z M20.9046457,53.1099017 L20.9046457,54.0838193 L16.0956122,54.0838193 L16.0956122,53.1099017 L20.9046457,53.1099017 Z M49.957963,28 C50.8017336,28 51.4856105,28.6837885 51.4856105,29.5268817 L51.4856105,29.5268817 L51.4856105,33.0896057 L86.9588571,33.0896057 C87.802373,33.0896057 88.4865045,33.7733943 88.4865045,34.6164875 L88.4865045,34.6164875 L88.4865045,38.2150932 L123.961024,38.2150932 C124.80454,38.2150932 125.488672,38.8988817 125.488672,39.7419749 L125.488672,39.7419749 L125.488672,56.2269534 C125.488672,57.0700466 124.80454,57.7538351 123.961024,57.7538351 L123.961024,57.7538351 L121.962352,57.7538351 L121.962352,95.5958172 L124.675708,95.9599785 C125.511841,96.0722043 126.098712,96.8404803 125.986175,97.6759391 C125.883059,98.4429427 125.227189,99 124.474059,99 C124.406333,99 124.337844,98.9954194 124.268845,98.9860036 L124.268845,98.9860036 L3.3244881,82.7575412 C2.48835574,82.6455699 1.90148451,81.8770394 2.0137666,81.0413262 C2.12604869,80.2056129 2.89521917,79.617509 3.73109693,79.7312616 L3.73109693,79.7312616 L6.0391176,80.0409642 L6.0391176,47.5402688 L4.04044554,47.5402688 C3.19667494,47.5402688 2.5127981,46.8564803 2.5127981,46.0133871 L2.5127981,46.0133871 L2.5127981,29.5268817 C2.5127981,28.6837885 3.19667494,28 4.04044554,28 L4.04044554,28 Z M118.906803,57.7538351 L84.9622219,57.7538351 L84.9622219,90.6314158 L101.035619,92.7881362 L101.035619,91.8748065 C101.035619,91.0317133 101.71975,90.3479247 102.563266,90.3479247 L102.563266,90.3479247 L103.709257,90.3479247 L103.709257,78.2842867 C103.709257,77.4411935 104.393388,76.757405 105.236904,76.757405 L105.236904,76.757405 L113.0386,76.757405 C113.882116,76.757405 114.566247,77.4411935 114.566247,78.2842867 L114.566247,78.2842867 L114.566247,90.3479247 L115.714019,90.3479247 C116.557535,90.3479247 117.241667,91.0317133 117.241667,91.8748065 L117.241667,91.8748065 L117.241667,94.9626703 L118.906803,95.1861039 L118.906803,57.7538351 Z M114.186627,93.4016882 L105.608377,93.4016882 L114.186627,94.5527025 L114.186627,93.4016882 Z M111.511207,79.8111685 L106.764806,79.8111685 L106.764806,90.3479247 L111.511207,90.3479247 L111.511207,79.8111685 Z M81.9071816,52.6314014 L47.9603094,52.6314014 L47.9603094,85.6662509 L64.0337065,87.8229713 L64.0337065,86.7495735 C64.0337065,85.9064803 64.717838,85.2226918 65.561354,85.2226918 L65.561354,85.2226918 L66.708108,85.2226918 L66.708108,73.1600717 C66.708108,72.3169785 67.3922394,71.63319 68.2357554,71.63319 L68.2357554,71.63319 L76.0374509,71.63319 C76.8809669,71.63319 77.5650983,72.3169785 77.5650983,73.1600717 L77.5650983,73.1600717 L77.5650983,85.2226918 L78.712107,85.2226918 C79.555623,85.2226918 80.2397544,85.9062258 80.2394998,86.749828 L80.2394998,86.749828 L80.2394998,89.9977599 L81.9071816,90.221448 L81.9071816,52.6314014 Z M96.4521939,76 C97.3068408,76 98,76.6963588 98,77.5549509 L98,77.5549509 L98,88.4450491 C98,89.3036412 97.3068408,90 96.4521939,90 L96.4521939,90 L88.5478061,90 C87.6929012,90 87,89.3036412 87,88.4450491 L87,88.4450491 L87,77.5549509 C87,76.6963588 87.6931592,76 88.5478061,76 L88.5478061,76 Z M77.1844595,88.2764552 L67.4131173,88.2764552 L77.1844595,89.5875376 L77.1844595,88.2764552 Z M94.9043878,83.1934618 L90.0956122,83.1934618 L90.0956122,86.8900983 L94.9043878,86.8900983 L94.9043878,83.1934618 Z M44.9052691,47.5405233 L9.09466709,47.5405233 L9.09466709,80.4511864 L27.0317941,82.8580609 L27.0317941,81.6599677 C27.0317941,80.8168746 27.7159255,80.133086 28.5594415,80.133086 L28.5594415,80.133086 L29.7067048,80.133086 L29.7067048,68.0697025 C29.7067048,67.2266093 30.3908362,66.5428208 31.2343522,66.5428208 L31.2343522,66.5428208 L39.0360477,66.5428208 C39.8795637,66.5428208 40.5636951,67.2266093 40.5636951,68.0697025 L40.5636951,68.0697025 L40.5636951,80.133086 L41.7099399,80.133086 C42.5534559,80.133086 43.2375874,80.8168746 43.2375874,81.6599677 L43.2375874,81.6599677 L43.2375874,85.032595 L44.9052691,85.2562832 L44.9052691,47.5405233 Z M74.5098035,74.6869534 L69.7634029,74.6869534 L69.7634029,85.2226918 L74.5098035,85.2226918 L74.5098035,74.6869534 Z M59.4521939,71 C60.3068408,71 61,71.6960997 61,72.5549509 L61,72.5549509 L61,83.4450491 C61,84.3036412 60.3068408,85 59.4521939,85 L59.4521939,85 L51.5478061,85 C50.6931592,85 50,84.3036412 50,83.4450491 L50,83.4450491 L50,72.5549509 C50,71.6963588 50.6931592,71 51.5478061,71 L51.5478061,71 Z M40.1822925,83.1868495 L30.087089,83.1868495 L30.087089,83.2680287 L40.1822925,84.6226272 L40.1822925,83.1868495 Z M57.9043878,78.1934618 L53.0956122,78.1934618 L53.0956122,81.8900983 L57.9043878,81.8900983 L57.9043878,78.1934618 Z M37.5084002,69.5965842 L32.7619996,69.5965842 L32.7619996,80.133086 L37.5084002,80.133086 L37.5084002,69.5965842 Z M94.9043878,79.1096425 L90.0956122,79.1096425 L90.0956122,80.0835601 L94.9043878,80.0835601 L94.9043878,79.1096425 Z M22.4524517,66 C23.3070987,66 24.0002578,66.6960868 24,67.5549221 L24,67.5549221 L24,78.4450779 C24,79.3036541 23.3068407,80 22.4521938,80 L22.4521938,80 L14.5478061,80 C13.6931592,80 13,79.3036541 13,78.4450779 L13,78.4450779 L13,67.5549221 C13,66.6963459 13.6931592,66 14.5478061,66 L14.5478061,66 Z M20.9043877,73.1933286 L16.0956122,73.1933286 L16.0956122,76.8901559 L20.9043877,76.8901559 L20.9043877,73.1933286 Z M57.9043878,74.1099017 L53.0956122,74.1099017 L53.0956122,75.0838193 L57.9043878,75.0838193 L57.9043878,74.1099017 Z M96.4521939,60 C97.3068408,60 98,60.6963459 98,61.5549221 L98,61.5549221 L98,72.4450779 C98,73.3036541 97.3068408,74 96.4521939,74 L96.4521939,74 L88.5478061,74 C87.6929012,74 87,73.3036541 87,72.4450779 L87,72.4450779 L87,61.5549221 C87,60.6963459 87.6931592,60 88.5478061,60 L88.5478061,60 Z M112.45223,60 C113.306857,60 114,60.6963459 114,61.5549221 L114,61.5549221 L114,72.4450779 C114,73.3036541 113.306857,74 112.45223,74 L112.45223,74 L104.54777,74 C103.693143,74 103,73.3036541 103,72.4450779 L103,72.4450779 L103,61.5549221 C103,60.6963459 103.693143,60 104.54777,60 L104.54777,60 Z M94.9043878,67.1935878 L90.0956122,67.1935878 L90.0956122,70.8901559 L94.9043878,70.8901559 L94.9043878,67.1935878 Z M110.90446,67.1935878 L106.09554,67.1935878 L106.09554,70.8901559 L110.90446,70.8901559 L110.90446,67.1935878 Z M20.9046457,69.1098441 L16.0956122,69.1098441 L16.0956122,70.0837437 L20.9046457,70.0837437 L20.9046457,69.1098441 Z M59.4521939,55 C60.3068408,55 61,55.6963459 61,56.5549221 L61,56.5549221 L61,67.4450779 C61,68.3036541 60.3068408,69 59.4521939,69 L59.4521939,69 L51.5478061,69 C50.6931592,69 50,68.3036541 50,67.4450779 L50,67.4450779 L50,56.5549221 C50,55.6963459 50.6931592,55 51.5478061,55 L51.5478061,55 Z M75.4522302,55 C76.3068571,55 77,55.6963459 77,56.5549221 L77,56.5549221 L77,67.4450779 C77,68.3036541 76.3068571,69 75.4522302,69 L75.4522302,69 L67.5477698,69 C66.6931429,69 66,68.3036541 66,67.4450779 L66,67.4450779 L66,56.5549221 C66,55.6963459 66.6931429,55 67.5477698,55 L67.5477698,55 Z M57.9043878,62.193847 L53.0956122,62.193847 L53.0956122,65.890415 L57.9043878,65.890415 L57.9043878,62.193847 Z M73.9044604,62.193847 L69.0955396,62.193847 L69.0955396,65.890415 L73.9044604,65.890415 L73.9044604,62.193847 Z M110.90446,63.109585 L106.09554,63.109585 L106.09554,64.0837437 L110.90446,64.0837437 L110.90446,63.109585 Z M94.9043878,63.109585 L90.0956122,63.109585 L90.0956122,64.0837437 L94.9043878,64.0837437 L94.9043878,63.109585 Z M39.4522302,50 C40.3068571,50 41,50.6963588 41,51.5549509 L41,51.5549509 L41,62.4450491 C41,63.3036412 40.3068571,64 39.4522302,64 L39.4522302,64 L31.5477698,64 C30.6931429,64 30,63.3036412 30,62.4450491 L30,62.4450491 L30,51.5549509 C30,50.6963588 30.6931429,50 31.5477698,50 L31.5477698,50 Z M37.9044604,57.1934618 L33.0955396,57.1934618 L33.0955396,60.8900983 L37.9044604,60.8900983 L37.9044604,57.1934618 Z M20.9043877,57.193721 L20.9043877,60.8903575 L16.0956122,60.8903575 L16.0956122,57.193721 L20.9043877,57.193721 Z M73.9044604,58.1098441 L69.0955396,58.1098441 L69.0955396,59.0840028 L73.9044604,59.0840028 L73.9044604,58.1098441 Z M57.9043878,58.1098441 L53.0956122,58.1098441 L53.0956122,59.0840028 L57.9043878,59.0840028 L57.9043878,58.1098441 Z M122.433122,41.2691111 L88.4862499,41.2691111 L88.4862499,51.1045197 C88.4862499,51.9476129 87.802373,52.6314014 86.9586024,52.6314014 L86.9586024,52.6314014 L84.9624765,52.6314014 L84.9624765,54.7003262 L122.433122,54.7003262 L122.433122,41.2691111 Z M37.9044604,53.1096425 L33.0955396,53.1096425 L33.0955396,54.0835601 L37.9044604,54.0835601 L37.9044604,53.1096425 Z M85.430955,36.1436237 L51.4856105,36.1436237 L51.4856105,46.0136416 C51.4856105,46.8567348 50.8017336,47.5405233 49.957963,47.5405233 L49.957963,47.5405233 L47.9603094,47.5405233 L47.9603094,49.577638 L85.430955,49.577638 L85.430955,36.1436237 Z M48.4303156,31.0540179 L5.56809298,31.0540179 L5.56809298,44.4867599 L7.55441656,44.4860282 L7.55441656,44.4860282 L7.56676504,44.4854875 C7.5751671,44.4854875 7.58331456,44.4867599 7.59146201,44.4867599 L48.4303156,44.4867599 L48.4303156,31.0540179 Z"/>
  </g>
</svg>
