<svg xmlns="http://www.w3.org/2000/svg" width="128" height="128" viewBox="0 0 128 128">
  <path class="fill-gray" d="M110.53924,16 C111.668457,16 112.583221,16.9152331 112.583221,18.0439815 L112.583221,18.0439815 L112.583221,24.4787379 C112.583221,25.6074863 111.668222,26.5227193 110.53924,26.5227193 C109.410023,26.5227193 108.495258,25.6074863 108.495258,24.4787379 L108.495258,24.4787379 L108.495258,20.0879629 L50.0970606,20.0879629 L50.0970606,66.3110999 L86.4790398,66.3110999 C87.6082569,66.3110999 88.5230212,67.226333 88.5230212,68.3550813 C88.5230212,69.4838297 87.6080225,70.3990628 86.4790398,70.3990628 L86.4790398,70.3990628 L50.097295,70.3990628 L50.097295,83.8889654 C50.097295,85.0177138 49.1820619,85.9329468 48.0533135,85.9329468 C46.9245651,85.9329468 46.0093321,85.0177138 46.0093321,83.8889654 L46.0093321,83.8889654 L46.0093321,20.0879629 L20.0879629,20.0879629 L20.0879629,108.495024 L46.0090977,108.495024 L46.0090977,98.6051162 C46.0090977,97.4763678 46.9243308,96.5611347 48.0530791,96.5611347 C49.1818275,96.5611347 50.0970606,97.4763678 50.0970606,98.6051162 L50.0970606,98.6051162 L50.0970606,108.495024 L108.49479,108.495024 L108.49479,70.3990628 L100.377457,70.3990628 C99.2482403,70.3990628 98.333476,69.4838297 98.333476,68.3550813 C98.333476,67.226333 99.2484746,66.3110999 100.377457,66.3110999 L100.377457,66.3110999 L108.49479,66.3110999 L108.49479,31.291775 C108.49479,30.1630266 109.409788,29.2477935 110.538771,29.2477935 C111.667988,29.2477935 112.583221,30.1630266 112.583221,31.291775 L112.583221,31.291775 L112.583221,110.538771 C112.583221,111.667519 111.667754,112.582752 110.538771,112.582752 L110.538771,112.582752 L18.0439815,112.582752 C16.9152331,112.582752 16,111.667519 16,110.538771 L16,110.538771 L16,18.0439815 C16,16.9152331 16.9152331,16 18.0439815,16 L18.0439815,16 Z M78.1508789,80.1728516 C80.0721029,80.1728516 81.5891927,80.5621745 82.7021484,81.3408203 C83.8151042,82.1194661 84.371582,83.2027995 84.371582,84.5908203 C84.371582,85.7503255 84.0203451,86.7363281 83.3178711,87.5488281 C82.6153971,88.3613281 81.6293945,88.9199219 80.3598633,89.2246094 L80.3598633,89.2246094 L80.3598633,89.3007812 L80.6753029,89.3447938 C82.0180697,89.5533381 83.0470378,89.9935826 83.762207,90.6655273 C84.5323893,91.3891602 84.9174805,92.3645833 84.9174805,93.5917969 C84.9174805,95.3776042 84.2700195,96.7677409 82.9750977,97.762207 C81.6801758,98.7566732 79.8308919,99.2539062 77.4272461,99.2539062 C75.4129232,99.2539062 73.6271159,98.9195964 72.0698242,98.2509766 L72.0698242,98.2509766 L72.0698242,94.9121094 L72.4355197,95.0884332 C73.055004,95.3729022 73.7244466,95.6103516 74.4438477,95.8007812 C75.3071289,96.0292969 76.1619466,96.1435547 77.0083008,96.1435547 C78.3032227,96.1435547 79.2596029,95.9235026 79.8774414,95.4833984 C80.4952799,95.0432943 80.8041992,94.3365885 80.8041992,93.3632812 C80.8041992,92.4915365 80.4487305,91.8736979 79.737793,91.5097656 C79.0268555,91.1458333 77.8927409,90.9638672 76.3354492,90.9638672 L76.3354492,90.9638672 L74.9262695,90.9638672 L74.9262695,87.9550781 L76.3608398,87.9550781 L76.6632279,87.9521958 C77.9478942,87.9272154 78.8986933,87.7398624 79.515625,87.3901367 C80.180013,87.0135091 80.512207,86.3681641 80.512207,85.4541016 C80.512207,84.0491536 79.6319987,83.3466797 77.871582,83.3466797 C77.262207,83.3466797 76.6422526,83.4482422 76.0117188,83.6513672 C75.3811849,83.8544922 74.6808268,84.2057292 73.9106445,84.7050781 L73.9106445,84.7050781 L72.0952148,82.0009766 L72.3973106,81.7922287 C74.0265277,80.712644 75.9443838,80.1728516 78.1508789,80.1728516 Z M35.8198242,55.4394531 L35.8198242,74 L31.8969727,74 L31.8969727,63.2597656 L31.9350586,61.4951172 L31.9985352,59.5654297 L31.825732,59.7376033 C31.266159,60.2929795 30.8709606,60.6629972 30.6401367,60.8476562 L30.6401367,60.8476562 L28.5073242,62.5615234 L26.6157227,60.2001953 L32.5952148,55.4394531 L35.8198242,55.4394531 Z M78.6967773,31.1728516 C79.8562826,31.1728516 80.8803711,31.3844401 81.769043,31.8076172 C82.6577148,32.2307943 83.3474935,32.8232422 83.8383789,33.5849609 C84.3292643,34.3466797 84.574707,35.2184245 84.574707,36.2001953 C84.574707,37.055013 84.4244792,37.8569336 84.1240234,38.605957 C83.8235677,39.3549805 83.3580729,40.1230469 82.7275391,40.9101562 C82.0970052,41.6972656 80.9861654,42.8186849 79.3950195,44.2744141 L79.3950195,44.2744141 L77.0083008,46.5214844 L77.0083008,46.6992188 L85.0952148,46.6992188 L85.0952148,50 L72.1206055,50 L72.1206055,47.2705078 L76.7797852,42.5605469 L77.0182725,42.315624 C78.263731,41.0333828 79.0856024,40.1353688 79.4838867,39.621582 C79.9070638,39.0756836 80.2117513,38.569987 80.3979492,38.1044922 C80.5841471,37.6389974 80.6772461,37.1565755 80.6772461,36.6572266 C80.6772461,35.9124349 80.4720052,35.3580729 80.0615234,34.9941406 C79.6510417,34.6302083 79.1030273,34.4482422 78.4174805,34.4482422 C77.6980794,34.4482422 76.9998372,34.6132812 76.3227539,34.9433594 C75.6456706,35.2734375 74.9389648,35.7431641 74.2026367,36.3525391 L74.2026367,36.3525391 L72.0698242,33.8261719 L72.3393457,33.5994336 C73.1338184,32.9397852 73.8014648,32.4652344 74.3422852,32.1757812 C74.9431966,31.8541667 75.5991211,31.6066081 76.3100586,31.4331055 C77.0209961,31.2596029 77.816569,31.1728516 78.6967773,31.1728516 Z"/>
</svg>
