<svg xmlns="http://www.w3.org/2000/svg" width="128" height="128" viewBox="0 0 128 128">
  <path class="fill-gray" d="M103.859167,75.4436237 L102.525833,72.7806831 C102.3,72.3296476 101.838333,72.0447129 101.333333,72.0447129 L100,72.0447129 L100,69.3817723 C100,69.0285998 99.8595,68.6899071 99.6095,68.4402564 L96.9428333,65.7773158 C96.6928333,65.5276651 96.3536667,65.3873614 96,65.3873614 L92,65.3873614 C91.495,65.3873614 91.0333333,65.6722961 90.8075,66.1233316 L90.6666667,66.4044383 L90.5258333,66.1233316 C90.3,65.6722961 89.8383333,65.3873614 89.3333333,65.3873614 L84,65.3873614 C83.495,65.3873614 83.0333333,65.6722961 82.8075,66.1233316 L81.4741667,68.7862722 C81.316,69.1021636 81.2898333,69.4678186 81.4016667,69.8028498 L81.7055,70.7132426 L81.3333333,70.7132426 C80.9796667,70.7132426 80.6405,70.8535463 80.3905,71.103197 L77.7238333,73.7661376 C77.4738333,74.0157882 77.3333333,74.354481 77.3333333,74.7076535 L77.3333333,77.3705941 L74.5156667,77.3705941 C74.0993333,75.7035933 72.858,74.3649663 71.2253333,73.8228915 L70.4891667,73.577901 L68,61.1501237 L68,50.6301768 C67.9958333,46.9551524 65.0135,43.9769862 61.3333333,43.9728254 L56.6556667,43.9728254 L56.6261667,40.4406011 C57.9406667,39.0022803 58.6685,37.1249072 58.6666667,35.1777983 L58.6666667,31.9895927 C58.6683333,28.3145683 55.6865,25.334072 52.0063333,25.3322412 C50.9096667,25.3317419 49.8298333,25.6015311 48.8626667,26.1176423 C47.8243333,24.1705334 45.4018333,23.432566 43.452,24.4696149 C41.5021667,25.5066638 40.7631667,27.9256125 41.8016667,29.8727214 C42.4966667,31.1758979 43.8548333,31.990092 45.3335,31.9895927 L45.3335,35.1777983 C45.3318333,37.1323967 46.0655,39.0164272 47.3891667,40.4564123 L47.3891667,43.9728254 L42.6668333,43.9728254 C38.9866667,43.9769862 36.0043333,46.9551524 36.0001667,50.6301768 L36.0001667,61.1501237 L33.511,73.577901 L32.7748333,73.8228915 C31.1421667,74.3649663 29.9008333,75.7035933 29.4845,77.3705941 L25.3333333,77.3705941 C24.597,77.3705941 24,77.9667599 24,78.7020644 L24,102.66853 C24,103.403834 24.597,104 25.3333333,104 L30.6666667,104 C31.403,104 32,103.403834 32,102.66853 L32,85.3594159 L40.1666667,85.3594159 L45.3883333,102.936155 C45.5543333,103.494707 46.0646667,103.880667 46.648,103.888822 L54.5368333,104 L54.5555,104 C55.2918333,104 55.8888333,103.403668 55.8888333,102.668363 C55.8888333,102.458823 55.8393333,102.252112 55.7441667,102.065207 L52.3785,95.4516278 L49.5618333,82.3046901 L56.0575,96.4272627 L57.36,102.82298 C57.4863333,103.443279 58.0326667,103.888989 58.6666667,103.888989 L65.3333333,103.888989 C66.0696667,103.888989 66.6666667,103.292989 66.6666667,102.557518 C66.6666667,102.413054 66.6431667,102.269421 66.597,102.132613 L60.9421667,85.3594159 L72,85.3594159 L72,102.66853 C72,103.403834 72.597,104 73.3333333,104 L102.666667,104 C103.403,104 104,103.403834 104,102.66853 L104,76.0391238 C104,75.832413 103.951833,75.6285316 103.859167,75.4436237 Z M101.333333,76.3535172 L101.333333,77.3705941 L97.3333333,77.3705941 L97.3333333,76.5905189 L99.2188333,74.7076535 L100.509333,74.7076535 L101.333333,76.3535172 Z M86.6666667,75.4880615 L86.6666667,73.3761832 L88.7811667,73.3761832 L89.4886667,74.0830275 L89.4741667,74.1121534 C89.316,74.4280447 89.2898333,74.7936998 89.4016667,75.128731 L90.15,77.3705941 L88.5521667,77.3705941 L86.6666667,75.4880615 Z M92.1063333,74.8101767 L92.824,73.3761832 L96,73.3761832 L96,74.1560919 L95.0571667,75.0976079 C94.8071667,75.3472585 94.6666667,75.6859513 94.6666667,76.0391238 L94.6666667,77.3705941 L92.961,77.3705941 L92.1063333,74.8101767 Z M92.824,68.050302 L95.4478333,68.050302 L97.3333333,69.9331675 L97.3333333,70.7132426 L93.8856667,70.7132426 L92.289,69.1188069 L92.824,68.050302 Z M84.1063333,69.4837962 L84.824,68.050302 L88.5093333,68.050302 L89.227,69.4839627 L88.8166667,70.7132426 L84.5166667,70.7132426 L84.1063333,69.4837962 Z M80,75.2590486 L81.8855,73.3761832 L84,73.3761832 L84,75.4877287 L82.1145,77.3705941 L80,77.3705941 L80,75.2590486 Z M46.611,70.1343859 C46.6063333,70.1413761 46.6023333,70.1485328 46.5976667,70.155523 C46.0721667,69.3681247 45.3325,68.746661 44.4656667,68.364529 L46.5713333,63.1072186 C46.7128333,62.7540461 46.6961667,62.3574343 46.5258333,62.0172437 C46.5258333,62.0172437 44.1508333,58.0664384 43.8638333,57.481923 C43.8531667,57.4602866 43.841,57.4396488 43.8293333,57.4186781 C43.6086667,56.953995 43.4516667,56.4618503 43.3626667,55.9553923 L58.783,55.9553923 L57.5965,61.2870987 C57.3726667,62.2857014 57.5426667,63.3319042 58.0711667,64.2086774 L60.764,68.6902399 C61.1368333,69.3115373 61.3336667,70.0222095 61.3333338,70.7465294 L61.3333338,73.2658376 C61.3308333,75.1448751 60.019,76.7687695 58.1806667,77.1692092 L56.446,72.0230765 C55.6243333,69.5818257 53.3328333,67.9377928 50.7538333,67.9392907 C49.0935,67.9382921 47.541,68.7608079 46.611,70.1343859 L46.611,70.1343859 Z M48.0166667,35.5689177 L56.0000029,32.5792676 L56.0000029,35.1777983 C56.0018333,36.900388 55.1395,38.5094699 53.7031667,39.4634683 C52.6718333,40.1500077 51.3281667,40.1500077 50.2968333,39.4634683 C48.9761667,38.5856966 48.1348333,37.1487072 48.0166667,35.5689177 Z M55.4356667,29.9469508 L47.9999998,32.7313881 L47.9999998,31.9895927 C47.9993333,29.7841786 49.789,27.9958476 51.9975,27.9950151 C53.4081667,27.9945161 54.7145,28.7363115 55.4356667,29.9469508 L55.4356667,29.9469508 Z M45.3333333,29.3266521 C44.597,29.3266521 44,28.7304863 44,27.9951818 C44,27.2598774 44.597,26.6637115 45.3333333,26.6637115 C46.0696667,26.6637115 46.6666667,27.2598774 46.6666667,27.9951818 L46.6666667,28.0001748 C46.3931667,28.3641655 46.1578333,28.7551185 45.9641667,29.1670421 C45.7703333,29.2715625 45.5535,29.3263193 45.3333333,29.3266521 Z M33.6181667,76.3491899 L35.0883333,75.8598746 C35.5423333,75.7087527 35.8803333,75.3262879 35.9741667,74.8577768 L38.6408333,61.5430738 C38.658,61.4570276 38.6666667,61.3696498 38.6666667,61.2819392 L38.6666667,50.6301768 C38.6691667,48.425262 40.4586667,46.6382625 42.6666667,46.635766 L48.7223333,46.635766 C49.4586667,46.635766 50.0556667,46.0396001 50.0556667,45.3042957 L50.0556667,42.2998329 C51.3221667,42.7586909 52.7106667,42.7550294 53.9746667,42.2893476 L54,45.3154467 C54.006,46.0464239 54.6011667,46.6359324 55.3333333,46.6359324 L61.3333333,46.6359324 C63.5413333,46.6384289 65.3308333,48.4254285 65.3333333,50.6303433 L65.3333333,61.2821056 C65.3333333,61.3698163 65.342,61.457194 65.3591667,61.5432403 L68.0258333,74.8579432 C68.1196667,75.3264543 68.4576667,75.7089192 68.9116667,75.860041 L70.3818333,76.3493564 C70.8735,76.5124615 71.2976667,76.8323472 71.5895,77.2597492 L66.394,77.2597492 L62.6666667,61.130318 L62.6666667,50.6301768 C62.6668333,49.8948724 62.07,49.2985401 61.3336667,49.2983737 C60.7085,49.2982073 60.1671667,49.7319337 60.0316667,50.3414142 L59.3748333,53.2931174 L43.5333333,53.2931174 L43.9775,50.8698415 L41.3545,50.3905122 L40.6333333,54.3295006 L40.6531667,54.3331622 C40.6361667,54.4072252 40.6256667,54.4826197 40.6215,54.5585135 C40.557,55.8688467 40.8008333,57.1761841 41.3333333,58.375506 L41.3333333,61.130318 L39.5776667,68.7275211 C38.9578333,69.1004992 38.4166667,69.5904803 37.9845,70.1701692 C36.9278333,71.5710424 36.603,73.3909958 37.1098333,75.0703127 L37.7598333,77.2597492 L32.4098333,77.2597492 C32.7016667,76.8320144 33.1263333,76.5121286 33.6181667,76.3491899 L33.6181667,76.3491899 Z M63.6833333,77.3705941 L62.5743333,77.3705941 C62.8928333,76.9679908 63.1638333,76.529937 63.3816667,76.0652539 L63.6833333,77.3705941 Z M29.3333333,101.337059 L26.6666667,101.337059 L26.6666667,85.3594159 L29.3333333,85.3594159 L29.3333333,101.337059 Z M26.6666667,82.6964753 L26.6666667,80.0335347 L38.5843333,80.0335347 L39.3755,82.6964753 L26.6666667,82.6964753 Z M49.9225,96.5033229 L52.3666667,101.306103 L47.6666667,101.239529 L39.6666667,74.3128726 C39.2121667,72.7831796 40.0855,71.1754292 41.6173333,70.7215643 C41.8845,70.6425083 42.1615,70.6022249 42.4401667,70.6022249 C43.516,70.5997348 44.4535,71.333042 44.7088333,72.3765819 L49.8075,96.1787771 C49.8316667,96.2914527 49.8703333,96.4004669 49.9225,96.5033229 L49.9225,96.5033229 Z M59.7558333,101.226048 L58.6391667,95.7457163 C58.6186667,95.6456896 58.5868333,95.5483259 58.5441667,95.4554558 L48.5735,73.7746257 C48.1095,72.5721416 48.7095,71.2216978 49.9136667,70.7583462 C50.1816667,70.6551572 50.4665,70.6022307 50.7538333,70.6022307 C52.1878333,70.6013991 53.462,71.5154535 53.9186667,72.8728874 L63.4775,101.226048 L59.7558333,101.226048 Z M59.1465,80.0335347 L77.3333333,80.0335347 L77.3333333,82.6964753 L60.0443333,82.6964753 L59.1465,80.0335347 Z M74.6666667,85.3594159 L77.3333333,85.3594159 L77.3333333,101.337059 L74.6666667,101.337059 L74.6666667,85.3594159 Z M101.333333,80.0335347 L101.333333,82.6964753 L82.6666667,82.6964753 L82.6666667,85.3594159 L101.333333,85.3594159 L101.333333,101.337059 L80,101.337059 L80,80.0335347 L101.333333,80.0335347 Z M83.3419991,49.1428571 L83.9567138,50.5065702 C84.5139527,51.7497652 84.5139527,53.2106429 83.9567138,54.4538378 C83.7441762,54.9287509 83.7441762,55.48668 83.9567138,55.9615931 C84.5141064,57.2046176 84.5141064,58.6656657 83.9567138,59.9086902 C83.7441762,60.3836033 83.7441762,60.9415324 83.9567138,61.4164455 L83.9567138,61.4164455 L84.5714286,62.7801586 L82.3722866,64 L81.7575719,62.6362869 C81.2006403,61.3930919 81.2006403,59.9323847 81.7575719,58.6891898 C81.9704169,58.2142767 81.9704169,57.6563476 81.7575719,57.1814345 C81.2006403,55.9382395 81.2006403,54.4775323 81.7575719,53.2343374 C81.9704169,52.7594243 81.9704169,52.2013247 81.7575719,51.7264116 L81.7575719,51.7264116 L81.1428571,50.3626985 L83.3419991,49.1428571 Z M90.199142,49.1428571 L90.8138567,50.5065702 C91.3707882,51.7497652 91.3707882,53.2104724 90.8138567,54.4536674 C90.6011654,54.9285804 90.6011654,55.48668 90.8138567,55.9615931 C91.3707882,57.2047881 91.3707882,58.6653248 90.8138567,59.9085198 C90.6011654,60.3834329 90.6011654,60.9415324 90.8138567,61.4164455 L90.8138567,61.4164455 L91.4285714,62.7801586 L89.2294295,64 L88.6147147,62.6362869 C88.0577832,61.3930919 88.0577832,59.9323847 88.6147147,58.6891898 C88.827406,58.2142767 88.827406,57.6561771 88.6147147,57.181264 C88.0577832,55.9380691 88.0577832,54.4775323 88.6147147,53.2343374 C88.827406,52.7594243 88.827406,52.2013247 88.6147147,51.7264116 L88.6147147,51.7264116 L88,50.3626985 L90.199142,49.1428571 Z M97.0562848,49.1428571 L97.6709996,50.5065702 C98.2279311,51.7497652 98.2279311,53.2104724 97.6709996,54.4536674 C97.4583083,54.9285804 97.4583083,55.48668 97.6709996,55.9615931 C98.2279311,57.2047881 98.2279311,58.6653248 97.6709996,59.9085198 C97.4583083,60.3834329 97.4583083,60.9415324 97.6709996,61.4164455 L97.6709996,61.4164455 L98.2857143,62.7801586 L96.0865723,64 L95.4718576,62.6362869 C94.914926,61.3930919 94.914926,59.9323847 95.4718576,58.6891898 C95.6845489,58.2142767 95.6845489,57.6561771 95.4718576,57.181264 C94.914926,55.9380691 94.914926,54.4775323 95.4718576,53.2343374 C95.6845489,52.7594243 95.6845489,52.2013247 95.4718576,51.7264116 L95.4718576,51.7264116 L94.8571429,50.3626985 L97.0562848,49.1428571 Z"/>
</svg>
