<svg xmlns="http://www.w3.org/2000/svg" width="128" height="128" viewBox="0 0 128 128">
  <path class="fill-gray" d="M51.5625,41.8 C50.6995551,41.8 50,42.4864967 50,43.3333333 C50,44.1801699 50.6995551,44.8666667 51.5625,44.8666667 L56.25,44.8666667 L56.25,47.9333333 L53.125,47.9333333 C52.2620551,47.9333333 51.5625,48.6198301 51.5625,49.4666667 C51.5625,50.3135033 52.2620551,51 53.125,51 L71.875,51 C72.7379449,51 73.4375,50.3135033 73.4375,49.4666667 C73.4375,48.6198301 72.7379449,47.9333333 71.875,47.9333333 L68.75,47.9333333 L68.75,44.8666667 L73.4375,44.8666667 C74.3004449,44.8666667 75,44.1801699 75,43.3333333 L75,29.5333333 C75,28.6864967 74.3004449,28 73.4375,28 L51.5625,28 C50.6995551,28 50,28.6864967 50,29.5333333 L50,37.2 C50,38.0468366 50.6995551,38.7333333 51.5625,38.7333333 C52.4254449,38.7333333 53.125,38.0468366 53.125,37.2 L53.125,31.0666667 L58.728125,31.0666667 L69.665625,41.8 L51.5625,41.8 Z M65.625,47.9333333 L59.375,47.9333333 L59.375,44.8666667 L65.625,44.8666667 L65.625,47.9333333 Z M10.7333333,51 C11.5801699,51 12.2666667,51.6798639 12.2666667,52.5185185 L12.2666667,52.5185185 L12.2666667,84.4074074 C12.2666667,85.246062 11.5801699,85.9259259 10.7333333,85.9259259 L10.7333333,85.9259259 L3.06666667,85.9259259 L3.06666667,88.962963 L88.9333333,88.962963 L88.9333333,85.9259259 L81.2666667,85.9259259 C80.4198301,85.9259259 79.7333333,85.246062 79.7333333,84.4074074 L79.7333333,84.4074074 L79.7333333,75.2962963 C79.7333333,74.4576417 80.4198301,73.7777778 81.2666667,73.7777778 C82.1135033,73.7777778 82.8,74.4576417 82.8,75.2962963 L82.8,75.2962963 L82.8,82.8888889 L90.4666667,82.8888889 C91.3135033,82.8888889 92,83.5687528 92,84.4074074 L92,84.4074074 L92,90.4814815 C92,91.3201361 91.3135033,92 90.4666667,92 L90.4666667,92 L1.53333333,92 C0.686496717,92 0,91.3201361 0,90.4814815 L0,90.4814815 L0,84.4074074 C0,83.5687528 0.686496717,82.8888889 1.53333333,82.8888889 L1.53333333,82.8888889 L9.2,82.8888889 L9.2,52.5185185 C9.2,51.6798639 9.88649672,51 10.7333333,51 Z M29.2963552,63.59925 C29.6838103,63.0832012 30.3577457,62.8729441 30.9696976,63.0771937 C31.5817475,63.281149 31.9948047,63.8539184 31.9952945,64.4993469 L31.9952945,64.4993469 L31.9952945,70.5 L36.4935268,70.5 C37.0674918,70.4972927 37.5926344,70.8226511 37.8459983,71.3379332 C38.0993621,71.8532153 38.0364837,72.467993 37.6840589,72.921254 L37.6840589,72.921254 L27.1881837,86.4227081 C26.7664661,86.9633352 26.0320096,87.1490128 25.4042236,86.8737102 C24.7764376,86.5984077 24.4151733,85.9322243 24.5267297,85.2555824 L24.5267297,85.2555824 L25.7262583,78.000801 L21.4994194,78.000801 C20.9314845,78.000801 20.4122938,77.6797629 20.1583056,77.1715321 C19.9043174,76.6633013 19.9591299,76.0551179 20.2998908,75.6005425 L20.2998908,75.6005425 Z M45.1306,0.273037687 C45.65321,-0.0910125622 46.34679,-0.0910125622 46.8694,0.273037687 L46.8694,0.273037687 L59.8,9.20308956 L59.8,1.53691261 C59.8,0.688773065 60.4864967,0.0012201145 61.3333333,0.0012201145 L61.3333333,0.0012201145 L73.6,0.0012201145 C74.4468366,0.0012201145 75.1333333,0.688773065 75.1333333,1.53691261 L75.1333333,1.53691261 L75.1333333,19.7947607 L91.3360667,30.9868876 C91.7514037,31.2732215 92,31.7457646 92,32.2507626 L92,32.2507626 L92,36.8578401 C92,37.7059796 91.3135033,38.3935326 90.4666667,38.3935326 L90.4666667,38.3935326 L82.8,38.3935326 L82.8,69.1073825 C82.8,69.9555221 82.1135033,70.643075 81.2666667,70.643075 C80.4198301,70.643075 79.7333333,69.9555221 79.7333333,69.1073825 L79.7333333,69.1073825 L79.7333333,61.42892 L47.5333333,61.42892 L47.5333333,84.4643075 C47.5333333,85.312447 46.8468366,86 46,86 C45.1531634,86 44.4666667,85.312447 44.4666667,84.4643075 L44.4666667,84.4643075 L44.4666667,61.42892 L16.8666667,61.42892 C16.0198301,61.42892 15.3333333,60.7413671 15.3333333,59.8932275 C15.3333333,59.045088 16.0198301,58.357535 16.8666667,58.357535 L16.8666667,58.357535 L44.4666667,58.357535 L44.4666667,10.7510676 C44.4666667,9.90292805 45.1531634,9.2153751 46,9.2153751 C46.8468366,9.2153751 47.5333333,9.90292805 47.5333333,10.7510676 L47.5333333,10.7510676 L47.5333333,58.357535 L79.7333333,58.357535 L79.7333333,36.8578401 C79.7333333,36.0097005 80.4198301,35.3221476 81.2666667,35.3221476 L81.2666667,35.3221476 L88.9333333,35.3221476 L88.9333333,33.0570011 L72.7306,21.8648742 C72.315263,21.5785404 72.0670287,21.1059973 72.0666667,20.6009993 L72.0666667,20.6009993 L72.0666667,3.07260511 L62.8666667,3.07260511 L62.8666667,12.1331908 C62.8645556,12.7026171 62.5480217,13.2241274 62.0442705,13.4881424 C61.5405193,13.7521574 60.9322598,13.7153295 60.4639333,13.3924587 L60.4639333,13.3924587 L46,3.402779 L3.06666667,33.0570011 L3.06666667,35.3221476 L10.7333333,35.3221476 C11.5801699,35.3221476 12.2666667,36.0097005 12.2666667,36.8578401 L12.2666667,36.8578401 L12.2666667,46.0719951 C12.2666667,46.9201346 11.5801699,47.6076876 10.7333333,47.6076876 C9.88649672,47.6076876 9.2,46.9201346 9.2,46.0719951 L9.2,46.0719951 L9.2,38.3935326 L1.53333333,38.3935326 C0.686496717,38.3935326 0,37.7059796 0,36.8578401 L0,36.8578401 L0,32.2507626 C0,31.7457646 0.248596332,31.2732215 0.663933333,30.9868876 L0.663933333,30.9868876 Z M56.8,69.601649 C57.2970563,68.9371836 58.2372583,68.8025197 58.9,69.3008688 C59.5608357,69.7990267 59.6950147,70.7393771 59.2,71.4033228 C58.4241831,72.4324743 58.0030257,73.6865649 58,74.9765922 C58,78.2989192 60.6862915,80.9921974 64,80.9921974 C67.3137085,80.9921974 70,78.2989192 70,74.9765922 C69.9969743,73.6865649 69.5758169,72.4324743 68.8,71.4033228 C68.3693452,70.7384165 68.5274716,69.8525162 69.161394,69.3786184 C69.7953165,68.9047206 70.6872994,69.0055968 71.2,69.6091685 C72.3649748,71.1551051 72.9967614,73.0390307 73,74.9765922 C73,79.9600827 68.9705627,84 64,84 C59.0294373,84 55,79.9600827 55,74.9765922 C55.0016105,73.0364568 55.6334815,71.1496397 56.8,69.601649 Z M28.9964731,68.9998316 L24.4982409,75.0004779 L27.4970623,75.0004779 C27.9388306,75.0003837 28.3581589,75.1952047 28.6431268,75.5329422 C28.9280947,75.8706797 29.0496984,76.3169591 28.9754813,76.7526666 L28.9754813,76.7526666 L28.4506876,79.9030059 L33.4272318,73.5003163 L30.4958838,73.5003163 C29.6677821,73.5003163 28.9964731,72.8286711 28.9964731,72.0001547 L28.9964731,72.0001547 L28.9964731,68.9998316 Z M64.5,66 C65.3284271,66 66,66.7035525 66,67.5714286 L66,67.5714286 L66,75.4285714 C66,76.2964475 65.3284271,77 64.5,77 C63.6715729,77 63,76.2964475 63,75.4285714 L63,75.4285714 L63,67.5714286 C63,66.7035525 63.6715729,66 64.5,66 Z M24.534272,22.2880407 C29.1037395,19.7601578 34.7810846,21.0480376 37.8961386,25.3191192 C41.0111925,29.5902008 40.629961,35.5638751 36.9988944,39.3784089 L36.9988944,39.3784089 L36.9988944,39.8417036 C38.8180505,40.4946795 40.0263882,42.2743077 39.9974497,44.257947 C39.9685112,46.2415862 38.7088059,47.9830331 36.871423,48.5794413 C36.2662287,52.285742 33.1502431,55 29.5005807,55 C25.8509182,55 22.7349327,52.285742 22.1297383,48.5794413 C20.0180448,47.8896955 18.7116252,45.7156863 19.0544278,43.4618258 C19.3972304,41.2079652 21.2865693,39.5493935 23.5019297,39.5575495 L23.5019297,39.5575495 L28.0009179,39.5575495 L28.0009179,35.5639493 L25.4409936,32.9278026 C24.8726631,32.3218458 24.8807911,31.358647 25.4592617,30.7629523 C26.0377323,30.1672576 26.9730808,30.1588876 27.5615168,30.7441403 L27.5615168,30.7441403 L29.5005807,32.7409404 L31.4396446,30.7441403 C32.0280806,30.1588876 32.9634291,30.1672576 33.5418997,30.7629523 C34.1203703,31.358647 34.1284982,32.3218458 33.5601677,32.9278026 L33.5601677,32.9278026 L31.0002434,35.5639493 L31.0002434,39.5575495 L33.9995689,39.5575495 L33.9995689,38.7205304 C33.9996376,38.2821266 34.1806469,37.8644134 34.4974569,37.5715596 C37.3082501,34.987118 37.8198736,30.6559939 35.6927343,27.4529951 C33.5655951,24.2499962 29.460511,23.1701675 26.1022545,24.9302511 C22.7439981,26.6903348 21.1758464,30.7435426 22.4386689,34.3995354 C22.7161295,35.2033955 22.3082407,36.0866763 21.5276237,36.3723985 C20.7470067,36.6581206 19.8892653,36.2380869 19.6118046,35.4342268 C17.8732893,30.4016279 19.9648044,24.8159236 24.534272,22.2880407 Z M33.7431266,48.8234432 L25.2580348,48.8234432 C25.8959217,50.6730725 27.5945262,51.9096797 29.5005807,51.9120744 C31.4066352,51.9096797 33.1052397,50.6730725 33.7431266,48.8234432 L33.7431266,48.8234432 Z M35.4992316,42.6461807 L23.5019297,42.6461807 C22.6736889,42.6461807 22.002267,43.3375944 22.002267,44.1904963 C22.002267,45.0433983 22.6736889,45.7348119 23.5019297,45.7348119 L23.5019297,45.7348119 L35.4992316,45.7348119 C36.3274725,45.7348119 36.9988944,45.0433983 36.9988944,44.1904963 C36.9988944,43.3375944 36.3274725,42.6461807 35.4992316,42.6461807 L35.4992316,42.6461807 Z M71.875,31.0666667 L71.875,39.6318667 L63.146875,31.0666667 L71.875,31.0666667 Z" transform="translate(18 18)"/>
</svg>
