<svg xmlns="http://www.w3.org/2000/svg" width="128" height="128" viewBox="0 0 128 128">
  <g>
    <path class="fill-gray" fill-rule="nonzero" d="M50.3387097 94.265625L50.3387097 91.1471182C53.1689597 90.6780411 55.5485394 88.7580225 56.6122214 86.0851909 57.6759035 83.4123594 57.2687448 80.3760575 55.5387903 78.0803 56.2317765 75.7541131 55.6384619 73.2337055 53.981371 71.4643636 54.2911175 70.7722872 54.4513756 70.022281 54.4516129 69.2636364 54.4516129 66.2250661 51.9964002 63.7618182 48.9677419 63.7618182 45.9390836 63.7618182 43.483871 66.2250661 43.483871 69.2636364 43.4841082 70.022281 43.6443663 70.7722872 43.9541129 71.4643636 42.2980288 73.2336908 41.7048169 75.7531381 42.3966935 78.0789245 40.6652154 80.3744911 40.2571711 83.4116528 41.321041 86.0852381 42.384911 88.7588233 44.7655843 90.6790265 47.5967742 91.1471182L47.5967742 94.265625 50.3387097 94.265625zM43.483871 83.0181818C43.488351 81.633442 44.0159928 80.3019102 44.9604032 79.2920755 45.3323133 78.8893101 45.4298552 78.3032242 45.2085484 77.8010827 44.4277807 76.046609 44.9744772 73.9833401 46.5205645 72.8494464 47.1262962 72.3936608 47.2490568 71.5315241 46.7947581 70.92381 46.4271899 70.4488474 46.2270852 69.8649516 46.2258065 69.2636364 46.2258065 67.7443512 47.4534128 66.5127273 48.9677419 66.5127273 50.4820711 66.5127273 51.7096774 67.7443512 51.7096774 69.2636364 51.7066748 69.8614901 51.5071719 70.441652 51.1420968 70.9141818 50.687798 71.5218959 50.8105587 72.3840326 51.4162903 72.8398182 52.9632585 73.9731578 53.5096494 76.0374302 52.7269355 77.7914545 52.5059886 78.2938635 52.6040749 78.8799814 52.9764516 79.2824473 54.3022027 80.6923458 54.7833976 82.7017948 54.2407368 84.5620479 53.6980761 86.4223011 52.2129402 87.8543844 50.3387097 88.3246855L50.3387097 84.3936364C50.3387097 83.6339938 49.7249065 83.0181818 48.9677419 83.0181818 48.2105774 83.0181818 47.5967742 83.6339938 47.5967742 84.3936364L47.5967742 88.3246855C45.1829317 87.699413 43.4932139 85.5193243 43.483871 83.0181818zM48.9677419 81.6427273C49.7249065 81.6427273 50.3387097 81.0269153 50.3387097 80.2672727L50.3387097 78.8918182C50.3387097 78.1321756 49.7249065 77.5163636 48.9677419 77.5163636 48.2105774 77.5163636 47.5967742 78.1321756 47.5967742 78.8918182L47.5967742 80.2672727C47.5967742 81.0269153 48.2105774 81.6427273 48.9677419 81.6427273zM114.601583 94.265625L114.601583 91.1471182C117.431833 90.6780411 119.811413 88.7580225 120.875095 86.0851909 121.938777 83.4123594 121.531619 80.3760575 119.801664 78.0803 120.49465 75.7541131 119.901336 73.2337055 118.244245 71.4643636 118.553991 70.7722872 118.714249 70.022281 118.714487 69.2636364 118.714487 66.2250661 116.259274 63.7618182 113.230616 63.7618182 110.201957 63.7618182 107.746745 66.2250661 107.746745 69.2636364 107.746982 70.022281 107.90724 70.7722872 108.216987 71.4643636 106.560903 73.2336908 105.967691 75.7531381 106.659567 78.0789245 104.928089 80.3744911 104.520045 83.4116528 105.583915 86.0852381 106.647785 88.7588233 109.028458 90.6790265 111.859648 91.1471182L111.859648 94.265625 114.601583 94.265625zM107.746745 83.0181818C107.751225 81.633442 108.278867 80.3019102 109.223277 79.2920755 109.595187 78.8893101 109.692729 78.3032242 109.471422 77.8010827 108.690654 76.046609 109.237351 73.9833401 110.783438 72.8494464 111.38917 72.3936608 111.511931 71.5315241 111.057632 70.92381 110.690064 70.4488474 110.489959 69.8649516 110.48868 69.2636364 110.48868 67.7443512 111.716287 66.5127273 113.230616 66.5127273 114.744945 66.5127273 115.972551 67.7443512 115.972551 69.2636364 115.969549 69.8614901 115.770046 70.441652 115.404971 70.9141818 114.950672 71.5218959 115.073432 72.3840326 115.679164 72.8398182 117.226132 73.9731578 117.772523 76.0374302 116.989809 77.7914545 116.768862 78.2938635 116.866949 78.8799814 117.239325 79.2824473 118.565076 80.6923458 119.046271 82.7017948 118.503611 84.5620479 117.96095 86.4223011 116.475814 87.8543844 114.601583 88.3246855L114.601583 84.3936364C114.601583 83.6339938 113.98778 83.0181818 113.230616 83.0181818 112.473451 83.0181818 111.859648 83.6339938 111.859648 84.3936364L111.859648 88.3246855C109.445805 87.699413 107.756088 85.5193243 107.746745 83.0181818zM113.230616 81.6427273C113.98778 81.6427273 114.601583 81.0269153 114.601583 80.2672727L114.601583 78.8918182C114.601583 78.1321756 113.98778 77.5163636 113.230616 77.5163636 112.473451 77.5163636 111.859648 78.1321756 111.859648 78.8918182L111.859648 80.2672727C111.859648 81.0269153 112.473451 81.6427273 113.230616 81.6427273z"/>
    <path class="fill-gray" fill-rule="nonzero" d="M99.6521739,94.265625 L28.3478261,94.265625 L22.5476087,94.265625 L23.765,88.25 L26.173913,88.25 L26.173913,85.671875 L18.7826087,85.671875 L18.7826087,82.9639844 C21.7558696,82.3652148 24,79.7610938 24,76.6484375 C24,73.0944922 21.0743478,70.203125 17.4782609,70.203125 C13.8821739,70.203125 10.9565217,73.0944922 10.9565217,76.6484375 C10.9565217,79.7610938 13.2006522,82.3652148 16.173913,82.9639844 L16.173913,85.671875 L8.7826087,85.671875 L8.7826087,88.25 L11.1915217,88.25 L12.408913,94.265625 L4,94.265625 L4,102 L124,102 L124,94.265625 L99.6521739,94.265625 Z M13.5652174,76.6484375 C13.5652174,74.5161133 15.3206522,72.78125 17.4782609,72.78125 C19.6358696,72.78125 21.3913043,74.5161133 21.3913043,76.6484375 C21.3913043,78.7807617 19.6358696,80.515625 17.4782609,80.515625 C15.3206522,80.515625 13.5652174,78.7807617 13.5652174,76.6484375 Z M28.3478261,96.84375 L28.3478261,99.421875 L18.7826087,99.421875 L18.7826087,96.84375 L28.3478261,96.84375 Z M30.9565217,96.84375 L40.5217391,96.84375 L40.5217391,99.421875 L30.9565217,99.421875 L30.9565217,96.84375 Z M43.1304348,96.84375 L52.6956522,96.84375 L52.6956522,99.421875 L43.1304348,99.421875 L43.1304348,96.84375 Z M56.1304348,96.84375 L72.1304348,96.84375 L72.1304348,99.421875 L56.1304348,99.421875 L56.1304348,96.84375 Z M75.3043478,96.84375 L84.8695652,96.84375 L84.8695652,99.421875 L75.3043478,99.421875 L75.3043478,96.84375 Z M87.4782609,96.84375 L97.0434783,96.84375 L97.0434783,99.421875 L87.4782609,99.421875 L87.4782609,96.84375 Z M99.6521739,96.84375 L109.217391,96.84375 L109.217391,99.421875 L99.6521739,99.421875 L99.6521739,96.84375 Z M13.8519565,88.25 L21.1047826,88.25 L19.8873913,94.265625 L15.0693478,94.265625 L13.8519565,88.25 Z M6.60869565,96.84375 L16.173913,96.84375 L16.173913,99.421875 L6.60869565,99.421875 L6.60869565,96.84375 Z M121.391304,99.421875 L111.826087,99.421875 L111.826087,96.84375 L121.391304,96.84375 L121.391304,99.421875 Z"/>
  </g>
</svg>
