<svg xmlns="http://www.w3.org/2000/svg" width="128" height="128" viewBox="0 0 128 128">
  <path class="fill-gray" d="M118.702235,53.1690282 C118.753871,52.9590435 118.770222,52.738732 118.740101,52.5166994 C118.464712,50.5132414 118.064537,48.5115044 117.551624,46.5657061 C117.547321,46.5450519 117.542157,46.5243977 117.536994,46.5037435 C117.536133,46.4994406 117.534412,46.4951377 117.533551,46.4908348 C117.532691,46.4873922 117.53183,46.4839501 117.53097,46.4805075 C117.530109,46.4770653 117.529248,46.4744835 117.528388,46.4710411 C117.528388,46.4701806 117.528388,46.4693198 117.528388,46.4693198 C114.865716,35.6792183 108.579953,25.9106393 99.8277329,18.9604988 C90.7966813,11.7900469 79.9153569,8 68.360189,8 C54.8351262,8 42.1190198,13.2668226 32.5552618,22.8305807 C23.0827263,32.3031161 17.8279519,44.8694794 17.728984,58.2525445 L12.6162072,61.6381133 C10.3511292,63.1372643 9,65.6553564 9,68.3739662 C9,69.9600372 9.46385911,71.5004968 10.3425234,72.8292508 C11.5396068,74.6356333 13.3434075,75.8008746 15.3081387,76.2406372 C14.7074457,77.3826427 14.3795602,78.6692275 14.3795602,80.0048662 C14.3795602,81.5917977 14.8442799,83.1322574 15.7229442,84.4567082 C16.9174458,86.2613696 18.7229675,87.4274717 20.6894202,87.8680948 C20.0878664,89.0109609 19.759981,90.2984064 19.759981,91.6349056 C19.759981,93.2201158 20.2238398,94.759715 21.1025044,96.0876082 C22.2978665,97.8914088 24.1033885,99.0566504 26.0689802,99.496413 C25.4682872,100.638418 25.139541,101.925864 25.139541,103.261502 C25.139541,104.849295 25.6059819,106.389754 26.485507,107.715926 C27.6765662,109.513703 29.4958574,110.740046 31.6094712,111.169482 C32.1499229,111.278777 32.693817,111.332994 33.2334082,111.332994 C34.8014066,111.332994 36.3367026,110.874299 37.6740626,109.98875 L46.3436656,104.247741 C47.2154454,104.670291 48.1044368,105.069606 48.9951493,105.43794 C52.117377,106.73227 55.3781598,107.70646 58.6983233,108.347601 C60.3145151,110.964661 62.2474045,113.378621 64.4608469,115.524077 L67.7853136,118.746994 C69.1536546,120.070584 70.9522919,120.798645 72.8516183,120.798645 C74.2810615,120.798645 75.6691962,120.380397 76.8671402,119.587792 C78.9067431,118.236663 80.1253413,115.968142 80.1253413,113.519758 C80.1253413,112.086873 79.706233,110.698738 78.915349,109.508539 C78.6588927,109.119552 78.4179269,108.719377 78.1872883,108.314898 C93.8801822,105.233979 107.203006,94.9163426 114.128189,80.3344729 C114.540413,79.4661357 114.171219,78.4274012 113.302881,78.0151776 C112.434544,77.6029543 111.39581,77.9721481 110.983586,78.8404853 C104.409524,92.6831065 91.6503885,102.401771 76.6717857,105.061 C75.2500881,101.175428 74.9721168,96.8922617 75.9075801,92.8560854 L80.151159,74.5203138 C80.8181178,75.2337445 81.6847339,75.7251426 82.660645,75.9239393 C82.9799247,75.9884836 83.3000649,76.0211862 83.6184838,76.0211862 C84.5401778,76.0211862 85.4420782,75.7509604 86.2277985,75.2303021 L115.43801,55.8841955 C115.491367,56.7998654 115.518906,57.7189775 115.518906,58.6372292 C115.518906,62.9892425 114.925958,67.2999474 113.758134,71.4480008 C113.497375,72.3731369 114.036106,73.3344183 114.961242,73.5951775 C115.119591,73.6399282 115.27794,73.6605825 115.434568,73.6605825 C116.19447,73.6605825 116.89241,73.1597181 117.10928,72.3920701 C118.364023,67.9367857 119,63.3093827 119,58.6372292 C119,56.8067501 118.896729,54.970247 118.702235,53.1690282 L118.702235,53.1690282 Z M97.7623122,63.4160961 L72.6932694,26.0285403 L87.4584451,16.2513554 C100.541164,21.9785948 110.482722,33.5277385 114.151425,47.3195847 C114.152285,47.3238878 114.154007,47.3290512 114.154867,47.3333541 C114.157449,47.344542 114.15917,47.3548689 114.161752,47.3651962 C114.534389,48.8789772 114.82785,50.4220187 115.04558,51.9693629 L97.7623122,63.4160961 Z M49.7645186,101.982663 L54.4099939,98.9060468 L55.4573342,101.727928 C55.7791955,102.594544 56.1354807,103.449972 56.5218864,104.292492 C54.411715,103.746876 52.3385491,103.055821 50.3273458,102.221907 C50.1397366,102.144454 49.9521275,102.062698 49.7645186,101.982663 Z M72.5151268,92.0712256 C71.3111587,97.2692008 71.8309562,102.822601 73.9798542,107.70646 C73.9807149,107.707321 73.9807149,107.708181 73.9815755,107.709902 C73.9850178,107.718508 73.9893207,107.727114 73.9936237,107.73572 C74.5573114,109.011978 75.2354579,110.254673 76.0125724,111.431962 C76.4256566,112.05331 76.6433863,112.775346 76.6433863,113.520619 C76.6433863,114.797737 76.0082695,115.981051 74.9445779,116.685876 C74.3197881,117.09896 73.5951698,117.318411 72.8507576,117.318411 C71.8602164,117.318411 70.9213106,116.937169 70.2070192,116.246974 L66.8842738,113.025779 C64.7035339,110.911304 62.8188375,108.513695 61.2818204,105.900938 C61.2680509,105.877702 61.2534209,105.854466 61.2396515,105.832091 C60.2516917,104.143609 59.4048693,102.355299 58.7206988,100.516214 L56.9108739,95.6375185 C56.5761037,94.7364789 55.5752353,94.2769227 54.6733349,94.6108324 C54.6544018,94.6177171 54.6371902,94.6271837 54.6191176,94.6340684 C54.5597368,94.6504197 54.4797018,94.6900069 54.3747095,94.7562724 C54.3626613,94.7631571 54.3514734,94.7709026 54.3394253,94.7777874 C54.33168,94.7829508 54.3256558,94.7863932 54.3170498,94.7915568 L35.7515001,107.086834 C34.7291169,107.763259 33.5044945,108.002503 32.3022476,107.758095 C31.1000008,107.513687 30.0655694,106.816608 29.3874227,105.792503 C28.8856978,105.037764 28.621496,104.162542 28.621496,103.262363 C28.621496,101.715879 29.3908653,100.282133 30.6800319,99.4284261 L32.2652421,98.3802251 C32.2652421,98.3793645 32.2661029,98.3793645 32.2669634,98.378504 C32.2755695,98.3724798 32.2850358,98.3664556 32.2936418,98.3604316 L35.8891948,95.9791737 C36.690406,95.4481885 36.9098569,94.3681456 36.3788718,93.5669345 C35.8478864,92.7657233 34.7678437,92.5462723 33.9666325,93.0763969 L30.3469828,95.4740062 C28.2376719,96.8500927 25.3959975,96.2648902 24.0061414,94.1659064 C23.5061376,93.4103068 23.2410753,92.5359454 23.2410753,91.6366267 C23.2410753,90.0875612 24.0113051,88.6538152 25.3004717,87.8009685 L30.5079135,84.3517161 C31.3091247,83.8215914 31.5302967,82.742409 31.0001721,81.9394768 C30.4700475,81.1382657 29.3900046,80.9179541 28.5879329,81.4472182 L24.9700044,83.8431062 C22.8606935,85.2217746 20.0164372,84.636572 18.6257207,82.5341459 C18.1257168,81.7802674 17.8615151,80.905906 17.8615151,80.0057269 C17.8615151,78.457522 18.6300238,77.0246365 19.9191904,76.1709293 L25.1274928,72.7208161 C25.9295645,72.1906914 26.149876,71.1115093 25.6197514,70.3094376 C25.0904873,69.5073659 24.0095838,69.2870544 23.2075121,69.817179 L19.6085168,72.1984369 C17.4983454,73.5960382 14.643762,73.0168597 13.2461607,70.9066883 C12.7452961,70.1510887 12.4810943,69.275006 12.4810943,68.3739662 C12.4810943,66.826622 13.2504636,65.3937365 14.5379091,64.5408898 L27.1782834,56.1707728 C27.9803551,55.6397874 28.1998061,54.5597447 27.6688207,53.7576728 C27.1378355,52.9564619 26.0569321,52.7370109 25.2565815,53.2679961 L21.2875317,55.8953834 C22.7126719,31.1654137 43.2799583,11.4810943 68.360189,11.4810943 C73.8679773,11.4810943 79.2096715,12.4079518 84.2415526,14.2057285 L57.5270578,31.8960562 C55.348039,33.3435717 54.749067,36.2945416 56.1922796,38.4752814 L56.3471862,38.7093624 L54.0631753,40.2240042 C52.7826145,41.0699662 51.2972327,41.5183345 49.7679609,41.5183345 C49.3540163,41.5183345 48.9409321,41.4847714 48.5355933,41.4193664 C45.7403907,40.970998 42.9004373,41.5846 40.537252,43.1491563 L31.4691947,49.1543666 C30.6679835,49.685352 30.4485327,50.7645342 30.9795179,51.5666059 C31.3142881,52.0726339 31.8676488,52.3463021 32.4321971,52.3463021 C32.7626644,52.3463021 33.0957135,52.2524976 33.3917571,52.0571432 L42.4598143,46.0519328 C44.0923571,44.9718899 46.0545067,44.5476181 47.9813721,44.8565707 C48.5674351,44.9512357 49.1681284,44.9994288 49.7679609,44.9994288 C51.9822639,44.9994288 54.1311619,44.3522637 55.984877,43.1267808 L58.2697487,41.6129995 L77.4807424,70.6192507 L72.5151268,92.0712256 Z M84.3043757,72.3292469 C84.0238227,72.5151348 83.6864706,72.5805395 83.3560033,72.5125529 C83.0238149,72.4454266 82.738959,72.2526541 82.5513498,71.9695194 L60.215547,38.2446428 C60.2138259,38.242061 60.2129651,38.2394791 60.2112441,38.2377581 C60.2095228,38.2351762 60.2078017,38.2334552 60.2060804,38.2308733 L59.0950562,36.5535797 C58.7103717,35.9718196 58.8713025,35.1826566 59.4513413,34.7971114 L69.7904929,27.9511028 L94.8595357,65.3386586 L84.3043757,72.3292469 Z" transform="rotate(34 64 64.4)"/>
</svg>
