<svg xmlns="http://www.w3.org/2000/svg" width="128" height="128" viewBox="0 0 128 128">
  <g>
    <path class="fill-gray" fill-rule="nonzero" d="M23.3021101,9.05463282 L23.3828652,9.07823285 C23.8582218,9.03369449 24.4732072,9.00766152 25.2650397,9.00289768 L71.4483802,9.00119907 C71.4703504,9.00095965 71.4923686,9.00113827 71.5144238,9.00173993 L101.912558,9.00210127 C105.396522,9.00210127 106.154969,9.38145578 106.295538,9.9364161 C106.635969,10.1667833 106.896344,10.5205159 107.004347,10.9525277 L119.992164,58.8592489 C120.009753,58.9228699 120.023815,58.9879643 120.03413,59.0543088 L120.003184,58.9035868 C120.020962,58.9748166 120.034119,59.0465881 120.042738,59.1184972 C120.046554,59.1496004 120.049444,59.1816304 120.051454,59.2139009 C120.053128,59.2391408 120.054178,59.2638548 120.054699,59.2885474 C120.05475,59.3001509 120.054868,59.3119807 120.054868,59.3238384 L120.054868,65.5428839 C120.054868,65.6667051 120.04197,65.7874533 120.017441,65.9038612 C120.041896,66.0196952 120.054868,66.1407003 120.054868,66.2647677 C120.054868,67.2247375 119.279606,68 118.319636,68 L10.7352323,68 L10.7352323,68 C9.77526254,68 9,67.2247375 9,66.2647677 L9,59.3238384 L9.00038409,59.2886285 C9.00086953,59.2639503 9.00188393,59.2392552 9.00343118,59.2145604 L9,59.3238384 C9,59.2541278 9.00409543,59.1853839 9.01205953,59.1178345 C9.01473486,59.0968193 9.01768984,59.0754422 9.02105204,59.0540928 C9.03012677,58.9939209 9.04262063,58.9345686 9.05805244,58.8764205 L21.1983103,10.317082 C21.4296183,9.38761436 22.3684059,8.81485213 23.3021101,9.05463282 Z M62.792,61.059 L12.47,61.059 L12.47,64.529 L62.792,64.529 L62.792,61.059 Z M116.584,61.059 L66.262,61.059 L66.262,64.529 L116.584,64.529 L116.584,61.059 Z M101.912558,12.4725659 L72.667691,12.4739997 C63.5025281,36.2870811 50.9245791,39.9949529 36.3943024,44.2761207 C29.209307,46.3949003 21.7853779,48.5830999 13.9854226,53.4754184 L12.9576515,57.5886061 L62.9546157,57.5887262 C65.2658155,44.9280117 91.6868977,28.6584558 106.355144,23.9115427 L106.858,23.627 L103.810789,12.4215152 C103.291165,12.4548663 102.665513,12.4725659 101.912558,12.4725659 Z M107.781,27.022 L108.055638,26.93549 C95.2942284,30.9349628 69.1611548,46.7262482 66.4852047,57.5885841 L116.097217,57.5886061 L107.781,27.022 Z M24.2411791,12.4504684 L15.1658334,48.756183 C22.3097204,44.8117257 29.2145856,42.7758782 35.4123032,40.9496938 C49.34575,36.8420467 60.4524416,33.5674237 68.9389459,12.4737182 L25.5357727,12.4725659 C25.043365,12.4725659 24.6144091,12.4650096 24.2411791,12.4504684 Z"/>
    <path class="fill-gray" fill-rule="nonzero" d="M69 65L69 74C69 77.1899082 67.3333333 78.7848624 64 78.7848624 60.6666667 78.7848624 59 77.1899082 59 74L59 65 69 65zM66 67.5867634L62 67.5867634 62 73.0863046C62 74.7532771 62.6666667 75.5867634 64 75.5867634 65.3333333 75.5867634 66 74.7532771 66 73.0863046L66 73.0863046 66 67.5867634zM109 65L109 70C109 73.1899082 107.333333 74.7848624 104 74.7848624 100.666667 74.7848624 99 73.1899082 99 70L99 65 109 65zM106 67.5867634L102 67.5867634 102 69.0863046C102 70.7532771 102.666667 71.5867634 104 71.5867634 105.333333 71.5867634 106 70.7532771 106 69.0863046L106 69.0863046 106 67.5867634zM29 65L29 70C29 73.1899082 27.3333333 74.7848624 24 74.7848624 20.6666667 74.7848624 19 73.1899082 19 70L19 65 29 65zM26 67.5867634L22 67.5867634 22 69.0863046C22 70.7532771 22.6666667 71.5867634 24 71.5867634 25.3333333 71.5867634 26 70.7532771 26 69.0863046L26 69.0863046 26 67.5867634z"/>
    <polygon class="fill-gray" fill-rule="nonzero" points="70.641 107 73.912 103.659 67.304 97 74 90.297 70.641 87 63.945 93.571 57.337 87 54 90.385 60.564 97 54.044 103.615 57.337 106.956 63.945 100.385"/>
    <polygon class="fill-gray" fill-rule="nonzero" points="30.641 107 33.912 103.659 27.304 97 34 90.297 30.641 87 23.945 93.571 17.337 87 14 90.385 20.564 97 14.044 103.615 17.337 106.956 23.945 100.385"/>
    <polygon class="fill-gray" fill-rule="nonzero" points="110.641 107 113.912 103.659 107.304 97 114 90.297 110.641 87 103.945 93.571 97.337 87 94 90.385 100.564 97 94.044 103.615 97.337 106.956 103.945 100.385"/>
  </g>
</svg>
