<svg xmlns="http://www.w3.org/2000/svg" width="128" height="128" viewBox="0 0 128 128">
  <g>
    <path class="fill-gray" fill-rule="nonzero" d="M112.348863,90.0829809 L98.4937596,96.9313147 C96.5808347,93.2090014 92.9113007,90.8400921 88.8729997,90.7208335 L76.0827433,90.3531197 C74.0575475,90.2925869 72.0703511,89.7559232 70.269697,88.7828816 L68.9682174,88.0772684 C62.3045025,84.4434954 54.3617621,84.4525302 47.704956,88.1007586 L47.7861366,85.0162981 C47.812909,83.9944688 47.0434209,83.143396 46.0666632,83.1153885 L32.0414261,82.7115355 C31.0646687,82.6835278 30.2519993,83.4885233 30.2252269,84.5103526 L29.3773349,116.708363 C29.3512407,117.730192 30.1207286,118.581265 31.0974863,118.609273 L45.1227234,119.013126 L45.1710863,119.013126 C46.1297076,119.013126 46.9138775,118.215358 46.9397861,117.213405 L46.9803764,115.672982 L50.6240018,113.632034 C52.0541615,112.827038 53.7261356,112.635502 55.2884295,113.09808 L77.0465466,119.486546 C77.084546,119.498291 77.1225454,119.507326 77.1614086,119.516361 C78.734066,119.860584 80.3369502,120.033148 81.9432889,120.032248 C85.3459635,120.034051 88.7089112,119.267002 91.8015453,117.78169 C91.8775441,117.745551 91.950952,117.703088 92.0209054,117.655204 L123.568189,96.3079175 C124.354086,95.7757713 124.607991,94.6961196 124.14768,93.8432401 C121.805535,89.4957226 116.610842,87.8396546 112.348863,90.0829809 L112.348863,90.0829809 Z M32.9629119,114.961044 L33.7125366,86.4618566 L44.2012376,86.7636169 L43.4516129,115.263708 L32.9629119,114.961044 Z M90.2081607,114.476782 C86.3659021,116.290958 82.0745596,116.791483 77.9447145,115.908789 L56.2453237,109.536586 C53.8029979,108.81471 51.1888111,109.11376 48.9546185,110.370492 L47.0926473,111.414005 L47.5909579,92.4654421 C53.4912301,88.3600557 61.0582945,87.9381332 67.3420153,91.3632037 L68.6434951,92.0688169 C70.9182779,93.2975417 73.4271026,93.9751474 75.9860176,94.0528461 L88.7771375,94.4205601 C92.3698091,94.528977 95.420989,97.2050674 96.1498868,100.887628 L77.0975004,100.337412 C76.1207427,100.309404 75.3080736,101.115303 75.2804376,102.136229 C75.2536653,103.158058 76.024017,104.009131 76.999911,104.037139 L98.0256759,104.642466 L98.0749025,104.642466 C99.0326604,104.641563 99.8159665,103.843795 99.841875,102.842746 C99.8634656,102.038654 99.8064666,101.233658 99.6708778,100.442215 L113.881794,93.4177039 C113.895612,93.4113796 113.90943,93.4041518 113.923248,93.396924 C115.938944,92.3299209 118.376088,92.6867932 120.034244,94.2922669 L90.2081607,114.476782 Z" transform="scale(-1 1) rotate(11 0 -697.023)"/>
    <g transform="scale(-1 1) rotate(-33 52.408 181.29)">
      <path class="fill-primary" d="M19.7738426,23.1966823 C23.2119408,23.1966823 26.0079281,20.4060156 26.0079281,16.97446 C26.0079281,13.5429045 23.2119408,10.7522378 19.7738426,10.7522378 C16.9918819,10.7522378 14.6572169,12.59246 13.8576954,15.1077934 C12.771406,14.9335712 11.7022604,14.7080156 10.6736363,14.38446 C11.8939585,7.89934893 17.6028223,2.97446004 24.4494067,2.97446004 C30.0211207,2.97446004 35.0660544,6.27223782 37.300974,11.37446 C37.5487789,11.9406823 38.1098466,12.3077934 38.7285796,12.3077934 L42.3178544,12.3077934 L44.9720163,16.2822378 C45.5502277,17.1486823 46.9871844,17.1486823 47.5653959,16.2822378 L50.2195578,12.3077934 L54.4961404,12.3077934 L55.6993189,15.91046 C55.9128364,16.5466823 56.506633,16.97446 57.1783557,16.97446 L63.4124412,16.97446 C64.2743036,16.97446 64.9709626,16.2791267 64.9709626,15.4189045 L64.9709626,12.3077934 L65.8842562,12.3077934 L70.1031735,16.5186823 C70.4335801,16.84846 70.8886683,17.0102378 71.3593418,16.9666823 C71.8237811,16.9215712 72.2430234,16.6695712 72.5017379,16.2822378 L75.1558998,12.3077934 L76.9201461,12.3077934 L81.4507677,15.70046 L76.6910434,21.6411267 L38.7285796,21.6411267 C38.1098466,21.6411267 37.5487789,22.0066823 37.300974,22.57446 C35.0660544,27.6766823 30.0211207,30.97446 24.4494067,30.97446 C16.9061633,30.97446 10.7531209,24.9980156 10.4507677,17.5422378 C11.4965356,17.8377934 12.5703568,18.0602378 13.6659973,18.2220156 C14.2457673,21.0577934 16.7643378,23.1966823 19.7738426,23.1966823 Z"/>
      <path class="fill-gray" fill-rule="nonzero" d="M6.88543155,16.7786581 C6.87919907,16.9502036 6.85894353,17.1171127 6.85894353,17.2902036 C6.85894353,26.6633854 14.5482612,34.2902036 23.9982535,34.2902036 C30.4613314,34.2902036 36.3447891,30.6831127 39.2600299,25.0174763 L76.9743024,25.0174763 C77.4479706,25.0174763 77.8951507,24.8042036 78.1911934,24.4379309 L84.4236697,16.7106581 C84.6869918,16.3830218 84.8054089,15.965749 84.7524328,15.5500218 C84.6994568,15.1342945 84.4782039,14.758749 84.1416502,14.5083854 L77.9091738,9.87202177 C77.6396192,9.67111268 77.3124142,9.56293086 76.9743024,9.56293086 L73.8580642,9.56293086 C73.3376524,9.56293086 72.8515193,9.82102177 72.5617091,10.2506581 L70.5003176,13.3183854 L67.169059,10.0142036 C66.8776907,9.72520359 66.4819284,9.56293086 66.0674688,9.56293086 L62.9512306,9.56293086 C62.0895907,9.56293086 61.3931115,10.253749 61.3931115,11.1083854 L61.3931115,14.1992945 L57.8421581,14.1992945 L56.6392902,10.6200218 C56.4258279,9.98793086 55.8321845,9.56293086 55.1606352,9.56293086 L48.9281588,9.56293086 C48.4077471,9.56293086 47.9216139,9.82102177 47.6318037,10.2506581 L45.8119207,12.9582945 L43.9920376,10.2506581 C43.7022274,9.82102177 43.2160943,9.56293086 42.6956825,9.56293086 L39.2600299,9.56293086 C36.3447891,3.8972945 30.4628895,0.290203591 23.9982535,0.290203591 C15.8461744,0.290203591 9.01693846,5.96974905 7.29210063,13.5455672 C-0.320869219,9.93693086 -2.28254115,12.8763854 6.88543155,16.7786581 Z M16.9867176,15.744749 C16.8729749,15.744749 16.7639066,15.7292945 16.6501639,15.727749 C17.1939474,14.8174763 18.183353,14.1992945 19.3238962,14.1992945 C21.0425016,14.1992945 22.4401344,15.5855672 22.4401344,17.2902036 C22.4401344,18.99484 21.0425016,20.3811127 19.3238962,20.3811127 C18.16933,20.3811127 17.1690175,19.7474763 16.6314664,18.8171127 C16.7514416,18.8202036 16.8667424,18.8356581 16.9867176,18.8356581 L19.3238962,18.8356581 L19.3238962,15.744749 L16.9867176,15.744749 Z M19.3238962,23.4720218 C22.7611069,23.4720218 25.5563725,20.6994763 25.5563725,17.2902036 C25.5563725,13.8809309 22.7611069,11.1083854 19.3238962,11.1083854 C16.5426536,11.1083854 14.2085913,12.9366581 13.4092762,15.4356581 C12.3232672,15.2625672 11.2543975,15.0384763 10.2260389,14.7170218 C11.4460461,8.27402177 17.1534363,3.38111268 23.9982535,3.38111268 C29.5685292,3.38111268 34.6121607,6.65747632 36.8465034,11.7265672 C37.0942444,12.2891127 37.6551672,12.65384 38.2737405,12.65384 L41.8620888,12.65384 L44.5155656,16.6024763 C45.0936278,17.4632945 46.5302136,17.4632945 47.1082757,16.6024763 L49.7617525,12.65384 L54.0372313,12.65384 L55.2400992,16.2331127 C55.4535616,16.8652036 56.0472049,17.2902036 56.7187543,17.2902036 L62.9512306,17.2902036 C63.8128704,17.2902036 64.5093497,16.5993854 64.5093497,15.744749 L64.5093497,12.65384 L65.4224075,12.65384 L69.6402358,16.8373854 C69.9705571,17.1650218 70.4255278,17.325749 70.8960798,17.2824763 C71.3603993,17.2376581 71.7795333,16.9872945 72.0381811,16.6024763 L74.6916579,12.65384 L76.4554487,12.65384 L80.9849009,16.0244763 L76.2264052,21.9265672 L38.2737405,21.9265672 C37.6551672,21.9265672 37.0942444,22.289749 36.8465034,22.85384 C34.6121607,27.9229309 29.5685292,31.1992945 23.9982535,31.1992945 C16.4569571,31.1992945 10.3055029,25.2616581 10.0032278,17.8542945 C11.0487257,18.1479309 12.1222698,18.3689309 13.2176275,18.5296581 C13.7972478,21.3470218 16.3151683,23.4720218 19.3238962,23.4720218 Z"/>
    </g>
  </g>
</svg>
