<svg xmlns="http://www.w3.org/2000/svg" width="128" height="128" viewBox="0 0 128 128">
  <g>
    <g transform="translate(27 45)">
      <path class="fill-primary" d="M66.1411378,6 L68.0468145,12.147551 L77.4291883,11.2132783 L85,31.9305429 L80.5291975,32.4575305 L83.6859082,58.3302313 L63.1148375,60.9515388 L46.869,61.528 L55.1449504,60.3307188 L53.5706581,47.5190994 L44.8032652,48.4465125 L46.752,61.533 L38.6077825,61.8225277 L17.9308719,64 L14.598706,39.6494418 L8,40.0144418 L13.7344018,17.5558418 L60.3980954,12.9091908 L60.0885372,6 L66.1411378,6 Z M31.6194229,49.3216718 L19.980072,50.767015 L20.4271591,56.6437672 L32.2975393,55.1366053 L31.6194229,49.3216718 Z M77.440238,46.0986858 L66.1980316,47.0768847 L66.7965593,51.4991441 L78.1544528,49.8911509 L77.440238,46.0986858 Z M47.9722894,42.9013036 C50.0419225,42.9013036 51.7196915,41.249176 51.7196915,39.2111733 C51.7196915,37.1731705 50.0419225,35.5210429 47.9722894,35.5210429 C45.9026564,35.5210429 44.2248873,37.1731705 44.2248873,39.2111733 C44.2248873,41.249176 45.9026564,42.9013036 47.9722894,42.9013036 Z"/>
      <path class="fill-gray" fill-rule="nonzero" d="M84.2343946,61.3686636 L82.8215333,61.3686636 L82.8215333,38.7926267 L87.0601173,38.7926267 C87.5052408,38.7924425 87.9242499,38.5827783 88.190879,38.2268151 C88.4575081,37.870852 88.5405762,37.4102178 88.4150513,36.9837218 L81.3507447,12.9966826 C81.1740347,12.3962745 80.6224419,11.9838423 79.9958106,11.9835829 L71.5186426,11.9835829 L71.5186426,6.33957373 C71.5186426,5.56029868 70.8860831,4.92857143 70.1057813,4.92857143 L61.6286133,4.92857143 C60.8483116,4.92857143 60.215752,5.56029868 60.215752,6.33957373 L60.215752,11.9835829 L15.0041894,11.9835829 C14.3775581,11.9838423 13.8259653,12.3962745 13.6492553,12.9966826 L6.58494868,36.9837218 C6.45942381,37.4102178 6.54249193,37.870852 6.80912099,38.2268151 C7.07575005,38.5827783 7.49475921,38.7924425 7.9398827,38.7926267 L12.1784667,38.7926267 L12.1784667,61.3686636 L5.11416003,61.3686636 C4.33385827,61.3686636 3.7012987,62.0003908 3.7012987,62.7796659 C3.7012987,63.558941 4.33385827,64.1906682 5.11416003,64.1906682 L84.2343946,64.1906682 C85.0146964,64.1906682 85.647256,63.558941 85.647256,62.7796659 C85.647256,62.0003908 85.0146964,61.3686636 84.2343946,61.3686636 Z M63.0414747,7.75057604 L68.69292,7.75057604 L68.69292,11.9835829 L63.0414747,11.9835829 L63.0414747,7.75057604 Z M16.0610096,14.8055876 L78.9333389,14.8055876 L85.1654703,35.9706221 L60.7526393,35.9706221 L48.4381399,25.0381763 C47.9029873,24.5635764 47.0970127,24.5635764 46.5618601,25.0381763 L34.2473607,35.9706221 L9.8288783,35.9706221 L16.0610096,14.8055876 Z M15.0041894,38.7926267 L33.3713867,38.7926267 L33.3713867,61.3686636 L15.0041894,61.3686636 L15.0041894,38.7926267 Z M36.1971093,38.0151645 L47.5,27.9815271 L58.8028907,38.0151645 L58.8028907,61.3686636 L53.1514453,61.3686636 L53.1514453,48.6696429 C53.1514453,47.8903678 52.5188858,47.2586406 51.738584,47.2586406 L43.261416,47.2586406 C42.4811142,47.2586406 41.8485547,47.8903678 41.8485547,48.6696429 L41.8485547,61.3686636 L36.1971093,61.3686636 L36.1971093,38.0151645 Z M44.6742773,61.3686636 L44.6742773,50.0806452 L50.3257227,50.0806452 L50.3257227,61.3686636 L44.6742773,61.3686636 Z M61.6286133,61.3686636 L61.6286133,38.7926267 L79.9958106,38.7926267 L79.9958106,61.3686636 L61.6286133,61.3686636 Z M89.88584,61.3686636 L88.4729786,61.3686636 C87.6926769,61.3686636 87.0601173,62.0003908 87.0601173,62.7796659 C87.0601173,63.558941 87.6926769,64.1906682 88.4729786,64.1906682 L89.88584,64.1906682 C90.6661417,64.1906682 91.2987013,63.558941 91.2987013,62.7796659 C91.2987013,62.0003908 90.6661417,61.3686636 89.88584,61.3686636 Z M47.5,44.4366359 C50.6212071,44.4366359 53.1514453,41.9097269 53.1514453,38.7926267 C53.1514453,35.6755265 50.6212071,33.1486175 47.5,33.1486175 C44.3787929,33.1486175 41.8485547,35.6755265 41.8485547,38.7926267 C41.8485547,41.9097269 44.3787929,44.4366359 47.5,44.4366359 Z M47.5,35.9706221 C49.0606035,35.9706221 50.3257227,37.2340766 50.3257227,38.7926267 C50.3257227,40.3511768 49.0606035,41.6146313 47.5,41.6146313 C45.9393965,41.6146313 44.6742773,40.3511768 44.6742773,38.7926267 C44.6742773,37.2340766 45.9393965,35.9706221 47.5,35.9706221 Z M30.545664,47.2586406 L17.829912,47.2586406 C17.0496103,47.2586406 16.4170507,47.8903678 16.4170507,48.6696429 L16.4170507,54.3136521 C16.4170507,55.0929271 17.0496103,55.7246544 17.829912,55.7246544 L30.545664,55.7246544 C31.3259658,55.7246544 31.9585253,55.0929271 31.9585253,54.3136521 L31.9585253,48.6696429 C31.9585253,47.8903678 31.3259658,47.2586406 30.545664,47.2586406 Z M29.1328027,52.9026498 L19.2427734,52.9026498 L19.2427734,50.0806452 L29.1328027,50.0806452 L29.1328027,52.9026498 Z M77.170088,47.2586406 L64.454336,47.2586406 C63.6740342,47.2586406 63.0414747,47.8903678 63.0414747,48.6696429 L63.0414747,54.3136521 C63.0414747,55.0929271 63.6740342,55.7246544 64.454336,55.7246544 L77.170088,55.7246544 C77.9503897,55.7246544 78.5829493,55.0929271 78.5829493,54.3136521 L78.5829493,48.6696429 C78.5829493,47.8903678 77.9503897,47.2586406 77.170088,47.2586406 Z M75.7572266,52.9026498 L65.8671973,52.9026498 L65.8671973,50.0806452 L75.7572266,50.0806452 L75.7572266,52.9026498 Z" transform="rotate(-6 47.5 34.56)"/>
    </g>
    <path class="fill-gray" fill-rule="nonzero" d="M85.9721726,12.3721546 L72.1170692,19.2204884 C70.2041443,15.4981751 66.5346103,13.1292658 62.4963093,13.0100072 L49.7060529,12.6422934 C47.6808571,12.5817606 45.6936607,12.0450969 43.8930066,11.0720553 L42.591527,10.3664421 C35.9278121,6.73266905 27.9850716,6.74170391 21.3282655,10.3899323 L21.4094462,7.30547176 C21.4362186,6.28364247 20.6667304,5.43256974 19.6899728,5.40456221 L5.6647357,5.00070923 C4.68797828,4.97270147 3.8753089,5.77769697 3.84853653,6.79952625 L3.00064451,38.9975367 C2.9745503,40.019366 3.7440382,40.8704385 4.72079584,40.8984463 L18.746033,41.3022993 L18.7943958,41.3022993 C19.7530172,41.3022993 20.5371871,40.5045316 20.5630957,39.5025788 L20.603686,37.9621555 L24.2473114,35.9212074 C25.6774711,35.1162119 27.3494451,34.9246754 28.911739,35.3872542 L50.6698561,41.7757197 C50.7078556,41.7874648 50.745855,41.7964997 50.7847182,41.8055343 C52.3573756,42.1497579 53.9602598,42.3223215 55.5665985,42.3214216 C58.969273,42.3232249 62.3322208,41.5561754 65.4248548,40.070864 C65.5008537,40.034725 65.5742616,39.9922619 65.644215,39.9443776 L97.1914985,18.5970912 C97.9773956,18.064945 98.2313006,16.9852933 97.7709896,16.1324138 C95.4288441,11.7848963 90.2341519,10.1288283 85.9721726,12.3721546 L85.9721726,12.3721546 Z M6.58622147,37.2502179 L7.33584621,8.75103035 L17.8245472,9.05279058 L17.0749224,37.5528816 L6.58622147,37.2502179 Z M63.8314703,36.7659558 C59.9892117,38.5801318 55.6978692,39.0806564 51.568024,38.1979622 L29.8686333,31.8257593 C27.4263075,31.1038834 24.8121207,31.4029334 22.577928,32.6596657 L20.7159569,33.7031784 L21.2142675,14.7546158 C27.1145397,10.6492294 34.6816041,10.2273069 40.9653248,13.6523774 L42.2668047,14.3579906 C44.5415875,15.5867154 47.0504122,16.2643211 49.6093271,16.3420198 L62.4004471,16.7097338 C65.9931186,16.8181507 69.0442986,19.4942411 69.7731963,23.1768014 L50.72081,22.6265857 C49.7440523,22.598578 48.9313832,23.4044771 48.9037472,24.4254027 C48.8769749,25.447232 49.6473265,26.2983045 50.6232206,26.3263123 L71.6489854,26.9316401 L71.6982121,26.9316401 C72.6559699,26.9307364 73.439276,26.1329687 73.4651846,25.1319196 C73.4867751,24.3278275 73.4297761,23.522832 73.2941874,22.7313887 L87.5051033,15.7068776 C87.5189212,15.7005533 87.5327392,15.6933255 87.5465572,15.6860977 C89.5622533,14.6190946 91.9993972,14.9759669 93.6575533,16.5814406 L63.8314703,36.7659558 Z" transform="matrix(1 0 0 -1 0 47.321)"/>
  </g>
</svg>
