<svg xmlns="http://www.w3.org/2000/svg" width="128" height="128" viewBox="0 0 128 128">
  <g>
    <g transform="scale(-1 1) rotate(-30 103.328 267.965)">
      <path class="fill-primary" d="M17.6171848,22.7017347 C20.9584351,22.7017347 23.6756623,20.0107347 23.6756623,16.7017347 C23.6756623,13.3927347 20.9584351,10.7017347 17.6171848,10.7017347 C14.9135892,10.7017347 12.6446894,12.4762347 11.8676897,14.9017347 C10.812,14.7337347 9.77297107,14.5162347 8.77332229,14.2042347 C9.95926925,7.9507347 15.50732,3.2017347 22.1610429,3.2017347 C27.5758071,3.2017347 32.47863,6.3817347 34.6505942,11.3017347 C34.8914187,11.8477347 35.4366817,12.2017347 36.0379856,12.2017347 L39.526154,12.2017347 L42.1055508,16.0342347 C42.6674745,16.8697347 44.0639536,16.8697347 44.6258774,16.0342347 L47.2052742,12.2017347 L51.3613897,12.2017347 L52.5306759,15.6757347 C52.7381787,16.2892347 53.3152487,16.7017347 53.9680497,16.7017347 L60.0265271,16.7017347 C60.8641116,16.7017347 61.5411465,16.0312347 61.5411465,15.2017347 L61.5411465,12.2017347 L62.4287135,12.2017347 L66.5287881,16.2622347 C66.8498874,16.5802347 67.2921563,16.7362347 67.7495713,16.6942347 C68.2009279,16.6507347 68.6083605,16.4077347 68.8597873,16.0342347 L71.4391841,12.2017347 L73.1537332,12.2017347 L77.5567317,15.4732347 L72.9310842,21.2017347 L36.0379856,21.2017347 C35.4366817,21.2017347 34.8914187,21.5542347 34.6505942,22.1017347 C32.47863,27.0217347 27.5758071,30.2017347 22.1610429,30.2017347 C14.8302851,30.2017347 8.85056788,24.4387347 8.55673172,17.2492347 C9.57304132,17.5342347 10.6166141,17.7487347 11.6813915,17.9047347 C12.2448299,20.6392347 14.6924548,22.7017347 17.6171848,22.7017347 Z"/>
      <path class="fill-gray" fill-rule="nonzero" d="M6.23258294,16.3212601 C6.22649886,16.4877601 6.20672558,16.6497601 6.20672558,16.8177601 C6.20672558,25.9152601 13.7129643,33.3177601 22.9379567,33.3177601 C29.2471519,33.3177601 34.9905272,29.8167601 37.8363575,24.3177601 L74.6526711,24.3177601 C75.1150615,24.3177601 75.5515945,24.1107601 75.8405885,23.7552601 L81.9246726,16.2552601 C82.1817251,15.9372601 82.2973227,15.5322601 82.245608,15.1287601 C82.1938933,14.7252601 81.9779083,14.3607601 81.6493678,14.1177601 L75.5652837,9.6177601 C75.3021471,9.4227601 74.9827327,9.3177601 74.6526711,9.3177601 L71.6106291,9.3177601 C71.1026081,9.3177601 70.6280495,9.5682601 70.3451396,9.9852601 L68.3328288,12.9627601 L65.0808859,9.7557601 C64.796455,9.4752601 64.4101156,9.3177601 64.005524,9.3177601 L60.963482,9.3177601 C60.1223574,9.3177601 59.442461,9.9882601 59.442461,10.8177601 L59.442461,13.8177601 L55.9760541,13.8177601 L54.8018259,10.3437601 C54.593446,9.7302601 54.013937,9.3177601 53.3583769,9.3177601 L47.2742929,9.3177601 C46.7662719,9.3177601 46.2917133,9.5682601 46.0088034,9.9852601 L44.2322509,12.6132601 L42.4556983,9.9852601 C42.1727884,9.5682601 41.6982299,9.3177601 41.1902089,9.3177601 L37.8363575,9.3177601 C34.9905272,3.8187601 29.2486729,0.317760101 22.9379567,0.317760101 C14.9799748,0.317760101 8.31333968,5.8302601 6.62956942,13.1832601 C-0.802139239,9.6807601 -2.71710469,12.5337601 6.23258294,16.3212601 Z M16.0933622,15.3177601 C15.9823276,15.3177601 15.8758562,15.3027601 15.7648216,15.3012601 C16.295658,14.4177601 17.2615063,13.8177601 18.3748937,13.8177601 C20.0525799,13.8177601 21.4169357,15.1632601 21.4169357,16.8177601 C21.4169357,18.4722601 20.0525799,19.8177601 18.3748937,19.8177601 C17.2478171,19.8177601 16.2713216,19.2027601 15.7465694,18.2997601 C15.863688,18.3027601 15.9762435,18.3177601 16.0933622,18.3177601 L18.3748937,18.3177601 L18.3748937,15.3177601 L16.0933622,15.3177601 Z M18.3748937,22.8177601 C21.730266,22.8177601 24.4589777,20.1267601 24.4589777,16.8177601 C24.4589777,13.5087601 21.730266,10.8177601 18.3748937,10.8177601 C15.6598712,10.8177601 13.3813817,12.5922601 12.6010979,15.0177601 C11.5409463,14.8497601 10.4975259,14.6322601 9.49365199,14.3202601 C10.6846114,8.0667601 16.2561114,3.3177601 22.9379567,3.3177601 C28.3756068,3.3177601 33.2991518,6.4977601 35.480296,11.4177601 C35.7221383,11.9637601 36.2697059,12.3177601 36.8735512,12.3177601 L40.3764626,12.3177601 L42.9667614,16.1502601 C43.5310602,16.9857601 44.9334416,16.9857601 45.4977404,16.1502601 L48.0880391,12.3177601 L52.2617208,12.3177601 L53.435949,15.7917601 C53.6443289,16.4052601 54.2238379,16.8177601 54.879398,16.8177601 L60.963482,16.8177601 C61.8046066,16.8177601 62.484503,16.1472601 62.484503,15.3177601 L62.484503,12.3177601 L63.3758213,12.3177601 L67.4932252,16.3782601 C67.8156817,16.6962601 68.2598198,16.8522601 68.7191681,16.8102601 C69.1724324,16.7667601 69.5815871,16.5237601 69.8340765,16.1502601 L72.4243753,12.3177601 L74.1461711,12.3177601 L78.5677792,15.5892601 L73.922581,21.3177601 L36.8735512,21.3177601 C36.2697059,21.3177601 35.7221383,21.6702601 35.480296,22.2177601 C33.2991518,27.1377601 28.3756068,30.3177601 22.9379567,30.3177601 C15.576215,30.3177601 9.57122406,24.5547601 9.27614598,17.3652601 C10.2967511,17.6502601 11.3447346,17.8647601 12.4140123,18.0207601 C12.9798321,20.7552601 15.4378021,22.8177601 18.3748937,22.8177601 Z"/>
    </g>
    <path class="fill-gray" fill-rule="nonzero" d="M85.9721726,12.3721546 L72.1170692,19.2204884 C70.2041443,15.4981751 66.5346103,13.1292658 62.4963093,13.0100072 L49.7060529,12.6422934 C47.6808571,12.5817606 45.6936607,12.0450969 43.8930066,11.0720553 L42.591527,10.3664421 C35.9278121,6.73266905 27.9850716,6.74170391 21.3282655,10.3899323 L21.4094462,7.30547176 C21.4362186,6.28364247 20.6667304,5.43256974 19.6899728,5.40456221 L5.6647357,5.00070923 C4.68797828,4.97270147 3.8753089,5.77769697 3.84853653,6.79952625 L3.00064451,38.9975367 C2.9745503,40.019366 3.7440382,40.8704385 4.72079584,40.8984463 L18.746033,41.3022993 L18.7943958,41.3022993 C19.7530172,41.3022993 20.5371871,40.5045316 20.5630957,39.5025788 L20.603686,37.9621555 L24.2473114,35.9212074 C25.6774711,35.1162119 27.3494451,34.9246754 28.911739,35.3872542 L50.6698561,41.7757197 C50.7078556,41.7874648 50.745855,41.7964997 50.7847182,41.8055343 C52.3573756,42.1497579 53.9602598,42.3223215 55.5665985,42.3214216 C58.969273,42.3232249 62.3322208,41.5561754 65.4248548,40.070864 C65.5008537,40.034725 65.5742616,39.9922619 65.644215,39.9443776 L97.1914985,18.5970912 C97.9773956,18.064945 98.2313006,16.9852933 97.7709896,16.1324138 C95.4288441,11.7848963 90.2341519,10.1288283 85.9721726,12.3721546 L85.9721726,12.3721546 Z M6.58622147,37.2502179 L7.33584621,8.75103035 L17.8245472,9.05279058 L17.0749224,37.5528816 L6.58622147,37.2502179 Z M63.8314703,36.7659558 C59.9892117,38.5801318 55.6978692,39.0806564 51.568024,38.1979622 L29.8686333,31.8257593 C27.4263075,31.1038834 24.8121207,31.4029334 22.577928,32.6596657 L20.7159569,33.7031784 L21.2142675,14.7546158 C27.1145397,10.6492294 34.6816041,10.2273069 40.9653248,13.6523774 L42.2668047,14.3579906 C44.5415875,15.5867154 47.0504122,16.2643211 49.6093271,16.3420198 L62.4004471,16.7097338 C65.9931186,16.8181507 69.0442986,19.4942411 69.7731963,23.1768014 L50.72081,22.6265857 C49.7440523,22.598578 48.9313832,23.4044771 48.9037472,24.4254027 C48.8769749,25.447232 49.6473265,26.2983045 50.6232206,26.3263123 L71.6489854,26.9316401 L71.6982121,26.9316401 C72.6559699,26.9307364 73.439276,26.1329687 73.4651846,25.1319196 C73.4867751,24.3278275 73.4297761,23.522832 73.2941874,22.7313887 L87.5051033,15.7068776 C87.5189212,15.7005533 87.5327392,15.6933255 87.5465572,15.6860977 C89.5622533,14.6190946 91.9993972,14.9759669 93.6575533,16.5814406 L63.8314703,36.7659558 Z" transform="matrix(1 0 0 -1 0 47.321)"/>
  </g>
</svg>
